  0
SECTION
  2
HEADER
  9
$ACADVER
  1
AC1009
  9
$FILLMODE
 70
1
  9
$EXTMIN
 10
0.0000
 20
0.0000
 30
0.0000
  9
$EXTMAX
 10
127.5875
 20
70.0000
 30
0.0000
  0
ENDSEC
  0
SECTION
  2
TABLES
  0
TABLE
  2
LTYPE
 70
1
  0
LTYPE
  2
CONTINUOUS
 70
64
  3
Solid line
 72
65
 73
0
 40
0
  0
ENDTAB
  0
TABLE
  2
LAYER
 70
255
  0
LAYER
  2
1
 70
64
 62
12
  6
CONTINUOUS
  0
LAYER
  2
17
 70
64
 62
110
  6
CONTINUOUS
  0
LAYER
  2
18
 70
64
 62
110
  6
CONTINUOUS
  0
ENDTAB
  0
ENDSEC
  0
SECTION
  2
BLOCKS
  0
BLOCK
  8
0
  2
RECT
 70
64
 10
0.0000
 20
0.0000
 30
0.0000
  3
RECT
  0
SOLID
  8
0
 10
-0.5000
 20
-0.5000
 30
0.0000
 11
0.5000
 21
-0.5000
 31
0.0000
 12
-0.5000
 22
0.5000
 32
0.0000
 13
0.5000
 23
0.5000
 33
0.0000
  0
ENDBLK
  8
0
  0
BLOCK
  8
0
  2
PIE
 70
64
 10
0.0000
 20
0.0000
 30
0.0000
  3
PIE
  0
POLYLINE
  8
0
 66
1
 10
0.0000
 20
0.0000
 30
0.0000
 40
0.5000
 41
0.5000
 70
0
  0
VERTEX
  8
0
 10
0.0000
 20
-0.2500
 30
0.0000
 42
1.0000
  0
VERTEX
  8
0
 10
0.0000
 20
0.2500
 30
0.0000
 42
1.0000
  0
VERTEX
  8
0
 10
0.0000
 20
-0.2500
 30
0.0000
  0
SEQEND
  8
0
  0
ENDBLK
  8
0
  0
BLOCK
  8
0
  2
OCTAGONP
 70
64
 10
0.0000
 20
0.0000
 30
0.0000
  3
OCTAGONP
  0
POLYLINE
  8
0
 66
1
 10
0.0000
 20
0.0000
 30
0.0000
 40
0.5000
 41
0.5000
 70
0
  0
VERTEX
  8
0
 10
-0.2500
 20
-0.1036
 30
0.0000
  0
VERTEX
  8
0
 10
-0.2500
 20
0.1036
 30
0.0000
  0
VERTEX
  8
0
 10
-0.1036
 20
0.2500
 30
0.0000
  0
VERTEX
  8
0
 10
0.1036
 20
0.2500
 30
0.0000
  0
VERTEX
  8
0
 10
0.2500
 20
0.1036
 30
0.0000
  0
VERTEX
  8
0
 10
0.2500
 20
-0.1036
 30
0.0000
  0
VERTEX
  8
0
 10
0.1036
 20
-0.2500
 30
0.0000
  0
VERTEX
  8
0
 10
-0.1036
 20
-0.2500
 30
0.0000
  0
VERTEX
  8
0
 10
-0.2500
 20
-0.1036
 30
0.0000
  0
VERTEX
  8
0
 10
-0.2500
 20
0.1036
 30
0.0000
  0
SEQEND
  8
0
  0
ENDBLK
  8
0
  0
BLOCK
  8
0
  2
SQUAREP
 70
64
 10
0.0000
 20
0.0000
 30
0.0000
  3
SQUAREP
  0
SOLID
  8
0
 10
-0.5000
 20
-0.5000
 30
0.0000
 11
0.5000
 21
-0.5000
 31
0.0000
 12
-0.5000
 22
0.5000
 32
0.0000
 13
0.5000
 23
0.5000
 33
0.0000
  0
ENDBLK
  8
0
  0
BLOCK
  8
0
  2
ROUNDP
 70
64
 10
0.0000
 20
0.0000
 30
0.0000
  3
ROUNDP
  0
POLYLINE
  8
0
 66
1
 10
0.0000
 20
0.0000
 30
0.0000
 40
0.5000
 41
0.5000
 70
0
  0
VERTEX
  8
0
 10
0.0000
 20
-0.2500
 30
0.0000
 42
1.0000
  0
VERTEX
  8
0
 10
0.0000
 20
0.2500
 30
0.0000
 42
1.0000
  0
VERTEX
  8
0
 10
0.0000
 20
-0.2500
 30
0.0000
  0
SEQEND
  8
0
  0
ENDBLK
  8
0
  0
BLOCK
  8
0
  2
ANNULUSP
 70
64
 10
0.0000
 20
0.0000
 30
0.0000
  3
ANNULUSP
  0
POLYLINE
  8
0
 66
1
 10
0.0000
 20
0.0000
 30
0.0000
 40
0.5000
 41
0.5000
 70
0
  0
VERTEX
  8
0
 10
0.0000
 20
-0.2500
 30
0.0000
 42
1.0000
  0
VERTEX
  8
0
 10
0.0000
 20
0.2500
 30
0.0000
 42
1.0000
  0
VERTEX
  8
0
 10
0.0000
 20
-0.2500
 30
0.0000
  0
SEQEND
  8
0
  0
ENDBLK
  8
0
  0
BLOCK
  8
0
  2
THERMALP
 70
64
 10
0.0000
 20
0.0000
 30
0.0000
  3
THERMALP
  0
POLYLINE
  8
0
 66
1
 10
0.0000
 20
0.0000
 30
0.0000
 40
0.1000
 41
0.1000
 70
0
  0
VERTEX
  8
0
 10
-0.2379
 20
0.4500
 30
0.0000
  0
VERTEX
  8
0
 10
0.2379
 20
0.4500
 30
0.0000
  0
SEQEND
  8
0
  0
POLYLINE
  8
0
 66
1
 10
0.0000
 20
0.0000
 30
0.0000
 40
0.0500
 41
0.0500
 70
0
  0
VERTEX
  8
0
 10
0.2379
 20
0.4250
 30
0.0000
 42
1.0000
  0
VERTEX
  8
0
 10
0.2379
 20
0.4750
 30
0.0000
  0
SEQEND
  8
0
  0
POLYLINE
  8
0
 66
1
 10
0.0000
 20
0.0000
 30
0.0000
 40
0.0500
 41
0.0500
 70
0
  0
VERTEX
  8
0
 10
-0.2379
 20
0.4750
 30
0.0000
 42
1.0000
  0
VERTEX
  8
0
 10
-0.2379
 20
0.4250
 30
0.0000
  0
SEQEND
  8
0
  0
POLYLINE
  8
0
 66
1
 10
0.0000
 20
0.0000
 30
0.0000
 40
0.1000
 41
0.1000
 70
0
  0
VERTEX
  8
0
 10
0.4500
 20
0.2379
 30
0.0000
  0
VERTEX
  8
0
 10
0.4500
 20
-0.2379
 30
0.0000
  0
SEQEND
  8
0
  0
POLYLINE
  8
0
 66
1
 10
0.0000
 20
0.0000
 30
0.0000
 40
0.0500
 41
0.0500
 70
0
  0
VERTEX
  8
0
 10
0.4250
 20
-0.2379
 30
0.0000
 42
1.0000
  0
VERTEX
  8
0
 10
0.4750
 20
-0.2379
 30
0.0000
  0
SEQEND
  8
0
  0
POLYLINE
  8
0
 66
1
 10
0.0000
 20
0.0000
 30
0.0000
 40
0.0500
 41
0.0500
 70
0
  0
VERTEX
  8
0
 10
0.4750
 20
0.2379
 30
0.0000
 42
1.0000
  0
VERTEX
  8
0
 10
0.4250
 20
0.2379
 30
0.0000
  0
SEQEND
  8
0
  0
POLYLINE
  8
0
 66
1
 10
0.0000
 20
0.0000
 30
0.0000
 40
0.1000
 41
0.1000
 70
0
  0
VERTEX
  8
0
 10
0.2379
 20
-0.4500
 30
0.0000
  0
VERTEX
  8
0
 10
-0.2379
 20
-0.4500
 30
0.0000
  0
SEQEND
  8
0
  0
POLYLINE
  8
0
 66
1
 10
0.0000
 20
0.0000
 30
0.0000
 40
0.0500
 41
0.0500
 70
0
  0
VERTEX
  8
0
 10
-0.2379
 20
-0.4250
 30
0.0000
 42
1.0000
  0
VERTEX
  8
0
 10
-0.2379
 20
-0.4750
 30
0.0000
  0
SEQEND
  8
0
  0
POLYLINE
  8
0
 66
1
 10
0.0000
 20
0.0000
 30
0.0000
 40
0.0500
 41
0.0500
 70
0
  0
VERTEX
  8
0
 10
0.2379
 20
-0.4750
 30
0.0000
 42
1.0000
  0
VERTEX
  8
0
 10
0.2379
 20
-0.4250
 30
0.0000
  0
SEQEND
  8
0
  0
POLYLINE
  8
0
 66
1
 10
0.0000
 20
0.0000
 30
0.0000
 40
0.1000
 41
0.1000
 70
0
  0
VERTEX
  8
0
 10
-0.4500
 20
-0.2379
 30
0.0000
  0
VERTEX
  8
0
 10
-0.4500
 20
0.2379
 30
0.0000
  0
SEQEND
  8
0
  0
POLYLINE
  8
0
 66
1
 10
0.0000
 20
0.0000
 30
0.0000
 40
0.0500
 41
0.0500
 70
0
  0
VERTEX
  8
0
 10
-0.4250
 20
0.2379
 30
0.0000
 42
1.0000
  0
VERTEX
  8
0
 10
-0.4750
 20
0.2379
 30
0.0000
  0
SEQEND
  8
0
  0
POLYLINE
  8
0
 66
1
 10
0.0000
 20
0.0000
 30
0.0000
 40
0.0500
 41
0.0500
 70
0
  0
VERTEX
  8
0
 10
-0.4750
 20
-0.2379
 30
0.0000
 42
1.0000
  0
VERTEX
  8
0
 10
-0.4250
 20
-0.2379
 30
0.0000
  0
SEQEND
  8
0
  0
ENDBLK
  8
0
  0
BLOCK
  8
0
  2
OCTAGONV
 70
64
 10
0.0000
 20
0.0000
 30
0.0000
  3
OCTAGONV
  0
POLYLINE
  8
0
 66
1
 10
0.0000
 20
0.0000
 30
0.0000
 40
0.5000
 41
0.5000
 70
0
  0
VERTEX
  8
0
 10
-0.2500
 20
-0.1036
 30
0.0000
  0
VERTEX
  8
0
 10
-0.2500
 20
0.1036
 30
0.0000
  0
VERTEX
  8
0
 10
-0.1036
 20
0.2500
 30
0.0000
  0
VERTEX
  8
0
 10
0.1036
 20
0.2500
 30
0.0000
  0
VERTEX
  8
0
 10
0.2500
 20
0.1036
 30
0.0000
  0
VERTEX
  8
0
 10
0.2500
 20
-0.1036
 30
0.0000
  0
VERTEX
  8
0
 10
0.1036
 20
-0.2500
 30
0.0000
  0
VERTEX
  8
0
 10
-0.1036
 20
-0.2500
 30
0.0000
  0
VERTEX
  8
0
 10
-0.2500
 20
-0.1036
 30
0.0000
  0
VERTEX
  8
0
 10
-0.2500
 20
0.1036
 30
0.0000
  0
SEQEND
  8
0
  0
ENDBLK
  8
0
  0
BLOCK
  8
0
  2
SQUAREV
 70
64
 10
0.0000
 20
0.0000
 30
0.0000
  3
SQUAREV
  0
SOLID
  8
0
 10
-0.5000
 20
-0.5000
 30
0.0000
 11
0.5000
 21
-0.5000
 31
0.0000
 12
-0.5000
 22
0.5000
 32
0.0000
 13
0.5000
 23
0.5000
 33
0.0000
  0
ENDBLK
  8
0
  0
BLOCK
  8
0
  2
ROUNDV
 70
64
 10
0.0000
 20
0.0000
 30
0.0000
  3
ROUNDV
  0
POLYLINE
  8
0
 66
1
 10
0.0000
 20
0.0000
 30
0.0000
 40
0.5000
 41
0.5000
 70
0
  0
VERTEX
  8
0
 10
0.0000
 20
-0.2500
 30
0.0000
 42
1.0000
  0
VERTEX
  8
0
 10
0.0000
 20
0.2500
 30
0.0000
 42
1.0000
  0
VERTEX
  8
0
 10
0.0000
 20
-0.2500
 30
0.0000
  0
SEQEND
  8
0
  0
ENDBLK
  8
0
  0
BLOCK
  8
0
  2
ANNULUSV
 70
64
 10
0.0000
 20
0.0000
 30
0.0000
  3
ANNULUSV
  0
POLYLINE
  8
0
 66
1
 10
0.0000
 20
0.0000
 30
0.0000
 40
0.5000
 41
0.5000
 70
0
  0
VERTEX
  8
0
 10
0.0000
 20
-0.2500
 30
0.0000
 42
1.0000
  0
VERTEX
  8
0
 10
0.0000
 20
0.2500
 30
0.0000
 42
1.0000
  0
VERTEX
  8
0
 10
0.0000
 20
-0.2500
 30
0.0000
  0
SEQEND
  8
0
  0
ENDBLK
  8
0
  0
BLOCK
  8
0
  2
THERMALV
 70
64
 10
0.0000
 20
0.0000
 30
0.0000
  3
THERMALV
  0
POLYLINE
  8
0
 66
1
 10
0.0000
 20
0.0000
 30
0.0000
 40
0.1000
 41
0.1000
 70
0
  0
VERTEX
  8
0
 10
-0.2379
 20
0.4500
 30
0.0000
  0
VERTEX
  8
0
 10
0.2379
 20
0.4500
 30
0.0000
  0
SEQEND
  8
0
  0
POLYLINE
  8
0
 66
1
 10
0.0000
 20
0.0000
 30
0.0000
 40
0.0500
 41
0.0500
 70
0
  0
VERTEX
  8
0
 10
0.2379
 20
0.4250
 30
0.0000
 42
1.0000
  0
VERTEX
  8
0
 10
0.2379
 20
0.4750
 30
0.0000
  0
SEQEND
  8
0
  0
POLYLINE
  8
0
 66
1
 10
0.0000
 20
0.0000
 30
0.0000
 40
0.0500
 41
0.0500
 70
0
  0
VERTEX
  8
0
 10
-0.2379
 20
0.4750
 30
0.0000
 42
1.0000
  0
VERTEX
  8
0
 10
-0.2379
 20
0.4250
 30
0.0000
  0
SEQEND
  8
0
  0
POLYLINE
  8
0
 66
1
 10
0.0000
 20
0.0000
 30
0.0000
 40
0.1000
 41
0.1000
 70
0
  0
VERTEX
  8
0
 10
0.4500
 20
0.2379
 30
0.0000
  0
VERTEX
  8
0
 10
0.4500
 20
-0.2379
 30
0.0000
  0
SEQEND
  8
0
  0
POLYLINE
  8
0
 66
1
 10
0.0000
 20
0.0000
 30
0.0000
 40
0.0500
 41
0.0500
 70
0
  0
VERTEX
  8
0
 10
0.4250
 20
-0.2379
 30
0.0000
 42
1.0000
  0
VERTEX
  8
0
 10
0.4750
 20
-0.2379
 30
0.0000
  0
SEQEND
  8
0
  0
POLYLINE
  8
0
 66
1
 10
0.0000
 20
0.0000
 30
0.0000
 40
0.0500
 41
0.0500
 70
0
  0
VERTEX
  8
0
 10
0.4750
 20
0.2379
 30
0.0000
 42
1.0000
  0
VERTEX
  8
0
 10
0.4250
 20
0.2379
 30
0.0000
  0
SEQEND
  8
0
  0
POLYLINE
  8
0
 66
1
 10
0.0000
 20
0.0000
 30
0.0000
 40
0.1000
 41
0.1000
 70
0
  0
VERTEX
  8
0
 10
0.2379
 20
-0.4500
 30
0.0000
  0
VERTEX
  8
0
 10
-0.2379
 20
-0.4500
 30
0.0000
  0
SEQEND
  8
0
  0
POLYLINE
  8
0
 66
1
 10
0.0000
 20
0.0000
 30
0.0000
 40
0.0500
 41
0.0500
 70
0
  0
VERTEX
  8
0
 10
-0.2379
 20
-0.4250
 30
0.0000
 42
1.0000
  0
VERTEX
  8
0
 10
-0.2379
 20
-0.4750
 30
0.0000
  0
SEQEND
  8
0
  0
POLYLINE
  8
0
 66
1
 10
0.0000
 20
0.0000
 30
0.0000
 40
0.0500
 41
0.0500
 70
0
  0
VERTEX
  8
0
 10
0.2379
 20
-0.4750
 30
0.0000
 42
1.0000
  0
VERTEX
  8
0
 10
0.2379
 20
-0.4250
 30
0.0000
  0
SEQEND
  8
0
  0
POLYLINE
  8
0
 66
1
 10
0.0000
 20
0.0000
 30
0.0000
 40
0.1000
 41
0.1000
 70
0
  0
VERTEX
  8
0
 10
-0.4500
 20
-0.2379
 30
0.0000
  0
VERTEX
  8
0
 10
-0.4500
 20
0.2379
 30
0.0000
  0
SEQEND
  8
0
  0
POLYLINE
  8
0
 66
1
 10
0.0000
 20
0.0000
 30
0.0000
 40
0.0500
 41
0.0500
 70
0
  0
VERTEX
  8
0
 10
-0.4250
 20
0.2379
 30
0.0000
 42
1.0000
  0
VERTEX
  8
0
 10
-0.4750
 20
0.2379
 30
0.0000
  0
SEQEND
  8
0
  0
POLYLINE
  8
0
 66
1
 10
0.0000
 20
0.0000
 30
0.0000
 40
0.0500
 41
0.0500
 70
0
  0
VERTEX
  8
0
 10
-0.4750
 20
-0.2379
 30
0.0000
 42
1.0000
  0
VERTEX
  8
0
 10
-0.4250
 20
-0.2379
 30
0.0000
  0
SEQEND
  8
0
  0
ENDBLK
  8
0
  0
BLOCK
  8
0
  2
LONGP100
 70
64
 10
0.0000
 20
0.0000
 30
0.0000
  3
LONGP100
  0
POLYLINE
  8
0
 66
1
 10
0.0000
 20
0.0000
 30
0.0000
 40
1.0000
 41
1.0000
 70
0
  0
VERTEX
  8
0
 10
-0.5000
 20
0.0000
 30
0.0000
  0
VERTEX
  8
0
 10
0.5000
 20
0.0000
 30
0.0000
  0
SEQEND
  8
0
  0
POLYLINE
  8
0
 66
1
 10
0.0000
 20
0.0000
 30
0.0000
 40
0.5000
 41
0.5000
 70
0
  0
VERTEX
  8
0
 10
0.5000
 20
-0.2500
 30
0.0000
 42
1.0000
  0
VERTEX
  8
0
 10
0.5000
 20
0.2500
 30
0.0000
  0
SEQEND
  8
0
  0
POLYLINE
  8
0
 66
1
 10
0.0000
 20
0.0000
 30
0.0000
 40
0.5000
 41
0.5000
 70
0
  0
VERTEX
  8
0
 10
-0.5000
 20
0.2500
 30
0.0000
 42
1.0000
  0
VERTEX
  8
0
 10
-0.5000
 20
-0.2500
 30
0.0000
  0
SEQEND
  8
0
  0
ENDBLK
  8
0
  0
ENDSEC
  0
SECTION
  2
ENTITIES
  0
INSERT
  8
17
  2
LONGP100
 10
3.5822
 20
43.5895
 30
0.0000
 41
1.5240
 42
1.5240
 43
1.0000
 50
90.0000
  0
INSERT
  8
17
  2
LONGP100
 10
6.1222
 20
43.5895
 30
0.0000
 41
1.5240
 42
1.5240
 43
1.0000
 50
90.0000
  0
INSERT
  8
17
  2
LONGP100
 10
8.6622
 20
43.5895
 30
0.0000
 41
1.5240
 42
1.5240
 43
1.0000
 50
90.0000
  0
INSERT
  8
17
  2
LONGP100
 10
11.2022
 20
43.5895
 30
0.0000
 41
1.5240
 42
1.5240
 43
1.0000
 50
90.0000
  0
INSERT
  8
17
  2
LONGP100
 10
3.5822
 20
32.6638
 30
0.0000
 41
1.5240
 42
1.5240
 43
1.0000
 50
90.0000
  0
INSERT
  8
17
  2
LONGP100
 10
6.1222
 20
32.6638
 30
0.0000
 41
1.5240
 42
1.5240
 43
1.0000
 50
90.0000
  0
INSERT
  8
17
  2
LONGP100
 10
8.6622
 20
32.6638
 30
0.0000
 41
1.5240
 42
1.5240
 43
1.0000
 50
90.0000
  0
INSERT
  8
17
  2
LONGP100
 10
11.2022
 20
32.6638
 30
0.0000
 41
1.5240
 42
1.5240
 43
1.0000
 50
90.0000
  0
INSERT
  8
17
  2
LONGP100
 10
3.5822
 20
61.6910
 30
0.0000
 41
1.5240
 42
1.5240
 43
1.0000
 50
90.0000
  0
INSERT
  8
17
  2
LONGP100
 10
6.1222
 20
61.6910
 30
0.0000
 41
1.5240
 42
1.5240
 43
1.0000
 50
90.0000
  0
INSERT
  8
17
  2
LONGP100
 10
8.6622
 20
61.6910
 30
0.0000
 41
1.5240
 42
1.5240
 43
1.0000
 50
90.0000
  0
INSERT
  8
17
  2
LONGP100
 10
11.2022
 20
61.6910
 30
0.0000
 41
1.5240
 42
1.5240
 43
1.0000
 50
90.0000
  0
INSERT
  8
17
  2
LONGP100
 10
3.5822
 20
53.0153
 30
0.0000
 41
1.5240
 42
1.5240
 43
1.0000
 50
90.0000
  0
INSERT
  8
17
  2
LONGP100
 10
6.1222
 20
53.0153
 30
0.0000
 41
1.5240
 42
1.5240
 43
1.0000
 50
90.0000
  0
INSERT
  8
17
  2
LONGP100
 10
8.6622
 20
53.0153
 30
0.0000
 41
1.5240
 42
1.5240
 43
1.0000
 50
90.0000
  0
INSERT
  8
17
  2
LONGP100
 10
11.2022
 20
53.0153
 30
0.0000
 41
1.5240
 42
1.5240
 43
1.0000
 50
90.0000
  0
INSERT
  8
17
  2
ROUNDP
 10
14.5393
 20
18.6076
 30
0.0000
 41
1.8796
 42
1.8796
 43
1.0000
 50
0.0000
  0
INSERT
  8
17
  2
ROUNDP
 10
14.5393
 20
21.1476
 30
0.0000
 41
1.8796
 42
1.8796
 43
1.0000
 50
0.0000
  0
INSERT
  8
17
  2
ROUNDP
 10
17.0793
 20
18.6076
 30
0.0000
 41
1.8796
 42
1.8796
 43
1.0000
 50
0.0000
  0
INSERT
  8
17
  2
ROUNDP
 10
17.0793
 20
21.1476
 30
0.0000
 41
1.8796
 42
1.8796
 43
1.0000
 50
0.0000
  0
INSERT
  8
17
  2
ROUNDP
 10
19.6193
 20
18.6076
 30
0.0000
 41
1.8796
 42
1.8796
 43
1.0000
 50
0.0000
  0
INSERT
  8
17
  2
ROUNDP
 10
19.6193
 20
21.1476
 30
0.0000
 41
1.8796
 42
1.8796
 43
1.0000
 50
0.0000
  0
INSERT
  8
17
  2
ROUNDP
 10
22.1593
 20
18.6076
 30
0.0000
 41
1.8796
 42
1.8796
 43
1.0000
 50
0.0000
  0
INSERT
  8
17
  2
ROUNDP
 10
22.1593
 20
21.1476
 30
0.0000
 41
1.8796
 42
1.8796
 43
1.0000
 50
0.0000
  0
INSERT
  8
17
  2
ROUNDP
 10
24.6993
 20
18.6076
 30
0.0000
 41
1.8796
 42
1.8796
 43
1.0000
 50
0.0000
  0
INSERT
  8
17
  2
ROUNDP
 10
24.6993
 20
21.1476
 30
0.0000
 41
1.8796
 42
1.8796
 43
1.0000
 50
0.0000
  0
INSERT
  8
17
  2
ROUNDP
 10
27.2393
 20
18.6076
 30
0.0000
 41
1.8796
 42
1.8796
 43
1.0000
 50
0.0000
  0
INSERT
  8
17
  2
ROUNDP
 10
27.2393
 20
21.1476
 30
0.0000
 41
1.8796
 42
1.8796
 43
1.0000
 50
0.0000
  0
INSERT
  8
17
  2
ROUNDP
 10
29.7793
 20
18.6076
 30
0.0000
 41
1.8796
 42
1.8796
 43
1.0000
 50
0.0000
  0
INSERT
  8
17
  2
ROUNDP
 10
29.7793
 20
21.1476
 30
0.0000
 41
1.8796
 42
1.8796
 43
1.0000
 50
0.0000
  0
INSERT
  8
17
  2
ROUNDP
 10
32.3193
 20
18.6076
 30
0.0000
 41
1.8796
 42
1.8796
 43
1.0000
 50
0.0000
  0
INSERT
  8
17
  2
ROUNDP
 10
32.3193
 20
21.1476
 30
0.0000
 41
1.8796
 42
1.8796
 43
1.0000
 50
0.0000
  0
INSERT
  8
17
  2
ROUNDP
 10
34.8593
 20
18.6076
 30
0.0000
 41
1.8796
 42
1.8796
 43
1.0000
 50
0.0000
  0
INSERT
  8
17
  2
ROUNDP
 10
34.8593
 20
21.1476
 30
0.0000
 41
1.8796
 42
1.8796
 43
1.0000
 50
0.0000
  0
INSERT
  8
17
  2
ROUNDP
 10
37.3993
 20
18.6076
 30
0.0000
 41
1.8796
 42
1.8796
 43
1.0000
 50
0.0000
  0
INSERT
  8
17
  2
ROUNDP
 10
37.3993
 20
21.1476
 30
0.0000
 41
1.8796
 42
1.8796
 43
1.0000
 50
0.0000
  0
INSERT
  8
17
  2
ROUNDP
 10
39.9393
 20
18.6076
 30
0.0000
 41
1.8796
 42
1.8796
 43
1.0000
 50
0.0000
  0
INSERT
  8
17
  2
ROUNDP
 10
39.9393
 20
21.1476
 30
0.0000
 41
1.8796
 42
1.8796
 43
1.0000
 50
0.0000
  0
INSERT
  8
17
  2
ROUNDP
 10
42.4793
 20
18.6076
 30
0.0000
 41
1.8796
 42
1.8796
 43
1.0000
 50
0.0000
  0
INSERT
  8
17
  2
ROUNDP
 10
42.4793
 20
21.1476
 30
0.0000
 41
1.8796
 42
1.8796
 43
1.0000
 50
0.0000
  0
INSERT
  8
17
  2
ROUNDP
 10
45.0193
 20
18.6076
 30
0.0000
 41
1.8796
 42
1.8796
 43
1.0000
 50
0.0000
  0
INSERT
  8
17
  2
ROUNDP
 10
45.0193
 20
21.1476
 30
0.0000
 41
1.8796
 42
1.8796
 43
1.0000
 50
0.0000
  0
INSERT
  8
17
  2
ROUNDP
 10
47.5593
 20
18.6076
 30
0.0000
 41
1.8796
 42
1.8796
 43
1.0000
 50
0.0000
  0
INSERT
  8
17
  2
ROUNDP
 10
47.5593
 20
21.1476
 30
0.0000
 41
1.8796
 42
1.8796
 43
1.0000
 50
0.0000
  0
INSERT
  8
17
  2
ROUNDP
 10
50.0993
 20
18.6076
 30
0.0000
 41
1.8796
 42
1.8796
 43
1.0000
 50
0.0000
  0
INSERT
  8
17
  2
ROUNDP
 10
50.0993
 20
21.1476
 30
0.0000
 41
1.8796
 42
1.8796
 43
1.0000
 50
0.0000
  0
INSERT
  8
17
  2
ROUNDP
 10
52.6393
 20
18.6076
 30
0.0000
 41
1.8796
 42
1.8796
 43
1.0000
 50
0.0000
  0
INSERT
  8
17
  2
ROUNDP
 10
52.6393
 20
21.1476
 30
0.0000
 41
1.8796
 42
1.8796
 43
1.0000
 50
0.0000
  0
INSERT
  8
17
  2
ROUNDP
 10
55.1793
 20
18.6076
 30
0.0000
 41
1.8796
 42
1.8796
 43
1.0000
 50
0.0000
  0
INSERT
  8
17
  2
ROUNDP
 10
55.1793
 20
21.1476
 30
0.0000
 41
1.8796
 42
1.8796
 43
1.0000
 50
0.0000
  0
INSERT
  8
17
  2
ROUNDP
 10
57.7193
 20
18.6076
 30
0.0000
 41
1.8796
 42
1.8796
 43
1.0000
 50
0.0000
  0
INSERT
  8
17
  2
ROUNDP
 10
57.7193
 20
21.1476
 30
0.0000
 41
1.8796
 42
1.8796
 43
1.0000
 50
0.0000
  0
INSERT
  8
17
  2
ROUNDP
 10
60.2593
 20
18.6076
 30
0.0000
 41
1.8796
 42
1.8796
 43
1.0000
 50
0.0000
  0
INSERT
  8
17
  2
ROUNDP
 10
60.2593
 20
21.1476
 30
0.0000
 41
1.8796
 42
1.8796
 43
1.0000
 50
0.0000
  0
INSERT
  8
17
  2
ROUNDP
 10
62.7993
 20
18.6076
 30
0.0000
 41
1.8796
 42
1.8796
 43
1.0000
 50
0.0000
  0
INSERT
  8
17
  2
ROUNDP
 10
62.7993
 20
21.1476
 30
0.0000
 41
1.8796
 42
1.8796
 43
1.0000
 50
0.0000
  0
INSERT
  8
17
  2
ROUNDP
 10
77.4633
 20
6.7414
 30
0.0000
 41
1.1480
 42
1.1480
 43
1.0000
 50
0.0000
  0
INSERT
  8
17
  2
ROUNDP
 10
79.9633
 20
6.7414
 30
0.0000
 41
1.1480
 42
1.1480
 43
1.0000
 50
0.0000
  0
INSERT
  8
17
  2
ROUNDP
 10
68.6090
 20
56.4139
 30
0.0000
 41
1.1480
 42
1.1480
 43
1.0000
 50
90.0000
  0
INSERT
  8
17
  2
ROUNDP
 10
68.6090
 20
58.9139
 30
0.0000
 41
1.1480
 42
1.1480
 43
1.0000
 50
90.0000
  0
INSERT
  8
17
  2
LONGP100
 10
47.3897
 20
42.5882
 30
0.0000
 41
1.5240
 42
1.5240
 43
1.0000
 50
0.0000
  0
INSERT
  8
17
  2
LONGP100
 10
47.3897
 20
45.1282
 30
0.0000
 41
1.5240
 42
1.5240
 43
1.0000
 50
0.0000
  0
INSERT
  8
17
  2
LONGP100
 10
47.3897
 20
47.6682
 30
0.0000
 41
1.5240
 42
1.5240
 43
1.0000
 50
0.0000
  0
INSERT
  8
17
  2
LONGP100
 10
47.3897
 20
50.2082
 30
0.0000
 41
1.5240
 42
1.5240
 43
1.0000
 50
0.0000
  0
INSERT
  8
17
  2
LONGP100
 10
47.3897
 20
52.7482
 30
0.0000
 41
1.5240
 42
1.5240
 43
1.0000
 50
0.0000
  0
INSERT
  8
17
  2
LONGP100
 10
47.3897
 20
55.2882
 30
0.0000
 41
1.5240
 42
1.5240
 43
1.0000
 50
0.0000
  0
INSERT
  8
17
  2
LONGP100
 10
47.3897
 20
57.8282
 30
0.0000
 41
1.5240
 42
1.5240
 43
1.0000
 50
0.0000
  0
INSERT
  8
17
  2
LONGP100
 10
47.3897
 20
60.3682
 30
0.0000
 41
1.5240
 42
1.5240
 43
1.0000
 50
0.0000
  0
INSERT
  8
17
  2
LONGP100
 10
45.4309
 20
30.2197
 30
0.0000
 41
1.5240
 42
1.5240
 43
1.0000
 50
90.0000
  0
INSERT
  8
17
  2
LONGP100
 10
47.9709
 20
30.2197
 30
0.0000
 41
1.5240
 42
1.5240
 43
1.0000
 50
90.0000
  0
INSERT
  8
17
  2
LONGP100
 10
50.5109
 20
30.2197
 30
0.0000
 41
1.5240
 42
1.5240
 43
1.0000
 50
90.0000
  0
INSERT
  8
17
  2
LONGP100
 10
53.0509
 20
30.2197
 30
0.0000
 41
1.5240
 42
1.5240
 43
1.0000
 50
90.0000
  0
INSERT
  8
17
  2
LONGP100
 10
55.5909
 20
30.2197
 30
0.0000
 41
1.5240
 42
1.5240
 43
1.0000
 50
90.0000
  0
INSERT
  8
17
  2
LONGP100
 10
58.1309
 20
30.2197
 30
0.0000
 41
1.5240
 42
1.5240
 43
1.0000
 50
90.0000
  0
INSERT
  8
17
  2
LONGP100
 10
60.6709
 20
30.2197
 30
0.0000
 41
1.5240
 42
1.5240
 43
1.0000
 50
90.0000
  0
INSERT
  8
17
  2
LONGP100
 10
63.2109
 20
30.2197
 30
0.0000
 41
1.5240
 42
1.5240
 43
1.0000
 50
90.0000
  0
INSERT
  8
17
  2
SQUAREP
 10
74.9228
 20
16.2537
 30
0.0000
 41
3.8100
 42
3.8100
 43
1.0000
 50
90.0000
  0
INSERT
  8
17
  2
SQUAREP
 10
95.4228
 20
16.2537
 30
0.0000
 41
3.8100
 42
3.8100
 43
1.0000
 50
90.0000
  0
INSERT
  8
17
  2
SQUAREP
 10
74.9228
 20
65.7537
 30
0.0000
 41
3.8100
 42
3.8100
 43
1.0000
 50
90.0000
  0
INSERT
  8
17
  2
SQUAREP
 10
95.4228
 20
65.7537
 30
0.0000
 41
3.8100
 42
3.8100
 43
1.0000
 50
90.0000
  0
INSERT
  8
17
  2
ROUNDP
 10
33.5533
 20
32.7365
 30
0.0000
 41
1.6764
 42
1.6764
 43
1.0000
 50
180.0000
  0
INSERT
  8
17
  2
ROUNDP
 10
33.5533
 20
35.2765
 30
0.0000
 41
1.6764
 42
1.6764
 43
1.0000
 50
180.0000
  0
INSERT
  8
17
  2
ROUNDP
 10
33.5533
 20
37.8165
 30
0.0000
 41
1.6764
 42
1.6764
 43
1.0000
 50
180.0000
  0
INSERT
  8
17
  2
ROUNDP
 10
33.5533
 20
40.3565
 30
0.0000
 41
1.6764
 42
1.6764
 43
1.0000
 50
180.0000
  0
INSERT
  8
17
  2
ROUNDP
 10
33.5533
 20
42.8965
 30
0.0000
 41
1.6764
 42
1.6764
 43
1.0000
 50
180.0000
  0
INSERT
  8
17
  2
ROUNDP
 10
33.5533
 20
45.4365
 30
0.0000
 41
1.6764
 42
1.6764
 43
1.0000
 50
180.0000
  0
INSERT
  8
17
  2
ROUNDP
 10
33.5533
 20
47.9765
 30
0.0000
 41
1.6764
 42
1.6764
 43
1.0000
 50
180.0000
  0
INSERT
  8
17
  2
ROUNDP
 10
33.5533
 20
50.5165
 30
0.0000
 41
1.6764
 42
1.6764
 43
1.0000
 50
180.0000
  0
INSERT
  8
17
  2
ROUNDP
 10
33.5533
 20
53.0565
 30
0.0000
 41
1.6764
 42
1.6764
 43
1.0000
 50
180.0000
  0
INSERT
  8
17
  2
ROUNDP
 10
33.5533
 20
55.5965
 30
0.0000
 41
1.6764
 42
1.6764
 43
1.0000
 50
180.0000
  0
INSERT
  8
17
  2
ROUNDP
 10
33.5533
 20
58.1365
 30
0.0000
 41
1.6764
 42
1.6764
 43
1.0000
 50
180.0000
  0
INSERT
  8
17
  2
ROUNDP
 10
33.5533
 20
60.6765
 30
0.0000
 41
1.6764
 42
1.6764
 43
1.0000
 50
180.0000
  0
INSERT
  8
17
  2
ROUNDP
 10
18.3133
 20
60.6765
 30
0.0000
 41
1.6764
 42
1.6764
 43
1.0000
 50
0.0000
  0
INSERT
  8
17
  2
ROUNDP
 10
18.3133
 20
58.1365
 30
0.0000
 41
1.6764
 42
1.6764
 43
1.0000
 50
0.0000
  0
INSERT
  8
17
  2
ROUNDP
 10
18.3133
 20
55.5965
 30
0.0000
 41
1.6764
 42
1.6764
 43
1.0000
 50
0.0000
  0
INSERT
  8
17
  2
ROUNDP
 10
18.3133
 20
53.0565
 30
0.0000
 41
1.6764
 42
1.6764
 43
1.0000
 50
0.0000
  0
INSERT
  8
17
  2
ROUNDP
 10
18.3133
 20
50.5165
 30
0.0000
 41
1.6764
 42
1.6764
 43
1.0000
 50
0.0000
  0
INSERT
  8
17
  2
ROUNDP
 10
18.3133
 20
47.9765
 30
0.0000
 41
1.6764
 42
1.6764
 43
1.0000
 50
0.0000
  0
INSERT
  8
17
  2
ROUNDP
 10
18.3133
 20
45.4365
 30
0.0000
 41
1.6764
 42
1.6764
 43
1.0000
 50
0.0000
  0
INSERT
  8
17
  2
ROUNDP
 10
18.3133
 20
42.8965
 30
0.0000
 41
1.6764
 42
1.6764
 43
1.0000
 50
0.0000
  0
INSERT
  8
17
  2
ROUNDP
 10
18.3133
 20
40.3565
 30
0.0000
 41
1.6764
 42
1.6764
 43
1.0000
 50
0.0000
  0
INSERT
  8
17
  2
ROUNDP
 10
18.3133
 20
37.8165
 30
0.0000
 41
1.6764
 42
1.6764
 43
1.0000
 50
0.0000
  0
INSERT
  8
17
  2
ROUNDP
 10
18.3133
 20
35.2765
 30
0.0000
 41
1.6764
 42
1.6764
 43
1.0000
 50
0.0000
  0
INSERT
  8
17
  2
ROUNDP
 10
18.3133
 20
32.7365
 30
0.0000
 41
1.6764
 42
1.6764
 43
1.0000
 50
0.0000
  0
INSERT
  8
17
  2
LONGP100
 10
90.0673
 20
6.6387
 30
0.0000
 41
1.7000
 42
1.7000
 43
1.0000
 50
90.0000
  0
INSERT
  8
17
  2
LONGP100
 10
93.5673
 20
6.6387
 30
0.0000
 41
1.7000
 42
1.7000
 43
1.0000
 50
90.0000
  0
POLYLINE
  8
1
 66
1
 10
0.0000
 20
0.0000
 30
0.0000
 40
1.0160
 41
1.0160
 70
0
  0
VERTEX
  8
1
 10
90.0673
 20
6.6387
 30
0.0000
  0
VERTEX
  8
1
 10
90.0673
 20
10.4327
 30
0.0000
  0
SEQEND
  8
0
  0
POLYLINE
  8
1
 66
1
 10
0.0000
 20
0.0000
 30
0.0000
 40
0.5080
 41
0.5080
 70
0
  0
VERTEX
  8
1
 10
90.3213
 20
10.4327
 30
0.0000
 42
1.0000
  0
VERTEX
  8
1
 10
89.8133
 20
10.4327
 30
0.0000
  0
SEQEND
  8
0
  0
POLYLINE
  8
1
 66
1
 10
0.0000
 20
0.0000
 30
0.0000
 40
0.5080
 41
0.5080
 70
0
  0
VERTEX
  8
1
 10
89.8133
 20
6.6387
 30
0.0000
 42
1.0000
  0
VERTEX
  8
1
 10
90.3213
 20
6.6387
 30
0.0000
  0
SEQEND
  8
0
  0
POLYLINE
  8
1
 66
1
 10
0.0000
 20
0.0000
 30
0.0000
 40
1.0160
 41
1.0160
 70
0
  0
VERTEX
  8
1
 10
88.5000
 20
12.0000
 30
0.0000
  0
VERTEX
  8
1
 10
79.0000
 20
12.0000
 30
0.0000
  0
SEQEND
  8
0
  0
POLYLINE
  8
1
 66
1
 10
0.0000
 20
0.0000
 30
0.0000
 40
0.5080
 41
0.5080
 70
0
  0
VERTEX
  8
1
 10
79.0000
 20
12.2540
 30
0.0000
 42
1.0000
  0
VERTEX
  8
1
 10
79.0000
 20
11.7460
 30
0.0000
  0
SEQEND
  8
0
  0
POLYLINE
  8
1
 66
1
 10
0.0000
 20
0.0000
 30
0.0000
 40
0.5080
 41
0.5080
 70
0
  0
VERTEX
  8
1
 10
88.5000
 20
11.7460
 30
0.0000
 42
1.0000
  0
VERTEX
  8
1
 10
88.5000
 20
12.2540
 30
0.0000
  0
SEQEND
  8
0
  0
POLYLINE
  8
1
 66
1
 10
0.0000
 20
0.0000
 30
0.0000
 40
1.0160
 41
1.0160
 70
0
  0
VERTEX
  8
1
 10
79.0000
 20
12.0000
 30
0.0000
  0
VERTEX
  8
1
 10
77.4633
 20
10.4633
 30
0.0000
  0
SEQEND
  8
0
  0
POLYLINE
  8
1
 66
1
 10
0.0000
 20
0.0000
 30
0.0000
 40
0.5080
 41
0.5080
 70
0
  0
VERTEX
  8
1
 10
77.2837
 20
10.6429
 30
0.0000
 42
1.0000
  0
VERTEX
  8
1
 10
77.6429
 20
10.2837
 30
0.0000
  0
SEQEND
  8
0
  0
POLYLINE
  8
1
 66
1
 10
0.0000
 20
0.0000
 30
0.0000
 40
0.5080
 41
0.5080
 70
0
  0
VERTEX
  8
1
 10
79.1796
 20
11.8204
 30
0.0000
 42
1.0000
  0
VERTEX
  8
1
 10
78.8204
 20
12.1796
 30
0.0000
  0
SEQEND
  8
0
  0
POLYLINE
  8
1
 66
1
 10
0.0000
 20
0.0000
 30
0.0000
 40
1.0160
 41
1.0160
 70
0
  0
VERTEX
  8
1
 10
77.4633
 20
10.4633
 30
0.0000
  0
VERTEX
  8
1
 10
77.4633
 20
6.7414
 30
0.0000
  0
SEQEND
  8
0
  0
POLYLINE
  8
1
 66
1
 10
0.0000
 20
0.0000
 30
0.0000
 40
0.5080
 41
0.5080
 70
0
  0
VERTEX
  8
1
 10
77.2093
 20
6.7414
 30
0.0000
 42
1.0000
  0
VERTEX
  8
1
 10
77.7173
 20
6.7414
 30
0.0000
  0
SEQEND
  8
0
  0
POLYLINE
  8
1
 66
1
 10
0.0000
 20
0.0000
 30
0.0000
 40
0.5080
 41
0.5080
 70
0
  0
VERTEX
  8
1
 10
77.7173
 20
10.4633
 30
0.0000
 42
1.0000
  0
VERTEX
  8
1
 10
77.2093
 20
10.4633
 30
0.0000
  0
SEQEND
  8
0
  0
POLYLINE
  8
1
 66
1
 10
0.0000
 20
0.0000
 30
0.0000
 40
1.0160
 41
1.0160
 70
0
  0
VERTEX
  8
1
 10
90.0673
 20
10.4327
 30
0.0000
  0
VERTEX
  8
1
 10
88.5000
 20
12.0000
 30
0.0000
  0
SEQEND
  8
0
  0
POLYLINE
  8
1
 66
1
 10
0.0000
 20
0.0000
 30
0.0000
 40
0.5080
 41
0.5080
 70
0
  0
VERTEX
  8
1
 10
88.6796
 20
12.1796
 30
0.0000
 42
1.0000
  0
VERTEX
  8
1
 10
88.3204
 20
11.8204
 30
0.0000
  0
SEQEND
  8
0
  0
POLYLINE
  8
1
 66
1
 10
0.0000
 20
0.0000
 30
0.0000
 40
0.5080
 41
0.5080
 70
0
  0
VERTEX
  8
1
 10
89.8877
 20
10.2531
 30
0.0000
 42
1.0000
  0
VERTEX
  8
1
 10
90.2469
 20
10.6123
 30
0.0000
  0
SEQEND
  8
0
  0
POLYLINE
  8
1
 66
1
 10
0.0000
 20
0.0000
 30
0.0000
 40
0.1524
 41
0.1524
 70
0
  0
VERTEX
  8
1
 10
6.1222
 20
61.6910
 30
0.0000
  0
VERTEX
  8
1
 10
6.1222
 20
53.0153
 30
0.0000
  0
SEQEND
  8
0
  0
POLYLINE
  8
1
 66
1
 10
0.0000
 20
0.0000
 30
0.0000
 40
0.0762
 41
0.0762
 70
0
  0
VERTEX
  8
1
 10
6.0841
 20
53.0153
 30
0.0000
 42
1.0000
  0
VERTEX
  8
1
 10
6.1603
 20
53.0153
 30
0.0000
  0
SEQEND
  8
0
  0
POLYLINE
  8
1
 66
1
 10
0.0000
 20
0.0000
 30
0.0000
 40
0.0762
 41
0.0762
 70
0
  0
VERTEX
  8
1
 10
6.1603
 20
61.6910
 30
0.0000
 42
1.0000
  0
VERTEX
  8
1
 10
6.0841
 20
61.6910
 30
0.0000
  0
SEQEND
  8
0
  0
POLYLINE
  8
1
 66
1
 10
0.0000
 20
0.0000
 30
0.0000
 40
0.1524
 41
0.1524
 70
0
  0
VERTEX
  8
1
 10
6.1222
 20
53.0153
 30
0.0000
  0
VERTEX
  8
1
 10
6.1222
 20
43.5895
 30
0.0000
  0
SEQEND
  8
0
  0
POLYLINE
  8
1
 66
1
 10
0.0000
 20
0.0000
 30
0.0000
 40
0.0762
 41
0.0762
 70
0
  0
VERTEX
  8
1
 10
6.0841
 20
43.5895
 30
0.0000
 42
1.0000
  0
VERTEX
  8
1
 10
6.1603
 20
43.5895
 30
0.0000
  0
SEQEND
  8
0
  0
POLYLINE
  8
1
 66
1
 10
0.0000
 20
0.0000
 30
0.0000
 40
0.0762
 41
0.0762
 70
0
  0
VERTEX
  8
1
 10
6.1603
 20
53.0153
 30
0.0000
 42
1.0000
  0
VERTEX
  8
1
 10
6.0841
 20
53.0153
 30
0.0000
  0
SEQEND
  8
0
  0
POLYLINE
  8
1
 66
1
 10
0.0000
 20
0.0000
 30
0.0000
 40
0.1524
 41
0.1524
 70
0
  0
VERTEX
  8
1
 10
6.1222
 20
43.5895
 30
0.0000
  0
VERTEX
  8
1
 10
6.1222
 20
32.6638
 30
0.0000
  0
SEQEND
  8
0
  0
POLYLINE
  8
1
 66
1
 10
0.0000
 20
0.0000
 30
0.0000
 40
0.0762
 41
0.0762
 70
0
  0
VERTEX
  8
1
 10
6.0841
 20
32.6638
 30
0.0000
 42
1.0000
  0
VERTEX
  8
1
 10
6.1603
 20
32.6638
 30
0.0000
  0
SEQEND
  8
0
  0
POLYLINE
  8
1
 66
1
 10
0.0000
 20
0.0000
 30
0.0000
 40
0.0762
 41
0.0762
 70
0
  0
VERTEX
  8
1
 10
6.1603
 20
43.5895
 30
0.0000
 42
1.0000
  0
VERTEX
  8
1
 10
6.0841
 20
43.5895
 30
0.0000
  0
SEQEND
  8
0
  0
POLYLINE
  8
1
 66
1
 10
0.0000
 20
0.0000
 30
0.0000
 40
0.1524
 41
0.1524
 70
0
  0
VERTEX
  8
1
 10
47.9709
 20
30.2197
 30
0.0000
  0
VERTEX
  8
1
 10
50.0993
 20
28.0913
 30
0.0000
  0
SEQEND
  8
0
  0
POLYLINE
  8
1
 66
1
 10
0.0000
 20
0.0000
 30
0.0000
 40
0.0762
 41
0.0762
 70
0
  0
VERTEX
  8
1
 10
50.0724
 20
28.0644
 30
0.0000
 42
1.0000
  0
VERTEX
  8
1
 10
50.1262
 20
28.1182
 30
0.0000
  0
SEQEND
  8
0
  0
POLYLINE
  8
1
 66
1
 10
0.0000
 20
0.0000
 30
0.0000
 40
0.0762
 41
0.0762
 70
0
  0
VERTEX
  8
1
 10
47.9978
 20
30.2466
 30
0.0000
 42
1.0000
  0
VERTEX
  8
1
 10
47.9440
 20
30.1928
 30
0.0000
  0
SEQEND
  8
0
  0
POLYLINE
  8
1
 66
1
 10
0.0000
 20
0.0000
 30
0.0000
 40
0.1524
 41
0.1524
 70
0
  0
VERTEX
  8
1
 10
50.0993
 20
28.0913
 30
0.0000
  0
VERTEX
  8
1
 10
50.0993
 20
21.1476
 30
0.0000
  0
SEQEND
  8
0
  0
POLYLINE
  8
1
 66
1
 10
0.0000
 20
0.0000
 30
0.0000
 40
0.0762
 41
0.0762
 70
0
  0
VERTEX
  8
1
 10
50.0612
 20
21.1476
 30
0.0000
 42
1.0000
  0
VERTEX
  8
1
 10
50.1374
 20
21.1476
 30
0.0000
  0
SEQEND
  8
0
  0
POLYLINE
  8
1
 66
1
 10
0.0000
 20
0.0000
 30
0.0000
 40
0.0762
 41
0.0762
 70
0
  0
VERTEX
  8
1
 10
50.1374
 20
28.0913
 30
0.0000
 42
1.0000
  0
VERTEX
  8
1
 10
50.0612
 20
28.0913
 30
0.0000
  0
SEQEND
  8
0
  0
POLYLINE
  8
1
 66
1
 10
0.0000
 20
0.0000
 30
0.0000
 40
0.2540
 41
0.2540
 70
0
  0
VERTEX
  8
1
 10
68.6090
 20
58.9139
 30
0.0000
  0
VERTEX
  8
1
 10
66.5000
 20
61.0229
 30
0.0000
  0
SEQEND
  8
0
  0
POLYLINE
  8
1
 66
1
 10
0.0000
 20
0.0000
 30
0.0000
 40
0.1270
 41
0.1270
 70
0
  0
VERTEX
  8
1
 10
66.5449
 20
61.0678
 30
0.0000
 42
1.0000
  0
VERTEX
  8
1
 10
66.4551
 20
60.9780
 30
0.0000
  0
SEQEND
  8
0
  0
POLYLINE
  8
1
 66
1
 10
0.0000
 20
0.0000
 30
0.0000
 40
0.1270
 41
0.1270
 70
0
  0
VERTEX
  8
1
 10
68.5641
 20
58.8690
 30
0.0000
 42
1.0000
  0
VERTEX
  8
1
 10
68.6539
 20
58.9588
 30
0.0000
  0
SEQEND
  8
0
  0
POLYLINE
  8
1
 66
1
 10
0.0000
 20
0.0000
 30
0.0000
 40
0.2540
 41
0.2540
 70
0
  0
VERTEX
  8
1
 10
66.5000
 20
61.0229
 30
0.0000
  0
VERTEX
  8
1
 10
66.5000
 20
64.7500
 30
0.0000
  0
SEQEND
  8
0
  0
POLYLINE
  8
1
 66
1
 10
0.0000
 20
0.0000
 30
0.0000
 40
0.1270
 41
0.1270
 70
0
  0
VERTEX
  8
1
 10
66.5635
 20
64.7500
 30
0.0000
 42
1.0000
  0
VERTEX
  8
1
 10
66.4365
 20
64.7500
 30
0.0000
  0
SEQEND
  8
0
  0
POLYLINE
  8
1
 66
1
 10
0.0000
 20
0.0000
 30
0.0000
 40
0.1270
 41
0.1270
 70
0
  0
VERTEX
  8
1
 10
66.4365
 20
61.0229
 30
0.0000
 42
1.0000
  0
VERTEX
  8
1
 10
66.5635
 20
61.0229
 30
0.0000
  0
SEQEND
  8
0
  0
POLYLINE
  8
1
 66
1
 10
0.0000
 20
0.0000
 30
0.0000
 40
0.1524
 41
0.1524
 70
0
  0
VERTEX
  8
1
 10
33.5533
 20
35.2765
 30
0.0000
  0
VERTEX
  8
1
 10
36.2765
 20
35.2765
 30
0.0000
  0
SEQEND
  8
0
  0
POLYLINE
  8
1
 66
1
 10
0.0000
 20
0.0000
 30
0.0000
 40
0.0762
 41
0.0762
 70
0
  0
VERTEX
  8
1
 10
36.2765
 20
35.2384
 30
0.0000
 42
1.0000
  0
VERTEX
  8
1
 10
36.2765
 20
35.3146
 30
0.0000
  0
SEQEND
  8
0
  0
POLYLINE
  8
1
 66
1
 10
0.0000
 20
0.0000
 30
0.0000
 40
0.0762
 41
0.0762
 70
0
  0
VERTEX
  8
1
 10
33.5533
 20
35.3146
 30
0.0000
 42
1.0000
  0
VERTEX
  8
1
 10
33.5533
 20
35.2384
 30
0.0000
  0
SEQEND
  8
0
  0
POLYLINE
  8
1
 66
1
 10
0.0000
 20
0.0000
 30
0.0000
 40
0.1524
 41
0.1524
 70
0
  0
VERTEX
  8
1
 10
38.2500
 20
37.2500
 30
0.0000
  0
VERTEX
  8
1
 10
38.2500
 20
44.7500
 30
0.0000
  0
SEQEND
  8
0
  0
POLYLINE
  8
1
 66
1
 10
0.0000
 20
0.0000
 30
0.0000
 40
0.0762
 41
0.0762
 70
0
  0
VERTEX
  8
1
 10
38.2881
 20
44.7500
 30
0.0000
 42
1.0000
  0
VERTEX
  8
1
 10
38.2119
 20
44.7500
 30
0.0000
  0
SEQEND
  8
0
  0
POLYLINE
  8
1
 66
1
 10
0.0000
 20
0.0000
 30
0.0000
 40
0.0762
 41
0.0762
 70
0
  0
VERTEX
  8
1
 10
38.2119
 20
37.2500
 30
0.0000
 42
1.0000
  0
VERTEX
  8
1
 10
38.2881
 20
37.2500
 30
0.0000
  0
SEQEND
  8
0
  0
POLYLINE
  8
1
 66
1
 10
0.0000
 20
0.0000
 30
0.0000
 40
0.1524
 41
0.1524
 70
0
  0
VERTEX
  8
1
 10
36.2765
 20
35.2765
 30
0.0000
  0
VERTEX
  8
1
 10
38.2500
 20
37.2500
 30
0.0000
  0
SEQEND
  8
0
  0
POLYLINE
  8
1
 66
1
 10
0.0000
 20
0.0000
 30
0.0000
 40
0.0762
 41
0.0762
 70
0
  0
VERTEX
  8
1
 10
38.2769
 20
37.2231
 30
0.0000
 42
1.0000
  0
VERTEX
  8
1
 10
38.2231
 20
37.2769
 30
0.0000
  0
SEQEND
  8
0
  0
POLYLINE
  8
1
 66
1
 10
0.0000
 20
0.0000
 30
0.0000
 40
0.0762
 41
0.0762
 70
0
  0
VERTEX
  8
1
 10
36.2496
 20
35.3034
 30
0.0000
 42
1.0000
  0
VERTEX
  8
1
 10
36.3034
 20
35.2496
 30
0.0000
  0
SEQEND
  8
0
  0
POLYLINE
  8
1
 66
1
 10
0.0000
 20
0.0000
 30
0.0000
 40
0.1524
 41
0.1524
 70
0
  0
VERTEX
  8
1
 10
47.3897
 20
45.1282
 30
0.0000
  0
VERTEX
  8
1
 10
52.8782
 20
45.1282
 30
0.0000
  0
SEQEND
  8
0
  0
POLYLINE
  8
1
 66
1
 10
0.0000
 20
0.0000
 30
0.0000
 40
0.0762
 41
0.0762
 70
0
  0
VERTEX
  8
1
 10
52.8782
 20
45.0901
 30
0.0000
 42
1.0000
  0
VERTEX
  8
1
 10
52.8782
 20
45.1663
 30
0.0000
  0
SEQEND
  8
0
  0
POLYLINE
  8
1
 66
1
 10
0.0000
 20
0.0000
 30
0.0000
 40
0.0762
 41
0.0762
 70
0
  0
VERTEX
  8
1
 10
47.3897
 20
45.1663
 30
0.0000
 42
1.0000
  0
VERTEX
  8
1
 10
47.3897
 20
45.0901
 30
0.0000
  0
SEQEND
  8
0
  0
POLYLINE
  8
1
 66
1
 10
0.0000
 20
0.0000
 30
0.0000
 40
0.1524
 41
0.1524
 70
0
  0
VERTEX
  8
1
 10
52.8782
 20
45.1282
 30
0.0000
  0
VERTEX
  8
1
 10
53.0000
 20
45.2500
 30
0.0000
  0
SEQEND
  8
0
  0
POLYLINE
  8
1
 66
1
 10
0.0000
 20
0.0000
 30
0.0000
 40
0.0762
 41
0.0762
 70
0
  0
VERTEX
  8
1
 10
53.0269
 20
45.2231
 30
0.0000
 42
1.0000
  0
VERTEX
  8
1
 10
52.9731
 20
45.2769
 30
0.0000
  0
SEQEND
  8
0
  0
POLYLINE
  8
1
 66
1
 10
0.0000
 20
0.0000
 30
0.0000
 40
0.0762
 41
0.0762
 70
0
  0
VERTEX
  8
1
 10
52.8513
 20
45.1551
 30
0.0000
 42
1.0000
  0
VERTEX
  8
1
 10
52.9051
 20
45.1013
 30
0.0000
  0
SEQEND
  8
0
  0
POLYLINE
  8
1
 66
1
 10
0.0000
 20
0.0000
 30
0.0000
 40
0.1524
 41
0.1524
 70
0
  0
VERTEX
  8
1
 10
6.1222
 20
32.6638
 30
0.0000
  0
VERTEX
  8
1
 10
6.1222
 20
15.3778
 30
0.0000
  0
SEQEND
  8
0
  0
POLYLINE
  8
1
 66
1
 10
0.0000
 20
0.0000
 30
0.0000
 40
0.0762
 41
0.0762
 70
0
  0
VERTEX
  8
1
 10
6.0841
 20
15.3778
 30
0.0000
 42
1.0000
  0
VERTEX
  8
1
 10
6.1603
 20
15.3778
 30
0.0000
  0
SEQEND
  8
0
  0
POLYLINE
  8
1
 66
1
 10
0.0000
 20
0.0000
 30
0.0000
 40
0.0762
 41
0.0762
 70
0
  0
VERTEX
  8
1
 10
6.1603
 20
32.6638
 30
0.0000
 42
1.0000
  0
VERTEX
  8
1
 10
6.0841
 20
32.6638
 30
0.0000
  0
SEQEND
  8
0
  0
POLYLINE
  8
1
 66
1
 10
0.0000
 20
0.0000
 30
0.0000
 40
0.1524
 41
0.1524
 70
0
  0
VERTEX
  8
1
 10
6.1222
 20
15.3778
 30
0.0000
  0
VERTEX
  8
1
 10
10.7500
 20
10.7500
 30
0.0000
  0
SEQEND
  8
0
  0
POLYLINE
  8
1
 66
1
 10
0.0000
 20
0.0000
 30
0.0000
 40
0.0762
 41
0.0762
 70
0
  0
VERTEX
  8
1
 10
10.7231
 20
10.7231
 30
0.0000
 42
1.0000
  0
VERTEX
  8
1
 10
10.7769
 20
10.7769
 30
0.0000
  0
SEQEND
  8
0
  0
POLYLINE
  8
1
 66
1
 10
0.0000
 20
0.0000
 30
0.0000
 40
0.0762
 41
0.0762
 70
0
  0
VERTEX
  8
1
 10
6.1491
 20
15.4047
 30
0.0000
 42
1.0000
  0
VERTEX
  8
1
 10
6.0953
 20
15.3509
 30
0.0000
  0
SEQEND
  8
0
  0
POLYLINE
  8
1
 66
1
 10
0.0000
 20
0.0000
 30
0.0000
 40
0.1524
 41
0.1524
 70
0
  0
VERTEX
  8
1
 10
10.7500
 20
10.7500
 30
0.0000
  0
VERTEX
  8
1
 10
44.5000
 20
10.7500
 30
0.0000
  0
SEQEND
  8
0
  0
POLYLINE
  8
1
 66
1
 10
0.0000
 20
0.0000
 30
0.0000
 40
0.0762
 41
0.0762
 70
0
  0
VERTEX
  8
1
 10
44.5000
 20
10.7119
 30
0.0000
 42
1.0000
  0
VERTEX
  8
1
 10
44.5000
 20
10.7881
 30
0.0000
  0
SEQEND
  8
0
  0
POLYLINE
  8
1
 66
1
 10
0.0000
 20
0.0000
 30
0.0000
 40
0.0762
 41
0.0762
 70
0
  0
VERTEX
  8
1
 10
10.7500
 20
10.7881
 30
0.0000
 42
1.0000
  0
VERTEX
  8
1
 10
10.7500
 20
10.7119
 30
0.0000
  0
SEQEND
  8
0
  0
POLYLINE
  8
1
 66
1
 10
0.0000
 20
0.0000
 30
0.0000
 40
0.1524
 41
0.1524
 70
0
  0
VERTEX
  8
1
 10
44.5000
 20
10.7500
 30
0.0000
  0
VERTEX
  8
1
 10
45.0000
 20
11.2500
 30
0.0000
  0
SEQEND
  8
0
  0
POLYLINE
  8
1
 66
1
 10
0.0000
 20
0.0000
 30
0.0000
 40
0.0762
 41
0.0762
 70
0
  0
VERTEX
  8
1
 10
45.0269
 20
11.2231
 30
0.0000
 42
1.0000
  0
VERTEX
  8
1
 10
44.9731
 20
11.2769
 30
0.0000
  0
SEQEND
  8
0
  0
POLYLINE
  8
1
 66
1
 10
0.0000
 20
0.0000
 30
0.0000
 40
0.0762
 41
0.0762
 70
0
  0
VERTEX
  8
1
 10
44.4731
 20
10.7769
 30
0.0000
 42
1.0000
  0
VERTEX
  8
1
 10
44.5269
 20
10.7231
 30
0.0000
  0
SEQEND
  8
0
  0
POLYLINE
  8
1
 66
1
 10
0.0000
 20
0.0000
 30
0.0000
 40
0.1524
 41
0.1524
 70
0
  0
VERTEX
  8
1
 10
45.0193
 20
18.6076
 30
0.0000
  0
VERTEX
  8
1
 10
45.0193
 20
11.2693
 30
0.0000
  0
SEQEND
  8
0
  0
POLYLINE
  8
1
 66
1
 10
0.0000
 20
0.0000
 30
0.0000
 40
0.0762
 41
0.0762
 70
0
  0
VERTEX
  8
1
 10
44.9812
 20
11.2693
 30
0.0000
 42
1.0000
  0
VERTEX
  8
1
 10
45.0574
 20
11.2693
 30
0.0000
  0
SEQEND
  8
0
  0
POLYLINE
  8
1
 66
1
 10
0.0000
 20
0.0000
 30
0.0000
 40
0.0762
 41
0.0762
 70
0
  0
VERTEX
  8
1
 10
45.0574
 20
18.6076
 30
0.0000
 42
1.0000
  0
VERTEX
  8
1
 10
44.9812
 20
18.6076
 30
0.0000
  0
SEQEND
  8
0
  0
POLYLINE
  8
1
 66
1
 10
0.0000
 20
0.0000
 30
0.0000
 40
0.1524
 41
0.1524
 70
0
  0
VERTEX
  8
1
 10
45.0193
 20
11.2693
 30
0.0000
  0
VERTEX
  8
1
 10
45.0000
 20
11.2500
 30
0.0000
  0
SEQEND
  8
0
  0
POLYLINE
  8
1
 66
1
 10
0.0000
 20
0.0000
 30
0.0000
 40
0.0762
 41
0.0762
 70
0
  0
VERTEX
  8
1
 10
44.9731
 20
11.2769
 30
0.0000
 42
1.0000
  0
VERTEX
  8
1
 10
45.0269
 20
11.2231
 30
0.0000
  0
SEQEND
  8
0
  0
POLYLINE
  8
1
 66
1
 10
0.0000
 20
0.0000
 30
0.0000
 40
0.0762
 41
0.0762
 70
0
  0
VERTEX
  8
1
 10
45.0462
 20
11.2424
 30
0.0000
 42
1.0000
  0
VERTEX
  8
1
 10
44.9924
 20
11.2962
 30
0.0000
  0
SEQEND
  8
0
  0
INSERT
  8
18
  2
ROUNDV
 10
66.5000
 20
64.7500
 30
0.0000
 41
3.5160
 42
3.5160
 43
1.0000
 50
0.0000
  0
INSERT
  8
18
  2
ROUNDV
 10
66.5000
 20
64.7500
 30
0.0000
 41
3.5160
 42
3.5160
 43
1.0000
 50
0.0000
  0
INSERT
  8
18
  2
ROUNDV
 10
45.0000
 20
11.2500
 30
0.0000
 41
3.5160
 42
3.5160
 43
1.0000
 50
0.0000
  0
INSERT
  8
18
  2
ROUNDV
 10
45.0000
 20
11.2500
 30
0.0000
 41
3.5160
 42
3.5160
 43
1.0000
 50
0.0000
  0
INSERT
  8
18
  2
ROUNDV
 10
38.2500
 20
44.7500
 30
0.0000
 41
3.5160
 42
3.5160
 43
1.0000
 50
0.0000
  0
INSERT
  8
18
  2
ROUNDV
 10
38.2500
 20
44.7500
 30
0.0000
 41
3.5160
 42
3.5160
 43
1.0000
 50
0.0000
  0
INSERT
  8
18
  2
ROUNDV
 10
56.5000
 20
48.7500
 30
0.0000
 41
3.5160
 42
3.5160
 43
1.0000
 50
0.0000
  0
INSERT
  8
18
  2
ROUNDV
 10
56.5000
 20
48.7500
 30
0.0000
 41
3.5160
 42
3.5160
 43
1.0000
 50
0.0000
  0
POLYLINE
  8
1
 66
1
 10
0.0000
 20
0.0000
 30
0.0000
 40
0.1524
 41
0.1524
 70
0
  0
VERTEX
  8
1
 10
50.5109
 20
30.2197
 30
0.0000
  0
VERTEX
  8
1
 10
50.5109
 20
32.5109
 30
0.0000
  0
SEQEND
  8
0
  0
POLYLINE
  8
1
 66
1
 10
0.0000
 20
0.0000
 30
0.0000
 40
0.0762
 41
0.0762
 70
0
  0
VERTEX
  8
1
 10
50.5490
 20
32.5109
 30
0.0000
 42
1.0000
  0
VERTEX
  8
1
 10
50.4728
 20
32.5109
 30
0.0000
  0
SEQEND
  8
0
  0
POLYLINE
  8
1
 66
1
 10
0.0000
 20
0.0000
 30
0.0000
 40
0.0762
 41
0.0762
 70
0
  0
VERTEX
  8
1
 10
50.4728
 20
30.2197
 30
0.0000
 42
1.0000
  0
VERTEX
  8
1
 10
50.5490
 20
30.2197
 30
0.0000
  0
SEQEND
  8
0
  0
POLYLINE
  8
1
 66
1
 10
0.0000
 20
0.0000
 30
0.0000
 40
0.1524
 41
0.1524
 70
0
  0
VERTEX
  8
1
 10
54.2500
 20
36.2500
 30
0.0000
  0
VERTEX
  8
1
 10
67.0000
 20
36.2500
 30
0.0000
  0
SEQEND
  8
0
  0
POLYLINE
  8
1
 66
1
 10
0.0000
 20
0.0000
 30
0.0000
 40
0.0762
 41
0.0762
 70
0
  0
VERTEX
  8
1
 10
67.0000
 20
36.2119
 30
0.0000
 42
1.0000
  0
VERTEX
  8
1
 10
67.0000
 20
36.2881
 30
0.0000
  0
SEQEND
  8
0
  0
POLYLINE
  8
1
 66
1
 10
0.0000
 20
0.0000
 30
0.0000
 40
0.0762
 41
0.0762
 70
0
  0
VERTEX
  8
1
 10
54.2500
 20
36.2881
 30
0.0000
 42
1.0000
  0
VERTEX
  8
1
 10
54.2500
 20
36.2119
 30
0.0000
  0
SEQEND
  8
0
  0
POLYLINE
  8
1
 66
1
 10
0.0000
 20
0.0000
 30
0.0000
 40
0.1524
 41
0.1524
 70
0
  0
VERTEX
  8
1
 10
67.0000
 20
36.2500
 30
0.0000
  0
VERTEX
  8
1
 10
71.7500
 20
31.5000
 30
0.0000
  0
SEQEND
  8
0
  0
POLYLINE
  8
1
 66
1
 10
0.0000
 20
0.0000
 30
0.0000
 40
0.0762
 41
0.0762
 70
0
  0
VERTEX
  8
1
 10
71.7231
 20
31.4731
 30
0.0000
 42
1.0000
  0
VERTEX
  8
1
 10
71.7769
 20
31.5269
 30
0.0000
  0
SEQEND
  8
0
  0
POLYLINE
  8
1
 66
1
 10
0.0000
 20
0.0000
 30
0.0000
 40
0.0762
 41
0.0762
 70
0
  0
VERTEX
  8
1
 10
67.0269
 20
36.2769
 30
0.0000
 42
1.0000
  0
VERTEX
  8
1
 10
66.9731
 20
36.2231
 30
0.0000
  0
SEQEND
  8
0
  0
POLYLINE
  8
1
 66
1
 10
0.0000
 20
0.0000
 30
0.0000
 40
0.1524
 41
0.1524
 70
0
  0
VERTEX
  8
1
 10
71.7500
 20
14.2500
 30
0.0000
  0
VERTEX
  8
1
 10
68.0000
 20
10.5000
 30
0.0000
  0
SEQEND
  8
0
  0
POLYLINE
  8
1
 66
1
 10
0.0000
 20
0.0000
 30
0.0000
 40
0.0762
 41
0.0762
 70
0
  0
VERTEX
  8
1
 10
67.9731
 20
10.5269
 30
0.0000
 42
1.0000
  0
VERTEX
  8
1
 10
68.0269
 20
10.4731
 30
0.0000
  0
SEQEND
  8
0
  0
POLYLINE
  8
1
 66
1
 10
0.0000
 20
0.0000
 30
0.0000
 40
0.0762
 41
0.0762
 70
0
  0
VERTEX
  8
1
 10
71.7769
 20
14.2231
 30
0.0000
 42
1.0000
  0
VERTEX
  8
1
 10
71.7231
 20
14.2769
 30
0.0000
  0
SEQEND
  8
0
  0
POLYLINE
  8
1
 66
1
 10
0.0000
 20
0.0000
 30
0.0000
 40
0.1524
 41
0.1524
 70
0
  0
VERTEX
  8
1
 10
68.0000
 20
10.5000
 30
0.0000
  0
VERTEX
  8
1
 10
58.2500
 20
10.5000
 30
0.0000
  0
SEQEND
  8
0
  0
POLYLINE
  8
1
 66
1
 10
0.0000
 20
0.0000
 30
0.0000
 40
0.0762
 41
0.0762
 70
0
  0
VERTEX
  8
1
 10
58.2500
 20
10.5381
 30
0.0000
 42
1.0000
  0
VERTEX
  8
1
 10
58.2500
 20
10.4619
 30
0.0000
  0
SEQEND
  8
0
  0
POLYLINE
  8
1
 66
1
 10
0.0000
 20
0.0000
 30
0.0000
 40
0.0762
 41
0.0762
 70
0
  0
VERTEX
  8
1
 10
68.0000
 20
10.4619
 30
0.0000
 42
1.0000
  0
VERTEX
  8
1
 10
68.0000
 20
10.5381
 30
0.0000
  0
SEQEND
  8
0
  0
POLYLINE
  8
1
 66
1
 10
0.0000
 20
0.0000
 30
0.0000
 40
0.1524
 41
0.1524
 70
0
  0
VERTEX
  8
1
 10
55.1793
 20
13.5707
 30
0.0000
  0
VERTEX
  8
1
 10
55.1793
 20
18.6076
 30
0.0000
  0
SEQEND
  8
0
  0
POLYLINE
  8
1
 66
1
 10
0.0000
 20
0.0000
 30
0.0000
 40
0.0762
 41
0.0762
 70
0
  0
VERTEX
  8
1
 10
55.2174
 20
18.6076
 30
0.0000
 42
1.0000
  0
VERTEX
  8
1
 10
55.1412
 20
18.6076
 30
0.0000
  0
SEQEND
  8
0
  0
POLYLINE
  8
1
 66
1
 10
0.0000
 20
0.0000
 30
0.0000
 40
0.0762
 41
0.0762
 70
0
  0
VERTEX
  8
1
 10
55.1412
 20
13.5707
 30
0.0000
 42
1.0000
  0
VERTEX
  8
1
 10
55.2174
 20
13.5707
 30
0.0000
  0
SEQEND
  8
0
  0
POLYLINE
  8
1
 66
1
 10
0.0000
 20
0.0000
 30
0.0000
 40
0.1524
 41
0.1524
 70
0
  0
VERTEX
  8
1
 10
50.5109
 20
32.5109
 30
0.0000
  0
VERTEX
  8
1
 10
54.2500
 20
36.2500
 30
0.0000
  0
SEQEND
  8
0
  0
POLYLINE
  8
1
 66
1
 10
0.0000
 20
0.0000
 30
0.0000
 40
0.0762
 41
0.0762
 70
0
  0
VERTEX
  8
1
 10
54.2769
 20
36.2231
 30
0.0000
 42
1.0000
  0
VERTEX
  8
1
 10
54.2231
 20
36.2769
 30
0.0000
  0
SEQEND
  8
0
  0
POLYLINE
  8
1
 66
1
 10
0.0000
 20
0.0000
 30
0.0000
 40
0.0762
 41
0.0762
 70
0
  0
VERTEX
  8
1
 10
50.4840
 20
32.5378
 30
0.0000
 42
1.0000
  0
VERTEX
  8
1
 10
50.5378
 20
32.4840
 30
0.0000
  0
SEQEND
  8
0
  0
POLYLINE
  8
1
 66
1
 10
0.0000
 20
0.0000
 30
0.0000
 40
0.1524
 41
0.1524
 70
0
  0
VERTEX
  8
1
 10
71.7500
 20
31.5000
 30
0.0000
  0
VERTEX
  8
1
 10
71.7500
 20
14.2500
 30
0.0000
  0
SEQEND
  8
0
  0
POLYLINE
  8
1
 66
1
 10
0.0000
 20
0.0000
 30
0.0000
 40
0.0762
 41
0.0762
 70
0
  0
VERTEX
  8
1
 10
71.7119
 20
14.2500
 30
0.0000
 42
1.0000
  0
VERTEX
  8
1
 10
71.7881
 20
14.2500
 30
0.0000
  0
SEQEND
  8
0
  0
POLYLINE
  8
1
 66
1
 10
0.0000
 20
0.0000
 30
0.0000
 40
0.0762
 41
0.0762
 70
0
  0
VERTEX
  8
1
 10
71.7881
 20
31.5000
 30
0.0000
 42
1.0000
  0
VERTEX
  8
1
 10
71.7119
 20
31.5000
 30
0.0000
  0
SEQEND
  8
0
  0
POLYLINE
  8
1
 66
1
 10
0.0000
 20
0.0000
 30
0.0000
 40
0.1524
 41
0.1524
 70
0
  0
VERTEX
  8
1
 10
58.2500
 20
10.5000
 30
0.0000
  0
VERTEX
  8
1
 10
55.1793
 20
13.5707
 30
0.0000
  0
SEQEND
  8
0
  0
POLYLINE
  8
1
 66
1
 10
0.0000
 20
0.0000
 30
0.0000
 40
0.0762
 41
0.0762
 70
0
  0
VERTEX
  8
1
 10
55.2062
 20
13.5976
 30
0.0000
 42
1.0000
  0
VERTEX
  8
1
 10
55.1524
 20
13.5438
 30
0.0000
  0
SEQEND
  8
0
  0
POLYLINE
  8
1
 66
1
 10
0.0000
 20
0.0000
 30
0.0000
 40
0.0762
 41
0.0762
 70
0
  0
VERTEX
  8
1
 10
58.2231
 20
10.4731
 30
0.0000
 42
1.0000
  0
VERTEX
  8
1
 10
58.2769
 20
10.5269
 30
0.0000
  0
SEQEND
  8
0
  0
POLYLINE
  8
1
 66
1
 10
0.0000
 20
0.0000
 30
0.0000
 40
0.1524
 41
0.1524
 70
0
  0
VERTEX
  8
1
 10
57.7193
 20
21.1476
 30
0.0000
  0
VERTEX
  8
1
 10
57.7193
 20
23.3013
 30
0.0000
  0
SEQEND
  8
0
  0
POLYLINE
  8
1
 66
1
 10
0.0000
 20
0.0000
 30
0.0000
 40
0.0762
 41
0.0762
 70
0
  0
VERTEX
  8
1
 10
57.7574
 20
23.3013
 30
0.0000
 42
1.0000
  0
VERTEX
  8
1
 10
57.6812
 20
23.3013
 30
0.0000
  0
SEQEND
  8
0
  0
POLYLINE
  8
1
 66
1
 10
0.0000
 20
0.0000
 30
0.0000
 40
0.0762
 41
0.0762
 70
0
  0
VERTEX
  8
1
 10
57.6812
 20
21.1476
 30
0.0000
 42
1.0000
  0
VERTEX
  8
1
 10
57.7574
 20
21.1476
 30
0.0000
  0
SEQEND
  8
0
  0
POLYLINE
  8
1
 66
1
 10
0.0000
 20
0.0000
 30
0.0000
 40
0.1524
 41
0.1524
 70
0
  0
VERTEX
  8
1
 10
57.7193
 20
23.3013
 30
0.0000
  0
VERTEX
  8
1
 10
53.0509
 20
27.9697
 30
0.0000
  0
SEQEND
  8
0
  0
POLYLINE
  8
1
 66
1
 10
0.0000
 20
0.0000
 30
0.0000
 40
0.0762
 41
0.0762
 70
0
  0
VERTEX
  8
1
 10
53.0778
 20
27.9966
 30
0.0000
 42
1.0000
  0
VERTEX
  8
1
 10
53.0240
 20
27.9428
 30
0.0000
  0
SEQEND
  8
0
  0
POLYLINE
  8
1
 66
1
 10
0.0000
 20
0.0000
 30
0.0000
 40
0.0762
 41
0.0762
 70
0
  0
VERTEX
  8
1
 10
57.6924
 20
23.2744
 30
0.0000
 42
1.0000
  0
VERTEX
  8
1
 10
57.7462
 20
23.3282
 30
0.0000
  0
SEQEND
  8
0
  0
POLYLINE
  8
1
 66
1
 10
0.0000
 20
0.0000
 30
0.0000
 40
0.1524
 41
0.1524
 70
0
  0
VERTEX
  8
1
 10
53.0509
 20
27.9697
 30
0.0000
  0
VERTEX
  8
1
 10
53.0509
 20
30.2197
 30
0.0000
  0
SEQEND
  8
0
  0
POLYLINE
  8
1
 66
1
 10
0.0000
 20
0.0000
 30
0.0000
 40
0.0762
 41
0.0762
 70
0
  0
VERTEX
  8
1
 10
53.0890
 20
30.2197
 30
0.0000
 42
1.0000
  0
VERTEX
  8
1
 10
53.0128
 20
30.2197
 30
0.0000
  0
SEQEND
  8
0
  0
POLYLINE
  8
1
 66
1
 10
0.0000
 20
0.0000
 30
0.0000
 40
0.0762
 41
0.0762
 70
0
  0
VERTEX
  8
1
 10
53.0128
 20
27.9697
 30
0.0000
 42
1.0000
  0
VERTEX
  8
1
 10
53.0890
 20
27.9697
 30
0.0000
  0
SEQEND
  8
0
  0
POLYLINE
  8
1
 66
1
 10
0.0000
 20
0.0000
 30
0.0000
 40
0.1524
 41
0.1524
 70
0
  0
VERTEX
  8
1
 10
55.5909
 20
30.2197
 30
0.0000
  0
VERTEX
  8
1
 10
55.5909
 20
32.5909
 30
0.0000
  0
SEQEND
  8
0
  0
POLYLINE
  8
1
 66
1
 10
0.0000
 20
0.0000
 30
0.0000
 40
0.0762
 41
0.0762
 70
0
  0
VERTEX
  8
1
 10
55.6290
 20
32.5909
 30
0.0000
 42
1.0000
  0
VERTEX
  8
1
 10
55.5528
 20
32.5909
 30
0.0000
  0
SEQEND
  8
0
  0
POLYLINE
  8
1
 66
1
 10
0.0000
 20
0.0000
 30
0.0000
 40
0.0762
 41
0.0762
 70
0
  0
VERTEX
  8
1
 10
55.5528
 20
30.2197
 30
0.0000
 42
1.0000
  0
VERTEX
  8
1
 10
55.6290
 20
30.2197
 30
0.0000
  0
SEQEND
  8
0
  0
POLYLINE
  8
1
 66
1
 10
0.0000
 20
0.0000
 30
0.0000
 40
0.1524
 41
0.1524
 70
0
  0
VERTEX
  8
1
 10
55.5909
 20
32.5909
 30
0.0000
  0
VERTEX
  8
1
 10
58.0000
 20
35.0000
 30
0.0000
  0
SEQEND
  8
0
  0
POLYLINE
  8
1
 66
1
 10
0.0000
 20
0.0000
 30
0.0000
 40
0.0762
 41
0.0762
 70
0
  0
VERTEX
  8
1
 10
58.0269
 20
34.9731
 30
0.0000
 42
1.0000
  0
VERTEX
  8
1
 10
57.9731
 20
35.0269
 30
0.0000
  0
SEQEND
  8
0
  0
POLYLINE
  8
1
 66
1
 10
0.0000
 20
0.0000
 30
0.0000
 40
0.0762
 41
0.0762
 70
0
  0
VERTEX
  8
1
 10
55.5640
 20
32.6178
 30
0.0000
 42
1.0000
  0
VERTEX
  8
1
 10
55.6178
 20
32.5640
 30
0.0000
  0
SEQEND
  8
0
  0
POLYLINE
  8
1
 66
1
 10
0.0000
 20
0.0000
 30
0.0000
 40
0.1524
 41
0.1524
 70
0
  0
VERTEX
  8
1
 10
58.0000
 20
35.0000
 30
0.0000
  0
VERTEX
  8
1
 10
66.0000
 20
35.0000
 30
0.0000
  0
SEQEND
  8
0
  0
POLYLINE
  8
1
 66
1
 10
0.0000
 20
0.0000
 30
0.0000
 40
0.0762
 41
0.0762
 70
0
  0
VERTEX
  8
1
 10
66.0000
 20
34.9619
 30
0.0000
 42
1.0000
  0
VERTEX
  8
1
 10
66.0000
 20
35.0381
 30
0.0000
  0
SEQEND
  8
0
  0
POLYLINE
  8
1
 66
1
 10
0.0000
 20
0.0000
 30
0.0000
 40
0.0762
 41
0.0762
 70
0
  0
VERTEX
  8
1
 10
58.0000
 20
35.0381
 30
0.0000
 42
1.0000
  0
VERTEX
  8
1
 10
58.0000
 20
34.9619
 30
0.0000
  0
SEQEND
  8
0
  0
POLYLINE
  8
1
 66
1
 10
0.0000
 20
0.0000
 30
0.0000
 40
0.1524
 41
0.1524
 70
0
  0
VERTEX
  8
1
 10
70.2500
 20
14.7500
 30
0.0000
  0
VERTEX
  8
1
 10
67.2500
 20
11.7500
 30
0.0000
  0
SEQEND
  8
0
  0
POLYLINE
  8
1
 66
1
 10
0.0000
 20
0.0000
 30
0.0000
 40
0.0762
 41
0.0762
 70
0
  0
VERTEX
  8
1
 10
67.2231
 20
11.7769
 30
0.0000
 42
1.0000
  0
VERTEX
  8
1
 10
67.2769
 20
11.7231
 30
0.0000
  0
SEQEND
  8
0
  0
POLYLINE
  8
1
 66
1
 10
0.0000
 20
0.0000
 30
0.0000
 40
0.0762
 41
0.0762
 70
0
  0
VERTEX
  8
1
 10
70.2769
 20
14.7231
 30
0.0000
 42
1.0000
  0
VERTEX
  8
1
 10
70.2231
 20
14.7769
 30
0.0000
  0
SEQEND
  8
0
  0
POLYLINE
  8
1
 66
1
 10
0.0000
 20
0.0000
 30
0.0000
 40
0.1524
 41
0.1524
 70
0
  0
VERTEX
  8
1
 10
67.2500
 20
11.7500
 30
0.0000
  0
VERTEX
  8
1
 10
59.5000
 20
11.7500
 30
0.0000
  0
SEQEND
  8
0
  0
POLYLINE
  8
1
 66
1
 10
0.0000
 20
0.0000
 30
0.0000
 40
0.0762
 41
0.0762
 70
0
  0
VERTEX
  8
1
 10
59.5000
 20
11.7881
 30
0.0000
 42
1.0000
  0
VERTEX
  8
1
 10
59.5000
 20
11.7119
 30
0.0000
  0
SEQEND
  8
0
  0
POLYLINE
  8
1
 66
1
 10
0.0000
 20
0.0000
 30
0.0000
 40
0.0762
 41
0.0762
 70
0
  0
VERTEX
  8
1
 10
67.2500
 20
11.7119
 30
0.0000
 42
1.0000
  0
VERTEX
  8
1
 10
67.2500
 20
11.7881
 30
0.0000
  0
SEQEND
  8
0
  0
POLYLINE
  8
1
 66
1
 10
0.0000
 20
0.0000
 30
0.0000
 40
0.1524
 41
0.1524
 70
0
  0
VERTEX
  8
1
 10
57.7193
 20
13.5307
 30
0.0000
  0
VERTEX
  8
1
 10
57.7193
 20
18.6076
 30
0.0000
  0
SEQEND
  8
0
  0
POLYLINE
  8
1
 66
1
 10
0.0000
 20
0.0000
 30
0.0000
 40
0.0762
 41
0.0762
 70
0
  0
VERTEX
  8
1
 10
57.7574
 20
18.6076
 30
0.0000
 42
1.0000
  0
VERTEX
  8
1
 10
57.6812
 20
18.6076
 30
0.0000
  0
SEQEND
  8
0
  0
POLYLINE
  8
1
 66
1
 10
0.0000
 20
0.0000
 30
0.0000
 40
0.0762
 41
0.0762
 70
0
  0
VERTEX
  8
1
 10
57.6812
 20
13.5307
 30
0.0000
 42
1.0000
  0
VERTEX
  8
1
 10
57.7574
 20
13.5307
 30
0.0000
  0
SEQEND
  8
0
  0
POLYLINE
  8
1
 66
1
 10
0.0000
 20
0.0000
 30
0.0000
 40
0.1524
 41
0.1524
 70
0
  0
VERTEX
  8
1
 10
66.0000
 20
35.0000
 30
0.0000
  0
VERTEX
  8
1
 10
70.2500
 20
30.7500
 30
0.0000
  0
SEQEND
  8
0
  0
POLYLINE
  8
1
 66
1
 10
0.0000
 20
0.0000
 30
0.0000
 40
0.0762
 41
0.0762
 70
0
  0
VERTEX
  8
1
 10
70.2231
 20
30.7231
 30
0.0000
 42
1.0000
  0
VERTEX
  8
1
 10
70.2769
 20
30.7769
 30
0.0000
  0
SEQEND
  8
0
  0
POLYLINE
  8
1
 66
1
 10
0.0000
 20
0.0000
 30
0.0000
 40
0.0762
 41
0.0762
 70
0
  0
VERTEX
  8
1
 10
66.0269
 20
35.0269
 30
0.0000
 42
1.0000
  0
VERTEX
  8
1
 10
65.9731
 20
34.9731
 30
0.0000
  0
SEQEND
  8
0
  0
POLYLINE
  8
1
 66
1
 10
0.0000
 20
0.0000
 30
0.0000
 40
0.1524
 41
0.1524
 70
0
  0
VERTEX
  8
1
 10
70.2500
 20
30.7500
 30
0.0000
  0
VERTEX
  8
1
 10
70.2500
 20
14.7500
 30
0.0000
  0
SEQEND
  8
0
  0
POLYLINE
  8
1
 66
1
 10
0.0000
 20
0.0000
 30
0.0000
 40
0.0762
 41
0.0762
 70
0
  0
VERTEX
  8
1
 10
70.2119
 20
14.7500
 30
0.0000
 42
1.0000
  0
VERTEX
  8
1
 10
70.2881
 20
14.7500
 30
0.0000
  0
SEQEND
  8
0
  0
POLYLINE
  8
1
 66
1
 10
0.0000
 20
0.0000
 30
0.0000
 40
0.0762
 41
0.0762
 70
0
  0
VERTEX
  8
1
 10
70.2881
 20
30.7500
 30
0.0000
 42
1.0000
  0
VERTEX
  8
1
 10
70.2119
 20
30.7500
 30
0.0000
  0
SEQEND
  8
0
  0
POLYLINE
  8
1
 66
1
 10
0.0000
 20
0.0000
 30
0.0000
 40
0.1524
 41
0.1524
 70
0
  0
VERTEX
  8
1
 10
59.5000
 20
11.7500
 30
0.0000
  0
VERTEX
  8
1
 10
57.7193
 20
13.5307
 30
0.0000
  0
SEQEND
  8
0
  0
POLYLINE
  8
1
 66
1
 10
0.0000
 20
0.0000
 30
0.0000
 40
0.0762
 41
0.0762
 70
0
  0
VERTEX
  8
1
 10
57.7462
 20
13.5576
 30
0.0000
 42
1.0000
  0
VERTEX
  8
1
 10
57.6924
 20
13.5038
 30
0.0000
  0
SEQEND
  8
0
  0
POLYLINE
  8
1
 66
1
 10
0.0000
 20
0.0000
 30
0.0000
 40
0.0762
 41
0.0762
 70
0
  0
VERTEX
  8
1
 10
59.4731
 20
11.7231
 30
0.0000
 42
1.0000
  0
VERTEX
  8
1
 10
59.5269
 20
11.7769
 30
0.0000
  0
SEQEND
  8
0
  0
POLYLINE
  8
1
 66
1
 10
0.0000
 20
0.0000
 30
0.0000
 40
0.1524
 41
0.1524
 70
0
  0
VERTEX
  8
1
 10
60.2593
 20
25.5913
 30
0.0000
  0
VERTEX
  8
1
 10
58.1309
 20
27.7197
 30
0.0000
  0
SEQEND
  8
0
  0
POLYLINE
  8
1
 66
1
 10
0.0000
 20
0.0000
 30
0.0000
 40
0.0762
 41
0.0762
 70
0
  0
VERTEX
  8
1
 10
58.1578
 20
27.7466
 30
0.0000
 42
1.0000
  0
VERTEX
  8
1
 10
58.1040
 20
27.6928
 30
0.0000
  0
SEQEND
  8
0
  0
POLYLINE
  8
1
 66
1
 10
0.0000
 20
0.0000
 30
0.0000
 40
0.0762
 41
0.0762
 70
0
  0
VERTEX
  8
1
 10
60.2324
 20
25.5644
 30
0.0000
 42
1.0000
  0
VERTEX
  8
1
 10
60.2862
 20
25.6182
 30
0.0000
  0
SEQEND
  8
0
  0
POLYLINE
  8
1
 66
1
 10
0.0000
 20
0.0000
 30
0.0000
 40
0.1524
 41
0.1524
 70
0
  0
VERTEX
  8
1
 10
58.1309
 20
30.2197
 30
0.0000
  0
VERTEX
  8
1
 10
58.1309
 20
27.7197
 30
0.0000
  0
SEQEND
  8
0
  0
POLYLINE
  8
1
 66
1
 10
0.0000
 20
0.0000
 30
0.0000
 40
0.0762
 41
0.0762
 70
0
  0
VERTEX
  8
1
 10
58.0928
 20
27.7197
 30
0.0000
 42
1.0000
  0
VERTEX
  8
1
 10
58.1690
 20
27.7197
 30
0.0000
  0
SEQEND
  8
0
  0
POLYLINE
  8
1
 66
1
 10
0.0000
 20
0.0000
 30
0.0000
 40
0.0762
 41
0.0762
 70
0
  0
VERTEX
  8
1
 10
58.1690
 20
30.2197
 30
0.0000
 42
1.0000
  0
VERTEX
  8
1
 10
58.0928
 20
30.2197
 30
0.0000
  0
SEQEND
  8
0
  0
POLYLINE
  8
1
 66
1
 10
0.0000
 20
0.0000
 30
0.0000
 40
0.1524
 41
0.1524
 70
0
  0
VERTEX
  8
1
 10
60.2593
 20
25.5913
 30
0.0000
  0
VERTEX
  8
1
 10
60.2593
 20
21.1476
 30
0.0000
  0
SEQEND
  8
0
  0
POLYLINE
  8
1
 66
1
 10
0.0000
 20
0.0000
 30
0.0000
 40
0.0762
 41
0.0762
 70
0
  0
VERTEX
  8
1
 10
60.2212
 20
21.1476
 30
0.0000
 42
1.0000
  0
VERTEX
  8
1
 10
60.2974
 20
21.1476
 30
0.0000
  0
SEQEND
  8
0
  0
POLYLINE
  8
1
 66
1
 10
0.0000
 20
0.0000
 30
0.0000
 40
0.0762
 41
0.0762
 70
0
  0
VERTEX
  8
1
 10
60.2974
 20
25.5913
 30
0.0000
 42
1.0000
  0
VERTEX
  8
1
 10
60.2212
 20
25.5913
 30
0.0000
  0
SEQEND
  8
0
  0
POLYLINE
  8
1
 66
1
 10
0.0000
 20
0.0000
 30
0.0000
 40
0.1524
 41
0.1524
 70
0
  0
VERTEX
  8
1
 10
62.7993
 20
21.1476
 30
0.0000
  0
VERTEX
  8
1
 10
62.7993
 20
23.5493
 30
0.0000
  0
SEQEND
  8
0
  0
POLYLINE
  8
1
 66
1
 10
0.0000
 20
0.0000
 30
0.0000
 40
0.0762
 41
0.0762
 70
0
  0
VERTEX
  8
1
 10
62.8374
 20
23.5493
 30
0.0000
 42
1.0000
  0
VERTEX
  8
1
 10
62.7612
 20
23.5493
 30
0.0000
  0
SEQEND
  8
0
  0
POLYLINE
  8
1
 66
1
 10
0.0000
 20
0.0000
 30
0.0000
 40
0.0762
 41
0.0762
 70
0
  0
VERTEX
  8
1
 10
62.7612
 20
21.1476
 30
0.0000
 42
1.0000
  0
VERTEX
  8
1
 10
62.8374
 20
21.1476
 30
0.0000
  0
SEQEND
  8
0
  0
POLYLINE
  8
1
 66
1
 10
0.0000
 20
0.0000
 30
0.0000
 40
0.1524
 41
0.1524
 70
0
  0
VERTEX
  8
1
 10
63.4609
 20
29.9697
 30
0.0000
  0
VERTEX
  8
1
 10
63.2109
 20
30.2197
 30
0.0000
  0
SEQEND
  8
0
  0
POLYLINE
  8
1
 66
1
 10
0.0000
 20
0.0000
 30
0.0000
 40
0.0762
 41
0.0762
 70
0
  0
VERTEX
  8
1
 10
63.2378
 20
30.2466
 30
0.0000
 42
1.0000
  0
VERTEX
  8
1
 10
63.1840
 20
30.1928
 30
0.0000
  0
SEQEND
  8
0
  0
POLYLINE
  8
1
 66
1
 10
0.0000
 20
0.0000
 30
0.0000
 40
0.0762
 41
0.0762
 70
0
  0
VERTEX
  8
1
 10
63.4340
 20
29.9428
 30
0.0000
 42
1.0000
  0
VERTEX
  8
1
 10
63.4878
 20
29.9966
 30
0.0000
  0
SEQEND
  8
0
  0
POLYLINE
  8
1
 66
1
 10
0.0000
 20
0.0000
 30
0.0000
 40
0.1524
 41
0.1524
 70
0
  0
VERTEX
  8
1
 10
63.4609
 20
29.9697
 30
0.0000
  0
VERTEX
  8
1
 10
63.4609
 20
24.2109
 30
0.0000
  0
SEQEND
  8
0
  0
POLYLINE
  8
1
 66
1
 10
0.0000
 20
0.0000
 30
0.0000
 40
0.0762
 41
0.0762
 70
0
  0
VERTEX
  8
1
 10
63.4228
 20
24.2109
 30
0.0000
 42
1.0000
  0
VERTEX
  8
1
 10
63.4990
 20
24.2109
 30
0.0000
  0
SEQEND
  8
0
  0
POLYLINE
  8
1
 66
1
 10
0.0000
 20
0.0000
 30
0.0000
 40
0.0762
 41
0.0762
 70
0
  0
VERTEX
  8
1
 10
63.4990
 20
29.9697
 30
0.0000
 42
1.0000
  0
VERTEX
  8
1
 10
63.4228
 20
29.9697
 30
0.0000
  0
SEQEND
  8
0
  0
POLYLINE
  8
1
 66
1
 10
0.0000
 20
0.0000
 30
0.0000
 40
0.1524
 41
0.1524
 70
0
  0
VERTEX
  8
1
 10
62.7993
 20
23.5493
 30
0.0000
  0
VERTEX
  8
1
 10
63.4609
 20
24.2109
 30
0.0000
  0
SEQEND
  8
0
  0
POLYLINE
  8
1
 66
1
 10
0.0000
 20
0.0000
 30
0.0000
 40
0.0762
 41
0.0762
 70
0
  0
VERTEX
  8
1
 10
63.4878
 20
24.1840
 30
0.0000
 42
1.0000
  0
VERTEX
  8
1
 10
63.4340
 20
24.2378
 30
0.0000
  0
SEQEND
  8
0
  0
POLYLINE
  8
1
 66
1
 10
0.0000
 20
0.0000
 30
0.0000
 40
0.0762
 41
0.0762
 70
0
  0
VERTEX
  8
1
 10
62.7724
 20
23.5762
 30
0.0000
 42
1.0000
  0
VERTEX
  8
1
 10
62.8262
 20
23.5224
 30
0.0000
  0
SEQEND
  8
0
  0
POLYLINE
  8
1
 66
1
 10
0.0000
 20
0.0000
 30
0.0000
 40
0.1524
 41
0.1524
 70
0
  0
VERTEX
  8
1
 10
60.6709
 20
32.1709
 30
0.0000
  0
VERTEX
  8
1
 10
62.0000
 20
33.5000
 30
0.0000
  0
SEQEND
  8
0
  0
POLYLINE
  8
1
 66
1
 10
0.0000
 20
0.0000
 30
0.0000
 40
0.0762
 41
0.0762
 70
0
  0
VERTEX
  8
1
 10
62.0269
 20
33.4731
 30
0.0000
 42
1.0000
  0
VERTEX
  8
1
 10
61.9731
 20
33.5269
 30
0.0000
  0
SEQEND
  8
0
  0
POLYLINE
  8
1
 66
1
 10
0.0000
 20
0.0000
 30
0.0000
 40
0.0762
 41
0.0762
 70
0
  0
VERTEX
  8
1
 10
60.6440
 20
32.1978
 30
0.0000
 42
1.0000
  0
VERTEX
  8
1
 10
60.6978
 20
32.1440
 30
0.0000
  0
SEQEND
  8
0
  0
POLYLINE
  8
1
 66
1
 10
0.0000
 20
0.0000
 30
0.0000
 40
0.1524
 41
0.1524
 70
0
  0
VERTEX
  8
1
 10
60.6709
 20
30.2197
 30
0.0000
  0
VERTEX
  8
1
 10
60.6709
 20
32.1709
 30
0.0000
  0
SEQEND
  8
0
  0
POLYLINE
  8
1
 66
1
 10
0.0000
 20
0.0000
 30
0.0000
 40
0.0762
 41
0.0762
 70
0
  0
VERTEX
  8
1
 10
60.7090
 20
32.1709
 30
0.0000
 42
1.0000
  0
VERTEX
  8
1
 10
60.6328
 20
32.1709
 30
0.0000
  0
SEQEND
  8
0
  0
POLYLINE
  8
1
 66
1
 10
0.0000
 20
0.0000
 30
0.0000
 40
0.0762
 41
0.0762
 70
0
  0
VERTEX
  8
1
 10
60.6328
 20
30.2197
 30
0.0000
 42
1.0000
  0
VERTEX
  8
1
 10
60.7090
 20
30.2197
 30
0.0000
  0
SEQEND
  8
0
  0
POLYLINE
  8
1
 66
1
 10
0.0000
 20
0.0000
 30
0.0000
 40
0.1524
 41
0.1524
 70
0
  0
VERTEX
  8
1
 10
68.7500
 20
29.7500
 30
0.0000
  0
VERTEX
  8
1
 10
68.7500
 20
15.2500
 30
0.0000
  0
SEQEND
  8
0
  0
POLYLINE
  8
1
 66
1
 10
0.0000
 20
0.0000
 30
0.0000
 40
0.0762
 41
0.0762
 70
0
  0
VERTEX
  8
1
 10
68.7119
 20
15.2500
 30
0.0000
 42
1.0000
  0
VERTEX
  8
1
 10
68.7881
 20
15.2500
 30
0.0000
  0
SEQEND
  8
0
  0
POLYLINE
  8
1
 66
1
 10
0.0000
 20
0.0000
 30
0.0000
 40
0.0762
 41
0.0762
 70
0
  0
VERTEX
  8
1
 10
68.7881
 20
29.7500
 30
0.0000
 42
1.0000
  0
VERTEX
  8
1
 10
68.7119
 20
29.7500
 30
0.0000
  0
SEQEND
  8
0
  0
POLYLINE
  8
1
 66
1
 10
0.0000
 20
0.0000
 30
0.0000
 40
0.1524
 41
0.1524
 70
0
  0
VERTEX
  8
1
 10
68.7500
 20
15.2500
 30
0.0000
  0
VERTEX
  8
1
 10
66.7500
 20
13.2500
 30
0.0000
  0
SEQEND
  8
0
  0
POLYLINE
  8
1
 66
1
 10
0.0000
 20
0.0000
 30
0.0000
 40
0.0762
 41
0.0762
 70
0
  0
VERTEX
  8
1
 10
66.7231
 20
13.2769
 30
0.0000
 42
1.0000
  0
VERTEX
  8
1
 10
66.7769
 20
13.2231
 30
0.0000
  0
SEQEND
  8
0
  0
POLYLINE
  8
1
 66
1
 10
0.0000
 20
0.0000
 30
0.0000
 40
0.0762
 41
0.0762
 70
0
  0
VERTEX
  8
1
 10
68.7769
 20
15.2231
 30
0.0000
 42
1.0000
  0
VERTEX
  8
1
 10
68.7231
 20
15.2769
 30
0.0000
  0
SEQEND
  8
0
  0
POLYLINE
  8
1
 66
1
 10
0.0000
 20
0.0000
 30
0.0000
 40
0.1524
 41
0.1524
 70
0
  0
VERTEX
  8
1
 10
66.7500
 20
13.2500
 30
0.0000
  0
VERTEX
  8
1
 10
62.5000
 20
13.2500
 30
0.0000
  0
SEQEND
  8
0
  0
POLYLINE
  8
1
 66
1
 10
0.0000
 20
0.0000
 30
0.0000
 40
0.0762
 41
0.0762
 70
0
  0
VERTEX
  8
1
 10
62.5000
 20
13.2881
 30
0.0000
 42
1.0000
  0
VERTEX
  8
1
 10
62.5000
 20
13.2119
 30
0.0000
  0
SEQEND
  8
0
  0
POLYLINE
  8
1
 66
1
 10
0.0000
 20
0.0000
 30
0.0000
 40
0.0762
 41
0.0762
 70
0
  0
VERTEX
  8
1
 10
66.7500
 20
13.2119
 30
0.0000
 42
1.0000
  0
VERTEX
  8
1
 10
66.7500
 20
13.2881
 30
0.0000
  0
SEQEND
  8
0
  0
POLYLINE
  8
1
 66
1
 10
0.0000
 20
0.0000
 30
0.0000
 40
0.1524
 41
0.1524
 70
0
  0
VERTEX
  8
1
 10
60.2593
 20
15.4907
 30
0.0000
  0
VERTEX
  8
1
 10
60.2593
 20
18.6076
 30
0.0000
  0
SEQEND
  8
0
  0
POLYLINE
  8
1
 66
1
 10
0.0000
 20
0.0000
 30
0.0000
 40
0.0762
 41
0.0762
 70
0
  0
VERTEX
  8
1
 10
60.2974
 20
18.6076
 30
0.0000
 42
1.0000
  0
VERTEX
  8
1
 10
60.2212
 20
18.6076
 30
0.0000
  0
SEQEND
  8
0
  0
POLYLINE
  8
1
 66
1
 10
0.0000
 20
0.0000
 30
0.0000
 40
0.0762
 41
0.0762
 70
0
  0
VERTEX
  8
1
 10
60.2212
 20
15.4907
 30
0.0000
 42
1.0000
  0
VERTEX
  8
1
 10
60.2974
 20
15.4907
 30
0.0000
  0
SEQEND
  8
0
  0
POLYLINE
  8
1
 66
1
 10
0.0000
 20
0.0000
 30
0.0000
 40
0.1524
 41
0.1524
 70
0
  0
VERTEX
  8
1
 10
62.5000
 20
13.2500
 30
0.0000
  0
VERTEX
  8
1
 10
60.2593
 20
15.4907
 30
0.0000
  0
SEQEND
  8
0
  0
POLYLINE
  8
1
 66
1
 10
0.0000
 20
0.0000
 30
0.0000
 40
0.0762
 41
0.0762
 70
0
  0
VERTEX
  8
1
 10
60.2862
 20
15.5176
 30
0.0000
 42
1.0000
  0
VERTEX
  8
1
 10
60.2324
 20
15.4638
 30
0.0000
  0
SEQEND
  8
0
  0
POLYLINE
  8
1
 66
1
 10
0.0000
 20
0.0000
 30
0.0000
 40
0.0762
 41
0.0762
 70
0
  0
VERTEX
  8
1
 10
62.4731
 20
13.2231
 30
0.0000
 42
1.0000
  0
VERTEX
  8
1
 10
62.5269
 20
13.2769
 30
0.0000
  0
SEQEND
  8
0
  0
POLYLINE
  8
1
 66
1
 10
0.0000
 20
0.0000
 30
0.0000
 40
0.1524
 41
0.1524
 70
0
  0
VERTEX
  8
1
 10
62.0000
 20
33.5000
 30
0.0000
  0
VERTEX
  8
1
 10
65.0000
 20
33.5000
 30
0.0000
  0
SEQEND
  8
0
  0
POLYLINE
  8
1
 66
1
 10
0.0000
 20
0.0000
 30
0.0000
 40
0.0762
 41
0.0762
 70
0
  0
VERTEX
  8
1
 10
65.0000
 20
33.4619
 30
0.0000
 42
1.0000
  0
VERTEX
  8
1
 10
65.0000
 20
33.5381
 30
0.0000
  0
SEQEND
  8
0
  0
POLYLINE
  8
1
 66
1
 10
0.0000
 20
0.0000
 30
0.0000
 40
0.0762
 41
0.0762
 70
0
  0
VERTEX
  8
1
 10
62.0000
 20
33.5381
 30
0.0000
 42
1.0000
  0
VERTEX
  8
1
 10
62.0000
 20
33.4619
 30
0.0000
  0
SEQEND
  8
0
  0
POLYLINE
  8
1
 66
1
 10
0.0000
 20
0.0000
 30
0.0000
 40
0.1524
 41
0.1524
 70
0
  0
VERTEX
  8
1
 10
65.0000
 20
33.5000
 30
0.0000
  0
VERTEX
  8
1
 10
68.7500
 20
29.7500
 30
0.0000
  0
SEQEND
  8
0
  0
POLYLINE
  8
1
 66
1
 10
0.0000
 20
0.0000
 30
0.0000
 40
0.0762
 41
0.0762
 70
0
  0
VERTEX
  8
1
 10
68.7231
 20
29.7231
 30
0.0000
 42
1.0000
  0
VERTEX
  8
1
 10
68.7769
 20
29.7769
 30
0.0000
  0
SEQEND
  8
0
  0
POLYLINE
  8
1
 66
1
 10
0.0000
 20
0.0000
 30
0.0000
 40
0.0762
 41
0.0762
 70
0
  0
VERTEX
  8
1
 10
65.0269
 20
33.5269
 30
0.0000
 42
1.0000
  0
VERTEX
  8
1
 10
64.9731
 20
33.4731
 30
0.0000
  0
SEQEND
  8
0
  0
POLYLINE
  8
1
 66
1
 10
0.0000
 20
0.0000
 30
0.0000
 40
1.0160
 41
1.0160
 70
0
  0
VERTEX
  8
1
 10
79.9633
 20
6.7414
 30
0.0000
  0
VERTEX
  8
1
 10
79.9633
 20
3.2867
 30
0.0000
  0
SEQEND
  8
0
  0
POLYLINE
  8
1
 66
1
 10
0.0000
 20
0.0000
 30
0.0000
 40
0.5080
 41
0.5080
 70
0
  0
VERTEX
  8
1
 10
79.7093
 20
3.2867
 30
0.0000
 42
1.0000
  0
VERTEX
  8
1
 10
80.2173
 20
3.2867
 30
0.0000
  0
SEQEND
  8
0
  0
POLYLINE
  8
1
 66
1
 10
0.0000
 20
0.0000
 30
0.0000
 40
0.5080
 41
0.5080
 70
0
  0
VERTEX
  8
1
 10
80.2173
 20
6.7414
 30
0.0000
 42
1.0000
  0
VERTEX
  8
1
 10
79.7093
 20
6.7414
 30
0.0000
  0
SEQEND
  8
0
  0
POLYLINE
  8
1
 66
1
 10
0.0000
 20
0.0000
 30
0.0000
 40
1.0160
 41
1.0160
 70
0
  0
VERTEX
  8
1
 10
81.2500
 20
2.0000
 30
0.0000
  0
VERTEX
  8
1
 10
91.2500
 20
2.0000
 30
0.0000
  0
SEQEND
  8
0
  0
POLYLINE
  8
1
 66
1
 10
0.0000
 20
0.0000
 30
0.0000
 40
0.5080
 41
0.5080
 70
0
  0
VERTEX
  8
1
 10
91.2500
 20
1.7460
 30
0.0000
 42
1.0000
  0
VERTEX
  8
1
 10
91.2500
 20
2.2540
 30
0.0000
  0
SEQEND
  8
0
  0
POLYLINE
  8
1
 66
1
 10
0.0000
 20
0.0000
 30
0.0000
 40
0.5080
 41
0.5080
 70
0
  0
VERTEX
  8
1
 10
81.2500
 20
2.2540
 30
0.0000
 42
1.0000
  0
VERTEX
  8
1
 10
81.2500
 20
1.7460
 30
0.0000
  0
SEQEND
  8
0
  0
POLYLINE
  8
1
 66
1
 10
0.0000
 20
0.0000
 30
0.0000
 40
1.0160
 41
1.0160
 70
0
  0
VERTEX
  8
1
 10
91.2500
 20
2.0000
 30
0.0000
  0
VERTEX
  8
1
 10
93.5673
 20
4.3173
 30
0.0000
  0
SEQEND
  8
0
  0
POLYLINE
  8
1
 66
1
 10
0.0000
 20
0.0000
 30
0.0000
 40
0.5080
 41
0.5080
 70
0
  0
VERTEX
  8
1
 10
93.7469
 20
4.1377
 30
0.0000
 42
1.0000
  0
VERTEX
  8
1
 10
93.3877
 20
4.4969
 30
0.0000
  0
SEQEND
  8
0
  0
POLYLINE
  8
1
 66
1
 10
0.0000
 20
0.0000
 30
0.0000
 40
0.5080
 41
0.5080
 70
0
  0
VERTEX
  8
1
 10
91.0704
 20
2.1796
 30
0.0000
 42
1.0000
  0
VERTEX
  8
1
 10
91.4296
 20
1.8204
 30
0.0000
  0
SEQEND
  8
0
  0
POLYLINE
  8
1
 66
1
 10
0.0000
 20
0.0000
 30
0.0000
 40
1.0160
 41
1.0160
 70
0
  0
VERTEX
  8
1
 10
93.5673
 20
4.3173
 30
0.0000
  0
VERTEX
  8
1
 10
93.5673
 20
6.6387
 30
0.0000
  0
SEQEND
  8
0
  0
POLYLINE
  8
1
 66
1
 10
0.0000
 20
0.0000
 30
0.0000
 40
0.5080
 41
0.5080
 70
0
  0
VERTEX
  8
1
 10
93.8213
 20
6.6387
 30
0.0000
 42
1.0000
  0
VERTEX
  8
1
 10
93.3133
 20
6.6387
 30
0.0000
  0
SEQEND
  8
0
  0
POLYLINE
  8
1
 66
1
 10
0.0000
 20
0.0000
 30
0.0000
 40
0.5080
 41
0.5080
 70
0
  0
VERTEX
  8
1
 10
93.3133
 20
4.3173
 30
0.0000
 42
1.0000
  0
VERTEX
  8
1
 10
93.8213
 20
4.3173
 30
0.0000
  0
SEQEND
  8
0
  0
POLYLINE
  8
1
 66
1
 10
0.0000
 20
0.0000
 30
0.0000
 40
1.0160
 41
1.0160
 70
0
  0
VERTEX
  8
1
 10
79.9633
 20
3.2867
 30
0.0000
  0
VERTEX
  8
1
 10
81.2500
 20
2.0000
 30
0.0000
  0
SEQEND
  8
0
  0
POLYLINE
  8
1
 66
1
 10
0.0000
 20
0.0000
 30
0.0000
 40
0.5080
 41
0.5080
 70
0
  0
VERTEX
  8
1
 10
81.0704
 20
1.8204
 30
0.0000
 42
1.0000
  0
VERTEX
  8
1
 10
81.4296
 20
2.1796
 30
0.0000
  0
SEQEND
  8
0
  0
POLYLINE
  8
1
 66
1
 10
0.0000
 20
0.0000
 30
0.0000
 40
0.5080
 41
0.5080
 70
0
  0
VERTEX
  8
1
 10
80.1429
 20
3.4663
 30
0.0000
 42
1.0000
  0
VERTEX
  8
1
 10
79.7837
 20
3.1071
 30
0.0000
  0
SEQEND
  8
0
  0
POLYLINE
  8
1
 66
1
 10
0.0000
 20
0.0000
 30
0.0000
 40
0.1524
 41
0.1524
 70
0
  0
VERTEX
  8
1
 10
24.6993
 20
23.6993
 30
0.0000
  0
VERTEX
  8
1
 10
24.6993
 20
21.1476
 30
0.0000
  0
SEQEND
  8
0
  0
POLYLINE
  8
1
 66
1
 10
0.0000
 20
0.0000
 30
0.0000
 40
0.0762
 41
0.0762
 70
0
  0
VERTEX
  8
1
 10
24.6612
 20
21.1476
 30
0.0000
 42
1.0000
  0
VERTEX
  8
1
 10
24.7374
 20
21.1476
 30
0.0000
  0
SEQEND
  8
0
  0
POLYLINE
  8
1
 66
1
 10
0.0000
 20
0.0000
 30
0.0000
 40
0.0762
 41
0.0762
 70
0
  0
VERTEX
  8
1
 10
24.7374
 20
23.6993
 30
0.0000
 42
1.0000
  0
VERTEX
  8
1
 10
24.6612
 20
23.6993
 30
0.0000
  0
SEQEND
  8
0
  0
POLYLINE
  8
1
 66
1
 10
0.0000
 20
0.0000
 30
0.0000
 40
0.1524
 41
0.1524
 70
0
  0
VERTEX
  8
1
 10
25.5000
 20
24.5000
 30
0.0000
  0
VERTEX
  8
1
 10
35.0000
 20
24.5000
 30
0.0000
  0
SEQEND
  8
0
  0
POLYLINE
  8
1
 66
1
 10
0.0000
 20
0.0000
 30
0.0000
 40
0.0762
 41
0.0762
 70
0
  0
VERTEX
  8
1
 10
35.0000
 20
24.4619
 30
0.0000
 42
1.0000
  0
VERTEX
  8
1
 10
35.0000
 20
24.5381
 30
0.0000
  0
SEQEND
  8
0
  0
POLYLINE
  8
1
 66
1
 10
0.0000
 20
0.0000
 30
0.0000
 40
0.0762
 41
0.0762
 70
0
  0
VERTEX
  8
1
 10
25.5000
 20
24.5381
 30
0.0000
 42
1.0000
  0
VERTEX
  8
1
 10
25.5000
 20
24.4619
 30
0.0000
  0
SEQEND
  8
0
  0
POLYLINE
  8
1
 66
1
 10
0.0000
 20
0.0000
 30
0.0000
 40
0.1524
 41
0.1524
 70
0
  0
VERTEX
  8
1
 10
25.5000
 20
24.5000
 30
0.0000
  0
VERTEX
  8
1
 10
24.6993
 20
23.6993
 30
0.0000
  0
SEQEND
  8
0
  0
POLYLINE
  8
1
 66
1
 10
0.0000
 20
0.0000
 30
0.0000
 40
0.0762
 41
0.0762
 70
0
  0
VERTEX
  8
1
 10
24.6724
 20
23.7262
 30
0.0000
 42
1.0000
  0
VERTEX
  8
1
 10
24.7262
 20
23.6724
 30
0.0000
  0
SEQEND
  8
0
  0
POLYLINE
  8
1
 66
1
 10
0.0000
 20
0.0000
 30
0.0000
 40
0.0762
 41
0.0762
 70
0
  0
VERTEX
  8
1
 10
25.5269
 20
24.4731
 30
0.0000
 42
1.0000
  0
VERTEX
  8
1
 10
25.4731
 20
24.5269
 30
0.0000
  0
SEQEND
  8
0
  0
POLYLINE
  8
1
 66
1
 10
0.0000
 20
0.0000
 30
0.0000
 40
0.1524
 41
0.1524
 70
0
  0
VERTEX
  8
1
 10
47.3897
 20
47.6682
 30
0.0000
  0
VERTEX
  8
1
 10
44.4182
 20
47.6682
 30
0.0000
  0
SEQEND
  8
0
  0
POLYLINE
  8
1
 66
1
 10
0.0000
 20
0.0000
 30
0.0000
 40
0.0762
 41
0.0762
 70
0
  0
VERTEX
  8
1
 10
44.4182
 20
47.7063
 30
0.0000
 42
1.0000
  0
VERTEX
  8
1
 10
44.4182
 20
47.6301
 30
0.0000
  0
SEQEND
  8
0
  0
POLYLINE
  8
1
 66
1
 10
0.0000
 20
0.0000
 30
0.0000
 40
0.0762
 41
0.0762
 70
0
  0
VERTEX
  8
1
 10
47.3897
 20
47.6301
 30
0.0000
 42
1.0000
  0
VERTEX
  8
1
 10
47.3897
 20
47.7063
 30
0.0000
  0
SEQEND
  8
0
  0
POLYLINE
  8
1
 66
1
 10
0.0000
 20
0.0000
 30
0.0000
 40
0.1524
 41
0.1524
 70
0
  0
VERTEX
  8
1
 10
44.4182
 20
47.6682
 30
0.0000
  0
VERTEX
  8
1
 10
43.0000
 20
46.2500
 30
0.0000
  0
SEQEND
  8
0
  0
POLYLINE
  8
1
 66
1
 10
0.0000
 20
0.0000
 30
0.0000
 40
0.0762
 41
0.0762
 70
0
  0
VERTEX
  8
1
 10
42.9731
 20
46.2769
 30
0.0000
 42
1.0000
  0
VERTEX
  8
1
 10
43.0269
 20
46.2231
 30
0.0000
  0
SEQEND
  8
0
  0
POLYLINE
  8
1
 66
1
 10
0.0000
 20
0.0000
 30
0.0000
 40
0.0762
 41
0.0762
 70
0
  0
VERTEX
  8
1
 10
44.4451
 20
47.6413
 30
0.0000
 42
1.0000
  0
VERTEX
  8
1
 10
44.3913
 20
47.6951
 30
0.0000
  0
SEQEND
  8
0
  0
POLYLINE
  8
1
 66
1
 10
0.0000
 20
0.0000
 30
0.0000
 40
0.1524
 41
0.1524
 70
0
  0
VERTEX
  8
1
 10
43.0000
 20
46.2500
 30
0.0000
  0
VERTEX
  8
1
 10
43.0000
 20
32.5000
 30
0.0000
  0
SEQEND
  8
0
  0
POLYLINE
  8
1
 66
1
 10
0.0000
 20
0.0000
 30
0.0000
 40
0.0762
 41
0.0762
 70
0
  0
VERTEX
  8
1
 10
42.9619
 20
32.5000
 30
0.0000
 42
1.0000
  0
VERTEX
  8
1
 10
43.0381
 20
32.5000
 30
0.0000
  0
SEQEND
  8
0
  0
POLYLINE
  8
1
 66
1
 10
0.0000
 20
0.0000
 30
0.0000
 40
0.0762
 41
0.0762
 70
0
  0
VERTEX
  8
1
 10
43.0381
 20
46.2500
 30
0.0000
 42
1.0000
  0
VERTEX
  8
1
 10
42.9619
 20
46.2500
 30
0.0000
  0
SEQEND
  8
0
  0
POLYLINE
  8
1
 66
1
 10
0.0000
 20
0.0000
 30
0.0000
 40
0.1524
 41
0.1524
 70
0
  0
VERTEX
  8
1
 10
35.0000
 20
24.5000
 30
0.0000
  0
VERTEX
  8
1
 10
43.0000
 20
32.5000
 30
0.0000
  0
SEQEND
  8
0
  0
POLYLINE
  8
1
 66
1
 10
0.0000
 20
0.0000
 30
0.0000
 40
0.0762
 41
0.0762
 70
0
  0
VERTEX
  8
1
 10
43.0269
 20
32.4731
 30
0.0000
 42
1.0000
  0
VERTEX
  8
1
 10
42.9731
 20
32.5269
 30
0.0000
  0
SEQEND
  8
0
  0
POLYLINE
  8
1
 66
1
 10
0.0000
 20
0.0000
 30
0.0000
 40
0.0762
 41
0.0762
 70
0
  0
VERTEX
  8
1
 10
34.9731
 20
24.5269
 30
0.0000
 42
1.0000
  0
VERTEX
  8
1
 10
35.0269
 20
24.4731
 30
0.0000
  0
SEQEND
  8
0
  0
POLYLINE
  8
1
 66
1
 10
0.0000
 20
0.0000
 30
0.0000
 40
0.1524
 41
0.1524
 70
0
  0
VERTEX
  8
1
 10
47.3897
 20
55.2882
 30
0.0000
  0
VERTEX
  8
1
 10
39.9618
 20
55.2882
 30
0.0000
  0
SEQEND
  8
0
  0
POLYLINE
  8
1
 66
1
 10
0.0000
 20
0.0000
 30
0.0000
 40
0.0762
 41
0.0762
 70
0
  0
VERTEX
  8
1
 10
39.9618
 20
55.3263
 30
0.0000
 42
1.0000
  0
VERTEX
  8
1
 10
39.9618
 20
55.2501
 30
0.0000
  0
SEQEND
  8
0
  0
POLYLINE
  8
1
 66
1
 10
0.0000
 20
0.0000
 30
0.0000
 40
0.0762
 41
0.0762
 70
0
  0
VERTEX
  8
1
 10
47.3897
 20
55.2501
 30
0.0000
 42
1.0000
  0
VERTEX
  8
1
 10
47.3897
 20
55.3263
 30
0.0000
  0
SEQEND
  8
0
  0
POLYLINE
  8
1
 66
1
 10
0.0000
 20
0.0000
 30
0.0000
 40
0.1524
 41
0.1524
 70
0
  0
VERTEX
  8
1
 10
38.0000
 20
57.2500
 30
0.0000
  0
VERTEX
  8
1
 10
38.0000
 20
59.0000
 30
0.0000
  0
SEQEND
  8
0
  0
POLYLINE
  8
1
 66
1
 10
0.0000
 20
0.0000
 30
0.0000
 40
0.0762
 41
0.0762
 70
0
  0
VERTEX
  8
1
 10
38.0381
 20
59.0000
 30
0.0000
 42
1.0000
  0
VERTEX
  8
1
 10
37.9619
 20
59.0000
 30
0.0000
  0
SEQEND
  8
0
  0
POLYLINE
  8
1
 66
1
 10
0.0000
 20
0.0000
 30
0.0000
 40
0.0762
 41
0.0762
 70
0
  0
VERTEX
  8
1
 10
37.9619
 20
57.2500
 30
0.0000
 42
1.0000
  0
VERTEX
  8
1
 10
38.0381
 20
57.2500
 30
0.0000
  0
SEQEND
  8
0
  0
POLYLINE
  8
1
 66
1
 10
0.0000
 20
0.0000
 30
0.0000
 40
0.1524
 41
0.1524
 70
0
  0
VERTEX
  8
1
 10
38.0000
 20
59.0000
 30
0.0000
  0
VERTEX
  8
1
 10
36.3235
 20
60.6765
 30
0.0000
  0
SEQEND
  8
0
  0
POLYLINE
  8
1
 66
1
 10
0.0000
 20
0.0000
 30
0.0000
 40
0.0762
 41
0.0762
 70
0
  0
VERTEX
  8
1
 10
36.3504
 20
60.7034
 30
0.0000
 42
1.0000
  0
VERTEX
  8
1
 10
36.2966
 20
60.6496
 30
0.0000
  0
SEQEND
  8
0
  0
POLYLINE
  8
1
 66
1
 10
0.0000
 20
0.0000
 30
0.0000
 40
0.0762
 41
0.0762
 70
0
  0
VERTEX
  8
1
 10
37.9731
 20
58.9731
 30
0.0000
 42
1.0000
  0
VERTEX
  8
1
 10
38.0269
 20
59.0269
 30
0.0000
  0
SEQEND
  8
0
  0
POLYLINE
  8
1
 66
1
 10
0.0000
 20
0.0000
 30
0.0000
 40
0.1524
 41
0.1524
 70
0
  0
VERTEX
  8
1
 10
36.3235
 20
60.6765
 30
0.0000
  0
VERTEX
  8
1
 10
33.5533
 20
60.6765
 30
0.0000
  0
SEQEND
  8
0
  0
POLYLINE
  8
1
 66
1
 10
0.0000
 20
0.0000
 30
0.0000
 40
0.0762
 41
0.0762
 70
0
  0
VERTEX
  8
1
 10
33.5533
 20
60.7146
 30
0.0000
 42
1.0000
  0
VERTEX
  8
1
 10
33.5533
 20
60.6384
 30
0.0000
  0
SEQEND
  8
0
  0
POLYLINE
  8
1
 66
1
 10
0.0000
 20
0.0000
 30
0.0000
 40
0.0762
 41
0.0762
 70
0
  0
VERTEX
  8
1
 10
36.3235
 20
60.6384
 30
0.0000
 42
1.0000
  0
VERTEX
  8
1
 10
36.3235
 20
60.7146
 30
0.0000
  0
SEQEND
  8
0
  0
POLYLINE
  8
1
 66
1
 10
0.0000
 20
0.0000
 30
0.0000
 40
0.1524
 41
0.1524
 70
0
  0
VERTEX
  8
1
 10
39.9618
 20
55.2882
 30
0.0000
  0
VERTEX
  8
1
 10
38.0000
 20
57.2500
 30
0.0000
  0
SEQEND
  8
0
  0
POLYLINE
  8
1
 66
1
 10
0.0000
 20
0.0000
 30
0.0000
 40
0.0762
 41
0.0762
 70
0
  0
VERTEX
  8
1
 10
38.0269
 20
57.2769
 30
0.0000
 42
1.0000
  0
VERTEX
  8
1
 10
37.9731
 20
57.2231
 30
0.0000
  0
SEQEND
  8
0
  0
POLYLINE
  8
1
 66
1
 10
0.0000
 20
0.0000
 30
0.0000
 40
0.0762
 41
0.0762
 70
0
  0
VERTEX
  8
1
 10
39.9349
 20
55.2613
 30
0.0000
 42
1.0000
  0
VERTEX
  8
1
 10
39.9887
 20
55.3151
 30
0.0000
  0
SEQEND
  8
0
  0
POLYLINE
  8
1
 66
1
 10
0.0000
 20
0.0000
 30
0.0000
 40
0.1524
 41
0.1524
 70
0
  0
VERTEX
  8
1
 10
18.3133
 20
58.1365
 30
0.0000
  0
VERTEX
  8
1
 10
15.8635
 20
58.1365
 30
0.0000
  0
SEQEND
  8
0
  0
POLYLINE
  8
1
 66
1
 10
0.0000
 20
0.0000
 30
0.0000
 40
0.0762
 41
0.0762
 70
0
  0
VERTEX
  8
1
 10
15.8635
 20
58.1746
 30
0.0000
 42
1.0000
  0
VERTEX
  8
1
 10
15.8635
 20
58.0984
 30
0.0000
  0
SEQEND
  8
0
  0
POLYLINE
  8
1
 66
1
 10
0.0000
 20
0.0000
 30
0.0000
 40
0.0762
 41
0.0762
 70
0
  0
VERTEX
  8
1
 10
18.3133
 20
58.0984
 30
0.0000
 42
1.0000
  0
VERTEX
  8
1
 10
18.3133
 20
58.1746
 30
0.0000
  0
SEQEND
  8
0
  0
POLYLINE
  8
1
 66
1
 10
0.0000
 20
0.0000
 30
0.0000
 40
0.1524
 41
0.1524
 70
0
  0
VERTEX
  8
1
 10
12.3090
 20
61.6910
 30
0.0000
  0
VERTEX
  8
1
 10
11.2022
 20
61.6910
 30
0.0000
  0
SEQEND
  8
0
  0
POLYLINE
  8
1
 66
1
 10
0.0000
 20
0.0000
 30
0.0000
 40
0.0762
 41
0.0762
 70
0
  0
VERTEX
  8
1
 10
11.2022
 20
61.7291
 30
0.0000
 42
1.0000
  0
VERTEX
  8
1
 10
11.2022
 20
61.6529
 30
0.0000
  0
SEQEND
  8
0
  0
POLYLINE
  8
1
 66
1
 10
0.0000
 20
0.0000
 30
0.0000
 40
0.0762
 41
0.0762
 70
0
  0
VERTEX
  8
1
 10
12.3090
 20
61.6529
 30
0.0000
 42
1.0000
  0
VERTEX
  8
1
 10
12.3090
 20
61.7291
 30
0.0000
  0
SEQEND
  8
0
  0
POLYLINE
  8
1
 66
1
 10
0.0000
 20
0.0000
 30
0.0000
 40
0.1524
 41
0.1524
 70
0
  0
VERTEX
  8
1
 10
15.8635
 20
58.1365
 30
0.0000
  0
VERTEX
  8
1
 10
12.3090
 20
61.6910
 30
0.0000
  0
SEQEND
  8
0
  0
POLYLINE
  8
1
 66
1
 10
0.0000
 20
0.0000
 30
0.0000
 40
0.0762
 41
0.0762
 70
0
  0
VERTEX
  8
1
 10
12.3359
 20
61.7179
 30
0.0000
 42
1.0000
  0
VERTEX
  8
1
 10
12.2821
 20
61.6641
 30
0.0000
  0
SEQEND
  8
0
  0
POLYLINE
  8
1
 66
1
 10
0.0000
 20
0.0000
 30
0.0000
 40
0.0762
 41
0.0762
 70
0
  0
VERTEX
  8
1
 10
15.8366
 20
58.1096
 30
0.0000
 42
1.0000
  0
VERTEX
  8
1
 10
15.8904
 20
58.1634
 30
0.0000
  0
SEQEND
  8
0
  0
POLYLINE
  8
1
 66
1
 10
0.0000
 20
0.0000
 30
0.0000
 40
0.1524
 41
0.1524
 70
0
  0
VERTEX
  8
1
 10
18.3133
 20
53.0565
 30
0.0000
  0
VERTEX
  8
1
 10
11.2434
 20
53.0565
 30
0.0000
  0
SEQEND
  8
0
  0
POLYLINE
  8
1
 66
1
 10
0.0000
 20
0.0000
 30
0.0000
 40
0.0762
 41
0.0762
 70
0
  0
VERTEX
  8
1
 10
11.2434
 20
53.0946
 30
0.0000
 42
1.0000
  0
VERTEX
  8
1
 10
11.2434
 20
53.0184
 30
0.0000
  0
SEQEND
  8
0
  0
POLYLINE
  8
1
 66
1
 10
0.0000
 20
0.0000
 30
0.0000
 40
0.0762
 41
0.0762
 70
0
  0
VERTEX
  8
1
 10
18.3133
 20
53.0184
 30
0.0000
 42
1.0000
  0
VERTEX
  8
1
 10
18.3133
 20
53.0946
 30
0.0000
  0
SEQEND
  8
0
  0
POLYLINE
  8
1
 66
1
 10
0.0000
 20
0.0000
 30
0.0000
 40
0.1524
 41
0.1524
 70
0
  0
VERTEX
  8
1
 10
11.2022
 20
53.0153
 30
0.0000
  0
VERTEX
  8
1
 10
11.2434
 20
53.0565
 30
0.0000
  0
SEQEND
  8
0
  0
POLYLINE
  8
1
 66
1
 10
0.0000
 20
0.0000
 30
0.0000
 40
0.0762
 41
0.0762
 70
0
  0
VERTEX
  8
1
 10
11.2704
 20
53.0296
 30
0.0000
 42
1.0000
  0
VERTEX
  8
1
 10
11.2165
 20
53.0834
 30
0.0000
  0
SEQEND
  8
0
  0
POLYLINE
  8
1
 66
1
 10
0.0000
 20
0.0000
 30
0.0000
 40
0.0762
 41
0.0762
 70
0
  0
VERTEX
  8
1
 10
11.1753
 20
53.0422
 30
0.0000
 42
1.0000
  0
VERTEX
  8
1
 10
11.2291
 20
52.9883
 30
0.0000
  0
SEQEND
  8
0
  0
POLYLINE
  8
1
 66
1
 10
0.0000
 20
0.0000
 30
0.0000
 40
0.1524
 41
0.1524
 70
0
  0
VERTEX
  8
1
 10
18.3133
 20
47.9765
 30
0.0000
  0
VERTEX
  8
1
 10
13.9765
 20
47.9765
 30
0.0000
  0
SEQEND
  8
0
  0
POLYLINE
  8
1
 66
1
 10
0.0000
 20
0.0000
 30
0.0000
 40
0.0762
 41
0.0762
 70
0
  0
VERTEX
  8
1
 10
13.9765
 20
48.0146
 30
0.0000
 42
1.0000
  0
VERTEX
  8
1
 10
13.9765
 20
47.9384
 30
0.0000
  0
SEQEND
  8
0
  0
POLYLINE
  8
1
 66
1
 10
0.0000
 20
0.0000
 30
0.0000
 40
0.0762
 41
0.0762
 70
0
  0
VERTEX
  8
1
 10
18.3133
 20
47.9384
 30
0.0000
 42
1.0000
  0
VERTEX
  8
1
 10
18.3133
 20
48.0146
 30
0.0000
  0
SEQEND
  8
0
  0
POLYLINE
  8
1
 66
1
 10
0.0000
 20
0.0000
 30
0.0000
 40
0.1524
 41
0.1524
 70
0
  0
VERTEX
  8
1
 10
11.2022
 20
45.2022
 30
0.0000
  0
VERTEX
  8
1
 10
11.2022
 20
43.5895
 30
0.0000
  0
SEQEND
  8
0
  0
POLYLINE
  8
1
 66
1
 10
0.0000
 20
0.0000
 30
0.0000
 40
0.0762
 41
0.0762
 70
0
  0
VERTEX
  8
1
 10
11.1641
 20
43.5895
 30
0.0000
 42
1.0000
  0
VERTEX
  8
1
 10
11.2403
 20
43.5895
 30
0.0000
  0
SEQEND
  8
0
  0
POLYLINE
  8
1
 66
1
 10
0.0000
 20
0.0000
 30
0.0000
 40
0.0762
 41
0.0762
 70
0
  0
VERTEX
  8
1
 10
11.2403
 20
45.2022
 30
0.0000
 42
1.0000
  0
VERTEX
  8
1
 10
11.1641
 20
45.2022
 30
0.0000
  0
SEQEND
  8
0
  0
POLYLINE
  8
1
 66
1
 10
0.0000
 20
0.0000
 30
0.0000
 40
0.1524
 41
0.1524
 70
0
  0
VERTEX
  8
1
 10
13.9765
 20
47.9765
 30
0.0000
  0
VERTEX
  8
1
 10
11.2022
 20
45.2022
 30
0.0000
  0
SEQEND
  8
0
  0
POLYLINE
  8
1
 66
1
 10
0.0000
 20
0.0000
 30
0.0000
 40
0.0762
 41
0.0762
 70
0
  0
VERTEX
  8
1
 10
11.1753
 20
45.2291
 30
0.0000
 42
1.0000
  0
VERTEX
  8
1
 10
11.2291
 20
45.1753
 30
0.0000
  0
SEQEND
  8
0
  0
POLYLINE
  8
1
 66
1
 10
0.0000
 20
0.0000
 30
0.0000
 40
0.0762
 41
0.0762
 70
0
  0
VERTEX
  8
1
 10
14.0034
 20
47.9496
 30
0.0000
 42
1.0000
  0
VERTEX
  8
1
 10
13.9496
 20
48.0034
 30
0.0000
  0
SEQEND
  8
0
  0
POLYLINE
  8
1
 66
1
 10
0.0000
 20
0.0000
 30
0.0000
 40
0.1524
 41
0.1524
 70
0
  0
VERTEX
  8
1
 10
18.3133
 20
42.8965
 30
0.0000
  0
VERTEX
  8
1
 10
17.6465
 20
42.8965
 30
0.0000
  0
SEQEND
  8
0
  0
POLYLINE
  8
1
 66
1
 10
0.0000
 20
0.0000
 30
0.0000
 40
0.0762
 41
0.0762
 70
0
  0
VERTEX
  8
1
 10
17.6465
 20
42.9346
 30
0.0000
 42
1.0000
  0
VERTEX
  8
1
 10
17.6465
 20
42.8584
 30
0.0000
  0
SEQEND
  8
0
  0
POLYLINE
  8
1
 66
1
 10
0.0000
 20
0.0000
 30
0.0000
 40
0.0762
 41
0.0762
 70
0
  0
VERTEX
  8
1
 10
18.3133
 20
42.8584
 30
0.0000
 42
1.0000
  0
VERTEX
  8
1
 10
18.3133
 20
42.9346
 30
0.0000
  0
SEQEND
  8
0
  0
POLYLINE
  8
1
 66
1
 10
0.0000
 20
0.0000
 30
0.0000
 40
0.1524
 41
0.1524
 70
0
  0
VERTEX
  8
1
 10
17.6465
 20
42.8965
 30
0.0000
  0
VERTEX
  8
1
 10
11.2022
 20
36.4522
 30
0.0000
  0
SEQEND
  8
0
  0
POLYLINE
  8
1
 66
1
 10
0.0000
 20
0.0000
 30
0.0000
 40
0.0762
 41
0.0762
 70
0
  0
VERTEX
  8
1
 10
11.1753
 20
36.4791
 30
0.0000
 42
1.0000
  0
VERTEX
  8
1
 10
11.2291
 20
36.4253
 30
0.0000
  0
SEQEND
  8
0
  0
POLYLINE
  8
1
 66
1
 10
0.0000
 20
0.0000
 30
0.0000
 40
0.0762
 41
0.0762
 70
0
  0
VERTEX
  8
1
 10
17.6734
 20
42.8696
 30
0.0000
 42
1.0000
  0
VERTEX
  8
1
 10
17.6196
 20
42.9234
 30
0.0000
  0
SEQEND
  8
0
  0
POLYLINE
  8
1
 66
1
 10
0.0000
 20
0.0000
 30
0.0000
 40
0.1524
 41
0.1524
 70
0
  0
VERTEX
  8
1
 10
11.2022
 20
36.4522
 30
0.0000
  0
VERTEX
  8
1
 10
11.2022
 20
32.6638
 30
0.0000
  0
SEQEND
  8
0
  0
POLYLINE
  8
1
 66
1
 10
0.0000
 20
0.0000
 30
0.0000
 40
0.0762
 41
0.0762
 70
0
  0
VERTEX
  8
1
 10
11.1641
 20
32.6638
 30
0.0000
 42
1.0000
  0
VERTEX
  8
1
 10
11.2403
 20
32.6638
 30
0.0000
  0
SEQEND
  8
0
  0
POLYLINE
  8
1
 66
1
 10
0.0000
 20
0.0000
 30
0.0000
 40
0.0762
 41
0.0762
 70
0
  0
VERTEX
  8
1
 10
11.2403
 20
36.4522
 30
0.0000
 42
1.0000
  0
VERTEX
  8
1
 10
11.1641
 20
36.4522
 30
0.0000
  0
SEQEND
  8
0
  0
POLYLINE
  8
1
 66
1
 10
0.0000
 20
0.0000
 30
0.0000
 40
0.1524
 41
0.1524
 70
0
  0
VERTEX
  8
1
 10
19.6193
 20
18.6076
 30
0.0000
  0
VERTEX
  8
1
 10
19.6193
 20
16.1193
 30
0.0000
  0
SEQEND
  8
0
  0
POLYLINE
  8
1
 66
1
 10
0.0000
 20
0.0000
 30
0.0000
 40
0.0762
 41
0.0762
 70
0
  0
VERTEX
  8
1
 10
19.5812
 20
16.1193
 30
0.0000
 42
1.0000
  0
VERTEX
  8
1
 10
19.6574
 20
16.1193
 30
0.0000
  0
SEQEND
  8
0
  0
POLYLINE
  8
1
 66
1
 10
0.0000
 20
0.0000
 30
0.0000
 40
0.0762
 41
0.0762
 70
0
  0
VERTEX
  8
1
 10
19.6574
 20
18.6076
 30
0.0000
 42
1.0000
  0
VERTEX
  8
1
 10
19.5812
 20
18.6076
 30
0.0000
  0
SEQEND
  8
0
  0
POLYLINE
  8
1
 66
1
 10
0.0000
 20
0.0000
 30
0.0000
 40
0.1524
 41
0.1524
 70
0
  0
VERTEX
  8
1
 10
19.6193
 20
16.1193
 30
0.0000
  0
VERTEX
  8
1
 10
16.5000
 20
13.0000
 30
0.0000
  0
SEQEND
  8
0
  0
POLYLINE
  8
1
 66
1
 10
0.0000
 20
0.0000
 30
0.0000
 40
0.0762
 41
0.0762
 70
0
  0
VERTEX
  8
1
 10
16.4731
 20
13.0269
 30
0.0000
 42
1.0000
  0
VERTEX
  8
1
 10
16.5269
 20
12.9731
 30
0.0000
  0
SEQEND
  8
0
  0
POLYLINE
  8
1
 66
1
 10
0.0000
 20
0.0000
 30
0.0000
 40
0.0762
 41
0.0762
 70
0
  0
VERTEX
  8
1
 10
19.6462
 20
16.0924
 30
0.0000
 42
1.0000
  0
VERTEX
  8
1
 10
19.5924
 20
16.1462
 30
0.0000
  0
SEQEND
  8
0
  0
POLYLINE
  8
1
 66
1
 10
0.0000
 20
0.0000
 30
0.0000
 40
0.1524
 41
0.1524
 70
0
  0
VERTEX
  8
1
 10
16.5000
 20
13.0000
 30
0.0000
  0
VERTEX
  8
1
 10
11.7500
 20
13.0000
 30
0.0000
  0
SEQEND
  8
0
  0
POLYLINE
  8
1
 66
1
 10
0.0000
 20
0.0000
 30
0.0000
 40
0.0762
 41
0.0762
 70
0
  0
VERTEX
  8
1
 10
11.7500
 20
13.0381
 30
0.0000
 42
1.0000
  0
VERTEX
  8
1
 10
11.7500
 20
12.9619
 30
0.0000
  0
SEQEND
  8
0
  0
POLYLINE
  8
1
 66
1
 10
0.0000
 20
0.0000
 30
0.0000
 40
0.0762
 41
0.0762
 70
0
  0
VERTEX
  8
1
 10
16.5000
 20
12.9619
 30
0.0000
 42
1.0000
  0
VERTEX
  8
1
 10
16.5000
 20
13.0381
 30
0.0000
  0
SEQEND
  8
0
  0
POLYLINE
  8
1
 66
1
 10
0.0000
 20
0.0000
 30
0.0000
 40
0.1524
 41
0.1524
 70
0
  0
VERTEX
  8
1
 10
11.7500
 20
13.0000
 30
0.0000
  0
VERTEX
  8
1
 10
8.2500
 20
16.5000
 30
0.0000
  0
SEQEND
  8
0
  0
POLYLINE
  8
1
 66
1
 10
0.0000
 20
0.0000
 30
0.0000
 40
0.0762
 41
0.0762
 70
0
  0
VERTEX
  8
1
 10
8.2769
 20
16.5269
 30
0.0000
 42
1.0000
  0
VERTEX
  8
1
 10
8.2231
 20
16.4731
 30
0.0000
  0
SEQEND
  8
0
  0
POLYLINE
  8
1
 66
1
 10
0.0000
 20
0.0000
 30
0.0000
 40
0.0762
 41
0.0762
 70
0
  0
VERTEX
  8
1
 10
11.7231
 20
12.9731
 30
0.0000
 42
1.0000
  0
VERTEX
  8
1
 10
11.7769
 20
13.0269
 30
0.0000
  0
SEQEND
  8
0
  0
POLYLINE
  8
1
 66
1
 10
0.0000
 20
0.0000
 30
0.0000
 40
0.1524
 41
0.1524
 70
0
  0
VERTEX
  8
1
 10
8.2500
 20
16.5000
 30
0.0000
  0
VERTEX
  8
1
 10
8.2500
 20
25.7500
 30
0.0000
  0
SEQEND
  8
0
  0
POLYLINE
  8
1
 66
1
 10
0.0000
 20
0.0000
 30
0.0000
 40
0.0762
 41
0.0762
 70
0
  0
VERTEX
  8
1
 10
8.2881
 20
25.7500
 30
0.0000
 42
1.0000
  0
VERTEX
  8
1
 10
8.2119
 20
25.7500
 30
0.0000
  0
SEQEND
  8
0
  0
POLYLINE
  8
1
 66
1
 10
0.0000
 20
0.0000
 30
0.0000
 40
0.0762
 41
0.0762
 70
0
  0
VERTEX
  8
1
 10
8.2119
 20
16.5000
 30
0.0000
 42
1.0000
  0
VERTEX
  8
1
 10
8.2881
 20
16.5000
 30
0.0000
  0
SEQEND
  8
0
  0
POLYLINE
  8
1
 66
1
 10
0.0000
 20
0.0000
 30
0.0000
 40
0.1524
 41
0.1524
 70
0
  0
VERTEX
  8
1
 10
19.5000
 20
30.2500
 30
0.0000
  0
VERTEX
  8
1
 10
21.0000
 20
31.7500
 30
0.0000
  0
SEQEND
  8
0
  0
POLYLINE
  8
1
 66
1
 10
0.0000
 20
0.0000
 30
0.0000
 40
0.0762
 41
0.0762
 70
0
  0
VERTEX
  8
1
 10
21.0269
 20
31.7231
 30
0.0000
 42
1.0000
  0
VERTEX
  8
1
 10
20.9731
 20
31.7769
 30
0.0000
  0
SEQEND
  8
0
  0
POLYLINE
  8
1
 66
1
 10
0.0000
 20
0.0000
 30
0.0000
 40
0.0762
 41
0.0762
 70
0
  0
VERTEX
  8
1
 10
19.4731
 20
30.2769
 30
0.0000
 42
1.0000
  0
VERTEX
  8
1
 10
19.5269
 20
30.2231
 30
0.0000
  0
SEQEND
  8
0
  0
POLYLINE
  8
1
 66
1
 10
0.0000
 20
0.0000
 30
0.0000
 40
0.1524
 41
0.1524
 70
0
  0
VERTEX
  8
1
 10
21.0000
 20
31.7500
 30
0.0000
  0
VERTEX
  8
1
 10
21.0000
 20
38.0000
 30
0.0000
  0
SEQEND
  8
0
  0
POLYLINE
  8
1
 66
1
 10
0.0000
 20
0.0000
 30
0.0000
 40
0.0762
 41
0.0762
 70
0
  0
VERTEX
  8
1
 10
21.0381
 20
38.0000
 30
0.0000
 42
1.0000
  0
VERTEX
  8
1
 10
20.9619
 20
38.0000
 30
0.0000
  0
SEQEND
  8
0
  0
POLYLINE
  8
1
 66
1
 10
0.0000
 20
0.0000
 30
0.0000
 40
0.0762
 41
0.0762
 70
0
  0
VERTEX
  8
1
 10
20.9619
 20
31.7500
 30
0.0000
 42
1.0000
  0
VERTEX
  8
1
 10
21.0381
 20
31.7500
 30
0.0000
  0
SEQEND
  8
0
  0
POLYLINE
  8
1
 66
1
 10
0.0000
 20
0.0000
 30
0.0000
 40
0.1524
 41
0.1524
 70
0
  0
VERTEX
  8
1
 10
21.0000
 20
38.0000
 30
0.0000
  0
VERTEX
  8
1
 10
23.3565
 20
40.3565
 30
0.0000
  0
SEQEND
  8
0
  0
POLYLINE
  8
1
 66
1
 10
0.0000
 20
0.0000
 30
0.0000
 40
0.0762
 41
0.0762
 70
0
  0
VERTEX
  8
1
 10
23.3834
 20
40.3296
 30
0.0000
 42
1.0000
  0
VERTEX
  8
1
 10
23.3296
 20
40.3834
 30
0.0000
  0
SEQEND
  8
0
  0
POLYLINE
  8
1
 66
1
 10
0.0000
 20
0.0000
 30
0.0000
 40
0.0762
 41
0.0762
 70
0
  0
VERTEX
  8
1
 10
20.9731
 20
38.0269
 30
0.0000
 42
1.0000
  0
VERTEX
  8
1
 10
21.0269
 20
37.9731
 30
0.0000
  0
SEQEND
  8
0
  0
POLYLINE
  8
1
 66
1
 10
0.0000
 20
0.0000
 30
0.0000
 40
0.1524
 41
0.1524
 70
0
  0
VERTEX
  8
1
 10
23.3565
 20
40.3565
 30
0.0000
  0
VERTEX
  8
1
 10
33.5533
 20
40.3565
 30
0.0000
  0
SEQEND
  8
0
  0
POLYLINE
  8
1
 66
1
 10
0.0000
 20
0.0000
 30
0.0000
 40
0.0762
 41
0.0762
 70
0
  0
VERTEX
  8
1
 10
33.5533
 20
40.3184
 30
0.0000
 42
1.0000
  0
VERTEX
  8
1
 10
33.5533
 20
40.3946
 30
0.0000
  0
SEQEND
  8
0
  0
POLYLINE
  8
1
 66
1
 10
0.0000
 20
0.0000
 30
0.0000
 40
0.0762
 41
0.0762
 70
0
  0
VERTEX
  8
1
 10
23.3565
 20
40.3946
 30
0.0000
 42
1.0000
  0
VERTEX
  8
1
 10
23.3565
 20
40.3184
 30
0.0000
  0
SEQEND
  8
0
  0
POLYLINE
  8
1
 66
1
 10
0.0000
 20
0.0000
 30
0.0000
 40
0.1524
 41
0.1524
 70
0
  0
VERTEX
  8
1
 10
8.2500
 20
25.7500
 30
0.0000
  0
VERTEX
  8
1
 10
12.7500
 20
30.2500
 30
0.0000
  0
SEQEND
  8
0
  0
POLYLINE
  8
1
 66
1
 10
0.0000
 20
0.0000
 30
0.0000
 40
0.0762
 41
0.0762
 70
0
  0
VERTEX
  8
1
 10
12.7769
 20
30.2231
 30
0.0000
 42
1.0000
  0
VERTEX
  8
1
 10
12.7231
 20
30.2769
 30
0.0000
  0
SEQEND
  8
0
  0
POLYLINE
  8
1
 66
1
 10
0.0000
 20
0.0000
 30
0.0000
 40
0.0762
 41
0.0762
 70
0
  0
VERTEX
  8
1
 10
8.2231
 20
25.7769
 30
0.0000
 42
1.0000
  0
VERTEX
  8
1
 10
8.2769
 20
25.7231
 30
0.0000
  0
SEQEND
  8
0
  0
POLYLINE
  8
1
 66
1
 10
0.0000
 20
0.0000
 30
0.0000
 40
0.1524
 41
0.1524
 70
0
  0
VERTEX
  8
1
 10
12.7500
 20
30.2500
 30
0.0000
  0
VERTEX
  8
1
 10
19.5000
 20
30.2500
 30
0.0000
  0
SEQEND
  8
0
  0
POLYLINE
  8
1
 66
1
 10
0.0000
 20
0.0000
 30
0.0000
 40
0.0762
 41
0.0762
 70
0
  0
VERTEX
  8
1
 10
19.5000
 20
30.2119
 30
0.0000
 42
1.0000
  0
VERTEX
  8
1
 10
19.5000
 20
30.2881
 30
0.0000
  0
SEQEND
  8
0
  0
POLYLINE
  8
1
 66
1
 10
0.0000
 20
0.0000
 30
0.0000
 40
0.0762
 41
0.0762
 70
0
  0
VERTEX
  8
1
 10
12.7500
 20
30.2881
 30
0.0000
 42
1.0000
  0
VERTEX
  8
1
 10
12.7500
 20
30.2119
 30
0.0000
  0
SEQEND
  8
0
  0
POLYLINE
  8
1
 66
1
 10
0.0000
 20
0.0000
 30
0.0000
 40
0.1524
 41
0.1524
 70
0
  0
VERTEX
  8
1
 10
47.3897
 20
52.7482
 30
0.0000
  0
VERTEX
  8
1
 10
39.2518
 20
52.7482
 30
0.0000
  0
SEQEND
  8
0
  0
POLYLINE
  8
1
 66
1
 10
0.0000
 20
0.0000
 30
0.0000
 40
0.0762
 41
0.0762
 70
0
  0
VERTEX
  8
1
 10
39.2518
 20
52.7863
 30
0.0000
 42
1.0000
  0
VERTEX
  8
1
 10
39.2518
 20
52.7101
 30
0.0000
  0
SEQEND
  8
0
  0
POLYLINE
  8
1
 66
1
 10
0.0000
 20
0.0000
 30
0.0000
 40
0.0762
 41
0.0762
 70
0
  0
VERTEX
  8
1
 10
47.3897
 20
52.7101
 30
0.0000
 42
1.0000
  0
VERTEX
  8
1
 10
47.3897
 20
52.7863
 30
0.0000
  0
SEQEND
  8
0
  0
POLYLINE
  8
1
 66
1
 10
0.0000
 20
0.0000
 30
0.0000
 40
0.1524
 41
0.1524
 70
0
  0
VERTEX
  8
1
 10
37.2500
 20
54.7500
 30
0.0000
  0
VERTEX
  8
1
 10
37.2500
 20
56.5000
 30
0.0000
  0
SEQEND
  8
0
  0
POLYLINE
  8
1
 66
1
 10
0.0000
 20
0.0000
 30
0.0000
 40
0.0762
 41
0.0762
 70
0
  0
VERTEX
  8
1
 10
37.2881
 20
56.5000
 30
0.0000
 42
1.0000
  0
VERTEX
  8
1
 10
37.2119
 20
56.5000
 30
0.0000
  0
SEQEND
  8
0
  0
POLYLINE
  8
1
 66
1
 10
0.0000
 20
0.0000
 30
0.0000
 40
0.0762
 41
0.0762
 70
0
  0
VERTEX
  8
1
 10
37.2119
 20
54.7500
 30
0.0000
 42
1.0000
  0
VERTEX
  8
1
 10
37.2881
 20
54.7500
 30
0.0000
  0
SEQEND
  8
0
  0
POLYLINE
  8
1
 66
1
 10
0.0000
 20
0.0000
 30
0.0000
 40
0.1524
 41
0.1524
 70
0
  0
VERTEX
  8
1
 10
37.2500
 20
56.5000
 30
0.0000
  0
VERTEX
  8
1
 10
35.6135
 20
58.1365
 30
0.0000
  0
SEQEND
  8
0
  0
POLYLINE
  8
1
 66
1
 10
0.0000
 20
0.0000
 30
0.0000
 40
0.0762
 41
0.0762
 70
0
  0
VERTEX
  8
1
 10
35.6404
 20
58.1634
 30
0.0000
 42
1.0000
  0
VERTEX
  8
1
 10
35.5866
 20
58.1096
 30
0.0000
  0
SEQEND
  8
0
  0
POLYLINE
  8
1
 66
1
 10
0.0000
 20
0.0000
 30
0.0000
 40
0.0762
 41
0.0762
 70
0
  0
VERTEX
  8
1
 10
37.2231
 20
56.4731
 30
0.0000
 42
1.0000
  0
VERTEX
  8
1
 10
37.2769
 20
56.5269
 30
0.0000
  0
SEQEND
  8
0
  0
POLYLINE
  8
1
 66
1
 10
0.0000
 20
0.0000
 30
0.0000
 40
0.1524
 41
0.1524
 70
0
  0
VERTEX
  8
1
 10
35.6135
 20
58.1365
 30
0.0000
  0
VERTEX
  8
1
 10
33.5533
 20
58.1365
 30
0.0000
  0
SEQEND
  8
0
  0
POLYLINE
  8
1
 66
1
 10
0.0000
 20
0.0000
 30
0.0000
 40
0.0762
 41
0.0762
 70
0
  0
VERTEX
  8
1
 10
33.5533
 20
58.1746
 30
0.0000
 42
1.0000
  0
VERTEX
  8
1
 10
33.5533
 20
58.0984
 30
0.0000
  0
SEQEND
  8
0
  0
POLYLINE
  8
1
 66
1
 10
0.0000
 20
0.0000
 30
0.0000
 40
0.0762
 41
0.0762
 70
0
  0
VERTEX
  8
1
 10
35.6135
 20
58.0984
 30
0.0000
 42
1.0000
  0
VERTEX
  8
1
 10
35.6135
 20
58.1746
 30
0.0000
  0
SEQEND
  8
0
  0
POLYLINE
  8
1
 66
1
 10
0.0000
 20
0.0000
 30
0.0000
 40
0.1524
 41
0.1524
 70
0
  0
VERTEX
  8
1
 10
39.2518
 20
52.7482
 30
0.0000
  0
VERTEX
  8
1
 10
37.2500
 20
54.7500
 30
0.0000
  0
SEQEND
  8
0
  0
POLYLINE
  8
1
 66
1
 10
0.0000
 20
0.0000
 30
0.0000
 40
0.0762
 41
0.0762
 70
0
  0
VERTEX
  8
1
 10
37.2769
 20
54.7769
 30
0.0000
 42
1.0000
  0
VERTEX
  8
1
 10
37.2231
 20
54.7231
 30
0.0000
  0
SEQEND
  8
0
  0
POLYLINE
  8
1
 66
1
 10
0.0000
 20
0.0000
 30
0.0000
 40
0.0762
 41
0.0762
 70
0
  0
VERTEX
  8
1
 10
39.2249
 20
52.7213
 30
0.0000
 42
1.0000
  0
VERTEX
  8
1
 10
39.2787
 20
52.7751
 30
0.0000
  0
SEQEND
  8
0
  0
POLYLINE
  8
1
 66
1
 10
0.0000
 20
0.0000
 30
0.0000
 40
0.1524
 41
0.1524
 70
0
  0
VERTEX
  8
1
 10
8.6622
 20
61.6910
 30
0.0000
  0
VERTEX
  8
1
 10
8.6622
 20
63.6622
 30
0.0000
  0
SEQEND
  8
0
  0
POLYLINE
  8
1
 66
1
 10
0.0000
 20
0.0000
 30
0.0000
 40
0.0762
 41
0.0762
 70
0
  0
VERTEX
  8
1
 10
8.7003
 20
63.6622
 30
0.0000
 42
1.0000
  0
VERTEX
  8
1
 10
8.6241
 20
63.6622
 30
0.0000
  0
SEQEND
  8
0
  0
POLYLINE
  8
1
 66
1
 10
0.0000
 20
0.0000
 30
0.0000
 40
0.0762
 41
0.0762
 70
0
  0
VERTEX
  8
1
 10
8.6241
 20
61.6910
 30
0.0000
 42
1.0000
  0
VERTEX
  8
1
 10
8.7003
 20
61.6910
 30
0.0000
  0
SEQEND
  8
0
  0
POLYLINE
  8
1
 66
1
 10
0.0000
 20
0.0000
 30
0.0000
 40
0.1524
 41
0.1524
 70
0
  0
VERTEX
  8
1
 10
8.6622
 20
63.6622
 30
0.0000
  0
VERTEX
  8
1
 10
9.7500
 20
64.7500
 30
0.0000
  0
SEQEND
  8
0
  0
POLYLINE
  8
1
 66
1
 10
0.0000
 20
0.0000
 30
0.0000
 40
0.0762
 41
0.0762
 70
0
  0
VERTEX
  8
1
 10
9.7769
 20
64.7231
 30
0.0000
 42
1.0000
  0
VERTEX
  8
1
 10
9.7231
 20
64.7769
 30
0.0000
  0
SEQEND
  8
0
  0
POLYLINE
  8
1
 66
1
 10
0.0000
 20
0.0000
 30
0.0000
 40
0.0762
 41
0.0762
 70
0
  0
VERTEX
  8
1
 10
8.6353
 20
63.6891
 30
0.0000
 42
1.0000
  0
VERTEX
  8
1
 10
8.6891
 20
63.6353
 30
0.0000
  0
SEQEND
  8
0
  0
POLYLINE
  8
1
 66
1
 10
0.0000
 20
0.0000
 30
0.0000
 40
0.1524
 41
0.1524
 70
0
  0
VERTEX
  8
1
 10
9.7500
 20
64.7500
 30
0.0000
  0
VERTEX
  8
1
 10
15.2500
 20
64.7500
 30
0.0000
  0
SEQEND
  8
0
  0
POLYLINE
  8
1
 66
1
 10
0.0000
 20
0.0000
 30
0.0000
 40
0.0762
 41
0.0762
 70
0
  0
VERTEX
  8
1
 10
15.2500
 20
64.7119
 30
0.0000
 42
1.0000
  0
VERTEX
  8
1
 10
15.2500
 20
64.7881
 30
0.0000
  0
SEQEND
  8
0
  0
POLYLINE
  8
1
 66
1
 10
0.0000
 20
0.0000
 30
0.0000
 40
0.0762
 41
0.0762
 70
0
  0
VERTEX
  8
1
 10
9.7500
 20
64.7881
 30
0.0000
 42
1.0000
  0
VERTEX
  8
1
 10
9.7500
 20
64.7119
 30
0.0000
  0
SEQEND
  8
0
  0
POLYLINE
  8
1
 66
1
 10
0.0000
 20
0.0000
 30
0.0000
 40
0.1524
 41
0.1524
 70
0
  0
VERTEX
  8
1
 10
18.3133
 20
61.6867
 30
0.0000
  0
VERTEX
  8
1
 10
18.3133
 20
60.6765
 30
0.0000
  0
SEQEND
  8
0
  0
POLYLINE
  8
1
 66
1
 10
0.0000
 20
0.0000
 30
0.0000
 40
0.0762
 41
0.0762
 70
0
  0
VERTEX
  8
1
 10
18.2752
 20
60.6765
 30
0.0000
 42
1.0000
  0
VERTEX
  8
1
 10
18.3514
 20
60.6765
 30
0.0000
  0
SEQEND
  8
0
  0
POLYLINE
  8
1
 66
1
 10
0.0000
 20
0.0000
 30
0.0000
 40
0.0762
 41
0.0762
 70
0
  0
VERTEX
  8
1
 10
18.3514
 20
61.6867
 30
0.0000
 42
1.0000
  0
VERTEX
  8
1
 10
18.2752
 20
61.6867
 30
0.0000
  0
SEQEND
  8
0
  0
POLYLINE
  8
1
 66
1
 10
0.0000
 20
0.0000
 30
0.0000
 40
0.1524
 41
0.1524
 70
0
  0
VERTEX
  8
1
 10
15.2500
 20
64.7500
 30
0.0000
  0
VERTEX
  8
1
 10
18.3133
 20
61.6867
 30
0.0000
  0
SEQEND
  8
0
  0
POLYLINE
  8
1
 66
1
 10
0.0000
 20
0.0000
 30
0.0000
 40
0.0762
 41
0.0762
 70
0
  0
VERTEX
  8
1
 10
18.2864
 20
61.6598
 30
0.0000
 42
1.0000
  0
VERTEX
  8
1
 10
18.3402
 20
61.7136
 30
0.0000
  0
SEQEND
  8
0
  0
POLYLINE
  8
1
 66
1
 10
0.0000
 20
0.0000
 30
0.0000
 40
0.0762
 41
0.0762
 70
0
  0
VERTEX
  8
1
 10
15.2769
 20
64.7769
 30
0.0000
 42
1.0000
  0
VERTEX
  8
1
 10
15.2231
 20
64.7231
 30
0.0000
  0
SEQEND
  8
0
  0
POLYLINE
  8
1
 66
1
 10
0.0000
 20
0.0000
 30
0.0000
 40
0.1524
 41
0.1524
 70
0
  0
VERTEX
  8
1
 10
18.3133
 20
55.5965
 30
0.0000
  0
VERTEX
  8
1
 10
8.6622
 20
55.5965
 30
0.0000
  0
SEQEND
  8
0
  0
POLYLINE
  8
1
 66
1
 10
0.0000
 20
0.0000
 30
0.0000
 40
0.0762
 41
0.0762
 70
0
  0
VERTEX
  8
1
 10
8.6622
 20
55.6346
 30
0.0000
 42
1.0000
  0
VERTEX
  8
1
 10
8.6622
 20
55.5584
 30
0.0000
  0
SEQEND
  8
0
  0
POLYLINE
  8
1
 66
1
 10
0.0000
 20
0.0000
 30
0.0000
 40
0.0762
 41
0.0762
 70
0
  0
VERTEX
  8
1
 10
18.3133
 20
55.5584
 30
0.0000
 42
1.0000
  0
VERTEX
  8
1
 10
18.3133
 20
55.6346
 30
0.0000
  0
SEQEND
  8
0
  0
POLYLINE
  8
1
 66
1
 10
0.0000
 20
0.0000
 30
0.0000
 40
0.1524
 41
0.1524
 70
0
  0
VERTEX
  8
1
 10
8.6622
 20
55.5965
 30
0.0000
  0
VERTEX
  8
1
 10
8.6622
 20
53.0153
 30
0.0000
  0
SEQEND
  8
0
  0
POLYLINE
  8
1
 66
1
 10
0.0000
 20
0.0000
 30
0.0000
 40
0.0762
 41
0.0762
 70
0
  0
VERTEX
  8
1
 10
8.6241
 20
53.0153
 30
0.0000
 42
1.0000
  0
VERTEX
  8
1
 10
8.7003
 20
53.0153
 30
0.0000
  0
SEQEND
  8
0
  0
POLYLINE
  8
1
 66
1
 10
0.0000
 20
0.0000
 30
0.0000
 40
0.0762
 41
0.0762
 70
0
  0
VERTEX
  8
1
 10
8.7003
 20
55.5965
 30
0.0000
 42
1.0000
  0
VERTEX
  8
1
 10
8.6241
 20
55.5965
 30
0.0000
  0
SEQEND
  8
0
  0
POLYLINE
  8
1
 66
1
 10
0.0000
 20
0.0000
 30
0.0000
 40
0.1524
 41
0.1524
 70
0
  0
VERTEX
  8
1
 10
18.3133
 20
50.5165
 30
0.0000
  0
VERTEX
  8
1
 10
12.5165
 20
50.5165
 30
0.0000
  0
SEQEND
  8
0
  0
POLYLINE
  8
1
 66
1
 10
0.0000
 20
0.0000
 30
0.0000
 40
0.0762
 41
0.0762
 70
0
  0
VERTEX
  8
1
 10
12.5165
 20
50.5546
 30
0.0000
 42
1.0000
  0
VERTEX
  8
1
 10
12.5165
 20
50.4784
 30
0.0000
  0
SEQEND
  8
0
  0
POLYLINE
  8
1
 66
1
 10
0.0000
 20
0.0000
 30
0.0000
 40
0.0762
 41
0.0762
 70
0
  0
VERTEX
  8
1
 10
18.3133
 20
50.4784
 30
0.0000
 42
1.0000
  0
VERTEX
  8
1
 10
18.3133
 20
50.5546
 30
0.0000
  0
SEQEND
  8
0
  0
POLYLINE
  8
1
 66
1
 10
0.0000
 20
0.0000
 30
0.0000
 40
0.1524
 41
0.1524
 70
0
  0
VERTEX
  8
1
 10
8.6622
 20
46.6622
 30
0.0000
  0
VERTEX
  8
1
 10
8.6622
 20
43.5895
 30
0.0000
  0
SEQEND
  8
0
  0
POLYLINE
  8
1
 66
1
 10
0.0000
 20
0.0000
 30
0.0000
 40
0.0762
 41
0.0762
 70
0
  0
VERTEX
  8
1
 10
8.6241
 20
43.5895
 30
0.0000
 42
1.0000
  0
VERTEX
  8
1
 10
8.7003
 20
43.5895
 30
0.0000
  0
SEQEND
  8
0
  0
POLYLINE
  8
1
 66
1
 10
0.0000
 20
0.0000
 30
0.0000
 40
0.0762
 41
0.0762
 70
0
  0
VERTEX
  8
1
 10
8.7003
 20
46.6622
 30
0.0000
 42
1.0000
  0
VERTEX
  8
1
 10
8.6241
 20
46.6622
 30
0.0000
  0
SEQEND
  8
0
  0
POLYLINE
  8
1
 66
1
 10
0.0000
 20
0.0000
 30
0.0000
 40
0.1524
 41
0.1524
 70
0
  0
VERTEX
  8
1
 10
12.5165
 20
50.5165
 30
0.0000
  0
VERTEX
  8
1
 10
8.6622
 20
46.6622
 30
0.0000
  0
SEQEND
  8
0
  0
POLYLINE
  8
1
 66
1
 10
0.0000
 20
0.0000
 30
0.0000
 40
0.0762
 41
0.0762
 70
0
  0
VERTEX
  8
1
 10
8.6353
 20
46.6891
 30
0.0000
 42
1.0000
  0
VERTEX
  8
1
 10
8.6891
 20
46.6353
 30
0.0000
  0
SEQEND
  8
0
  0
POLYLINE
  8
1
 66
1
 10
0.0000
 20
0.0000
 30
0.0000
 40
0.0762
 41
0.0762
 70
0
  0
VERTEX
  8
1
 10
12.5434
 20
50.4896
 30
0.0000
 42
1.0000
  0
VERTEX
  8
1
 10
12.4896
 20
50.5434
 30
0.0000
  0
SEQEND
  8
0
  0
POLYLINE
  8
1
 66
1
 10
0.0000
 20
0.0000
 30
0.0000
 40
0.1524
 41
0.1524
 70
0
  0
VERTEX
  8
1
 10
18.3133
 20
45.4365
 30
0.0000
  0
VERTEX
  8
1
 10
18.1865
 20
45.4365
 30
0.0000
  0
SEQEND
  8
0
  0
POLYLINE
  8
1
 66
1
 10
0.0000
 20
0.0000
 30
0.0000
 40
0.0762
 41
0.0762
 70
0
  0
VERTEX
  8
1
 10
18.1865
 20
45.4746
 30
0.0000
 42
1.0000
  0
VERTEX
  8
1
 10
18.1865
 20
45.3984
 30
0.0000
  0
SEQEND
  8
0
  0
POLYLINE
  8
1
 66
1
 10
0.0000
 20
0.0000
 30
0.0000
 40
0.0762
 41
0.0762
 70
0
  0
VERTEX
  8
1
 10
18.3133
 20
45.3984
 30
0.0000
 42
1.0000
  0
VERTEX
  8
1
 10
18.3133
 20
45.4746
 30
0.0000
  0
SEQEND
  8
0
  0
POLYLINE
  8
1
 66
1
 10
0.0000
 20
0.0000
 30
0.0000
 40
0.1524
 41
0.1524
 70
0
  0
VERTEX
  8
1
 10
18.1865
 20
45.4365
 30
0.0000
  0
VERTEX
  8
1
 10
12.2500
 20
39.5000
 30
0.0000
  0
SEQEND
  8
0
  0
POLYLINE
  8
1
 66
1
 10
0.0000
 20
0.0000
 30
0.0000
 40
0.0762
 41
0.0762
 70
0
  0
VERTEX
  8
1
 10
12.2231
 20
39.5269
 30
0.0000
 42
1.0000
  0
VERTEX
  8
1
 10
12.2769
 20
39.4731
 30
0.0000
  0
SEQEND
  8
0
  0
POLYLINE
  8
1
 66
1
 10
0.0000
 20
0.0000
 30
0.0000
 40
0.0762
 41
0.0762
 70
0
  0
VERTEX
  8
1
 10
18.2134
 20
45.4096
 30
0.0000
 42
1.0000
  0
VERTEX
  8
1
 10
18.1596
 20
45.4634
 30
0.0000
  0
SEQEND
  8
0
  0
POLYLINE
  8
1
 66
1
 10
0.0000
 20
0.0000
 30
0.0000
 40
0.1524
 41
0.1524
 70
0
  0
VERTEX
  8
1
 10
12.2500
 20
39.5000
 30
0.0000
  0
VERTEX
  8
1
 10
10.2500
 20
39.5000
 30
0.0000
  0
SEQEND
  8
0
  0
POLYLINE
  8
1
 66
1
 10
0.0000
 20
0.0000
 30
0.0000
 40
0.0762
 41
0.0762
 70
0
  0
VERTEX
  8
1
 10
10.2500
 20
39.5381
 30
0.0000
 42
1.0000
  0
VERTEX
  8
1
 10
10.2500
 20
39.4619
 30
0.0000
  0
SEQEND
  8
0
  0
POLYLINE
  8
1
 66
1
 10
0.0000
 20
0.0000
 30
0.0000
 40
0.0762
 41
0.0762
 70
0
  0
VERTEX
  8
1
 10
12.2500
 20
39.4619
 30
0.0000
 42
1.0000
  0
VERTEX
  8
1
 10
12.2500
 20
39.5381
 30
0.0000
  0
SEQEND
  8
0
  0
POLYLINE
  8
1
 66
1
 10
0.0000
 20
0.0000
 30
0.0000
 40
0.1524
 41
0.1524
 70
0
  0
VERTEX
  8
1
 10
10.2500
 20
39.5000
 30
0.0000
  0
VERTEX
  8
1
 10
8.6622
 20
37.9122
 30
0.0000
  0
SEQEND
  8
0
  0
POLYLINE
  8
1
 66
1
 10
0.0000
 20
0.0000
 30
0.0000
 40
0.0762
 41
0.0762
 70
0
  0
VERTEX
  8
1
 10
8.6353
 20
37.9391
 30
0.0000
 42
1.0000
  0
VERTEX
  8
1
 10
8.6891
 20
37.8853
 30
0.0000
  0
SEQEND
  8
0
  0
POLYLINE
  8
1
 66
1
 10
0.0000
 20
0.0000
 30
0.0000
 40
0.0762
 41
0.0762
 70
0
  0
VERTEX
  8
1
 10
10.2769
 20
39.4731
 30
0.0000
 42
1.0000
  0
VERTEX
  8
1
 10
10.2231
 20
39.5269
 30
0.0000
  0
SEQEND
  8
0
  0
POLYLINE
  8
1
 66
1
 10
0.0000
 20
0.0000
 30
0.0000
 40
0.1524
 41
0.1524
 70
0
  0
VERTEX
  8
1
 10
8.6622
 20
37.9122
 30
0.0000
  0
VERTEX
  8
1
 10
8.6622
 20
32.6638
 30
0.0000
  0
SEQEND
  8
0
  0
POLYLINE
  8
1
 66
1
 10
0.0000
 20
0.0000
 30
0.0000
 40
0.0762
 41
0.0762
 70
0
  0
VERTEX
  8
1
 10
8.6241
 20
32.6638
 30
0.0000
 42
1.0000
  0
VERTEX
  8
1
 10
8.7003
 20
32.6638
 30
0.0000
  0
SEQEND
  8
0
  0
POLYLINE
  8
1
 66
1
 10
0.0000
 20
0.0000
 30
0.0000
 40
0.0762
 41
0.0762
 70
0
  0
VERTEX
  8
1
 10
8.7003
 20
37.9122
 30
0.0000
 42
1.0000
  0
VERTEX
  8
1
 10
8.6241
 20
37.9122
 30
0.0000
  0
SEQEND
  8
0
  0
POLYLINE
  8
1
 66
1
 10
0.0000
 20
0.0000
 30
0.0000
 40
0.1524
 41
0.1524
 70
0
  0
VERTEX
  8
1
 10
17.0793
 20
18.6076
 30
0.0000
  0
VERTEX
  8
1
 10
17.0793
 20
15.8293
 30
0.0000
  0
SEQEND
  8
0
  0
POLYLINE
  8
1
 66
1
 10
0.0000
 20
0.0000
 30
0.0000
 40
0.0762
 41
0.0762
 70
0
  0
VERTEX
  8
1
 10
17.0412
 20
15.8293
 30
0.0000
 42
1.0000
  0
VERTEX
  8
1
 10
17.1174
 20
15.8293
 30
0.0000
  0
SEQEND
  8
0
  0
POLYLINE
  8
1
 66
1
 10
0.0000
 20
0.0000
 30
0.0000
 40
0.0762
 41
0.0762
 70
0
  0
VERTEX
  8
1
 10
17.1174
 20
18.6076
 30
0.0000
 42
1.0000
  0
VERTEX
  8
1
 10
17.0412
 20
18.6076
 30
0.0000
  0
SEQEND
  8
0
  0
POLYLINE
  8
1
 66
1
 10
0.0000
 20
0.0000
 30
0.0000
 40
0.1524
 41
0.1524
 70
0
  0
VERTEX
  8
1
 10
17.0793
 20
15.8293
 30
0.0000
  0
VERTEX
  8
1
 10
15.7500
 20
14.5000
 30
0.0000
  0
SEQEND
  8
0
  0
POLYLINE
  8
1
 66
1
 10
0.0000
 20
0.0000
 30
0.0000
 40
0.0762
 41
0.0762
 70
0
  0
VERTEX
  8
1
 10
15.7231
 20
14.5269
 30
0.0000
 42
1.0000
  0
VERTEX
  8
1
 10
15.7769
 20
14.4731
 30
0.0000
  0
SEQEND
  8
0
  0
POLYLINE
  8
1
 66
1
 10
0.0000
 20
0.0000
 30
0.0000
 40
0.0762
 41
0.0762
 70
0
  0
VERTEX
  8
1
 10
17.1062
 20
15.8024
 30
0.0000
 42
1.0000
  0
VERTEX
  8
1
 10
17.0524
 20
15.8562
 30
0.0000
  0
SEQEND
  8
0
  0
POLYLINE
  8
1
 66
1
 10
0.0000
 20
0.0000
 30
0.0000
 40
0.1524
 41
0.1524
 70
0
  0
VERTEX
  8
1
 10
15.7500
 20
14.5000
 30
0.0000
  0
VERTEX
  8
1
 10
12.7500
 20
14.5000
 30
0.0000
  0
SEQEND
  8
0
  0
POLYLINE
  8
1
 66
1
 10
0.0000
 20
0.0000
 30
0.0000
 40
0.0762
 41
0.0762
 70
0
  0
VERTEX
  8
1
 10
12.7500
 20
14.5381
 30
0.0000
 42
1.0000
  0
VERTEX
  8
1
 10
12.7500
 20
14.4619
 30
0.0000
  0
SEQEND
  8
0
  0
POLYLINE
  8
1
 66
1
 10
0.0000
 20
0.0000
 30
0.0000
 40
0.0762
 41
0.0762
 70
0
  0
VERTEX
  8
1
 10
15.7500
 20
14.4619
 30
0.0000
 42
1.0000
  0
VERTEX
  8
1
 10
15.7500
 20
14.5381
 30
0.0000
  0
SEQEND
  8
0
  0
POLYLINE
  8
1
 66
1
 10
0.0000
 20
0.0000
 30
0.0000
 40
0.1524
 41
0.1524
 70
0
  0
VERTEX
  8
1
 10
12.7500
 20
14.5000
 30
0.0000
  0
VERTEX
  8
1
 10
10.0000
 20
17.2500
 30
0.0000
  0
SEQEND
  8
0
  0
POLYLINE
  8
1
 66
1
 10
0.0000
 20
0.0000
 30
0.0000
 40
0.0762
 41
0.0762
 70
0
  0
VERTEX
  8
1
 10
10.0269
 20
17.2769
 30
0.0000
 42
1.0000
  0
VERTEX
  8
1
 10
9.9731
 20
17.2231
 30
0.0000
  0
SEQEND
  8
0
  0
POLYLINE
  8
1
 66
1
 10
0.0000
 20
0.0000
 30
0.0000
 40
0.0762
 41
0.0762
 70
0
  0
VERTEX
  8
1
 10
12.7231
 20
14.4731
 30
0.0000
 42
1.0000
  0
VERTEX
  8
1
 10
12.7769
 20
14.5269
 30
0.0000
  0
SEQEND
  8
0
  0
POLYLINE
  8
1
 66
1
 10
0.0000
 20
0.0000
 30
0.0000
 40
0.1524
 41
0.1524
 70
0
  0
VERTEX
  8
1
 10
10.0000
 20
17.2500
 30
0.0000
  0
VERTEX
  8
1
 10
10.0000
 20
25.2500
 30
0.0000
  0
SEQEND
  8
0
  0
POLYLINE
  8
1
 66
1
 10
0.0000
 20
0.0000
 30
0.0000
 40
0.0762
 41
0.0762
 70
0
  0
VERTEX
  8
1
 10
10.0381
 20
25.2500
 30
0.0000
 42
1.0000
  0
VERTEX
  8
1
 10
9.9619
 20
25.2500
 30
0.0000
  0
SEQEND
  8
0
  0
POLYLINE
  8
1
 66
1
 10
0.0000
 20
0.0000
 30
0.0000
 40
0.0762
 41
0.0762
 70
0
  0
VERTEX
  8
1
 10
9.9619
 20
17.2500
 30
0.0000
 42
1.0000
  0
VERTEX
  8
1
 10
10.0381
 20
17.2500
 30
0.0000
  0
SEQEND
  8
0
  0
POLYLINE
  8
1
 66
1
 10
0.0000
 20
0.0000
 30
0.0000
 40
0.1524
 41
0.1524
 70
0
  0
VERTEX
  8
1
 10
13.2500
 20
28.5000
 30
0.0000
  0
VERTEX
  8
1
 10
21.2500
 20
28.5000
 30
0.0000
  0
SEQEND
  8
0
  0
POLYLINE
  8
1
 66
1
 10
0.0000
 20
0.0000
 30
0.0000
 40
0.0762
 41
0.0762
 70
0
  0
VERTEX
  8
1
 10
21.2500
 20
28.4619
 30
0.0000
 42
1.0000
  0
VERTEX
  8
1
 10
21.2500
 20
28.5381
 30
0.0000
  0
SEQEND
  8
0
  0
POLYLINE
  8
1
 66
1
 10
0.0000
 20
0.0000
 30
0.0000
 40
0.0762
 41
0.0762
 70
0
  0
VERTEX
  8
1
 10
13.2500
 20
28.5381
 30
0.0000
 42
1.0000
  0
VERTEX
  8
1
 10
13.2500
 20
28.4619
 30
0.0000
  0
SEQEND
  8
0
  0
POLYLINE
  8
1
 66
1
 10
0.0000
 20
0.0000
 30
0.0000
 40
0.1524
 41
0.1524
 70
0
  0
VERTEX
  8
1
 10
21.2500
 20
28.5000
 30
0.0000
  0
VERTEX
  8
1
 10
23.0000
 20
30.2500
 30
0.0000
  0
SEQEND
  8
0
  0
POLYLINE
  8
1
 66
1
 10
0.0000
 20
0.0000
 30
0.0000
 40
0.0762
 41
0.0762
 70
0
  0
VERTEX
  8
1
 10
23.0269
 20
30.2231
 30
0.0000
 42
1.0000
  0
VERTEX
  8
1
 10
22.9731
 20
30.2769
 30
0.0000
  0
SEQEND
  8
0
  0
POLYLINE
  8
1
 66
1
 10
0.0000
 20
0.0000
 30
0.0000
 40
0.0762
 41
0.0762
 70
0
  0
VERTEX
  8
1
 10
21.2231
 20
28.5269
 30
0.0000
 42
1.0000
  0
VERTEX
  8
1
 10
21.2769
 20
28.4731
 30
0.0000
  0
SEQEND
  8
0
  0
POLYLINE
  8
1
 66
1
 10
0.0000
 20
0.0000
 30
0.0000
 40
0.1524
 41
0.1524
 70
0
  0
VERTEX
  8
1
 10
23.0000
 20
30.2500
 30
0.0000
  0
VERTEX
  8
1
 10
23.0000
 20
36.3165
 30
0.0000
  0
SEQEND
  8
0
  0
POLYLINE
  8
1
 66
1
 10
0.0000
 20
0.0000
 30
0.0000
 40
0.0762
 41
0.0762
 70
0
  0
VERTEX
  8
1
 10
23.0381
 20
36.3165
 30
0.0000
 42
1.0000
  0
VERTEX
  8
1
 10
22.9619
 20
36.3165
 30
0.0000
  0
SEQEND
  8
0
  0
POLYLINE
  8
1
 66
1
 10
0.0000
 20
0.0000
 30
0.0000
 40
0.0762
 41
0.0762
 70
0
  0
VERTEX
  8
1
 10
22.9619
 20
30.2500
 30
0.0000
 42
1.0000
  0
VERTEX
  8
1
 10
23.0381
 20
30.2500
 30
0.0000
  0
SEQEND
  8
0
  0
POLYLINE
  8
1
 66
1
 10
0.0000
 20
0.0000
 30
0.0000
 40
0.1524
 41
0.1524
 70
0
  0
VERTEX
  8
1
 10
24.5000
 20
37.8165
 30
0.0000
  0
VERTEX
  8
1
 10
23.0000
 20
36.3165
 30
0.0000
  0
SEQEND
  8
0
  0
POLYLINE
  8
1
 66
1
 10
0.0000
 20
0.0000
 30
0.0000
 40
0.0762
 41
0.0762
 70
0
  0
VERTEX
  8
1
 10
22.9731
 20
36.3434
 30
0.0000
 42
1.0000
  0
VERTEX
  8
1
 10
23.0269
 20
36.2896
 30
0.0000
  0
SEQEND
  8
0
  0
POLYLINE
  8
1
 66
1
 10
0.0000
 20
0.0000
 30
0.0000
 40
0.0762
 41
0.0762
 70
0
  0
VERTEX
  8
1
 10
24.5269
 20
37.7896
 30
0.0000
 42
1.0000
  0
VERTEX
  8
1
 10
24.4731
 20
37.8434
 30
0.0000
  0
SEQEND
  8
0
  0
POLYLINE
  8
1
 66
1
 10
0.0000
 20
0.0000
 30
0.0000
 40
0.1524
 41
0.1524
 70
0
  0
VERTEX
  8
1
 10
24.5000
 20
37.8165
 30
0.0000
  0
VERTEX
  8
1
 10
33.5533
 20
37.8165
 30
0.0000
  0
SEQEND
  8
0
  0
POLYLINE
  8
1
 66
1
 10
0.0000
 20
0.0000
 30
0.0000
 40
0.0762
 41
0.0762
 70
0
  0
VERTEX
  8
1
 10
33.5533
 20
37.7784
 30
0.0000
 42
1.0000
  0
VERTEX
  8
1
 10
33.5533
 20
37.8546
 30
0.0000
  0
SEQEND
  8
0
  0
POLYLINE
  8
1
 66
1
 10
0.0000
 20
0.0000
 30
0.0000
 40
0.0762
 41
0.0762
 70
0
  0
VERTEX
  8
1
 10
24.5000
 20
37.8546
 30
0.0000
 42
1.0000
  0
VERTEX
  8
1
 10
24.5000
 20
37.7784
 30
0.0000
  0
SEQEND
  8
0
  0
POLYLINE
  8
1
 66
1
 10
0.0000
 20
0.0000
 30
0.0000
 40
0.1524
 41
0.1524
 70
0
  0
VERTEX
  8
1
 10
10.0000
 20
25.2500
 30
0.0000
  0
VERTEX
  8
1
 10
13.2500
 20
28.5000
 30
0.0000
  0
SEQEND
  8
0
  0
POLYLINE
  8
1
 66
1
 10
0.0000
 20
0.0000
 30
0.0000
 40
0.0762
 41
0.0762
 70
0
  0
VERTEX
  8
1
 10
13.2769
 20
28.4731
 30
0.0000
 42
1.0000
  0
VERTEX
  8
1
 10
13.2231
 20
28.5269
 30
0.0000
  0
SEQEND
  8
0
  0
POLYLINE
  8
1
 66
1
 10
0.0000
 20
0.0000
 30
0.0000
 40
0.0762
 41
0.0762
 70
0
  0
VERTEX
  8
1
 10
9.9731
 20
25.2769
 30
0.0000
 42
1.0000
  0
VERTEX
  8
1
 10
10.0269
 20
25.2231
 30
0.0000
  0
SEQEND
  8
0
  0
POLYLINE
  8
1
 66
1
 10
0.0000
 20
0.0000
 30
0.0000
 40
0.1524
 41
0.1524
 70
0
  0
VERTEX
  8
1
 10
22.1593
 20
21.1476
 30
0.0000
  0
VERTEX
  8
1
 10
22.1593
 20
23.9093
 30
0.0000
  0
SEQEND
  8
0
  0
POLYLINE
  8
1
 66
1
 10
0.0000
 20
0.0000
 30
0.0000
 40
0.0762
 41
0.0762
 70
0
  0
VERTEX
  8
1
 10
22.1974
 20
23.9093
 30
0.0000
 42
1.0000
  0
VERTEX
  8
1
 10
22.1212
 20
23.9093
 30
0.0000
  0
SEQEND
  8
0
  0
POLYLINE
  8
1
 66
1
 10
0.0000
 20
0.0000
 30
0.0000
 40
0.0762
 41
0.0762
 70
0
  0
VERTEX
  8
1
 10
22.1212
 20
21.1476
 30
0.0000
 42
1.0000
  0
VERTEX
  8
1
 10
22.1974
 20
21.1476
 30
0.0000
  0
SEQEND
  8
0
  0
POLYLINE
  8
1
 66
1
 10
0.0000
 20
0.0000
 30
0.0000
 40
0.1524
 41
0.1524
 70
0
  0
VERTEX
  8
1
 10
22.1593
 20
23.9093
 30
0.0000
  0
VERTEX
  8
1
 10
24.0000
 20
25.7500
 30
0.0000
  0
SEQEND
  8
0
  0
POLYLINE
  8
1
 66
1
 10
0.0000
 20
0.0000
 30
0.0000
 40
0.0762
 41
0.0762
 70
0
  0
VERTEX
  8
1
 10
24.0269
 20
25.7231
 30
0.0000
 42
1.0000
  0
VERTEX
  8
1
 10
23.9731
 20
25.7769
 30
0.0000
  0
SEQEND
  8
0
  0
POLYLINE
  8
1
 66
1
 10
0.0000
 20
0.0000
 30
0.0000
 40
0.0762
 41
0.0762
 70
0
  0
VERTEX
  8
1
 10
22.1324
 20
23.9362
 30
0.0000
 42
1.0000
  0
VERTEX
  8
1
 10
22.1862
 20
23.8824
 30
0.0000
  0
SEQEND
  8
0
  0
POLYLINE
  8
1
 66
1
 10
0.0000
 20
0.0000
 30
0.0000
 40
0.1524
 41
0.1524
 70
0
  0
VERTEX
  8
1
 10
33.7500
 20
25.7500
 30
0.0000
  0
VERTEX
  8
1
 10
24.0000
 20
25.7500
 30
0.0000
  0
SEQEND
  8
0
  0
POLYLINE
  8
1
 66
1
 10
0.0000
 20
0.0000
 30
0.0000
 40
0.0762
 41
0.0762
 70
0
  0
VERTEX
  8
1
 10
24.0000
 20
25.7881
 30
0.0000
 42
1.0000
  0
VERTEX
  8
1
 10
24.0000
 20
25.7119
 30
0.0000
  0
SEQEND
  8
0
  0
POLYLINE
  8
1
 66
1
 10
0.0000
 20
0.0000
 30
0.0000
 40
0.0762
 41
0.0762
 70
0
  0
VERTEX
  8
1
 10
33.7500
 20
25.7119
 30
0.0000
 42
1.0000
  0
VERTEX
  8
1
 10
33.7500
 20
25.7881
 30
0.0000
  0
SEQEND
  8
0
  0
POLYLINE
  8
1
 66
1
 10
0.0000
 20
0.0000
 30
0.0000
 40
0.1524
 41
0.1524
 70
0
  0
VERTEX
  8
1
 10
47.3897
 20
50.2082
 30
0.0000
  0
VERTEX
  8
1
 10
42.9582
 20
50.2082
 30
0.0000
  0
SEQEND
  8
0
  0
POLYLINE
  8
1
 66
1
 10
0.0000
 20
0.0000
 30
0.0000
 40
0.0762
 41
0.0762
 70
0
  0
VERTEX
  8
1
 10
42.9582
 20
50.2463
 30
0.0000
 42
1.0000
  0
VERTEX
  8
1
 10
42.9582
 20
50.1701
 30
0.0000
  0
SEQEND
  8
0
  0
POLYLINE
  8
1
 66
1
 10
0.0000
 20
0.0000
 30
0.0000
 40
0.0762
 41
0.0762
 70
0
  0
VERTEX
  8
1
 10
47.3897
 20
50.1701
 30
0.0000
 42
1.0000
  0
VERTEX
  8
1
 10
47.3897
 20
50.2463
 30
0.0000
  0
SEQEND
  8
0
  0
POLYLINE
  8
1
 66
1
 10
0.0000
 20
0.0000
 30
0.0000
 40
0.1524
 41
0.1524
 70
0
  0
VERTEX
  8
1
 10
42.9582
 20
50.2082
 30
0.0000
  0
VERTEX
  8
1
 10
41.2500
 20
48.5000
 30
0.0000
  0
SEQEND
  8
0
  0
POLYLINE
  8
1
 66
1
 10
0.0000
 20
0.0000
 30
0.0000
 40
0.0762
 41
0.0762
 70
0
  0
VERTEX
  8
1
 10
41.2231
 20
48.5269
 30
0.0000
 42
1.0000
  0
VERTEX
  8
1
 10
41.2769
 20
48.4731
 30
0.0000
  0
SEQEND
  8
0
  0
POLYLINE
  8
1
 66
1
 10
0.0000
 20
0.0000
 30
0.0000
 40
0.0762
 41
0.0762
 70
0
  0
VERTEX
  8
1
 10
42.9851
 20
50.1813
 30
0.0000
 42
1.0000
  0
VERTEX
  8
1
 10
42.9313
 20
50.2351
 30
0.0000
  0
SEQEND
  8
0
  0
POLYLINE
  8
1
 66
1
 10
0.0000
 20
0.0000
 30
0.0000
 40
0.1524
 41
0.1524
 70
0
  0
VERTEX
  8
1
 10
41.2500
 20
48.5000
 30
0.0000
  0
VERTEX
  8
1
 10
41.2500
 20
33.2500
 30
0.0000
  0
SEQEND
  8
0
  0
POLYLINE
  8
1
 66
1
 10
0.0000
 20
0.0000
 30
0.0000
 40
0.0762
 41
0.0762
 70
0
  0
VERTEX
  8
1
 10
41.2119
 20
33.2500
 30
0.0000
 42
1.0000
  0
VERTEX
  8
1
 10
41.2881
 20
33.2500
 30
0.0000
  0
SEQEND
  8
0
  0
POLYLINE
  8
1
 66
1
 10
0.0000
 20
0.0000
 30
0.0000
 40
0.0762
 41
0.0762
 70
0
  0
VERTEX
  8
1
 10
41.2881
 20
48.5000
 30
0.0000
 42
1.0000
  0
VERTEX
  8
1
 10
41.2119
 20
48.5000
 30
0.0000
  0
SEQEND
  8
0
  0
POLYLINE
  8
1
 66
1
 10
0.0000
 20
0.0000
 30
0.0000
 40
0.1524
 41
0.1524
 70
0
  0
VERTEX
  8
1
 10
41.2500
 20
33.2500
 30
0.0000
  0
VERTEX
  8
1
 10
33.7500
 20
25.7500
 30
0.0000
  0
SEQEND
  8
0
  0
POLYLINE
  8
1
 66
1
 10
0.0000
 20
0.0000
 30
0.0000
 40
0.0762
 41
0.0762
 70
0
  0
VERTEX
  8
1
 10
33.7231
 20
25.7769
 30
0.0000
 42
1.0000
  0
VERTEX
  8
1
 10
33.7769
 20
25.7231
 30
0.0000
  0
SEQEND
  8
0
  0
POLYLINE
  8
1
 66
1
 10
0.0000
 20
0.0000
 30
0.0000
 40
0.0762
 41
0.0762
 70
0
  0
VERTEX
  8
1
 10
41.2769
 20
33.2231
 30
0.0000
 42
1.0000
  0
VERTEX
  8
1
 10
41.2231
 20
33.2769
 30
0.0000
  0
SEQEND
  8
0
  0
POLYLINE
  8
1
 66
1
 10
0.0000
 20
0.0000
 30
0.0000
 40
0.1524
 41
0.1524
 70
0
  0
VERTEX
  8
1
 10
3.5822
 20
43.8395
 30
0.0000
  0
VERTEX
  8
1
 10
3.7109
 20
43.7109
 30
0.0000
  0
SEQEND
  8
0
  0
POLYLINE
  8
1
 66
1
 10
0.0000
 20
0.0000
 30
0.0000
 40
0.0762
 41
0.0762
 70
0
  0
VERTEX
  8
1
 10
3.6839
 20
43.6839
 30
0.0000
 42
1.0000
  0
VERTEX
  8
1
 10
3.7378
 20
43.7378
 30
0.0000
  0
SEQEND
  8
0
  0
POLYLINE
  8
1
 66
1
 10
0.0000
 20
0.0000
 30
0.0000
 40
0.0762
 41
0.0762
 70
0
  0
VERTEX
  8
1
 10
3.6091
 20
43.8665
 30
0.0000
 42
1.0000
  0
VERTEX
  8
1
 10
3.5553
 20
43.8126
 30
0.0000
  0
SEQEND
  8
0
  0
POLYLINE
  8
1
 66
1
 10
0.0000
 20
0.0000
 30
0.0000
 40
0.1524
 41
0.1524
 70
0
  0
VERTEX
  8
1
 10
14.5393
 20
21.1476
 30
0.0000
  0
VERTEX
  8
1
 10
14.5393
 20
25.7893
 30
0.0000
  0
SEQEND
  8
0
  0
POLYLINE
  8
1
 66
1
 10
0.0000
 20
0.0000
 30
0.0000
 40
0.0762
 41
0.0762
 70
0
  0
VERTEX
  8
1
 10
14.5774
 20
25.7893
 30
0.0000
 42
1.0000
  0
VERTEX
  8
1
 10
14.5012
 20
25.7893
 30
0.0000
  0
SEQEND
  8
0
  0
POLYLINE
  8
1
 66
1
 10
0.0000
 20
0.0000
 30
0.0000
 40
0.0762
 41
0.0762
 70
0
  0
VERTEX
  8
1
 10
14.5012
 20
21.1476
 30
0.0000
 42
1.0000
  0
VERTEX
  8
1
 10
14.5774
 20
21.1476
 30
0.0000
  0
SEQEND
  8
0
  0
POLYLINE
  8
1
 66
1
 10
0.0000
 20
0.0000
 30
0.0000
 40
0.1524
 41
0.1524
 70
0
  0
VERTEX
  8
1
 10
14.5393
 20
25.7893
 30
0.0000
  0
VERTEX
  8
1
 10
15.7500
 20
27.0000
 30
0.0000
  0
SEQEND
  8
0
  0
POLYLINE
  8
1
 66
1
 10
0.0000
 20
0.0000
 30
0.0000
 40
0.0762
 41
0.0762
 70
0
  0
VERTEX
  8
1
 10
15.7769
 20
26.9731
 30
0.0000
 42
1.0000
  0
VERTEX
  8
1
 10
15.7231
 20
27.0269
 30
0.0000
  0
SEQEND
  8
0
  0
POLYLINE
  8
1
 66
1
 10
0.0000
 20
0.0000
 30
0.0000
 40
0.0762
 41
0.0762
 70
0
  0
VERTEX
  8
1
 10
14.5124
 20
25.8162
 30
0.0000
 42
1.0000
  0
VERTEX
  8
1
 10
14.5662
 20
25.7624
 30
0.0000
  0
SEQEND
  8
0
  0
POLYLINE
  8
1
 66
1
 10
0.0000
 20
0.0000
 30
0.0000
 40
0.1524
 41
0.1524
 70
0
  0
VERTEX
  8
1
 10
15.7500
 20
27.0000
 30
0.0000
  0
VERTEX
  8
1
 10
24.5000
 20
27.0000
 30
0.0000
  0
SEQEND
  8
0
  0
POLYLINE
  8
1
 66
1
 10
0.0000
 20
0.0000
 30
0.0000
 40
0.0762
 41
0.0762
 70
0
  0
VERTEX
  8
1
 10
24.5000
 20
26.9619
 30
0.0000
 42
1.0000
  0
VERTEX
  8
1
 10
24.5000
 20
27.0381
 30
0.0000
  0
SEQEND
  8
0
  0
POLYLINE
  8
1
 66
1
 10
0.0000
 20
0.0000
 30
0.0000
 40
0.0762
 41
0.0762
 70
0
  0
VERTEX
  8
1
 10
15.7500
 20
27.0381
 30
0.0000
 42
1.0000
  0
VERTEX
  8
1
 10
15.7500
 20
26.9619
 30
0.0000
  0
SEQEND
  8
0
  0
POLYLINE
  8
1
 66
1
 10
0.0000
 20
0.0000
 30
0.0000
 40
0.1524
 41
0.1524
 70
0
  0
VERTEX
  8
1
 10
33.5533
 20
32.7365
 30
0.0000
  0
VERTEX
  8
1
 10
30.2365
 20
32.7365
 30
0.0000
  0
SEQEND
  8
0
  0
POLYLINE
  8
1
 66
1
 10
0.0000
 20
0.0000
 30
0.0000
 40
0.0762
 41
0.0762
 70
0
  0
VERTEX
  8
1
 10
30.2365
 20
32.7746
 30
0.0000
 42
1.0000
  0
VERTEX
  8
1
 10
30.2365
 20
32.6984
 30
0.0000
  0
SEQEND
  8
0
  0
POLYLINE
  8
1
 66
1
 10
0.0000
 20
0.0000
 30
0.0000
 40
0.0762
 41
0.0762
 70
0
  0
VERTEX
  8
1
 10
33.5533
 20
32.6984
 30
0.0000
 42
1.0000
  0
VERTEX
  8
1
 10
33.5533
 20
32.7746
 30
0.0000
  0
SEQEND
  8
0
  0
POLYLINE
  8
1
 66
1
 10
0.0000
 20
0.0000
 30
0.0000
 40
0.1524
 41
0.1524
 70
0
  0
VERTEX
  8
1
 10
30.2365
 20
32.7365
 30
0.0000
  0
VERTEX
  8
1
 10
24.5000
 20
27.0000
 30
0.0000
  0
SEQEND
  8
0
  0
POLYLINE
  8
1
 66
1
 10
0.0000
 20
0.0000
 30
0.0000
 40
0.0762
 41
0.0762
 70
0
  0
VERTEX
  8
1
 10
24.4731
 20
27.0269
 30
0.0000
 42
1.0000
  0
VERTEX
  8
1
 10
24.5269
 20
26.9731
 30
0.0000
  0
SEQEND
  8
0
  0
POLYLINE
  8
1
 66
1
 10
0.0000
 20
0.0000
 30
0.0000
 40
0.0762
 41
0.0762
 70
0
  0
VERTEX
  8
1
 10
30.2634
 20
32.7096
 30
0.0000
 42
1.0000
  0
VERTEX
  8
1
 10
30.2096
 20
32.7634
 30
0.0000
  0
SEQEND
  8
0
  0
POLYLINE
  8
1
 66
1
 10
0.0000
 20
0.0000
 30
0.0000
 40
0.2540
 41
0.2540
 70
0
  0
VERTEX
  8
1
 10
3.7035
 20
43.7109
 30
0.0000
  0
VERTEX
  8
1
 10
3.5822
 20
43.5895
 30
0.0000
  0
SEQEND
  8
0
  0
POLYLINE
  8
1
 66
1
 10
0.0000
 20
0.0000
 30
0.0000
 40
0.1270
 41
0.1270
 70
0
  0
VERTEX
  8
1
 10
3.5373
 20
43.6344
 30
0.0000
 42
1.0000
  0
VERTEX
  8
1
 10
3.6271
 20
43.5446
 30
0.0000
  0
SEQEND
  8
0
  0
POLYLINE
  8
1
 66
1
 10
0.0000
 20
0.0000
 30
0.0000
 40
0.1270
 41
0.1270
 70
0
  0
VERTEX
  8
1
 10
3.7484
 20
43.6660
 30
0.0000
 42
1.0000
  0
VERTEX
  8
1
 10
3.6586
 20
43.7558
 30
0.0000
  0
SEQEND
  8
0
  0
POLYLINE
  8
1
 66
1
 10
0.0000
 20
0.0000
 30
0.0000
 40
0.2540
 41
0.2540
 70
0
  0
VERTEX
  8
1
 10
3.7035
 20
43.7109
 30
0.0000
  0
VERTEX
  8
1
 10
3.7109
 20
43.7109
 30
0.0000
  0
SEQEND
  8
0
  0
POLYLINE
  8
1
 66
1
 10
0.0000
 20
0.0000
 30
0.0000
 40
0.1270
 41
0.1270
 70
0
  0
VERTEX
  8
1
 10
3.7109
 20
43.6474
 30
0.0000
 42
1.0000
  0
VERTEX
  8
1
 10
3.7109
 20
43.7744
 30
0.0000
  0
SEQEND
  8
0
  0
POLYLINE
  8
1
 66
1
 10
0.0000
 20
0.0000
 30
0.0000
 40
0.1270
 41
0.1270
 70
0
  0
VERTEX
  8
1
 10
3.7035
 20
43.7744
 30
0.0000
 42
1.0000
  0
VERTEX
  8
1
 10
3.7035
 20
43.6474
 30
0.0000
  0
SEQEND
  8
0
  0
POLYLINE
  8
1
 66
1
 10
0.0000
 20
0.0000
 30
0.0000
 40
0.2540
 41
0.2540
 70
0
  0
VERTEX
  8
1
 10
3.5822
 20
53.0153
 30
0.0000
  0
VERTEX
  8
1
 10
3.5822
 20
43.8395
 30
0.0000
  0
SEQEND
  8
0
  0
POLYLINE
  8
1
 66
1
 10
0.0000
 20
0.0000
 30
0.0000
 40
0.1270
 41
0.1270
 70
0
  0
VERTEX
  8
1
 10
3.5187
 20
43.8395
 30
0.0000
 42
1.0000
  0
VERTEX
  8
1
 10
3.6457
 20
43.8395
 30
0.0000
  0
SEQEND
  8
0
  0
POLYLINE
  8
1
 66
1
 10
0.0000
 20
0.0000
 30
0.0000
 40
0.1270
 41
0.1270
 70
0
  0
VERTEX
  8
1
 10
3.6457
 20
53.0153
 30
0.0000
 42
1.0000
  0
VERTEX
  8
1
 10
3.5187
 20
53.0153
 30
0.0000
  0
SEQEND
  8
0
  0
POLYLINE
  8
1
 66
1
 10
0.0000
 20
0.0000
 30
0.0000
 40
0.2540
 41
0.2540
 70
0
  0
VERTEX
  8
1
 10
3.5822
 20
43.8395
 30
0.0000
  0
VERTEX
  8
1
 10
3.5822
 20
43.5895
 30
0.0000
  0
SEQEND
  8
0
  0
POLYLINE
  8
1
 66
1
 10
0.0000
 20
0.0000
 30
0.0000
 40
0.1270
 41
0.1270
 70
0
  0
VERTEX
  8
1
 10
3.5187
 20
43.5895
 30
0.0000
 42
1.0000
  0
VERTEX
  8
1
 10
3.6457
 20
43.5895
 30
0.0000
  0
SEQEND
  8
0
  0
POLYLINE
  8
1
 66
1
 10
0.0000
 20
0.0000
 30
0.0000
 40
0.1270
 41
0.1270
 70
0
  0
VERTEX
  8
1
 10
3.6457
 20
43.8395
 30
0.0000
 42
1.0000
  0
VERTEX
  8
1
 10
3.5187
 20
43.8395
 30
0.0000
  0
SEQEND
  8
0
  0
POLYLINE
  8
1
 66
1
 10
0.0000
 20
0.0000
 30
0.0000
 40
0.2540
 41
0.2540
 70
0
  0
VERTEX
  8
1
 10
3.5822
 20
43.5895
 30
0.0000
  0
VERTEX
  8
1
 10
3.5822
 20
32.6638
 30
0.0000
  0
SEQEND
  8
0
  0
POLYLINE
  8
1
 66
1
 10
0.0000
 20
0.0000
 30
0.0000
 40
0.1270
 41
0.1270
 70
0
  0
VERTEX
  8
1
 10
3.5187
 20
32.6638
 30
0.0000
 42
1.0000
  0
VERTEX
  8
1
 10
3.6457
 20
32.6638
 30
0.0000
  0
SEQEND
  8
0
  0
POLYLINE
  8
1
 66
1
 10
0.0000
 20
0.0000
 30
0.0000
 40
0.1270
 41
0.1270
 70
0
  0
VERTEX
  8
1
 10
3.6457
 20
43.5895
 30
0.0000
 42
1.0000
  0
VERTEX
  8
1
 10
3.5187
 20
43.5895
 30
0.0000
  0
SEQEND
  8
0
  0
POLYLINE
  8
1
 66
1
 10
0.0000
 20
0.0000
 30
0.0000
 40
0.2540
 41
0.2540
 70
0
  0
VERTEX
  8
1
 10
3.5822
 20
53.0153
 30
0.0000
  0
VERTEX
  8
1
 10
3.5822
 20
61.6678
 30
0.0000
  0
SEQEND
  8
0
  0
POLYLINE
  8
1
 66
1
 10
0.0000
 20
0.0000
 30
0.0000
 40
0.1270
 41
0.1270
 70
0
  0
VERTEX
  8
1
 10
3.6457
 20
61.6678
 30
0.0000
 42
1.0000
  0
VERTEX
  8
1
 10
3.5187
 20
61.6678
 30
0.0000
  0
SEQEND
  8
0
  0
POLYLINE
  8
1
 66
1
 10
0.0000
 20
0.0000
 30
0.0000
 40
0.1270
 41
0.1270
 70
0
  0
VERTEX
  8
1
 10
3.5187
 20
53.0153
 30
0.0000
 42
1.0000
  0
VERTEX
  8
1
 10
3.6457
 20
53.0153
 30
0.0000
  0
SEQEND
  8
0
  0
POLYLINE
  8
1
 66
1
 10
0.0000
 20
0.0000
 30
0.0000
 40
0.2540
 41
0.2540
 70
0
  0
VERTEX
  8
1
 10
3.5822
 20
61.6910
 30
0.0000
  0
VERTEX
  8
1
 10
3.5822
 20
65.8322
 30
0.0000
  0
SEQEND
  8
0
  0
POLYLINE
  8
1
 66
1
 10
0.0000
 20
0.0000
 30
0.0000
 40
0.1270
 41
0.1270
 70
0
  0
VERTEX
  8
1
 10
3.6457
 20
65.8322
 30
0.0000
 42
1.0000
  0
VERTEX
  8
1
 10
3.5187
 20
65.8322
 30
0.0000
  0
SEQEND
  8
0
  0
POLYLINE
  8
1
 66
1
 10
0.0000
 20
0.0000
 30
0.0000
 40
0.1270
 41
0.1270
 70
0
  0
VERTEX
  8
1
 10
3.5187
 20
61.6910
 30
0.0000
 42
1.0000
  0
VERTEX
  8
1
 10
3.6457
 20
61.6910
 30
0.0000
  0
SEQEND
  8
0
  0
POLYLINE
  8
1
 66
1
 10
0.0000
 20
0.0000
 30
0.0000
 40
0.2540
 41
0.2540
 70
0
  0
VERTEX
  8
1
 10
3.5822
 20
65.8322
 30
0.0000
  0
VERTEX
  8
1
 10
6.5000
 20
68.7500
 30
0.0000
  0
SEQEND
  8
0
  0
POLYLINE
  8
1
 66
1
 10
0.0000
 20
0.0000
 30
0.0000
 40
0.1270
 41
0.1270
 70
0
  0
VERTEX
  8
1
 10
6.5449
 20
68.7051
 30
0.0000
 42
1.0000
  0
VERTEX
  8
1
 10
6.4551
 20
68.7949
 30
0.0000
  0
SEQEND
  8
0
  0
POLYLINE
  8
1
 66
1
 10
0.0000
 20
0.0000
 30
0.0000
 40
0.1270
 41
0.1270
 70
0
  0
VERTEX
  8
1
 10
3.5373
 20
65.8771
 30
0.0000
 42
1.0000
  0
VERTEX
  8
1
 10
3.6271
 20
65.7873
 30
0.0000
  0
SEQEND
  8
0
  0
POLYLINE
  8
1
 66
1
 10
0.0000
 20
0.0000
 30
0.0000
 40
0.2540
 41
0.2540
 70
0
  0
VERTEX
  8
1
 10
6.5000
 20
68.7500
 30
0.0000
  0
VERTEX
  8
1
 10
54.5000
 20
68.7500
 30
0.0000
  0
SEQEND
  8
0
  0
POLYLINE
  8
1
 66
1
 10
0.0000
 20
0.0000
 30
0.0000
 40
0.1270
 41
0.1270
 70
0
  0
VERTEX
  8
1
 10
54.5000
 20
68.6865
 30
0.0000
 42
1.0000
  0
VERTEX
  8
1
 10
54.5000
 20
68.8135
 30
0.0000
  0
SEQEND
  8
0
  0
POLYLINE
  8
1
 66
1
 10
0.0000
 20
0.0000
 30
0.0000
 40
0.1270
 41
0.1270
 70
0
  0
VERTEX
  8
1
 10
6.5000
 20
68.8135
 30
0.0000
 42
1.0000
  0
VERTEX
  8
1
 10
6.5000
 20
68.6865
 30
0.0000
  0
SEQEND
  8
0
  0
POLYLINE
  8
1
 66
1
 10
0.0000
 20
0.0000
 30
0.0000
 40
0.2540
 41
0.2540
 70
0
  0
VERTEX
  8
1
 10
54.5000
 20
68.7500
 30
0.0000
  0
VERTEX
  8
1
 10
59.7500
 20
63.5000
 30
0.0000
  0
SEQEND
  8
0
  0
POLYLINE
  8
1
 66
1
 10
0.0000
 20
0.0000
 30
0.0000
 40
0.1270
 41
0.1270
 70
0
  0
VERTEX
  8
1
 10
59.7051
 20
63.4551
 30
0.0000
 42
1.0000
  0
VERTEX
  8
1
 10
59.7949
 20
63.5449
 30
0.0000
  0
SEQEND
  8
0
  0
POLYLINE
  8
1
 66
1
 10
0.0000
 20
0.0000
 30
0.0000
 40
0.1270
 41
0.1270
 70
0
  0
VERTEX
  8
1
 10
54.5449
 20
68.7949
 30
0.0000
 42
1.0000
  0
VERTEX
  8
1
 10
54.4551
 20
68.7051
 30
0.0000
  0
SEQEND
  8
0
  0
POLYLINE
  8
1
 66
1
 10
0.0000
 20
0.0000
 30
0.0000
 40
0.2540
 41
0.2540
 70
0
  0
VERTEX
  8
1
 10
59.7500
 20
63.5000
 30
0.0000
  0
VERTEX
  8
1
 10
59.7500
 20
60.0000
 30
0.0000
  0
SEQEND
  8
0
  0
POLYLINE
  8
1
 66
1
 10
0.0000
 20
0.0000
 30
0.0000
 40
0.1270
 41
0.1270
 70
0
  0
VERTEX
  8
1
 10
59.6865
 20
60.0000
 30
0.0000
 42
1.0000
  0
VERTEX
  8
1
 10
59.8135
 20
60.0000
 30
0.0000
  0
SEQEND
  8
0
  0
POLYLINE
  8
1
 66
1
 10
0.0000
 20
0.0000
 30
0.0000
 40
0.1270
 41
0.1270
 70
0
  0
VERTEX
  8
1
 10
59.8135
 20
63.5000
 30
0.0000
 42
1.0000
  0
VERTEX
  8
1
 10
59.6865
 20
63.5000
 30
0.0000
  0
SEQEND
  8
0
  0
POLYLINE
  8
1
 66
1
 10
0.0000
 20
0.0000
 30
0.0000
 40
0.2540
 41
0.2540
 70
0
  0
VERTEX
  8
1
 10
59.7500
 20
60.0000
 30
0.0000
  0
VERTEX
  8
1
 10
63.3361
 20
56.4139
 30
0.0000
  0
SEQEND
  8
0
  0
POLYLINE
  8
1
 66
1
 10
0.0000
 20
0.0000
 30
0.0000
 40
0.1270
 41
0.1270
 70
0
  0
VERTEX
  8
1
 10
63.2912
 20
56.3690
 30
0.0000
 42
1.0000
  0
VERTEX
  8
1
 10
63.3810
 20
56.4588
 30
0.0000
  0
SEQEND
  8
0
  0
POLYLINE
  8
1
 66
1
 10
0.0000
 20
0.0000
 30
0.0000
 40
0.1270
 41
0.1270
 70
0
  0
VERTEX
  8
1
 10
59.7949
 20
60.0449
 30
0.0000
 42
1.0000
  0
VERTEX
  8
1
 10
59.7051
 20
59.9551
 30
0.0000
  0
SEQEND
  8
0
  0
POLYLINE
  8
1
 66
1
 10
0.0000
 20
0.0000
 30
0.0000
 40
0.2540
 41
0.2540
 70
0
  0
VERTEX
  8
1
 10
63.3361
 20
56.4139
 30
0.0000
  0
VERTEX
  8
1
 10
63.5000
 20
56.4139
 30
0.0000
  0
SEQEND
  8
0
  0
POLYLINE
  8
1
 66
1
 10
0.0000
 20
0.0000
 30
0.0000
 40
0.1270
 41
0.1270
 70
0
  0
VERTEX
  8
1
 10
63.5000
 20
56.3504
 30
0.0000
 42
1.0000
  0
VERTEX
  8
1
 10
63.5000
 20
56.4774
 30
0.0000
  0
SEQEND
  8
0
  0
POLYLINE
  8
1
 66
1
 10
0.0000
 20
0.0000
 30
0.0000
 40
0.1270
 41
0.1270
 70
0
  0
VERTEX
  8
1
 10
63.3361
 20
56.4774
 30
0.0000
 42
1.0000
  0
VERTEX
  8
1
 10
63.3361
 20
56.3504
 30
0.0000
  0
SEQEND
  8
0
  0
POLYLINE
  8
1
 66
1
 10
0.0000
 20
0.0000
 30
0.0000
 40
0.2540
 41
0.2540
 70
0
  0
VERTEX
  8
1
 10
63.5000
 20
56.4139
 30
0.0000
  0
VERTEX
  8
1
 10
68.6090
 20
56.4139
 30
0.0000
  0
SEQEND
  8
0
  0
POLYLINE
  8
1
 66
1
 10
0.0000
 20
0.0000
 30
0.0000
 40
0.1270
 41
0.1270
 70
0
  0
VERTEX
  8
1
 10
68.6090
 20
56.3504
 30
0.0000
 42
1.0000
  0
VERTEX
  8
1
 10
68.6090
 20
56.4774
 30
0.0000
  0
SEQEND
  8
0
  0
POLYLINE
  8
1
 66
1
 10
0.0000
 20
0.0000
 30
0.0000
 40
0.1270
 41
0.1270
 70
0
  0
VERTEX
  8
1
 10
63.5000
 20
56.4774
 30
0.0000
 42
1.0000
  0
VERTEX
  8
1
 10
63.5000
 20
56.3504
 30
0.0000
  0
SEQEND
  8
0
  0
POLYLINE
  8
1
 66
1
 10
0.0000
 20
0.0000
 30
0.0000
 40
0.2540
 41
0.2540
 70
0
  0
VERTEX
  8
1
 10
63.5000
 20
56.4139
 30
0.0000
  0
VERTEX
  8
1
 10
63.5000
 20
46.5000
 30
0.0000
  0
SEQEND
  8
0
  0
POLYLINE
  8
1
 66
1
 10
0.0000
 20
0.0000
 30
0.0000
 40
0.1270
 41
0.1270
 70
0
  0
VERTEX
  8
1
 10
63.4365
 20
46.5000
 30
0.0000
 42
1.0000
  0
VERTEX
  8
1
 10
63.5635
 20
46.5000
 30
0.0000
  0
SEQEND
  8
0
  0
POLYLINE
  8
1
 66
1
 10
0.0000
 20
0.0000
 30
0.0000
 40
0.1270
 41
0.1270
 70
0
  0
VERTEX
  8
1
 10
63.5635
 20
56.4139
 30
0.0000
 42
1.0000
  0
VERTEX
  8
1
 10
63.4365
 20
56.4139
 30
0.0000
  0
SEQEND
  8
0
  0
POLYLINE
  8
1
 66
1
 10
0.0000
 20
0.0000
 30
0.0000
 40
0.2540
 41
0.2540
 70
0
  0
VERTEX
  8
1
 10
63.5000
 20
46.5000
 30
0.0000
  0
VERTEX
  8
1
 10
59.5882
 20
42.5882
 30
0.0000
  0
SEQEND
  8
0
  0
POLYLINE
  8
1
 66
1
 10
0.0000
 20
0.0000
 30
0.0000
 40
0.1270
 41
0.1270
 70
0
  0
VERTEX
  8
1
 10
59.5433
 20
42.6331
 30
0.0000
 42
1.0000
  0
VERTEX
  8
1
 10
59.6331
 20
42.5433
 30
0.0000
  0
SEQEND
  8
0
  0
POLYLINE
  8
1
 66
1
 10
0.0000
 20
0.0000
 30
0.0000
 40
0.1270
 41
0.1270
 70
0
  0
VERTEX
  8
1
 10
63.5449
 20
46.4551
 30
0.0000
 42
1.0000
  0
VERTEX
  8
1
 10
63.4551
 20
46.5449
 30
0.0000
  0
SEQEND
  8
0
  0
POLYLINE
  8
1
 66
1
 10
0.0000
 20
0.0000
 30
0.0000
 40
0.2540
 41
0.2540
 70
0
  0
VERTEX
  8
1
 10
59.5882
 20
42.5882
 30
0.0000
  0
VERTEX
  8
1
 10
47.3897
 20
42.5882
 30
0.0000
  0
SEQEND
  8
0
  0
POLYLINE
  8
1
 66
1
 10
0.0000
 20
0.0000
 30
0.0000
 40
0.1270
 41
0.1270
 70
0
  0
VERTEX
  8
1
 10
47.3897
 20
42.6517
 30
0.0000
 42
1.0000
  0
VERTEX
  8
1
 10
47.3897
 20
42.5247
 30
0.0000
  0
SEQEND
  8
0
  0
POLYLINE
  8
1
 66
1
 10
0.0000
 20
0.0000
 30
0.0000
 40
0.1270
 41
0.1270
 70
0
  0
VERTEX
  8
1
 10
59.5882
 20
42.5247
 30
0.0000
 42
1.0000
  0
VERTEX
  8
1
 10
59.5882
 20
42.6517
 30
0.0000
  0
SEQEND
  8
0
  0
POLYLINE
  8
1
 66
1
 10
0.0000
 20
0.0000
 30
0.0000
 40
0.1524
 41
0.1524
 70
0
  0
VERTEX
  8
1
 10
47.3897
 20
42.5882
 30
0.0000
  0
VERTEX
  8
1
 10
45.5882
 20
42.5882
 30
0.0000
  0
SEQEND
  8
0
  0
POLYLINE
  8
1
 66
1
 10
0.0000
 20
0.0000
 30
0.0000
 40
0.0762
 41
0.0762
 70
0
  0
VERTEX
  8
1
 10
45.5882
 20
42.6263
 30
0.0000
 42
1.0000
  0
VERTEX
  8
1
 10
45.5882
 20
42.5501
 30
0.0000
  0
SEQEND
  8
0
  0
POLYLINE
  8
1
 66
1
 10
0.0000
 20
0.0000
 30
0.0000
 40
0.0762
 41
0.0762
 70
0
  0
VERTEX
  8
1
 10
47.3897
 20
42.5501
 30
0.0000
 42
1.0000
  0
VERTEX
  8
1
 10
47.3897
 20
42.6263
 30
0.0000
  0
SEQEND
  8
0
  0
POLYLINE
  8
1
 66
1
 10
0.0000
 20
0.0000
 30
0.0000
 40
0.1524
 41
0.1524
 70
0
  0
VERTEX
  8
1
 10
45.5882
 20
42.5882
 30
0.0000
  0
VERTEX
  8
1
 10
45.0000
 20
42.0000
 30
0.0000
  0
SEQEND
  8
0
  0
POLYLINE
  8
1
 66
1
 10
0.0000
 20
0.0000
 30
0.0000
 40
0.0762
 41
0.0762
 70
0
  0
VERTEX
  8
1
 10
44.9731
 20
42.0269
 30
0.0000
 42
1.0000
  0
VERTEX
  8
1
 10
45.0269
 20
41.9731
 30
0.0000
  0
SEQEND
  8
0
  0
POLYLINE
  8
1
 66
1
 10
0.0000
 20
0.0000
 30
0.0000
 40
0.0762
 41
0.0762
 70
0
  0
VERTEX
  8
1
 10
45.6151
 20
42.5613
 30
0.0000
 42
1.0000
  0
VERTEX
  8
1
 10
45.5613
 20
42.6151
 30
0.0000
  0
SEQEND
  8
0
  0
POLYLINE
  8
1
 66
1
 10
0.0000
 20
0.0000
 30
0.0000
 40
0.1524
 41
0.1524
 70
0
  0
VERTEX
  8
1
 10
45.0000
 20
42.0000
 30
0.0000
  0
VERTEX
  8
1
 10
44.2500
 20
41.2500
 30
0.0000
  0
SEQEND
  8
0
  0
POLYLINE
  8
1
 66
1
 10
0.0000
 20
0.0000
 30
0.0000
 40
0.0762
 41
0.0762
 70
0
  0
VERTEX
  8
1
 10
44.2231
 20
41.2769
 30
0.0000
 42
1.0000
  0
VERTEX
  8
1
 10
44.2769
 20
41.2231
 30
0.0000
  0
SEQEND
  8
0
  0
POLYLINE
  8
1
 66
1
 10
0.0000
 20
0.0000
 30
0.0000
 40
0.0762
 41
0.0762
 70
0
  0
VERTEX
  8
1
 10
45.0269
 20
41.9731
 30
0.0000
 42
1.0000
  0
VERTEX
  8
1
 10
44.9731
 20
42.0269
 30
0.0000
  0
SEQEND
  8
0
  0
POLYLINE
  8
1
 66
1
 10
0.0000
 20
0.0000
 30
0.0000
 40
0.1524
 41
0.1524
 70
0
  0
VERTEX
  8
1
 10
44.2500
 20
41.2500
 30
0.0000
  0
VERTEX
  8
1
 10
44.2500
 20
33.7500
 30
0.0000
  0
SEQEND
  8
0
  0
POLYLINE
  8
1
 66
1
 10
0.0000
 20
0.0000
 30
0.0000
 40
0.0762
 41
0.0762
 70
0
  0
VERTEX
  8
1
 10
44.2119
 20
33.7500
 30
0.0000
 42
1.0000
  0
VERTEX
  8
1
 10
44.2881
 20
33.7500
 30
0.0000
  0
SEQEND
  8
0
  0
POLYLINE
  8
1
 66
1
 10
0.0000
 20
0.0000
 30
0.0000
 40
0.0762
 41
0.0762
 70
0
  0
VERTEX
  8
1
 10
44.2881
 20
41.2500
 30
0.0000
 42
1.0000
  0
VERTEX
  8
1
 10
44.2119
 20
41.2500
 30
0.0000
  0
SEQEND
  8
0
  0
POLYLINE
  8
1
 66
1
 10
0.0000
 20
0.0000
 30
0.0000
 40
0.1524
 41
0.1524
 70
0
  0
VERTEX
  8
1
 10
44.2500
 20
33.7500
 30
0.0000
  0
VERTEX
  8
1
 10
45.2500
 20
32.7500
 30
0.0000
  0
SEQEND
  8
0
  0
POLYLINE
  8
1
 66
1
 10
0.0000
 20
0.0000
 30
0.0000
 40
0.0762
 41
0.0762
 70
0
  0
VERTEX
  8
1
 10
45.2231
 20
32.7231
 30
0.0000
 42
1.0000
  0
VERTEX
  8
1
 10
45.2769
 20
32.7769
 30
0.0000
  0
SEQEND
  8
0
  0
POLYLINE
  8
1
 66
1
 10
0.0000
 20
0.0000
 30
0.0000
 40
0.0762
 41
0.0762
 70
0
  0
VERTEX
  8
1
 10
44.2769
 20
33.7769
 30
0.0000
 42
1.0000
  0
VERTEX
  8
1
 10
44.2231
 20
33.7231
 30
0.0000
  0
SEQEND
  8
0
  0
ENDSEC
  0
EOF
