  0
SECTION
  2
HEADER
  9
$ACADVER
  1
AC1009
  9
$FILLMODE
 70
1
  9
$EXTMIN
 10
0.0000
 20
0.0000
 30
0.0000
  9
$EXTMAX
 10
127.5875
 20
71.7443
 30
0.0000
  0
ENDSEC
  0
SECTION
  2
TABLES
  0
TABLE
  2
LTYPE
 70
1
  0
LTYPE
  2
CONTINUOUS
 70
64
  3
Solid line
 72
65
 73
0
 40
0
  0
ENDTAB
  0
TABLE
  2
LAYER
 70
255
  0
LAYER
  2
1
 70
64
 62
12
  6
CONTINUOUS
  0
LAYER
  2
17
 70
64
 62
110
  6
CONTINUOUS
  0
ENDTAB
  0
ENDSEC
  0
SECTION
  2
BLOCKS
  0
BLOCK
  8
0
  2
RECT
 70
64
 10
0.0000
 20
0.0000
 30
0.0000
  3
RECT
  0
SOLID
  8
0
 10
-0.5000
 20
-0.5000
 30
0.0000
 11
0.5000
 21
-0.5000
 31
0.0000
 12
-0.5000
 22
0.5000
 32
0.0000
 13
0.5000
 23
0.5000
 33
0.0000
  0
ENDBLK
  8
0
  0
BLOCK
  8
0
  2
PIE
 70
64
 10
0.0000
 20
0.0000
 30
0.0000
  3
PIE
  0
POLYLINE
  8
0
 66
1
 10
0.0000
 20
0.0000
 30
0.0000
 40
0.5000
 41
0.5000
 70
0
  0
VERTEX
  8
0
 10
0.0000
 20
-0.2500
 30
0.0000
 42
1.0000
  0
VERTEX
  8
0
 10
0.0000
 20
0.2500
 30
0.0000
 42
1.0000
  0
VERTEX
  8
0
 10
0.0000
 20
-0.2500
 30
0.0000
  0
SEQEND
  8
0
  0
ENDBLK
  8
0
  0
BLOCK
  8
0
  2
OCTAGONP
 70
64
 10
0.0000
 20
0.0000
 30
0.0000
  3
OCTAGONP
  0
POLYLINE
  8
0
 66
1
 10
0.0000
 20
0.0000
 30
0.0000
 40
0.5000
 41
0.5000
 70
0
  0
VERTEX
  8
0
 10
-0.2500
 20
-0.1036
 30
0.0000
  0
VERTEX
  8
0
 10
-0.2500
 20
0.1036
 30
0.0000
  0
VERTEX
  8
0
 10
-0.1036
 20
0.2500
 30
0.0000
  0
VERTEX
  8
0
 10
0.1036
 20
0.2500
 30
0.0000
  0
VERTEX
  8
0
 10
0.2500
 20
0.1036
 30
0.0000
  0
VERTEX
  8
0
 10
0.2500
 20
-0.1036
 30
0.0000
  0
VERTEX
  8
0
 10
0.1036
 20
-0.2500
 30
0.0000
  0
VERTEX
  8
0
 10
-0.1036
 20
-0.2500
 30
0.0000
  0
VERTEX
  8
0
 10
-0.2500
 20
-0.1036
 30
0.0000
  0
VERTEX
  8
0
 10
-0.2500
 20
0.1036
 30
0.0000
  0
SEQEND
  8
0
  0
ENDBLK
  8
0
  0
BLOCK
  8
0
  2
SQUAREP
 70
64
 10
0.0000
 20
0.0000
 30
0.0000
  3
SQUAREP
  0
SOLID
  8
0
 10
-0.5000
 20
-0.5000
 30
0.0000
 11
0.5000
 21
-0.5000
 31
0.0000
 12
-0.5000
 22
0.5000
 32
0.0000
 13
0.5000
 23
0.5000
 33
0.0000
  0
ENDBLK
  8
0
  0
BLOCK
  8
0
  2
ROUNDP
 70
64
 10
0.0000
 20
0.0000
 30
0.0000
  3
ROUNDP
  0
POLYLINE
  8
0
 66
1
 10
0.0000
 20
0.0000
 30
0.0000
 40
0.5000
 41
0.5000
 70
0
  0
VERTEX
  8
0
 10
0.0000
 20
-0.2500
 30
0.0000
 42
1.0000
  0
VERTEX
  8
0
 10
0.0000
 20
0.2500
 30
0.0000
 42
1.0000
  0
VERTEX
  8
0
 10
0.0000
 20
-0.2500
 30
0.0000
  0
SEQEND
  8
0
  0
ENDBLK
  8
0
  0
BLOCK
  8
0
  2
ANNULUSP
 70
64
 10
0.0000
 20
0.0000
 30
0.0000
  3
ANNULUSP
  0
POLYLINE
  8
0
 66
1
 10
0.0000
 20
0.0000
 30
0.0000
 40
0.5000
 41
0.5000
 70
0
  0
VERTEX
  8
0
 10
0.0000
 20
-0.2500
 30
0.0000
 42
1.0000
  0
VERTEX
  8
0
 10
0.0000
 20
0.2500
 30
0.0000
 42
1.0000
  0
VERTEX
  8
0
 10
0.0000
 20
-0.2500
 30
0.0000
  0
SEQEND
  8
0
  0
ENDBLK
  8
0
  0
BLOCK
  8
0
  2
THERMALP
 70
64
 10
0.0000
 20
0.0000
 30
0.0000
  3
THERMALP
  0
POLYLINE
  8
0
 66
1
 10
0.0000
 20
0.0000
 30
0.0000
 40
0.1000
 41
0.1000
 70
0
  0
VERTEX
  8
0
 10
-0.2379
 20
0.4500
 30
0.0000
  0
VERTEX
  8
0
 10
0.2379
 20
0.4500
 30
0.0000
  0
SEQEND
  8
0
  0
POLYLINE
  8
0
 66
1
 10
0.0000
 20
0.0000
 30
0.0000
 40
0.0500
 41
0.0500
 70
0
  0
VERTEX
  8
0
 10
0.2379
 20
0.4250
 30
0.0000
 42
1.0000
  0
VERTEX
  8
0
 10
0.2379
 20
0.4750
 30
0.0000
  0
SEQEND
  8
0
  0
POLYLINE
  8
0
 66
1
 10
0.0000
 20
0.0000
 30
0.0000
 40
0.0500
 41
0.0500
 70
0
  0
VERTEX
  8
0
 10
-0.2379
 20
0.4750
 30
0.0000
 42
1.0000
  0
VERTEX
  8
0
 10
-0.2379
 20
0.4250
 30
0.0000
  0
SEQEND
  8
0
  0
POLYLINE
  8
0
 66
1
 10
0.0000
 20
0.0000
 30
0.0000
 40
0.1000
 41
0.1000
 70
0
  0
VERTEX
  8
0
 10
0.4500
 20
0.2379
 30
0.0000
  0
VERTEX
  8
0
 10
0.4500
 20
-0.2379
 30
0.0000
  0
SEQEND
  8
0
  0
POLYLINE
  8
0
 66
1
 10
0.0000
 20
0.0000
 30
0.0000
 40
0.0500
 41
0.0500
 70
0
  0
VERTEX
  8
0
 10
0.4250
 20
-0.2379
 30
0.0000
 42
1.0000
  0
VERTEX
  8
0
 10
0.4750
 20
-0.2379
 30
0.0000
  0
SEQEND
  8
0
  0
POLYLINE
  8
0
 66
1
 10
0.0000
 20
0.0000
 30
0.0000
 40
0.0500
 41
0.0500
 70
0
  0
VERTEX
  8
0
 10
0.4750
 20
0.2379
 30
0.0000
 42
1.0000
  0
VERTEX
  8
0
 10
0.4250
 20
0.2379
 30
0.0000
  0
SEQEND
  8
0
  0
POLYLINE
  8
0
 66
1
 10
0.0000
 20
0.0000
 30
0.0000
 40
0.1000
 41
0.1000
 70
0
  0
VERTEX
  8
0
 10
0.2379
 20
-0.4500
 30
0.0000
  0
VERTEX
  8
0
 10
-0.2379
 20
-0.4500
 30
0.0000
  0
SEQEND
  8
0
  0
POLYLINE
  8
0
 66
1
 10
0.0000
 20
0.0000
 30
0.0000
 40
0.0500
 41
0.0500
 70
0
  0
VERTEX
  8
0
 10
-0.2379
 20
-0.4250
 30
0.0000
 42
1.0000
  0
VERTEX
  8
0
 10
-0.2379
 20
-0.4750
 30
0.0000
  0
SEQEND
  8
0
  0
POLYLINE
  8
0
 66
1
 10
0.0000
 20
0.0000
 30
0.0000
 40
0.0500
 41
0.0500
 70
0
  0
VERTEX
  8
0
 10
0.2379
 20
-0.4750
 30
0.0000
 42
1.0000
  0
VERTEX
  8
0
 10
0.2379
 20
-0.4250
 30
0.0000
  0
SEQEND
  8
0
  0
POLYLINE
  8
0
 66
1
 10
0.0000
 20
0.0000
 30
0.0000
 40
0.1000
 41
0.1000
 70
0
  0
VERTEX
  8
0
 10
-0.4500
 20
-0.2379
 30
0.0000
  0
VERTEX
  8
0
 10
-0.4500
 20
0.2379
 30
0.0000
  0
SEQEND
  8
0
  0
POLYLINE
  8
0
 66
1
 10
0.0000
 20
0.0000
 30
0.0000
 40
0.0500
 41
0.0500
 70
0
  0
VERTEX
  8
0
 10
-0.4250
 20
0.2379
 30
0.0000
 42
1.0000
  0
VERTEX
  8
0
 10
-0.4750
 20
0.2379
 30
0.0000
  0
SEQEND
  8
0
  0
POLYLINE
  8
0
 66
1
 10
0.0000
 20
0.0000
 30
0.0000
 40
0.0500
 41
0.0500
 70
0
  0
VERTEX
  8
0
 10
-0.4750
 20
-0.2379
 30
0.0000
 42
1.0000
  0
VERTEX
  8
0
 10
-0.4250
 20
-0.2379
 30
0.0000
  0
SEQEND
  8
0
  0
ENDBLK
  8
0
  0
BLOCK
  8
0
  2
OCTAGONV
 70
64
 10
0.0000
 20
0.0000
 30
0.0000
  3
OCTAGONV
  0
POLYLINE
  8
0
 66
1
 10
0.0000
 20
0.0000
 30
0.0000
 40
0.5000
 41
0.5000
 70
0
  0
VERTEX
  8
0
 10
-0.2500
 20
-0.1036
 30
0.0000
  0
VERTEX
  8
0
 10
-0.2500
 20
0.1036
 30
0.0000
  0
VERTEX
  8
0
 10
-0.1036
 20
0.2500
 30
0.0000
  0
VERTEX
  8
0
 10
0.1036
 20
0.2500
 30
0.0000
  0
VERTEX
  8
0
 10
0.2500
 20
0.1036
 30
0.0000
  0
VERTEX
  8
0
 10
0.2500
 20
-0.1036
 30
0.0000
  0
VERTEX
  8
0
 10
0.1036
 20
-0.2500
 30
0.0000
  0
VERTEX
  8
0
 10
-0.1036
 20
-0.2500
 30
0.0000
  0
VERTEX
  8
0
 10
-0.2500
 20
-0.1036
 30
0.0000
  0
VERTEX
  8
0
 10
-0.2500
 20
0.1036
 30
0.0000
  0
SEQEND
  8
0
  0
ENDBLK
  8
0
  0
BLOCK
  8
0
  2
SQUAREV
 70
64
 10
0.0000
 20
0.0000
 30
0.0000
  3
SQUAREV
  0
SOLID
  8
0
 10
-0.5000
 20
-0.5000
 30
0.0000
 11
0.5000
 21
-0.5000
 31
0.0000
 12
-0.5000
 22
0.5000
 32
0.0000
 13
0.5000
 23
0.5000
 33
0.0000
  0
ENDBLK
  8
0
  0
BLOCK
  8
0
  2
ROUNDV
 70
64
 10
0.0000
 20
0.0000
 30
0.0000
  3
ROUNDV
  0
POLYLINE
  8
0
 66
1
 10
0.0000
 20
0.0000
 30
0.0000
 40
0.5000
 41
0.5000
 70
0
  0
VERTEX
  8
0
 10
0.0000
 20
-0.2500
 30
0.0000
 42
1.0000
  0
VERTEX
  8
0
 10
0.0000
 20
0.2500
 30
0.0000
 42
1.0000
  0
VERTEX
  8
0
 10
0.0000
 20
-0.2500
 30
0.0000
  0
SEQEND
  8
0
  0
ENDBLK
  8
0
  0
BLOCK
  8
0
  2
ANNULUSV
 70
64
 10
0.0000
 20
0.0000
 30
0.0000
  3
ANNULUSV
  0
POLYLINE
  8
0
 66
1
 10
0.0000
 20
0.0000
 30
0.0000
 40
0.5000
 41
0.5000
 70
0
  0
VERTEX
  8
0
 10
0.0000
 20
-0.2500
 30
0.0000
 42
1.0000
  0
VERTEX
  8
0
 10
0.0000
 20
0.2500
 30
0.0000
 42
1.0000
  0
VERTEX
  8
0
 10
0.0000
 20
-0.2500
 30
0.0000
  0
SEQEND
  8
0
  0
ENDBLK
  8
0
  0
BLOCK
  8
0
  2
THERMALV
 70
64
 10
0.0000
 20
0.0000
 30
0.0000
  3
THERMALV
  0
POLYLINE
  8
0
 66
1
 10
0.0000
 20
0.0000
 30
0.0000
 40
0.1000
 41
0.1000
 70
0
  0
VERTEX
  8
0
 10
-0.2379
 20
0.4500
 30
0.0000
  0
VERTEX
  8
0
 10
0.2379
 20
0.4500
 30
0.0000
  0
SEQEND
  8
0
  0
POLYLINE
  8
0
 66
1
 10
0.0000
 20
0.0000
 30
0.0000
 40
0.0500
 41
0.0500
 70
0
  0
VERTEX
  8
0
 10
0.2379
 20
0.4250
 30
0.0000
 42
1.0000
  0
VERTEX
  8
0
 10
0.2379
 20
0.4750
 30
0.0000
  0
SEQEND
  8
0
  0
POLYLINE
  8
0
 66
1
 10
0.0000
 20
0.0000
 30
0.0000
 40
0.0500
 41
0.0500
 70
0
  0
VERTEX
  8
0
 10
-0.2379
 20
0.4750
 30
0.0000
 42
1.0000
  0
VERTEX
  8
0
 10
-0.2379
 20
0.4250
 30
0.0000
  0
SEQEND
  8
0
  0
POLYLINE
  8
0
 66
1
 10
0.0000
 20
0.0000
 30
0.0000
 40
0.1000
 41
0.1000
 70
0
  0
VERTEX
  8
0
 10
0.4500
 20
0.2379
 30
0.0000
  0
VERTEX
  8
0
 10
0.4500
 20
-0.2379
 30
0.0000
  0
SEQEND
  8
0
  0
POLYLINE
  8
0
 66
1
 10
0.0000
 20
0.0000
 30
0.0000
 40
0.0500
 41
0.0500
 70
0
  0
VERTEX
  8
0
 10
0.4250
 20
-0.2379
 30
0.0000
 42
1.0000
  0
VERTEX
  8
0
 10
0.4750
 20
-0.2379
 30
0.0000
  0
SEQEND
  8
0
  0
POLYLINE
  8
0
 66
1
 10
0.0000
 20
0.0000
 30
0.0000
 40
0.0500
 41
0.0500
 70
0
  0
VERTEX
  8
0
 10
0.4750
 20
0.2379
 30
0.0000
 42
1.0000
  0
VERTEX
  8
0
 10
0.4250
 20
0.2379
 30
0.0000
  0
SEQEND
  8
0
  0
POLYLINE
  8
0
 66
1
 10
0.0000
 20
0.0000
 30
0.0000
 40
0.1000
 41
0.1000
 70
0
  0
VERTEX
  8
0
 10
0.2379
 20
-0.4500
 30
0.0000
  0
VERTEX
  8
0
 10
-0.2379
 20
-0.4500
 30
0.0000
  0
SEQEND
  8
0
  0
POLYLINE
  8
0
 66
1
 10
0.0000
 20
0.0000
 30
0.0000
 40
0.0500
 41
0.0500
 70
0
  0
VERTEX
  8
0
 10
-0.2379
 20
-0.4250
 30
0.0000
 42
1.0000
  0
VERTEX
  8
0
 10
-0.2379
 20
-0.4750
 30
0.0000
  0
SEQEND
  8
0
  0
POLYLINE
  8
0
 66
1
 10
0.0000
 20
0.0000
 30
0.0000
 40
0.0500
 41
0.0500
 70
0
  0
VERTEX
  8
0
 10
0.2379
 20
-0.4750
 30
0.0000
 42
1.0000
  0
VERTEX
  8
0
 10
0.2379
 20
-0.4250
 30
0.0000
  0
SEQEND
  8
0
  0
POLYLINE
  8
0
 66
1
 10
0.0000
 20
0.0000
 30
0.0000
 40
0.1000
 41
0.1000
 70
0
  0
VERTEX
  8
0
 10
-0.4500
 20
-0.2379
 30
0.0000
  0
VERTEX
  8
0
 10
-0.4500
 20
0.2379
 30
0.0000
  0
SEQEND
  8
0
  0
POLYLINE
  8
0
 66
1
 10
0.0000
 20
0.0000
 30
0.0000
 40
0.0500
 41
0.0500
 70
0
  0
VERTEX
  8
0
 10
-0.4250
 20
0.2379
 30
0.0000
 42
1.0000
  0
VERTEX
  8
0
 10
-0.4750
 20
0.2379
 30
0.0000
  0
SEQEND
  8
0
  0
POLYLINE
  8
0
 66
1
 10
0.0000
 20
0.0000
 30
0.0000
 40
0.0500
 41
0.0500
 70
0
  0
VERTEX
  8
0
 10
-0.4750
 20
-0.2379
 30
0.0000
 42
1.0000
  0
VERTEX
  8
0
 10
-0.4250
 20
-0.2379
 30
0.0000
  0
SEQEND
  8
0
  0
ENDBLK
  8
0
  0
BLOCK
  8
0
  2
LONGP100
 70
64
 10
0.0000
 20
0.0000
 30
0.0000
  3
LONGP100
  0
POLYLINE
  8
0
 66
1
 10
0.0000
 20
0.0000
 30
0.0000
 40
1.0000
 41
1.0000
 70
0
  0
VERTEX
  8
0
 10
-0.5000
 20
0.0000
 30
0.0000
  0
VERTEX
  8
0
 10
0.5000
 20
0.0000
 30
0.0000
  0
SEQEND
  8
0
  0
POLYLINE
  8
0
 66
1
 10
0.0000
 20
0.0000
 30
0.0000
 40
0.5000
 41
0.5000
 70
0
  0
VERTEX
  8
0
 10
0.5000
 20
-0.2500
 30
0.0000
 42
1.0000
  0
VERTEX
  8
0
 10
0.5000
 20
0.2500
 30
0.0000
  0
SEQEND
  8
0
  0
POLYLINE
  8
0
 66
1
 10
0.0000
 20
0.0000
 30
0.0000
 40
0.5000
 41
0.5000
 70
0
  0
VERTEX
  8
0
 10
-0.5000
 20
0.2500
 30
0.0000
 42
1.0000
  0
VERTEX
  8
0
 10
-0.5000
 20
-0.2500
 30
0.0000
  0
SEQEND
  8
0
  0
ENDBLK
  8
0
  0
ENDSEC
  0
SECTION
  2
ENTITIES
  0
INSERT
  8
17
  2
LONGP100
 10
3.5822
 20
43.5895
 30
0.0000
 41
1.5240
 42
1.5240
 43
1.0000
 50
90.0000
  0
INSERT
  8
17
  2
LONGP100
 10
6.1222
 20
43.5895
 30
0.0000
 41
1.5240
 42
1.5240
 43
1.0000
 50
90.0000
  0
INSERT
  8
17
  2
LONGP100
 10
8.6622
 20
43.5895
 30
0.0000
 41
1.5240
 42
1.5240
 43
1.0000
 50
90.0000
  0
INSERT
  8
17
  2
LONGP100
 10
11.2022
 20
43.5895
 30
0.0000
 41
1.5240
 42
1.5240
 43
1.0000
 50
90.0000
  0
INSERT
  8
17
  2
LONGP100
 10
3.5822
 20
32.6638
 30
0.0000
 41
1.5240
 42
1.5240
 43
1.0000
 50
90.0000
  0
INSERT
  8
17
  2
LONGP100
 10
6.1222
 20
32.6638
 30
0.0000
 41
1.5240
 42
1.5240
 43
1.0000
 50
90.0000
  0
INSERT
  8
17
  2
LONGP100
 10
8.6622
 20
32.6638
 30
0.0000
 41
1.5240
 42
1.5240
 43
1.0000
 50
90.0000
  0
INSERT
  8
17
  2
LONGP100
 10
11.2022
 20
32.6638
 30
0.0000
 41
1.5240
 42
1.5240
 43
1.0000
 50
90.0000
  0
INSERT
  8
17
  2
LONGP100
 10
3.5822
 20
61.6910
 30
0.0000
 41
1.5240
 42
1.5240
 43
1.0000
 50
90.0000
  0
INSERT
  8
17
  2
LONGP100
 10
6.1222
 20
61.6910
 30
0.0000
 41
1.5240
 42
1.5240
 43
1.0000
 50
90.0000
  0
INSERT
  8
17
  2
LONGP100
 10
8.6622
 20
61.6910
 30
0.0000
 41
1.5240
 42
1.5240
 43
1.0000
 50
90.0000
  0
INSERT
  8
17
  2
LONGP100
 10
11.2022
 20
61.6910
 30
0.0000
 41
1.5240
 42
1.5240
 43
1.0000
 50
90.0000
  0
INSERT
  8
17
  2
LONGP100
 10
3.5822
 20
53.0153
 30
0.0000
 41
1.5240
 42
1.5240
 43
1.0000
 50
90.0000
  0
INSERT
  8
17
  2
LONGP100
 10
6.1222
 20
53.0153
 30
0.0000
 41
1.5240
 42
1.5240
 43
1.0000
 50
90.0000
  0
INSERT
  8
17
  2
LONGP100
 10
8.6622
 20
53.0153
 30
0.0000
 41
1.5240
 42
1.5240
 43
1.0000
 50
90.0000
  0
INSERT
  8
17
  2
LONGP100
 10
11.2022
 20
53.0153
 30
0.0000
 41
1.5240
 42
1.5240
 43
1.0000
 50
90.0000
  0
INSERT
  8
17
  2
ROUNDP
 10
14.5393
 20
18.6076
 30
0.0000
 41
1.8796
 42
1.8796
 43
1.0000
 50
0.0000
  0
INSERT
  8
17
  2
ROUNDP
 10
14.5393
 20
21.1476
 30
0.0000
 41
1.8796
 42
1.8796
 43
1.0000
 50
0.0000
  0
INSERT
  8
17
  2
ROUNDP
 10
17.0793
 20
18.6076
 30
0.0000
 41
1.8796
 42
1.8796
 43
1.0000
 50
0.0000
  0
INSERT
  8
17
  2
ROUNDP
 10
17.0793
 20
21.1476
 30
0.0000
 41
1.8796
 42
1.8796
 43
1.0000
 50
0.0000
  0
INSERT
  8
17
  2
ROUNDP
 10
19.6193
 20
18.6076
 30
0.0000
 41
1.8796
 42
1.8796
 43
1.0000
 50
0.0000
  0
INSERT
  8
17
  2
ROUNDP
 10
19.6193
 20
21.1476
 30
0.0000
 41
1.8796
 42
1.8796
 43
1.0000
 50
0.0000
  0
INSERT
  8
17
  2
ROUNDP
 10
22.1593
 20
18.6076
 30
0.0000
 41
1.8796
 42
1.8796
 43
1.0000
 50
0.0000
  0
INSERT
  8
17
  2
ROUNDP
 10
22.1593
 20
21.1476
 30
0.0000
 41
1.8796
 42
1.8796
 43
1.0000
 50
0.0000
  0
INSERT
  8
17
  2
ROUNDP
 10
24.6993
 20
18.6076
 30
0.0000
 41
1.8796
 42
1.8796
 43
1.0000
 50
0.0000
  0
INSERT
  8
17
  2
ROUNDP
 10
24.6993
 20
21.1476
 30
0.0000
 41
1.8796
 42
1.8796
 43
1.0000
 50
0.0000
  0
INSERT
  8
17
  2
ROUNDP
 10
27.2393
 20
18.6076
 30
0.0000
 41
1.8796
 42
1.8796
 43
1.0000
 50
0.0000
  0
INSERT
  8
17
  2
ROUNDP
 10
27.2393
 20
21.1476
 30
0.0000
 41
1.8796
 42
1.8796
 43
1.0000
 50
0.0000
  0
INSERT
  8
17
  2
ROUNDP
 10
29.7793
 20
18.6076
 30
0.0000
 41
1.8796
 42
1.8796
 43
1.0000
 50
0.0000
  0
INSERT
  8
17
  2
ROUNDP
 10
29.7793
 20
21.1476
 30
0.0000
 41
1.8796
 42
1.8796
 43
1.0000
 50
0.0000
  0
INSERT
  8
17
  2
ROUNDP
 10
32.3193
 20
18.6076
 30
0.0000
 41
1.8796
 42
1.8796
 43
1.0000
 50
0.0000
  0
INSERT
  8
17
  2
ROUNDP
 10
32.3193
 20
21.1476
 30
0.0000
 41
1.8796
 42
1.8796
 43
1.0000
 50
0.0000
  0
INSERT
  8
17
  2
ROUNDP
 10
34.8593
 20
18.6076
 30
0.0000
 41
1.8796
 42
1.8796
 43
1.0000
 50
0.0000
  0
INSERT
  8
17
  2
ROUNDP
 10
34.8593
 20
21.1476
 30
0.0000
 41
1.8796
 42
1.8796
 43
1.0000
 50
0.0000
  0
INSERT
  8
17
  2
ROUNDP
 10
37.3993
 20
18.6076
 30
0.0000
 41
1.8796
 42
1.8796
 43
1.0000
 50
0.0000
  0
INSERT
  8
17
  2
ROUNDP
 10
37.3993
 20
21.1476
 30
0.0000
 41
1.8796
 42
1.8796
 43
1.0000
 50
0.0000
  0
INSERT
  8
17
  2
ROUNDP
 10
39.9393
 20
18.6076
 30
0.0000
 41
1.8796
 42
1.8796
 43
1.0000
 50
0.0000
  0
INSERT
  8
17
  2
ROUNDP
 10
39.9393
 20
21.1476
 30
0.0000
 41
1.8796
 42
1.8796
 43
1.0000
 50
0.0000
  0
INSERT
  8
17
  2
ROUNDP
 10
42.4793
 20
18.6076
 30
0.0000
 41
1.8796
 42
1.8796
 43
1.0000
 50
0.0000
  0
INSERT
  8
17
  2
ROUNDP
 10
42.4793
 20
21.1476
 30
0.0000
 41
1.8796
 42
1.8796
 43
1.0000
 50
0.0000
  0
INSERT
  8
17
  2
ROUNDP
 10
45.0193
 20
18.6076
 30
0.0000
 41
1.8796
 42
1.8796
 43
1.0000
 50
0.0000
  0
INSERT
  8
17
  2
ROUNDP
 10
45.0193
 20
21.1476
 30
0.0000
 41
1.8796
 42
1.8796
 43
1.0000
 50
0.0000
  0
INSERT
  8
17
  2
ROUNDP
 10
47.5593
 20
18.6076
 30
0.0000
 41
1.8796
 42
1.8796
 43
1.0000
 50
0.0000
  0
INSERT
  8
17
  2
ROUNDP
 10
47.5593
 20
21.1476
 30
0.0000
 41
1.8796
 42
1.8796
 43
1.0000
 50
0.0000
  0
INSERT
  8
17
  2
ROUNDP
 10
50.0993
 20
18.6076
 30
0.0000
 41
1.8796
 42
1.8796
 43
1.0000
 50
0.0000
  0
INSERT
  8
17
  2
ROUNDP
 10
50.0993
 20
21.1476
 30
0.0000
 41
1.8796
 42
1.8796
 43
1.0000
 50
0.0000
  0
INSERT
  8
17
  2
ROUNDP
 10
52.6393
 20
18.6076
 30
0.0000
 41
1.8796
 42
1.8796
 43
1.0000
 50
0.0000
  0
INSERT
  8
17
  2
ROUNDP
 10
52.6393
 20
21.1476
 30
0.0000
 41
1.8796
 42
1.8796
 43
1.0000
 50
0.0000
  0
INSERT
  8
17
  2
ROUNDP
 10
55.1793
 20
18.6076
 30
0.0000
 41
1.8796
 42
1.8796
 43
1.0000
 50
0.0000
  0
INSERT
  8
17
  2
ROUNDP
 10
55.1793
 20
21.1476
 30
0.0000
 41
1.8796
 42
1.8796
 43
1.0000
 50
0.0000
  0
INSERT
  8
17
  2
ROUNDP
 10
57.7193
 20
18.6076
 30
0.0000
 41
1.8796
 42
1.8796
 43
1.0000
 50
0.0000
  0
INSERT
  8
17
  2
ROUNDP
 10
57.7193
 20
21.1476
 30
0.0000
 41
1.8796
 42
1.8796
 43
1.0000
 50
0.0000
  0
INSERT
  8
17
  2
ROUNDP
 10
60.2593
 20
18.6076
 30
0.0000
 41
1.8796
 42
1.8796
 43
1.0000
 50
0.0000
  0
INSERT
  8
17
  2
ROUNDP
 10
60.2593
 20
21.1476
 30
0.0000
 41
1.8796
 42
1.8796
 43
1.0000
 50
0.0000
  0
INSERT
  8
17
  2
ROUNDP
 10
62.7993
 20
18.6076
 30
0.0000
 41
1.8796
 42
1.8796
 43
1.0000
 50
0.0000
  0
INSERT
  8
17
  2
ROUNDP
 10
62.7993
 20
21.1476
 30
0.0000
 41
1.8796
 42
1.8796
 43
1.0000
 50
0.0000
  0
INSERT
  8
17
  2
ROUNDP
 10
77.4633
 20
6.7414
 30
0.0000
 41
1.1480
 42
1.1480
 43
1.0000
 50
0.0000
  0
INSERT
  8
17
  2
ROUNDP
 10
79.9633
 20
6.7414
 30
0.0000
 41
1.1480
 42
1.1480
 43
1.0000
 50
0.0000
  0
INSERT
  8
17
  2
ROUNDP
 10
68.6090
 20
56.4139
 30
0.0000
 41
1.1480
 42
1.1480
 43
1.0000
 50
90.0000
  0
INSERT
  8
17
  2
ROUNDP
 10
68.6090
 20
58.9139
 30
0.0000
 41
1.1480
 42
1.1480
 43
1.0000
 50
90.0000
  0
INSERT
  8
17
  2
LONGP100
 10
50.8897
 20
42.5882
 30
0.0000
 41
1.5240
 42
1.5240
 43
1.0000
 50
0.0000
  0
INSERT
  8
17
  2
LONGP100
 10
50.8897
 20
45.1282
 30
0.0000
 41
1.5240
 42
1.5240
 43
1.0000
 50
0.0000
  0
INSERT
  8
17
  2
LONGP100
 10
50.8897
 20
47.6682
 30
0.0000
 41
1.5240
 42
1.5240
 43
1.0000
 50
0.0000
  0
INSERT
  8
17
  2
LONGP100
 10
50.8897
 20
50.2082
 30
0.0000
 41
1.5240
 42
1.5240
 43
1.0000
 50
0.0000
  0
INSERT
  8
17
  2
LONGP100
 10
50.8897
 20
52.7482
 30
0.0000
 41
1.5240
 42
1.5240
 43
1.0000
 50
0.0000
  0
INSERT
  8
17
  2
LONGP100
 10
50.8897
 20
55.2882
 30
0.0000
 41
1.5240
 42
1.5240
 43
1.0000
 50
0.0000
  0
INSERT
  8
17
  2
LONGP100
 10
50.8897
 20
57.8282
 30
0.0000
 41
1.5240
 42
1.5240
 43
1.0000
 50
0.0000
  0
INSERT
  8
17
  2
LONGP100
 10
50.8897
 20
60.3682
 30
0.0000
 41
1.5240
 42
1.5240
 43
1.0000
 50
0.0000
  0
INSERT
  8
17
  2
LONGP100
 10
46.4309
 20
30.2197
 30
0.0000
 41
1.5240
 42
1.5240
 43
1.0000
 50
90.0000
  0
INSERT
  8
17
  2
LONGP100
 10
48.9709
 20
30.2197
 30
0.0000
 41
1.5240
 42
1.5240
 43
1.0000
 50
90.0000
  0
INSERT
  8
17
  2
LONGP100
 10
51.5109
 20
30.2197
 30
0.0000
 41
1.5240
 42
1.5240
 43
1.0000
 50
90.0000
  0
INSERT
  8
17
  2
LONGP100
 10
54.0509
 20
30.2197
 30
0.0000
 41
1.5240
 42
1.5240
 43
1.0000
 50
90.0000
  0
INSERT
  8
17
  2
LONGP100
 10
56.5909
 20
30.2197
 30
0.0000
 41
1.5240
 42
1.5240
 43
1.0000
 50
90.0000
  0
INSERT
  8
17
  2
LONGP100
 10
59.1309
 20
30.2197
 30
0.0000
 41
1.5240
 42
1.5240
 43
1.0000
 50
90.0000
  0
INSERT
  8
17
  2
LONGP100
 10
61.6709
 20
30.2197
 30
0.0000
 41
1.5240
 42
1.5240
 43
1.0000
 50
90.0000
  0
INSERT
  8
17
  2
LONGP100
 10
64.2109
 20
30.2197
 30
0.0000
 41
1.5240
 42
1.5240
 43
1.0000
 50
90.0000
  0
INSERT
  8
17
  2
SQUAREP
 10
74.9228
 20
16.2537
 30
0.0000
 41
3.8100
 42
3.8100
 43
1.0000
 50
90.0000
  0
INSERT
  8
17
  2
SQUAREP
 10
95.4228
 20
16.2537
 30
0.0000
 41
3.8100
 42
3.8100
 43
1.0000
 50
90.0000
  0
INSERT
  8
17
  2
SQUAREP
 10
74.9228
 20
65.7537
 30
0.0000
 41
3.8100
 42
3.8100
 43
1.0000
 50
90.0000
  0
INSERT
  8
17
  2
SQUAREP
 10
95.4228
 20
65.7537
 30
0.0000
 41
3.8100
 42
3.8100
 43
1.0000
 50
90.0000
  0
INSERT
  8
17
  2
ROUNDP
 10
35.8033
 20
36.9865
 30
0.0000
 41
1.6764
 42
1.6764
 43
1.0000
 50
180.0000
  0
INSERT
  8
17
  2
ROUNDP
 10
35.8033
 20
39.5265
 30
0.0000
 41
1.6764
 42
1.6764
 43
1.0000
 50
180.0000
  0
INSERT
  8
17
  2
ROUNDP
 10
35.8033
 20
42.0665
 30
0.0000
 41
1.6764
 42
1.6764
 43
1.0000
 50
180.0000
  0
INSERT
  8
17
  2
ROUNDP
 10
35.8033
 20
44.6065
 30
0.0000
 41
1.6764
 42
1.6764
 43
1.0000
 50
180.0000
  0
INSERT
  8
17
  2
ROUNDP
 10
35.8033
 20
47.1465
 30
0.0000
 41
1.6764
 42
1.6764
 43
1.0000
 50
180.0000
  0
INSERT
  8
17
  2
ROUNDP
 10
35.8033
 20
49.6865
 30
0.0000
 41
1.6764
 42
1.6764
 43
1.0000
 50
180.0000
  0
INSERT
  8
17
  2
ROUNDP
 10
35.8033
 20
52.2265
 30
0.0000
 41
1.6764
 42
1.6764
 43
1.0000
 50
180.0000
  0
INSERT
  8
17
  2
ROUNDP
 10
35.8033
 20
54.7665
 30
0.0000
 41
1.6764
 42
1.6764
 43
1.0000
 50
180.0000
  0
INSERT
  8
17
  2
ROUNDP
 10
35.8033
 20
57.3065
 30
0.0000
 41
1.6764
 42
1.6764
 43
1.0000
 50
180.0000
  0
INSERT
  8
17
  2
ROUNDP
 10
35.8033
 20
59.8465
 30
0.0000
 41
1.6764
 42
1.6764
 43
1.0000
 50
180.0000
  0
INSERT
  8
17
  2
ROUNDP
 10
35.8033
 20
62.3865
 30
0.0000
 41
1.6764
 42
1.6764
 43
1.0000
 50
180.0000
  0
INSERT
  8
17
  2
ROUNDP
 10
35.8033
 20
64.9265
 30
0.0000
 41
1.6764
 42
1.6764
 43
1.0000
 50
180.0000
  0
INSERT
  8
17
  2
ROUNDP
 10
20.5633
 20
64.9265
 30
0.0000
 41
1.6764
 42
1.6764
 43
1.0000
 50
0.0000
  0
INSERT
  8
17
  2
ROUNDP
 10
20.5633
 20
62.3865
 30
0.0000
 41
1.6764
 42
1.6764
 43
1.0000
 50
0.0000
  0
INSERT
  8
17
  2
ROUNDP
 10
20.5633
 20
59.8465
 30
0.0000
 41
1.6764
 42
1.6764
 43
1.0000
 50
0.0000
  0
INSERT
  8
17
  2
ROUNDP
 10
20.5633
 20
57.3065
 30
0.0000
 41
1.6764
 42
1.6764
 43
1.0000
 50
0.0000
  0
INSERT
  8
17
  2
ROUNDP
 10
20.5633
 20
54.7665
 30
0.0000
 41
1.6764
 42
1.6764
 43
1.0000
 50
0.0000
  0
INSERT
  8
17
  2
ROUNDP
 10
20.5633
 20
52.2265
 30
0.0000
 41
1.6764
 42
1.6764
 43
1.0000
 50
0.0000
  0
INSERT
  8
17
  2
ROUNDP
 10
20.5633
 20
49.6865
 30
0.0000
 41
1.6764
 42
1.6764
 43
1.0000
 50
0.0000
  0
INSERT
  8
17
  2
ROUNDP
 10
20.5633
 20
47.1465
 30
0.0000
 41
1.6764
 42
1.6764
 43
1.0000
 50
0.0000
  0
INSERT
  8
17
  2
ROUNDP
 10
20.5633
 20
44.6065
 30
0.0000
 41
1.6764
 42
1.6764
 43
1.0000
 50
0.0000
  0
INSERT
  8
17
  2
ROUNDP
 10
20.5633
 20
42.0665
 30
0.0000
 41
1.6764
 42
1.6764
 43
1.0000
 50
0.0000
  0
INSERT
  8
17
  2
ROUNDP
 10
20.5633
 20
39.5265
 30
0.0000
 41
1.6764
 42
1.6764
 43
1.0000
 50
0.0000
  0
INSERT
  8
17
  2
ROUNDP
 10
20.5633
 20
36.9865
 30
0.0000
 41
1.6764
 42
1.6764
 43
1.0000
 50
0.0000
  0
INSERT
  8
17
  2
LONGP100
 10
90.0673
 20
6.6387
 30
0.0000
 41
1.7000
 42
1.7000
 43
1.0000
 50
90.0000
  0
INSERT
  8
17
  2
LONGP100
 10
93.5673
 20
6.6387
 30
0.0000
 41
1.7000
 42
1.7000
 43
1.0000
 50
90.0000
  0
POLYLINE
  8
1
 66
1
 10
0.0000
 20
0.0000
 30
0.0000
 40
1.0160
 41
1.0160
 70
0
  0
VERTEX
  8
1
 10
90.0673
 20
6.6387
 30
0.0000
  0
VERTEX
  8
1
 10
90.0673
 20
8.6827
 30
0.0000
  0
SEQEND
  8
0
  0
POLYLINE
  8
1
 66
1
 10
0.0000
 20
0.0000
 30
0.0000
 40
0.5080
 41
0.5080
 70
0
  0
VERTEX
  8
1
 10
90.3213
 20
8.6827
 30
0.0000
 42
1.0000
  0
VERTEX
  8
1
 10
89.8133
 20
8.6827
 30
0.0000
  0
SEQEND
  8
0
  0
POLYLINE
  8
1
 66
1
 10
0.0000
 20
0.0000
 30
0.0000
 40
0.5080
 41
0.5080
 70
0
  0
VERTEX
  8
1
 10
89.8133
 20
6.6387
 30
0.0000
 42
1.0000
  0
VERTEX
  8
1
 10
90.3213
 20
6.6387
 30
0.0000
  0
SEQEND
  8
0
  0
POLYLINE
  8
1
 66
1
 10
0.0000
 20
0.0000
 30
0.0000
 40
1.0160
 41
1.0160
 70
0
  0
VERTEX
  8
1
 10
89.0000
 20
9.7500
 30
0.0000
  0
VERTEX
  8
1
 10
79.0000
 20
9.7500
 30
0.0000
  0
SEQEND
  8
0
  0
POLYLINE
  8
1
 66
1
 10
0.0000
 20
0.0000
 30
0.0000
 40
0.5080
 41
0.5080
 70
0
  0
VERTEX
  8
1
 10
79.0000
 20
10.0040
 30
0.0000
 42
1.0000
  0
VERTEX
  8
1
 10
79.0000
 20
9.4960
 30
0.0000
  0
SEQEND
  8
0
  0
POLYLINE
  8
1
 66
1
 10
0.0000
 20
0.0000
 30
0.0000
 40
0.5080
 41
0.5080
 70
0
  0
VERTEX
  8
1
 10
89.0000
 20
9.4960
 30
0.0000
 42
1.0000
  0
VERTEX
  8
1
 10
89.0000
 20
10.0040
 30
0.0000
  0
SEQEND
  8
0
  0
POLYLINE
  8
1
 66
1
 10
0.0000
 20
0.0000
 30
0.0000
 40
1.0160
 41
1.0160
 70
0
  0
VERTEX
  8
1
 10
79.0000
 20
9.7500
 30
0.0000
  0
VERTEX
  8
1
 10
77.4633
 20
8.2133
 30
0.0000
  0
SEQEND
  8
0
  0
POLYLINE
  8
1
 66
1
 10
0.0000
 20
0.0000
 30
0.0000
 40
0.5080
 41
0.5080
 70
0
  0
VERTEX
  8
1
 10
77.2837
 20
8.3929
 30
0.0000
 42
1.0000
  0
VERTEX
  8
1
 10
77.6429
 20
8.0337
 30
0.0000
  0
SEQEND
  8
0
  0
POLYLINE
  8
1
 66
1
 10
0.0000
 20
0.0000
 30
0.0000
 40
0.5080
 41
0.5080
 70
0
  0
VERTEX
  8
1
 10
79.1796
 20
9.5704
 30
0.0000
 42
1.0000
  0
VERTEX
  8
1
 10
78.8204
 20
9.9296
 30
0.0000
  0
SEQEND
  8
0
  0
POLYLINE
  8
1
 66
1
 10
0.0000
 20
0.0000
 30
0.0000
 40
1.0160
 41
1.0160
 70
0
  0
VERTEX
  8
1
 10
77.4633
 20
8.2133
 30
0.0000
  0
VERTEX
  8
1
 10
77.4633
 20
6.7414
 30
0.0000
  0
SEQEND
  8
0
  0
POLYLINE
  8
1
 66
1
 10
0.0000
 20
0.0000
 30
0.0000
 40
0.5080
 41
0.5080
 70
0
  0
VERTEX
  8
1
 10
77.2093
 20
6.7414
 30
0.0000
 42
1.0000
  0
VERTEX
  8
1
 10
77.7173
 20
6.7414
 30
0.0000
  0
SEQEND
  8
0
  0
POLYLINE
  8
1
 66
1
 10
0.0000
 20
0.0000
 30
0.0000
 40
0.5080
 41
0.5080
 70
0
  0
VERTEX
  8
1
 10
77.7173
 20
8.2133
 30
0.0000
 42
1.0000
  0
VERTEX
  8
1
 10
77.2093
 20
8.2133
 30
0.0000
  0
SEQEND
  8
0
  0
POLYLINE
  8
1
 66
1
 10
0.0000
 20
0.0000
 30
0.0000
 40
1.0160
 41
1.0160
 70
0
  0
VERTEX
  8
1
 10
90.0673
 20
8.6827
 30
0.0000
  0
VERTEX
  8
1
 10
89.0000
 20
9.7500
 30
0.0000
  0
SEQEND
  8
0
  0
POLYLINE
  8
1
 66
1
 10
0.0000
 20
0.0000
 30
0.0000
 40
0.5080
 41
0.5080
 70
0
  0
VERTEX
  8
1
 10
89.1796
 20
9.9296
 30
0.0000
 42
1.0000
  0
VERTEX
  8
1
 10
88.8204
 20
9.5704
 30
0.0000
  0
SEQEND
  8
0
  0
POLYLINE
  8
1
 66
1
 10
0.0000
 20
0.0000
 30
0.0000
 40
0.5080
 41
0.5080
 70
0
  0
VERTEX
  8
1
 10
89.8877
 20
8.5031
 30
0.0000
 42
1.0000
  0
VERTEX
  8
1
 10
90.2469
 20
8.8623
 30
0.0000
  0
SEQEND
  8
0
  0
POLYLINE
  8
1
 66
1
 10
0.0000
 20
0.0000
 30
0.0000
 40
0.8128
 41
0.8128
 70
0
  0
VERTEX
  8
1
 10
3.5822
 20
53.0153
 30
0.0000
  0
VERTEX
  8
1
 10
3.5822
 20
61.6678
 30
0.0000
  0
SEQEND
  8
0
  0
POLYLINE
  8
1
 66
1
 10
0.0000
 20
0.0000
 30
0.0000
 40
0.4064
 41
0.4064
 70
0
  0
VERTEX
  8
1
 10
3.7854
 20
61.6678
 30
0.0000
 42
1.0000
  0
VERTEX
  8
1
 10
3.3790
 20
61.6678
 30
0.0000
  0
SEQEND
  8
0
  0
POLYLINE
  8
1
 66
1
 10
0.0000
 20
0.0000
 30
0.0000
 40
0.4064
 41
0.4064
 70
0
  0
VERTEX
  8
1
 10
3.3790
 20
53.0153
 30
0.0000
 42
1.0000
  0
VERTEX
  8
1
 10
3.7854
 20
53.0153
 30
0.0000
  0
SEQEND
  8
0
  0
POLYLINE
  8
1
 66
1
 10
0.0000
 20
0.0000
 30
0.0000
 40
0.8128
 41
0.8128
 70
0
  0
VERTEX
  8
1
 10
3.5822
 20
43.8395
 30
0.0000
  0
VERTEX
  8
1
 10
3.7109
 20
43.7109
 30
0.0000
  0
SEQEND
  8
0
  0
POLYLINE
  8
1
 66
1
 10
0.0000
 20
0.0000
 30
0.0000
 40
0.4064
 41
0.4064
 70
0
  0
VERTEX
  8
1
 10
3.5672
 20
43.5672
 30
0.0000
 42
1.0000
  0
VERTEX
  8
1
 10
3.8545
 20
43.8545
 30
0.0000
  0
SEQEND
  8
0
  0
POLYLINE
  8
1
 66
1
 10
0.0000
 20
0.0000
 30
0.0000
 40
0.4064
 41
0.4064
 70
0
  0
VERTEX
  8
1
 10
3.7259
 20
43.9832
 30
0.0000
 42
1.0000
  0
VERTEX
  8
1
 10
3.4385
 20
43.6958
 30
0.0000
  0
SEQEND
  8
0
  0
POLYLINE
  8
1
 66
1
 10
0.0000
 20
0.0000
 30
0.0000
 40
0.8128
 41
0.8128
 70
0
  0
VERTEX
  8
1
 10
3.7035
 20
43.7109
 30
0.0000
  0
VERTEX
  8
1
 10
3.5822
 20
43.5895
 30
0.0000
  0
SEQEND
  8
0
  0
POLYLINE
  8
1
 66
1
 10
0.0000
 20
0.0000
 30
0.0000
 40
0.4064
 41
0.4064
 70
0
  0
VERTEX
  8
1
 10
3.4385
 20
43.7332
 30
0.0000
 42
1.0000
  0
VERTEX
  8
1
 10
3.7259
 20
43.4458
 30
0.0000
  0
SEQEND
  8
0
  0
POLYLINE
  8
1
 66
1
 10
0.0000
 20
0.0000
 30
0.0000
 40
0.4064
 41
0.4064
 70
0
  0
VERTEX
  8
1
 10
3.8472
 20
43.5672
 30
0.0000
 42
1.0000
  0
VERTEX
  8
1
 10
3.5599
 20
43.8545
 30
0.0000
  0
SEQEND
  8
0
  0
POLYLINE
  8
1
 66
1
 10
0.0000
 20
0.0000
 30
0.0000
 40
0.8128
 41
0.8128
 70
0
  0
VERTEX
  8
1
 10
3.7035
 20
43.7109
 30
0.0000
  0
VERTEX
  8
1
 10
3.7109
 20
43.7109
 30
0.0000
  0
SEQEND
  8
0
  0
POLYLINE
  8
1
 66
1
 10
0.0000
 20
0.0000
 30
0.0000
 40
0.4064
 41
0.4064
 70
0
  0
VERTEX
  8
1
 10
3.7109
 20
43.5077
 30
0.0000
 42
1.0000
  0
VERTEX
  8
1
 10
3.7109
 20
43.9141
 30
0.0000
  0
SEQEND
  8
0
  0
POLYLINE
  8
1
 66
1
 10
0.0000
 20
0.0000
 30
0.0000
 40
0.4064
 41
0.4064
 70
0
  0
VERTEX
  8
1
 10
3.7035
 20
43.9141
 30
0.0000
 42
1.0000
  0
VERTEX
  8
1
 10
3.7035
 20
43.5077
 30
0.0000
  0
SEQEND
  8
0
  0
POLYLINE
  8
1
 66
1
 10
0.0000
 20
0.0000
 30
0.0000
 40
0.8128
 41
0.8128
 70
0
  0
VERTEX
  8
1
 10
3.5822
 20
43.8395
 30
0.0000
  0
VERTEX
  8
1
 10
3.5822
 20
43.5895
 30
0.0000
  0
SEQEND
  8
0
  0
POLYLINE
  8
1
 66
1
 10
0.0000
 20
0.0000
 30
0.0000
 40
0.4064
 41
0.4064
 70
0
  0
VERTEX
  8
1
 10
3.3790
 20
43.5895
 30
0.0000
 42
1.0000
  0
VERTEX
  8
1
 10
3.7854
 20
43.5895
 30
0.0000
  0
SEQEND
  8
0
  0
POLYLINE
  8
1
 66
1
 10
0.0000
 20
0.0000
 30
0.0000
 40
0.4064
 41
0.4064
 70
0
  0
VERTEX
  8
1
 10
3.7854
 20
43.8395
 30
0.0000
 42
1.0000
  0
VERTEX
  8
1
 10
3.3790
 20
43.8395
 30
0.0000
  0
SEQEND
  8
0
  0
POLYLINE
  8
1
 66
1
 10
0.0000
 20
0.0000
 30
0.0000
 40
0.8128
 41
0.8128
 70
0
  0
VERTEX
  8
1
 10
3.5822
 20
53.0153
 30
0.0000
  0
VERTEX
  8
1
 10
3.5822
 20
43.8395
 30
0.0000
  0
SEQEND
  8
0
  0
POLYLINE
  8
1
 66
1
 10
0.0000
 20
0.0000
 30
0.0000
 40
0.4064
 41
0.4064
 70
0
  0
VERTEX
  8
1
 10
3.3790
 20
43.8395
 30
0.0000
 42
1.0000
  0
VERTEX
  8
1
 10
3.7854
 20
43.8395
 30
0.0000
  0
SEQEND
  8
0
  0
POLYLINE
  8
1
 66
1
 10
0.0000
 20
0.0000
 30
0.0000
 40
0.4064
 41
0.4064
 70
0
  0
VERTEX
  8
1
 10
3.7854
 20
53.0153
 30
0.0000
 42
1.0000
  0
VERTEX
  8
1
 10
3.3790
 20
53.0153
 30
0.0000
  0
SEQEND
  8
0
  0
POLYLINE
  8
1
 66
1
 10
0.0000
 20
0.0000
 30
0.0000
 40
0.8128
 41
0.8128
 70
0
  0
VERTEX
  8
1
 10
3.5822
 20
43.5895
 30
0.0000
  0
VERTEX
  8
1
 10
3.5822
 20
32.6638
 30
0.0000
  0
SEQEND
  8
0
  0
POLYLINE
  8
1
 66
1
 10
0.0000
 20
0.0000
 30
0.0000
 40
0.4064
 41
0.4064
 70
0
  0
VERTEX
  8
1
 10
3.3790
 20
32.6638
 30
0.0000
 42
1.0000
  0
VERTEX
  8
1
 10
3.7854
 20
32.6638
 30
0.0000
  0
SEQEND
  8
0
  0
POLYLINE
  8
1
 66
1
 10
0.0000
 20
0.0000
 30
0.0000
 40
0.4064
 41
0.4064
 70
0
  0
VERTEX
  8
1
 10
3.7854
 20
43.5895
 30
0.0000
 42
1.0000
  0
VERTEX
  8
1
 10
3.3790
 20
43.5895
 30
0.0000
  0
SEQEND
  8
0
  0
POLYLINE
  8
1
 66
1
 10
0.0000
 20
0.0000
 30
0.0000
 40
0.8128
 41
0.8128
 70
0
  0
VERTEX
  8
1
 10
14.5393
 20
18.6076
 30
0.0000
  0
VERTEX
  8
1
 10
14.1817
 20
18.2500
 30
0.0000
  0
SEQEND
  8
0
  0
POLYLINE
  8
1
 66
1
 10
0.0000
 20
0.0000
 30
0.0000
 40
0.4064
 41
0.4064
 70
0
  0
VERTEX
  8
1
 10
14.0380
 20
18.3937
 30
0.0000
 42
1.0000
  0
VERTEX
  8
1
 10
14.3254
 20
18.1063
 30
0.0000
  0
SEQEND
  8
0
  0
POLYLINE
  8
1
 66
1
 10
0.0000
 20
0.0000
 30
0.0000
 40
0.4064
 41
0.4064
 70
0
  0
VERTEX
  8
1
 10
14.6830
 20
18.4639
 30
0.0000
 42
1.0000
  0
VERTEX
  8
1
 10
14.3956
 20
18.7513
 30
0.0000
  0
SEQEND
  8
0
  0
POLYLINE
  8
1
 66
1
 10
0.0000
 20
0.0000
 30
0.0000
 40
0.8128
 41
0.8128
 70
0
  0
VERTEX
  8
1
 10
14.1817
 20
18.2500
 30
0.0000
  0
VERTEX
  8
1
 10
13.0000
 20
18.2500
 30
0.0000
  0
SEQEND
  8
0
  0
POLYLINE
  8
1
 66
1
 10
0.0000
 20
0.0000
 30
0.0000
 40
0.4064
 41
0.4064
 70
0
  0
VERTEX
  8
1
 10
13.0000
 20
18.4532
 30
0.0000
 42
1.0000
  0
VERTEX
  8
1
 10
13.0000
 20
18.0468
 30
0.0000
  0
SEQEND
  8
0
  0
POLYLINE
  8
1
 66
1
 10
0.0000
 20
0.0000
 30
0.0000
 40
0.4064
 41
0.4064
 70
0
  0
VERTEX
  8
1
 10
14.1817
 20
18.0468
 30
0.0000
 42
1.0000
  0
VERTEX
  8
1
 10
14.1817
 20
18.4532
 30
0.0000
  0
SEQEND
  8
0
  0
POLYLINE
  8
1
 66
1
 10
0.0000
 20
0.0000
 30
0.0000
 40
0.8128
 41
0.8128
 70
0
  0
VERTEX
  8
1
 10
13.0000
 20
18.2500
 30
0.0000
  0
VERTEX
  8
1
 10
11.7500
 20
19.5000
 30
0.0000
  0
SEQEND
  8
0
  0
POLYLINE
  8
1
 66
1
 10
0.0000
 20
0.0000
 30
0.0000
 40
0.4064
 41
0.4064
 70
0
  0
VERTEX
  8
1
 10
11.8937
 20
19.6437
 30
0.0000
 42
1.0000
  0
VERTEX
  8
1
 10
11.6063
 20
19.3563
 30
0.0000
  0
SEQEND
  8
0
  0
POLYLINE
  8
1
 66
1
 10
0.0000
 20
0.0000
 30
0.0000
 40
0.4064
 41
0.4064
 70
0
  0
VERTEX
  8
1
 10
12.8563
 20
18.1063
 30
0.0000
 42
1.0000
  0
VERTEX
  8
1
 10
13.1437
 20
18.3937
 30
0.0000
  0
SEQEND
  8
0
  0
POLYLINE
  8
1
 66
1
 10
0.0000
 20
0.0000
 30
0.0000
 40
0.8128
 41
0.8128
 70
0
  0
VERTEX
  8
1
 10
3.5822
 20
32.6638
 30
0.0000
  0
VERTEX
  8
1
 10
3.5822
 20
30.0822
 30
0.0000
  0
SEQEND
  8
0
  0
POLYLINE
  8
1
 66
1
 10
0.0000
 20
0.0000
 30
0.0000
 40
0.4064
 41
0.4064
 70
0
  0
VERTEX
  8
1
 10
3.3790
 20
30.0822
 30
0.0000
 42
1.0000
  0
VERTEX
  8
1
 10
3.7854
 20
30.0822
 30
0.0000
  0
SEQEND
  8
0
  0
POLYLINE
  8
1
 66
1
 10
0.0000
 20
0.0000
 30
0.0000
 40
0.4064
 41
0.4064
 70
0
  0
VERTEX
  8
1
 10
3.7854
 20
32.6638
 30
0.0000
 42
1.0000
  0
VERTEX
  8
1
 10
3.3790
 20
32.6638
 30
0.0000
  0
SEQEND
  8
0
  0
POLYLINE
  8
1
 66
1
 10
0.0000
 20
0.0000
 30
0.0000
 40
0.8128
 41
0.8128
 70
0
  0
VERTEX
  8
1
 10
3.5822
 20
30.0822
 30
0.0000
  0
VERTEX
  8
1
 10
3.5000
 20
30.0000
 30
0.0000
  0
SEQEND
  8
0
  0
POLYLINE
  8
1
 66
1
 10
0.0000
 20
0.0000
 30
0.0000
 40
0.4064
 41
0.4064
 70
0
  0
VERTEX
  8
1
 10
3.3563
 20
30.1437
 30
0.0000
 42
1.0000
  0
VERTEX
  8
1
 10
3.6437
 20
29.8563
 30
0.0000
  0
SEQEND
  8
0
  0
POLYLINE
  8
1
 66
1
 10
0.0000
 20
0.0000
 30
0.0000
 40
0.4064
 41
0.4064
 70
0
  0
VERTEX
  8
1
 10
3.7259
 20
29.9385
 30
0.0000
 42
1.0000
  0
VERTEX
  8
1
 10
3.4385
 20
30.2259
 30
0.0000
  0
SEQEND
  8
0
  0
POLYLINE
  8
1
 66
1
 10
0.0000
 20
0.0000
 30
0.0000
 40
0.8128
 41
0.8128
 70
0
  0
VERTEX
  8
1
 10
6.1222
 20
61.6910
 30
0.0000
  0
VERTEX
  8
1
 10
6.1222
 20
53.0153
 30
0.0000
  0
SEQEND
  8
0
  0
POLYLINE
  8
1
 66
1
 10
0.0000
 20
0.0000
 30
0.0000
 40
0.4064
 41
0.4064
 70
0
  0
VERTEX
  8
1
 10
5.9190
 20
53.0153
 30
0.0000
 42
1.0000
  0
VERTEX
  8
1
 10
6.3254
 20
53.0153
 30
0.0000
  0
SEQEND
  8
0
  0
POLYLINE
  8
1
 66
1
 10
0.0000
 20
0.0000
 30
0.0000
 40
0.4064
 41
0.4064
 70
0
  0
VERTEX
  8
1
 10
6.3254
 20
61.6910
 30
0.0000
 42
1.0000
  0
VERTEX
  8
1
 10
5.9190
 20
61.6910
 30
0.0000
  0
SEQEND
  8
0
  0
POLYLINE
  8
1
 66
1
 10
0.0000
 20
0.0000
 30
0.0000
 40
0.8128
 41
0.8128
 70
0
  0
VERTEX
  8
1
 10
6.1222
 20
53.0153
 30
0.0000
  0
VERTEX
  8
1
 10
6.1222
 20
43.5895
 30
0.0000
  0
SEQEND
  8
0
  0
POLYLINE
  8
1
 66
1
 10
0.0000
 20
0.0000
 30
0.0000
 40
0.4064
 41
0.4064
 70
0
  0
VERTEX
  8
1
 10
5.9190
 20
43.5895
 30
0.0000
 42
1.0000
  0
VERTEX
  8
1
 10
6.3254
 20
43.5895
 30
0.0000
  0
SEQEND
  8
0
  0
POLYLINE
  8
1
 66
1
 10
0.0000
 20
0.0000
 30
0.0000
 40
0.4064
 41
0.4064
 70
0
  0
VERTEX
  8
1
 10
6.3254
 20
53.0153
 30
0.0000
 42
1.0000
  0
VERTEX
  8
1
 10
5.9190
 20
53.0153
 30
0.0000
  0
SEQEND
  8
0
  0
POLYLINE
  8
1
 66
1
 10
0.0000
 20
0.0000
 30
0.0000
 40
0.8128
 41
0.8128
 70
0
  0
VERTEX
  8
1
 10
6.1222
 20
43.5895
 30
0.0000
  0
VERTEX
  8
1
 10
6.1222
 20
32.6638
 30
0.0000
  0
SEQEND
  8
0
  0
POLYLINE
  8
1
 66
1
 10
0.0000
 20
0.0000
 30
0.0000
 40
0.4064
 41
0.4064
 70
0
  0
VERTEX
  8
1
 10
5.9190
 20
32.6638
 30
0.0000
 42
1.0000
  0
VERTEX
  8
1
 10
6.3254
 20
32.6638
 30
0.0000
  0
SEQEND
  8
0
  0
POLYLINE
  8
1
 66
1
 10
0.0000
 20
0.0000
 30
0.0000
 40
0.4064
 41
0.4064
 70
0
  0
VERTEX
  8
1
 10
6.3254
 20
43.5895
 30
0.0000
 42
1.0000
  0
VERTEX
  8
1
 10
5.9190
 20
43.5895
 30
0.0000
  0
SEQEND
  8
0
  0
POLYLINE
  8
1
 66
1
 10
0.0000
 20
0.0000
 30
0.0000
 40
0.8128
 41
0.8128
 70
0
  0
VERTEX
  8
1
 10
50.0993
 20
24.3413
 30
0.0000
  0
VERTEX
  8
1
 10
48.9709
 20
25.4697
 30
0.0000
  0
SEQEND
  8
0
  0
POLYLINE
  8
1
 66
1
 10
0.0000
 20
0.0000
 30
0.0000
 40
0.4064
 41
0.4064
 70
0
  0
VERTEX
  8
1
 10
49.1146
 20
25.6134
 30
0.0000
 42
1.0000
  0
VERTEX
  8
1
 10
48.8272
 20
25.3260
 30
0.0000
  0
SEQEND
  8
0
  0
POLYLINE
  8
1
 66
1
 10
0.0000
 20
0.0000
 30
0.0000
 40
0.4064
 41
0.4064
 70
0
  0
VERTEX
  8
1
 10
49.9556
 20
24.1976
 30
0.0000
 42
1.0000
  0
VERTEX
  8
1
 10
50.2430
 20
24.4850
 30
0.0000
  0
SEQEND
  8
0
  0
POLYLINE
  8
1
 66
1
 10
0.0000
 20
0.0000
 30
0.0000
 40
0.8128
 41
0.8128
 70
0
  0
VERTEX
  8
1
 10
48.9709
 20
30.2197
 30
0.0000
  0
VERTEX
  8
1
 10
48.9709
 20
25.4697
 30
0.0000
  0
SEQEND
  8
0
  0
POLYLINE
  8
1
 66
1
 10
0.0000
 20
0.0000
 30
0.0000
 40
0.4064
 41
0.4064
 70
0
  0
VERTEX
  8
1
 10
48.7677
 20
25.4697
 30
0.0000
 42
1.0000
  0
VERTEX
  8
1
 10
49.1741
 20
25.4697
 30
0.0000
  0
SEQEND
  8
0
  0
POLYLINE
  8
1
 66
1
 10
0.0000
 20
0.0000
 30
0.0000
 40
0.4064
 41
0.4064
 70
0
  0
VERTEX
  8
1
 10
49.1741
 20
30.2197
 30
0.0000
 42
1.0000
  0
VERTEX
  8
1
 10
48.7677
 20
30.2197
 30
0.0000
  0
SEQEND
  8
0
  0
POLYLINE
  8
1
 66
1
 10
0.0000
 20
0.0000
 30
0.0000
 40
0.8128
 41
0.8128
 70
0
  0
VERTEX
  8
1
 10
50.0993
 20
24.3413
 30
0.0000
  0
VERTEX
  8
1
 10
50.0993
 20
21.1476
 30
0.0000
  0
SEQEND
  8
0
  0
POLYLINE
  8
1
 66
1
 10
0.0000
 20
0.0000
 30
0.0000
 40
0.4064
 41
0.4064
 70
0
  0
VERTEX
  8
1
 10
49.8961
 20
21.1476
 30
0.0000
 42
1.0000
  0
VERTEX
  8
1
 10
50.3025
 20
21.1476
 30
0.0000
  0
SEQEND
  8
0
  0
POLYLINE
  8
1
 66
1
 10
0.0000
 20
0.0000
 30
0.0000
 40
0.4064
 41
0.4064
 70
0
  0
VERTEX
  8
1
 10
50.3025
 20
24.3413
 30
0.0000
 42
1.0000
  0
VERTEX
  8
1
 10
49.8961
 20
24.3413
 30
0.0000
  0
SEQEND
  8
0
  0
POLYLINE
  8
1
 66
1
 10
0.0000
 20
0.0000
 30
0.0000
 40
0.8128
 41
0.8128
 70
0
  0
VERTEX
  8
1
 10
6.1222
 20
32.6638
 30
0.0000
  0
VERTEX
  8
1
 10
6.1222
 20
28.1638
 30
0.0000
  0
SEQEND
  8
0
  0
POLYLINE
  8
1
 66
1
 10
0.0000
 20
0.0000
 30
0.0000
 40
0.4064
 41
0.4064
 70
0
  0
VERTEX
  8
1
 10
5.9190
 20
28.1638
 30
0.0000
 42
1.0000
  0
VERTEX
  8
1
 10
6.3254
 20
28.1638
 30
0.0000
  0
SEQEND
  8
0
  0
POLYLINE
  8
1
 66
1
 10
0.0000
 20
0.0000
 30
0.0000
 40
0.4064
 41
0.4064
 70
0
  0
VERTEX
  8
1
 10
6.3254
 20
32.6638
 30
0.0000
 42
1.0000
  0
VERTEX
  8
1
 10
5.9190
 20
32.6638
 30
0.0000
  0
SEQEND
  8
0
  0
POLYLINE
  8
1
 66
1
 10
0.0000
 20
0.0000
 30
0.0000
 40
0.8128
 41
0.8128
 70
0
  0
VERTEX
  8
1
 10
6.1222
 20
28.1638
 30
0.0000
  0
VERTEX
  8
1
 10
4.6222
 20
26.6638
 30
0.0000
  0
SEQEND
  8
0
  0
POLYLINE
  8
1
 66
1
 10
0.0000
 20
0.0000
 30
0.0000
 40
0.4064
 41
0.4064
 70
0
  0
VERTEX
  8
1
 10
4.4785
 20
26.8075
 30
0.0000
 42
1.0000
  0
VERTEX
  8
1
 10
4.7659
 20
26.5201
 30
0.0000
  0
SEQEND
  8
0
  0
POLYLINE
  8
1
 66
1
 10
0.0000
 20
0.0000
 30
0.0000
 40
0.4064
 41
0.4064
 70
0
  0
VERTEX
  8
1
 10
6.2659
 20
28.0201
 30
0.0000
 42
1.0000
  0
VERTEX
  8
1
 10
5.9785
 20
28.3075
 30
0.0000
  0
SEQEND
  8
0
  0
POLYLINE
  8
1
 66
1
 10
0.0000
 20
0.0000
 30
0.0000
 40
0.8128
 41
0.8128
 70
0
  0
VERTEX
  8
1
 10
4.6222
 20
26.6638
 30
0.0000
  0
VERTEX
  8
1
 10
4.6222
 20
13.1278
 30
0.0000
  0
SEQEND
  8
0
  0
POLYLINE
  8
1
 66
1
 10
0.0000
 20
0.0000
 30
0.0000
 40
0.4064
 41
0.4064
 70
0
  0
VERTEX
  8
1
 10
4.4190
 20
13.1278
 30
0.0000
 42
1.0000
  0
VERTEX
  8
1
 10
4.8254
 20
13.1278
 30
0.0000
  0
SEQEND
  8
0
  0
POLYLINE
  8
1
 66
1
 10
0.0000
 20
0.0000
 30
0.0000
 40
0.4064
 41
0.4064
 70
0
  0
VERTEX
  8
1
 10
4.8254
 20
26.6638
 30
0.0000
 42
1.0000
  0
VERTEX
  8
1
 10
4.4190
 20
26.6638
 30
0.0000
  0
SEQEND
  8
0
  0
POLYLINE
  8
1
 66
1
 10
0.0000
 20
0.0000
 30
0.0000
 40
0.8128
 41
0.8128
 70
0
  0
VERTEX
  8
1
 10
4.6222
 20
13.1278
 30
0.0000
  0
VERTEX
  8
1
 10
10.2500
 20
7.5000
 30
0.0000
  0
SEQEND
  8
0
  0
POLYLINE
  8
1
 66
1
 10
0.0000
 20
0.0000
 30
0.0000
 40
0.4064
 41
0.4064
 70
0
  0
VERTEX
  8
1
 10
10.1063
 20
7.3563
 30
0.0000
 42
1.0000
  0
VERTEX
  8
1
 10
10.3937
 20
7.6437
 30
0.0000
  0
SEQEND
  8
0
  0
POLYLINE
  8
1
 66
1
 10
0.0000
 20
0.0000
 30
0.0000
 40
0.4064
 41
0.4064
 70
0
  0
VERTEX
  8
1
 10
4.7659
 20
13.2715
 30
0.0000
 42
1.0000
  0
VERTEX
  8
1
 10
4.4785
 20
12.9841
 30
0.0000
  0
SEQEND
  8
0
  0
POLYLINE
  8
1
 66
1
 10
0.0000
 20
0.0000
 30
0.0000
 40
0.8128
 41
0.8128
 70
0
  0
VERTEX
  8
1
 10
10.2500
 20
7.5000
 30
0.0000
  0
VERTEX
  8
1
 10
40.7500
 20
7.5000
 30
0.0000
  0
SEQEND
  8
0
  0
POLYLINE
  8
1
 66
1
 10
0.0000
 20
0.0000
 30
0.0000
 40
0.4064
 41
0.4064
 70
0
  0
VERTEX
  8
1
 10
40.7500
 20
7.2968
 30
0.0000
 42
1.0000
  0
VERTEX
  8
1
 10
40.7500
 20
7.7032
 30
0.0000
  0
SEQEND
  8
0
  0
POLYLINE
  8
1
 66
1
 10
0.0000
 20
0.0000
 30
0.0000
 40
0.4064
 41
0.4064
 70
0
  0
VERTEX
  8
1
 10
10.2500
 20
7.7032
 30
0.0000
 42
1.0000
  0
VERTEX
  8
1
 10
10.2500
 20
7.2968
 30
0.0000
  0
SEQEND
  8
0
  0
POLYLINE
  8
1
 66
1
 10
0.0000
 20
0.0000
 30
0.0000
 40
0.8128
 41
0.8128
 70
0
  0
VERTEX
  8
1
 10
40.7500
 20
7.5000
 30
0.0000
  0
VERTEX
  8
1
 10
45.0193
 20
11.7693
 30
0.0000
  0
SEQEND
  8
0
  0
POLYLINE
  8
1
 66
1
 10
0.0000
 20
0.0000
 30
0.0000
 40
0.4064
 41
0.4064
 70
0
  0
VERTEX
  8
1
 10
45.1630
 20
11.6256
 30
0.0000
 42
1.0000
  0
VERTEX
  8
1
 10
44.8756
 20
11.9130
 30
0.0000
  0
SEQEND
  8
0
  0
POLYLINE
  8
1
 66
1
 10
0.0000
 20
0.0000
 30
0.0000
 40
0.4064
 41
0.4064
 70
0
  0
VERTEX
  8
1
 10
40.6063
 20
7.6437
 30
0.0000
 42
1.0000
  0
VERTEX
  8
1
 10
40.8937
 20
7.3563
 30
0.0000
  0
SEQEND
  8
0
  0
POLYLINE
  8
1
 66
1
 10
0.0000
 20
0.0000
 30
0.0000
 40
0.8128
 41
0.8128
 70
0
  0
VERTEX
  8
1
 10
45.0193
 20
18.6076
 30
0.0000
  0
VERTEX
  8
1
 10
45.0193
 20
11.7693
 30
0.0000
  0
SEQEND
  8
0
  0
POLYLINE
  8
1
 66
1
 10
0.0000
 20
0.0000
 30
0.0000
 40
0.4064
 41
0.4064
 70
0
  0
VERTEX
  8
1
 10
44.8161
 20
11.7693
 30
0.0000
 42
1.0000
  0
VERTEX
  8
1
 10
45.2225
 20
11.7693
 30
0.0000
  0
SEQEND
  8
0
  0
POLYLINE
  8
1
 66
1
 10
0.0000
 20
0.0000
 30
0.0000
 40
0.4064
 41
0.4064
 70
0
  0
VERTEX
  8
1
 10
45.2225
 20
18.6076
 30
0.0000
 42
1.0000
  0
VERTEX
  8
1
 10
44.8161
 20
18.6076
 30
0.0000
  0
SEQEND
  8
0
  0
POLYLINE
  8
1
 66
1
 10
0.0000
 20
0.0000
 30
0.0000
 40
0.8128
 41
0.8128
 70
0
  0
VERTEX
  8
1
 10
68.6090
 20
58.9139
 30
0.0000
  0
VERTEX
  8
1
 10
64.1639
 20
58.9139
 30
0.0000
  0
SEQEND
  8
0
  0
POLYLINE
  8
1
 66
1
 10
0.0000
 20
0.0000
 30
0.0000
 40
0.4064
 41
0.4064
 70
0
  0
VERTEX
  8
1
 10
64.1639
 20
59.1171
 30
0.0000
 42
1.0000
  0
VERTEX
  8
1
 10
64.1639
 20
58.7107
 30
0.0000
  0
SEQEND
  8
0
  0
POLYLINE
  8
1
 66
1
 10
0.0000
 20
0.0000
 30
0.0000
 40
0.4064
 41
0.4064
 70
0
  0
VERTEX
  8
1
 10
68.6090
 20
58.7107
 30
0.0000
 42
1.0000
  0
VERTEX
  8
1
 10
68.6090
 20
59.1171
 30
0.0000
  0
SEQEND
  8
0
  0
POLYLINE
  8
1
 66
1
 10
0.0000
 20
0.0000
 30
0.0000
 40
0.8128
 41
0.8128
 70
0
  0
VERTEX
  8
1
 10
61.0000
 20
55.7500
 30
0.0000
  0
VERTEX
  8
1
 10
61.0000
 20
48.5000
 30
0.0000
  0
SEQEND
  8
0
  0
POLYLINE
  8
1
 66
1
 10
0.0000
 20
0.0000
 30
0.0000
 40
0.4064
 41
0.4064
 70
0
  0
VERTEX
  8
1
 10
60.7968
 20
48.5000
 30
0.0000
 42
1.0000
  0
VERTEX
  8
1
 10
61.2032
 20
48.5000
 30
0.0000
  0
SEQEND
  8
0
  0
POLYLINE
  8
1
 66
1
 10
0.0000
 20
0.0000
 30
0.0000
 40
0.4064
 41
0.4064
 70
0
  0
VERTEX
  8
1
 10
61.2032
 20
55.7500
 30
0.0000
 42
1.0000
  0
VERTEX
  8
1
 10
60.7968
 20
55.7500
 30
0.0000
  0
SEQEND
  8
0
  0
POLYLINE
  8
1
 66
1
 10
0.0000
 20
0.0000
 30
0.0000
 40
0.8128
 41
0.8128
 70
0
  0
VERTEX
  8
1
 10
61.0000
 20
48.5000
 30
0.0000
  0
VERTEX
  8
1
 10
57.6282
 20
45.1282
 30
0.0000
  0
SEQEND
  8
0
  0
POLYLINE
  8
1
 66
1
 10
0.0000
 20
0.0000
 30
0.0000
 40
0.4064
 41
0.4064
 70
0
  0
VERTEX
  8
1
 10
57.4845
 20
45.2719
 30
0.0000
 42
1.0000
  0
VERTEX
  8
1
 10
57.7719
 20
44.9845
 30
0.0000
  0
SEQEND
  8
0
  0
POLYLINE
  8
1
 66
1
 10
0.0000
 20
0.0000
 30
0.0000
 40
0.4064
 41
0.4064
 70
0
  0
VERTEX
  8
1
 10
61.1437
 20
48.3563
 30
0.0000
 42
1.0000
  0
VERTEX
  8
1
 10
60.8563
 20
48.6437
 30
0.0000
  0
SEQEND
  8
0
  0
POLYLINE
  8
1
 66
1
 10
0.0000
 20
0.0000
 30
0.0000
 40
0.8128
 41
0.8128
 70
0
  0
VERTEX
  8
1
 10
64.1639
 20
58.9139
 30
0.0000
  0
VERTEX
  8
1
 10
61.0000
 20
55.7500
 30
0.0000
  0
SEQEND
  8
0
  0
POLYLINE
  8
1
 66
1
 10
0.0000
 20
0.0000
 30
0.0000
 40
0.4064
 41
0.4064
 70
0
  0
VERTEX
  8
1
 10
60.8563
 20
55.8937
 30
0.0000
 42
1.0000
  0
VERTEX
  8
1
 10
61.1437
 20
55.6063
 30
0.0000
  0
SEQEND
  8
0
  0
POLYLINE
  8
1
 66
1
 10
0.0000
 20
0.0000
 30
0.0000
 40
0.4064
 41
0.4064
 70
0
  0
VERTEX
  8
1
 10
64.3076
 20
58.7702
 30
0.0000
 42
1.0000
  0
VERTEX
  8
1
 10
64.0202
 20
59.0576
 30
0.0000
  0
SEQEND
  8
0
  0
POLYLINE
  8
1
 66
1
 10
0.0000
 20
0.0000
 30
0.0000
 40
0.8128
 41
0.8128
 70
0
  0
VERTEX
  8
1
 10
68.6090
 20
58.9139
 30
0.0000
  0
VERTEX
  8
1
 10
73.5861
 20
58.9139
 30
0.0000
  0
SEQEND
  8
0
  0
POLYLINE
  8
1
 66
1
 10
0.0000
 20
0.0000
 30
0.0000
 40
0.4064
 41
0.4064
 70
0
  0
VERTEX
  8
1
 10
73.5861
 20
58.7107
 30
0.0000
 42
1.0000
  0
VERTEX
  8
1
 10
73.5861
 20
59.1171
 30
0.0000
  0
SEQEND
  8
0
  0
POLYLINE
  8
1
 66
1
 10
0.0000
 20
0.0000
 30
0.0000
 40
0.4064
 41
0.4064
 70
0
  0
VERTEX
  8
1
 10
68.6090
 20
59.1171
 30
0.0000
 42
1.0000
  0
VERTEX
  8
1
 10
68.6090
 20
58.7107
 30
0.0000
  0
SEQEND
  8
0
  0
POLYLINE
  8
1
 66
1
 10
0.0000
 20
0.0000
 30
0.0000
 40
0.8128
 41
0.8128
 70
0
  0
VERTEX
  8
1
 10
73.5861
 20
58.9139
 30
0.0000
  0
VERTEX
  8
1
 10
79.7500
 20
52.7500
 30
0.0000
  0
SEQEND
  8
0
  0
POLYLINE
  8
1
 66
1
 10
0.0000
 20
0.0000
 30
0.0000
 40
0.4064
 41
0.4064
 70
0
  0
VERTEX
  8
1
 10
79.6063
 20
52.6063
 30
0.0000
 42
1.0000
  0
VERTEX
  8
1
 10
79.8937
 20
52.8937
 30
0.0000
  0
SEQEND
  8
0
  0
POLYLINE
  8
1
 66
1
 10
0.0000
 20
0.0000
 30
0.0000
 40
0.4064
 41
0.4064
 70
0
  0
VERTEX
  8
1
 10
73.7298
 20
59.0576
 30
0.0000
 42
1.0000
  0
VERTEX
  8
1
 10
73.4424
 20
58.7702
 30
0.0000
  0
SEQEND
  8
0
  0
POLYLINE
  8
1
 66
1
 10
0.0000
 20
0.0000
 30
0.0000
 40
0.8128
 41
0.8128
 70
0
  0
VERTEX
  8
1
 10
79.7500
 20
16.2500
 30
0.0000
  0
VERTEX
  8
1
 10
70.7500
 20
7.2500
 30
0.0000
  0
SEQEND
  8
0
  0
POLYLINE
  8
1
 66
1
 10
0.0000
 20
0.0000
 30
0.0000
 40
0.4064
 41
0.4064
 70
0
  0
VERTEX
  8
1
 10
70.6063
 20
7.3937
 30
0.0000
 42
1.0000
  0
VERTEX
  8
1
 10
70.8937
 20
7.1063
 30
0.0000
  0
SEQEND
  8
0
  0
POLYLINE
  8
1
 66
1
 10
0.0000
 20
0.0000
 30
0.0000
 40
0.4064
 41
0.4064
 70
0
  0
VERTEX
  8
1
 10
79.8937
 20
16.1063
 30
0.0000
 42
1.0000
  0
VERTEX
  8
1
 10
79.6063
 20
16.3937
 30
0.0000
  0
SEQEND
  8
0
  0
POLYLINE
  8
1
 66
1
 10
0.0000
 20
0.0000
 30
0.0000
 40
0.8128
 41
0.8128
 70
0
  0
VERTEX
  8
1
 10
70.7500
 20
7.2500
 30
0.0000
  0
VERTEX
  8
1
 10
49.5386
 20
7.2500
 30
0.0000
  0
SEQEND
  8
0
  0
POLYLINE
  8
1
 66
1
 10
0.0000
 20
0.0000
 30
0.0000
 40
0.4064
 41
0.4064
 70
0
  0
VERTEX
  8
1
 10
49.5386
 20
7.4532
 30
0.0000
 42
1.0000
  0
VERTEX
  8
1
 10
49.5386
 20
7.0468
 30
0.0000
  0
SEQEND
  8
0
  0
POLYLINE
  8
1
 66
1
 10
0.0000
 20
0.0000
 30
0.0000
 40
0.4064
 41
0.4064
 70
0
  0
VERTEX
  8
1
 10
70.7500
 20
7.0468
 30
0.0000
 42
1.0000
  0
VERTEX
  8
1
 10
70.7500
 20
7.4532
 30
0.0000
  0
SEQEND
  8
0
  0
POLYLINE
  8
1
 66
1
 10
0.0000
 20
0.0000
 30
0.0000
 40
0.8128
 41
0.8128
 70
0
  0
VERTEX
  8
1
 10
49.5386
 20
7.2500
 30
0.0000
  0
VERTEX
  8
1
 10
45.0193
 20
11.7693
 30
0.0000
  0
SEQEND
  8
0
  0
POLYLINE
  8
1
 66
1
 10
0.0000
 20
0.0000
 30
0.0000
 40
0.4064
 41
0.4064
 70
0
  0
VERTEX
  8
1
 10
45.1630
 20
11.9130
 30
0.0000
 42
1.0000
  0
VERTEX
  8
1
 10
44.8756
 20
11.6256
 30
0.0000
  0
SEQEND
  8
0
  0
POLYLINE
  8
1
 66
1
 10
0.0000
 20
0.0000
 30
0.0000
 40
0.4064
 41
0.4064
 70
0
  0
VERTEX
  8
1
 10
49.3949
 20
7.1063
 30
0.0000
 42
1.0000
  0
VERTEX
  8
1
 10
49.6823
 20
7.3937
 30
0.0000
  0
SEQEND
  8
0
  0
POLYLINE
  8
1
 66
1
 10
0.0000
 20
0.0000
 30
0.0000
 40
0.8128
 41
0.8128
 70
0
  0
VERTEX
  8
1
 10
79.7500
 20
52.7500
 30
0.0000
  0
VERTEX
  8
1
 10
79.7500
 20
16.2500
 30
0.0000
  0
SEQEND
  8
0
  0
POLYLINE
  8
1
 66
1
 10
0.0000
 20
0.0000
 30
0.0000
 40
0.4064
 41
0.4064
 70
0
  0
VERTEX
  8
1
 10
79.5468
 20
16.2500
 30
0.0000
 42
1.0000
  0
VERTEX
  8
1
 10
79.9532
 20
16.2500
 30
0.0000
  0
SEQEND
  8
0
  0
POLYLINE
  8
1
 66
1
 10
0.0000
 20
0.0000
 30
0.0000
 40
0.4064
 41
0.4064
 70
0
  0
VERTEX
  8
1
 10
79.9532
 20
52.7500
 30
0.0000
 42
1.0000
  0
VERTEX
  8
1
 10
79.5468
 20
52.7500
 30
0.0000
  0
SEQEND
  8
0
  0
POLYLINE
  8
1
 66
1
 10
0.0000
 20
0.0000
 30
0.0000
 40
0.8128
 41
0.8128
 70
0
  0
VERTEX
  8
1
 10
19.6193
 20
21.1476
 30
0.0000
  0
VERTEX
  8
1
 10
19.6193
 20
22.1193
 30
0.0000
  0
SEQEND
  8
0
  0
POLYLINE
  8
1
 66
1
 10
0.0000
 20
0.0000
 30
0.0000
 40
0.4064
 41
0.4064
 70
0
  0
VERTEX
  8
1
 10
19.8225
 20
22.1193
 30
0.0000
 42
1.0000
  0
VERTEX
  8
1
 10
19.4161
 20
22.1193
 30
0.0000
  0
SEQEND
  8
0
  0
POLYLINE
  8
1
 66
1
 10
0.0000
 20
0.0000
 30
0.0000
 40
0.4064
 41
0.4064
 70
0
  0
VERTEX
  8
1
 10
19.4161
 20
21.1476
 30
0.0000
 42
1.0000
  0
VERTEX
  8
1
 10
19.8225
 20
21.1476
 30
0.0000
  0
SEQEND
  8
0
  0
POLYLINE
  8
1
 66
1
 10
0.0000
 20
0.0000
 30
0.0000
 40
0.8128
 41
0.8128
 70
0
  0
VERTEX
  8
1
 10
24.2500
 20
26.7500
 30
0.0000
  0
VERTEX
  8
1
 10
33.5000
 20
26.7500
 30
0.0000
  0
SEQEND
  8
0
  0
POLYLINE
  8
1
 66
1
 10
0.0000
 20
0.0000
 30
0.0000
 40
0.4064
 41
0.4064
 70
0
  0
VERTEX
  8
1
 10
33.5000
 20
26.5468
 30
0.0000
 42
1.0000
  0
VERTEX
  8
1
 10
33.5000
 20
26.9532
 30
0.0000
  0
SEQEND
  8
0
  0
POLYLINE
  8
1
 66
1
 10
0.0000
 20
0.0000
 30
0.0000
 40
0.4064
 41
0.4064
 70
0
  0
VERTEX
  8
1
 10
24.2500
 20
26.9532
 30
0.0000
 42
1.0000
  0
VERTEX
  8
1
 10
24.2500
 20
26.5468
 30
0.0000
  0
SEQEND
  8
0
  0
POLYLINE
  8
1
 66
1
 10
0.0000
 20
0.0000
 30
0.0000
 40
0.8128
 41
0.8128
 70
0
  0
VERTEX
  8
1
 10
33.5000
 20
26.7500
 30
0.0000
  0
VERTEX
  8
1
 10
38.5000
 20
31.7500
 30
0.0000
  0
SEQEND
  8
0
  0
POLYLINE
  8
1
 66
1
 10
0.0000
 20
0.0000
 30
0.0000
 40
0.4064
 41
0.4064
 70
0
  0
VERTEX
  8
1
 10
38.6437
 20
31.6063
 30
0.0000
 42
1.0000
  0
VERTEX
  8
1
 10
38.3563
 20
31.8937
 30
0.0000
  0
SEQEND
  8
0
  0
POLYLINE
  8
1
 66
1
 10
0.0000
 20
0.0000
 30
0.0000
 40
0.4064
 41
0.4064
 70
0
  0
VERTEX
  8
1
 10
33.3563
 20
26.8937
 30
0.0000
 42
1.0000
  0
VERTEX
  8
1
 10
33.6437
 20
26.6063
 30
0.0000
  0
SEQEND
  8
0
  0
POLYLINE
  8
1
 66
1
 10
0.0000
 20
0.0000
 30
0.0000
 40
0.8128
 41
0.8128
 70
0
  0
VERTEX
  8
1
 10
19.6193
 20
22.1193
 30
0.0000
  0
VERTEX
  8
1
 10
24.2500
 20
26.7500
 30
0.0000
  0
SEQEND
  8
0
  0
POLYLINE
  8
1
 66
1
 10
0.0000
 20
0.0000
 30
0.0000
 40
0.4064
 41
0.4064
 70
0
  0
VERTEX
  8
1
 10
24.3937
 20
26.6063
 30
0.0000
 42
1.0000
  0
VERTEX
  8
1
 10
24.1063
 20
26.8937
 30
0.0000
  0
SEQEND
  8
0
  0
POLYLINE
  8
1
 66
1
 10
0.0000
 20
0.0000
 30
0.0000
 40
0.4064
 41
0.4064
 70
0
  0
VERTEX
  8
1
 10
19.4756
 20
22.2630
 30
0.0000
 42
1.0000
  0
VERTEX
  8
1
 10
19.7630
 20
21.9756
 30
0.0000
  0
SEQEND
  8
0
  0
POLYLINE
  8
1
 66
1
 10
0.0000
 20
0.0000
 30
0.0000
 40
0.8128
 41
0.8128
 70
0
  0
VERTEX
  8
1
 10
38.5000
 20
37.8298
 30
0.0000
  0
VERTEX
  8
1
 10
36.8033
 20
39.5265
 30
0.0000
  0
SEQEND
  8
0
  0
POLYLINE
  8
1
 66
1
 10
0.0000
 20
0.0000
 30
0.0000
 40
0.4064
 41
0.4064
 70
0
  0
VERTEX
  8
1
 10
36.9470
 20
39.6702
 30
0.0000
 42
1.0000
  0
VERTEX
  8
1
 10
36.6596
 20
39.3828
 30
0.0000
  0
SEQEND
  8
0
  0
POLYLINE
  8
1
 66
1
 10
0.0000
 20
0.0000
 30
0.0000
 40
0.4064
 41
0.4064
 70
0
  0
VERTEX
  8
1
 10
38.3563
 20
37.6861
 30
0.0000
 42
1.0000
  0
VERTEX
  8
1
 10
38.6437
 20
37.9735
 30
0.0000
  0
SEQEND
  8
0
  0
POLYLINE
  8
1
 66
1
 10
0.0000
 20
0.0000
 30
0.0000
 40
0.8128
 41
0.8128
 70
0
  0
VERTEX
  8
1
 10
35.8033
 20
39.5265
 30
0.0000
  0
VERTEX
  8
1
 10
36.8033
 20
39.5265
 30
0.0000
  0
SEQEND
  8
0
  0
POLYLINE
  8
1
 66
1
 10
0.0000
 20
0.0000
 30
0.0000
 40
0.4064
 41
0.4064
 70
0
  0
VERTEX
  8
1
 10
36.8033
 20
39.3233
 30
0.0000
 42
1.0000
  0
VERTEX
  8
1
 10
36.8033
 20
39.7297
 30
0.0000
  0
SEQEND
  8
0
  0
POLYLINE
  8
1
 66
1
 10
0.0000
 20
0.0000
 30
0.0000
 40
0.4064
 41
0.4064
 70
0
  0
VERTEX
  8
1
 10
35.8033
 20
39.7297
 30
0.0000
 42
1.0000
  0
VERTEX
  8
1
 10
35.8033
 20
39.3233
 30
0.0000
  0
SEQEND
  8
0
  0
POLYLINE
  8
1
 66
1
 10
0.0000
 20
0.0000
 30
0.0000
 40
0.8128
 41
0.8128
 70
0
  0
VERTEX
  8
1
 10
38.5000
 20
37.8298
 30
0.0000
  0
VERTEX
  8
1
 10
38.5000
 20
31.7500
 30
0.0000
  0
SEQEND
  8
0
  0
POLYLINE
  8
1
 66
1
 10
0.0000
 20
0.0000
 30
0.0000
 40
0.4064
 41
0.4064
 70
0
  0
VERTEX
  8
1
 10
38.2968
 20
31.7500
 30
0.0000
 42
1.0000
  0
VERTEX
  8
1
 10
38.7032
 20
31.7500
 30
0.0000
  0
SEQEND
  8
0
  0
POLYLINE
  8
1
 66
1
 10
0.0000
 20
0.0000
 30
0.0000
 40
0.4064
 41
0.4064
 70
0
  0
VERTEX
  8
1
 10
38.7032
 20
37.8298
 30
0.0000
 42
1.0000
  0
VERTEX
  8
1
 10
38.2968
 20
37.8298
 30
0.0000
  0
SEQEND
  8
0
  0
POLYLINE
  8
1
 66
1
 10
0.0000
 20
0.0000
 30
0.0000
 40
0.8128
 41
0.8128
 70
0
  0
VERTEX
  8
1
 10
50.8897
 20
45.1282
 30
0.0000
  0
VERTEX
  8
1
 10
57.6282
 20
45.1282
 30
0.0000
  0
SEQEND
  8
0
  0
POLYLINE
  8
1
 66
1
 10
0.0000
 20
0.0000
 30
0.0000
 40
0.4064
 41
0.4064
 70
0
  0
VERTEX
  8
1
 10
57.6282
 20
44.9250
 30
0.0000
 42
1.0000
  0
VERTEX
  8
1
 10
57.6282
 20
45.3314
 30
0.0000
  0
SEQEND
  8
0
  0
POLYLINE
  8
1
 66
1
 10
0.0000
 20
0.0000
 30
0.0000
 40
0.4064
 41
0.4064
 70
0
  0
VERTEX
  8
1
 10
50.8897
 20
45.3314
 30
0.0000
 42
1.0000
  0
VERTEX
  8
1
 10
50.8897
 20
44.9250
 30
0.0000
  0
SEQEND
  8
0
  0
POLYLINE
  8
1
 66
1
 10
0.0000
 20
0.0000
 30
0.0000
 40
0.8128
 41
0.8128
 70
0
  0
VERTEX
  8
1
 10
51.5109
 20
30.2197
 30
0.0000
  0
VERTEX
  8
1
 10
51.5109
 20
35.5109
 30
0.0000
  0
SEQEND
  8
0
  0
POLYLINE
  8
1
 66
1
 10
0.0000
 20
0.0000
 30
0.0000
 40
0.4064
 41
0.4064
 70
0
  0
VERTEX
  8
1
 10
51.7141
 20
35.5109
 30
0.0000
 42
1.0000
  0
VERTEX
  8
1
 10
51.3077
 20
35.5109
 30
0.0000
  0
SEQEND
  8
0
  0
POLYLINE
  8
1
 66
1
 10
0.0000
 20
0.0000
 30
0.0000
 40
0.4064
 41
0.4064
 70
0
  0
VERTEX
  8
1
 10
51.3077
 20
30.2197
 30
0.0000
 42
1.0000
  0
VERTEX
  8
1
 10
51.7141
 20
30.2197
 30
0.0000
  0
SEQEND
  8
0
  0
POLYLINE
  8
1
 66
1
 10
0.0000
 20
0.0000
 30
0.0000
 40
0.8128
 41
0.8128
 70
0
  0
VERTEX
  8
1
 10
54.2500
 20
38.2500
 30
0.0000
  0
VERTEX
  8
1
 10
66.7500
 20
38.2500
 30
0.0000
  0
SEQEND
  8
0
  0
POLYLINE
  8
1
 66
1
 10
0.0000
 20
0.0000
 30
0.0000
 40
0.4064
 41
0.4064
 70
0
  0
VERTEX
  8
1
 10
66.7500
 20
38.0468
 30
0.0000
 42
1.0000
  0
VERTEX
  8
1
 10
66.7500
 20
38.4532
 30
0.0000
  0
SEQEND
  8
0
  0
POLYLINE
  8
1
 66
1
 10
0.0000
 20
0.0000
 30
0.0000
 40
0.4064
 41
0.4064
 70
0
  0
VERTEX
  8
1
 10
54.2500
 20
38.4532
 30
0.0000
 42
1.0000
  0
VERTEX
  8
1
 10
54.2500
 20
38.0468
 30
0.0000
  0
SEQEND
  8
0
  0
POLYLINE
  8
1
 66
1
 10
0.0000
 20
0.0000
 30
0.0000
 40
0.8128
 41
0.8128
 70
0
  0
VERTEX
  8
1
 10
66.7500
 20
38.2500
 30
0.0000
  0
VERTEX
  8
1
 10
72.2500
 20
32.7500
 30
0.0000
  0
SEQEND
  8
0
  0
POLYLINE
  8
1
 66
1
 10
0.0000
 20
0.0000
 30
0.0000
 40
0.4064
 41
0.4064
 70
0
  0
VERTEX
  8
1
 10
72.1063
 20
32.6063
 30
0.0000
 42
1.0000
  0
VERTEX
  8
1
 10
72.3937
 20
32.8937
 30
0.0000
  0
SEQEND
  8
0
  0
POLYLINE
  8
1
 66
1
 10
0.0000
 20
0.0000
 30
0.0000
 40
0.4064
 41
0.4064
 70
0
  0
VERTEX
  8
1
 10
66.8937
 20
38.3937
 30
0.0000
 42
1.0000
  0
VERTEX
  8
1
 10
66.6063
 20
38.1063
 30
0.0000
  0
SEQEND
  8
0
  0
POLYLINE
  8
1
 66
1
 10
0.0000
 20
0.0000
 30
0.0000
 40
0.8128
 41
0.8128
 70
0
  0
VERTEX
  8
1
 10
72.2500
 20
12.5000
 30
0.0000
  0
VERTEX
  8
1
 10
69.0000
 20
9.2500
 30
0.0000
  0
SEQEND
  8
0
  0
POLYLINE
  8
1
 66
1
 10
0.0000
 20
0.0000
 30
0.0000
 40
0.4064
 41
0.4064
 70
0
  0
VERTEX
  8
1
 10
68.8563
 20
9.3937
 30
0.0000
 42
1.0000
  0
VERTEX
  8
1
 10
69.1437
 20
9.1063
 30
0.0000
  0
SEQEND
  8
0
  0
POLYLINE
  8
1
 66
1
 10
0.0000
 20
0.0000
 30
0.0000
 40
0.4064
 41
0.4064
 70
0
  0
VERTEX
  8
1
 10
72.3937
 20
12.3563
 30
0.0000
 42
1.0000
  0
VERTEX
  8
1
 10
72.1063
 20
12.6437
 30
0.0000
  0
SEQEND
  8
0
  0
POLYLINE
  8
1
 66
1
 10
0.0000
 20
0.0000
 30
0.0000
 40
0.8128
 41
0.8128
 70
0
  0
VERTEX
  8
1
 10
69.0000
 20
9.2500
 30
0.0000
  0
VERTEX
  8
1
 10
58.5000
 20
9.2500
 30
0.0000
  0
SEQEND
  8
0
  0
POLYLINE
  8
1
 66
1
 10
0.0000
 20
0.0000
 30
0.0000
 40
0.4064
 41
0.4064
 70
0
  0
VERTEX
  8
1
 10
58.5000
 20
9.4532
 30
0.0000
 42
1.0000
  0
VERTEX
  8
1
 10
58.5000
 20
9.0468
 30
0.0000
  0
SEQEND
  8
0
  0
POLYLINE
  8
1
 66
1
 10
0.0000
 20
0.0000
 30
0.0000
 40
0.4064
 41
0.4064
 70
0
  0
VERTEX
  8
1
 10
69.0000
 20
9.0468
 30
0.0000
 42
1.0000
  0
VERTEX
  8
1
 10
69.0000
 20
9.4532
 30
0.0000
  0
SEQEND
  8
0
  0
POLYLINE
  8
1
 66
1
 10
0.0000
 20
0.0000
 30
0.0000
 40
0.8128
 41
0.8128
 70
0
  0
VERTEX
  8
1
 10
55.1793
 20
12.5707
 30
0.0000
  0
VERTEX
  8
1
 10
55.1793
 20
18.6076
 30
0.0000
  0
SEQEND
  8
0
  0
POLYLINE
  8
1
 66
1
 10
0.0000
 20
0.0000
 30
0.0000
 40
0.4064
 41
0.4064
 70
0
  0
VERTEX
  8
1
 10
55.3825
 20
18.6076
 30
0.0000
 42
1.0000
  0
VERTEX
  8
1
 10
54.9761
 20
18.6076
 30
0.0000
  0
SEQEND
  8
0
  0
POLYLINE
  8
1
 66
1
 10
0.0000
 20
0.0000
 30
0.0000
 40
0.4064
 41
0.4064
 70
0
  0
VERTEX
  8
1
 10
54.9761
 20
12.5707
 30
0.0000
 42
1.0000
  0
VERTEX
  8
1
 10
55.3825
 20
12.5707
 30
0.0000
  0
SEQEND
  8
0
  0
POLYLINE
  8
1
 66
1
 10
0.0000
 20
0.0000
 30
0.0000
 40
0.8128
 41
0.8128
 70
0
  0
VERTEX
  8
1
 10
51.5109
 20
35.5109
 30
0.0000
  0
VERTEX
  8
1
 10
54.2500
 20
38.2500
 30
0.0000
  0
SEQEND
  8
0
  0
POLYLINE
  8
1
 66
1
 10
0.0000
 20
0.0000
 30
0.0000
 40
0.4064
 41
0.4064
 70
0
  0
VERTEX
  8
1
 10
54.3937
 20
38.1063
 30
0.0000
 42
1.0000
  0
VERTEX
  8
1
 10
54.1063
 20
38.3937
 30
0.0000
  0
SEQEND
  8
0
  0
POLYLINE
  8
1
 66
1
 10
0.0000
 20
0.0000
 30
0.0000
 40
0.4064
 41
0.4064
 70
0
  0
VERTEX
  8
1
 10
51.3672
 20
35.6546
 30
0.0000
 42
1.0000
  0
VERTEX
  8
1
 10
51.6546
 20
35.3672
 30
0.0000
  0
SEQEND
  8
0
  0
POLYLINE
  8
1
 66
1
 10
0.0000
 20
0.0000
 30
0.0000
 40
0.8128
 41
0.8128
 70
0
  0
VERTEX
  8
1
 10
72.2500
 20
32.7500
 30
0.0000
  0
VERTEX
  8
1
 10
72.2500
 20
12.5000
 30
0.0000
  0
SEQEND
  8
0
  0
POLYLINE
  8
1
 66
1
 10
0.0000
 20
0.0000
 30
0.0000
 40
0.4064
 41
0.4064
 70
0
  0
VERTEX
  8
1
 10
72.0468
 20
12.5000
 30
0.0000
 42
1.0000
  0
VERTEX
  8
1
 10
72.4532
 20
12.5000
 30
0.0000
  0
SEQEND
  8
0
  0
POLYLINE
  8
1
 66
1
 10
0.0000
 20
0.0000
 30
0.0000
 40
0.4064
 41
0.4064
 70
0
  0
VERTEX
  8
1
 10
72.4532
 20
32.7500
 30
0.0000
 42
1.0000
  0
VERTEX
  8
1
 10
72.0468
 20
32.7500
 30
0.0000
  0
SEQEND
  8
0
  0
POLYLINE
  8
1
 66
1
 10
0.0000
 20
0.0000
 30
0.0000
 40
0.8128
 41
0.8128
 70
0
  0
VERTEX
  8
1
 10
58.5000
 20
9.2500
 30
0.0000
  0
VERTEX
  8
1
 10
55.1793
 20
12.5707
 30
0.0000
  0
SEQEND
  8
0
  0
POLYLINE
  8
1
 66
1
 10
0.0000
 20
0.0000
 30
0.0000
 40
0.4064
 41
0.4064
 70
0
  0
VERTEX
  8
1
 10
55.3230
 20
12.7144
 30
0.0000
 42
1.0000
  0
VERTEX
  8
1
 10
55.0356
 20
12.4270
 30
0.0000
  0
SEQEND
  8
0
  0
POLYLINE
  8
1
 66
1
 10
0.0000
 20
0.0000
 30
0.0000
 40
0.4064
 41
0.4064
 70
0
  0
VERTEX
  8
1
 10
58.3563
 20
9.1063
 30
0.0000
 42
1.0000
  0
VERTEX
  8
1
 10
58.6437
 20
9.3937
 30
0.0000
  0
SEQEND
  8
0
  0
POLYLINE
  8
1
 66
1
 10
0.0000
 20
0.0000
 30
0.0000
 40
0.8128
 41
0.8128
 70
0
  0
VERTEX
  8
1
 10
57.7193
 20
21.1476
 30
0.0000
  0
VERTEX
  8
1
 10
57.7193
 20
23.3013
 30
0.0000
  0
SEQEND
  8
0
  0
POLYLINE
  8
1
 66
1
 10
0.0000
 20
0.0000
 30
0.0000
 40
0.4064
 41
0.4064
 70
0
  0
VERTEX
  8
1
 10
57.9225
 20
23.3013
 30
0.0000
 42
1.0000
  0
VERTEX
  8
1
 10
57.5161
 20
23.3013
 30
0.0000
  0
SEQEND
  8
0
  0
POLYLINE
  8
1
 66
1
 10
0.0000
 20
0.0000
 30
0.0000
 40
0.4064
 41
0.4064
 70
0
  0
VERTEX
  8
1
 10
57.5161
 20
21.1476
 30
0.0000
 42
1.0000
  0
VERTEX
  8
1
 10
57.9225
 20
21.1476
 30
0.0000
  0
SEQEND
  8
0
  0
POLYLINE
  8
1
 66
1
 10
0.0000
 20
0.0000
 30
0.0000
 40
0.8128
 41
0.8128
 70
0
  0
VERTEX
  8
1
 10
57.7193
 20
23.3013
 30
0.0000
  0
VERTEX
  8
1
 10
54.0509
 20
26.9697
 30
0.0000
  0
SEQEND
  8
0
  0
POLYLINE
  8
1
 66
1
 10
0.0000
 20
0.0000
 30
0.0000
 40
0.4064
 41
0.4064
 70
0
  0
VERTEX
  8
1
 10
54.1946
 20
27.1134
 30
0.0000
 42
1.0000
  0
VERTEX
  8
1
 10
53.9072
 20
26.8260
 30
0.0000
  0
SEQEND
  8
0
  0
POLYLINE
  8
1
 66
1
 10
0.0000
 20
0.0000
 30
0.0000
 40
0.4064
 41
0.4064
 70
0
  0
VERTEX
  8
1
 10
57.5756
 20
23.1576
 30
0.0000
 42
1.0000
  0
VERTEX
  8
1
 10
57.8630
 20
23.4450
 30
0.0000
  0
SEQEND
  8
0
  0
POLYLINE
  8
1
 66
1
 10
0.0000
 20
0.0000
 30
0.0000
 40
0.8128
 41
0.8128
 70
0
  0
VERTEX
  8
1
 10
54.0509
 20
26.9697
 30
0.0000
  0
VERTEX
  8
1
 10
54.0509
 20
30.2197
 30
0.0000
  0
SEQEND
  8
0
  0
POLYLINE
  8
1
 66
1
 10
0.0000
 20
0.0000
 30
0.0000
 40
0.4064
 41
0.4064
 70
0
  0
VERTEX
  8
1
 10
54.2541
 20
30.2197
 30
0.0000
 42
1.0000
  0
VERTEX
  8
1
 10
53.8477
 20
30.2197
 30
0.0000
  0
SEQEND
  8
0
  0
POLYLINE
  8
1
 66
1
 10
0.0000
 20
0.0000
 30
0.0000
 40
0.4064
 41
0.4064
 70
0
  0
VERTEX
  8
1
 10
53.8477
 20
26.9697
 30
0.0000
 42
1.0000
  0
VERTEX
  8
1
 10
54.2541
 20
26.9697
 30
0.0000
  0
SEQEND
  8
0
  0
POLYLINE
  8
1
 66
1
 10
0.0000
 20
0.0000
 30
0.0000
 40
0.8128
 41
0.8128
 70
0
  0
VERTEX
  8
1
 10
56.5909
 20
30.2197
 30
0.0000
  0
VERTEX
  8
1
 10
56.5909
 20
35.0909
 30
0.0000
  0
SEQEND
  8
0
  0
POLYLINE
  8
1
 66
1
 10
0.0000
 20
0.0000
 30
0.0000
 40
0.4064
 41
0.4064
 70
0
  0
VERTEX
  8
1
 10
56.7941
 20
35.0909
 30
0.0000
 42
1.0000
  0
VERTEX
  8
1
 10
56.3877
 20
35.0909
 30
0.0000
  0
SEQEND
  8
0
  0
POLYLINE
  8
1
 66
1
 10
0.0000
 20
0.0000
 30
0.0000
 40
0.4064
 41
0.4064
 70
0
  0
VERTEX
  8
1
 10
56.3877
 20
30.2197
 30
0.0000
 42
1.0000
  0
VERTEX
  8
1
 10
56.7941
 20
30.2197
 30
0.0000
  0
SEQEND
  8
0
  0
POLYLINE
  8
1
 66
1
 10
0.0000
 20
0.0000
 30
0.0000
 40
0.8128
 41
0.8128
 70
0
  0
VERTEX
  8
1
 10
56.5909
 20
35.0909
 30
0.0000
  0
VERTEX
  8
1
 10
57.5000
 20
36.0000
 30
0.0000
  0
SEQEND
  8
0
  0
POLYLINE
  8
1
 66
1
 10
0.0000
 20
0.0000
 30
0.0000
 40
0.4064
 41
0.4064
 70
0
  0
VERTEX
  8
1
 10
57.6437
 20
35.8563
 30
0.0000
 42
1.0000
  0
VERTEX
  8
1
 10
57.3563
 20
36.1437
 30
0.0000
  0
SEQEND
  8
0
  0
POLYLINE
  8
1
 66
1
 10
0.0000
 20
0.0000
 30
0.0000
 40
0.4064
 41
0.4064
 70
0
  0
VERTEX
  8
1
 10
56.4472
 20
35.2346
 30
0.0000
 42
1.0000
  0
VERTEX
  8
1
 10
56.7346
 20
34.9472
 30
0.0000
  0
SEQEND
  8
0
  0
POLYLINE
  8
1
 66
1
 10
0.0000
 20
0.0000
 30
0.0000
 40
0.8128
 41
0.8128
 70
0
  0
VERTEX
  8
1
 10
57.5000
 20
36.0000
 30
0.0000
  0
VERTEX
  8
1
 10
66.0000
 20
36.0000
 30
0.0000
  0
SEQEND
  8
0
  0
POLYLINE
  8
1
 66
1
 10
0.0000
 20
0.0000
 30
0.0000
 40
0.4064
 41
0.4064
 70
0
  0
VERTEX
  8
1
 10
66.0000
 20
35.7968
 30
0.0000
 42
1.0000
  0
VERTEX
  8
1
 10
66.0000
 20
36.2032
 30
0.0000
  0
SEQEND
  8
0
  0
POLYLINE
  8
1
 66
1
 10
0.0000
 20
0.0000
 30
0.0000
 40
0.4064
 41
0.4064
 70
0
  0
VERTEX
  8
1
 10
57.5000
 20
36.2032
 30
0.0000
 42
1.0000
  0
VERTEX
  8
1
 10
57.5000
 20
35.7968
 30
0.0000
  0
SEQEND
  8
0
  0
POLYLINE
  8
1
 66
1
 10
0.0000
 20
0.0000
 30
0.0000
 40
0.8128
 41
0.8128
 70
0
  0
VERTEX
  8
1
 10
70.2500
 20
13.5000
 30
0.0000
  0
VERTEX
  8
1
 10
68.0000
 20
11.2500
 30
0.0000
  0
SEQEND
  8
0
  0
POLYLINE
  8
1
 66
1
 10
0.0000
 20
0.0000
 30
0.0000
 40
0.4064
 41
0.4064
 70
0
  0
VERTEX
  8
1
 10
67.8563
 20
11.3937
 30
0.0000
 42
1.0000
  0
VERTEX
  8
1
 10
68.1437
 20
11.1063
 30
0.0000
  0
SEQEND
  8
0
  0
POLYLINE
  8
1
 66
1
 10
0.0000
 20
0.0000
 30
0.0000
 40
0.4064
 41
0.4064
 70
0
  0
VERTEX
  8
1
 10
70.3937
 20
13.3563
 30
0.0000
 42
1.0000
  0
VERTEX
  8
1
 10
70.1063
 20
13.6437
 30
0.0000
  0
SEQEND
  8
0
  0
POLYLINE
  8
1
 66
1
 10
0.0000
 20
0.0000
 30
0.0000
 40
0.8128
 41
0.8128
 70
0
  0
VERTEX
  8
1
 10
68.0000
 20
11.2500
 30
0.0000
  0
VERTEX
  8
1
 10
60.0000
 20
11.2500
 30
0.0000
  0
SEQEND
  8
0
  0
POLYLINE
  8
1
 66
1
 10
0.0000
 20
0.0000
 30
0.0000
 40
0.4064
 41
0.4064
 70
0
  0
VERTEX
  8
1
 10
60.0000
 20
11.4532
 30
0.0000
 42
1.0000
  0
VERTEX
  8
1
 10
60.0000
 20
11.0468
 30
0.0000
  0
SEQEND
  8
0
  0
POLYLINE
  8
1
 66
1
 10
0.0000
 20
0.0000
 30
0.0000
 40
0.4064
 41
0.4064
 70
0
  0
VERTEX
  8
1
 10
68.0000
 20
11.0468
 30
0.0000
 42
1.0000
  0
VERTEX
  8
1
 10
68.0000
 20
11.4532
 30
0.0000
  0
SEQEND
  8
0
  0
POLYLINE
  8
1
 66
1
 10
0.0000
 20
0.0000
 30
0.0000
 40
0.8128
 41
0.8128
 70
0
  0
VERTEX
  8
1
 10
57.7193
 20
13.5307
 30
0.0000
  0
VERTEX
  8
1
 10
57.7193
 20
18.6076
 30
0.0000
  0
SEQEND
  8
0
  0
POLYLINE
  8
1
 66
1
 10
0.0000
 20
0.0000
 30
0.0000
 40
0.4064
 41
0.4064
 70
0
  0
VERTEX
  8
1
 10
57.9225
 20
18.6076
 30
0.0000
 42
1.0000
  0
VERTEX
  8
1
 10
57.5161
 20
18.6076
 30
0.0000
  0
SEQEND
  8
0
  0
POLYLINE
  8
1
 66
1
 10
0.0000
 20
0.0000
 30
0.0000
 40
0.4064
 41
0.4064
 70
0
  0
VERTEX
  8
1
 10
57.5161
 20
13.5307
 30
0.0000
 42
1.0000
  0
VERTEX
  8
1
 10
57.9225
 20
13.5307
 30
0.0000
  0
SEQEND
  8
0
  0
POLYLINE
  8
1
 66
1
 10
0.0000
 20
0.0000
 30
0.0000
 40
0.8128
 41
0.8128
 70
0
  0
VERTEX
  8
1
 10
66.0000
 20
36.0000
 30
0.0000
  0
VERTEX
  8
1
 10
70.2500
 20
31.7500
 30
0.0000
  0
SEQEND
  8
0
  0
POLYLINE
  8
1
 66
1
 10
0.0000
 20
0.0000
 30
0.0000
 40
0.4064
 41
0.4064
 70
0
  0
VERTEX
  8
1
 10
70.1063
 20
31.6063
 30
0.0000
 42
1.0000
  0
VERTEX
  8
1
 10
70.3937
 20
31.8937
 30
0.0000
  0
SEQEND
  8
0
  0
POLYLINE
  8
1
 66
1
 10
0.0000
 20
0.0000
 30
0.0000
 40
0.4064
 41
0.4064
 70
0
  0
VERTEX
  8
1
 10
66.1437
 20
36.1437
 30
0.0000
 42
1.0000
  0
VERTEX
  8
1
 10
65.8563
 20
35.8563
 30
0.0000
  0
SEQEND
  8
0
  0
POLYLINE
  8
1
 66
1
 10
0.0000
 20
0.0000
 30
0.0000
 40
0.8128
 41
0.8128
 70
0
  0
VERTEX
  8
1
 10
70.2500
 20
31.7500
 30
0.0000
  0
VERTEX
  8
1
 10
70.2500
 20
13.5000
 30
0.0000
  0
SEQEND
  8
0
  0
POLYLINE
  8
1
 66
1
 10
0.0000
 20
0.0000
 30
0.0000
 40
0.4064
 41
0.4064
 70
0
  0
VERTEX
  8
1
 10
70.0468
 20
13.5000
 30
0.0000
 42
1.0000
  0
VERTEX
  8
1
 10
70.4532
 20
13.5000
 30
0.0000
  0
SEQEND
  8
0
  0
POLYLINE
  8
1
 66
1
 10
0.0000
 20
0.0000
 30
0.0000
 40
0.4064
 41
0.4064
 70
0
  0
VERTEX
  8
1
 10
70.4532
 20
31.7500
 30
0.0000
 42
1.0000
  0
VERTEX
  8
1
 10
70.0468
 20
31.7500
 30
0.0000
  0
SEQEND
  8
0
  0
POLYLINE
  8
1
 66
1
 10
0.0000
 20
0.0000
 30
0.0000
 40
0.8128
 41
0.8128
 70
0
  0
VERTEX
  8
1
 10
60.0000
 20
11.2500
 30
0.0000
  0
VERTEX
  8
1
 10
57.7193
 20
13.5307
 30
0.0000
  0
SEQEND
  8
0
  0
POLYLINE
  8
1
 66
1
 10
0.0000
 20
0.0000
 30
0.0000
 40
0.4064
 41
0.4064
 70
0
  0
VERTEX
  8
1
 10
57.8630
 20
13.6744
 30
0.0000
 42
1.0000
  0
VERTEX
  8
1
 10
57.5756
 20
13.3870
 30
0.0000
  0
SEQEND
  8
0
  0
POLYLINE
  8
1
 66
1
 10
0.0000
 20
0.0000
 30
0.0000
 40
0.4064
 41
0.4064
 70
0
  0
VERTEX
  8
1
 10
59.8563
 20
11.1063
 30
0.0000
 42
1.0000
  0
VERTEX
  8
1
 10
60.1437
 20
11.3937
 30
0.0000
  0
SEQEND
  8
0
  0
POLYLINE
  8
1
 66
1
 10
0.0000
 20
0.0000
 30
0.0000
 40
0.8128
 41
0.8128
 70
0
  0
VERTEX
  8
1
 10
60.2593
 20
25.5913
 30
0.0000
  0
VERTEX
  8
1
 10
59.1309
 20
26.7197
 30
0.0000
  0
SEQEND
  8
0
  0
POLYLINE
  8
1
 66
1
 10
0.0000
 20
0.0000
 30
0.0000
 40
0.4064
 41
0.4064
 70
0
  0
VERTEX
  8
1
 10
59.2746
 20
26.8634
 30
0.0000
 42
1.0000
  0
VERTEX
  8
1
 10
58.9872
 20
26.5760
 30
0.0000
  0
SEQEND
  8
0
  0
POLYLINE
  8
1
 66
1
 10
0.0000
 20
0.0000
 30
0.0000
 40
0.4064
 41
0.4064
 70
0
  0
VERTEX
  8
1
 10
60.1156
 20
25.4476
 30
0.0000
 42
1.0000
  0
VERTEX
  8
1
 10
60.4030
 20
25.7350
 30
0.0000
  0
SEQEND
  8
0
  0
POLYLINE
  8
1
 66
1
 10
0.0000
 20
0.0000
 30
0.0000
 40
0.8128
 41
0.8128
 70
0
  0
VERTEX
  8
1
 10
59.1309
 20
30.2197
 30
0.0000
  0
VERTEX
  8
1
 10
59.1309
 20
26.7197
 30
0.0000
  0
SEQEND
  8
0
  0
POLYLINE
  8
1
 66
1
 10
0.0000
 20
0.0000
 30
0.0000
 40
0.4064
 41
0.4064
 70
0
  0
VERTEX
  8
1
 10
58.9277
 20
26.7197
 30
0.0000
 42
1.0000
  0
VERTEX
  8
1
 10
59.3341
 20
26.7197
 30
0.0000
  0
SEQEND
  8
0
  0
POLYLINE
  8
1
 66
1
 10
0.0000
 20
0.0000
 30
0.0000
 40
0.4064
 41
0.4064
 70
0
  0
VERTEX
  8
1
 10
59.3341
 20
30.2197
 30
0.0000
 42
1.0000
  0
VERTEX
  8
1
 10
58.9277
 20
30.2197
 30
0.0000
  0
SEQEND
  8
0
  0
POLYLINE
  8
1
 66
1
 10
0.0000
 20
0.0000
 30
0.0000
 40
0.8128
 41
0.8128
 70
0
  0
VERTEX
  8
1
 10
60.2593
 20
25.5913
 30
0.0000
  0
VERTEX
  8
1
 10
60.2593
 20
21.1476
 30
0.0000
  0
SEQEND
  8
0
  0
POLYLINE
  8
1
 66
1
 10
0.0000
 20
0.0000
 30
0.0000
 40
0.4064
 41
0.4064
 70
0
  0
VERTEX
  8
1
 10
60.0561
 20
21.1476
 30
0.0000
 42
1.0000
  0
VERTEX
  8
1
 10
60.4625
 20
21.1476
 30
0.0000
  0
SEQEND
  8
0
  0
POLYLINE
  8
1
 66
1
 10
0.0000
 20
0.0000
 30
0.0000
 40
0.4064
 41
0.4064
 70
0
  0
VERTEX
  8
1
 10
60.4625
 20
25.5913
 30
0.0000
 42
1.0000
  0
VERTEX
  8
1
 10
60.0561
 20
25.5913
 30
0.0000
  0
SEQEND
  8
0
  0
POLYLINE
  8
1
 66
1
 10
0.0000
 20
0.0000
 30
0.0000
 40
0.8128
 41
0.8128
 70
0
  0
VERTEX
  8
1
 10
62.7993
 20
21.1476
 30
0.0000
  0
VERTEX
  8
1
 10
62.7993
 20
23.5493
 30
0.0000
  0
SEQEND
  8
0
  0
POLYLINE
  8
1
 66
1
 10
0.0000
 20
0.0000
 30
0.0000
 40
0.4064
 41
0.4064
 70
0
  0
VERTEX
  8
1
 10
63.0025
 20
23.5493
 30
0.0000
 42
1.0000
  0
VERTEX
  8
1
 10
62.5961
 20
23.5493
 30
0.0000
  0
SEQEND
  8
0
  0
POLYLINE
  8
1
 66
1
 10
0.0000
 20
0.0000
 30
0.0000
 40
0.4064
 41
0.4064
 70
0
  0
VERTEX
  8
1
 10
62.5961
 20
21.1476
 30
0.0000
 42
1.0000
  0
VERTEX
  8
1
 10
63.0025
 20
21.1476
 30
0.0000
  0
SEQEND
  8
0
  0
POLYLINE
  8
1
 66
1
 10
0.0000
 20
0.0000
 30
0.0000
 40
0.8128
 41
0.8128
 70
0
  0
VERTEX
  8
1
 10
64.2109
 20
30.2197
 30
0.0000
  0
VERTEX
  8
1
 10
64.2109
 20
24.9609
 30
0.0000
  0
SEQEND
  8
0
  0
POLYLINE
  8
1
 66
1
 10
0.0000
 20
0.0000
 30
0.0000
 40
0.4064
 41
0.4064
 70
0
  0
VERTEX
  8
1
 10
64.0077
 20
24.9609
 30
0.0000
 42
1.0000
  0
VERTEX
  8
1
 10
64.4141
 20
24.9609
 30
0.0000
  0
SEQEND
  8
0
  0
POLYLINE
  8
1
 66
1
 10
0.0000
 20
0.0000
 30
0.0000
 40
0.4064
 41
0.4064
 70
0
  0
VERTEX
  8
1
 10
64.4141
 20
30.2197
 30
0.0000
 42
1.0000
  0
VERTEX
  8
1
 10
64.0077
 20
30.2197
 30
0.0000
  0
SEQEND
  8
0
  0
POLYLINE
  8
1
 66
1
 10
0.0000
 20
0.0000
 30
0.0000
 40
0.8128
 41
0.8128
 70
0
  0
VERTEX
  8
1
 10
62.7993
 20
23.5493
 30
0.0000
  0
VERTEX
  8
1
 10
64.2109
 20
24.9609
 30
0.0000
  0
SEQEND
  8
0
  0
POLYLINE
  8
1
 66
1
 10
0.0000
 20
0.0000
 30
0.0000
 40
0.4064
 41
0.4064
 70
0
  0
VERTEX
  8
1
 10
64.3546
 20
24.8172
 30
0.0000
 42
1.0000
  0
VERTEX
  8
1
 10
64.0672
 20
25.1046
 30
0.0000
  0
SEQEND
  8
0
  0
POLYLINE
  8
1
 66
1
 10
0.0000
 20
0.0000
 30
0.0000
 40
0.4064
 41
0.4064
 70
0
  0
VERTEX
  8
1
 10
62.6556
 20
23.6930
 30
0.0000
 42
1.0000
  0
VERTEX
  8
1
 10
62.9430
 20
23.4056
 30
0.0000
  0
SEQEND
  8
0
  0
POLYLINE
  8
1
 66
1
 10
0.0000
 20
0.0000
 30
0.0000
 40
0.8128
 41
0.8128
 70
0
  0
VERTEX
  8
1
 10
61.6709
 20
30.2197
 30
0.0000
  0
VERTEX
  8
1
 10
61.6709
 20
33.5000
 30
0.0000
  0
SEQEND
  8
0
  0
POLYLINE
  8
1
 66
1
 10
0.0000
 20
0.0000
 30
0.0000
 40
0.4064
 41
0.4064
 70
0
  0
VERTEX
  8
1
 10
61.8741
 20
33.5000
 30
0.0000
 42
1.0000
  0
VERTEX
  8
1
 10
61.4677
 20
33.5000
 30
0.0000
  0
SEQEND
  8
0
  0
POLYLINE
  8
1
 66
1
 10
0.0000
 20
0.0000
 30
0.0000
 40
0.4064
 41
0.4064
 70
0
  0
VERTEX
  8
1
 10
61.4677
 20
30.2197
 30
0.0000
 42
1.0000
  0
VERTEX
  8
1
 10
61.8741
 20
30.2197
 30
0.0000
  0
SEQEND
  8
0
  0
POLYLINE
  8
1
 66
1
 10
0.0000
 20
0.0000
 30
0.0000
 40
0.8128
 41
0.8128
 70
0
  0
VERTEX
  8
1
 10
68.0000
 20
30.5000
 30
0.0000
  0
VERTEX
  8
1
 10
68.0000
 20
14.5000
 30
0.0000
  0
SEQEND
  8
0
  0
POLYLINE
  8
1
 66
1
 10
0.0000
 20
0.0000
 30
0.0000
 40
0.4064
 41
0.4064
 70
0
  0
VERTEX
  8
1
 10
67.7968
 20
14.5000
 30
0.0000
 42
1.0000
  0
VERTEX
  8
1
 10
68.2032
 20
14.5000
 30
0.0000
  0
SEQEND
  8
0
  0
POLYLINE
  8
1
 66
1
 10
0.0000
 20
0.0000
 30
0.0000
 40
0.4064
 41
0.4064
 70
0
  0
VERTEX
  8
1
 10
68.2032
 20
30.5000
 30
0.0000
 42
1.0000
  0
VERTEX
  8
1
 10
67.7968
 20
30.5000
 30
0.0000
  0
SEQEND
  8
0
  0
POLYLINE
  8
1
 66
1
 10
0.0000
 20
0.0000
 30
0.0000
 40
0.8128
 41
0.8128
 70
0
  0
VERTEX
  8
1
 10
68.0000
 20
14.5000
 30
0.0000
  0
VERTEX
  8
1
 10
66.7500
 20
13.2500
 30
0.0000
  0
SEQEND
  8
0
  0
POLYLINE
  8
1
 66
1
 10
0.0000
 20
0.0000
 30
0.0000
 40
0.4064
 41
0.4064
 70
0
  0
VERTEX
  8
1
 10
66.6063
 20
13.3937
 30
0.0000
 42
1.0000
  0
VERTEX
  8
1
 10
66.8937
 20
13.1063
 30
0.0000
  0
SEQEND
  8
0
  0
POLYLINE
  8
1
 66
1
 10
0.0000
 20
0.0000
 30
0.0000
 40
0.4064
 41
0.4064
 70
0
  0
VERTEX
  8
1
 10
68.1437
 20
14.3563
 30
0.0000
 42
1.0000
  0
VERTEX
  8
1
 10
67.8563
 20
14.6437
 30
0.0000
  0
SEQEND
  8
0
  0
POLYLINE
  8
1
 66
1
 10
0.0000
 20
0.0000
 30
0.0000
 40
0.8128
 41
0.8128
 70
0
  0
VERTEX
  8
1
 10
66.7500
 20
13.2500
 30
0.0000
  0
VERTEX
  8
1
 10
62.5000
 20
13.2500
 30
0.0000
  0
SEQEND
  8
0
  0
POLYLINE
  8
1
 66
1
 10
0.0000
 20
0.0000
 30
0.0000
 40
0.4064
 41
0.4064
 70
0
  0
VERTEX
  8
1
 10
62.5000
 20
13.4532
 30
0.0000
 42
1.0000
  0
VERTEX
  8
1
 10
62.5000
 20
13.0468
 30
0.0000
  0
SEQEND
  8
0
  0
POLYLINE
  8
1
 66
1
 10
0.0000
 20
0.0000
 30
0.0000
 40
0.4064
 41
0.4064
 70
0
  0
VERTEX
  8
1
 10
66.7500
 20
13.0468
 30
0.0000
 42
1.0000
  0
VERTEX
  8
1
 10
66.7500
 20
13.4532
 30
0.0000
  0
SEQEND
  8
0
  0
POLYLINE
  8
1
 66
1
 10
0.0000
 20
0.0000
 30
0.0000
 40
0.8128
 41
0.8128
 70
0
  0
VERTEX
  8
1
 10
60.2593
 20
15.4907
 30
0.0000
  0
VERTEX
  8
1
 10
60.2593
 20
18.6076
 30
0.0000
  0
SEQEND
  8
0
  0
POLYLINE
  8
1
 66
1
 10
0.0000
 20
0.0000
 30
0.0000
 40
0.4064
 41
0.4064
 70
0
  0
VERTEX
  8
1
 10
60.4625
 20
18.6076
 30
0.0000
 42
1.0000
  0
VERTEX
  8
1
 10
60.0561
 20
18.6076
 30
0.0000
  0
SEQEND
  8
0
  0
POLYLINE
  8
1
 66
1
 10
0.0000
 20
0.0000
 30
0.0000
 40
0.4064
 41
0.4064
 70
0
  0
VERTEX
  8
1
 10
60.0561
 20
15.4907
 30
0.0000
 42
1.0000
  0
VERTEX
  8
1
 10
60.4625
 20
15.4907
 30
0.0000
  0
SEQEND
  8
0
  0
POLYLINE
  8
1
 66
1
 10
0.0000
 20
0.0000
 30
0.0000
 40
0.8128
 41
0.8128
 70
0
  0
VERTEX
  8
1
 10
62.5000
 20
13.2500
 30
0.0000
  0
VERTEX
  8
1
 10
60.2593
 20
15.4907
 30
0.0000
  0
SEQEND
  8
0
  0
POLYLINE
  8
1
 66
1
 10
0.0000
 20
0.0000
 30
0.0000
 40
0.4064
 41
0.4064
 70
0
  0
VERTEX
  8
1
 10
60.4030
 20
15.6344
 30
0.0000
 42
1.0000
  0
VERTEX
  8
1
 10
60.1156
 20
15.3470
 30
0.0000
  0
SEQEND
  8
0
  0
POLYLINE
  8
1
 66
1
 10
0.0000
 20
0.0000
 30
0.0000
 40
0.4064
 41
0.4064
 70
0
  0
VERTEX
  8
1
 10
62.3563
 20
13.1063
 30
0.0000
 42
1.0000
  0
VERTEX
  8
1
 10
62.6437
 20
13.3937
 30
0.0000
  0
SEQEND
  8
0
  0
POLYLINE
  8
1
 66
1
 10
0.0000
 20
0.0000
 30
0.0000
 40
0.8128
 41
0.8128
 70
0
  0
VERTEX
  8
1
 10
61.6709
 20
33.5000
 30
0.0000
  0
VERTEX
  8
1
 10
65.0000
 20
33.5000
 30
0.0000
  0
SEQEND
  8
0
  0
POLYLINE
  8
1
 66
1
 10
0.0000
 20
0.0000
 30
0.0000
 40
0.4064
 41
0.4064
 70
0
  0
VERTEX
  8
1
 10
65.0000
 20
33.2968
 30
0.0000
 42
1.0000
  0
VERTEX
  8
1
 10
65.0000
 20
33.7032
 30
0.0000
  0
SEQEND
  8
0
  0
POLYLINE
  8
1
 66
1
 10
0.0000
 20
0.0000
 30
0.0000
 40
0.4064
 41
0.4064
 70
0
  0
VERTEX
  8
1
 10
61.6709
 20
33.7032
 30
0.0000
 42
1.0000
  0
VERTEX
  8
1
 10
61.6709
 20
33.2968
 30
0.0000
  0
SEQEND
  8
0
  0
POLYLINE
  8
1
 66
1
 10
0.0000
 20
0.0000
 30
0.0000
 40
0.8128
 41
0.8128
 70
0
  0
VERTEX
  8
1
 10
65.0000
 20
33.5000
 30
0.0000
  0
VERTEX
  8
1
 10
68.0000
 20
30.5000
 30
0.0000
  0
SEQEND
  8
0
  0
POLYLINE
  8
1
 66
1
 10
0.0000
 20
0.0000
 30
0.0000
 40
0.4064
 41
0.4064
 70
0
  0
VERTEX
  8
1
 10
67.8563
 20
30.3563
 30
0.0000
 42
1.0000
  0
VERTEX
  8
1
 10
68.1437
 20
30.6437
 30
0.0000
  0
SEQEND
  8
0
  0
POLYLINE
  8
1
 66
1
 10
0.0000
 20
0.0000
 30
0.0000
 40
0.4064
 41
0.4064
 70
0
  0
VERTEX
  8
1
 10
65.1437
 20
33.6437
 30
0.0000
 42
1.0000
  0
VERTEX
  8
1
 10
64.8563
 20
33.3563
 30
0.0000
  0
SEQEND
  8
0
  0
POLYLINE
  8
1
 66
1
 10
0.0000
 20
0.0000
 30
0.0000
 40
1.0160
 41
1.0160
 70
0
  0
VERTEX
  8
1
 10
79.9633
 20
6.7414
 30
0.0000
  0
VERTEX
  8
1
 10
79.9633
 20
3.2867
 30
0.0000
  0
SEQEND
  8
0
  0
POLYLINE
  8
1
 66
1
 10
0.0000
 20
0.0000
 30
0.0000
 40
0.5080
 41
0.5080
 70
0
  0
VERTEX
  8
1
 10
79.7093
 20
3.2867
 30
0.0000
 42
1.0000
  0
VERTEX
  8
1
 10
80.2173
 20
3.2867
 30
0.0000
  0
SEQEND
  8
0
  0
POLYLINE
  8
1
 66
1
 10
0.0000
 20
0.0000
 30
0.0000
 40
0.5080
 41
0.5080
 70
0
  0
VERTEX
  8
1
 10
80.2173
 20
6.7414
 30
0.0000
 42
1.0000
  0
VERTEX
  8
1
 10
79.7093
 20
6.7414
 30
0.0000
  0
SEQEND
  8
0
  0
POLYLINE
  8
1
 66
1
 10
0.0000
 20
0.0000
 30
0.0000
 40
1.0160
 41
1.0160
 70
0
  0
VERTEX
  8
1
 10
81.2500
 20
2.0000
 30
0.0000
  0
VERTEX
  8
1
 10
91.2500
 20
2.0000
 30
0.0000
  0
SEQEND
  8
0
  0
POLYLINE
  8
1
 66
1
 10
0.0000
 20
0.0000
 30
0.0000
 40
0.5080
 41
0.5080
 70
0
  0
VERTEX
  8
1
 10
91.2500
 20
1.7460
 30
0.0000
 42
1.0000
  0
VERTEX
  8
1
 10
91.2500
 20
2.2540
 30
0.0000
  0
SEQEND
  8
0
  0
POLYLINE
  8
1
 66
1
 10
0.0000
 20
0.0000
 30
0.0000
 40
0.5080
 41
0.5080
 70
0
  0
VERTEX
  8
1
 10
81.2500
 20
2.2540
 30
0.0000
 42
1.0000
  0
VERTEX
  8
1
 10
81.2500
 20
1.7460
 30
0.0000
  0
SEQEND
  8
0
  0
POLYLINE
  8
1
 66
1
 10
0.0000
 20
0.0000
 30
0.0000
 40
1.0160
 41
1.0160
 70
0
  0
VERTEX
  8
1
 10
91.2500
 20
2.0000
 30
0.0000
  0
VERTEX
  8
1
 10
93.5673
 20
4.3173
 30
0.0000
  0
SEQEND
  8
0
  0
POLYLINE
  8
1
 66
1
 10
0.0000
 20
0.0000
 30
0.0000
 40
0.5080
 41
0.5080
 70
0
  0
VERTEX
  8
1
 10
93.7469
 20
4.1377
 30
0.0000
 42
1.0000
  0
VERTEX
  8
1
 10
93.3877
 20
4.4969
 30
0.0000
  0
SEQEND
  8
0
  0
POLYLINE
  8
1
 66
1
 10
0.0000
 20
0.0000
 30
0.0000
 40
0.5080
 41
0.5080
 70
0
  0
VERTEX
  8
1
 10
91.0704
 20
2.1796
 30
0.0000
 42
1.0000
  0
VERTEX
  8
1
 10
91.4296
 20
1.8204
 30
0.0000
  0
SEQEND
  8
0
  0
POLYLINE
  8
1
 66
1
 10
0.0000
 20
0.0000
 30
0.0000
 40
1.0160
 41
1.0160
 70
0
  0
VERTEX
  8
1
 10
93.5673
 20
4.3173
 30
0.0000
  0
VERTEX
  8
1
 10
93.5673
 20
6.6387
 30
0.0000
  0
SEQEND
  8
0
  0
POLYLINE
  8
1
 66
1
 10
0.0000
 20
0.0000
 30
0.0000
 40
0.5080
 41
0.5080
 70
0
  0
VERTEX
  8
1
 10
93.8213
 20
6.6387
 30
0.0000
 42
1.0000
  0
VERTEX
  8
1
 10
93.3133
 20
6.6387
 30
0.0000
  0
SEQEND
  8
0
  0
POLYLINE
  8
1
 66
1
 10
0.0000
 20
0.0000
 30
0.0000
 40
0.5080
 41
0.5080
 70
0
  0
VERTEX
  8
1
 10
93.3133
 20
4.3173
 30
0.0000
 42
1.0000
  0
VERTEX
  8
1
 10
93.8213
 20
4.3173
 30
0.0000
  0
SEQEND
  8
0
  0
POLYLINE
  8
1
 66
1
 10
0.0000
 20
0.0000
 30
0.0000
 40
1.0160
 41
1.0160
 70
0
  0
VERTEX
  8
1
 10
79.9633
 20
3.2867
 30
0.0000
  0
VERTEX
  8
1
 10
81.2500
 20
2.0000
 30
0.0000
  0
SEQEND
  8
0
  0
POLYLINE
  8
1
 66
1
 10
0.0000
 20
0.0000
 30
0.0000
 40
0.5080
 41
0.5080
 70
0
  0
VERTEX
  8
1
 10
81.0704
 20
1.8204
 30
0.0000
 42
1.0000
  0
VERTEX
  8
1
 10
81.4296
 20
2.1796
 30
0.0000
  0
SEQEND
  8
0
  0
POLYLINE
  8
1
 66
1
 10
0.0000
 20
0.0000
 30
0.0000
 40
0.5080
 41
0.5080
 70
0
  0
VERTEX
  8
1
 10
80.1429
 20
3.4663
 30
0.0000
 42
1.0000
  0
VERTEX
  8
1
 10
79.7837
 20
3.1071
 30
0.0000
  0
SEQEND
  8
0
  0
POLYLINE
  8
1
 66
1
 10
0.0000
 20
0.0000
 30
0.0000
 40
0.8128
 41
0.8128
 70
0
  0
VERTEX
  8
1
 10
24.6993
 20
21.6993
 30
0.0000
  0
VERTEX
  8
1
 10
24.6993
 20
21.1476
 30
0.0000
  0
SEQEND
  8
0
  0
POLYLINE
  8
1
 66
1
 10
0.0000
 20
0.0000
 30
0.0000
 40
0.4064
 41
0.4064
 70
0
  0
VERTEX
  8
1
 10
24.4961
 20
21.1476
 30
0.0000
 42
1.0000
  0
VERTEX
  8
1
 10
24.9025
 20
21.1476
 30
0.0000
  0
SEQEND
  8
0
  0
POLYLINE
  8
1
 66
1
 10
0.0000
 20
0.0000
 30
0.0000
 40
0.4064
 41
0.4064
 70
0
  0
VERTEX
  8
1
 10
24.9025
 20
21.6993
 30
0.0000
 42
1.0000
  0
VERTEX
  8
1
 10
24.4961
 20
21.6993
 30
0.0000
  0
SEQEND
  8
0
  0
POLYLINE
  8
1
 66
1
 10
0.0000
 20
0.0000
 30
0.0000
 40
0.8128
 41
0.8128
 70
0
  0
VERTEX
  8
1
 10
26.2500
 20
23.2500
 30
0.0000
  0
VERTEX
  8
1
 10
38.7500
 20
23.2500
 30
0.0000
  0
SEQEND
  8
0
  0
POLYLINE
  8
1
 66
1
 10
0.0000
 20
0.0000
 30
0.0000
 40
0.4064
 41
0.4064
 70
0
  0
VERTEX
  8
1
 10
38.7500
 20
23.0468
 30
0.0000
 42
1.0000
  0
VERTEX
  8
1
 10
38.7500
 20
23.4532
 30
0.0000
  0
SEQEND
  8
0
  0
POLYLINE
  8
1
 66
1
 10
0.0000
 20
0.0000
 30
0.0000
 40
0.4064
 41
0.4064
 70
0
  0
VERTEX
  8
1
 10
26.2500
 20
23.4532
 30
0.0000
 42
1.0000
  0
VERTEX
  8
1
 10
26.2500
 20
23.0468
 30
0.0000
  0
SEQEND
  8
0
  0
POLYLINE
  8
1
 66
1
 10
0.0000
 20
0.0000
 30
0.0000
 40
0.8128
 41
0.8128
 70
0
  0
VERTEX
  8
1
 10
26.2500
 20
23.2500
 30
0.0000
  0
VERTEX
  8
1
 10
24.6993
 20
21.6993
 30
0.0000
  0
SEQEND
  8
0
  0
POLYLINE
  8
1
 66
1
 10
0.0000
 20
0.0000
 30
0.0000
 40
0.4064
 41
0.4064
 70
0
  0
VERTEX
  8
1
 10
24.5556
 20
21.8430
 30
0.0000
 42
1.0000
  0
VERTEX
  8
1
 10
24.8430
 20
21.5556
 30
0.0000
  0
SEQEND
  8
0
  0
POLYLINE
  8
1
 66
1
 10
0.0000
 20
0.0000
 30
0.0000
 40
0.4064
 41
0.4064
 70
0
  0
VERTEX
  8
1
 10
26.3937
 20
23.1063
 30
0.0000
 42
1.0000
  0
VERTEX
  8
1
 10
26.1063
 20
23.3937
 30
0.0000
  0
SEQEND
  8
0
  0
POLYLINE
  8
1
 66
1
 10
0.0000
 20
0.0000
 30
0.0000
 40
0.8128
 41
0.8128
 70
0
  0
VERTEX
  8
1
 10
50.8897
 20
47.6682
 30
0.0000
  0
VERTEX
  8
1
 10
45.4182
 20
47.6682
 30
0.0000
  0
SEQEND
  8
0
  0
POLYLINE
  8
1
 66
1
 10
0.0000
 20
0.0000
 30
0.0000
 40
0.4064
 41
0.4064
 70
0
  0
VERTEX
  8
1
 10
45.4182
 20
47.8714
 30
0.0000
 42
1.0000
  0
VERTEX
  8
1
 10
45.4182
 20
47.4650
 30
0.0000
  0
SEQEND
  8
0
  0
POLYLINE
  8
1
 66
1
 10
0.0000
 20
0.0000
 30
0.0000
 40
0.4064
 41
0.4064
 70
0
  0
VERTEX
  8
1
 10
50.8897
 20
47.4650
 30
0.0000
 42
1.0000
  0
VERTEX
  8
1
 10
50.8897
 20
47.8714
 30
0.0000
  0
SEQEND
  8
0
  0
POLYLINE
  8
1
 66
1
 10
0.0000
 20
0.0000
 30
0.0000
 40
0.8128
 41
0.8128
 70
0
  0
VERTEX
  8
1
 10
45.4182
 20
47.6682
 30
0.0000
  0
VERTEX
  8
1
 10
43.0000
 20
45.2500
 30
0.0000
  0
SEQEND
  8
0
  0
POLYLINE
  8
1
 66
1
 10
0.0000
 20
0.0000
 30
0.0000
 40
0.4064
 41
0.4064
 70
0
  0
VERTEX
  8
1
 10
42.8563
 20
45.3937
 30
0.0000
 42
1.0000
  0
VERTEX
  8
1
 10
43.1437
 20
45.1063
 30
0.0000
  0
SEQEND
  8
0
  0
POLYLINE
  8
1
 66
1
 10
0.0000
 20
0.0000
 30
0.0000
 40
0.4064
 41
0.4064
 70
0
  0
VERTEX
  8
1
 10
45.5619
 20
47.5245
 30
0.0000
 42
1.0000
  0
VERTEX
  8
1
 10
45.2745
 20
47.8119
 30
0.0000
  0
SEQEND
  8
0
  0
POLYLINE
  8
1
 66
1
 10
0.0000
 20
0.0000
 30
0.0000
 40
0.8128
 41
0.8128
 70
0
  0
VERTEX
  8
1
 10
43.0000
 20
45.2500
 30
0.0000
  0
VERTEX
  8
1
 10
43.0000
 20
27.5000
 30
0.0000
  0
SEQEND
  8
0
  0
POLYLINE
  8
1
 66
1
 10
0.0000
 20
0.0000
 30
0.0000
 40
0.4064
 41
0.4064
 70
0
  0
VERTEX
  8
1
 10
42.7968
 20
27.5000
 30
0.0000
 42
1.0000
  0
VERTEX
  8
1
 10
43.2032
 20
27.5000
 30
0.0000
  0
SEQEND
  8
0
  0
POLYLINE
  8
1
 66
1
 10
0.0000
 20
0.0000
 30
0.0000
 40
0.4064
 41
0.4064
 70
0
  0
VERTEX
  8
1
 10
43.2032
 20
45.2500
 30
0.0000
 42
1.0000
  0
VERTEX
  8
1
 10
42.7968
 20
45.2500
 30
0.0000
  0
SEQEND
  8
0
  0
POLYLINE
  8
1
 66
1
 10
0.0000
 20
0.0000
 30
0.0000
 40
0.8128
 41
0.8128
 70
0
  0
VERTEX
  8
1
 10
38.7500
 20
23.2500
 30
0.0000
  0
VERTEX
  8
1
 10
43.0000
 20
27.5000
 30
0.0000
  0
SEQEND
  8
0
  0
POLYLINE
  8
1
 66
1
 10
0.0000
 20
0.0000
 30
0.0000
 40
0.4064
 41
0.4064
 70
0
  0
VERTEX
  8
1
 10
43.1437
 20
27.3563
 30
0.0000
 42
1.0000
  0
VERTEX
  8
1
 10
42.8563
 20
27.6437
 30
0.0000
  0
SEQEND
  8
0
  0
POLYLINE
  8
1
 66
1
 10
0.0000
 20
0.0000
 30
0.0000
 40
0.4064
 41
0.4064
 70
0
  0
VERTEX
  8
1
 10
38.6063
 20
23.3937
 30
0.0000
 42
1.0000
  0
VERTEX
  8
1
 10
38.8937
 20
23.1063
 30
0.0000
  0
SEQEND
  8
0
  0
POLYLINE
  8
1
 66
1
 10
0.0000
 20
0.0000
 30
0.0000
 40
0.8128
 41
0.8128
 70
0
  0
VERTEX
  8
1
 10
50.8897
 20
55.2882
 30
0.0000
  0
VERTEX
  8
1
 10
48.2118
 20
55.2882
 30
0.0000
  0
SEQEND
  8
0
  0
POLYLINE
  8
1
 66
1
 10
0.0000
 20
0.0000
 30
0.0000
 40
0.4064
 41
0.4064
 70
0
  0
VERTEX
  8
1
 10
48.2118
 20
55.4914
 30
0.0000
 42
1.0000
  0
VERTEX
  8
1
 10
48.2118
 20
55.0850
 30
0.0000
  0
SEQEND
  8
0
  0
POLYLINE
  8
1
 66
1
 10
0.0000
 20
0.0000
 30
0.0000
 40
0.4064
 41
0.4064
 70
0
  0
VERTEX
  8
1
 10
50.8897
 20
55.0850
 30
0.0000
 42
1.0000
  0
VERTEX
  8
1
 10
50.8897
 20
55.4914
 30
0.0000
  0
SEQEND
  8
0
  0
POLYLINE
  8
1
 66
1
 10
0.0000
 20
0.0000
 30
0.0000
 40
0.8128
 41
0.8128
 70
0
  0
VERTEX
  8
1
 10
48.2118
 20
55.2882
 30
0.0000
  0
VERTEX
  8
1
 10
38.5735
 20
64.9265
 30
0.0000
  0
SEQEND
  8
0
  0
POLYLINE
  8
1
 66
1
 10
0.0000
 20
0.0000
 30
0.0000
 40
0.4064
 41
0.4064
 70
0
  0
VERTEX
  8
1
 10
38.7172
 20
65.0702
 30
0.0000
 42
1.0000
  0
VERTEX
  8
1
 10
38.4298
 20
64.7828
 30
0.0000
  0
SEQEND
  8
0
  0
POLYLINE
  8
1
 66
1
 10
0.0000
 20
0.0000
 30
0.0000
 40
0.4064
 41
0.4064
 70
0
  0
VERTEX
  8
1
 10
48.0681
 20
55.1445
 30
0.0000
 42
1.0000
  0
VERTEX
  8
1
 10
48.3555
 20
55.4319
 30
0.0000
  0
SEQEND
  8
0
  0
POLYLINE
  8
1
 66
1
 10
0.0000
 20
0.0000
 30
0.0000
 40
0.8128
 41
0.8128
 70
0
  0
VERTEX
  8
1
 10
35.8033
 20
64.9265
 30
0.0000
  0
VERTEX
  8
1
 10
38.5735
 20
64.9265
 30
0.0000
  0
SEQEND
  8
0
  0
POLYLINE
  8
1
 66
1
 10
0.0000
 20
0.0000
 30
0.0000
 40
0.4064
 41
0.4064
 70
0
  0
VERTEX
  8
1
 10
38.5735
 20
64.7233
 30
0.0000
 42
1.0000
  0
VERTEX
  8
1
 10
38.5735
 20
65.1297
 30
0.0000
  0
SEQEND
  8
0
  0
POLYLINE
  8
1
 66
1
 10
0.0000
 20
0.0000
 30
0.0000
 40
0.4064
 41
0.4064
 70
0
  0
VERTEX
  8
1
 10
35.8033
 20
65.1297
 30
0.0000
 42
1.0000
  0
VERTEX
  8
1
 10
35.8033
 20
64.7233
 30
0.0000
  0
SEQEND
  8
0
  0
POLYLINE
  8
1
 66
1
 10
0.0000
 20
0.0000
 30
0.0000
 40
0.8128
 41
0.8128
 70
0
  0
VERTEX
  8
1
 10
20.5633
 20
62.3865
 30
0.0000
  0
VERTEX
  8
1
 10
19.5088
 20
63.4410
 30
0.0000
  0
SEQEND
  8
0
  0
POLYLINE
  8
1
 66
1
 10
0.0000
 20
0.0000
 30
0.0000
 40
0.4064
 41
0.4064
 70
0
  0
VERTEX
  8
1
 10
19.6525
 20
63.5847
 30
0.0000
 42
1.0000
  0
VERTEX
  8
1
 10
19.3651
 20
63.2973
 30
0.0000
  0
SEQEND
  8
0
  0
POLYLINE
  8
1
 66
1
 10
0.0000
 20
0.0000
 30
0.0000
 40
0.4064
 41
0.4064
 70
0
  0
VERTEX
  8
1
 10
20.4196
 20
62.2428
 30
0.0000
 42
1.0000
  0
VERTEX
  8
1
 10
20.7070
 20
62.5302
 30
0.0000
  0
SEQEND
  8
0
  0
POLYLINE
  8
1
 66
1
 10
0.0000
 20
0.0000
 30
0.0000
 40
0.8128
 41
0.8128
 70
0
  0
VERTEX
  8
1
 10
19.5088
 20
63.4410
 30
0.0000
  0
VERTEX
  8
1
 10
12.9522
 20
63.4410
 30
0.0000
  0
SEQEND
  8
0
  0
POLYLINE
  8
1
 66
1
 10
0.0000
 20
0.0000
 30
0.0000
 40
0.4064
 41
0.4064
 70
0
  0
VERTEX
  8
1
 10
12.9522
 20
63.6442
 30
0.0000
 42
1.0000
  0
VERTEX
  8
1
 10
12.9522
 20
63.2378
 30
0.0000
  0
SEQEND
  8
0
  0
POLYLINE
  8
1
 66
1
 10
0.0000
 20
0.0000
 30
0.0000
 40
0.4064
 41
0.4064
 70
0
  0
VERTEX
  8
1
 10
19.5088
 20
63.2378
 30
0.0000
 42
1.0000
  0
VERTEX
  8
1
 10
19.5088
 20
63.6442
 30
0.0000
  0
SEQEND
  8
0
  0
POLYLINE
  8
1
 66
1
 10
0.0000
 20
0.0000
 30
0.0000
 40
0.8128
 41
0.8128
 70
0
  0
VERTEX
  8
1
 10
12.9522
 20
63.4410
 30
0.0000
  0
VERTEX
  8
1
 10
11.2022
 20
61.6910
 30
0.0000
  0
SEQEND
  8
0
  0
POLYLINE
  8
1
 66
1
 10
0.0000
 20
0.0000
 30
0.0000
 40
0.4064
 41
0.4064
 70
0
  0
VERTEX
  8
1
 10
11.0585
 20
61.8347
 30
0.0000
 42
1.0000
  0
VERTEX
  8
1
 10
11.3459
 20
61.5473
 30
0.0000
  0
SEQEND
  8
0
  0
POLYLINE
  8
1
 66
1
 10
0.0000
 20
0.0000
 30
0.0000
 40
0.4064
 41
0.4064
 70
0
  0
VERTEX
  8
1
 10
13.0959
 20
63.2973
 30
0.0000
 42
1.0000
  0
VERTEX
  8
1
 10
12.8085
 20
63.5847
 30
0.0000
  0
SEQEND
  8
0
  0
POLYLINE
  8
1
 66
1
 10
0.0000
 20
0.0000
 30
0.0000
 40
0.8128
 41
0.8128
 70
0
  0
VERTEX
  8
1
 10
20.5633
 20
57.3065
 30
0.0000
  0
VERTEX
  8
1
 10
20.0633
 20
57.8065
 30
0.0000
  0
SEQEND
  8
0
  0
POLYLINE
  8
1
 66
1
 10
0.0000
 20
0.0000
 30
0.0000
 40
0.4064
 41
0.4064
 70
0
  0
VERTEX
  8
1
 10
20.2070
 20
57.9502
 30
0.0000
 42
1.0000
  0
VERTEX
  8
1
 10
19.9196
 20
57.6628
 30
0.0000
  0
SEQEND
  8
0
  0
POLYLINE
  8
1
 66
1
 10
0.0000
 20
0.0000
 30
0.0000
 40
0.4064
 41
0.4064
 70
0
  0
VERTEX
  8
1
 10
20.4196
 20
57.1628
 30
0.0000
 42
1.0000
  0
VERTEX
  8
1
 10
20.7070
 20
57.4502
 30
0.0000
  0
SEQEND
  8
0
  0
POLYLINE
  8
1
 66
1
 10
0.0000
 20
0.0000
 30
0.0000
 40
0.8128
 41
0.8128
 70
0
  0
VERTEX
  8
1
 10
20.0633
 20
57.8065
 30
0.0000
  0
VERTEX
  8
1
 10
14.4934
 20
57.8065
 30
0.0000
  0
SEQEND
  8
0
  0
POLYLINE
  8
1
 66
1
 10
0.0000
 20
0.0000
 30
0.0000
 40
0.4064
 41
0.4064
 70
0
  0
VERTEX
  8
1
 10
14.4934
 20
58.0097
 30
0.0000
 42
1.0000
  0
VERTEX
  8
1
 10
14.4934
 20
57.6033
 30
0.0000
  0
SEQEND
  8
0
  0
POLYLINE
  8
1
 66
1
 10
0.0000
 20
0.0000
 30
0.0000
 40
0.4064
 41
0.4064
 70
0
  0
VERTEX
  8
1
 10
20.0633
 20
57.6033
 30
0.0000
 42
1.0000
  0
VERTEX
  8
1
 10
20.0633
 20
58.0097
 30
0.0000
  0
SEQEND
  8
0
  0
POLYLINE
  8
1
 66
1
 10
0.0000
 20
0.0000
 30
0.0000
 40
0.8128
 41
0.8128
 70
0
  0
VERTEX
  8
1
 10
11.2022
 20
53.0153
 30
0.0000
  0
VERTEX
  8
1
 10
11.2022
 20
54.5153
 30
0.0000
  0
SEQEND
  8
0
  0
POLYLINE
  8
1
 66
1
 10
0.0000
 20
0.0000
 30
0.0000
 40
0.4064
 41
0.4064
 70
0
  0
VERTEX
  8
1
 10
11.4054
 20
54.5153
 30
0.0000
 42
1.0000
  0
VERTEX
  8
1
 10
10.9990
 20
54.5153
 30
0.0000
  0
SEQEND
  8
0
  0
POLYLINE
  8
1
 66
1
 10
0.0000
 20
0.0000
 30
0.0000
 40
0.4064
 41
0.4064
 70
0
  0
VERTEX
  8
1
 10
10.9990
 20
53.0153
 30
0.0000
 42
1.0000
  0
VERTEX
  8
1
 10
11.4054
 20
53.0153
 30
0.0000
  0
SEQEND
  8
0
  0
POLYLINE
  8
1
 66
1
 10
0.0000
 20
0.0000
 30
0.0000
 40
0.8128
 41
0.8128
 70
0
  0
VERTEX
  8
1
 10
14.4934
 20
57.8065
 30
0.0000
  0
VERTEX
  8
1
 10
11.2022
 20
54.5153
 30
0.0000
  0
SEQEND
  8
0
  0
POLYLINE
  8
1
 66
1
 10
0.0000
 20
0.0000
 30
0.0000
 40
0.4064
 41
0.4064
 70
0
  0
VERTEX
  8
1
 10
11.0585
 20
54.6589
 30
0.0000
 42
1.0000
  0
VERTEX
  8
1
 10
11.3459
 20
54.3716
 30
0.0000
  0
SEQEND
  8
0
  0
POLYLINE
  8
1
 66
1
 10
0.0000
 20
0.0000
 30
0.0000
 40
0.4064
 41
0.4064
 70
0
  0
VERTEX
  8
1
 10
14.6371
 20
57.6628
 30
0.0000
 42
1.0000
  0
VERTEX
  8
1
 10
14.3498
 20
57.9502
 30
0.0000
  0
SEQEND
  8
0
  0
POLYLINE
  8
1
 66
1
 10
0.0000
 20
0.0000
 30
0.0000
 40
0.8128
 41
0.8128
 70
0
  0
VERTEX
  8
1
 10
20.5633
 20
52.2265
 30
0.0000
  0
VERTEX
  8
1
 10
18.2265
 20
52.2265
 30
0.0000
  0
SEQEND
  8
0
  0
POLYLINE
  8
1
 66
1
 10
0.0000
 20
0.0000
 30
0.0000
 40
0.4064
 41
0.4064
 70
0
  0
VERTEX
  8
1
 10
18.2265
 20
52.4297
 30
0.0000
 42
1.0000
  0
VERTEX
  8
1
 10
18.2265
 20
52.0233
 30
0.0000
  0
SEQEND
  8
0
  0
POLYLINE
  8
1
 66
1
 10
0.0000
 20
0.0000
 30
0.0000
 40
0.4064
 41
0.4064
 70
0
  0
VERTEX
  8
1
 10
20.5633
 20
52.0233
 30
0.0000
 42
1.0000
  0
VERTEX
  8
1
 10
20.5633
 20
52.4297
 30
0.0000
  0
SEQEND
  8
0
  0
POLYLINE
  8
1
 66
1
 10
0.0000
 20
0.0000
 30
0.0000
 40
0.8128
 41
0.8128
 70
0
  0
VERTEX
  8
1
 10
11.2022
 20
45.2022
 30
0.0000
  0
VERTEX
  8
1
 10
11.2022
 20
43.5895
 30
0.0000
  0
SEQEND
  8
0
  0
POLYLINE
  8
1
 66
1
 10
0.0000
 20
0.0000
 30
0.0000
 40
0.4064
 41
0.4064
 70
0
  0
VERTEX
  8
1
 10
10.9990
 20
43.5895
 30
0.0000
 42
1.0000
  0
VERTEX
  8
1
 10
11.4054
 20
43.5895
 30
0.0000
  0
SEQEND
  8
0
  0
POLYLINE
  8
1
 66
1
 10
0.0000
 20
0.0000
 30
0.0000
 40
0.4064
 41
0.4064
 70
0
  0
VERTEX
  8
1
 10
11.4054
 20
45.2022
 30
0.0000
 42
1.0000
  0
VERTEX
  8
1
 10
10.9990
 20
45.2022
 30
0.0000
  0
SEQEND
  8
0
  0
POLYLINE
  8
1
 66
1
 10
0.0000
 20
0.0000
 30
0.0000
 40
0.8128
 41
0.8128
 70
0
  0
VERTEX
  8
1
 10
18.2265
 20
52.2265
 30
0.0000
  0
VERTEX
  8
1
 10
11.2022
 20
45.2022
 30
0.0000
  0
SEQEND
  8
0
  0
POLYLINE
  8
1
 66
1
 10
0.0000
 20
0.0000
 30
0.0000
 40
0.4064
 41
0.4064
 70
0
  0
VERTEX
  8
1
 10
11.0585
 20
45.3459
 30
0.0000
 42
1.0000
  0
VERTEX
  8
1
 10
11.3459
 20
45.0585
 30
0.0000
  0
SEQEND
  8
0
  0
POLYLINE
  8
1
 66
1
 10
0.0000
 20
0.0000
 30
0.0000
 40
0.4064
 41
0.4064
 70
0
  0
VERTEX
  8
1
 10
18.3702
 20
52.0828
 30
0.0000
 42
1.0000
  0
VERTEX
  8
1
 10
18.0828
 20
52.3702
 30
0.0000
  0
SEQEND
  8
0
  0
POLYLINE
  8
1
 66
1
 10
0.0000
 20
0.0000
 30
0.0000
 40
0.8128
 41
0.8128
 70
0
  0
VERTEX
  8
1
 10
20.5633
 20
47.1465
 30
0.0000
  0
VERTEX
  8
1
 10
17.3133
 20
43.8965
 30
0.0000
  0
SEQEND
  8
0
  0
POLYLINE
  8
1
 66
1
 10
0.0000
 20
0.0000
 30
0.0000
 40
0.4064
 41
0.4064
 70
0
  0
VERTEX
  8
1
 10
17.1696
 20
44.0402
 30
0.0000
 42
1.0000
  0
VERTEX
  8
1
 10
17.4570
 20
43.7528
 30
0.0000
  0
SEQEND
  8
0
  0
POLYLINE
  8
1
 66
1
 10
0.0000
 20
0.0000
 30
0.0000
 40
0.4064
 41
0.4064
 70
0
  0
VERTEX
  8
1
 10
20.7070
 20
47.0028
 30
0.0000
 42
1.0000
  0
VERTEX
  8
1
 10
20.4196
 20
47.2902
 30
0.0000
  0
SEQEND
  8
0
  0
POLYLINE
  8
1
 66
1
 10
0.0000
 20
0.0000
 30
0.0000
 40
0.8128
 41
0.8128
 70
0
  0
VERTEX
  8
1
 10
17.3133
 20
43.8965
 30
0.0000
  0
VERTEX
  8
1
 10
17.3133
 20
40.3133
 30
0.0000
  0
SEQEND
  8
0
  0
POLYLINE
  8
1
 66
1
 10
0.0000
 20
0.0000
 30
0.0000
 40
0.4064
 41
0.4064
 70
0
  0
VERTEX
  8
1
 10
17.1101
 20
40.3133
 30
0.0000
 42
1.0000
  0
VERTEX
  8
1
 10
17.5165
 20
40.3133
 30
0.0000
  0
SEQEND
  8
0
  0
POLYLINE
  8
1
 66
1
 10
0.0000
 20
0.0000
 30
0.0000
 40
0.4064
 41
0.4064
 70
0
  0
VERTEX
  8
1
 10
17.5165
 20
43.8965
 30
0.0000
 42
1.0000
  0
VERTEX
  8
1
 10
17.1101
 20
43.8965
 30
0.0000
  0
SEQEND
  8
0
  0
POLYLINE
  8
1
 66
1
 10
0.0000
 20
0.0000
 30
0.0000
 40
0.8128
 41
0.8128
 70
0
  0
VERTEX
  8
1
 10
17.3133
 20
40.3133
 30
0.0000
  0
VERTEX
  8
1
 10
11.2022
 20
34.2022
 30
0.0000
  0
SEQEND
  8
0
  0
POLYLINE
  8
1
 66
1
 10
0.0000
 20
0.0000
 30
0.0000
 40
0.4064
 41
0.4064
 70
0
  0
VERTEX
  8
1
 10
11.0585
 20
34.3459
 30
0.0000
 42
1.0000
  0
VERTEX
  8
1
 10
11.3459
 20
34.0585
 30
0.0000
  0
SEQEND
  8
0
  0
POLYLINE
  8
1
 66
1
 10
0.0000
 20
0.0000
 30
0.0000
 40
0.4064
 41
0.4064
 70
0
  0
VERTEX
  8
1
 10
17.4570
 20
40.1696
 30
0.0000
 42
1.0000
  0
VERTEX
  8
1
 10
17.1696
 20
40.4570
 30
0.0000
  0
SEQEND
  8
0
  0
POLYLINE
  8
1
 66
1
 10
0.0000
 20
0.0000
 30
0.0000
 40
0.8128
 41
0.8128
 70
0
  0
VERTEX
  8
1
 10
11.2022
 20
34.2022
 30
0.0000
  0
VERTEX
  8
1
 10
11.2022
 20
32.6638
 30
0.0000
  0
SEQEND
  8
0
  0
POLYLINE
  8
1
 66
1
 10
0.0000
 20
0.0000
 30
0.0000
 40
0.4064
 41
0.4064
 70
0
  0
VERTEX
  8
1
 10
10.9990
 20
32.6638
 30
0.0000
 42
1.0000
  0
VERTEX
  8
1
 10
11.4054
 20
32.6638
 30
0.0000
  0
SEQEND
  8
0
  0
POLYLINE
  8
1
 66
1
 10
0.0000
 20
0.0000
 30
0.0000
 40
0.4064
 41
0.4064
 70
0
  0
VERTEX
  8
1
 10
11.4054
 20
34.2022
 30
0.0000
 42
1.0000
  0
VERTEX
  8
1
 10
10.9990
 20
34.2022
 30
0.0000
  0
SEQEND
  8
0
  0
POLYLINE
  8
1
 66
1
 10
0.0000
 20
0.0000
 30
0.0000
 40
0.8128
 41
0.8128
 70
0
  0
VERTEX
  8
1
 10
19.6193
 20
18.6076
 30
0.0000
  0
VERTEX
  8
1
 10
19.6193
 20
13.6193
 30
0.0000
  0
SEQEND
  8
0
  0
POLYLINE
  8
1
 66
1
 10
0.0000
 20
0.0000
 30
0.0000
 40
0.4064
 41
0.4064
 70
0
  0
VERTEX
  8
1
 10
19.4161
 20
13.6193
 30
0.0000
 42
1.0000
  0
VERTEX
  8
1
 10
19.8225
 20
13.6193
 30
0.0000
  0
SEQEND
  8
0
  0
POLYLINE
  8
1
 66
1
 10
0.0000
 20
0.0000
 30
0.0000
 40
0.4064
 41
0.4064
 70
0
  0
VERTEX
  8
1
 10
19.8225
 20
18.6076
 30
0.0000
 42
1.0000
  0
VERTEX
  8
1
 10
19.4161
 20
18.6076
 30
0.0000
  0
SEQEND
  8
0
  0
POLYLINE
  8
1
 66
1
 10
0.0000
 20
0.0000
 30
0.0000
 40
0.8128
 41
0.8128
 70
0
  0
VERTEX
  8
1
 10
19.6193
 20
13.6193
 30
0.0000
  0
VERTEX
  8
1
 10
16.5000
 20
10.5000
 30
0.0000
  0
SEQEND
  8
0
  0
POLYLINE
  8
1
 66
1
 10
0.0000
 20
0.0000
 30
0.0000
 40
0.4064
 41
0.4064
 70
0
  0
VERTEX
  8
1
 10
16.3563
 20
10.6437
 30
0.0000
 42
1.0000
  0
VERTEX
  8
1
 10
16.6437
 20
10.3563
 30
0.0000
  0
SEQEND
  8
0
  0
POLYLINE
  8
1
 66
1
 10
0.0000
 20
0.0000
 30
0.0000
 40
0.4064
 41
0.4064
 70
0
  0
VERTEX
  8
1
 10
19.7630
 20
13.4756
 30
0.0000
 42
1.0000
  0
VERTEX
  8
1
 10
19.4756
 20
13.7630
 30
0.0000
  0
SEQEND
  8
0
  0
POLYLINE
  8
1
 66
1
 10
0.0000
 20
0.0000
 30
0.0000
 40
0.8128
 41
0.8128
 70
0
  0
VERTEX
  8
1
 10
16.5000
 20
10.5000
 30
0.0000
  0
VERTEX
  8
1
 10
11.2500
 20
10.5000
 30
0.0000
  0
SEQEND
  8
0
  0
POLYLINE
  8
1
 66
1
 10
0.0000
 20
0.0000
 30
0.0000
 40
0.4064
 41
0.4064
 70
0
  0
VERTEX
  8
1
 10
11.2500
 20
10.7032
 30
0.0000
 42
1.0000
  0
VERTEX
  8
1
 10
11.2500
 20
10.2968
 30
0.0000
  0
SEQEND
  8
0
  0
POLYLINE
  8
1
 66
1
 10
0.0000
 20
0.0000
 30
0.0000
 40
0.4064
 41
0.4064
 70
0
  0
VERTEX
  8
1
 10
16.5000
 20
10.2968
 30
0.0000
 42
1.0000
  0
VERTEX
  8
1
 10
16.5000
 20
10.7032
 30
0.0000
  0
SEQEND
  8
0
  0
POLYLINE
  8
1
 66
1
 10
0.0000
 20
0.0000
 30
0.0000
 40
0.8128
 41
0.8128
 70
0
  0
VERTEX
  8
1
 10
11.2500
 20
10.5000
 30
0.0000
  0
VERTEX
  8
1
 10
7.2500
 20
14.5000
 30
0.0000
  0
SEQEND
  8
0
  0
POLYLINE
  8
1
 66
1
 10
0.0000
 20
0.0000
 30
0.0000
 40
0.4064
 41
0.4064
 70
0
  0
VERTEX
  8
1
 10
7.3937
 20
14.6437
 30
0.0000
 42
1.0000
  0
VERTEX
  8
1
 10
7.1063
 20
14.3563
 30
0.0000
  0
SEQEND
  8
0
  0
POLYLINE
  8
1
 66
1
 10
0.0000
 20
0.0000
 30
0.0000
 40
0.4064
 41
0.4064
 70
0
  0
VERTEX
  8
1
 10
11.1063
 20
10.3563
 30
0.0000
 42
1.0000
  0
VERTEX
  8
1
 10
11.3937
 20
10.6437
 30
0.0000
  0
SEQEND
  8
0
  0
POLYLINE
  8
1
 66
1
 10
0.0000
 20
0.0000
 30
0.0000
 40
0.8128
 41
0.8128
 70
0
  0
VERTEX
  8
1
 10
7.2500
 20
14.5000
 30
0.0000
  0
VERTEX
  8
1
 10
7.2500
 20
24.7500
 30
0.0000
  0
SEQEND
  8
0
  0
POLYLINE
  8
1
 66
1
 10
0.0000
 20
0.0000
 30
0.0000
 40
0.4064
 41
0.4064
 70
0
  0
VERTEX
  8
1
 10
7.4532
 20
24.7500
 30
0.0000
 42
1.0000
  0
VERTEX
  8
1
 10
7.0468
 20
24.7500
 30
0.0000
  0
SEQEND
  8
0
  0
POLYLINE
  8
1
 66
1
 10
0.0000
 20
0.0000
 30
0.0000
 40
0.4064
 41
0.4064
 70
0
  0
VERTEX
  8
1
 10
7.0468
 20
14.5000
 30
0.0000
 42
1.0000
  0
VERTEX
  8
1
 10
7.4532
 20
14.5000
 30
0.0000
  0
SEQEND
  8
0
  0
POLYLINE
  8
1
 66
1
 10
0.0000
 20
0.0000
 30
0.0000
 40
0.8128
 41
0.8128
 70
0
  0
VERTEX
  8
1
 10
18.7500
 20
32.2500
 30
0.0000
  0
VERTEX
  8
1
 10
31.1065
 20
44.6065
 30
0.0000
  0
SEQEND
  8
0
  0
POLYLINE
  8
1
 66
1
 10
0.0000
 20
0.0000
 30
0.0000
 40
0.4064
 41
0.4064
 70
0
  0
VERTEX
  8
1
 10
31.2502
 20
44.4628
 30
0.0000
 42
1.0000
  0
VERTEX
  8
1
 10
30.9628
 20
44.7502
 30
0.0000
  0
SEQEND
  8
0
  0
POLYLINE
  8
1
 66
1
 10
0.0000
 20
0.0000
 30
0.0000
 40
0.4064
 41
0.4064
 70
0
  0
VERTEX
  8
1
 10
18.6063
 20
32.3937
 30
0.0000
 42
1.0000
  0
VERTEX
  8
1
 10
18.8937
 20
32.1063
 30
0.0000
  0
SEQEND
  8
0
  0
POLYLINE
  8
1
 66
1
 10
0.0000
 20
0.0000
 30
0.0000
 40
0.8128
 41
0.8128
 70
0
  0
VERTEX
  8
1
 10
31.1065
 20
44.6065
 30
0.0000
  0
VERTEX
  8
1
 10
35.8033
 20
44.6065
 30
0.0000
  0
SEQEND
  8
0
  0
POLYLINE
  8
1
 66
1
 10
0.0000
 20
0.0000
 30
0.0000
 40
0.4064
 41
0.4064
 70
0
  0
VERTEX
  8
1
 10
35.8033
 20
44.4033
 30
0.0000
 42
1.0000
  0
VERTEX
  8
1
 10
35.8033
 20
44.8097
 30
0.0000
  0
SEQEND
  8
0
  0
POLYLINE
  8
1
 66
1
 10
0.0000
 20
0.0000
 30
0.0000
 40
0.4064
 41
0.4064
 70
0
  0
VERTEX
  8
1
 10
31.1065
 20
44.8097
 30
0.0000
 42
1.0000
  0
VERTEX
  8
1
 10
31.1065
 20
44.4033
 30
0.0000
  0
SEQEND
  8
0
  0
POLYLINE
  8
1
 66
1
 10
0.0000
 20
0.0000
 30
0.0000
 40
0.8128
 41
0.8128
 70
0
  0
VERTEX
  8
1
 10
7.2500
 20
24.7500
 30
0.0000
  0
VERTEX
  8
1
 10
14.7500
 20
32.2500
 30
0.0000
  0
SEQEND
  8
0
  0
POLYLINE
  8
1
 66
1
 10
0.0000
 20
0.0000
 30
0.0000
 40
0.4064
 41
0.4064
 70
0
  0
VERTEX
  8
1
 10
14.8937
 20
32.1063
 30
0.0000
 42
1.0000
  0
VERTEX
  8
1
 10
14.6063
 20
32.3937
 30
0.0000
  0
SEQEND
  8
0
  0
POLYLINE
  8
1
 66
1
 10
0.0000
 20
0.0000
 30
0.0000
 40
0.4064
 41
0.4064
 70
0
  0
VERTEX
  8
1
 10
7.1063
 20
24.8937
 30
0.0000
 42
1.0000
  0
VERTEX
  8
1
 10
7.3937
 20
24.6063
 30
0.0000
  0
SEQEND
  8
0
  0
POLYLINE
  8
1
 66
1
 10
0.0000
 20
0.0000
 30
0.0000
 40
0.8128
 41
0.8128
 70
0
  0
VERTEX
  8
1
 10
14.7500
 20
32.2500
 30
0.0000
  0
VERTEX
  8
1
 10
18.7500
 20
32.2500
 30
0.0000
  0
SEQEND
  8
0
  0
POLYLINE
  8
1
 66
1
 10
0.0000
 20
0.0000
 30
0.0000
 40
0.4064
 41
0.4064
 70
0
  0
VERTEX
  8
1
 10
18.7500
 20
32.0468
 30
0.0000
 42
1.0000
  0
VERTEX
  8
1
 10
18.7500
 20
32.4532
 30
0.0000
  0
SEQEND
  8
0
  0
POLYLINE
  8
1
 66
1
 10
0.0000
 20
0.0000
 30
0.0000
 40
0.4064
 41
0.4064
 70
0
  0
VERTEX
  8
1
 10
14.7500
 20
32.4532
 30
0.0000
 42
1.0000
  0
VERTEX
  8
1
 10
14.7500
 20
32.0468
 30
0.0000
  0
SEQEND
  8
0
  0
POLYLINE
  8
1
 66
1
 10
0.0000
 20
0.0000
 30
0.0000
 40
0.8128
 41
0.8128
 70
0
  0
VERTEX
  8
1
 10
50.8897
 20
52.7482
 30
0.0000
  0
VERTEX
  8
1
 10
47.2518
 20
52.7482
 30
0.0000
  0
SEQEND
  8
0
  0
POLYLINE
  8
1
 66
1
 10
0.0000
 20
0.0000
 30
0.0000
 40
0.4064
 41
0.4064
 70
0
  0
VERTEX
  8
1
 10
47.2518
 20
52.9514
 30
0.0000
 42
1.0000
  0
VERTEX
  8
1
 10
47.2518
 20
52.5450
 30
0.0000
  0
SEQEND
  8
0
  0
POLYLINE
  8
1
 66
1
 10
0.0000
 20
0.0000
 30
0.0000
 40
0.4064
 41
0.4064
 70
0
  0
VERTEX
  8
1
 10
50.8897
 20
52.5450
 30
0.0000
 42
1.0000
  0
VERTEX
  8
1
 10
50.8897
 20
52.9514
 30
0.0000
  0
SEQEND
  8
0
  0
POLYLINE
  8
1
 66
1
 10
0.0000
 20
0.0000
 30
0.0000
 40
0.8128
 41
0.8128
 70
0
  0
VERTEX
  8
1
 10
47.2518
 20
52.7482
 30
0.0000
  0
VERTEX
  8
1
 10
37.6135
 20
62.3865
 30
0.0000
  0
SEQEND
  8
0
  0
POLYLINE
  8
1
 66
1
 10
0.0000
 20
0.0000
 30
0.0000
 40
0.4064
 41
0.4064
 70
0
  0
VERTEX
  8
1
 10
37.7572
 20
62.5302
 30
0.0000
 42
1.0000
  0
VERTEX
  8
1
 10
37.4698
 20
62.2428
 30
0.0000
  0
SEQEND
  8
0
  0
POLYLINE
  8
1
 66
1
 10
0.0000
 20
0.0000
 30
0.0000
 40
0.4064
 41
0.4064
 70
0
  0
VERTEX
  8
1
 10
47.1081
 20
52.6045
 30
0.0000
 42
1.0000
  0
VERTEX
  8
1
 10
47.3955
 20
52.8919
 30
0.0000
  0
SEQEND
  8
0
  0
POLYLINE
  8
1
 66
1
 10
0.0000
 20
0.0000
 30
0.0000
 40
0.8128
 41
0.8128
 70
0
  0
VERTEX
  8
1
 10
35.8033
 20
62.3865
 30
0.0000
  0
VERTEX
  8
1
 10
37.6135
 20
62.3865
 30
0.0000
  0
SEQEND
  8
0
  0
POLYLINE
  8
1
 66
1
 10
0.0000
 20
0.0000
 30
0.0000
 40
0.4064
 41
0.4064
 70
0
  0
VERTEX
  8
1
 10
37.6135
 20
62.1833
 30
0.0000
 42
1.0000
  0
VERTEX
  8
1
 10
37.6135
 20
62.5897
 30
0.0000
  0
SEQEND
  8
0
  0
POLYLINE
  8
1
 66
1
 10
0.0000
 20
0.0000
 30
0.0000
 40
0.4064
 41
0.4064
 70
0
  0
VERTEX
  8
1
 10
35.8033
 20
62.5897
 30
0.0000
 42
1.0000
  0
VERTEX
  8
1
 10
35.8033
 20
62.1833
 30
0.0000
  0
SEQEND
  8
0
  0
POLYLINE
  8
1
 66
1
 10
0.0000
 20
0.0000
 30
0.0000
 40
0.8128
 41
0.8128
 70
0
  0
VERTEX
  8
1
 10
8.6622
 20
61.6910
 30
0.0000
  0
VERTEX
  8
1
 10
8.6622
 20
63.6622
 30
0.0000
  0
SEQEND
  8
0
  0
POLYLINE
  8
1
 66
1
 10
0.0000
 20
0.0000
 30
0.0000
 40
0.4064
 41
0.4064
 70
0
  0
VERTEX
  8
1
 10
8.8654
 20
63.6622
 30
0.0000
 42
1.0000
  0
VERTEX
  8
1
 10
8.4590
 20
63.6622
 30
0.0000
  0
SEQEND
  8
0
  0
POLYLINE
  8
1
 66
1
 10
0.0000
 20
0.0000
 30
0.0000
 40
0.4064
 41
0.4064
 70
0
  0
VERTEX
  8
1
 10
8.4590
 20
61.6910
 30
0.0000
 42
1.0000
  0
VERTEX
  8
1
 10
8.8654
 20
61.6910
 30
0.0000
  0
SEQEND
  8
0
  0
POLYLINE
  8
1
 66
1
 10
0.0000
 20
0.0000
 30
0.0000
 40
0.8128
 41
0.8128
 70
0
  0
VERTEX
  8
1
 10
8.6622
 20
63.6622
 30
0.0000
  0
VERTEX
  8
1
 10
11.0000
 20
66.0000
 30
0.0000
  0
SEQEND
  8
0
  0
POLYLINE
  8
1
 66
1
 10
0.0000
 20
0.0000
 30
0.0000
 40
0.4064
 41
0.4064
 70
0
  0
VERTEX
  8
1
 10
11.1437
 20
65.8563
 30
0.0000
 42
1.0000
  0
VERTEX
  8
1
 10
10.8563
 20
66.1437
 30
0.0000
  0
SEQEND
  8
0
  0
POLYLINE
  8
1
 66
1
 10
0.0000
 20
0.0000
 30
0.0000
 40
0.4064
 41
0.4064
 70
0
  0
VERTEX
  8
1
 10
8.5185
 20
63.8059
 30
0.0000
 42
1.0000
  0
VERTEX
  8
1
 10
8.8059
 20
63.5185
 30
0.0000
  0
SEQEND
  8
0
  0
POLYLINE
  8
1
 66
1
 10
0.0000
 20
0.0000
 30
0.0000
 40
0.8128
 41
0.8128
 70
0
  0
VERTEX
  8
1
 10
20.5633
 20
64.9265
 30
0.0000
  0
VERTEX
  8
1
 10
19.4898
 20
66.0000
 30
0.0000
  0
SEQEND
  8
0
  0
POLYLINE
  8
1
 66
1
 10
0.0000
 20
0.0000
 30
0.0000
 40
0.4064
 41
0.4064
 70
0
  0
VERTEX
  8
1
 10
19.6335
 20
66.1437
 30
0.0000
 42
1.0000
  0
VERTEX
  8
1
 10
19.3461
 20
65.8563
 30
0.0000
  0
SEQEND
  8
0
  0
POLYLINE
  8
1
 66
1
 10
0.0000
 20
0.0000
 30
0.0000
 40
0.4064
 41
0.4064
 70
0
  0
VERTEX
  8
1
 10
20.4196
 20
64.7828
 30
0.0000
 42
1.0000
  0
VERTEX
  8
1
 10
20.7070
 20
65.0702
 30
0.0000
  0
SEQEND
  8
0
  0
POLYLINE
  8
1
 66
1
 10
0.0000
 20
0.0000
 30
0.0000
 40
0.8128
 41
0.8128
 70
0
  0
VERTEX
  8
1
 10
19.4898
 20
66.0000
 30
0.0000
  0
VERTEX
  8
1
 10
11.0000
 20
66.0000
 30
0.0000
  0
SEQEND
  8
0
  0
POLYLINE
  8
1
 66
1
 10
0.0000
 20
0.0000
 30
0.0000
 40
0.4064
 41
0.4064
 70
0
  0
VERTEX
  8
1
 10
11.0000
 20
66.2032
 30
0.0000
 42
1.0000
  0
VERTEX
  8
1
 10
11.0000
 20
65.7968
 30
0.0000
  0
SEQEND
  8
0
  0
POLYLINE
  8
1
 66
1
 10
0.0000
 20
0.0000
 30
0.0000
 40
0.4064
 41
0.4064
 70
0
  0
VERTEX
  8
1
 10
19.4898
 20
65.7968
 30
0.0000
 42
1.0000
  0
VERTEX
  8
1
 10
19.4898
 20
66.2032
 30
0.0000
  0
SEQEND
  8
0
  0
POLYLINE
  8
1
 66
1
 10
0.0000
 20
0.0000
 30
0.0000
 40
0.8128
 41
0.8128
 70
0
  0
VERTEX
  8
1
 10
20.5633
 20
59.8465
 30
0.0000
  0
VERTEX
  8
1
 10
12.9122
 20
59.8465
 30
0.0000
  0
SEQEND
  8
0
  0
POLYLINE
  8
1
 66
1
 10
0.0000
 20
0.0000
 30
0.0000
 40
0.4064
 41
0.4064
 70
0
  0
VERTEX
  8
1
 10
12.9122
 20
60.0497
 30
0.0000
 42
1.0000
  0
VERTEX
  8
1
 10
12.9122
 20
59.6433
 30
0.0000
  0
SEQEND
  8
0
  0
POLYLINE
  8
1
 66
1
 10
0.0000
 20
0.0000
 30
0.0000
 40
0.4064
 41
0.4064
 70
0
  0
VERTEX
  8
1
 10
20.5633
 20
59.6433
 30
0.0000
 42
1.0000
  0
VERTEX
  8
1
 10
20.5633
 20
60.0497
 30
0.0000
  0
SEQEND
  8
0
  0
POLYLINE
  8
1
 66
1
 10
0.0000
 20
0.0000
 30
0.0000
 40
0.8128
 41
0.8128
 70
0
  0
VERTEX
  8
1
 10
12.9122
 20
59.8465
 30
0.0000
  0
VERTEX
  8
1
 10
8.6622
 20
55.5965
 30
0.0000
  0
SEQEND
  8
0
  0
POLYLINE
  8
1
 66
1
 10
0.0000
 20
0.0000
 30
0.0000
 40
0.4064
 41
0.4064
 70
0
  0
VERTEX
  8
1
 10
8.5185
 20
55.7402
 30
0.0000
 42
1.0000
  0
VERTEX
  8
1
 10
8.8059
 20
55.4528
 30
0.0000
  0
SEQEND
  8
0
  0
POLYLINE
  8
1
 66
1
 10
0.0000
 20
0.0000
 30
0.0000
 40
0.4064
 41
0.4064
 70
0
  0
VERTEX
  8
1
 10
13.0559
 20
59.7028
 30
0.0000
 42
1.0000
  0
VERTEX
  8
1
 10
12.7685
 20
59.9902
 30
0.0000
  0
SEQEND
  8
0
  0
POLYLINE
  8
1
 66
1
 10
0.0000
 20
0.0000
 30
0.0000
 40
0.8128
 41
0.8128
 70
0
  0
VERTEX
  8
1
 10
8.6622
 20
55.5965
 30
0.0000
  0
VERTEX
  8
1
 10
8.6622
 20
53.0153
 30
0.0000
  0
SEQEND
  8
0
  0
POLYLINE
  8
1
 66
1
 10
0.0000
 20
0.0000
 30
0.0000
 40
0.4064
 41
0.4064
 70
0
  0
VERTEX
  8
1
 10
8.4590
 20
53.0153
 30
0.0000
 42
1.0000
  0
VERTEX
  8
1
 10
8.8654
 20
53.0153
 30
0.0000
  0
SEQEND
  8
0
  0
POLYLINE
  8
1
 66
1
 10
0.0000
 20
0.0000
 30
0.0000
 40
0.4064
 41
0.4064
 70
0
  0
VERTEX
  8
1
 10
8.8654
 20
55.5965
 30
0.0000
 42
1.0000
  0
VERTEX
  8
1
 10
8.4590
 20
55.5965
 30
0.0000
  0
SEQEND
  8
0
  0
POLYLINE
  8
1
 66
1
 10
0.0000
 20
0.0000
 30
0.0000
 40
0.8128
 41
0.8128
 70
0
  0
VERTEX
  8
1
 10
20.5633
 20
54.7665
 30
0.0000
  0
VERTEX
  8
1
 10
17.7665
 20
54.7665
 30
0.0000
  0
SEQEND
  8
0
  0
POLYLINE
  8
1
 66
1
 10
0.0000
 20
0.0000
 30
0.0000
 40
0.4064
 41
0.4064
 70
0
  0
VERTEX
  8
1
 10
17.7665
 20
54.9697
 30
0.0000
 42
1.0000
  0
VERTEX
  8
1
 10
17.7665
 20
54.5633
 30
0.0000
  0
SEQEND
  8
0
  0
POLYLINE
  8
1
 66
1
 10
0.0000
 20
0.0000
 30
0.0000
 40
0.4064
 41
0.4064
 70
0
  0
VERTEX
  8
1
 10
20.5633
 20
54.5633
 30
0.0000
 42
1.0000
  0
VERTEX
  8
1
 10
20.5633
 20
54.9697
 30
0.0000
  0
SEQEND
  8
0
  0
POLYLINE
  8
1
 66
1
 10
0.0000
 20
0.0000
 30
0.0000
 40
0.8128
 41
0.8128
 70
0
  0
VERTEX
  8
1
 10
8.6622
 20
45.6622
 30
0.0000
  0
VERTEX
  8
1
 10
8.6622
 20
43.5895
 30
0.0000
  0
SEQEND
  8
0
  0
POLYLINE
  8
1
 66
1
 10
0.0000
 20
0.0000
 30
0.0000
 40
0.4064
 41
0.4064
 70
0
  0
VERTEX
  8
1
 10
8.4590
 20
43.5895
 30
0.0000
 42
1.0000
  0
VERTEX
  8
1
 10
8.8654
 20
43.5895
 30
0.0000
  0
SEQEND
  8
0
  0
POLYLINE
  8
1
 66
1
 10
0.0000
 20
0.0000
 30
0.0000
 40
0.4064
 41
0.4064
 70
0
  0
VERTEX
  8
1
 10
8.8654
 20
45.6622
 30
0.0000
 42
1.0000
  0
VERTEX
  8
1
 10
8.4590
 20
45.6622
 30
0.0000
  0
SEQEND
  8
0
  0
POLYLINE
  8
1
 66
1
 10
0.0000
 20
0.0000
 30
0.0000
 40
0.8128
 41
0.8128
 70
0
  0
VERTEX
  8
1
 10
17.7665
 20
54.7665
 30
0.0000
  0
VERTEX
  8
1
 10
8.6622
 20
45.6622
 30
0.0000
  0
SEQEND
  8
0
  0
POLYLINE
  8
1
 66
1
 10
0.0000
 20
0.0000
 30
0.0000
 40
0.4064
 41
0.4064
 70
0
  0
VERTEX
  8
1
 10
8.5185
 20
45.8059
 30
0.0000
 42
1.0000
  0
VERTEX
  8
1
 10
8.8059
 20
45.5185
 30
0.0000
  0
SEQEND
  8
0
  0
POLYLINE
  8
1
 66
1
 10
0.0000
 20
0.0000
 30
0.0000
 40
0.4064
 41
0.4064
 70
0
  0
VERTEX
  8
1
 10
17.9102
 20
54.6228
 30
0.0000
 42
1.0000
  0
VERTEX
  8
1
 10
17.6228
 20
54.9102
 30
0.0000
  0
SEQEND
  8
0
  0
POLYLINE
  8
1
 66
1
 10
0.0000
 20
0.0000
 30
0.0000
 40
0.8128
 41
0.8128
 70
0
  0
VERTEX
  8
1
 10
20.5633
 20
49.6865
 30
0.0000
  0
VERTEX
  8
1
 10
18.8133
 20
49.6865
 30
0.0000
  0
SEQEND
  8
0
  0
POLYLINE
  8
1
 66
1
 10
0.0000
 20
0.0000
 30
0.0000
 40
0.4064
 41
0.4064
 70
0
  0
VERTEX
  8
1
 10
18.8133
 20
49.8897
 30
0.0000
 42
1.0000
  0
VERTEX
  8
1
 10
18.8133
 20
49.4833
 30
0.0000
  0
SEQEND
  8
0
  0
POLYLINE
  8
1
 66
1
 10
0.0000
 20
0.0000
 30
0.0000
 40
0.4064
 41
0.4064
 70
0
  0
VERTEX
  8
1
 10
20.5633
 20
49.4833
 30
0.0000
 42
1.0000
  0
VERTEX
  8
1
 10
20.5633
 20
49.8897
 30
0.0000
  0
SEQEND
  8
0
  0
POLYLINE
  8
1
 66
1
 10
0.0000
 20
0.0000
 30
0.0000
 40
0.8128
 41
0.8128
 70
0
  0
VERTEX
  8
1
 10
18.8133
 20
49.6865
 30
0.0000
  0
VERTEX
  8
1
 10
14.8133
 20
45.6865
 30
0.0000
  0
SEQEND
  8
0
  0
POLYLINE
  8
1
 66
1
 10
0.0000
 20
0.0000
 30
0.0000
 40
0.4064
 41
0.4064
 70
0
  0
VERTEX
  8
1
 10
14.6696
 20
45.8302
 30
0.0000
 42
1.0000
  0
VERTEX
  8
1
 10
14.9570
 20
45.5428
 30
0.0000
  0
SEQEND
  8
0
  0
POLYLINE
  8
1
 66
1
 10
0.0000
 20
0.0000
 30
0.0000
 40
0.4064
 41
0.4064
 70
0
  0
VERTEX
  8
1
 10
18.9570
 20
49.5428
 30
0.0000
 42
1.0000
  0
VERTEX
  8
1
 10
18.6696
 20
49.8302
 30
0.0000
  0
SEQEND
  8
0
  0
POLYLINE
  8
1
 66
1
 10
0.0000
 20
0.0000
 30
0.0000
 40
0.8128
 41
0.8128
 70
0
  0
VERTEX
  8
1
 10
14.8133
 20
45.6865
 30
0.0000
  0
VERTEX
  8
1
 10
14.8133
 20
42.3133
 30
0.0000
  0
SEQEND
  8
0
  0
POLYLINE
  8
1
 66
1
 10
0.0000
 20
0.0000
 30
0.0000
 40
0.4064
 41
0.4064
 70
0
  0
VERTEX
  8
1
 10
14.6101
 20
42.3133
 30
0.0000
 42
1.0000
  0
VERTEX
  8
1
 10
15.0165
 20
42.3133
 30
0.0000
  0
SEQEND
  8
0
  0
POLYLINE
  8
1
 66
1
 10
0.0000
 20
0.0000
 30
0.0000
 40
0.4064
 41
0.4064
 70
0
  0
VERTEX
  8
1
 10
15.0165
 20
45.6865
 30
0.0000
 42
1.0000
  0
VERTEX
  8
1
 10
14.6101
 20
45.6865
 30
0.0000
  0
SEQEND
  8
0
  0
POLYLINE
  8
1
 66
1
 10
0.0000
 20
0.0000
 30
0.0000
 40
0.8128
 41
0.8128
 70
0
  0
VERTEX
  8
1
 10
14.8133
 20
42.3133
 30
0.0000
  0
VERTEX
  8
1
 10
8.6622
 20
36.1622
 30
0.0000
  0
SEQEND
  8
0
  0
POLYLINE
  8
1
 66
1
 10
0.0000
 20
0.0000
 30
0.0000
 40
0.4064
 41
0.4064
 70
0
  0
VERTEX
  8
1
 10
8.5185
 20
36.3059
 30
0.0000
 42
1.0000
  0
VERTEX
  8
1
 10
8.8059
 20
36.0185
 30
0.0000
  0
SEQEND
  8
0
  0
POLYLINE
  8
1
 66
1
 10
0.0000
 20
0.0000
 30
0.0000
 40
0.4064
 41
0.4064
 70
0
  0
VERTEX
  8
1
 10
14.9570
 20
42.1696
 30
0.0000
 42
1.0000
  0
VERTEX
  8
1
 10
14.6696
 20
42.4570
 30
0.0000
  0
SEQEND
  8
0
  0
POLYLINE
  8
1
 66
1
 10
0.0000
 20
0.0000
 30
0.0000
 40
0.8128
 41
0.8128
 70
0
  0
VERTEX
  8
1
 10
8.6622
 20
36.1622
 30
0.0000
  0
VERTEX
  8
1
 10
8.6622
 20
32.6638
 30
0.0000
  0
SEQEND
  8
0
  0
POLYLINE
  8
1
 66
1
 10
0.0000
 20
0.0000
 30
0.0000
 40
0.4064
 41
0.4064
 70
0
  0
VERTEX
  8
1
 10
8.4590
 20
32.6638
 30
0.0000
 42
1.0000
  0
VERTEX
  8
1
 10
8.8654
 20
32.6638
 30
0.0000
  0
SEQEND
  8
0
  0
POLYLINE
  8
1
 66
1
 10
0.0000
 20
0.0000
 30
0.0000
 40
0.4064
 41
0.4064
 70
0
  0
VERTEX
  8
1
 10
8.8654
 20
36.1622
 30
0.0000
 42
1.0000
  0
VERTEX
  8
1
 10
8.4590
 20
36.1622
 30
0.0000
  0
SEQEND
  8
0
  0
POLYLINE
  8
1
 66
1
 10
0.0000
 20
0.0000
 30
0.0000
 40
0.8128
 41
0.8128
 70
0
  0
VERTEX
  8
1
 10
17.0793
 20
18.6076
 30
0.0000
  0
VERTEX
  8
1
 10
17.0793
 20
15.0793
 30
0.0000
  0
SEQEND
  8
0
  0
POLYLINE
  8
1
 66
1
 10
0.0000
 20
0.0000
 30
0.0000
 40
0.4064
 41
0.4064
 70
0
  0
VERTEX
  8
1
 10
16.8761
 20
15.0793
 30
0.0000
 42
1.0000
  0
VERTEX
  8
1
 10
17.2825
 20
15.0793
 30
0.0000
  0
SEQEND
  8
0
  0
POLYLINE
  8
1
 66
1
 10
0.0000
 20
0.0000
 30
0.0000
 40
0.4064
 41
0.4064
 70
0
  0
VERTEX
  8
1
 10
17.2825
 20
18.6076
 30
0.0000
 42
1.0000
  0
VERTEX
  8
1
 10
16.8761
 20
18.6076
 30
0.0000
  0
SEQEND
  8
0
  0
POLYLINE
  8
1
 66
1
 10
0.0000
 20
0.0000
 30
0.0000
 40
0.8128
 41
0.8128
 70
0
  0
VERTEX
  8
1
 10
17.0793
 20
15.0793
 30
0.0000
  0
VERTEX
  8
1
 10
15.0000
 20
13.0000
 30
0.0000
  0
SEQEND
  8
0
  0
POLYLINE
  8
1
 66
1
 10
0.0000
 20
0.0000
 30
0.0000
 40
0.4064
 41
0.4064
 70
0
  0
VERTEX
  8
1
 10
14.8563
 20
13.1437
 30
0.0000
 42
1.0000
  0
VERTEX
  8
1
 10
15.1437
 20
12.8563
 30
0.0000
  0
SEQEND
  8
0
  0
POLYLINE
  8
1
 66
1
 10
0.0000
 20
0.0000
 30
0.0000
 40
0.4064
 41
0.4064
 70
0
  0
VERTEX
  8
1
 10
17.2230
 20
14.9356
 30
0.0000
 42
1.0000
  0
VERTEX
  8
1
 10
16.9356
 20
15.2230
 30
0.0000
  0
SEQEND
  8
0
  0
POLYLINE
  8
1
 66
1
 10
0.0000
 20
0.0000
 30
0.0000
 40
0.8128
 41
0.8128
 70
0
  0
VERTEX
  8
1
 10
15.0000
 20
13.0000
 30
0.0000
  0
VERTEX
  8
1
 10
12.5000
 20
13.0000
 30
0.0000
  0
SEQEND
  8
0
  0
POLYLINE
  8
1
 66
1
 10
0.0000
 20
0.0000
 30
0.0000
 40
0.4064
 41
0.4064
 70
0
  0
VERTEX
  8
1
 10
12.5000
 20
13.2032
 30
0.0000
 42
1.0000
  0
VERTEX
  8
1
 10
12.5000
 20
12.7968
 30
0.0000
  0
SEQEND
  8
0
  0
POLYLINE
  8
1
 66
1
 10
0.0000
 20
0.0000
 30
0.0000
 40
0.4064
 41
0.4064
 70
0
  0
VERTEX
  8
1
 10
15.0000
 20
12.7968
 30
0.0000
 42
1.0000
  0
VERTEX
  8
1
 10
15.0000
 20
13.2032
 30
0.0000
  0
SEQEND
  8
0
  0
POLYLINE
  8
1
 66
1
 10
0.0000
 20
0.0000
 30
0.0000
 40
0.8128
 41
0.8128
 70
0
  0
VERTEX
  8
1
 10
12.5000
 20
13.0000
 30
0.0000
  0
VERTEX
  8
1
 10
10.0000
 20
15.5000
 30
0.0000
  0
SEQEND
  8
0
  0
POLYLINE
  8
1
 66
1
 10
0.0000
 20
0.0000
 30
0.0000
 40
0.4064
 41
0.4064
 70
0
  0
VERTEX
  8
1
 10
10.1437
 20
15.6437
 30
0.0000
 42
1.0000
  0
VERTEX
  8
1
 10
9.8563
 20
15.3563
 30
0.0000
  0
SEQEND
  8
0
  0
POLYLINE
  8
1
 66
1
 10
0.0000
 20
0.0000
 30
0.0000
 40
0.4064
 41
0.4064
 70
0
  0
VERTEX
  8
1
 10
12.3563
 20
12.8563
 30
0.0000
 42
1.0000
  0
VERTEX
  8
1
 10
12.6437
 20
13.1437
 30
0.0000
  0
SEQEND
  8
0
  0
POLYLINE
  8
1
 66
1
 10
0.0000
 20
0.0000
 30
0.0000
 40
0.8128
 41
0.8128
 70
0
  0
VERTEX
  8
1
 10
10.0000
 20
15.5000
 30
0.0000
  0
VERTEX
  8
1
 10
10.0000
 20
23.7500
 30
0.0000
  0
SEQEND
  8
0
  0
POLYLINE
  8
1
 66
1
 10
0.0000
 20
0.0000
 30
0.0000
 40
0.4064
 41
0.4064
 70
0
  0
VERTEX
  8
1
 10
10.2032
 20
23.7500
 30
0.0000
 42
1.0000
  0
VERTEX
  8
1
 10
9.7968
 20
23.7500
 30
0.0000
  0
SEQEND
  8
0
  0
POLYLINE
  8
1
 66
1
 10
0.0000
 20
0.0000
 30
0.0000
 40
0.4064
 41
0.4064
 70
0
  0
VERTEX
  8
1
 10
9.7968
 20
15.5000
 30
0.0000
 42
1.0000
  0
VERTEX
  8
1
 10
10.2032
 20
15.5000
 30
0.0000
  0
SEQEND
  8
0
  0
POLYLINE
  8
1
 66
1
 10
0.0000
 20
0.0000
 30
0.0000
 40
0.8128
 41
0.8128
 70
0
  0
VERTEX
  8
1
 10
15.2500
 20
29.0000
 30
0.0000
  0
VERTEX
  8
1
 10
19.6835
 20
29.0000
 30
0.0000
  0
SEQEND
  8
0
  0
POLYLINE
  8
1
 66
1
 10
0.0000
 20
0.0000
 30
0.0000
 40
0.4064
 41
0.4064
 70
0
  0
VERTEX
  8
1
 10
19.6835
 20
28.7968
 30
0.0000
 42
1.0000
  0
VERTEX
  8
1
 10
19.6835
 20
29.2032
 30
0.0000
  0
SEQEND
  8
0
  0
POLYLINE
  8
1
 66
1
 10
0.0000
 20
0.0000
 30
0.0000
 40
0.4064
 41
0.4064
 70
0
  0
VERTEX
  8
1
 10
15.2500
 20
29.2032
 30
0.0000
 42
1.0000
  0
VERTEX
  8
1
 10
15.2500
 20
28.7968
 30
0.0000
  0
SEQEND
  8
0
  0
POLYLINE
  8
1
 66
1
 10
0.0000
 20
0.0000
 30
0.0000
 40
0.8128
 41
0.8128
 70
0
  0
VERTEX
  8
1
 10
19.6835
 20
29.0000
 30
0.0000
  0
VERTEX
  8
1
 10
32.7500
 20
42.0665
 30
0.0000
  0
SEQEND
  8
0
  0
POLYLINE
  8
1
 66
1
 10
0.0000
 20
0.0000
 30
0.0000
 40
0.4064
 41
0.4064
 70
0
  0
VERTEX
  8
1
 10
32.8937
 20
41.9228
 30
0.0000
 42
1.0000
  0
VERTEX
  8
1
 10
32.6063
 20
42.2102
 30
0.0000
  0
SEQEND
  8
0
  0
POLYLINE
  8
1
 66
1
 10
0.0000
 20
0.0000
 30
0.0000
 40
0.4064
 41
0.4064
 70
0
  0
VERTEX
  8
1
 10
19.5398
 20
29.1437
 30
0.0000
 42
1.0000
  0
VERTEX
  8
1
 10
19.8272
 20
28.8563
 30
0.0000
  0
SEQEND
  8
0
  0
POLYLINE
  8
1
 66
1
 10
0.0000
 20
0.0000
 30
0.0000
 40
0.8128
 41
0.8128
 70
0
  0
VERTEX
  8
1
 10
32.7500
 20
42.0665
 30
0.0000
  0
VERTEX
  8
1
 10
35.8033
 20
42.0665
 30
0.0000
  0
SEQEND
  8
0
  0
POLYLINE
  8
1
 66
1
 10
0.0000
 20
0.0000
 30
0.0000
 40
0.4064
 41
0.4064
 70
0
  0
VERTEX
  8
1
 10
35.8033
 20
41.8633
 30
0.0000
 42
1.0000
  0
VERTEX
  8
1
 10
35.8033
 20
42.2697
 30
0.0000
  0
SEQEND
  8
0
  0
POLYLINE
  8
1
 66
1
 10
0.0000
 20
0.0000
 30
0.0000
 40
0.4064
 41
0.4064
 70
0
  0
VERTEX
  8
1
 10
32.7500
 20
42.2697
 30
0.0000
 42
1.0000
  0
VERTEX
  8
1
 10
32.7500
 20
41.8633
 30
0.0000
  0
SEQEND
  8
0
  0
POLYLINE
  8
1
 66
1
 10
0.0000
 20
0.0000
 30
0.0000
 40
0.8128
 41
0.8128
 70
0
  0
VERTEX
  8
1
 10
10.0000
 20
23.7500
 30
0.0000
  0
VERTEX
  8
1
 10
15.2500
 20
29.0000
 30
0.0000
  0
SEQEND
  8
0
  0
POLYLINE
  8
1
 66
1
 10
0.0000
 20
0.0000
 30
0.0000
 40
0.4064
 41
0.4064
 70
0
  0
VERTEX
  8
1
 10
15.3937
 20
28.8563
 30
0.0000
 42
1.0000
  0
VERTEX
  8
1
 10
15.1063
 20
29.1437
 30
0.0000
  0
SEQEND
  8
0
  0
POLYLINE
  8
1
 66
1
 10
0.0000
 20
0.0000
 30
0.0000
 40
0.4064
 41
0.4064
 70
0
  0
VERTEX
  8
1
 10
9.8563
 20
23.8937
 30
0.0000
 42
1.0000
  0
VERTEX
  8
1
 10
10.1437
 20
23.6063
 30
0.0000
  0
SEQEND
  8
0
  0
POLYLINE
  8
1
 66
1
 10
0.0000
 20
0.0000
 30
0.0000
 40
0.8128
 41
0.8128
 70
0
  0
VERTEX
  8
1
 10
22.1593
 20
21.1476
 30
0.0000
  0
VERTEX
  8
1
 10
22.1593
 20
22.4093
 30
0.0000
  0
SEQEND
  8
0
  0
POLYLINE
  8
1
 66
1
 10
0.0000
 20
0.0000
 30
0.0000
 40
0.4064
 41
0.4064
 70
0
  0
VERTEX
  8
1
 10
22.3625
 20
22.4093
 30
0.0000
 42
1.0000
  0
VERTEX
  8
1
 10
21.9561
 20
22.4093
 30
0.0000
  0
SEQEND
  8
0
  0
POLYLINE
  8
1
 66
1
 10
0.0000
 20
0.0000
 30
0.0000
 40
0.4064
 41
0.4064
 70
0
  0
VERTEX
  8
1
 10
21.9561
 20
21.1476
 30
0.0000
 42
1.0000
  0
VERTEX
  8
1
 10
22.3625
 20
21.1476
 30
0.0000
  0
SEQEND
  8
0
  0
POLYLINE
  8
1
 66
1
 10
0.0000
 20
0.0000
 30
0.0000
 40
0.8128
 41
0.8128
 70
0
  0
VERTEX
  8
1
 10
22.1593
 20
22.4093
 30
0.0000
  0
VERTEX
  8
1
 10
24.7500
 20
25.0000
 30
0.0000
  0
SEQEND
  8
0
  0
POLYLINE
  8
1
 66
1
 10
0.0000
 20
0.0000
 30
0.0000
 40
0.4064
 41
0.4064
 70
0
  0
VERTEX
  8
1
 10
24.8937
 20
24.8563
 30
0.0000
 42
1.0000
  0
VERTEX
  8
1
 10
24.6063
 20
25.1437
 30
0.0000
  0
SEQEND
  8
0
  0
POLYLINE
  8
1
 66
1
 10
0.0000
 20
0.0000
 30
0.0000
 40
0.4064
 41
0.4064
 70
0
  0
VERTEX
  8
1
 10
22.0156
 20
22.5530
 30
0.0000
 42
1.0000
  0
VERTEX
  8
1
 10
22.3030
 20
22.2656
 30
0.0000
  0
SEQEND
  8
0
  0
POLYLINE
  8
1
 66
1
 10
0.0000
 20
0.0000
 30
0.0000
 40
0.8128
 41
0.8128
 70
0
  0
VERTEX
  8
1
 10
36.0000
 20
25.0000
 30
0.0000
  0
VERTEX
  8
1
 10
24.7500
 20
25.0000
 30
0.0000
  0
SEQEND
  8
0
  0
POLYLINE
  8
1
 66
1
 10
0.0000
 20
0.0000
 30
0.0000
 40
0.4064
 41
0.4064
 70
0
  0
VERTEX
  8
1
 10
24.7500
 20
25.2032
 30
0.0000
 42
1.0000
  0
VERTEX
  8
1
 10
24.7500
 20
24.7968
 30
0.0000
  0
SEQEND
  8
0
  0
POLYLINE
  8
1
 66
1
 10
0.0000
 20
0.0000
 30
0.0000
 40
0.4064
 41
0.4064
 70
0
  0
VERTEX
  8
1
 10
36.0000
 20
24.7968
 30
0.0000
 42
1.0000
  0
VERTEX
  8
1
 10
36.0000
 20
25.2032
 30
0.0000
  0
SEQEND
  8
0
  0
POLYLINE
  8
1
 66
1
 10
0.0000
 20
0.0000
 30
0.0000
 40
0.8128
 41
0.8128
 70
0
  0
VERTEX
  8
1
 10
50.8897
 20
50.2082
 30
0.0000
  0
VERTEX
  8
1
 10
42.9582
 20
50.2082
 30
0.0000
  0
SEQEND
  8
0
  0
POLYLINE
  8
1
 66
1
 10
0.0000
 20
0.0000
 30
0.0000
 40
0.4064
 41
0.4064
 70
0
  0
VERTEX
  8
1
 10
42.9582
 20
50.4114
 30
0.0000
 42
1.0000
  0
VERTEX
  8
1
 10
42.9582
 20
50.0050
 30
0.0000
  0
SEQEND
  8
0
  0
POLYLINE
  8
1
 66
1
 10
0.0000
 20
0.0000
 30
0.0000
 40
0.4064
 41
0.4064
 70
0
  0
VERTEX
  8
1
 10
50.8897
 20
50.0050
 30
0.0000
 42
1.0000
  0
VERTEX
  8
1
 10
50.8897
 20
50.4114
 30
0.0000
  0
SEQEND
  8
0
  0
POLYLINE
  8
1
 66
1
 10
0.0000
 20
0.0000
 30
0.0000
 40
0.8128
 41
0.8128
 70
0
  0
VERTEX
  8
1
 10
42.9582
 20
50.2082
 30
0.0000
  0
VERTEX
  8
1
 10
40.7500
 20
48.0000
 30
0.0000
  0
SEQEND
  8
0
  0
POLYLINE
  8
1
 66
1
 10
0.0000
 20
0.0000
 30
0.0000
 40
0.4064
 41
0.4064
 70
0
  0
VERTEX
  8
1
 10
40.6063
 20
48.1437
 30
0.0000
 42
1.0000
  0
VERTEX
  8
1
 10
40.8937
 20
47.8563
 30
0.0000
  0
SEQEND
  8
0
  0
POLYLINE
  8
1
 66
1
 10
0.0000
 20
0.0000
 30
0.0000
 40
0.4064
 41
0.4064
 70
0
  0
VERTEX
  8
1
 10
43.1019
 20
50.0645
 30
0.0000
 42
1.0000
  0
VERTEX
  8
1
 10
42.8145
 20
50.3519
 30
0.0000
  0
SEQEND
  8
0
  0
POLYLINE
  8
1
 66
1
 10
0.0000
 20
0.0000
 30
0.0000
 40
0.8128
 41
0.8128
 70
0
  0
VERTEX
  8
1
 10
40.7500
 20
48.0000
 30
0.0000
  0
VERTEX
  8
1
 10
40.7500
 20
29.7500
 30
0.0000
  0
SEQEND
  8
0
  0
POLYLINE
  8
1
 66
1
 10
0.0000
 20
0.0000
 30
0.0000
 40
0.4064
 41
0.4064
 70
0
  0
VERTEX
  8
1
 10
40.5468
 20
29.7500
 30
0.0000
 42
1.0000
  0
VERTEX
  8
1
 10
40.9532
 20
29.7500
 30
0.0000
  0
SEQEND
  8
0
  0
POLYLINE
  8
1
 66
1
 10
0.0000
 20
0.0000
 30
0.0000
 40
0.4064
 41
0.4064
 70
0
  0
VERTEX
  8
1
 10
40.9532
 20
48.0000
 30
0.0000
 42
1.0000
  0
VERTEX
  8
1
 10
40.5468
 20
48.0000
 30
0.0000
  0
SEQEND
  8
0
  0
POLYLINE
  8
1
 66
1
 10
0.0000
 20
0.0000
 30
0.0000
 40
0.8128
 41
0.8128
 70
0
  0
VERTEX
  8
1
 10
40.7500
 20
29.7500
 30
0.0000
  0
VERTEX
  8
1
 10
36.0000
 20
25.0000
 30
0.0000
  0
SEQEND
  8
0
  0
POLYLINE
  8
1
 66
1
 10
0.0000
 20
0.0000
 30
0.0000
 40
0.4064
 41
0.4064
 70
0
  0
VERTEX
  8
1
 10
35.8563
 20
25.1437
 30
0.0000
 42
1.0000
  0
VERTEX
  8
1
 10
36.1437
 20
24.8563
 30
0.0000
  0
SEQEND
  8
0
  0
POLYLINE
  8
1
 66
1
 10
0.0000
 20
0.0000
 30
0.0000
 40
0.4064
 41
0.4064
 70
0
  0
VERTEX
  8
1
 10
40.8937
 20
29.6063
 30
0.0000
 42
1.0000
  0
VERTEX
  8
1
 10
40.6063
 20
29.8937
 30
0.0000
  0
SEQEND
  8
0
  0
POLYLINE
  8
1
 66
1
 10
0.0000
 20
0.0000
 30
0.0000
 40
0.8128
 41
0.8128
 70
0
  0
VERTEX
  8
1
 10
16.5000
 20
25.7500
 30
0.0000
  0
VERTEX
  8
1
 10
14.3976
 20
23.6476
 30
0.0000
  0
SEQEND
  8
0
  0
POLYLINE
  8
1
 66
1
 10
0.0000
 20
0.0000
 30
0.0000
 40
0.4064
 41
0.4064
 70
0
  0
VERTEX
  8
1
 10
14.2539
 20
23.7913
 30
0.0000
 42
1.0000
  0
VERTEX
  8
1
 10
14.5413
 20
23.5039
 30
0.0000
  0
SEQEND
  8
0
  0
POLYLINE
  8
1
 66
1
 10
0.0000
 20
0.0000
 30
0.0000
 40
0.4064
 41
0.4064
 70
0
  0
VERTEX
  8
1
 10
16.6437
 20
25.6063
 30
0.0000
 42
1.0000
  0
VERTEX
  8
1
 10
16.3563
 20
25.8937
 30
0.0000
  0
SEQEND
  8
0
  0
POLYLINE
  8
1
 66
1
 10
0.0000
 20
0.0000
 30
0.0000
 40
0.8128
 41
0.8128
 70
0
  0
VERTEX
  8
1
 10
14.3976
 20
23.6476
 30
0.0000
  0
VERTEX
  8
1
 10
14.3976
 20
21.2893
 30
0.0000
  0
SEQEND
  8
0
  0
POLYLINE
  8
1
 66
1
 10
0.0000
 20
0.0000
 30
0.0000
 40
0.4064
 41
0.4064
 70
0
  0
VERTEX
  8
1
 10
14.1944
 20
21.2893
 30
0.0000
 42
1.0000
  0
VERTEX
  8
1
 10
14.6008
 20
21.2893
 30
0.0000
  0
SEQEND
  8
0
  0
POLYLINE
  8
1
 66
1
 10
0.0000
 20
0.0000
 30
0.0000
 40
0.4064
 41
0.4064
 70
0
  0
VERTEX
  8
1
 10
14.6008
 20
23.6476
 30
0.0000
 42
1.0000
  0
VERTEX
  8
1
 10
14.1944
 20
23.6476
 30
0.0000
  0
SEQEND
  8
0
  0
POLYLINE
  8
1
 66
1
 10
0.0000
 20
0.0000
 30
0.0000
 40
0.8128
 41
0.8128
 70
0
  0
VERTEX
  8
1
 10
14.5393
 20
21.1476
 30
0.0000
  0
VERTEX
  8
1
 10
14.3976
 20
21.2893
 30
0.0000
  0
SEQEND
  8
0
  0
POLYLINE
  8
1
 66
1
 10
0.0000
 20
0.0000
 30
0.0000
 40
0.4064
 41
0.4064
 70
0
  0
VERTEX
  8
1
 10
14.5413
 20
21.4330
 30
0.0000
 42
1.0000
  0
VERTEX
  8
1
 10
14.2539
 20
21.1456
 30
0.0000
  0
SEQEND
  8
0
  0
POLYLINE
  8
1
 66
1
 10
0.0000
 20
0.0000
 30
0.0000
 40
0.4064
 41
0.4064
 70
0
  0
VERTEX
  8
1
 10
14.3956
 20
21.0039
 30
0.0000
 42
1.0000
  0
VERTEX
  8
1
 10
14.6830
 20
21.2913
 30
0.0000
  0
SEQEND
  8
0
  0
POLYLINE
  8
1
 66
1
 10
0.0000
 20
0.0000
 30
0.0000
 40
0.8128
 41
0.8128
 70
0
  0
VERTEX
  8
1
 10
16.5000
 20
25.7500
 30
0.0000
  0
VERTEX
  8
1
 10
20.0000
 20
25.7500
 30
0.0000
  0
SEQEND
  8
0
  0
POLYLINE
  8
1
 66
1
 10
0.0000
 20
0.0000
 30
0.0000
 40
0.4064
 41
0.4064
 70
0
  0
VERTEX
  8
1
 10
20.0000
 20
25.5468
 30
0.0000
 42
1.0000
  0
VERTEX
  8
1
 10
20.0000
 20
25.9532
 30
0.0000
  0
SEQEND
  8
0
  0
POLYLINE
  8
1
 66
1
 10
0.0000
 20
0.0000
 30
0.0000
 40
0.4064
 41
0.4064
 70
0
  0
VERTEX
  8
1
 10
16.5000
 20
25.9532
 30
0.0000
 42
1.0000
  0
VERTEX
  8
1
 10
16.5000
 20
25.5468
 30
0.0000
  0
SEQEND
  8
0
  0
POLYLINE
  8
1
 66
1
 10
0.0000
 20
0.0000
 30
0.0000
 40
0.8128
 41
0.8128
 70
0
  0
VERTEX
  8
1
 10
35.8033
 20
36.9865
 30
0.0000
  0
VERTEX
  8
1
 10
35.5533
 20
37.2365
 30
0.0000
  0
SEQEND
  8
0
  0
POLYLINE
  8
1
 66
1
 10
0.0000
 20
0.0000
 30
0.0000
 40
0.4064
 41
0.4064
 70
0
  0
VERTEX
  8
1
 10
35.6970
 20
37.3802
 30
0.0000
 42
1.0000
  0
VERTEX
  8
1
 10
35.4096
 20
37.0928
 30
0.0000
  0
SEQEND
  8
0
  0
POLYLINE
  8
1
 66
1
 10
0.0000
 20
0.0000
 30
0.0000
 40
0.4064
 41
0.4064
 70
0
  0
VERTEX
  8
1
 10
35.6596
 20
36.8428
 30
0.0000
 42
1.0000
  0
VERTEX
  8
1
 10
35.9470
 20
37.1302
 30
0.0000
  0
SEQEND
  8
0
  0
POLYLINE
  8
1
 66
1
 10
0.0000
 20
0.0000
 30
0.0000
 40
0.8128
 41
0.8128
 70
0
  0
VERTEX
  8
1
 10
35.5533
 20
37.2365
 30
0.0000
  0
VERTEX
  8
1
 10
31.4865
 20
37.2365
 30
0.0000
  0
SEQEND
  8
0
  0
POLYLINE
  8
1
 66
1
 10
0.0000
 20
0.0000
 30
0.0000
 40
0.4064
 41
0.4064
 70
0
  0
VERTEX
  8
1
 10
31.4865
 20
37.4397
 30
0.0000
 42
1.0000
  0
VERTEX
  8
1
 10
31.4865
 20
37.0333
 30
0.0000
  0
SEQEND
  8
0
  0
POLYLINE
  8
1
 66
1
 10
0.0000
 20
0.0000
 30
0.0000
 40
0.4064
 41
0.4064
 70
0
  0
VERTEX
  8
1
 10
35.5533
 20
37.0333
 30
0.0000
 42
1.0000
  0
VERTEX
  8
1
 10
35.5533
 20
37.4397
 30
0.0000
  0
SEQEND
  8
0
  0
POLYLINE
  8
1
 66
1
 10
0.0000
 20
0.0000
 30
0.0000
 40
0.8128
 41
0.8128
 70
0
  0
VERTEX
  8
1
 10
31.4865
 20
37.2365
 30
0.0000
  0
VERTEX
  8
1
 10
20.0000
 20
25.7500
 30
0.0000
  0
SEQEND
  8
0
  0
POLYLINE
  8
1
 66
1
 10
0.0000
 20
0.0000
 30
0.0000
 40
0.4064
 41
0.4064
 70
0
  0
VERTEX
  8
1
 10
19.8563
 20
25.8937
 30
0.0000
 42
1.0000
  0
VERTEX
  8
1
 10
20.1437
 20
25.6063
 30
0.0000
  0
SEQEND
  8
0
  0
POLYLINE
  8
1
 66
1
 10
0.0000
 20
0.0000
 30
0.0000
 40
0.4064
 41
0.4064
 70
0
  0
VERTEX
  8
1
 10
31.6302
 20
37.0928
 30
0.0000
 42
1.0000
  0
VERTEX
  8
1
 10
31.3428
 20
37.3802
 30
0.0000
  0
SEQEND
  8
0
  0
POLYLINE
  8
1
 66
1
 10
0.0000
 20
0.0000
 30
0.0000
 40
0.8128
 41
0.8128
 70
0
  0
VERTEX
  8
1
 10
63.5000
 20
54.5000
 30
0.0000
  0
VERTEX
  8
1
 10
65.4285
 20
56.4285
 30
0.0000
  0
SEQEND
  8
0
  0
POLYLINE
  8
1
 66
1
 10
0.0000
 20
0.0000
 30
0.0000
 40
0.4064
 41
0.4064
 70
0
  0
VERTEX
  8
1
 10
65.5722
 20
56.2848
 30
0.0000
 42
1.0000
  0
VERTEX
  8
1
 10
65.2848
 20
56.5722
 30
0.0000
  0
SEQEND
  8
0
  0
POLYLINE
  8
1
 66
1
 10
0.0000
 20
0.0000
 30
0.0000
 40
0.4064
 41
0.4064
 70
0
  0
VERTEX
  8
1
 10
63.3563
 20
54.6437
 30
0.0000
 42
1.0000
  0
VERTEX
  8
1
 10
63.6437
 20
54.3563
 30
0.0000
  0
SEQEND
  8
0
  0
POLYLINE
  8
1
 66
1
 10
0.0000
 20
0.0000
 30
0.0000
 40
0.8128
 41
0.8128
 70
0
  0
VERTEX
  8
1
 10
65.4707
 20
56.4139
 30
0.0000
  0
VERTEX
  8
1
 10
65.4285
 20
56.4285
 30
0.0000
  0
SEQEND
  8
0
  0
POLYLINE
  8
1
 66
1
 10
0.0000
 20
0.0000
 30
0.0000
 40
0.4064
 41
0.4064
 70
0
  0
VERTEX
  8
1
 10
65.4950
 20
56.6205
 30
0.0000
 42
1.0000
  0
VERTEX
  8
1
 10
65.3620
 20
56.2365
 30
0.0000
  0
SEQEND
  8
0
  0
POLYLINE
  8
1
 66
1
 10
0.0000
 20
0.0000
 30
0.0000
 40
0.4064
 41
0.4064
 70
0
  0
VERTEX
  8
1
 10
65.4043
 20
56.2219
 30
0.0000
 42
1.0000
  0
VERTEX
  8
1
 10
65.5372
 20
56.6059
 30
0.0000
  0
SEQEND
  8
0
  0
POLYLINE
  8
1
 66
1
 10
0.0000
 20
0.0000
 30
0.0000
 40
0.8128
 41
0.8128
 70
0
  0
VERTEX
  8
1
 10
65.4707
 20
56.4139
 30
0.0000
  0
VERTEX
  8
1
 10
68.6090
 20
56.4139
 30
0.0000
  0
SEQEND
  8
0
  0
POLYLINE
  8
1
 66
1
 10
0.0000
 20
0.0000
 30
0.0000
 40
0.4064
 41
0.4064
 70
0
  0
VERTEX
  8
1
 10
68.6090
 20
56.2107
 30
0.0000
 42
1.0000
  0
VERTEX
  8
1
 10
68.6090
 20
56.6171
 30
0.0000
  0
SEQEND
  8
0
  0
POLYLINE
  8
1
 66
1
 10
0.0000
 20
0.0000
 30
0.0000
 40
0.4064
 41
0.4064
 70
0
  0
VERTEX
  8
1
 10
65.4707
 20
56.6171
 30
0.0000
 42
1.0000
  0
VERTEX
  8
1
 10
65.4707
 20
56.2107
 30
0.0000
  0
SEQEND
  8
0
  0
POLYLINE
  8
1
 66
1
 10
0.0000
 20
0.0000
 30
0.0000
 40
0.8128
 41
0.8128
 70
0
  0
VERTEX
  8
1
 10
63.5000
 20
54.5000
 30
0.0000
  0
VERTEX
  8
1
 10
63.5000
 20
46.5000
 30
0.0000
  0
SEQEND
  8
0
  0
POLYLINE
  8
1
 66
1
 10
0.0000
 20
0.0000
 30
0.0000
 40
0.4064
 41
0.4064
 70
0
  0
VERTEX
  8
1
 10
63.2968
 20
46.5000
 30
0.0000
 42
1.0000
  0
VERTEX
  8
1
 10
63.7032
 20
46.5000
 30
0.0000
  0
SEQEND
  8
0
  0
POLYLINE
  8
1
 66
1
 10
0.0000
 20
0.0000
 30
0.0000
 40
0.4064
 41
0.4064
 70
0
  0
VERTEX
  8
1
 10
63.7032
 20
54.5000
 30
0.0000
 42
1.0000
  0
VERTEX
  8
1
 10
63.2968
 20
54.5000
 30
0.0000
  0
SEQEND
  8
0
  0
POLYLINE
  8
1
 66
1
 10
0.0000
 20
0.0000
 30
0.0000
 40
0.8128
 41
0.8128
 70
0
  0
VERTEX
  8
1
 10
63.5000
 20
46.5000
 30
0.0000
  0
VERTEX
  8
1
 10
59.5882
 20
42.5882
 30
0.0000
  0
SEQEND
  8
0
  0
POLYLINE
  8
1
 66
1
 10
0.0000
 20
0.0000
 30
0.0000
 40
0.4064
 41
0.4064
 70
0
  0
VERTEX
  8
1
 10
59.4445
 20
42.7319
 30
0.0000
 42
1.0000
  0
VERTEX
  8
1
 10
59.7319
 20
42.4445
 30
0.0000
  0
SEQEND
  8
0
  0
POLYLINE
  8
1
 66
1
 10
0.0000
 20
0.0000
 30
0.0000
 40
0.4064
 41
0.4064
 70
0
  0
VERTEX
  8
1
 10
63.6437
 20
46.3563
 30
0.0000
 42
1.0000
  0
VERTEX
  8
1
 10
63.3563
 20
46.6437
 30
0.0000
  0
SEQEND
  8
0
  0
POLYLINE
  8
1
 66
1
 10
0.0000
 20
0.0000
 30
0.0000
 40
0.8128
 41
0.8128
 70
0
  0
VERTEX
  8
1
 10
59.5882
 20
42.5882
 30
0.0000
  0
VERTEX
  8
1
 10
50.8897
 20
42.5882
 30
0.0000
  0
SEQEND
  8
0
  0
POLYLINE
  8
1
 66
1
 10
0.0000
 20
0.0000
 30
0.0000
 40
0.4064
 41
0.4064
 70
0
  0
VERTEX
  8
1
 10
50.8897
 20
42.7914
 30
0.0000
 42
1.0000
  0
VERTEX
  8
1
 10
50.8897
 20
42.3850
 30
0.0000
  0
SEQEND
  8
0
  0
POLYLINE
  8
1
 66
1
 10
0.0000
 20
0.0000
 30
0.0000
 40
0.4064
 41
0.4064
 70
0
  0
VERTEX
  8
1
 10
59.5882
 20
42.3850
 30
0.0000
 42
1.0000
  0
VERTEX
  8
1
 10
59.5882
 20
42.7914
 30
0.0000
  0
SEQEND
  8
0
  0
POLYLINE
  8
1
 66
1
 10
0.0000
 20
0.0000
 30
0.0000
 40
0.8128
 41
0.8128
 70
0
  0
VERTEX
  8
1
 10
46.4309
 20
30.2197
 30
0.0000
  0
VERTEX
  8
1
 10
46.4309
 20
38.1294
 30
0.0000
  0
SEQEND
  8
0
  0
POLYLINE
  8
1
 66
1
 10
0.0000
 20
0.0000
 30
0.0000
 40
0.4064
 41
0.4064
 70
0
  0
VERTEX
  8
1
 10
46.6341
 20
38.1294
 30
0.0000
 42
1.0000
  0
VERTEX
  8
1
 10
46.2277
 20
38.1294
 30
0.0000
  0
SEQEND
  8
0
  0
POLYLINE
  8
1
 66
1
 10
0.0000
 20
0.0000
 30
0.0000
 40
0.4064
 41
0.4064
 70
0
  0
VERTEX
  8
1
 10
46.2277
 20
30.2197
 30
0.0000
 42
1.0000
  0
VERTEX
  8
1
 10
46.6341
 20
30.2197
 30
0.0000
  0
SEQEND
  8
0
  0
POLYLINE
  8
1
 66
1
 10
0.0000
 20
0.0000
 30
0.0000
 40
0.8128
 41
0.8128
 70
0
  0
VERTEX
  8
1
 10
46.4309
 20
38.1294
 30
0.0000
  0
VERTEX
  8
1
 10
50.8897
 20
42.5882
 30
0.0000
  0
SEQEND
  8
0
  0
POLYLINE
  8
1
 66
1
 10
0.0000
 20
0.0000
 30
0.0000
 40
0.4064
 41
0.4064
 70
0
  0
VERTEX
  8
1
 10
51.0334
 20
42.4445
 30
0.0000
 42
1.0000
  0
VERTEX
  8
1
 10
50.7460
 20
42.7319
 30
0.0000
  0
SEQEND
  8
0
  0
POLYLINE
  8
1
 66
1
 10
0.0000
 20
0.0000
 30
0.0000
 40
0.4064
 41
0.4064
 70
0
  0
VERTEX
  8
1
 10
46.2872
 20
38.2731
 30
0.0000
 42
1.0000
  0
VERTEX
  8
1
 10
46.5746
 20
37.9857
 30
0.0000
  0
SEQEND
  8
0
  0
ENDSEC
  0
EOF
