  0
SECTION
  2
HEADER
  9
$ACADVER
  1
AC1009
  9
$FILLMODE
 70
1
  9
$EXTMIN
 10
0.0000
 20
0.0000
 30
0.0000
  9
$EXTMAX
 10
127.5875
 20
70.0000
 30
0.0000
  0
ENDSEC
  0
SECTION
  2
TABLES
  0
TABLE
  2
LTYPE
 70
1
  0
LTYPE
  2
CONTINUOUS
 70
64
  3
Solid line
 72
65
 73
0
 40
0
  0
ENDTAB
  0
TABLE
  2
LAYER
 70
255
  0
LAYER
  2
1
 70
64
 62
12
  6
CONTINUOUS
  0
LAYER
  2
17
 70
64
 62
122
  6
CONTINUOUS
  0
LAYER
  2
18
 70
64
 62
122
  6
CONTINUOUS
  0
ENDTAB
  0
ENDSEC
  0
SECTION
  2
BLOCKS
  0
BLOCK
  8
0
  2
RECT
 70
64
 10
0.0000
 20
0.0000
 30
0.0000
  3
RECT
  0
SOLID
  8
0
 10
-0.5000
 20
-0.5000
 30
0.0000
 11
0.5000
 21
-0.5000
 31
0.0000
 12
-0.5000
 22
0.5000
 32
0.0000
 13
0.5000
 23
0.5000
 33
0.0000
  0
ENDBLK
  8
0
  0
BLOCK
  8
0
  2
PIE
 70
64
 10
0.0000
 20
0.0000
 30
0.0000
  3
PIE
  0
POLYLINE
  8
0
 66
1
 10
0.0000
 20
0.0000
 30
0.0000
 40
0.5000
 41
0.5000
 70
0
  0
VERTEX
  8
0
 10
0.0000
 20
-0.2500
 30
0.0000
 42
1.0000
  0
VERTEX
  8
0
 10
0.0000
 20
0.2500
 30
0.0000
 42
1.0000
  0
VERTEX
  8
0
 10
0.0000
 20
-0.2500
 30
0.0000
  0
SEQEND
  8
0
  0
ENDBLK
  8
0
  0
BLOCK
  8
0
  2
OCTAGONP
 70
64
 10
0.0000
 20
0.0000
 30
0.0000
  3
OCTAGONP
  0
POLYLINE
  8
0
 66
1
 10
0.0000
 20
0.0000
 30
0.0000
 40
0.5000
 41
0.5000
 70
0
  0
VERTEX
  8
0
 10
-0.2500
 20
-0.1036
 30
0.0000
  0
VERTEX
  8
0
 10
-0.2500
 20
0.1036
 30
0.0000
  0
VERTEX
  8
0
 10
-0.1036
 20
0.2500
 30
0.0000
  0
VERTEX
  8
0
 10
0.1036
 20
0.2500
 30
0.0000
  0
VERTEX
  8
0
 10
0.2500
 20
0.1036
 30
0.0000
  0
VERTEX
  8
0
 10
0.2500
 20
-0.1036
 30
0.0000
  0
VERTEX
  8
0
 10
0.1036
 20
-0.2500
 30
0.0000
  0
VERTEX
  8
0
 10
-0.1036
 20
-0.2500
 30
0.0000
  0
VERTEX
  8
0
 10
-0.2500
 20
-0.1036
 30
0.0000
  0
VERTEX
  8
0
 10
-0.2500
 20
0.1036
 30
0.0000
  0
SEQEND
  8
0
  0
ENDBLK
  8
0
  0
BLOCK
  8
0
  2
SQUAREP
 70
64
 10
0.0000
 20
0.0000
 30
0.0000
  3
SQUAREP
  0
SOLID
  8
0
 10
-0.5000
 20
-0.5000
 30
0.0000
 11
0.5000
 21
-0.5000
 31
0.0000
 12
-0.5000
 22
0.5000
 32
0.0000
 13
0.5000
 23
0.5000
 33
0.0000
  0
ENDBLK
  8
0
  0
BLOCK
  8
0
  2
ROUNDP
 70
64
 10
0.0000
 20
0.0000
 30
0.0000
  3
ROUNDP
  0
POLYLINE
  8
0
 66
1
 10
0.0000
 20
0.0000
 30
0.0000
 40
0.5000
 41
0.5000
 70
0
  0
VERTEX
  8
0
 10
0.0000
 20
-0.2500
 30
0.0000
 42
1.0000
  0
VERTEX
  8
0
 10
0.0000
 20
0.2500
 30
0.0000
 42
1.0000
  0
VERTEX
  8
0
 10
0.0000
 20
-0.2500
 30
0.0000
  0
SEQEND
  8
0
  0
ENDBLK
  8
0
  0
BLOCK
  8
0
  2
ANNULUSP
 70
64
 10
0.0000
 20
0.0000
 30
0.0000
  3
ANNULUSP
  0
POLYLINE
  8
0
 66
1
 10
0.0000
 20
0.0000
 30
0.0000
 40
0.5000
 41
0.5000
 70
0
  0
VERTEX
  8
0
 10
0.0000
 20
-0.2500
 30
0.0000
 42
1.0000
  0
VERTEX
  8
0
 10
0.0000
 20
0.2500
 30
0.0000
 42
1.0000
  0
VERTEX
  8
0
 10
0.0000
 20
-0.2500
 30
0.0000
  0
SEQEND
  8
0
  0
ENDBLK
  8
0
  0
BLOCK
  8
0
  2
THERMALP
 70
64
 10
0.0000
 20
0.0000
 30
0.0000
  3
THERMALP
  0
POLYLINE
  8
0
 66
1
 10
0.0000
 20
0.0000
 30
0.0000
 40
0.1000
 41
0.1000
 70
0
  0
VERTEX
  8
0
 10
-0.2379
 20
0.4500
 30
0.0000
  0
VERTEX
  8
0
 10
0.2379
 20
0.4500
 30
0.0000
  0
SEQEND
  8
0
  0
POLYLINE
  8
0
 66
1
 10
0.0000
 20
0.0000
 30
0.0000
 40
0.0500
 41
0.0500
 70
0
  0
VERTEX
  8
0
 10
0.2379
 20
0.4250
 30
0.0000
 42
1.0000
  0
VERTEX
  8
0
 10
0.2379
 20
0.4750
 30
0.0000
  0
SEQEND
  8
0
  0
POLYLINE
  8
0
 66
1
 10
0.0000
 20
0.0000
 30
0.0000
 40
0.0500
 41
0.0500
 70
0
  0
VERTEX
  8
0
 10
-0.2379
 20
0.4750
 30
0.0000
 42
1.0000
  0
VERTEX
  8
0
 10
-0.2379
 20
0.4250
 30
0.0000
  0
SEQEND
  8
0
  0
POLYLINE
  8
0
 66
1
 10
0.0000
 20
0.0000
 30
0.0000
 40
0.1000
 41
0.1000
 70
0
  0
VERTEX
  8
0
 10
0.4500
 20
0.2379
 30
0.0000
  0
VERTEX
  8
0
 10
0.4500
 20
-0.2379
 30
0.0000
  0
SEQEND
  8
0
  0
POLYLINE
  8
0
 66
1
 10
0.0000
 20
0.0000
 30
0.0000
 40
0.0500
 41
0.0500
 70
0
  0
VERTEX
  8
0
 10
0.4250
 20
-0.2379
 30
0.0000
 42
1.0000
  0
VERTEX
  8
0
 10
0.4750
 20
-0.2379
 30
0.0000
  0
SEQEND
  8
0
  0
POLYLINE
  8
0
 66
1
 10
0.0000
 20
0.0000
 30
0.0000
 40
0.0500
 41
0.0500
 70
0
  0
VERTEX
  8
0
 10
0.4750
 20
0.2379
 30
0.0000
 42
1.0000
  0
VERTEX
  8
0
 10
0.4250
 20
0.2379
 30
0.0000
  0
SEQEND
  8
0
  0
POLYLINE
  8
0
 66
1
 10
0.0000
 20
0.0000
 30
0.0000
 40
0.1000
 41
0.1000
 70
0
  0
VERTEX
  8
0
 10
0.2379
 20
-0.4500
 30
0.0000
  0
VERTEX
  8
0
 10
-0.2379
 20
-0.4500
 30
0.0000
  0
SEQEND
  8
0
  0
POLYLINE
  8
0
 66
1
 10
0.0000
 20
0.0000
 30
0.0000
 40
0.0500
 41
0.0500
 70
0
  0
VERTEX
  8
0
 10
-0.2379
 20
-0.4250
 30
0.0000
 42
1.0000
  0
VERTEX
  8
0
 10
-0.2379
 20
-0.4750
 30
0.0000
  0
SEQEND
  8
0
  0
POLYLINE
  8
0
 66
1
 10
0.0000
 20
0.0000
 30
0.0000
 40
0.0500
 41
0.0500
 70
0
  0
VERTEX
  8
0
 10
0.2379
 20
-0.4750
 30
0.0000
 42
1.0000
  0
VERTEX
  8
0
 10
0.2379
 20
-0.4250
 30
0.0000
  0
SEQEND
  8
0
  0
POLYLINE
  8
0
 66
1
 10
0.0000
 20
0.0000
 30
0.0000
 40
0.1000
 41
0.1000
 70
0
  0
VERTEX
  8
0
 10
-0.4500
 20
-0.2379
 30
0.0000
  0
VERTEX
  8
0
 10
-0.4500
 20
0.2379
 30
0.0000
  0
SEQEND
  8
0
  0
POLYLINE
  8
0
 66
1
 10
0.0000
 20
0.0000
 30
0.0000
 40
0.0500
 41
0.0500
 70
0
  0
VERTEX
  8
0
 10
-0.4250
 20
0.2379
 30
0.0000
 42
1.0000
  0
VERTEX
  8
0
 10
-0.4750
 20
0.2379
 30
0.0000
  0
SEQEND
  8
0
  0
POLYLINE
  8
0
 66
1
 10
0.0000
 20
0.0000
 30
0.0000
 40
0.0500
 41
0.0500
 70
0
  0
VERTEX
  8
0
 10
-0.4750
 20
-0.2379
 30
0.0000
 42
1.0000
  0
VERTEX
  8
0
 10
-0.4250
 20
-0.2379
 30
0.0000
  0
SEQEND
  8
0
  0
ENDBLK
  8
0
  0
BLOCK
  8
0
  2
OCTAGONV
 70
64
 10
0.0000
 20
0.0000
 30
0.0000
  3
OCTAGONV
  0
POLYLINE
  8
0
 66
1
 10
0.0000
 20
0.0000
 30
0.0000
 40
0.5000
 41
0.5000
 70
0
  0
VERTEX
  8
0
 10
-0.2500
 20
-0.1036
 30
0.0000
  0
VERTEX
  8
0
 10
-0.2500
 20
0.1036
 30
0.0000
  0
VERTEX
  8
0
 10
-0.1036
 20
0.2500
 30
0.0000
  0
VERTEX
  8
0
 10
0.1036
 20
0.2500
 30
0.0000
  0
VERTEX
  8
0
 10
0.2500
 20
0.1036
 30
0.0000
  0
VERTEX
  8
0
 10
0.2500
 20
-0.1036
 30
0.0000
  0
VERTEX
  8
0
 10
0.1036
 20
-0.2500
 30
0.0000
  0
VERTEX
  8
0
 10
-0.1036
 20
-0.2500
 30
0.0000
  0
VERTEX
  8
0
 10
-0.2500
 20
-0.1036
 30
0.0000
  0
VERTEX
  8
0
 10
-0.2500
 20
0.1036
 30
0.0000
  0
SEQEND
  8
0
  0
ENDBLK
  8
0
  0
BLOCK
  8
0
  2
SQUAREV
 70
64
 10
0.0000
 20
0.0000
 30
0.0000
  3
SQUAREV
  0
SOLID
  8
0
 10
-0.5000
 20
-0.5000
 30
0.0000
 11
0.5000
 21
-0.5000
 31
0.0000
 12
-0.5000
 22
0.5000
 32
0.0000
 13
0.5000
 23
0.5000
 33
0.0000
  0
ENDBLK
  8
0
  0
BLOCK
  8
0
  2
ROUNDV
 70
64
 10
0.0000
 20
0.0000
 30
0.0000
  3
ROUNDV
  0
POLYLINE
  8
0
 66
1
 10
0.0000
 20
0.0000
 30
0.0000
 40
0.5000
 41
0.5000
 70
0
  0
VERTEX
  8
0
 10
0.0000
 20
-0.2500
 30
0.0000
 42
1.0000
  0
VERTEX
  8
0
 10
0.0000
 20
0.2500
 30
0.0000
 42
1.0000
  0
VERTEX
  8
0
 10
0.0000
 20
-0.2500
 30
0.0000
  0
SEQEND
  8
0
  0
ENDBLK
  8
0
  0
BLOCK
  8
0
  2
ANNULUSV
 70
64
 10
0.0000
 20
0.0000
 30
0.0000
  3
ANNULUSV
  0
POLYLINE
  8
0
 66
1
 10
0.0000
 20
0.0000
 30
0.0000
 40
0.5000
 41
0.5000
 70
0
  0
VERTEX
  8
0
 10
0.0000
 20
-0.2500
 30
0.0000
 42
1.0000
  0
VERTEX
  8
0
 10
0.0000
 20
0.2500
 30
0.0000
 42
1.0000
  0
VERTEX
  8
0
 10
0.0000
 20
-0.2500
 30
0.0000
  0
SEQEND
  8
0
  0
ENDBLK
  8
0
  0
BLOCK
  8
0
  2
THERMALV
 70
64
 10
0.0000
 20
0.0000
 30
0.0000
  3
THERMALV
  0
POLYLINE
  8
0
 66
1
 10
0.0000
 20
0.0000
 30
0.0000
 40
0.1000
 41
0.1000
 70
0
  0
VERTEX
  8
0
 10
-0.2379
 20
0.4500
 30
0.0000
  0
VERTEX
  8
0
 10
0.2379
 20
0.4500
 30
0.0000
  0
SEQEND
  8
0
  0
POLYLINE
  8
0
 66
1
 10
0.0000
 20
0.0000
 30
0.0000
 40
0.0500
 41
0.0500
 70
0
  0
VERTEX
  8
0
 10
0.2379
 20
0.4250
 30
0.0000
 42
1.0000
  0
VERTEX
  8
0
 10
0.2379
 20
0.4750
 30
0.0000
  0
SEQEND
  8
0
  0
POLYLINE
  8
0
 66
1
 10
0.0000
 20
0.0000
 30
0.0000
 40
0.0500
 41
0.0500
 70
0
  0
VERTEX
  8
0
 10
-0.2379
 20
0.4750
 30
0.0000
 42
1.0000
  0
VERTEX
  8
0
 10
-0.2379
 20
0.4250
 30
0.0000
  0
SEQEND
  8
0
  0
POLYLINE
  8
0
 66
1
 10
0.0000
 20
0.0000
 30
0.0000
 40
0.1000
 41
0.1000
 70
0
  0
VERTEX
  8
0
 10
0.4500
 20
0.2379
 30
0.0000
  0
VERTEX
  8
0
 10
0.4500
 20
-0.2379
 30
0.0000
  0
SEQEND
  8
0
  0
POLYLINE
  8
0
 66
1
 10
0.0000
 20
0.0000
 30
0.0000
 40
0.0500
 41
0.0500
 70
0
  0
VERTEX
  8
0
 10
0.4250
 20
-0.2379
 30
0.0000
 42
1.0000
  0
VERTEX
  8
0
 10
0.4750
 20
-0.2379
 30
0.0000
  0
SEQEND
  8
0
  0
POLYLINE
  8
0
 66
1
 10
0.0000
 20
0.0000
 30
0.0000
 40
0.0500
 41
0.0500
 70
0
  0
VERTEX
  8
0
 10
0.4750
 20
0.2379
 30
0.0000
 42
1.0000
  0
VERTEX
  8
0
 10
0.4250
 20
0.2379
 30
0.0000
  0
SEQEND
  8
0
  0
POLYLINE
  8
0
 66
1
 10
0.0000
 20
0.0000
 30
0.0000
 40
0.1000
 41
0.1000
 70
0
  0
VERTEX
  8
0
 10
0.2379
 20
-0.4500
 30
0.0000
  0
VERTEX
  8
0
 10
-0.2379
 20
-0.4500
 30
0.0000
  0
SEQEND
  8
0
  0
POLYLINE
  8
0
 66
1
 10
0.0000
 20
0.0000
 30
0.0000
 40
0.0500
 41
0.0500
 70
0
  0
VERTEX
  8
0
 10
-0.2379
 20
-0.4250
 30
0.0000
 42
1.0000
  0
VERTEX
  8
0
 10
-0.2379
 20
-0.4750
 30
0.0000
  0
SEQEND
  8
0
  0
POLYLINE
  8
0
 66
1
 10
0.0000
 20
0.0000
 30
0.0000
 40
0.0500
 41
0.0500
 70
0
  0
VERTEX
  8
0
 10
0.2379
 20
-0.4750
 30
0.0000
 42
1.0000
  0
VERTEX
  8
0
 10
0.2379
 20
-0.4250
 30
0.0000
  0
SEQEND
  8
0
  0
POLYLINE
  8
0
 66
1
 10
0.0000
 20
0.0000
 30
0.0000
 40
0.1000
 41
0.1000
 70
0
  0
VERTEX
  8
0
 10
-0.4500
 20
-0.2379
 30
0.0000
  0
VERTEX
  8
0
 10
-0.4500
 20
0.2379
 30
0.0000
  0
SEQEND
  8
0
  0
POLYLINE
  8
0
 66
1
 10
0.0000
 20
0.0000
 30
0.0000
 40
0.0500
 41
0.0500
 70
0
  0
VERTEX
  8
0
 10
-0.4250
 20
0.2379
 30
0.0000
 42
1.0000
  0
VERTEX
  8
0
 10
-0.4750
 20
0.2379
 30
0.0000
  0
SEQEND
  8
0
  0
POLYLINE
  8
0
 66
1
 10
0.0000
 20
0.0000
 30
0.0000
 40
0.0500
 41
0.0500
 70
0
  0
VERTEX
  8
0
 10
-0.4750
 20
-0.2379
 30
0.0000
 42
1.0000
  0
VERTEX
  8
0
 10
-0.4250
 20
-0.2379
 30
0.0000
  0
SEQEND
  8
0
  0
ENDBLK
  8
0
  0
BLOCK
  8
0
  2
LONGP100
 70
64
 10
0.0000
 20
0.0000
 30
0.0000
  3
LONGP100
  0
POLYLINE
  8
0
 66
1
 10
0.0000
 20
0.0000
 30
0.0000
 40
1.0000
 41
1.0000
 70
0
  0
VERTEX
  8
0
 10
-0.5000
 20
0.0000
 30
0.0000
  0
VERTEX
  8
0
 10
0.5000
 20
0.0000
 30
0.0000
  0
SEQEND
  8
0
  0
POLYLINE
  8
0
 66
1
 10
0.0000
 20
0.0000
 30
0.0000
 40
0.5000
 41
0.5000
 70
0
  0
VERTEX
  8
0
 10
0.5000
 20
-0.2500
 30
0.0000
 42
1.0000
  0
VERTEX
  8
0
 10
0.5000
 20
0.2500
 30
0.0000
  0
SEQEND
  8
0
  0
POLYLINE
  8
0
 66
1
 10
0.0000
 20
0.0000
 30
0.0000
 40
0.5000
 41
0.5000
 70
0
  0
VERTEX
  8
0
 10
-0.5000
 20
0.2500
 30
0.0000
 42
1.0000
  0
VERTEX
  8
0
 10
-0.5000
 20
-0.2500
 30
0.0000
  0
SEQEND
  8
0
  0
ENDBLK
  8
0
  0
ENDSEC
  0
SECTION
  2
ENTITIES
  0
INSERT
  8
17
  2
LONGP100
 10
50.0000
 20
63.8100
 30
0.0000
 41
1.5240
 42
1.5240
 43
1.0000
 50
0.0000
  0
INSERT
  8
17
  2
LONGP100
 10
50.0000
 20
61.2700
 30
0.0000
 41
1.5240
 42
1.5240
 43
1.0000
 50
0.0000
  0
INSERT
  8
17
  2
LONGP100
 10
50.0000
 20
58.7300
 30
0.0000
 41
1.5240
 42
1.5240
 43
1.0000
 50
0.0000
  0
INSERT
  8
17
  2
LONGP100
 10
50.0000
 20
56.1900
 30
0.0000
 41
1.5240
 42
1.5240
 43
1.0000
 50
0.0000
  0
INSERT
  8
17
  2
LONGP100
 10
40.0000
 20
63.8100
 30
0.0000
 41
1.5240
 42
1.5240
 43
1.0000
 50
0.0000
  0
INSERT
  8
17
  2
LONGP100
 10
40.0000
 20
61.2700
 30
0.0000
 41
1.5240
 42
1.5240
 43
1.0000
 50
0.0000
  0
INSERT
  8
17
  2
LONGP100
 10
40.0000
 20
58.7300
 30
0.0000
 41
1.5240
 42
1.5240
 43
1.0000
 50
0.0000
  0
INSERT
  8
17
  2
LONGP100
 10
40.0000
 20
56.1900
 30
0.0000
 41
1.5240
 42
1.5240
 43
1.0000
 50
0.0000
  0
INSERT
  8
17
  2
LONGP100
 10
30.0000
 20
63.8100
 30
0.0000
 41
1.5240
 42
1.5240
 43
1.0000
 50
0.0000
  0
INSERT
  8
17
  2
LONGP100
 10
30.0000
 20
61.2700
 30
0.0000
 41
1.5240
 42
1.5240
 43
1.0000
 50
0.0000
  0
INSERT
  8
17
  2
LONGP100
 10
30.0000
 20
58.7300
 30
0.0000
 41
1.5240
 42
1.5240
 43
1.0000
 50
0.0000
  0
INSERT
  8
17
  2
LONGP100
 10
30.0000
 20
56.1900
 30
0.0000
 41
1.5240
 42
1.5240
 43
1.0000
 50
0.0000
  0
INSERT
  8
17
  2
LONGP100
 10
20.0000
 20
63.8100
 30
0.0000
 41
1.5240
 42
1.5240
 43
1.0000
 50
0.0000
  0
INSERT
  8
17
  2
LONGP100
 10
20.0000
 20
61.2700
 30
0.0000
 41
1.5240
 42
1.5240
 43
1.0000
 50
0.0000
  0
INSERT
  8
17
  2
LONGP100
 10
20.0000
 20
58.7300
 30
0.0000
 41
1.5240
 42
1.5240
 43
1.0000
 50
0.0000
  0
INSERT
  8
17
  2
LONGP100
 10
20.0000
 20
56.1900
 30
0.0000
 41
1.5240
 42
1.5240
 43
1.0000
 50
0.0000
  0
INSERT
  8
17
  2
LONGP100
 10
10.0000
 20
63.8100
 30
0.0000
 41
1.5240
 42
1.5240
 43
1.0000
 50
0.0000
  0
INSERT
  8
17
  2
LONGP100
 10
10.0000
 20
61.2700
 30
0.0000
 41
1.5240
 42
1.5240
 43
1.0000
 50
0.0000
  0
INSERT
  8
17
  2
LONGP100
 10
10.0000
 20
58.7300
 30
0.0000
 41
1.5240
 42
1.5240
 43
1.0000
 50
0.0000
  0
INSERT
  8
17
  2
LONGP100
 10
10.0000
 20
56.1900
 30
0.0000
 41
1.5240
 42
1.5240
 43
1.0000
 50
0.0000
  0
INSERT
  8
17
  2
ROUNDP
 10
14.0393
 20
20.6076
 30
0.0000
 41
1.8796
 42
1.8796
 43
1.0000
 50
0.0000
  0
INSERT
  8
17
  2
ROUNDP
 10
14.0393
 20
23.1476
 30
0.0000
 41
1.8796
 42
1.8796
 43
1.0000
 50
0.0000
  0
INSERT
  8
17
  2
ROUNDP
 10
16.5793
 20
20.6076
 30
0.0000
 41
1.8796
 42
1.8796
 43
1.0000
 50
0.0000
  0
INSERT
  8
17
  2
ROUNDP
 10
16.5793
 20
23.1476
 30
0.0000
 41
1.8796
 42
1.8796
 43
1.0000
 50
0.0000
  0
INSERT
  8
17
  2
ROUNDP
 10
19.1193
 20
20.6076
 30
0.0000
 41
1.8796
 42
1.8796
 43
1.0000
 50
0.0000
  0
INSERT
  8
17
  2
ROUNDP
 10
19.1193
 20
23.1476
 30
0.0000
 41
1.8796
 42
1.8796
 43
1.0000
 50
0.0000
  0
INSERT
  8
17
  2
ROUNDP
 10
21.6593
 20
20.6076
 30
0.0000
 41
1.8796
 42
1.8796
 43
1.0000
 50
0.0000
  0
INSERT
  8
17
  2
ROUNDP
 10
21.6593
 20
23.1476
 30
0.0000
 41
1.8796
 42
1.8796
 43
1.0000
 50
0.0000
  0
INSERT
  8
17
  2
ROUNDP
 10
24.1993
 20
20.6076
 30
0.0000
 41
1.8796
 42
1.8796
 43
1.0000
 50
0.0000
  0
INSERT
  8
17
  2
ROUNDP
 10
24.1993
 20
23.1476
 30
0.0000
 41
1.8796
 42
1.8796
 43
1.0000
 50
0.0000
  0
INSERT
  8
17
  2
ROUNDP
 10
26.7393
 20
20.6076
 30
0.0000
 41
1.8796
 42
1.8796
 43
1.0000
 50
0.0000
  0
INSERT
  8
17
  2
ROUNDP
 10
26.7393
 20
23.1476
 30
0.0000
 41
1.8796
 42
1.8796
 43
1.0000
 50
0.0000
  0
INSERT
  8
17
  2
ROUNDP
 10
29.2793
 20
20.6076
 30
0.0000
 41
1.8796
 42
1.8796
 43
1.0000
 50
0.0000
  0
INSERT
  8
17
  2
ROUNDP
 10
29.2793
 20
23.1476
 30
0.0000
 41
1.8796
 42
1.8796
 43
1.0000
 50
0.0000
  0
INSERT
  8
17
  2
ROUNDP
 10
31.8193
 20
20.6076
 30
0.0000
 41
1.8796
 42
1.8796
 43
1.0000
 50
0.0000
  0
INSERT
  8
17
  2
ROUNDP
 10
31.8193
 20
23.1476
 30
0.0000
 41
1.8796
 42
1.8796
 43
1.0000
 50
0.0000
  0
INSERT
  8
17
  2
ROUNDP
 10
34.3593
 20
20.6076
 30
0.0000
 41
1.8796
 42
1.8796
 43
1.0000
 50
0.0000
  0
INSERT
  8
17
  2
ROUNDP
 10
34.3593
 20
23.1476
 30
0.0000
 41
1.8796
 42
1.8796
 43
1.0000
 50
0.0000
  0
INSERT
  8
17
  2
ROUNDP
 10
36.8993
 20
20.6076
 30
0.0000
 41
1.8796
 42
1.8796
 43
1.0000
 50
0.0000
  0
INSERT
  8
17
  2
ROUNDP
 10
36.8993
 20
23.1476
 30
0.0000
 41
1.8796
 42
1.8796
 43
1.0000
 50
0.0000
  0
INSERT
  8
17
  2
ROUNDP
 10
39.4393
 20
20.6076
 30
0.0000
 41
1.8796
 42
1.8796
 43
1.0000
 50
0.0000
  0
INSERT
  8
17
  2
ROUNDP
 10
39.4393
 20
23.1476
 30
0.0000
 41
1.8796
 42
1.8796
 43
1.0000
 50
0.0000
  0
INSERT
  8
17
  2
ROUNDP
 10
41.9793
 20
20.6076
 30
0.0000
 41
1.8796
 42
1.8796
 43
1.0000
 50
0.0000
  0
INSERT
  8
17
  2
ROUNDP
 10
41.9793
 20
23.1476
 30
0.0000
 41
1.8796
 42
1.8796
 43
1.0000
 50
0.0000
  0
INSERT
  8
17
  2
ROUNDP
 10
44.5193
 20
20.6076
 30
0.0000
 41
1.8796
 42
1.8796
 43
1.0000
 50
0.0000
  0
INSERT
  8
17
  2
ROUNDP
 10
44.5193
 20
23.1476
 30
0.0000
 41
1.8796
 42
1.8796
 43
1.0000
 50
0.0000
  0
INSERT
  8
17
  2
ROUNDP
 10
47.0593
 20
20.6076
 30
0.0000
 41
1.8796
 42
1.8796
 43
1.0000
 50
0.0000
  0
INSERT
  8
17
  2
ROUNDP
 10
47.0593
 20
23.1476
 30
0.0000
 41
1.8796
 42
1.8796
 43
1.0000
 50
0.0000
  0
INSERT
  8
17
  2
ROUNDP
 10
49.5993
 20
20.6076
 30
0.0000
 41
1.8796
 42
1.8796
 43
1.0000
 50
0.0000
  0
INSERT
  8
17
  2
ROUNDP
 10
49.5993
 20
23.1476
 30
0.0000
 41
1.8796
 42
1.8796
 43
1.0000
 50
0.0000
  0
INSERT
  8
17
  2
ROUNDP
 10
52.1393
 20
20.6076
 30
0.0000
 41
1.8796
 42
1.8796
 43
1.0000
 50
0.0000
  0
INSERT
  8
17
  2
ROUNDP
 10
52.1393
 20
23.1476
 30
0.0000
 41
1.8796
 42
1.8796
 43
1.0000
 50
0.0000
  0
INSERT
  8
17
  2
ROUNDP
 10
54.6793
 20
20.6076
 30
0.0000
 41
1.8796
 42
1.8796
 43
1.0000
 50
0.0000
  0
INSERT
  8
17
  2
ROUNDP
 10
54.6793
 20
23.1476
 30
0.0000
 41
1.8796
 42
1.8796
 43
1.0000
 50
0.0000
  0
INSERT
  8
17
  2
ROUNDP
 10
57.2193
 20
20.6076
 30
0.0000
 41
1.8796
 42
1.8796
 43
1.0000
 50
0.0000
  0
INSERT
  8
17
  2
ROUNDP
 10
57.2193
 20
23.1476
 30
0.0000
 41
1.8796
 42
1.8796
 43
1.0000
 50
0.0000
  0
INSERT
  8
17
  2
ROUNDP
 10
59.7593
 20
20.6076
 30
0.0000
 41
1.8796
 42
1.8796
 43
1.0000
 50
0.0000
  0
INSERT
  8
17
  2
ROUNDP
 10
59.7593
 20
23.1476
 30
0.0000
 41
1.8796
 42
1.8796
 43
1.0000
 50
0.0000
  0
INSERT
  8
17
  2
ROUNDP
 10
62.2993
 20
20.6076
 30
0.0000
 41
1.8796
 42
1.8796
 43
1.0000
 50
0.0000
  0
INSERT
  8
17
  2
ROUNDP
 10
62.2993
 20
23.1476
 30
0.0000
 41
1.8796
 42
1.8796
 43
1.0000
 50
0.0000
  0
INSERT
  8
17
  2
ROUNDP
 10
77.4633
 20
6.7414
 30
0.0000
 41
1.1480
 42
1.1480
 43
1.0000
 50
0.0000
  0
INSERT
  8
17
  2
ROUNDP
 10
79.9633
 20
6.7414
 30
0.0000
 41
1.1480
 42
1.1480
 43
1.0000
 50
0.0000
  0
INSERT
  8
17
  2
ROUNDP
 10
68.6090
 20
56.4139
 30
0.0000
 41
1.1480
 42
1.1480
 43
1.0000
 50
90.0000
  0
INSERT
  8
17
  2
ROUNDP
 10
68.6090
 20
58.9139
 30
0.0000
 41
1.1480
 42
1.1480
 43
1.0000
 50
90.0000
  0
INSERT
  8
17
  2
LONGP100
 10
47.6397
 20
32.1100
 30
0.0000
 41
1.5240
 42
1.5240
 43
1.0000
 50
0.0000
  0
INSERT
  8
17
  2
LONGP100
 10
47.6397
 20
34.6500
 30
0.0000
 41
1.5240
 42
1.5240
 43
1.0000
 50
0.0000
  0
INSERT
  8
17
  2
LONGP100
 10
47.6397
 20
37.1900
 30
0.0000
 41
1.5240
 42
1.5240
 43
1.0000
 50
0.0000
  0
INSERT
  8
17
  2
LONGP100
 10
47.6397
 20
39.7300
 30
0.0000
 41
1.5240
 42
1.5240
 43
1.0000
 50
0.0000
  0
INSERT
  8
17
  2
LONGP100
 10
47.6397
 20
42.2700
 30
0.0000
 41
1.5240
 42
1.5240
 43
1.0000
 50
0.0000
  0
INSERT
  8
17
  2
LONGP100
 10
47.6397
 20
44.8100
 30
0.0000
 41
1.5240
 42
1.5240
 43
1.0000
 50
0.0000
  0
INSERT
  8
17
  2
LONGP100
 10
47.6397
 20
47.3500
 30
0.0000
 41
1.5240
 42
1.5240
 43
1.0000
 50
0.0000
  0
INSERT
  8
17
  2
LONGP100
 10
47.6397
 20
49.8900
 30
0.0000
 41
1.5240
 42
1.5240
 43
1.0000
 50
0.0000
  0
INSERT
  8
17
  2
LONGP100
 10
62.2803
 20
49.8900
 30
0.0000
 41
1.5240
 42
1.5240
 43
1.0000
 50
0.0000
  0
INSERT
  8
17
  2
LONGP100
 10
62.2803
 20
47.3500
 30
0.0000
 41
1.5240
 42
1.5240
 43
1.0000
 50
0.0000
  0
INSERT
  8
17
  2
LONGP100
 10
62.2803
 20
44.8100
 30
0.0000
 41
1.5240
 42
1.5240
 43
1.0000
 50
0.0000
  0
INSERT
  8
17
  2
LONGP100
 10
62.2803
 20
42.2700
 30
0.0000
 41
1.5240
 42
1.5240
 43
1.0000
 50
0.0000
  0
INSERT
  8
17
  2
LONGP100
 10
62.2803
 20
39.7300
 30
0.0000
 41
1.5240
 42
1.5240
 43
1.0000
 50
0.0000
  0
INSERT
  8
17
  2
LONGP100
 10
62.2803
 20
37.1900
 30
0.0000
 41
1.5240
 42
1.5240
 43
1.0000
 50
0.0000
  0
INSERT
  8
17
  2
LONGP100
 10
62.2803
 20
34.6500
 30
0.0000
 41
1.5240
 42
1.5240
 43
1.0000
 50
0.0000
  0
INSERT
  8
17
  2
LONGP100
 10
62.2803
 20
32.1100
 30
0.0000
 41
1.5240
 42
1.5240
 43
1.0000
 50
0.0000
  0
INSERT
  8
17
  2
SQUAREP
 10
74.9228
 20
16.2537
 30
0.0000
 41
3.8100
 42
3.8100
 43
1.0000
 50
90.0000
  0
INSERT
  8
17
  2
SQUAREP
 10
95.4228
 20
16.2537
 30
0.0000
 41
3.8100
 42
3.8100
 43
1.0000
 50
90.0000
  0
INSERT
  8
17
  2
SQUAREP
 10
74.9228
 20
65.7537
 30
0.0000
 41
3.8100
 42
3.8100
 43
1.0000
 50
90.0000
  0
INSERT
  8
17
  2
SQUAREP
 10
95.4228
 20
65.7537
 30
0.0000
 41
3.8100
 42
3.8100
 43
1.0000
 50
90.0000
  0
INSERT
  8
17
  2
ROUNDP
 10
9.9865
 20
34.1967
 30
0.0000
 41
1.6764
 42
1.6764
 43
1.0000
 50
90.0000
  0
INSERT
  8
17
  2
ROUNDP
 10
12.5265
 20
34.1967
 30
0.0000
 41
1.6764
 42
1.6764
 43
1.0000
 50
90.0000
  0
INSERT
  8
17
  2
ROUNDP
 10
15.0665
 20
34.1967
 30
0.0000
 41
1.6764
 42
1.6764
 43
1.0000
 50
90.0000
  0
INSERT
  8
17
  2
ROUNDP
 10
17.6065
 20
34.1967
 30
0.0000
 41
1.6764
 42
1.6764
 43
1.0000
 50
90.0000
  0
INSERT
  8
17
  2
ROUNDP
 10
20.1465
 20
34.1967
 30
0.0000
 41
1.6764
 42
1.6764
 43
1.0000
 50
90.0000
  0
INSERT
  8
17
  2
ROUNDP
 10
22.6865
 20
34.1967
 30
0.0000
 41
1.6764
 42
1.6764
 43
1.0000
 50
90.0000
  0
INSERT
  8
17
  2
ROUNDP
 10
25.2265
 20
34.1967
 30
0.0000
 41
1.6764
 42
1.6764
 43
1.0000
 50
90.0000
  0
INSERT
  8
17
  2
ROUNDP
 10
27.7665
 20
34.1967
 30
0.0000
 41
1.6764
 42
1.6764
 43
1.0000
 50
90.0000
  0
INSERT
  8
17
  2
ROUNDP
 10
30.3065
 20
34.1967
 30
0.0000
 41
1.6764
 42
1.6764
 43
1.0000
 50
90.0000
  0
INSERT
  8
17
  2
ROUNDP
 10
32.8465
 20
34.1967
 30
0.0000
 41
1.6764
 42
1.6764
 43
1.0000
 50
90.0000
  0
INSERT
  8
17
  2
ROUNDP
 10
35.3865
 20
34.1967
 30
0.0000
 41
1.6764
 42
1.6764
 43
1.0000
 50
90.0000
  0
INSERT
  8
17
  2
ROUNDP
 10
37.9265
 20
34.1967
 30
0.0000
 41
1.6764
 42
1.6764
 43
1.0000
 50
90.0000
  0
INSERT
  8
17
  2
ROUNDP
 10
37.9265
 20
49.4367
 30
0.0000
 41
1.6764
 42
1.6764
 43
1.0000
 50
270.0000
  0
INSERT
  8
17
  2
ROUNDP
 10
35.3865
 20
49.4367
 30
0.0000
 41
1.6764
 42
1.6764
 43
1.0000
 50
270.0000
  0
INSERT
  8
17
  2
ROUNDP
 10
32.8465
 20
49.4367
 30
0.0000
 41
1.6764
 42
1.6764
 43
1.0000
 50
270.0000
  0
INSERT
  8
17
  2
ROUNDP
 10
30.3065
 20
49.4367
 30
0.0000
 41
1.6764
 42
1.6764
 43
1.0000
 50
270.0000
  0
INSERT
  8
17
  2
ROUNDP
 10
27.7665
 20
49.4367
 30
0.0000
 41
1.6764
 42
1.6764
 43
1.0000
 50
270.0000
  0
INSERT
  8
17
  2
ROUNDP
 10
25.2265
 20
49.4367
 30
0.0000
 41
1.6764
 42
1.6764
 43
1.0000
 50
270.0000
  0
INSERT
  8
17
  2
ROUNDP
 10
22.6865
 20
49.4367
 30
0.0000
 41
1.6764
 42
1.6764
 43
1.0000
 50
270.0000
  0
INSERT
  8
17
  2
ROUNDP
 10
20.1465
 20
49.4367
 30
0.0000
 41
1.6764
 42
1.6764
 43
1.0000
 50
270.0000
  0
INSERT
  8
17
  2
ROUNDP
 10
17.6065
 20
49.4367
 30
0.0000
 41
1.6764
 42
1.6764
 43
1.0000
 50
270.0000
  0
INSERT
  8
17
  2
ROUNDP
 10
15.0665
 20
49.4367
 30
0.0000
 41
1.6764
 42
1.6764
 43
1.0000
 50
270.0000
  0
INSERT
  8
17
  2
ROUNDP
 10
12.5265
 20
49.4367
 30
0.0000
 41
1.6764
 42
1.6764
 43
1.0000
 50
270.0000
  0
INSERT
  8
17
  2
ROUNDP
 10
9.9865
 20
49.4367
 30
0.0000
 41
1.6764
 42
1.6764
 43
1.0000
 50
270.0000
  0
INSERT
  8
17
  2
LONGP100
 10
90.0673
 20
6.6387
 30
0.0000
 41
1.7000
 42
1.7000
 43
1.0000
 50
90.0000
  0
INSERT
  8
17
  2
LONGP100
 10
93.5673
 20
6.6387
 30
0.0000
 41
1.7000
 42
1.7000
 43
1.0000
 50
90.0000
  0
POLYLINE
  8
1
 66
1
 10
0.0000
 20
0.0000
 30
0.0000
 40
1.3000
 41
1.3000
 70
0
  0
VERTEX
  8
1
 10
77.4633
 20
6.7414
 30
0.0000
  0
VERTEX
  8
1
 10
77.5000
 20
6.7047
 30
0.0000
  0
SEQEND
  8
0
  0
POLYLINE
  8
1
 66
1
 10
0.0000
 20
0.0000
 30
0.0000
 40
0.6500
 41
0.6500
 70
0
  0
VERTEX
  8
1
 10
77.2702
 20
6.4749
 30
0.0000
 42
1.0000
  0
VERTEX
  8
1
 10
77.7298
 20
6.9345
 30
0.0000
  0
SEQEND
  8
0
  0
POLYLINE
  8
1
 66
1
 10
0.0000
 20
0.0000
 30
0.0000
 40
0.6500
 41
0.6500
 70
0
  0
VERTEX
  8
1
 10
77.6931
 20
6.9712
 30
0.0000
 42
1.0000
  0
VERTEX
  8
1
 10
77.2335
 20
6.5116
 30
0.0000
  0
SEQEND
  8
0
  0
POLYLINE
  8
1
 66
1
 10
0.0000
 20
0.0000
 30
0.0000
 40
1.3000
 41
1.3000
 70
0
  0
VERTEX
  8
1
 10
77.5000
 20
6.7047
 30
0.0000
  0
VERTEX
  8
1
 10
77.5000
 20
3.2500
 30
0.0000
  0
SEQEND
  8
0
  0
POLYLINE
  8
1
 66
1
 10
0.0000
 20
0.0000
 30
0.0000
 40
0.6500
 41
0.6500
 70
0
  0
VERTEX
  8
1
 10
77.1750
 20
3.2500
 30
0.0000
 42
1.0000
  0
VERTEX
  8
1
 10
77.8250
 20
3.2500
 30
0.0000
  0
SEQEND
  8
0
  0
POLYLINE
  8
1
 66
1
 10
0.0000
 20
0.0000
 30
0.0000
 40
0.6500
 41
0.6500
 70
0
  0
VERTEX
  8
1
 10
77.8250
 20
6.7047
 30
0.0000
 42
1.0000
  0
VERTEX
  8
1
 10
77.1750
 20
6.7047
 30
0.0000
  0
SEQEND
  8
0
  0
POLYLINE
  8
1
 66
1
 10
0.0000
 20
0.0000
 30
0.0000
 40
1.3000
 41
1.3000
 70
0
  0
VERTEX
  8
1
 10
77.5000
 20
3.2500
 30
0.0000
  0
VERTEX
  8
1
 10
79.0000
 20
1.7500
 30
0.0000
  0
SEQEND
  8
0
  0
POLYLINE
  8
1
 66
1
 10
0.0000
 20
0.0000
 30
0.0000
 40
0.6500
 41
0.6500
 70
0
  0
VERTEX
  8
1
 10
78.7702
 20
1.5202
 30
0.0000
 42
1.0000
  0
VERTEX
  8
1
 10
79.2298
 20
1.9798
 30
0.0000
  0
SEQEND
  8
0
  0
POLYLINE
  8
1
 66
1
 10
0.0000
 20
0.0000
 30
0.0000
 40
0.6500
 41
0.6500
 70
0
  0
VERTEX
  8
1
 10
77.7298
 20
3.4798
 30
0.0000
 42
1.0000
  0
VERTEX
  8
1
 10
77.2702
 20
3.0202
 30
0.0000
  0
SEQEND
  8
0
  0
POLYLINE
  8
1
 66
1
 10
0.0000
 20
0.0000
 30
0.0000
 40
1.3000
 41
1.3000
 70
0
  0
VERTEX
  8
1
 10
79.0000
 20
1.7500
 30
0.0000
  0
VERTEX
  8
1
 10
88.0000
 20
1.7500
 30
0.0000
  0
SEQEND
  8
0
  0
POLYLINE
  8
1
 66
1
 10
0.0000
 20
0.0000
 30
0.0000
 40
0.6500
 41
0.6500
 70
0
  0
VERTEX
  8
1
 10
88.0000
 20
1.4250
 30
0.0000
 42
1.0000
  0
VERTEX
  8
1
 10
88.0000
 20
2.0750
 30
0.0000
  0
SEQEND
  8
0
  0
POLYLINE
  8
1
 66
1
 10
0.0000
 20
0.0000
 30
0.0000
 40
0.6500
 41
0.6500
 70
0
  0
VERTEX
  8
1
 10
79.0000
 20
2.0750
 30
0.0000
 42
1.0000
  0
VERTEX
  8
1
 10
79.0000
 20
1.4250
 30
0.0000
  0
SEQEND
  8
0
  0
POLYLINE
  8
1
 66
1
 10
0.0000
 20
0.0000
 30
0.0000
 40
1.3000
 41
1.3000
 70
0
  0
VERTEX
  8
1
 10
88.0000
 20
1.7500
 30
0.0000
  0
VERTEX
  8
1
 10
90.0673
 20
3.8173
 30
0.0000
  0
SEQEND
  8
0
  0
POLYLINE
  8
1
 66
1
 10
0.0000
 20
0.0000
 30
0.0000
 40
0.6500
 41
0.6500
 70
0
  0
VERTEX
  8
1
 10
90.2971
 20
3.5875
 30
0.0000
 42
1.0000
  0
VERTEX
  8
1
 10
89.8375
 20
4.0471
 30
0.0000
  0
SEQEND
  8
0
  0
POLYLINE
  8
1
 66
1
 10
0.0000
 20
0.0000
 30
0.0000
 40
0.6500
 41
0.6500
 70
0
  0
VERTEX
  8
1
 10
87.7702
 20
1.9798
 30
0.0000
 42
1.0000
  0
VERTEX
  8
1
 10
88.2298
 20
1.5202
 30
0.0000
  0
SEQEND
  8
0
  0
POLYLINE
  8
1
 66
1
 10
0.0000
 20
0.0000
 30
0.0000
 40
1.3000
 41
1.3000
 70
0
  0
VERTEX
  8
1
 10
90.0673
 20
3.8173
 30
0.0000
  0
VERTEX
  8
1
 10
90.0673
 20
6.6387
 30
0.0000
  0
SEQEND
  8
0
  0
POLYLINE
  8
1
 66
1
 10
0.0000
 20
0.0000
 30
0.0000
 40
0.6500
 41
0.6500
 70
0
  0
VERTEX
  8
1
 10
90.3923
 20
6.6387
 30
0.0000
 42
1.0000
  0
VERTEX
  8
1
 10
89.7423
 20
6.6387
 30
0.0000
  0
SEQEND
  8
0
  0
POLYLINE
  8
1
 66
1
 10
0.0000
 20
0.0000
 30
0.0000
 40
0.6500
 41
0.6500
 70
0
  0
VERTEX
  8
1
 10
89.7423
 20
3.8173
 30
0.0000
 42
1.0000
  0
VERTEX
  8
1
 10
90.3923
 20
3.8173
 30
0.0000
  0
SEQEND
  8
0
  0
POLYLINE
  8
1
 66
1
 10
0.0000
 20
0.0000
 30
0.0000
 40
1.3000
 41
1.3000
 70
0
  0
VERTEX
  8
1
 10
50.0000
 20
63.8100
 30
0.0000
  0
VERTEX
  8
1
 10
30.0000
 20
63.8100
 30
0.0000
  0
SEQEND
  8
0
  0
POLYLINE
  8
1
 66
1
 10
0.0000
 20
0.0000
 30
0.0000
 40
0.6500
 41
0.6500
 70
0
  0
VERTEX
  8
1
 10
30.0000
 20
64.1350
 30
0.0000
 42
1.0000
  0
VERTEX
  8
1
 10
30.0000
 20
63.4850
 30
0.0000
  0
SEQEND
  8
0
  0
POLYLINE
  8
1
 66
1
 10
0.0000
 20
0.0000
 30
0.0000
 40
0.6500
 41
0.6500
 70
0
  0
VERTEX
  8
1
 10
50.0000
 20
63.4850
 30
0.0000
 42
1.0000
  0
VERTEX
  8
1
 10
50.0000
 20
64.1350
 30
0.0000
  0
SEQEND
  8
0
  0
POLYLINE
  8
1
 66
1
 10
0.0000
 20
0.0000
 30
0.0000
 40
1.3000
 41
1.3000
 70
0
  0
VERTEX
  8
1
 10
30.0000
 20
63.8100
 30
0.0000
  0
VERTEX
  8
1
 10
20.0000
 20
63.8100
 30
0.0000
  0
SEQEND
  8
0
  0
POLYLINE
  8
1
 66
1
 10
0.0000
 20
0.0000
 30
0.0000
 40
0.6500
 41
0.6500
 70
0
  0
VERTEX
  8
1
 10
20.0000
 20
64.1350
 30
0.0000
 42
1.0000
  0
VERTEX
  8
1
 10
20.0000
 20
63.4850
 30
0.0000
  0
SEQEND
  8
0
  0
POLYLINE
  8
1
 66
1
 10
0.0000
 20
0.0000
 30
0.0000
 40
0.6500
 41
0.6500
 70
0
  0
VERTEX
  8
1
 10
30.0000
 20
63.4850
 30
0.0000
 42
1.0000
  0
VERTEX
  8
1
 10
30.0000
 20
64.1350
 30
0.0000
  0
SEQEND
  8
0
  0
POLYLINE
  8
1
 66
1
 10
0.0000
 20
0.0000
 30
0.0000
 40
1.3000
 41
1.3000
 70
0
  0
VERTEX
  8
1
 10
20.0000
 20
63.8100
 30
0.0000
  0
VERTEX
  8
1
 10
10.0000
 20
63.8100
 30
0.0000
  0
SEQEND
  8
0
  0
POLYLINE
  8
1
 66
1
 10
0.0000
 20
0.0000
 30
0.0000
 40
0.6500
 41
0.6500
 70
0
  0
VERTEX
  8
1
 10
10.0000
 20
64.1350
 30
0.0000
 42
1.0000
  0
VERTEX
  8
1
 10
10.0000
 20
63.4850
 30
0.0000
  0
SEQEND
  8
0
  0
POLYLINE
  8
1
 66
1
 10
0.0000
 20
0.0000
 30
0.0000
 40
0.6500
 41
0.6500
 70
0
  0
VERTEX
  8
1
 10
20.0000
 20
63.4850
 30
0.0000
 42
1.0000
  0
VERTEX
  8
1
 10
20.0000
 20
64.1350
 30
0.0000
  0
SEQEND
  8
0
  0
POLYLINE
  8
1
 66
1
 10
0.0000
 20
0.0000
 30
0.0000
 40
1.3000
 41
1.3000
 70
0
  0
VERTEX
  8
1
 10
6.8100
 20
63.8100
 30
0.0000
  0
VERTEX
  8
1
 10
10.0000
 20
63.8100
 30
0.0000
  0
SEQEND
  8
0
  0
POLYLINE
  8
1
 66
1
 10
0.0000
 20
0.0000
 30
0.0000
 40
0.6500
 41
0.6500
 70
0
  0
VERTEX
  8
1
 10
10.0000
 20
63.4850
 30
0.0000
 42
1.0000
  0
VERTEX
  8
1
 10
10.0000
 20
64.1350
 30
0.0000
  0
SEQEND
  8
0
  0
POLYLINE
  8
1
 66
1
 10
0.0000
 20
0.0000
 30
0.0000
 40
0.6500
 41
0.6500
 70
0
  0
VERTEX
  8
1
 10
6.8100
 20
64.1350
 30
0.0000
 42
1.0000
  0
VERTEX
  8
1
 10
6.8100
 20
63.4850
 30
0.0000
  0
SEQEND
  8
0
  0
POLYLINE
  8
1
 66
1
 10
0.0000
 20
0.0000
 30
0.0000
 40
1.3000
 41
1.3000
 70
0
  0
VERTEX
  8
1
 10
4.2500
 20
61.2500
 30
0.0000
  0
VERTEX
  8
1
 10
6.8100
 20
63.8100
 30
0.0000
  0
SEQEND
  8
0
  0
POLYLINE
  8
1
 66
1
 10
0.0000
 20
0.0000
 30
0.0000
 40
0.6500
 41
0.6500
 70
0
  0
VERTEX
  8
1
 10
7.0398
 20
63.5802
 30
0.0000
 42
1.0000
  0
VERTEX
  8
1
 10
6.5802
 20
64.0398
 30
0.0000
  0
SEQEND
  8
0
  0
POLYLINE
  8
1
 66
1
 10
0.0000
 20
0.0000
 30
0.0000
 40
0.6500
 41
0.6500
 70
0
  0
VERTEX
  8
1
 10
4.0202
 20
61.4798
 30
0.0000
 42
1.0000
  0
VERTEX
  8
1
 10
4.4798
 20
61.0202
 30
0.0000
  0
SEQEND
  8
0
  0
POLYLINE
  8
1
 66
1
 10
0.0000
 20
0.0000
 30
0.0000
 40
1.3000
 41
1.3000
 70
0
  0
VERTEX
  8
1
 10
14.0393
 20
20.6076
 30
0.0000
  0
VERTEX
  8
1
 10
11.3576
 20
20.6076
 30
0.0000
  0
SEQEND
  8
0
  0
POLYLINE
  8
1
 66
1
 10
0.0000
 20
0.0000
 30
0.0000
 40
0.6500
 41
0.6500
 70
0
  0
VERTEX
  8
1
 10
11.3576
 20
20.9326
 30
0.0000
 42
1.0000
  0
VERTEX
  8
1
 10
11.3576
 20
20.2826
 30
0.0000
  0
SEQEND
  8
0
  0
POLYLINE
  8
1
 66
1
 10
0.0000
 20
0.0000
 30
0.0000
 40
0.6500
 41
0.6500
 70
0
  0
VERTEX
  8
1
 10
14.0393
 20
20.2826
 30
0.0000
 42
1.0000
  0
VERTEX
  8
1
 10
14.0393
 20
20.9326
 30
0.0000
  0
SEQEND
  8
0
  0
POLYLINE
  8
1
 66
1
 10
0.0000
 20
0.0000
 30
0.0000
 40
1.3000
 41
1.3000
 70
0
  0
VERTEX
  8
1
 10
11.3576
 20
20.6076
 30
0.0000
  0
VERTEX
  8
1
 10
11.2500
 20
20.5000
 30
0.0000
  0
SEQEND
  8
0
  0
POLYLINE
  8
1
 66
1
 10
0.0000
 20
0.0000
 30
0.0000
 40
0.6500
 41
0.6500
 70
0
  0
VERTEX
  8
1
 10
11.0202
 20
20.7298
 30
0.0000
 42
1.0000
  0
VERTEX
  8
1
 10
11.4798
 20
20.2702
 30
0.0000
  0
SEQEND
  8
0
  0
POLYLINE
  8
1
 66
1
 10
0.0000
 20
0.0000
 30
0.0000
 40
0.6500
 41
0.6500
 70
0
  0
VERTEX
  8
1
 10
11.5874
 20
20.3778
 30
0.0000
 42
1.0000
  0
VERTEX
  8
1
 10
11.1278
 20
20.8374
 30
0.0000
  0
SEQEND
  8
0
  0
INSERT
  8
18
  2
ROUNDV
 10
11.2500
 20
20.5000
 30
0.0000
 41
1.5000
 42
1.5000
 43
1.0000
 50
0.0000
  0
INSERT
  8
18
  2
ROUNDV
 10
11.2500
 20
20.5000
 30
0.0000
 41
1.5000
 42
1.5000
 43
1.0000
 50
0.0000
  0
INSERT
  8
18
  2
ROUNDV
 10
4.2500
 20
61.2500
 30
0.0000
 41
1.5000
 42
1.5000
 43
1.0000
 50
0.0000
  0
INSERT
  8
18
  2
ROUNDV
 10
4.2500
 20
61.2500
 30
0.0000
 41
1.5000
 42
1.5000
 43
1.0000
 50
0.0000
  0
POLYLINE
  8
1
 66
1
 10
0.0000
 20
0.0000
 30
0.0000
 40
1.3000
 41
1.3000
 70
0
  0
VERTEX
  8
1
 10
50.0000
 20
61.2700
 30
0.0000
  0
VERTEX
  8
1
 10
40.0000
 20
61.2700
 30
0.0000
  0
SEQEND
  8
0
  0
POLYLINE
  8
1
 66
1
 10
0.0000
 20
0.0000
 30
0.0000
 40
0.6500
 41
0.6500
 70
0
  0
VERTEX
  8
1
 10
40.0000
 20
61.5950
 30
0.0000
 42
1.0000
  0
VERTEX
  8
1
 10
40.0000
 20
60.9450
 30
0.0000
  0
SEQEND
  8
0
  0
POLYLINE
  8
1
 66
1
 10
0.0000
 20
0.0000
 30
0.0000
 40
0.6500
 41
0.6500
 70
0
  0
VERTEX
  8
1
 10
50.0000
 20
60.9450
 30
0.0000
 42
1.0000
  0
VERTEX
  8
1
 10
50.0000
 20
61.5950
 30
0.0000
  0
SEQEND
  8
0
  0
POLYLINE
  8
1
 66
1
 10
0.0000
 20
0.0000
 30
0.0000
 40
1.3000
 41
1.3000
 70
0
  0
VERTEX
  8
1
 10
40.0000
 20
61.2700
 30
0.0000
  0
VERTEX
  8
1
 10
30.0000
 20
61.2700
 30
0.0000
  0
SEQEND
  8
0
  0
POLYLINE
  8
1
 66
1
 10
0.0000
 20
0.0000
 30
0.0000
 40
0.6500
 41
0.6500
 70
0
  0
VERTEX
  8
1
 10
30.0000
 20
61.5950
 30
0.0000
 42
1.0000
  0
VERTEX
  8
1
 10
30.0000
 20
60.9450
 30
0.0000
  0
SEQEND
  8
0
  0
POLYLINE
  8
1
 66
1
 10
0.0000
 20
0.0000
 30
0.0000
 40
0.6500
 41
0.6500
 70
0
  0
VERTEX
  8
1
 10
40.0000
 20
60.9450
 30
0.0000
 42
1.0000
  0
VERTEX
  8
1
 10
40.0000
 20
61.5950
 30
0.0000
  0
SEQEND
  8
0
  0
POLYLINE
  8
1
 66
1
 10
0.0000
 20
0.0000
 30
0.0000
 40
1.3000
 41
1.3000
 70
0
  0
VERTEX
  8
1
 10
30.0000
 20
61.2700
 30
0.0000
  0
VERTEX
  8
1
 10
20.0000
 20
61.2700
 30
0.0000
  0
SEQEND
  8
0
  0
POLYLINE
  8
1
 66
1
 10
0.0000
 20
0.0000
 30
0.0000
 40
0.6500
 41
0.6500
 70
0
  0
VERTEX
  8
1
 10
20.0000
 20
61.5950
 30
0.0000
 42
1.0000
  0
VERTEX
  8
1
 10
20.0000
 20
60.9450
 30
0.0000
  0
SEQEND
  8
0
  0
POLYLINE
  8
1
 66
1
 10
0.0000
 20
0.0000
 30
0.0000
 40
0.6500
 41
0.6500
 70
0
  0
VERTEX
  8
1
 10
30.0000
 20
60.9450
 30
0.0000
 42
1.0000
  0
VERTEX
  8
1
 10
30.0000
 20
61.5950
 30
0.0000
  0
SEQEND
  8
0
  0
POLYLINE
  8
1
 66
1
 10
0.0000
 20
0.0000
 30
0.0000
 40
1.3000
 41
1.3000
 70
0
  0
VERTEX
  8
1
 10
20.0000
 20
61.2700
 30
0.0000
  0
VERTEX
  8
1
 10
10.0000
 20
61.2700
 30
0.0000
  0
SEQEND
  8
0
  0
POLYLINE
  8
1
 66
1
 10
0.0000
 20
0.0000
 30
0.0000
 40
0.6500
 41
0.6500
 70
0
  0
VERTEX
  8
1
 10
10.0000
 20
61.5950
 30
0.0000
 42
1.0000
  0
VERTEX
  8
1
 10
10.0000
 20
60.9450
 30
0.0000
  0
SEQEND
  8
0
  0
POLYLINE
  8
1
 66
1
 10
0.0000
 20
0.0000
 30
0.0000
 40
0.6500
 41
0.6500
 70
0
  0
VERTEX
  8
1
 10
20.0000
 20
60.9450
 30
0.0000
 42
1.0000
  0
VERTEX
  8
1
 10
20.0000
 20
61.5950
 30
0.0000
  0
SEQEND
  8
0
  0
POLYLINE
  8
1
 66
1
 10
0.0000
 20
0.0000
 30
0.0000
 40
1.3000
 41
1.3000
 70
0
  0
VERTEX
  8
1
 10
50.0000
 20
61.2700
 30
0.0000
  0
VERTEX
  8
1
 10
58.7300
 20
61.2700
 30
0.0000
  0
SEQEND
  8
0
  0
POLYLINE
  8
1
 66
1
 10
0.0000
 20
0.0000
 30
0.0000
 40
0.6500
 41
0.6500
 70
0
  0
VERTEX
  8
1
 10
58.7300
 20
60.9450
 30
0.0000
 42
1.0000
  0
VERTEX
  8
1
 10
58.7300
 20
61.5950
 30
0.0000
  0
SEQEND
  8
0
  0
POLYLINE
  8
1
 66
1
 10
0.0000
 20
0.0000
 30
0.0000
 40
0.6500
 41
0.6500
 70
0
  0
VERTEX
  8
1
 10
50.0000
 20
61.5950
 30
0.0000
 42
1.0000
  0
VERTEX
  8
1
 10
50.0000
 20
60.9450
 30
0.0000
  0
SEQEND
  8
0
  0
POLYLINE
  8
1
 66
1
 10
0.0000
 20
0.0000
 30
0.0000
 40
1.3000
 41
1.3000
 70
0
  0
VERTEX
  8
1
 10
58.7300
 20
61.2700
 30
0.0000
  0
VERTEX
  8
1
 10
61.2500
 20
58.7500
 30
0.0000
  0
SEQEND
  8
0
  0
POLYLINE
  8
1
 66
1
 10
0.0000
 20
0.0000
 30
0.0000
 40
0.6500
 41
0.6500
 70
0
  0
VERTEX
  8
1
 10
61.0202
 20
58.5202
 30
0.0000
 42
1.0000
  0
VERTEX
  8
1
 10
61.4798
 20
58.9798
 30
0.0000
  0
SEQEND
  8
0
  0
POLYLINE
  8
1
 66
1
 10
0.0000
 20
0.0000
 30
0.0000
 40
0.6500
 41
0.6500
 70
0
  0
VERTEX
  8
1
 10
58.9598
 20
61.4998
 30
0.0000
 42
1.0000
  0
VERTEX
  8
1
 10
58.5002
 20
61.0402
 30
0.0000
  0
SEQEND
  8
0
  0
POLYLINE
  8
1
 66
1
 10
0.0000
 20
0.0000
 30
0.0000
 40
1.3000
 41
1.3000
 70
0
  0
VERTEX
  8
1
 10
61.2500
 20
58.7500
 30
0.0000
  0
VERTEX
  8
1
 10
68.4451
 20
58.7500
 30
0.0000
  0
SEQEND
  8
0
  0
POLYLINE
  8
1
 66
1
 10
0.0000
 20
0.0000
 30
0.0000
 40
0.6500
 41
0.6500
 70
0
  0
VERTEX
  8
1
 10
68.4451
 20
58.4250
 30
0.0000
 42
1.0000
  0
VERTEX
  8
1
 10
68.4451
 20
59.0750
 30
0.0000
  0
SEQEND
  8
0
  0
POLYLINE
  8
1
 66
1
 10
0.0000
 20
0.0000
 30
0.0000
 40
0.6500
 41
0.6500
 70
0
  0
VERTEX
  8
1
 10
61.2500
 20
59.0750
 30
0.0000
 42
1.0000
  0
VERTEX
  8
1
 10
61.2500
 20
58.4250
 30
0.0000
  0
SEQEND
  8
0
  0
POLYLINE
  8
1
 66
1
 10
0.0000
 20
0.0000
 30
0.0000
 40
1.3000
 41
1.3000
 70
0
  0
VERTEX
  8
1
 10
19.1193
 20
23.1476
 30
0.0000
  0
VERTEX
  8
1
 10
19.1193
 20
26.3807
 30
0.0000
  0
SEQEND
  8
0
  0
POLYLINE
  8
1
 66
1
 10
0.0000
 20
0.0000
 30
0.0000
 40
0.6500
 41
0.6500
 70
0
  0
VERTEX
  8
1
 10
19.4443
 20
26.3807
 30
0.0000
 42
1.0000
  0
VERTEX
  8
1
 10
18.7943
 20
26.3807
 30
0.0000
  0
SEQEND
  8
0
  0
POLYLINE
  8
1
 66
1
 10
0.0000
 20
0.0000
 30
0.0000
 40
0.6500
 41
0.6500
 70
0
  0
VERTEX
  8
1
 10
18.7943
 20
23.1476
 30
0.0000
 42
1.0000
  0
VERTEX
  8
1
 10
19.4443
 20
23.1476
 30
0.0000
  0
SEQEND
  8
0
  0
POLYLINE
  8
1
 66
1
 10
0.0000
 20
0.0000
 30
0.0000
 40
1.3000
 41
1.3000
 70
0
  0
VERTEX
  8
1
 10
12.5265
 20
32.9735
 30
0.0000
  0
VERTEX
  8
1
 10
12.5265
 20
34.1967
 30
0.0000
  0
SEQEND
  8
0
  0
POLYLINE
  8
1
 66
1
 10
0.0000
 20
0.0000
 30
0.0000
 40
0.6500
 41
0.6500
 70
0
  0
VERTEX
  8
1
 10
12.8515
 20
34.1967
 30
0.0000
 42
1.0000
  0
VERTEX
  8
1
 10
12.2015
 20
34.1967
 30
0.0000
  0
SEQEND
  8
0
  0
POLYLINE
  8
1
 66
1
 10
0.0000
 20
0.0000
 30
0.0000
 40
0.6500
 41
0.6500
 70
0
  0
VERTEX
  8
1
 10
12.2015
 20
32.9735
 30
0.0000
 42
1.0000
  0
VERTEX
  8
1
 10
12.8515
 20
32.9735
 30
0.0000
  0
SEQEND
  8
0
  0
POLYLINE
  8
1
 66
1
 10
0.0000
 20
0.0000
 30
0.0000
 40
1.3000
 41
1.3000
 70
0
  0
VERTEX
  8
1
 10
19.1193
 20
26.3807
 30
0.0000
  0
VERTEX
  8
1
 10
12.5265
 20
32.9735
 30
0.0000
  0
SEQEND
  8
0
  0
POLYLINE
  8
1
 66
1
 10
0.0000
 20
0.0000
 30
0.0000
 40
0.6500
 41
0.6500
 70
0
  0
VERTEX
  8
1
 10
12.7563
 20
33.2033
 30
0.0000
 42
1.0000
  0
VERTEX
  8
1
 10
12.2967
 20
32.7437
 30
0.0000
  0
SEQEND
  8
0
  0
POLYLINE
  8
1
 66
1
 10
0.0000
 20
0.0000
 30
0.0000
 40
0.6500
 41
0.6500
 70
0
  0
VERTEX
  8
1
 10
18.8895
 20
26.1509
 30
0.0000
 42
1.0000
  0
VERTEX
  8
1
 10
19.3491
 20
26.6105
 30
0.0000
  0
SEQEND
  8
0
  0
POLYLINE
  8
1
 66
1
 10
0.0000
 20
0.0000
 30
0.0000
 40
1.3000
 41
1.3000
 70
0
  0
VERTEX
  8
1
 10
62.2803
 20
47.3500
 30
0.0000
  0
VERTEX
  8
1
 10
70.1000
 20
47.3500
 30
0.0000
  0
SEQEND
  8
0
  0
POLYLINE
  8
1
 66
1
 10
0.0000
 20
0.0000
 30
0.0000
 40
0.6500
 41
0.6500
 70
0
  0
VERTEX
  8
1
 10
70.1000
 20
47.0250
 30
0.0000
 42
1.0000
  0
VERTEX
  8
1
 10
70.1000
 20
47.6750
 30
0.0000
  0
SEQEND
  8
0
  0
POLYLINE
  8
1
 66
1
 10
0.0000
 20
0.0000
 30
0.0000
 40
0.6500
 41
0.6500
 70
0
  0
VERTEX
  8
1
 10
62.2803
 20
47.6750
 30
0.0000
 42
1.0000
  0
VERTEX
  8
1
 10
62.2803
 20
47.0250
 30
0.0000
  0
SEQEND
  8
0
  0
POLYLINE
  8
1
 66
1
 10
0.0000
 20
0.0000
 30
0.0000
 40
1.3000
 41
1.3000
 70
0
  0
VERTEX
  8
1
 10
70.1000
 20
47.3500
 30
0.0000
  0
VERTEX
  8
1
 10
74.7500
 20
52.0000
 30
0.0000
  0
SEQEND
  8
0
  0
POLYLINE
  8
1
 66
1
 10
0.0000
 20
0.0000
 30
0.0000
 40
0.6500
 41
0.6500
 70
0
  0
VERTEX
  8
1
 10
74.9798
 20
51.7702
 30
0.0000
 42
1.0000
  0
VERTEX
  8
1
 10
74.5202
 20
52.2298
 30
0.0000
  0
SEQEND
  8
0
  0
POLYLINE
  8
1
 66
1
 10
0.0000
 20
0.0000
 30
0.0000
 40
0.6500
 41
0.6500
 70
0
  0
VERTEX
  8
1
 10
69.8702
 20
47.5798
 30
0.0000
 42
1.0000
  0
VERTEX
  8
1
 10
70.3298
 20
47.1202
 30
0.0000
  0
SEQEND
  8
0
  0
POLYLINE
  8
1
 66
1
 10
0.0000
 20
0.0000
 30
0.0000
 40
1.3000
 41
1.3000
 70
0
  0
VERTEX
  8
1
 10
74.7500
 20
52.0000
 30
0.0000
  0
VERTEX
  8
1
 10
74.7500
 20
57.2500
 30
0.0000
  0
SEQEND
  8
0
  0
POLYLINE
  8
1
 66
1
 10
0.0000
 20
0.0000
 30
0.0000
 40
0.6500
 41
0.6500
 70
0
  0
VERTEX
  8
1
 10
75.0750
 20
57.2500
 30
0.0000
 42
1.0000
  0
VERTEX
  8
1
 10
74.4250
 20
57.2500
 30
0.0000
  0
SEQEND
  8
0
  0
POLYLINE
  8
1
 66
1
 10
0.0000
 20
0.0000
 30
0.0000
 40
0.6500
 41
0.6500
 70
0
  0
VERTEX
  8
1
 10
74.4250
 20
52.0000
 30
0.0000
 42
1.0000
  0
VERTEX
  8
1
 10
75.0750
 20
52.0000
 30
0.0000
  0
SEQEND
  8
0
  0
POLYLINE
  8
1
 66
1
 10
0.0000
 20
0.0000
 30
0.0000
 40
1.3000
 41
1.3000
 70
0
  0
VERTEX
  8
1
 10
74.7500
 20
57.2500
 30
0.0000
  0
VERTEX
  8
1
 10
73.2500
 20
58.7500
 30
0.0000
  0
SEQEND
  8
0
  0
POLYLINE
  8
1
 66
1
 10
0.0000
 20
0.0000
 30
0.0000
 40
0.6500
 41
0.6500
 70
0
  0
VERTEX
  8
1
 10
73.4798
 20
58.9798
 30
0.0000
 42
1.0000
  0
VERTEX
  8
1
 10
73.0202
 20
58.5202
 30
0.0000
  0
SEQEND
  8
0
  0
POLYLINE
  8
1
 66
1
 10
0.0000
 20
0.0000
 30
0.0000
 40
0.6500
 41
0.6500
 70
0
  0
VERTEX
  8
1
 10
74.5202
 20
57.0202
 30
0.0000
 42
1.0000
  0
VERTEX
  8
1
 10
74.9798
 20
57.4798
 30
0.0000
  0
SEQEND
  8
0
  0
POLYLINE
  8
1
 66
1
 10
0.0000
 20
0.0000
 30
0.0000
 40
1.3000
 41
1.3000
 70
0
  0
VERTEX
  8
1
 10
73.2500
 20
58.7500
 30
0.0000
  0
VERTEX
  8
1
 10
68.4451
 20
58.7500
 30
0.0000
  0
SEQEND
  8
0
  0
POLYLINE
  8
1
 66
1
 10
0.0000
 20
0.0000
 30
0.0000
 40
0.6500
 41
0.6500
 70
0
  0
VERTEX
  8
1
 10
68.4451
 20
59.0750
 30
0.0000
 42
1.0000
  0
VERTEX
  8
1
 10
68.4451
 20
58.4250
 30
0.0000
  0
SEQEND
  8
0
  0
POLYLINE
  8
1
 66
1
 10
0.0000
 20
0.0000
 30
0.0000
 40
0.6500
 41
0.6500
 70
0
  0
VERTEX
  8
1
 10
73.2500
 20
58.4250
 30
0.0000
 42
1.0000
  0
VERTEX
  8
1
 10
73.2500
 20
59.0750
 30
0.0000
  0
SEQEND
  8
0
  0
POLYLINE
  8
1
 66
1
 10
0.0000
 20
0.0000
 30
0.0000
 40
1.3000
 41
1.3000
 70
0
  0
VERTEX
  8
1
 10
49.5993
 20
23.1476
 30
0.0000
  0
VERTEX
  8
1
 10
55.0000
 20
28.5483
 30
0.0000
  0
SEQEND
  8
0
  0
POLYLINE
  8
1
 66
1
 10
0.0000
 20
0.0000
 30
0.0000
 40
0.6500
 41
0.6500
 70
0
  0
VERTEX
  8
1
 10
55.2298
 20
28.3185
 30
0.0000
 42
1.0000
  0
VERTEX
  8
1
 10
54.7702
 20
28.7781
 30
0.0000
  0
SEQEND
  8
0
  0
POLYLINE
  8
1
 66
1
 10
0.0000
 20
0.0000
 30
0.0000
 40
0.6500
 41
0.6500
 70
0
  0
VERTEX
  8
1
 10
49.3695
 20
23.3774
 30
0.0000
 42
1.0000
  0
VERTEX
  8
1
 10
49.8291
 20
22.9178
 30
0.0000
  0
SEQEND
  8
0
  0
POLYLINE
  8
1
 66
1
 10
0.0000
 20
0.0000
 30
0.0000
 40
1.3000
 41
1.3000
 70
0
  0
VERTEX
  8
1
 10
55.0000
 20
28.5483
 30
0.0000
  0
VERTEX
  8
1
 10
55.0000
 20
43.0000
 30
0.0000
  0
SEQEND
  8
0
  0
POLYLINE
  8
1
 66
1
 10
0.0000
 20
0.0000
 30
0.0000
 40
0.6500
 41
0.6500
 70
0
  0
VERTEX
  8
1
 10
55.3250
 20
43.0000
 30
0.0000
 42
1.0000
  0
VERTEX
  8
1
 10
54.6750
 20
43.0000
 30
0.0000
  0
SEQEND
  8
0
  0
POLYLINE
  8
1
 66
1
 10
0.0000
 20
0.0000
 30
0.0000
 40
0.6500
 41
0.6500
 70
0
  0
VERTEX
  8
1
 10
54.6750
 20
28.5483
 30
0.0000
 42
1.0000
  0
VERTEX
  8
1
 10
55.3250
 20
28.5483
 30
0.0000
  0
SEQEND
  8
0
  0
POLYLINE
  8
1
 66
1
 10
0.0000
 20
0.0000
 30
0.0000
 40
1.3000
 41
1.3000
 70
0
  0
VERTEX
  8
1
 10
55.0000
 20
43.0000
 30
0.0000
  0
VERTEX
  8
1
 10
59.3500
 20
47.3500
 30
0.0000
  0
SEQEND
  8
0
  0
POLYLINE
  8
1
 66
1
 10
0.0000
 20
0.0000
 30
0.0000
 40
0.6500
 41
0.6500
 70
0
  0
VERTEX
  8
1
 10
59.5798
 20
47.1202
 30
0.0000
 42
1.0000
  0
VERTEX
  8
1
 10
59.1202
 20
47.5798
 30
0.0000
  0
SEQEND
  8
0
  0
POLYLINE
  8
1
 66
1
 10
0.0000
 20
0.0000
 30
0.0000
 40
0.6500
 41
0.6500
 70
0
  0
VERTEX
  8
1
 10
54.7702
 20
43.2298
 30
0.0000
 42
1.0000
  0
VERTEX
  8
1
 10
55.2298
 20
42.7702
 30
0.0000
  0
SEQEND
  8
0
  0
POLYLINE
  8
1
 66
1
 10
0.0000
 20
0.0000
 30
0.0000
 40
1.3000
 41
1.3000
 70
0
  0
VERTEX
  8
1
 10
59.3500
 20
47.3500
 30
0.0000
  0
VERTEX
  8
1
 10
62.2803
 20
47.3500
 30
0.0000
  0
SEQEND
  8
0
  0
POLYLINE
  8
1
 66
1
 10
0.0000
 20
0.0000
 30
0.0000
 40
0.6500
 41
0.6500
 70
0
  0
VERTEX
  8
1
 10
62.2803
 20
47.0250
 30
0.0000
 42
1.0000
  0
VERTEX
  8
1
 10
62.2803
 20
47.6750
 30
0.0000
  0
SEQEND
  8
0
  0
POLYLINE
  8
1
 66
1
 10
0.0000
 20
0.0000
 30
0.0000
 40
0.6500
 41
0.6500
 70
0
  0
VERTEX
  8
1
 10
59.3500
 20
47.6750
 30
0.0000
 42
1.0000
  0
VERTEX
  8
1
 10
59.3500
 20
47.0250
 30
0.0000
  0
SEQEND
  8
0
  0
POLYLINE
  8
1
 66
1
 10
0.0000
 20
0.0000
 30
0.0000
 40
1.3000
 41
1.3000
 70
0
  0
VERTEX
  8
1
 10
47.6397
 20
34.6500
 30
0.0000
  0
VERTEX
  8
1
 10
49.6500
 20
34.6500
 30
0.0000
  0
SEQEND
  8
0
  0
POLYLINE
  8
1
 66
1
 10
0.0000
 20
0.0000
 30
0.0000
 40
0.6500
 41
0.6500
 70
0
  0
VERTEX
  8
1
 10
49.6500
 20
34.3250
 30
0.0000
 42
1.0000
  0
VERTEX
  8
1
 10
49.6500
 20
34.9750
 30
0.0000
  0
SEQEND
  8
0
  0
POLYLINE
  8
1
 66
1
 10
0.0000
 20
0.0000
 30
0.0000
 40
0.6500
 41
0.6500
 70
0
  0
VERTEX
  8
1
 10
47.6397
 20
34.9750
 30
0.0000
 42
1.0000
  0
VERTEX
  8
1
 10
47.6397
 20
34.3250
 30
0.0000
  0
SEQEND
  8
0
  0
POLYLINE
  8
1
 66
1
 10
0.0000
 20
0.0000
 30
0.0000
 40
1.3000
 41
1.3000
 70
0
  0
VERTEX
  8
1
 10
50.7500
 20
35.7500
 30
0.0000
  0
VERTEX
  8
1
 10
50.7500
 20
49.5000
 30
0.0000
  0
SEQEND
  8
0
  0
POLYLINE
  8
1
 66
1
 10
0.0000
 20
0.0000
 30
0.0000
 40
0.6500
 41
0.6500
 70
0
  0
VERTEX
  8
1
 10
51.0750
 20
49.5000
 30
0.0000
 42
1.0000
  0
VERTEX
  8
1
 10
50.4250
 20
49.5000
 30
0.0000
  0
SEQEND
  8
0
  0
POLYLINE
  8
1
 66
1
 10
0.0000
 20
0.0000
 30
0.0000
 40
0.6500
 41
0.6500
 70
0
  0
VERTEX
  8
1
 10
50.4250
 20
35.7500
 30
0.0000
 42
1.0000
  0
VERTEX
  8
1
 10
51.0750
 20
35.7500
 30
0.0000
  0
SEQEND
  8
0
  0
POLYLINE
  8
1
 66
1
 10
0.0000
 20
0.0000
 30
0.0000
 40
1.3000
 41
1.3000
 70
0
  0
VERTEX
  8
1
 10
50.7500
 20
49.5000
 30
0.0000
  0
VERTEX
  8
1
 10
60.0000
 20
58.7500
 30
0.0000
  0
SEQEND
  8
0
  0
POLYLINE
  8
1
 66
1
 10
0.0000
 20
0.0000
 30
0.0000
 40
0.6500
 41
0.6500
 70
0
  0
VERTEX
  8
1
 10
60.2298
 20
58.5202
 30
0.0000
 42
1.0000
  0
VERTEX
  8
1
 10
59.7702
 20
58.9798
 30
0.0000
  0
SEQEND
  8
0
  0
POLYLINE
  8
1
 66
1
 10
0.0000
 20
0.0000
 30
0.0000
 40
0.6500
 41
0.6500
 70
0
  0
VERTEX
  8
1
 10
50.5202
 20
49.7298
 30
0.0000
 42
1.0000
  0
VERTEX
  8
1
 10
50.9798
 20
49.2702
 30
0.0000
  0
SEQEND
  8
0
  0
POLYLINE
  8
1
 66
1
 10
0.0000
 20
0.0000
 30
0.0000
 40
1.3000
 41
1.3000
 70
0
  0
VERTEX
  8
1
 10
60.0000
 20
58.7500
 30
0.0000
  0
VERTEX
  8
1
 10
61.2500
 20
58.7500
 30
0.0000
  0
SEQEND
  8
0
  0
POLYLINE
  8
1
 66
1
 10
0.0000
 20
0.0000
 30
0.0000
 40
0.6500
 41
0.6500
 70
0
  0
VERTEX
  8
1
 10
61.2500
 20
58.4250
 30
0.0000
 42
1.0000
  0
VERTEX
  8
1
 10
61.2500
 20
59.0750
 30
0.0000
  0
SEQEND
  8
0
  0
POLYLINE
  8
1
 66
1
 10
0.0000
 20
0.0000
 30
0.0000
 40
0.6500
 41
0.6500
 70
0
  0
VERTEX
  8
1
 10
60.0000
 20
59.0750
 30
0.0000
 42
1.0000
  0
VERTEX
  8
1
 10
60.0000
 20
58.4250
 30
0.0000
  0
SEQEND
  8
0
  0
POLYLINE
  8
1
 66
1
 10
0.0000
 20
0.0000
 30
0.0000
 40
1.3000
 41
1.3000
 70
0
  0
VERTEX
  8
1
 10
49.6500
 20
34.6500
 30
0.0000
  0
VERTEX
  8
1
 10
50.7500
 20
35.7500
 30
0.0000
  0
SEQEND
  8
0
  0
POLYLINE
  8
1
 66
1
 10
0.0000
 20
0.0000
 30
0.0000
 40
0.6500
 41
0.6500
 70
0
  0
VERTEX
  8
1
 10
50.9798
 20
35.5202
 30
0.0000
 42
1.0000
  0
VERTEX
  8
1
 10
50.5202
 20
35.9798
 30
0.0000
  0
SEQEND
  8
0
  0
POLYLINE
  8
1
 66
1
 10
0.0000
 20
0.0000
 30
0.0000
 40
0.6500
 41
0.6500
 70
0
  0
VERTEX
  8
1
 10
49.4202
 20
34.8798
 30
0.0000
 42
1.0000
  0
VERTEX
  8
1
 10
49.8798
 20
34.4202
 30
0.0000
  0
SEQEND
  8
0
  0
POLYLINE
  8
1
 66
1
 10
0.0000
 20
0.0000
 30
0.0000
 40
1.3000
 41
1.3000
 70
0
  0
VERTEX
  8
1
 10
54.6793
 20
20.6076
 30
0.0000
  0
VERTEX
  8
1
 10
54.6793
 20
15.5707
 30
0.0000
  0
SEQEND
  8
0
  0
POLYLINE
  8
1
 66
1
 10
0.0000
 20
0.0000
 30
0.0000
 40
0.6500
 41
0.6500
 70
0
  0
VERTEX
  8
1
 10
54.3543
 20
15.5707
 30
0.0000
 42
1.0000
  0
VERTEX
  8
1
 10
55.0043
 20
15.5707
 30
0.0000
  0
SEQEND
  8
0
  0
POLYLINE
  8
1
 66
1
 10
0.0000
 20
0.0000
 30
0.0000
 40
0.6500
 41
0.6500
 70
0
  0
VERTEX
  8
1
 10
55.0043
 20
20.6076
 30
0.0000
 42
1.0000
  0
VERTEX
  8
1
 10
54.3543
 20
20.6076
 30
0.0000
  0
SEQEND
  8
0
  0
POLYLINE
  8
1
 66
1
 10
0.0000
 20
0.0000
 30
0.0000
 40
1.3000
 41
1.3000
 70
0
  0
VERTEX
  8
1
 10
54.6793
 20
15.5707
 30
0.0000
  0
VERTEX
  8
1
 10
60.0000
 20
10.2500
 30
0.0000
  0
SEQEND
  8
0
  0
POLYLINE
  8
1
 66
1
 10
0.0000
 20
0.0000
 30
0.0000
 40
0.6500
 41
0.6500
 70
0
  0
VERTEX
  8
1
 10
59.7702
 20
10.0202
 30
0.0000
 42
1.0000
  0
VERTEX
  8
1
 10
60.2298
 20
10.4798
 30
0.0000
  0
SEQEND
  8
0
  0
POLYLINE
  8
1
 66
1
 10
0.0000
 20
0.0000
 30
0.0000
 40
0.6500
 41
0.6500
 70
0
  0
VERTEX
  8
1
 10
54.9091
 20
15.8005
 30
0.0000
 42
1.0000
  0
VERTEX
  8
1
 10
54.4495
 20
15.3409
 30
0.0000
  0
SEQEND
  8
0
  0
POLYLINE
  8
1
 66
1
 10
0.0000
 20
0.0000
 30
0.0000
 40
1.3000
 41
1.3000
 70
0
  0
VERTEX
  8
1
 10
60.0000
 20
10.2500
 30
0.0000
  0
VERTEX
  8
1
 10
75.0000
 20
10.2500
 30
0.0000
  0
SEQEND
  8
0
  0
POLYLINE
  8
1
 66
1
 10
0.0000
 20
0.0000
 30
0.0000
 40
0.6500
 41
0.6500
 70
0
  0
VERTEX
  8
1
 10
75.0000
 20
9.9250
 30
0.0000
 42
1.0000
  0
VERTEX
  8
1
 10
75.0000
 20
10.5750
 30
0.0000
  0
SEQEND
  8
0
  0
POLYLINE
  8
1
 66
1
 10
0.0000
 20
0.0000
 30
0.0000
 40
0.6500
 41
0.6500
 70
0
  0
VERTEX
  8
1
 10
60.0000
 20
10.5750
 30
0.0000
 42
1.0000
  0
VERTEX
  8
1
 10
60.0000
 20
9.9250
 30
0.0000
  0
SEQEND
  8
0
  0
POLYLINE
  8
1
 66
1
 10
0.0000
 20
0.0000
 30
0.0000
 40
1.3000
 41
1.3000
 70
0
  0
VERTEX
  8
1
 10
75.0000
 20
10.2500
 30
0.0000
  0
VERTEX
  8
1
 10
80.2500
 20
15.5000
 30
0.0000
  0
SEQEND
  8
0
  0
POLYLINE
  8
1
 66
1
 10
0.0000
 20
0.0000
 30
0.0000
 40
0.6500
 41
0.6500
 70
0
  0
VERTEX
  8
1
 10
80.4798
 20
15.2702
 30
0.0000
 42
1.0000
  0
VERTEX
  8
1
 10
80.0202
 20
15.7298
 30
0.0000
  0
SEQEND
  8
0
  0
POLYLINE
  8
1
 66
1
 10
0.0000
 20
0.0000
 30
0.0000
 40
0.6500
 41
0.6500
 70
0
  0
VERTEX
  8
1
 10
74.7702
 20
10.4798
 30
0.0000
 42
1.0000
  0
VERTEX
  8
1
 10
75.2298
 20
10.0202
 30
0.0000
  0
SEQEND
  8
0
  0
POLYLINE
  8
1
 66
1
 10
0.0000
 20
0.0000
 30
0.0000
 40
1.3000
 41
1.3000
 70
0
  0
VERTEX
  8
1
 10
80.2500
 20
15.5000
 30
0.0000
  0
VERTEX
  8
1
 10
80.2500
 20
38.7500
 30
0.0000
  0
SEQEND
  8
0
  0
POLYLINE
  8
1
 66
1
 10
0.0000
 20
0.0000
 30
0.0000
 40
0.6500
 41
0.6500
 70
0
  0
VERTEX
  8
1
 10
80.5750
 20
38.7500
 30
0.0000
 42
1.0000
  0
VERTEX
  8
1
 10
79.9250
 20
38.7500
 30
0.0000
  0
SEQEND
  8
0
  0
POLYLINE
  8
1
 66
1
 10
0.0000
 20
0.0000
 30
0.0000
 40
0.6500
 41
0.6500
 70
0
  0
VERTEX
  8
1
 10
79.9250
 20
15.5000
 30
0.0000
 42
1.0000
  0
VERTEX
  8
1
 10
80.5750
 20
15.5000
 30
0.0000
  0
SEQEND
  8
0
  0
POLYLINE
  8
1
 66
1
 10
0.0000
 20
0.0000
 30
0.0000
 40
1.3000
 41
1.3000
 70
0
  0
VERTEX
  8
1
 10
74.1900
 20
44.8100
 30
0.0000
  0
VERTEX
  8
1
 10
62.2803
 20
44.8100
 30
0.0000
  0
SEQEND
  8
0
  0
POLYLINE
  8
1
 66
1
 10
0.0000
 20
0.0000
 30
0.0000
 40
0.6500
 41
0.6500
 70
0
  0
VERTEX
  8
1
 10
62.2803
 20
45.1350
 30
0.0000
 42
1.0000
  0
VERTEX
  8
1
 10
62.2803
 20
44.4850
 30
0.0000
  0
SEQEND
  8
0
  0
POLYLINE
  8
1
 66
1
 10
0.0000
 20
0.0000
 30
0.0000
 40
0.6500
 41
0.6500
 70
0
  0
VERTEX
  8
1
 10
74.1900
 20
44.4850
 30
0.0000
 42
1.0000
  0
VERTEX
  8
1
 10
74.1900
 20
45.1350
 30
0.0000
  0
SEQEND
  8
0
  0
POLYLINE
  8
1
 66
1
 10
0.0000
 20
0.0000
 30
0.0000
 40
1.3000
 41
1.3000
 70
0
  0
VERTEX
  8
1
 10
80.2500
 20
38.7500
 30
0.0000
  0
VERTEX
  8
1
 10
74.1900
 20
44.8100
 30
0.0000
  0
SEQEND
  8
0
  0
POLYLINE
  8
1
 66
1
 10
0.0000
 20
0.0000
 30
0.0000
 40
0.6500
 41
0.6500
 70
0
  0
VERTEX
  8
1
 10
74.4198
 20
45.0398
 30
0.0000
 42
1.0000
  0
VERTEX
  8
1
 10
73.9602
 20
44.5802
 30
0.0000
  0
SEQEND
  8
0
  0
POLYLINE
  8
1
 66
1
 10
0.0000
 20
0.0000
 30
0.0000
 40
0.6500
 41
0.6500
 70
0
  0
VERTEX
  8
1
 10
80.0202
 20
38.5202
 30
0.0000
 42
1.0000
  0
VERTEX
  8
1
 10
80.4798
 20
38.9798
 30
0.0000
  0
SEQEND
  8
0
  0
POLYLINE
  8
1
 66
1
 10
0.0000
 20
0.0000
 30
0.0000
 40
1.3000
 41
1.3000
 70
0
  0
VERTEX
  8
1
 10
57.2193
 20
23.1476
 30
0.0000
  0
VERTEX
  8
1
 10
57.2193
 20
39.2193
 30
0.0000
  0
SEQEND
  8
0
  0
POLYLINE
  8
1
 66
1
 10
0.0000
 20
0.0000
 30
0.0000
 40
0.6500
 41
0.6500
 70
0
  0
VERTEX
  8
1
 10
57.5443
 20
39.2193
 30
0.0000
 42
1.0000
  0
VERTEX
  8
1
 10
56.8943
 20
39.2193
 30
0.0000
  0
SEQEND
  8
0
  0
POLYLINE
  8
1
 66
1
 10
0.0000
 20
0.0000
 30
0.0000
 40
0.6500
 41
0.6500
 70
0
  0
VERTEX
  8
1
 10
56.8943
 20
23.1476
 30
0.0000
 42
1.0000
  0
VERTEX
  8
1
 10
57.5443
 20
23.1476
 30
0.0000
  0
SEQEND
  8
0
  0
POLYLINE
  8
1
 66
1
 10
0.0000
 20
0.0000
 30
0.0000
 40
1.3000
 41
1.3000
 70
0
  0
VERTEX
  8
1
 10
60.2700
 20
42.2700
 30
0.0000
  0
VERTEX
  8
1
 10
62.2803
 20
42.2700
 30
0.0000
  0
SEQEND
  8
0
  0
POLYLINE
  8
1
 66
1
 10
0.0000
 20
0.0000
 30
0.0000
 40
0.6500
 41
0.6500
 70
0
  0
VERTEX
  8
1
 10
62.2803
 20
41.9450
 30
0.0000
 42
1.0000
  0
VERTEX
  8
1
 10
62.2803
 20
42.5950
 30
0.0000
  0
SEQEND
  8
0
  0
POLYLINE
  8
1
 66
1
 10
0.0000
 20
0.0000
 30
0.0000
 40
0.6500
 41
0.6500
 70
0
  0
VERTEX
  8
1
 10
60.2700
 20
42.5950
 30
0.0000
 42
1.0000
  0
VERTEX
  8
1
 10
60.2700
 20
41.9450
 30
0.0000
  0
SEQEND
  8
0
  0
POLYLINE
  8
1
 66
1
 10
0.0000
 20
0.0000
 30
0.0000
 40
1.3000
 41
1.3000
 70
0
  0
VERTEX
  8
1
 10
57.2193
 20
39.2193
 30
0.0000
  0
VERTEX
  8
1
 10
60.2700
 20
42.2700
 30
0.0000
  0
SEQEND
  8
0
  0
POLYLINE
  8
1
 66
1
 10
0.0000
 20
0.0000
 30
0.0000
 40
0.6500
 41
0.6500
 70
0
  0
VERTEX
  8
1
 10
60.4998
 20
42.0402
 30
0.0000
 42
1.0000
  0
VERTEX
  8
1
 10
60.0402
 20
42.4998
 30
0.0000
  0
SEQEND
  8
0
  0
POLYLINE
  8
1
 66
1
 10
0.0000
 20
0.0000
 30
0.0000
 40
0.6500
 41
0.6500
 70
0
  0
VERTEX
  8
1
 10
56.9895
 20
39.4491
 30
0.0000
 42
1.0000
  0
VERTEX
  8
1
 10
57.4491
 20
38.9895
 30
0.0000
  0
SEQEND
  8
0
  0
POLYLINE
  8
1
 66
1
 10
0.0000
 20
0.0000
 30
0.0000
 40
1.3000
 41
1.3000
 70
0
  0
VERTEX
  8
1
 10
57.2193
 20
20.6076
 30
0.0000
  0
VERTEX
  8
1
 10
57.2193
 20
17.0307
 30
0.0000
  0
SEQEND
  8
0
  0
POLYLINE
  8
1
 66
1
 10
0.0000
 20
0.0000
 30
0.0000
 40
0.6500
 41
0.6500
 70
0
  0
VERTEX
  8
1
 10
56.8943
 20
17.0307
 30
0.0000
 42
1.0000
  0
VERTEX
  8
1
 10
57.5443
 20
17.0307
 30
0.0000
  0
SEQEND
  8
0
  0
POLYLINE
  8
1
 66
1
 10
0.0000
 20
0.0000
 30
0.0000
 40
0.6500
 41
0.6500
 70
0
  0
VERTEX
  8
1
 10
57.5443
 20
20.6076
 30
0.0000
 42
1.0000
  0
VERTEX
  8
1
 10
56.8943
 20
20.6076
 30
0.0000
  0
SEQEND
  8
0
  0
POLYLINE
  8
1
 66
1
 10
0.0000
 20
0.0000
 30
0.0000
 40
1.3000
 41
1.3000
 70
0
  0
VERTEX
  8
1
 10
67.5000
 20
14.7500
 30
0.0000
  0
VERTEX
  8
1
 10
70.5000
 20
17.7500
 30
0.0000
  0
SEQEND
  8
0
  0
POLYLINE
  8
1
 66
1
 10
0.0000
 20
0.0000
 30
0.0000
 40
0.6500
 41
0.6500
 70
0
  0
VERTEX
  8
1
 10
70.7298
 20
17.5202
 30
0.0000
 42
1.0000
  0
VERTEX
  8
1
 10
70.2702
 20
17.9798
 30
0.0000
  0
SEQEND
  8
0
  0
POLYLINE
  8
1
 66
1
 10
0.0000
 20
0.0000
 30
0.0000
 40
0.6500
 41
0.6500
 70
0
  0
VERTEX
  8
1
 10
67.2702
 20
14.9798
 30
0.0000
 42
1.0000
  0
VERTEX
  8
1
 10
67.7298
 20
14.5202
 30
0.0000
  0
SEQEND
  8
0
  0
POLYLINE
  8
1
 66
1
 10
0.0000
 20
0.0000
 30
0.0000
 40
1.3000
 41
1.3000
 70
0
  0
VERTEX
  8
1
 10
70.5000
 20
17.7500
 30
0.0000
  0
VERTEX
  8
1
 10
70.5000
 20
36.5000
 30
0.0000
  0
SEQEND
  8
0
  0
POLYLINE
  8
1
 66
1
 10
0.0000
 20
0.0000
 30
0.0000
 40
0.6500
 41
0.6500
 70
0
  0
VERTEX
  8
1
 10
70.8250
 20
36.5000
 30
0.0000
 42
1.0000
  0
VERTEX
  8
1
 10
70.1750
 20
36.5000
 30
0.0000
  0
SEQEND
  8
0
  0
POLYLINE
  8
1
 66
1
 10
0.0000
 20
0.0000
 30
0.0000
 40
0.6500
 41
0.6500
 70
0
  0
VERTEX
  8
1
 10
70.1750
 20
17.7500
 30
0.0000
 42
1.0000
  0
VERTEX
  8
1
 10
70.8250
 20
17.7500
 30
0.0000
  0
SEQEND
  8
0
  0
POLYLINE
  8
1
 66
1
 10
0.0000
 20
0.0000
 30
0.0000
 40
1.3000
 41
1.3000
 70
0
  0
VERTEX
  8
1
 10
70.5000
 20
36.5000
 30
0.0000
  0
VERTEX
  8
1
 10
67.2500
 20
39.7500
 30
0.0000
  0
SEQEND
  8
0
  0
POLYLINE
  8
1
 66
1
 10
0.0000
 20
0.0000
 30
0.0000
 40
0.6500
 41
0.6500
 70
0
  0
VERTEX
  8
1
 10
67.4798
 20
39.9798
 30
0.0000
 42
1.0000
  0
VERTEX
  8
1
 10
67.0202
 20
39.5202
 30
0.0000
  0
SEQEND
  8
0
  0
POLYLINE
  8
1
 66
1
 10
0.0000
 20
0.0000
 30
0.0000
 40
0.6500
 41
0.6500
 70
0
  0
VERTEX
  8
1
 10
70.2702
 20
36.2702
 30
0.0000
 42
1.0000
  0
VERTEX
  8
1
 10
70.7298
 20
36.7298
 30
0.0000
  0
SEQEND
  8
0
  0
POLYLINE
  8
1
 66
1
 10
0.0000
 20
0.0000
 30
0.0000
 40
1.3000
 41
1.3000
 70
0
  0
VERTEX
  8
1
 10
67.2500
 20
39.7500
 30
0.0000
  0
VERTEX
  8
1
 10
63.3003
 20
39.7500
 30
0.0000
  0
SEQEND
  8
0
  0
POLYLINE
  8
1
 66
1
 10
0.0000
 20
0.0000
 30
0.0000
 40
0.6500
 41
0.6500
 70
0
  0
VERTEX
  8
1
 10
63.3003
 20
40.0750
 30
0.0000
 42
1.0000
  0
VERTEX
  8
1
 10
63.3003
 20
39.4250
 30
0.0000
  0
SEQEND
  8
0
  0
POLYLINE
  8
1
 66
1
 10
0.0000
 20
0.0000
 30
0.0000
 40
0.6500
 41
0.6500
 70
0
  0
VERTEX
  8
1
 10
67.2500
 20
39.4250
 30
0.0000
 42
1.0000
  0
VERTEX
  8
1
 10
67.2500
 20
40.0750
 30
0.0000
  0
SEQEND
  8
0
  0
POLYLINE
  8
1
 66
1
 10
0.0000
 20
0.0000
 30
0.0000
 40
1.3000
 41
1.3000
 70
0
  0
VERTEX
  8
1
 10
63.3003
 20
39.7500
 30
0.0000
  0
VERTEX
  8
1
 10
63.2803
 20
39.7300
 30
0.0000
  0
SEQEND
  8
0
  0
POLYLINE
  8
1
 66
1
 10
0.0000
 20
0.0000
 30
0.0000
 40
0.6500
 41
0.6500
 70
0
  0
VERTEX
  8
1
 10
63.0505
 20
39.9598
 30
0.0000
 42
1.0000
  0
VERTEX
  8
1
 10
63.5101
 20
39.5002
 30
0.0000
  0
SEQEND
  8
0
  0
POLYLINE
  8
1
 66
1
 10
0.0000
 20
0.0000
 30
0.0000
 40
0.6500
 41
0.6500
 70
0
  0
VERTEX
  8
1
 10
63.5301
 20
39.5202
 30
0.0000
 42
1.0000
  0
VERTEX
  8
1
 10
63.0705
 20
39.9798
 30
0.0000
  0
SEQEND
  8
0
  0
POLYLINE
  8
1
 66
1
 10
0.0000
 20
0.0000
 30
0.0000
 40
1.3000
 41
1.3000
 70
0
  0
VERTEX
  8
1
 10
63.2803
 20
39.7300
 30
0.0000
  0
VERTEX
  8
1
 10
62.2803
 20
39.7300
 30
0.0000
  0
SEQEND
  8
0
  0
POLYLINE
  8
1
 66
1
 10
0.0000
 20
0.0000
 30
0.0000
 40
0.6500
 41
0.6500
 70
0
  0
VERTEX
  8
1
 10
62.2803
 20
40.0550
 30
0.0000
 42
1.0000
  0
VERTEX
  8
1
 10
62.2803
 20
39.4050
 30
0.0000
  0
SEQEND
  8
0
  0
POLYLINE
  8
1
 66
1
 10
0.0000
 20
0.0000
 30
0.0000
 40
0.6500
 41
0.6500
 70
0
  0
VERTEX
  8
1
 10
63.2803
 20
39.4050
 30
0.0000
 42
1.0000
  0
VERTEX
  8
1
 10
63.2803
 20
40.0550
 30
0.0000
  0
SEQEND
  8
0
  0
POLYLINE
  8
1
 66
1
 10
0.0000
 20
0.0000
 30
0.0000
 40
1.3000
 41
1.3000
 70
0
  0
VERTEX
  8
1
 10
57.2193
 20
17.0307
 30
0.0000
  0
VERTEX
  8
1
 10
59.5000
 20
14.7500
 30
0.0000
  0
SEQEND
  8
0
  0
POLYLINE
  8
1
 66
1
 10
0.0000
 20
0.0000
 30
0.0000
 40
0.6500
 41
0.6500
 70
0
  0
VERTEX
  8
1
 10
59.2702
 20
14.5202
 30
0.0000
 42
1.0000
  0
VERTEX
  8
1
 10
59.7298
 20
14.9798
 30
0.0000
  0
SEQEND
  8
0
  0
POLYLINE
  8
1
 66
1
 10
0.0000
 20
0.0000
 30
0.0000
 40
0.6500
 41
0.6500
 70
0
  0
VERTEX
  8
1
 10
57.4491
 20
17.2605
 30
0.0000
 42
1.0000
  0
VERTEX
  8
1
 10
56.9895
 20
16.8009
 30
0.0000
  0
SEQEND
  8
0
  0
POLYLINE
  8
1
 66
1
 10
0.0000
 20
0.0000
 30
0.0000
 40
1.3000
 41
1.3000
 70
0
  0
VERTEX
  8
1
 10
59.5000
 20
14.7500
 30
0.0000
  0
VERTEX
  8
1
 10
67.5000
 20
14.7500
 30
0.0000
  0
SEQEND
  8
0
  0
POLYLINE
  8
1
 66
1
 10
0.0000
 20
0.0000
 30
0.0000
 40
0.6500
 41
0.6500
 70
0
  0
VERTEX
  8
1
 10
67.5000
 20
14.4250
 30
0.0000
 42
1.0000
  0
VERTEX
  8
1
 10
67.5000
 20
15.0750
 30
0.0000
  0
SEQEND
  8
0
  0
POLYLINE
  8
1
 66
1
 10
0.0000
 20
0.0000
 30
0.0000
 40
0.6500
 41
0.6500
 70
0
  0
VERTEX
  8
1
 10
59.5000
 20
15.0750
 30
0.0000
 42
1.0000
  0
VERTEX
  8
1
 10
59.5000
 20
14.4250
 30
0.0000
  0
SEQEND
  8
0
  0
POLYLINE
  8
1
 66
1
 10
0.0000
 20
0.0000
 30
0.0000
 40
1.3000
 41
1.3000
 70
0
  0
VERTEX
  8
1
 10
59.7593
 20
23.1476
 30
0.0000
  0
VERTEX
  8
1
 10
59.5000
 20
23.4069
 30
0.0000
  0
SEQEND
  8
0
  0
POLYLINE
  8
1
 66
1
 10
0.0000
 20
0.0000
 30
0.0000
 40
0.6500
 41
0.6500
 70
0
  0
VERTEX
  8
1
 10
59.7298
 20
23.6367
 30
0.0000
 42
1.0000
  0
VERTEX
  8
1
 10
59.2702
 20
23.1771
 30
0.0000
  0
SEQEND
  8
0
  0
POLYLINE
  8
1
 66
1
 10
0.0000
 20
0.0000
 30
0.0000
 40
0.6500
 41
0.6500
 70
0
  0
VERTEX
  8
1
 10
59.5295
 20
22.9178
 30
0.0000
 42
1.0000
  0
VERTEX
  8
1
 10
59.9891
 20
23.3774
 30
0.0000
  0
SEQEND
  8
0
  0
POLYLINE
  8
1
 66
1
 10
0.0000
 20
0.0000
 30
0.0000
 40
1.3000
 41
1.3000
 70
0
  0
VERTEX
  8
1
 10
59.5000
 20
36.2500
 30
0.0000
  0
VERTEX
  8
1
 10
60.5000
 20
37.2500
 30
0.0000
  0
SEQEND
  8
0
  0
POLYLINE
  8
1
 66
1
 10
0.0000
 20
0.0000
 30
0.0000
 40
0.6500
 41
0.6500
 70
0
  0
VERTEX
  8
1
 10
60.7298
 20
37.0202
 30
0.0000
 42
1.0000
  0
VERTEX
  8
1
 10
60.2702
 20
37.4798
 30
0.0000
  0
SEQEND
  8
0
  0
POLYLINE
  8
1
 66
1
 10
0.0000
 20
0.0000
 30
0.0000
 40
0.6500
 41
0.6500
 70
0
  0
VERTEX
  8
1
 10
59.2702
 20
36.4798
 30
0.0000
 42
1.0000
  0
VERTEX
  8
1
 10
59.7298
 20
36.0202
 30
0.0000
  0
SEQEND
  8
0
  0
POLYLINE
  8
1
 66
1
 10
0.0000
 20
0.0000
 30
0.0000
 40
1.3000
 41
1.3000
 70
0
  0
VERTEX
  8
1
 10
60.5000
 20
37.2500
 30
0.0000
  0
VERTEX
  8
1
 10
62.2203
 20
37.2500
 30
0.0000
  0
SEQEND
  8
0
  0
POLYLINE
  8
1
 66
1
 10
0.0000
 20
0.0000
 30
0.0000
 40
0.6500
 41
0.6500
 70
0
  0
VERTEX
  8
1
 10
62.2203
 20
36.9250
 30
0.0000
 42
1.0000
  0
VERTEX
  8
1
 10
62.2203
 20
37.5750
 30
0.0000
  0
SEQEND
  8
0
  0
POLYLINE
  8
1
 66
1
 10
0.0000
 20
0.0000
 30
0.0000
 40
0.6500
 41
0.6500
 70
0
  0
VERTEX
  8
1
 10
60.5000
 20
37.5750
 30
0.0000
 42
1.0000
  0
VERTEX
  8
1
 10
60.5000
 20
36.9250
 30
0.0000
  0
SEQEND
  8
0
  0
POLYLINE
  8
1
 66
1
 10
0.0000
 20
0.0000
 30
0.0000
 40
1.3000
 41
1.3000
 70
0
  0
VERTEX
  8
1
 10
62.2203
 20
37.2500
 30
0.0000
  0
VERTEX
  8
1
 10
62.2803
 20
37.1900
 30
0.0000
  0
SEQEND
  8
0
  0
POLYLINE
  8
1
 66
1
 10
0.0000
 20
0.0000
 30
0.0000
 40
0.6500
 41
0.6500
 70
0
  0
VERTEX
  8
1
 10
62.0505
 20
36.9602
 30
0.0000
 42
1.0000
  0
VERTEX
  8
1
 10
62.5101
 20
37.4198
 30
0.0000
  0
SEQEND
  8
0
  0
POLYLINE
  8
1
 66
1
 10
0.0000
 20
0.0000
 30
0.0000
 40
0.6500
 41
0.6500
 70
0
  0
VERTEX
  8
1
 10
62.4501
 20
37.4798
 30
0.0000
 42
1.0000
  0
VERTEX
  8
1
 10
61.9905
 20
37.0202
 30
0.0000
  0
SEQEND
  8
0
  0
POLYLINE
  8
1
 66
1
 10
0.0000
 20
0.0000
 30
0.0000
 40
1.3000
 41
1.3000
 70
0
  0
VERTEX
  8
1
 10
59.5000
 20
23.4069
 30
0.0000
  0
VERTEX
  8
1
 10
59.5000
 20
36.2500
 30
0.0000
  0
SEQEND
  8
0
  0
POLYLINE
  8
1
 66
1
 10
0.0000
 20
0.0000
 30
0.0000
 40
0.6500
 41
0.6500
 70
0
  0
VERTEX
  8
1
 10
59.8250
 20
36.2500
 30
0.0000
 42
1.0000
  0
VERTEX
  8
1
 10
59.1750
 20
36.2500
 30
0.0000
  0
SEQEND
  8
0
  0
POLYLINE
  8
1
 66
1
 10
0.0000
 20
0.0000
 30
0.0000
 40
0.6500
 41
0.6500
 70
0
  0
VERTEX
  8
1
 10
59.1750
 20
23.4069
 30
0.0000
 42
1.0000
  0
VERTEX
  8
1
 10
59.8250
 20
23.4069
 30
0.0000
  0
SEQEND
  8
0
  0
POLYLINE
  8
1
 66
1
 10
0.0000
 20
0.0000
 30
0.0000
 40
1.3000
 41
1.3000
 70
0
  0
VERTEX
  8
1
 10
62.2993
 20
23.1476
 30
0.0000
  0
VERTEX
  8
1
 10
62.2993
 20
32.0910
 30
0.0000
  0
SEQEND
  8
0
  0
POLYLINE
  8
1
 66
1
 10
0.0000
 20
0.0000
 30
0.0000
 40
0.6500
 41
0.6500
 70
0
  0
VERTEX
  8
1
 10
62.6243
 20
32.0910
 30
0.0000
 42
1.0000
  0
VERTEX
  8
1
 10
61.9743
 20
32.0910
 30
0.0000
  0
SEQEND
  8
0
  0
POLYLINE
  8
1
 66
1
 10
0.0000
 20
0.0000
 30
0.0000
 40
0.6500
 41
0.6500
 70
0
  0
VERTEX
  8
1
 10
61.9743
 20
23.1476
 30
0.0000
 42
1.0000
  0
VERTEX
  8
1
 10
62.6243
 20
23.1476
 30
0.0000
  0
SEQEND
  8
0
  0
POLYLINE
  8
1
 66
1
 10
0.0000
 20
0.0000
 30
0.0000
 40
1.3000
 41
1.3000
 70
0
  0
VERTEX
  8
1
 10
62.2993
 20
32.0910
 30
0.0000
  0
VERTEX
  8
1
 10
62.2803
 20
32.1100
 30
0.0000
  0
SEQEND
  8
0
  0
POLYLINE
  8
1
 66
1
 10
0.0000
 20
0.0000
 30
0.0000
 40
0.6500
 41
0.6500
 70
0
  0
VERTEX
  8
1
 10
62.5101
 20
32.3398
 30
0.0000
 42
1.0000
  0
VERTEX
  8
1
 10
62.0505
 20
31.8802
 30
0.0000
  0
SEQEND
  8
0
  0
POLYLINE
  8
1
 66
1
 10
0.0000
 20
0.0000
 30
0.0000
 40
0.6500
 41
0.6500
 70
0
  0
VERTEX
  8
1
 10
62.0695
 20
31.8612
 30
0.0000
 42
1.0000
  0
VERTEX
  8
1
 10
62.5291
 20
32.3208
 30
0.0000
  0
SEQEND
  8
0
  0
POLYLINE
  8
1
 66
1
 10
0.0000
 20
0.0000
 30
0.0000
 40
1.3000
 41
1.3000
 70
0
  0
VERTEX
  8
1
 10
59.7593
 20
20.6076
 30
0.0000
  0
VERTEX
  8
1
 10
59.7593
 20
18.2407
 30
0.0000
  0
SEQEND
  8
0
  0
POLYLINE
  8
1
 66
1
 10
0.0000
 20
0.0000
 30
0.0000
 40
0.6500
 41
0.6500
 70
0
  0
VERTEX
  8
1
 10
59.4343
 20
18.2407
 30
0.0000
 42
1.0000
  0
VERTEX
  8
1
 10
60.0843
 20
18.2407
 30
0.0000
  0
SEQEND
  8
0
  0
POLYLINE
  8
1
 66
1
 10
0.0000
 20
0.0000
 30
0.0000
 40
0.6500
 41
0.6500
 70
0
  0
VERTEX
  8
1
 10
60.0843
 20
20.6076
 30
0.0000
 42
1.0000
  0
VERTEX
  8
1
 10
59.4343
 20
20.6076
 30
0.0000
  0
SEQEND
  8
0
  0
POLYLINE
  8
1
 66
1
 10
0.0000
 20
0.0000
 30
0.0000
 40
1.3000
 41
1.3000
 70
0
  0
VERTEX
  8
1
 10
59.7593
 20
18.2407
 30
0.0000
  0
VERTEX
  8
1
 10
61.2500
 20
16.7500
 30
0.0000
  0
SEQEND
  8
0
  0
POLYLINE
  8
1
 66
1
 10
0.0000
 20
0.0000
 30
0.0000
 40
0.6500
 41
0.6500
 70
0
  0
VERTEX
  8
1
 10
61.0202
 20
16.5202
 30
0.0000
 42
1.0000
  0
VERTEX
  8
1
 10
61.4798
 20
16.9798
 30
0.0000
  0
SEQEND
  8
0
  0
POLYLINE
  8
1
 66
1
 10
0.0000
 20
0.0000
 30
0.0000
 40
0.6500
 41
0.6500
 70
0
  0
VERTEX
  8
1
 10
59.9891
 20
18.4705
 30
0.0000
 42
1.0000
  0
VERTEX
  8
1
 10
59.5295
 20
18.0109
 30
0.0000
  0
SEQEND
  8
0
  0
POLYLINE
  8
1
 66
1
 10
0.0000
 20
0.0000
 30
0.0000
 40
1.3000
 41
1.3000
 70
0
  0
VERTEX
  8
1
 10
61.2500
 20
16.7500
 30
0.0000
  0
VERTEX
  8
1
 10
66.0000
 20
16.7500
 30
0.0000
  0
SEQEND
  8
0
  0
POLYLINE
  8
1
 66
1
 10
0.0000
 20
0.0000
 30
0.0000
 40
0.6500
 41
0.6500
 70
0
  0
VERTEX
  8
1
 10
66.0000
 20
16.4250
 30
0.0000
 42
1.0000
  0
VERTEX
  8
1
 10
66.0000
 20
17.0750
 30
0.0000
  0
SEQEND
  8
0
  0
POLYLINE
  8
1
 66
1
 10
0.0000
 20
0.0000
 30
0.0000
 40
0.6500
 41
0.6500
 70
0
  0
VERTEX
  8
1
 10
61.2500
 20
17.0750
 30
0.0000
 42
1.0000
  0
VERTEX
  8
1
 10
61.2500
 20
16.4250
 30
0.0000
  0
SEQEND
  8
0
  0
POLYLINE
  8
1
 66
1
 10
0.0000
 20
0.0000
 30
0.0000
 40
1.3000
 41
1.3000
 70
0
  0
VERTEX
  8
1
 10
68.0000
 20
18.7500
 30
0.0000
  0
VERTEX
  8
1
 10
68.0000
 20
32.5000
 30
0.0000
  0
SEQEND
  8
0
  0
POLYLINE
  8
1
 66
1
 10
0.0000
 20
0.0000
 30
0.0000
 40
0.6500
 41
0.6500
 70
0
  0
VERTEX
  8
1
 10
68.3250
 20
32.5000
 30
0.0000
 42
1.0000
  0
VERTEX
  8
1
 10
67.6750
 20
32.5000
 30
0.0000
  0
SEQEND
  8
0
  0
POLYLINE
  8
1
 66
1
 10
0.0000
 20
0.0000
 30
0.0000
 40
0.6500
 41
0.6500
 70
0
  0
VERTEX
  8
1
 10
67.6750
 20
18.7500
 30
0.0000
 42
1.0000
  0
VERTEX
  8
1
 10
68.3250
 20
18.7500
 30
0.0000
  0
SEQEND
  8
0
  0
POLYLINE
  8
1
 66
1
 10
0.0000
 20
0.0000
 30
0.0000
 40
1.3000
 41
1.3000
 70
0
  0
VERTEX
  8
1
 10
68.0000
 20
32.5000
 30
0.0000
  0
VERTEX
  8
1
 10
65.8500
 20
34.6500
 30
0.0000
  0
SEQEND
  8
0
  0
POLYLINE
  8
1
 66
1
 10
0.0000
 20
0.0000
 30
0.0000
 40
0.6500
 41
0.6500
 70
0
  0
VERTEX
  8
1
 10
66.0798
 20
34.8798
 30
0.0000
 42
1.0000
  0
VERTEX
  8
1
 10
65.6202
 20
34.4202
 30
0.0000
  0
SEQEND
  8
0
  0
POLYLINE
  8
1
 66
1
 10
0.0000
 20
0.0000
 30
0.0000
 40
0.6500
 41
0.6500
 70
0
  0
VERTEX
  8
1
 10
67.7702
 20
32.2702
 30
0.0000
 42
1.0000
  0
VERTEX
  8
1
 10
68.2298
 20
32.7298
 30
0.0000
  0
SEQEND
  8
0
  0
POLYLINE
  8
1
 66
1
 10
0.0000
 20
0.0000
 30
0.0000
 40
1.3000
 41
1.3000
 70
0
  0
VERTEX
  8
1
 10
65.8500
 20
34.6500
 30
0.0000
  0
VERTEX
  8
1
 10
62.2803
 20
34.6500
 30
0.0000
  0
SEQEND
  8
0
  0
POLYLINE
  8
1
 66
1
 10
0.0000
 20
0.0000
 30
0.0000
 40
0.6500
 41
0.6500
 70
0
  0
VERTEX
  8
1
 10
62.2803
 20
34.9750
 30
0.0000
 42
1.0000
  0
VERTEX
  8
1
 10
62.2803
 20
34.3250
 30
0.0000
  0
SEQEND
  8
0
  0
POLYLINE
  8
1
 66
1
 10
0.0000
 20
0.0000
 30
0.0000
 40
0.6500
 41
0.6500
 70
0
  0
VERTEX
  8
1
 10
65.8500
 20
34.3250
 30
0.0000
 42
1.0000
  0
VERTEX
  8
1
 10
65.8500
 20
34.9750
 30
0.0000
  0
SEQEND
  8
0
  0
POLYLINE
  8
1
 66
1
 10
0.0000
 20
0.0000
 30
0.0000
 40
1.3000
 41
1.3000
 70
0
  0
VERTEX
  8
1
 10
66.0000
 20
16.7500
 30
0.0000
  0
VERTEX
  8
1
 10
68.0000
 20
18.7500
 30
0.0000
  0
SEQEND
  8
0
  0
POLYLINE
  8
1
 66
1
 10
0.0000
 20
0.0000
 30
0.0000
 40
0.6500
 41
0.6500
 70
0
  0
VERTEX
  8
1
 10
68.2298
 20
18.5202
 30
0.0000
 42
1.0000
  0
VERTEX
  8
1
 10
67.7702
 20
18.9798
 30
0.0000
  0
SEQEND
  8
0
  0
POLYLINE
  8
1
 66
1
 10
0.0000
 20
0.0000
 30
0.0000
 40
0.6500
 41
0.6500
 70
0
  0
VERTEX
  8
1
 10
65.7702
 20
16.9798
 30
0.0000
 42
1.0000
  0
VERTEX
  8
1
 10
66.2298
 20
16.5202
 30
0.0000
  0
SEQEND
  8
0
  0
POLYLINE
  8
1
 66
1
 10
0.0000
 20
0.0000
 30
0.0000
 40
1.3000
 41
1.3000
 70
0
  0
VERTEX
  8
1
 10
79.9633
 20
6.7414
 30
0.0000
  0
VERTEX
  8
1
 10
79.9633
 20
10.2133
 30
0.0000
  0
SEQEND
  8
0
  0
POLYLINE
  8
1
 66
1
 10
0.0000
 20
0.0000
 30
0.0000
 40
0.6500
 41
0.6500
 70
0
  0
VERTEX
  8
1
 10
80.2883
 20
10.2133
 30
0.0000
 42
1.0000
  0
VERTEX
  8
1
 10
79.6383
 20
10.2133
 30
0.0000
  0
SEQEND
  8
0
  0
POLYLINE
  8
1
 66
1
 10
0.0000
 20
0.0000
 30
0.0000
 40
0.6500
 41
0.6500
 70
0
  0
VERTEX
  8
1
 10
79.6383
 20
6.7414
 30
0.0000
 42
1.0000
  0
VERTEX
  8
1
 10
80.2883
 20
6.7414
 30
0.0000
  0
SEQEND
  8
0
  0
POLYLINE
  8
1
 66
1
 10
0.0000
 20
0.0000
 30
0.0000
 40
1.3000
 41
1.3000
 70
0
  0
VERTEX
  8
1
 10
90.0000
 20
12.2500
 30
0.0000
  0
VERTEX
  8
1
 10
93.5673
 20
8.6827
 30
0.0000
  0
SEQEND
  8
0
  0
POLYLINE
  8
1
 66
1
 10
0.0000
 20
0.0000
 30
0.0000
 40
0.6500
 41
0.6500
 70
0
  0
VERTEX
  8
1
 10
93.3375
 20
8.4529
 30
0.0000
 42
1.0000
  0
VERTEX
  8
1
 10
93.7971
 20
8.9125
 30
0.0000
  0
SEQEND
  8
0
  0
POLYLINE
  8
1
 66
1
 10
0.0000
 20
0.0000
 30
0.0000
 40
0.6500
 41
0.6500
 70
0
  0
VERTEX
  8
1
 10
90.2298
 20
12.4798
 30
0.0000
 42
1.0000
  0
VERTEX
  8
1
 10
89.7702
 20
12.0202
 30
0.0000
  0
SEQEND
  8
0
  0
POLYLINE
  8
1
 66
1
 10
0.0000
 20
0.0000
 30
0.0000
 40
1.3000
 41
1.3000
 70
0
  0
VERTEX
  8
1
 10
93.5673
 20
8.6827
 30
0.0000
  0
VERTEX
  8
1
 10
93.5673
 20
6.6387
 30
0.0000
  0
SEQEND
  8
0
  0
POLYLINE
  8
1
 66
1
 10
0.0000
 20
0.0000
 30
0.0000
 40
0.6500
 41
0.6500
 70
0
  0
VERTEX
  8
1
 10
93.2423
 20
6.6387
 30
0.0000
 42
1.0000
  0
VERTEX
  8
1
 10
93.8923
 20
6.6387
 30
0.0000
  0
SEQEND
  8
0
  0
POLYLINE
  8
1
 66
1
 10
0.0000
 20
0.0000
 30
0.0000
 40
0.6500
 41
0.6500
 70
0
  0
VERTEX
  8
1
 10
93.8923
 20
8.6827
 30
0.0000
 42
1.0000
  0
VERTEX
  8
1
 10
93.2423
 20
8.6827
 30
0.0000
  0
SEQEND
  8
0
  0
POLYLINE
  8
1
 66
1
 10
0.0000
 20
0.0000
 30
0.0000
 40
1.3000
 41
1.3000
 70
0
  0
VERTEX
  8
1
 10
79.9633
 20
10.2133
 30
0.0000
  0
VERTEX
  8
1
 10
82.0000
 20
12.2500
 30
0.0000
  0
SEQEND
  8
0
  0
POLYLINE
  8
1
 66
1
 10
0.0000
 20
0.0000
 30
0.0000
 40
0.6500
 41
0.6500
 70
0
  0
VERTEX
  8
1
 10
82.2298
 20
12.0202
 30
0.0000
 42
1.0000
  0
VERTEX
  8
1
 10
81.7702
 20
12.4798
 30
0.0000
  0
SEQEND
  8
0
  0
POLYLINE
  8
1
 66
1
 10
0.0000
 20
0.0000
 30
0.0000
 40
0.6500
 41
0.6500
 70
0
  0
VERTEX
  8
1
 10
79.7335
 20
10.4431
 30
0.0000
 42
1.0000
  0
VERTEX
  8
1
 10
80.1931
 20
9.9835
 30
0.0000
  0
SEQEND
  8
0
  0
POLYLINE
  8
1
 66
1
 10
0.0000
 20
0.0000
 30
0.0000
 40
1.3000
 41
1.3000
 70
0
  0
VERTEX
  8
1
 10
82.0000
 20
12.2500
 30
0.0000
  0
VERTEX
  8
1
 10
90.0000
 20
12.2500
 30
0.0000
  0
SEQEND
  8
0
  0
POLYLINE
  8
1
 66
1
 10
0.0000
 20
0.0000
 30
0.0000
 40
0.6500
 41
0.6500
 70
0
  0
VERTEX
  8
1
 10
90.0000
 20
11.9250
 30
0.0000
 42
1.0000
  0
VERTEX
  8
1
 10
90.0000
 20
12.5750
 30
0.0000
  0
SEQEND
  8
0
  0
POLYLINE
  8
1
 66
1
 10
0.0000
 20
0.0000
 30
0.0000
 40
0.6500
 41
0.6500
 70
0
  0
VERTEX
  8
1
 10
82.0000
 20
12.5750
 30
0.0000
 42
1.0000
  0
VERTEX
  8
1
 10
82.0000
 20
11.9250
 30
0.0000
  0
SEQEND
  8
0
  0
POLYLINE
  8
1
 66
1
 10
0.0000
 20
0.0000
 30
0.0000
 40
1.3000
 41
1.3000
 70
0
  0
VERTEX
  8
1
 10
25.8017
 20
26.0000
 30
0.0000
  0
VERTEX
  8
1
 10
24.1993
 20
24.3976
 30
0.0000
  0
SEQEND
  8
0
  0
POLYLINE
  8
1
 66
1
 10
0.0000
 20
0.0000
 30
0.0000
 40
0.6500
 41
0.6500
 70
0
  0
VERTEX
  8
1
 10
23.9695
 20
24.6274
 30
0.0000
 42
1.0000
  0
VERTEX
  8
1
 10
24.4291
 20
24.1678
 30
0.0000
  0
SEQEND
  8
0
  0
POLYLINE
  8
1
 66
1
 10
0.0000
 20
0.0000
 30
0.0000
 40
0.6500
 41
0.6500
 70
0
  0
VERTEX
  8
1
 10
26.0315
 20
25.7702
 30
0.0000
 42
1.0000
  0
VERTEX
  8
1
 10
25.5719
 20
26.2298
 30
0.0000
  0
SEQEND
  8
0
  0
POLYLINE
  8
1
 66
1
 10
0.0000
 20
0.0000
 30
0.0000
 40
1.3000
 41
1.3000
 70
0
  0
VERTEX
  8
1
 10
24.1993
 20
23.1476
 30
0.0000
  0
VERTEX
  8
1
 10
24.1993
 20
24.3976
 30
0.0000
  0
SEQEND
  8
0
  0
POLYLINE
  8
1
 66
1
 10
0.0000
 20
0.0000
 30
0.0000
 40
0.6500
 41
0.6500
 70
0
  0
VERTEX
  8
1
 10
24.5243
 20
24.3976
 30
0.0000
 42
1.0000
  0
VERTEX
  8
1
 10
23.8743
 20
24.3976
 30
0.0000
  0
SEQEND
  8
0
  0
POLYLINE
  8
1
 66
1
 10
0.0000
 20
0.0000
 30
0.0000
 40
0.6500
 41
0.6500
 70
0
  0
VERTEX
  8
1
 10
23.8743
 20
23.1476
 30
0.0000
 42
1.0000
  0
VERTEX
  8
1
 10
24.5243
 20
23.1476
 30
0.0000
  0
SEQEND
  8
0
  0
POLYLINE
  8
1
 66
1
 10
0.0000
 20
0.0000
 30
0.0000
 40
1.3000
 41
1.3000
 70
0
  0
VERTEX
  8
1
 10
41.4715
 20
26.0000
 30
0.0000
  0
VERTEX
  8
1
 10
25.8017
 20
26.0000
 30
0.0000
  0
SEQEND
  8
0
  0
POLYLINE
  8
1
 66
1
 10
0.0000
 20
0.0000
 30
0.0000
 40
0.6500
 41
0.6500
 70
0
  0
VERTEX
  8
1
 10
25.8017
 20
26.3250
 30
0.0000
 42
1.0000
  0
VERTEX
  8
1
 10
25.8017
 20
25.6750
 30
0.0000
  0
SEQEND
  8
0
  0
POLYLINE
  8
1
 66
1
 10
0.0000
 20
0.0000
 30
0.0000
 40
0.6500
 41
0.6500
 70
0
  0
VERTEX
  8
1
 10
41.4715
 20
25.6750
 30
0.0000
 42
1.0000
  0
VERTEX
  8
1
 10
41.4715
 20
26.3250
 30
0.0000
  0
SEQEND
  8
0
  0
POLYLINE
  8
1
 66
1
 10
0.0000
 20
0.0000
 30
0.0000
 40
1.3000
 41
1.3000
 70
0
  0
VERTEX
  8
1
 10
45.6397
 20
37.1900
 30
0.0000
  0
VERTEX
  8
1
 10
44.3897
 20
35.9400
 30
0.0000
  0
SEQEND
  8
0
  0
POLYLINE
  8
1
 66
1
 10
0.0000
 20
0.0000
 30
0.0000
 40
0.6500
 41
0.6500
 70
0
  0
VERTEX
  8
1
 10
44.1599
 20
36.1698
 30
0.0000
 42
1.0000
  0
VERTEX
  8
1
 10
44.6195
 20
35.7102
 30
0.0000
  0
SEQEND
  8
0
  0
POLYLINE
  8
1
 66
1
 10
0.0000
 20
0.0000
 30
0.0000
 40
0.6500
 41
0.6500
 70
0
  0
VERTEX
  8
1
 10
45.8695
 20
36.9602
 30
0.0000
 42
1.0000
  0
VERTEX
  8
1
 10
45.4099
 20
37.4198
 30
0.0000
  0
SEQEND
  8
0
  0
POLYLINE
  8
1
 66
1
 10
0.0000
 20
0.0000
 30
0.0000
 40
1.3000
 41
1.3000
 70
0
  0
VERTEX
  8
1
 10
44.3897
 20
35.9400
 30
0.0000
  0
VERTEX
  8
1
 10
44.3897
 20
28.9182
 30
0.0000
  0
SEQEND
  8
0
  0
POLYLINE
  8
1
 66
1
 10
0.0000
 20
0.0000
 30
0.0000
 40
0.6500
 41
0.6500
 70
0
  0
VERTEX
  8
1
 10
44.0647
 20
28.9182
 30
0.0000
 42
1.0000
  0
VERTEX
  8
1
 10
44.7147
 20
28.9182
 30
0.0000
  0
SEQEND
  8
0
  0
POLYLINE
  8
1
 66
1
 10
0.0000
 20
0.0000
 30
0.0000
 40
0.6500
 41
0.6500
 70
0
  0
VERTEX
  8
1
 10
44.7147
 20
35.9400
 30
0.0000
 42
1.0000
  0
VERTEX
  8
1
 10
44.0647
 20
35.9400
 30
0.0000
  0
SEQEND
  8
0
  0
POLYLINE
  8
1
 66
1
 10
0.0000
 20
0.0000
 30
0.0000
 40
1.3000
 41
1.3000
 70
0
  0
VERTEX
  8
1
 10
44.3897
 20
28.9182
 30
0.0000
  0
VERTEX
  8
1
 10
41.4715
 20
26.0000
 30
0.0000
  0
SEQEND
  8
0
  0
POLYLINE
  8
1
 66
1
 10
0.0000
 20
0.0000
 30
0.0000
 40
0.6500
 41
0.6500
 70
0
  0
VERTEX
  8
1
 10
41.2417
 20
26.2298
 30
0.0000
 42
1.0000
  0
VERTEX
  8
1
 10
41.7013
 20
25.7702
 30
0.0000
  0
SEQEND
  8
0
  0
POLYLINE
  8
1
 66
1
 10
0.0000
 20
0.0000
 30
0.0000
 40
0.6500
 41
0.6500
 70
0
  0
VERTEX
  8
1
 10
44.6195
 20
28.6884
 30
0.0000
 42
1.0000
  0
VERTEX
  8
1
 10
44.1599
 20
29.1480
 30
0.0000
  0
SEQEND
  8
0
  0
POLYLINE
  8
1
 66
1
 10
0.0000
 20
0.0000
 30
0.0000
 40
1.3000
 41
1.3000
 70
0
  0
VERTEX
  8
1
 10
47.6397
 20
37.1900
 30
0.0000
  0
VERTEX
  8
1
 10
45.6397
 20
37.1900
 30
0.0000
  0
SEQEND
  8
0
  0
POLYLINE
  8
1
 66
1
 10
0.0000
 20
0.0000
 30
0.0000
 40
0.6500
 41
0.6500
 70
0
  0
VERTEX
  8
1
 10
45.6397
 20
37.5150
 30
0.0000
 42
1.0000
  0
VERTEX
  8
1
 10
45.6397
 20
36.8650
 30
0.0000
  0
SEQEND
  8
0
  0
POLYLINE
  8
1
 66
1
 10
0.0000
 20
0.0000
 30
0.0000
 40
0.6500
 41
0.6500
 70
0
  0
VERTEX
  8
1
 10
47.6397
 20
36.8650
 30
0.0000
 42
1.0000
  0
VERTEX
  8
1
 10
47.6397
 20
37.5150
 30
0.0000
  0
SEQEND
  8
0
  0
POLYLINE
  8
1
 66
1
 10
0.0000
 20
0.0000
 30
0.0000
 40
1.3000
 41
1.3000
 70
0
  0
VERTEX
  8
1
 10
43.3649
 20
44.3851
 30
0.0000
  0
VERTEX
  8
1
 10
37.9265
 20
38.9467
 30
0.0000
  0
SEQEND
  8
0
  0
POLYLINE
  8
1
 66
1
 10
0.0000
 20
0.0000
 30
0.0000
 40
0.6500
 41
0.6500
 70
0
  0
VERTEX
  8
1
 10
37.6967
 20
39.1765
 30
0.0000
 42
1.0000
  0
VERTEX
  8
1
 10
38.1563
 20
38.7169
 30
0.0000
  0
SEQEND
  8
0
  0
POLYLINE
  8
1
 66
1
 10
0.0000
 20
0.0000
 30
0.0000
 40
0.6500
 41
0.6500
 70
0
  0
VERTEX
  8
1
 10
43.5947
 20
44.1553
 30
0.0000
 42
1.0000
  0
VERTEX
  8
1
 10
43.1351
 20
44.6149
 30
0.0000
  0
SEQEND
  8
0
  0
POLYLINE
  8
1
 66
1
 10
0.0000
 20
0.0000
 30
0.0000
 40
1.3000
 41
1.3000
 70
0
  0
VERTEX
  8
1
 10
37.9265
 20
38.9467
 30
0.0000
  0
VERTEX
  8
1
 10
37.9265
 20
34.1967
 30
0.0000
  0
SEQEND
  8
0
  0
POLYLINE
  8
1
 66
1
 10
0.0000
 20
0.0000
 30
0.0000
 40
0.6500
 41
0.6500
 70
0
  0
VERTEX
  8
1
 10
37.6015
 20
34.1967
 30
0.0000
 42
1.0000
  0
VERTEX
  8
1
 10
38.2515
 20
34.1967
 30
0.0000
  0
SEQEND
  8
0
  0
POLYLINE
  8
1
 66
1
 10
0.0000
 20
0.0000
 30
0.0000
 40
0.6500
 41
0.6500
 70
0
  0
VERTEX
  8
1
 10
38.2515
 20
38.9467
 30
0.0000
 42
1.0000
  0
VERTEX
  8
1
 10
37.6015
 20
38.9467
 30
0.0000
  0
SEQEND
  8
0
  0
POLYLINE
  8
1
 66
1
 10
0.0000
 20
0.0000
 30
0.0000
 40
1.3000
 41
1.3000
 70
0
  0
VERTEX
  8
1
 10
47.6397
 20
44.8100
 30
0.0000
  0
VERTEX
  8
1
 10
43.7898
 20
44.8100
 30
0.0000
  0
SEQEND
  8
0
  0
POLYLINE
  8
1
 66
1
 10
0.0000
 20
0.0000
 30
0.0000
 40
0.6500
 41
0.6500
 70
0
  0
VERTEX
  8
1
 10
43.7898
 20
45.1350
 30
0.0000
 42
1.0000
  0
VERTEX
  8
1
 10
43.7898
 20
44.4850
 30
0.0000
  0
SEQEND
  8
0
  0
POLYLINE
  8
1
 66
1
 10
0.0000
 20
0.0000
 30
0.0000
 40
0.6500
 41
0.6500
 70
0
  0
VERTEX
  8
1
 10
47.6397
 20
44.4850
 30
0.0000
 42
1.0000
  0
VERTEX
  8
1
 10
47.6397
 20
45.1350
 30
0.0000
  0
SEQEND
  8
0
  0
POLYLINE
  8
1
 66
1
 10
0.0000
 20
0.0000
 30
0.0000
 40
1.3000
 41
1.3000
 70
0
  0
VERTEX
  8
1
 10
43.7898
 20
44.8100
 30
0.0000
  0
VERTEX
  8
1
 10
43.3649
 20
44.3851
 30
0.0000
  0
SEQEND
  8
0
  0
POLYLINE
  8
1
 66
1
 10
0.0000
 20
0.0000
 30
0.0000
 40
0.6500
 41
0.6500
 70
0
  0
VERTEX
  8
1
 10
43.1351
 20
44.6149
 30
0.0000
 42
1.0000
  0
VERTEX
  8
1
 10
43.5947
 20
44.1553
 30
0.0000
  0
SEQEND
  8
0
  0
POLYLINE
  8
1
 66
1
 10
0.0000
 20
0.0000
 30
0.0000
 40
0.6500
 41
0.6500
 70
0
  0
VERTEX
  8
1
 10
44.0196
 20
44.5802
 30
0.0000
 42
1.0000
  0
VERTEX
  8
1
 10
43.5600
 20
45.0398
 30
0.0000
  0
SEQEND
  8
0
  0
POLYLINE
  8
1
 66
1
 10
0.0000
 20
0.0000
 30
0.0000
 40
1.3000
 41
1.3000
 70
0
  0
VERTEX
  8
1
 10
35.3865
 20
49.4367
 30
0.0000
  0
VERTEX
  8
1
 10
37.4498
 20
51.5000
 30
0.0000
  0
SEQEND
  8
0
  0
POLYLINE
  8
1
 66
1
 10
0.0000
 20
0.0000
 30
0.0000
 40
0.6500
 41
0.6500
 70
0
  0
VERTEX
  8
1
 10
37.6796
 20
51.2702
 30
0.0000
 42
1.0000
  0
VERTEX
  8
1
 10
37.2200
 20
51.7298
 30
0.0000
  0
SEQEND
  8
0
  0
POLYLINE
  8
1
 66
1
 10
0.0000
 20
0.0000
 30
0.0000
 40
0.6500
 41
0.6500
 70
0
  0
VERTEX
  8
1
 10
35.1567
 20
49.6665
 30
0.0000
 42
1.0000
  0
VERTEX
  8
1
 10
35.6163
 20
49.2069
 30
0.0000
  0
SEQEND
  8
0
  0
POLYLINE
  8
1
 66
1
 10
0.0000
 20
0.0000
 30
0.0000
 40
1.3000
 41
1.3000
 70
0
  0
VERTEX
  8
1
 10
37.4498
 20
51.5000
 30
0.0000
  0
VERTEX
  8
1
 10
42.0000
 20
51.5000
 30
0.0000
  0
SEQEND
  8
0
  0
POLYLINE
  8
1
 66
1
 10
0.0000
 20
0.0000
 30
0.0000
 40
0.6500
 41
0.6500
 70
0
  0
VERTEX
  8
1
 10
42.0000
 20
51.1750
 30
0.0000
 42
1.0000
  0
VERTEX
  8
1
 10
42.0000
 20
51.8250
 30
0.0000
  0
SEQEND
  8
0
  0
POLYLINE
  8
1
 66
1
 10
0.0000
 20
0.0000
 30
0.0000
 40
0.6500
 41
0.6500
 70
0
  0
VERTEX
  8
1
 10
37.4498
 20
51.8250
 30
0.0000
 42
1.0000
  0
VERTEX
  8
1
 10
37.4498
 20
51.1750
 30
0.0000
  0
SEQEND
  8
0
  0
POLYLINE
  8
1
 66
1
 10
0.0000
 20
0.0000
 30
0.0000
 40
1.3000
 41
1.3000
 70
0
  0
VERTEX
  8
1
 10
46.6900
 20
56.1900
 30
0.0000
  0
VERTEX
  8
1
 10
50.0000
 20
56.1900
 30
0.0000
  0
SEQEND
  8
0
  0
POLYLINE
  8
1
 66
1
 10
0.0000
 20
0.0000
 30
0.0000
 40
0.6500
 41
0.6500
 70
0
  0
VERTEX
  8
1
 10
50.0000
 20
55.8650
 30
0.0000
 42
1.0000
  0
VERTEX
  8
1
 10
50.0000
 20
56.5150
 30
0.0000
  0
SEQEND
  8
0
  0
POLYLINE
  8
1
 66
1
 10
0.0000
 20
0.0000
 30
0.0000
 40
0.6500
 41
0.6500
 70
0
  0
VERTEX
  8
1
 10
46.6900
 20
56.5150
 30
0.0000
 42
1.0000
  0
VERTEX
  8
1
 10
46.6900
 20
55.8650
 30
0.0000
  0
SEQEND
  8
0
  0
POLYLINE
  8
1
 66
1
 10
0.0000
 20
0.0000
 30
0.0000
 40
1.3000
 41
1.3000
 70
0
  0
VERTEX
  8
1
 10
42.0000
 20
51.5000
 30
0.0000
  0
VERTEX
  8
1
 10
46.6900
 20
56.1900
 30
0.0000
  0
SEQEND
  8
0
  0
POLYLINE
  8
1
 66
1
 10
0.0000
 20
0.0000
 30
0.0000
 40
0.6500
 41
0.6500
 70
0
  0
VERTEX
  8
1
 10
46.9198
 20
55.9602
 30
0.0000
 42
1.0000
  0
VERTEX
  8
1
 10
46.4602
 20
56.4198
 30
0.0000
  0
SEQEND
  8
0
  0
POLYLINE
  8
1
 66
1
 10
0.0000
 20
0.0000
 30
0.0000
 40
0.6500
 41
0.6500
 70
0
  0
VERTEX
  8
1
 10
41.7702
 20
51.7298
 30
0.0000
 42
1.0000
  0
VERTEX
  8
1
 10
42.2298
 20
51.2702
 30
0.0000
  0
SEQEND
  8
0
  0
POLYLINE
  8
1
 66
1
 10
0.0000
 20
0.0000
 30
0.0000
 40
1.3000
 41
1.3000
 70
0
  0
VERTEX
  8
1
 10
36.1900
 20
56.1900
 30
0.0000
  0
VERTEX
  8
1
 10
40.0000
 20
56.1900
 30
0.0000
  0
SEQEND
  8
0
  0
POLYLINE
  8
1
 66
1
 10
0.0000
 20
0.0000
 30
0.0000
 40
0.6500
 41
0.6500
 70
0
  0
VERTEX
  8
1
 10
40.0000
 20
55.8650
 30
0.0000
 42
1.0000
  0
VERTEX
  8
1
 10
40.0000
 20
56.5150
 30
0.0000
  0
SEQEND
  8
0
  0
POLYLINE
  8
1
 66
1
 10
0.0000
 20
0.0000
 30
0.0000
 40
0.6500
 41
0.6500
 70
0
  0
VERTEX
  8
1
 10
36.1900
 20
56.5150
 30
0.0000
 42
1.0000
  0
VERTEX
  8
1
 10
36.1900
 20
55.8650
 30
0.0000
  0
SEQEND
  8
0
  0
POLYLINE
  8
1
 66
1
 10
0.0000
 20
0.0000
 30
0.0000
 40
1.3000
 41
1.3000
 70
0
  0
VERTEX
  8
1
 10
30.3065
 20
49.4367
 30
0.0000
  0
VERTEX
  8
1
 10
30.3065
 20
51.0258
 30
0.0000
  0
SEQEND
  8
0
  0
POLYLINE
  8
1
 66
1
 10
0.0000
 20
0.0000
 30
0.0000
 40
0.6500
 41
0.6500
 70
0
  0
VERTEX
  8
1
 10
30.6315
 20
51.0258
 30
0.0000
 42
1.0000
  0
VERTEX
  8
1
 10
29.9815
 20
51.0258
 30
0.0000
  0
SEQEND
  8
0
  0
POLYLINE
  8
1
 66
1
 10
0.0000
 20
0.0000
 30
0.0000
 40
0.6500
 41
0.6500
 70
0
  0
VERTEX
  8
1
 10
29.9815
 20
49.4367
 30
0.0000
 42
1.0000
  0
VERTEX
  8
1
 10
30.6315
 20
49.4367
 30
0.0000
  0
SEQEND
  8
0
  0
POLYLINE
  8
1
 66
1
 10
0.0000
 20
0.0000
 30
0.0000
 40
1.3000
 41
1.3000
 70
0
  0
VERTEX
  8
1
 10
30.3065
 20
51.0258
 30
0.0000
  0
VERTEX
  8
1
 10
31.7500
 20
51.7500
 30
0.0000
  0
SEQEND
  8
0
  0
POLYLINE
  8
1
 66
1
 10
0.0000
 20
0.0000
 30
0.0000
 40
0.6500
 41
0.6500
 70
0
  0
VERTEX
  8
1
 10
31.8957
 20
51.4595
 30
0.0000
 42
1.0000
  0
VERTEX
  8
1
 10
31.6043
 20
52.0405
 30
0.0000
  0
SEQEND
  8
0
  0
POLYLINE
  8
1
 66
1
 10
0.0000
 20
0.0000
 30
0.0000
 40
0.6500
 41
0.6500
 70
0
  0
VERTEX
  8
1
 10
30.1608
 20
51.3163
 30
0.0000
 42
1.0000
  0
VERTEX
  8
1
 10
30.4522
 20
50.7353
 30
0.0000
  0
SEQEND
  8
0
  0
POLYLINE
  8
1
 66
1
 10
0.0000
 20
0.0000
 30
0.0000
 40
1.3000
 41
1.3000
 70
0
  0
VERTEX
  8
1
 10
31.7500
 20
51.7500
 30
0.0000
  0
VERTEX
  8
1
 10
36.1900
 20
56.1900
 30
0.0000
  0
SEQEND
  8
0
  0
POLYLINE
  8
1
 66
1
 10
0.0000
 20
0.0000
 30
0.0000
 40
0.6500
 41
0.6500
 70
0
  0
VERTEX
  8
1
 10
36.4198
 20
55.9602
 30
0.0000
 42
1.0000
  0
VERTEX
  8
1
 10
35.9602
 20
56.4198
 30
0.0000
  0
SEQEND
  8
0
  0
POLYLINE
  8
1
 66
1
 10
0.0000
 20
0.0000
 30
0.0000
 40
0.6500
 41
0.6500
 70
0
  0
VERTEX
  8
1
 10
31.5202
 20
51.9798
 30
0.0000
 42
1.0000
  0
VERTEX
  8
1
 10
31.9798
 20
51.5202
 30
0.0000
  0
SEQEND
  8
0
  0
POLYLINE
  8
1
 66
1
 10
0.0000
 20
0.0000
 30
0.0000
 40
1.3000
 41
1.3000
 70
0
  0
VERTEX
  8
1
 10
25.2265
 20
49.4367
 30
0.0000
  0
VERTEX
  8
1
 10
25.2265
 20
53.7265
 30
0.0000
  0
SEQEND
  8
0
  0
POLYLINE
  8
1
 66
1
 10
0.0000
 20
0.0000
 30
0.0000
 40
0.6500
 41
0.6500
 70
0
  0
VERTEX
  8
1
 10
25.5515
 20
53.7265
 30
0.0000
 42
1.0000
  0
VERTEX
  8
1
 10
24.9015
 20
53.7265
 30
0.0000
  0
SEQEND
  8
0
  0
POLYLINE
  8
1
 66
1
 10
0.0000
 20
0.0000
 30
0.0000
 40
0.6500
 41
0.6500
 70
0
  0
VERTEX
  8
1
 10
24.9015
 20
49.4367
 30
0.0000
 42
1.0000
  0
VERTEX
  8
1
 10
25.5515
 20
49.4367
 30
0.0000
  0
SEQEND
  8
0
  0
POLYLINE
  8
1
 66
1
 10
0.0000
 20
0.0000
 30
0.0000
 40
1.3000
 41
1.3000
 70
0
  0
VERTEX
  8
1
 10
27.6900
 20
56.1900
 30
0.0000
  0
VERTEX
  8
1
 10
30.0000
 20
56.1900
 30
0.0000
  0
SEQEND
  8
0
  0
POLYLINE
  8
1
 66
1
 10
0.0000
 20
0.0000
 30
0.0000
 40
0.6500
 41
0.6500
 70
0
  0
VERTEX
  8
1
 10
30.0000
 20
55.8650
 30
0.0000
 42
1.0000
  0
VERTEX
  8
1
 10
30.0000
 20
56.5150
 30
0.0000
  0
SEQEND
  8
0
  0
POLYLINE
  8
1
 66
1
 10
0.0000
 20
0.0000
 30
0.0000
 40
0.6500
 41
0.6500
 70
0
  0
VERTEX
  8
1
 10
27.6900
 20
56.5150
 30
0.0000
 42
1.0000
  0
VERTEX
  8
1
 10
27.6900
 20
55.8650
 30
0.0000
  0
SEQEND
  8
0
  0
POLYLINE
  8
1
 66
1
 10
0.0000
 20
0.0000
 30
0.0000
 40
1.3000
 41
1.3000
 70
0
  0
VERTEX
  8
1
 10
25.2265
 20
53.7265
 30
0.0000
  0
VERTEX
  8
1
 10
27.6900
 20
56.1900
 30
0.0000
  0
SEQEND
  8
0
  0
POLYLINE
  8
1
 66
1
 10
0.0000
 20
0.0000
 30
0.0000
 40
0.6500
 41
0.6500
 70
0
  0
VERTEX
  8
1
 10
27.9198
 20
55.9602
 30
0.0000
 42
1.0000
  0
VERTEX
  8
1
 10
27.4602
 20
56.4198
 30
0.0000
  0
SEQEND
  8
0
  0
POLYLINE
  8
1
 66
1
 10
0.0000
 20
0.0000
 30
0.0000
 40
0.6500
 41
0.6500
 70
0
  0
VERTEX
  8
1
 10
24.9967
 20
53.9563
 30
0.0000
 42
1.0000
  0
VERTEX
  8
1
 10
25.4563
 20
53.4967
 30
0.0000
  0
SEQEND
  8
0
  0
POLYLINE
  8
1
 66
1
 10
0.0000
 20
0.0000
 30
0.0000
 40
1.3000
 41
1.3000
 70
0
  0
VERTEX
  8
1
 10
20.0000
 20
56.1900
 30
0.0000
  0
VERTEX
  8
1
 10
20.1465
 20
56.0435
 30
0.0000
  0
SEQEND
  8
0
  0
POLYLINE
  8
1
 66
1
 10
0.0000
 20
0.0000
 30
0.0000
 40
0.6500
 41
0.6500
 70
0
  0
VERTEX
  8
1
 10
19.9167
 20
55.8137
 30
0.0000
 42
1.0000
  0
VERTEX
  8
1
 10
20.3763
 20
56.2733
 30
0.0000
  0
SEQEND
  8
0
  0
POLYLINE
  8
1
 66
1
 10
0.0000
 20
0.0000
 30
0.0000
 40
0.6500
 41
0.6500
 70
0
  0
VERTEX
  8
1
 10
20.2298
 20
56.4198
 30
0.0000
 42
1.0000
  0
VERTEX
  8
1
 10
19.7702
 20
55.9602
 30
0.0000
  0
SEQEND
  8
0
  0
POLYLINE
  8
1
 66
1
 10
0.0000
 20
0.0000
 30
0.0000
 40
1.3000
 41
1.3000
 70
0
  0
VERTEX
  8
1
 10
20.1465
 20
56.0435
 30
0.0000
  0
VERTEX
  8
1
 10
20.1465
 20
49.4367
 30
0.0000
  0
SEQEND
  8
0
  0
POLYLINE
  8
1
 66
1
 10
0.0000
 20
0.0000
 30
0.0000
 40
0.6500
 41
0.6500
 70
0
  0
VERTEX
  8
1
 10
19.8215
 20
49.4367
 30
0.0000
 42
1.0000
  0
VERTEX
  8
1
 10
20.4715
 20
49.4367
 30
0.0000
  0
SEQEND
  8
0
  0
POLYLINE
  8
1
 66
1
 10
0.0000
 20
0.0000
 30
0.0000
 40
0.6500
 41
0.6500
 70
0
  0
VERTEX
  8
1
 10
20.4715
 20
56.0435
 30
0.0000
 42
1.0000
  0
VERTEX
  8
1
 10
19.8215
 20
56.0435
 30
0.0000
  0
SEQEND
  8
0
  0
POLYLINE
  8
1
 66
1
 10
0.0000
 20
0.0000
 30
0.0000
 40
1.3000
 41
1.3000
 70
0
  0
VERTEX
  8
1
 10
10.0000
 20
56.1900
 30
0.0000
  0
VERTEX
  8
1
 10
11.8100
 20
56.1900
 30
0.0000
  0
SEQEND
  8
0
  0
POLYLINE
  8
1
 66
1
 10
0.0000
 20
0.0000
 30
0.0000
 40
0.6500
 41
0.6500
 70
0
  0
VERTEX
  8
1
 10
11.8100
 20
55.8650
 30
0.0000
 42
1.0000
  0
VERTEX
  8
1
 10
11.8100
 20
56.5150
 30
0.0000
  0
SEQEND
  8
0
  0
POLYLINE
  8
1
 66
1
 10
0.0000
 20
0.0000
 30
0.0000
 40
0.6500
 41
0.6500
 70
0
  0
VERTEX
  8
1
 10
10.0000
 20
56.5150
 30
0.0000
 42
1.0000
  0
VERTEX
  8
1
 10
10.0000
 20
55.8650
 30
0.0000
  0
SEQEND
  8
0
  0
POLYLINE
  8
1
 66
1
 10
0.0000
 20
0.0000
 30
0.0000
 40
1.3000
 41
1.3000
 70
0
  0
VERTEX
  8
1
 10
15.0665
 20
52.9335
 30
0.0000
  0
VERTEX
  8
1
 10
15.0665
 20
49.4393
 30
0.0000
  0
SEQEND
  8
0
  0
POLYLINE
  8
1
 66
1
 10
0.0000
 20
0.0000
 30
0.0000
 40
0.6500
 41
0.6500
 70
0
  0
VERTEX
  8
1
 10
14.7415
 20
49.4393
 30
0.0000
 42
1.0000
  0
VERTEX
  8
1
 10
15.3915
 20
49.4393
 30
0.0000
  0
SEQEND
  8
0
  0
POLYLINE
  8
1
 66
1
 10
0.0000
 20
0.0000
 30
0.0000
 40
0.6500
 41
0.6500
 70
0
  0
VERTEX
  8
1
 10
15.3915
 20
52.9335
 30
0.0000
 42
1.0000
  0
VERTEX
  8
1
 10
14.7415
 20
52.9335
 30
0.0000
  0
SEQEND
  8
0
  0
POLYLINE
  8
1
 66
1
 10
0.0000
 20
0.0000
 30
0.0000
 40
1.3000
 41
1.3000
 70
0
  0
VERTEX
  8
1
 10
11.8100
 20
56.1900
 30
0.0000
  0
VERTEX
  8
1
 10
15.0665
 20
52.9335
 30
0.0000
  0
SEQEND
  8
0
  0
POLYLINE
  8
1
 66
1
 10
0.0000
 20
0.0000
 30
0.0000
 40
0.6500
 41
0.6500
 70
0
  0
VERTEX
  8
1
 10
14.8367
 20
52.7037
 30
0.0000
 42
1.0000
  0
VERTEX
  8
1
 10
15.2963
 20
53.1633
 30
0.0000
  0
SEQEND
  8
0
  0
POLYLINE
  8
1
 66
1
 10
0.0000
 20
0.0000
 30
0.0000
 40
0.6500
 41
0.6500
 70
0
  0
VERTEX
  8
1
 10
12.0398
 20
56.4198
 30
0.0000
 42
1.0000
  0
VERTEX
  8
1
 10
11.5802
 20
55.9602
 30
0.0000
  0
SEQEND
  8
0
  0
POLYLINE
  8
1
 66
1
 10
0.0000
 20
0.0000
 30
0.0000
 40
1.3000
 41
1.3000
 70
0
  0
VERTEX
  8
1
 10
19.1193
 20
20.6076
 30
0.0000
  0
VERTEX
  8
1
 10
19.1193
 20
16.3693
 30
0.0000
  0
SEQEND
  8
0
  0
POLYLINE
  8
1
 66
1
 10
0.0000
 20
0.0000
 30
0.0000
 40
0.6500
 41
0.6500
 70
0
  0
VERTEX
  8
1
 10
18.7943
 20
16.3693
 30
0.0000
 42
1.0000
  0
VERTEX
  8
1
 10
19.4443
 20
16.3693
 30
0.0000
  0
SEQEND
  8
0
  0
POLYLINE
  8
1
 66
1
 10
0.0000
 20
0.0000
 30
0.0000
 40
0.6500
 41
0.6500
 70
0
  0
VERTEX
  8
1
 10
19.4443
 20
20.6076
 30
0.0000
 42
1.0000
  0
VERTEX
  8
1
 10
18.7943
 20
20.6076
 30
0.0000
  0
SEQEND
  8
0
  0
POLYLINE
  8
1
 66
1
 10
0.0000
 20
0.0000
 30
0.0000
 40
1.3000
 41
1.3000
 70
0
  0
VERTEX
  8
1
 10
19.1193
 20
16.3693
 30
0.0000
  0
VERTEX
  8
1
 10
16.5000
 20
13.7500
 30
0.0000
  0
SEQEND
  8
0
  0
POLYLINE
  8
1
 66
1
 10
0.0000
 20
0.0000
 30
0.0000
 40
0.6500
 41
0.6500
 70
0
  0
VERTEX
  8
1
 10
16.2702
 20
13.9798
 30
0.0000
 42
1.0000
  0
VERTEX
  8
1
 10
16.7298
 20
13.5202
 30
0.0000
  0
SEQEND
  8
0
  0
POLYLINE
  8
1
 66
1
 10
0.0000
 20
0.0000
 30
0.0000
 40
0.6500
 41
0.6500
 70
0
  0
VERTEX
  8
1
 10
19.3491
 20
16.1395
 30
0.0000
 42
1.0000
  0
VERTEX
  8
1
 10
18.8895
 20
16.5991
 30
0.0000
  0
SEQEND
  8
0
  0
POLYLINE
  8
1
 66
1
 10
0.0000
 20
0.0000
 30
0.0000
 40
1.3000
 41
1.3000
 70
0
  0
VERTEX
  8
1
 10
16.5000
 20
13.7500
 30
0.0000
  0
VERTEX
  8
1
 10
8.2500
 20
13.7500
 30
0.0000
  0
SEQEND
  8
0
  0
POLYLINE
  8
1
 66
1
 10
0.0000
 20
0.0000
 30
0.0000
 40
0.6500
 41
0.6500
 70
0
  0
VERTEX
  8
1
 10
8.2500
 20
14.0750
 30
0.0000
 42
1.0000
  0
VERTEX
  8
1
 10
8.2500
 20
13.4250
 30
0.0000
  0
SEQEND
  8
0
  0
POLYLINE
  8
1
 66
1
 10
0.0000
 20
0.0000
 30
0.0000
 40
0.6500
 41
0.6500
 70
0
  0
VERTEX
  8
1
 10
16.5000
 20
13.4250
 30
0.0000
 42
1.0000
  0
VERTEX
  8
1
 10
16.5000
 20
14.0750
 30
0.0000
  0
SEQEND
  8
0
  0
POLYLINE
  8
1
 66
1
 10
0.0000
 20
0.0000
 30
0.0000
 40
1.3000
 41
1.3000
 70
0
  0
VERTEX
  8
1
 10
8.2500
 20
13.7500
 30
0.0000
  0
VERTEX
  8
1
 10
4.5000
 20
17.5000
 30
0.0000
  0
SEQEND
  8
0
  0
POLYLINE
  8
1
 66
1
 10
0.0000
 20
0.0000
 30
0.0000
 40
0.6500
 41
0.6500
 70
0
  0
VERTEX
  8
1
 10
4.7298
 20
17.7298
 30
0.0000
 42
1.0000
  0
VERTEX
  8
1
 10
4.2702
 20
17.2702
 30
0.0000
  0
SEQEND
  8
0
  0
POLYLINE
  8
1
 66
1
 10
0.0000
 20
0.0000
 30
0.0000
 40
0.6500
 41
0.6500
 70
0
  0
VERTEX
  8
1
 10
8.0202
 20
13.5202
 30
0.0000
 42
1.0000
  0
VERTEX
  8
1
 10
8.4798
 20
13.9798
 30
0.0000
  0
SEQEND
  8
0
  0
POLYLINE
  8
1
 66
1
 10
0.0000
 20
0.0000
 30
0.0000
 40
1.3000
 41
1.3000
 70
0
  0
VERTEX
  8
1
 10
4.5000
 20
17.5000
 30
0.0000
  0
VERTEX
  8
1
 10
4.5000
 20
41.5000
 30
0.0000
  0
SEQEND
  8
0
  0
POLYLINE
  8
1
 66
1
 10
0.0000
 20
0.0000
 30
0.0000
 40
0.6500
 41
0.6500
 70
0
  0
VERTEX
  8
1
 10
4.8250
 20
41.5000
 30
0.0000
 42
1.0000
  0
VERTEX
  8
1
 10
4.1750
 20
41.5000
 30
0.0000
  0
SEQEND
  8
0
  0
POLYLINE
  8
1
 66
1
 10
0.0000
 20
0.0000
 30
0.0000
 40
0.6500
 41
0.6500
 70
0
  0
VERTEX
  8
1
 10
4.1750
 20
17.5000
 30
0.0000
 42
1.0000
  0
VERTEX
  8
1
 10
4.8250
 20
17.5000
 30
0.0000
  0
SEQEND
  8
0
  0
POLYLINE
  8
1
 66
1
 10
0.0000
 20
0.0000
 30
0.0000
 40
1.3000
 41
1.3000
 70
0
  0
VERTEX
  8
1
 10
7.5000
 20
44.5000
 30
0.0000
  0
VERTEX
  8
1
 10
15.5000
 20
44.5000
 30
0.0000
  0
SEQEND
  8
0
  0
POLYLINE
  8
1
 66
1
 10
0.0000
 20
0.0000
 30
0.0000
 40
0.6500
 41
0.6500
 70
0
  0
VERTEX
  8
1
 10
15.5000
 20
44.1750
 30
0.0000
 42
1.0000
  0
VERTEX
  8
1
 10
15.5000
 20
44.8250
 30
0.0000
  0
SEQEND
  8
0
  0
POLYLINE
  8
1
 66
1
 10
0.0000
 20
0.0000
 30
0.0000
 40
0.6500
 41
0.6500
 70
0
  0
VERTEX
  8
1
 10
7.5000
 20
44.8250
 30
0.0000
 42
1.0000
  0
VERTEX
  8
1
 10
7.5000
 20
44.1750
 30
0.0000
  0
SEQEND
  8
0
  0
POLYLINE
  8
1
 66
1
 10
0.0000
 20
0.0000
 30
0.0000
 40
1.3000
 41
1.3000
 70
0
  0
VERTEX
  8
1
 10
15.5000
 20
44.5000
 30
0.0000
  0
VERTEX
  8
1
 10
17.6065
 20
42.3935
 30
0.0000
  0
SEQEND
  8
0
  0
POLYLINE
  8
1
 66
1
 10
0.0000
 20
0.0000
 30
0.0000
 40
0.6500
 41
0.6500
 70
0
  0
VERTEX
  8
1
 10
17.3767
 20
42.1637
 30
0.0000
 42
1.0000
  0
VERTEX
  8
1
 10
17.8363
 20
42.6233
 30
0.0000
  0
SEQEND
  8
0
  0
POLYLINE
  8
1
 66
1
 10
0.0000
 20
0.0000
 30
0.0000
 40
0.6500
 41
0.6500
 70
0
  0
VERTEX
  8
1
 10
15.7298
 20
44.7298
 30
0.0000
 42
1.0000
  0
VERTEX
  8
1
 10
15.2702
 20
44.2702
 30
0.0000
  0
SEQEND
  8
0
  0
POLYLINE
  8
1
 66
1
 10
0.0000
 20
0.0000
 30
0.0000
 40
1.3000
 41
1.3000
 70
0
  0
VERTEX
  8
1
 10
17.6065
 20
42.3935
 30
0.0000
  0
VERTEX
  8
1
 10
17.6065
 20
34.1967
 30
0.0000
  0
SEQEND
  8
0
  0
POLYLINE
  8
1
 66
1
 10
0.0000
 20
0.0000
 30
0.0000
 40
0.6500
 41
0.6500
 70
0
  0
VERTEX
  8
1
 10
17.2815
 20
34.1967
 30
0.0000
 42
1.0000
  0
VERTEX
  8
1
 10
17.9315
 20
34.1967
 30
0.0000
  0
SEQEND
  8
0
  0
POLYLINE
  8
1
 66
1
 10
0.0000
 20
0.0000
 30
0.0000
 40
0.6500
 41
0.6500
 70
0
  0
VERTEX
  8
1
 10
17.9315
 20
42.3935
 30
0.0000
 42
1.0000
  0
VERTEX
  8
1
 10
17.2815
 20
42.3935
 30
0.0000
  0
SEQEND
  8
0
  0
POLYLINE
  8
1
 66
1
 10
0.0000
 20
0.0000
 30
0.0000
 40
1.3000
 41
1.3000
 70
0
  0
VERTEX
  8
1
 10
4.5000
 20
41.5000
 30
0.0000
  0
VERTEX
  8
1
 10
7.5000
 20
44.5000
 30
0.0000
  0
SEQEND
  8
0
  0
POLYLINE
  8
1
 66
1
 10
0.0000
 20
0.0000
 30
0.0000
 40
0.6500
 41
0.6500
 70
0
  0
VERTEX
  8
1
 10
7.7298
 20
44.2702
 30
0.0000
 42
1.0000
  0
VERTEX
  8
1
 10
7.2702
 20
44.7298
 30
0.0000
  0
SEQEND
  8
0
  0
POLYLINE
  8
1
 66
1
 10
0.0000
 20
0.0000
 30
0.0000
 40
0.6500
 41
0.6500
 70
0
  0
VERTEX
  8
1
 10
4.2702
 20
41.7298
 30
0.0000
 42
1.0000
  0
VERTEX
  8
1
 10
4.7298
 20
41.2702
 30
0.0000
  0
SEQEND
  8
0
  0
POLYLINE
  8
1
 66
1
 10
0.0000
 20
0.0000
 30
0.0000
 40
1.3000
 41
1.3000
 70
0
  0
VERTEX
  8
1
 10
35.3865
 20
34.1967
 30
0.0000
  0
VERTEX
  8
1
 10
35.3865
 20
32.1135
 30
0.0000
  0
SEQEND
  8
0
  0
POLYLINE
  8
1
 66
1
 10
0.0000
 20
0.0000
 30
0.0000
 40
0.6500
 41
0.6500
 70
0
  0
VERTEX
  8
1
 10
35.0615
 20
32.1135
 30
0.0000
 42
1.0000
  0
VERTEX
  8
1
 10
35.7115
 20
32.1135
 30
0.0000
  0
SEQEND
  8
0
  0
POLYLINE
  8
1
 66
1
 10
0.0000
 20
0.0000
 30
0.0000
 40
0.6500
 41
0.6500
 70
0
  0
VERTEX
  8
1
 10
35.7115
 20
34.1967
 30
0.0000
 42
1.0000
  0
VERTEX
  8
1
 10
35.0615
 20
34.1967
 30
0.0000
  0
SEQEND
  8
0
  0
POLYLINE
  8
1
 66
1
 10
0.0000
 20
0.0000
 30
0.0000
 40
1.3000
 41
1.3000
 70
0
  0
VERTEX
  8
1
 10
35.3865
 20
32.1135
 30
0.0000
  0
VERTEX
  8
1
 10
36.0000
 20
31.5000
 30
0.0000
  0
SEQEND
  8
0
  0
POLYLINE
  8
1
 66
1
 10
0.0000
 20
0.0000
 30
0.0000
 40
0.6500
 41
0.6500
 70
0
  0
VERTEX
  8
1
 10
35.7702
 20
31.2702
 30
0.0000
 42
1.0000
  0
VERTEX
  8
1
 10
36.2298
 20
31.7298
 30
0.0000
  0
SEQEND
  8
0
  0
POLYLINE
  8
1
 66
1
 10
0.0000
 20
0.0000
 30
0.0000
 40
0.6500
 41
0.6500
 70
0
  0
VERTEX
  8
1
 10
35.6163
 20
32.3433
 30
0.0000
 42
1.0000
  0
VERTEX
  8
1
 10
35.1567
 20
31.8837
 30
0.0000
  0
SEQEND
  8
0
  0
POLYLINE
  8
1
 66
1
 10
0.0000
 20
0.0000
 30
0.0000
 40
1.3000
 41
1.3000
 70
0
  0
VERTEX
  8
1
 10
36.0000
 20
31.5000
 30
0.0000
  0
VERTEX
  8
1
 10
39.2500
 20
31.5000
 30
0.0000
  0
SEQEND
  8
0
  0
POLYLINE
  8
1
 66
1
 10
0.0000
 20
0.0000
 30
0.0000
 40
0.6500
 41
0.6500
 70
0
  0
VERTEX
  8
1
 10
39.2500
 20
31.1750
 30
0.0000
 42
1.0000
  0
VERTEX
  8
1
 10
39.2500
 20
31.8250
 30
0.0000
  0
SEQEND
  8
0
  0
POLYLINE
  8
1
 66
1
 10
0.0000
 20
0.0000
 30
0.0000
 40
0.6500
 41
0.6500
 70
0
  0
VERTEX
  8
1
 10
36.0000
 20
31.8250
 30
0.0000
 42
1.0000
  0
VERTEX
  8
1
 10
36.0000
 20
31.1750
 30
0.0000
  0
SEQEND
  8
0
  0
POLYLINE
  8
1
 66
1
 10
0.0000
 20
0.0000
 30
0.0000
 40
1.3000
 41
1.3000
 70
0
  0
VERTEX
  8
1
 10
44.2493
 20
42.2493
 30
0.0000
  0
VERTEX
  8
1
 10
40.0000
 20
38.0000
 30
0.0000
  0
SEQEND
  8
0
  0
POLYLINE
  8
1
 66
1
 10
0.0000
 20
0.0000
 30
0.0000
 40
0.6500
 41
0.6500
 70
0
  0
VERTEX
  8
1
 10
39.7702
 20
38.2298
 30
0.0000
 42
1.0000
  0
VERTEX
  8
1
 10
40.2298
 20
37.7702
 30
0.0000
  0
SEQEND
  8
0
  0
POLYLINE
  8
1
 66
1
 10
0.0000
 20
0.0000
 30
0.0000
 40
0.6500
 41
0.6500
 70
0
  0
VERTEX
  8
1
 10
44.4791
 20
42.0195
 30
0.0000
 42
1.0000
  0
VERTEX
  8
1
 10
44.0195
 20
42.4791
 30
0.0000
  0
SEQEND
  8
0
  0
POLYLINE
  8
1
 66
1
 10
0.0000
 20
0.0000
 30
0.0000
 40
1.3000
 41
1.3000
 70
0
  0
VERTEX
  8
1
 10
40.0000
 20
38.0000
 30
0.0000
  0
VERTEX
  8
1
 10
40.0000
 20
32.2500
 30
0.0000
  0
SEQEND
  8
0
  0
POLYLINE
  8
1
 66
1
 10
0.0000
 20
0.0000
 30
0.0000
 40
0.6500
 41
0.6500
 70
0
  0
VERTEX
  8
1
 10
39.6750
 20
32.2500
 30
0.0000
 42
1.0000
  0
VERTEX
  8
1
 10
40.3250
 20
32.2500
 30
0.0000
  0
SEQEND
  8
0
  0
POLYLINE
  8
1
 66
1
 10
0.0000
 20
0.0000
 30
0.0000
 40
0.6500
 41
0.6500
 70
0
  0
VERTEX
  8
1
 10
40.3250
 20
38.0000
 30
0.0000
 42
1.0000
  0
VERTEX
  8
1
 10
39.6750
 20
38.0000
 30
0.0000
  0
SEQEND
  8
0
  0
POLYLINE
  8
1
 66
1
 10
0.0000
 20
0.0000
 30
0.0000
 40
1.3000
 41
1.3000
 70
0
  0
VERTEX
  8
1
 10
40.0000
 20
32.2500
 30
0.0000
  0
VERTEX
  8
1
 10
39.2500
 20
31.5000
 30
0.0000
  0
SEQEND
  8
0
  0
POLYLINE
  8
1
 66
1
 10
0.0000
 20
0.0000
 30
0.0000
 40
0.6500
 41
0.6500
 70
0
  0
VERTEX
  8
1
 10
39.0202
 20
31.7298
 30
0.0000
 42
1.0000
  0
VERTEX
  8
1
 10
39.4798
 20
31.2702
 30
0.0000
  0
SEQEND
  8
0
  0
POLYLINE
  8
1
 66
1
 10
0.0000
 20
0.0000
 30
0.0000
 40
0.6500
 41
0.6500
 70
0
  0
VERTEX
  8
1
 10
40.2298
 20
32.0202
 30
0.0000
 42
1.0000
  0
VERTEX
  8
1
 10
39.7702
 20
32.4798
 30
0.0000
  0
SEQEND
  8
0
  0
POLYLINE
  8
1
 66
1
 10
0.0000
 20
0.0000
 30
0.0000
 40
1.3000
 41
1.3000
 70
0
  0
VERTEX
  8
1
 10
47.6397
 20
42.2700
 30
0.0000
  0
VERTEX
  8
1
 10
47.6190
 20
42.2493
 30
0.0000
  0
SEQEND
  8
0
  0
POLYLINE
  8
1
 66
1
 10
0.0000
 20
0.0000
 30
0.0000
 40
0.6500
 41
0.6500
 70
0
  0
VERTEX
  8
1
 10
47.3892
 20
42.4791
 30
0.0000
 42
1.0000
  0
VERTEX
  8
1
 10
47.8488
 20
42.0195
 30
0.0000
  0
SEQEND
  8
0
  0
POLYLINE
  8
1
 66
1
 10
0.0000
 20
0.0000
 30
0.0000
 40
0.6500
 41
0.6500
 70
0
  0
VERTEX
  8
1
 10
47.8695
 20
42.0402
 30
0.0000
 42
1.0000
  0
VERTEX
  8
1
 10
47.4099
 20
42.4998
 30
0.0000
  0
SEQEND
  8
0
  0
POLYLINE
  8
1
 66
1
 10
0.0000
 20
0.0000
 30
0.0000
 40
1.3000
 41
1.3000
 70
0
  0
VERTEX
  8
1
 10
47.6190
 20
42.2493
 30
0.0000
  0
VERTEX
  8
1
 10
44.2493
 20
42.2493
 30
0.0000
  0
SEQEND
  8
0
  0
POLYLINE
  8
1
 66
1
 10
0.0000
 20
0.0000
 30
0.0000
 40
0.6500
 41
0.6500
 70
0
  0
VERTEX
  8
1
 10
44.2493
 20
42.5743
 30
0.0000
 42
1.0000
  0
VERTEX
  8
1
 10
44.2493
 20
41.9243
 30
0.0000
  0
SEQEND
  8
0
  0
POLYLINE
  8
1
 66
1
 10
0.0000
 20
0.0000
 30
0.0000
 40
0.6500
 41
0.6500
 70
0
  0
VERTEX
  8
1
 10
47.6190
 20
41.9243
 30
0.0000
 42
1.0000
  0
VERTEX
  8
1
 10
47.6190
 20
42.5743
 30
0.0000
  0
SEQEND
  8
0
  0
POLYLINE
  8
1
 66
1
 10
0.0000
 20
0.0000
 30
0.0000
 40
1.3000
 41
1.3000
 70
0
  0
VERTEX
  8
1
 10
50.0000
 20
58.7300
 30
0.0000
  0
VERTEX
  8
1
 10
52.5200
 20
58.7300
 30
0.0000
  0
SEQEND
  8
0
  0
POLYLINE
  8
1
 66
1
 10
0.0000
 20
0.0000
 30
0.0000
 40
0.6500
 41
0.6500
 70
0
  0
VERTEX
  8
1
 10
52.5200
 20
58.4050
 30
0.0000
 42
1.0000
  0
VERTEX
  8
1
 10
52.5200
 20
59.0550
 30
0.0000
  0
SEQEND
  8
0
  0
POLYLINE
  8
1
 66
1
 10
0.0000
 20
0.0000
 30
0.0000
 40
0.6500
 41
0.6500
 70
0
  0
VERTEX
  8
1
 10
50.0000
 20
59.0550
 30
0.0000
 42
1.0000
  0
VERTEX
  8
1
 10
50.0000
 20
58.4050
 30
0.0000
  0
SEQEND
  8
0
  0
POLYLINE
  8
1
 66
1
 10
0.0000
 20
0.0000
 30
0.0000
 40
1.3000
 41
1.3000
 70
0
  0
VERTEX
  8
1
 10
52.5200
 20
58.7300
 30
0.0000
  0
VERTEX
  8
1
 10
53.0000
 20
58.2500
 30
0.0000
  0
SEQEND
  8
0
  0
POLYLINE
  8
1
 66
1
 10
0.0000
 20
0.0000
 30
0.0000
 40
0.6500
 41
0.6500
 70
0
  0
VERTEX
  8
1
 10
52.7702
 20
58.0202
 30
0.0000
 42
1.0000
  0
VERTEX
  8
1
 10
53.2298
 20
58.4798
 30
0.0000
  0
SEQEND
  8
0
  0
POLYLINE
  8
1
 66
1
 10
0.0000
 20
0.0000
 30
0.0000
 40
0.6500
 41
0.6500
 70
0
  0
VERTEX
  8
1
 10
52.7498
 20
58.9598
 30
0.0000
 42
1.0000
  0
VERTEX
  8
1
 10
52.2902
 20
58.5002
 30
0.0000
  0
SEQEND
  8
0
  0
POLYLINE
  8
1
 66
1
 10
0.0000
 20
0.0000
 30
0.0000
 40
1.3000
 41
1.3000
 70
0
  0
VERTEX
  8
1
 10
53.0000
 20
58.2500
 30
0.0000
  0
VERTEX
  8
1
 10
53.0000
 20
55.2500
 30
0.0000
  0
SEQEND
  8
0
  0
POLYLINE
  8
1
 66
1
 10
0.0000
 20
0.0000
 30
0.0000
 40
0.6500
 41
0.6500
 70
0
  0
VERTEX
  8
1
 10
52.6750
 20
55.2500
 30
0.0000
 42
1.0000
  0
VERTEX
  8
1
 10
53.3250
 20
55.2500
 30
0.0000
  0
SEQEND
  8
0
  0
POLYLINE
  8
1
 66
1
 10
0.0000
 20
0.0000
 30
0.0000
 40
0.6500
 41
0.6500
 70
0
  0
VERTEX
  8
1
 10
53.3250
 20
58.2500
 30
0.0000
 42
1.0000
  0
VERTEX
  8
1
 10
52.6750
 20
58.2500
 30
0.0000
  0
SEQEND
  8
0
  0
POLYLINE
  8
1
 66
1
 10
0.0000
 20
0.0000
 30
0.0000
 40
1.3000
 41
1.3000
 70
0
  0
VERTEX
  8
1
 10
43.1867
 20
49.4367
 30
0.0000
  0
VERTEX
  8
1
 10
37.9265
 20
49.4367
 30
0.0000
  0
SEQEND
  8
0
  0
POLYLINE
  8
1
 66
1
 10
0.0000
 20
0.0000
 30
0.0000
 40
0.6500
 41
0.6500
 70
0
  0
VERTEX
  8
1
 10
37.9265
 20
49.7617
 30
0.0000
 42
1.0000
  0
VERTEX
  8
1
 10
37.9265
 20
49.1117
 30
0.0000
  0
SEQEND
  8
0
  0
POLYLINE
  8
1
 66
1
 10
0.0000
 20
0.0000
 30
0.0000
 40
0.6500
 41
0.6500
 70
0
  0
VERTEX
  8
1
 10
43.1867
 20
49.1117
 30
0.0000
 42
1.0000
  0
VERTEX
  8
1
 10
43.1867
 20
49.7617
 30
0.0000
  0
SEQEND
  8
0
  0
POLYLINE
  8
1
 66
1
 10
0.0000
 20
0.0000
 30
0.0000
 40
1.3000
 41
1.3000
 70
0
  0
VERTEX
  8
1
 10
53.0000
 20
55.2500
 30
0.0000
  0
VERTEX
  8
1
 10
51.5000
 20
53.7500
 30
0.0000
  0
SEQEND
  8
0
  0
POLYLINE
  8
1
 66
1
 10
0.0000
 20
0.0000
 30
0.0000
 40
0.6500
 41
0.6500
 70
0
  0
VERTEX
  8
1
 10
51.2702
 20
53.9798
 30
0.0000
 42
1.0000
  0
VERTEX
  8
1
 10
51.7298
 20
53.5202
 30
0.0000
  0
SEQEND
  8
0
  0
POLYLINE
  8
1
 66
1
 10
0.0000
 20
0.0000
 30
0.0000
 40
0.6500
 41
0.6500
 70
0
  0
VERTEX
  8
1
 10
53.2298
 20
55.0202
 30
0.0000
 42
1.0000
  0
VERTEX
  8
1
 10
52.7702
 20
55.4798
 30
0.0000
  0
SEQEND
  8
0
  0
POLYLINE
  8
1
 66
1
 10
0.0000
 20
0.0000
 30
0.0000
 40
1.3000
 41
1.3000
 70
0
  0
VERTEX
  8
1
 10
51.5000
 20
53.7500
 30
0.0000
  0
VERTEX
  8
1
 10
47.5000
 20
53.7500
 30
0.0000
  0
SEQEND
  8
0
  0
POLYLINE
  8
1
 66
1
 10
0.0000
 20
0.0000
 30
0.0000
 40
0.6500
 41
0.6500
 70
0
  0
VERTEX
  8
1
 10
47.5000
 20
54.0750
 30
0.0000
 42
1.0000
  0
VERTEX
  8
1
 10
47.5000
 20
53.4250
 30
0.0000
  0
SEQEND
  8
0
  0
POLYLINE
  8
1
 66
1
 10
0.0000
 20
0.0000
 30
0.0000
 40
0.6500
 41
0.6500
 70
0
  0
VERTEX
  8
1
 10
51.5000
 20
53.4250
 30
0.0000
 42
1.0000
  0
VERTEX
  8
1
 10
51.5000
 20
54.0750
 30
0.0000
  0
SEQEND
  8
0
  0
POLYLINE
  8
1
 66
1
 10
0.0000
 20
0.0000
 30
0.0000
 40
1.3000
 41
1.3000
 70
0
  0
VERTEX
  8
1
 10
47.5000
 20
53.7500
 30
0.0000
  0
VERTEX
  8
1
 10
43.1867
 20
49.4367
 30
0.0000
  0
SEQEND
  8
0
  0
POLYLINE
  8
1
 66
1
 10
0.0000
 20
0.0000
 30
0.0000
 40
0.6500
 41
0.6500
 70
0
  0
VERTEX
  8
1
 10
42.9569
 20
49.6665
 30
0.0000
 42
1.0000
  0
VERTEX
  8
1
 10
43.4165
 20
49.2069
 30
0.0000
  0
SEQEND
  8
0
  0
POLYLINE
  8
1
 66
1
 10
0.0000
 20
0.0000
 30
0.0000
 40
0.6500
 41
0.6500
 70
0
  0
VERTEX
  8
1
 10
47.7298
 20
53.5202
 30
0.0000
 42
1.0000
  0
VERTEX
  8
1
 10
47.2702
 20
53.9798
 30
0.0000
  0
SEQEND
  8
0
  0
POLYLINE
  8
1
 66
1
 10
0.0000
 20
0.0000
 30
0.0000
 40
1.3000
 41
1.3000
 70
0
  0
VERTEX
  8
1
 10
40.0000
 20
58.7300
 30
0.0000
  0
VERTEX
  8
1
 10
42.0200
 20
58.7300
 30
0.0000
  0
SEQEND
  8
0
  0
POLYLINE
  8
1
 66
1
 10
0.0000
 20
0.0000
 30
0.0000
 40
0.6500
 41
0.6500
 70
0
  0
VERTEX
  8
1
 10
42.0200
 20
58.4050
 30
0.0000
 42
1.0000
  0
VERTEX
  8
1
 10
42.0200
 20
59.0550
 30
0.0000
  0
SEQEND
  8
0
  0
POLYLINE
  8
1
 66
1
 10
0.0000
 20
0.0000
 30
0.0000
 40
0.6500
 41
0.6500
 70
0
  0
VERTEX
  8
1
 10
40.0000
 20
59.0550
 30
0.0000
 42
1.0000
  0
VERTEX
  8
1
 10
40.0000
 20
58.4050
 30
0.0000
  0
SEQEND
  8
0
  0
POLYLINE
  8
1
 66
1
 10
0.0000
 20
0.0000
 30
0.0000
 40
1.3000
 41
1.3000
 70
0
  0
VERTEX
  8
1
 10
42.0200
 20
58.7300
 30
0.0000
  0
VERTEX
  8
1
 10
42.7500
 20
58.0000
 30
0.0000
  0
SEQEND
  8
0
  0
POLYLINE
  8
1
 66
1
 10
0.0000
 20
0.0000
 30
0.0000
 40
0.6500
 41
0.6500
 70
0
  0
VERTEX
  8
1
 10
42.5202
 20
57.7702
 30
0.0000
 42
1.0000
  0
VERTEX
  8
1
 10
42.9798
 20
58.2298
 30
0.0000
  0
SEQEND
  8
0
  0
POLYLINE
  8
1
 66
1
 10
0.0000
 20
0.0000
 30
0.0000
 40
0.6500
 41
0.6500
 70
0
  0
VERTEX
  8
1
 10
42.2498
 20
58.9598
 30
0.0000
 42
1.0000
  0
VERTEX
  8
1
 10
41.7902
 20
58.5002
 30
0.0000
  0
SEQEND
  8
0
  0
POLYLINE
  8
1
 66
1
 10
0.0000
 20
0.0000
 30
0.0000
 40
1.3000
 41
1.3000
 70
0
  0
VERTEX
  8
1
 10
42.7500
 20
58.0000
 30
0.0000
  0
VERTEX
  8
1
 10
42.7500
 20
55.5000
 30
0.0000
  0
SEQEND
  8
0
  0
POLYLINE
  8
1
 66
1
 10
0.0000
 20
0.0000
 30
0.0000
 40
0.6500
 41
0.6500
 70
0
  0
VERTEX
  8
1
 10
42.4250
 20
55.5000
 30
0.0000
 42
1.0000
  0
VERTEX
  8
1
 10
43.0750
 20
55.5000
 30
0.0000
  0
SEQEND
  8
0
  0
POLYLINE
  8
1
 66
1
 10
0.0000
 20
0.0000
 30
0.0000
 40
0.6500
 41
0.6500
 70
0
  0
VERTEX
  8
1
 10
43.0750
 20
58.0000
 30
0.0000
 42
1.0000
  0
VERTEX
  8
1
 10
42.4250
 20
58.0000
 30
0.0000
  0
SEQEND
  8
0
  0
POLYLINE
  8
1
 66
1
 10
0.0000
 20
0.0000
 30
0.0000
 40
1.3000
 41
1.3000
 70
0
  0
VERTEX
  8
1
 10
42.7500
 20
55.5000
 30
0.0000
  0
VERTEX
  8
1
 10
40.7500
 20
53.5000
 30
0.0000
  0
SEQEND
  8
0
  0
POLYLINE
  8
1
 66
1
 10
0.0000
 20
0.0000
 30
0.0000
 40
0.6500
 41
0.6500
 70
0
  0
VERTEX
  8
1
 10
40.5202
 20
53.7298
 30
0.0000
 42
1.0000
  0
VERTEX
  8
1
 10
40.9798
 20
53.2702
 30
0.0000
  0
SEQEND
  8
0
  0
POLYLINE
  8
1
 66
1
 10
0.0000
 20
0.0000
 30
0.0000
 40
0.6500
 41
0.6500
 70
0
  0
VERTEX
  8
1
 10
42.9798
 20
55.2702
 30
0.0000
 42
1.0000
  0
VERTEX
  8
1
 10
42.5202
 20
55.7298
 30
0.0000
  0
SEQEND
  8
0
  0
POLYLINE
  8
1
 66
1
 10
0.0000
 20
0.0000
 30
0.0000
 40
1.3000
 41
1.3000
 70
0
  0
VERTEX
  8
1
 10
40.7500
 20
53.5000
 30
0.0000
  0
VERTEX
  8
1
 10
36.5000
 20
53.5000
 30
0.0000
  0
SEQEND
  8
0
  0
POLYLINE
  8
1
 66
1
 10
0.0000
 20
0.0000
 30
0.0000
 40
0.6500
 41
0.6500
 70
0
  0
VERTEX
  8
1
 10
36.5000
 20
53.8250
 30
0.0000
 42
1.0000
  0
VERTEX
  8
1
 10
36.5000
 20
53.1750
 30
0.0000
  0
SEQEND
  8
0
  0
POLYLINE
  8
1
 66
1
 10
0.0000
 20
0.0000
 30
0.0000
 40
0.6500
 41
0.6500
 70
0
  0
VERTEX
  8
1
 10
40.7500
 20
53.1750
 30
0.0000
 42
1.0000
  0
VERTEX
  8
1
 10
40.7500
 20
53.8250
 30
0.0000
  0
SEQEND
  8
0
  0
POLYLINE
  8
1
 66
1
 10
0.0000
 20
0.0000
 30
0.0000
 40
1.3000
 41
1.3000
 70
0
  0
VERTEX
  8
1
 10
36.5000
 20
53.5000
 30
0.0000
  0
VERTEX
  8
1
 10
32.8465
 20
49.8465
 30
0.0000
  0
SEQEND
  8
0
  0
POLYLINE
  8
1
 66
1
 10
0.0000
 20
0.0000
 30
0.0000
 40
0.6500
 41
0.6500
 70
0
  0
VERTEX
  8
1
 10
32.6167
 20
50.0763
 30
0.0000
 42
1.0000
  0
VERTEX
  8
1
 10
33.0763
 20
49.6167
 30
0.0000
  0
SEQEND
  8
0
  0
POLYLINE
  8
1
 66
1
 10
0.0000
 20
0.0000
 30
0.0000
 40
0.6500
 41
0.6500
 70
0
  0
VERTEX
  8
1
 10
36.7298
 20
53.2702
 30
0.0000
 42
1.0000
  0
VERTEX
  8
1
 10
36.2702
 20
53.7298
 30
0.0000
  0
SEQEND
  8
0
  0
POLYLINE
  8
1
 66
1
 10
0.0000
 20
0.0000
 30
0.0000
 40
1.3000
 41
1.3000
 70
0
  0
VERTEX
  8
1
 10
32.8465
 20
49.8465
 30
0.0000
  0
VERTEX
  8
1
 10
32.8465
 20
49.4367
 30
0.0000
  0
SEQEND
  8
0
  0
POLYLINE
  8
1
 66
1
 10
0.0000
 20
0.0000
 30
0.0000
 40
0.6500
 41
0.6500
 70
0
  0
VERTEX
  8
1
 10
32.5215
 20
49.4367
 30
0.0000
 42
1.0000
  0
VERTEX
  8
1
 10
33.1715
 20
49.4367
 30
0.0000
  0
SEQEND
  8
0
  0
POLYLINE
  8
1
 66
1
 10
0.0000
 20
0.0000
 30
0.0000
 40
0.6500
 41
0.6500
 70
0
  0
VERTEX
  8
1
 10
33.1715
 20
49.8465
 30
0.0000
 42
1.0000
  0
VERTEX
  8
1
 10
32.5215
 20
49.8465
 30
0.0000
  0
SEQEND
  8
0
  0
POLYLINE
  8
1
 66
1
 10
0.0000
 20
0.0000
 30
0.0000
 40
1.3000
 41
1.3000
 70
0
  0
VERTEX
  8
1
 10
30.0000
 20
58.7300
 30
0.0000
  0
VERTEX
  8
1
 10
31.7700
 20
58.7300
 30
0.0000
  0
SEQEND
  8
0
  0
POLYLINE
  8
1
 66
1
 10
0.0000
 20
0.0000
 30
0.0000
 40
0.6500
 41
0.6500
 70
0
  0
VERTEX
  8
1
 10
31.7700
 20
58.4050
 30
0.0000
 42
1.0000
  0
VERTEX
  8
1
 10
31.7700
 20
59.0550
 30
0.0000
  0
SEQEND
  8
0
  0
POLYLINE
  8
1
 66
1
 10
0.0000
 20
0.0000
 30
0.0000
 40
0.6500
 41
0.6500
 70
0
  0
VERTEX
  8
1
 10
30.0000
 20
59.0550
 30
0.0000
 42
1.0000
  0
VERTEX
  8
1
 10
30.0000
 20
58.4050
 30
0.0000
  0
SEQEND
  8
0
  0
POLYLINE
  8
1
 66
1
 10
0.0000
 20
0.0000
 30
0.0000
 40
1.3000
 41
1.3000
 70
0
  0
VERTEX
  8
1
 10
31.7700
 20
58.7300
 30
0.0000
  0
VERTEX
  8
1
 10
32.8750
 20
58.1040
 30
0.0000
  0
SEQEND
  8
0
  0
POLYLINE
  8
1
 66
1
 10
0.0000
 20
0.0000
 30
0.0000
 40
0.6500
 41
0.6500
 70
0
  0
VERTEX
  8
1
 10
32.7148
 20
57.8213
 30
0.0000
 42
1.0000
  0
VERTEX
  8
1
 10
33.0352
 20
58.3868
 30
0.0000
  0
SEQEND
  8
0
  0
POLYLINE
  8
1
 66
1
 10
0.0000
 20
0.0000
 30
0.0000
 40
0.6500
 41
0.6500
 70
0
  0
VERTEX
  8
1
 10
31.9302
 20
59.0128
 30
0.0000
 42
1.0000
  0
VERTEX
  8
1
 10
31.6098
 20
58.4472
 30
0.0000
  0
SEQEND
  8
0
  0
POLYLINE
  8
1
 66
1
 10
0.0000
 20
0.0000
 30
0.0000
 40
1.3000
 41
1.3000
 70
0
  0
VERTEX
  8
1
 10
32.8750
 20
58.1040
 30
0.0000
  0
VERTEX
  8
1
 10
32.8750
 20
55.7888
 30
0.0000
  0
SEQEND
  8
0
  0
POLYLINE
  8
1
 66
1
 10
0.0000
 20
0.0000
 30
0.0000
 40
0.6500
 41
0.6500
 70
0
  0
VERTEX
  8
1
 10
32.5500
 20
55.7888
 30
0.0000
 42
1.0000
  0
VERTEX
  8
1
 10
33.2000
 20
55.7888
 30
0.0000
  0
SEQEND
  8
0
  0
POLYLINE
  8
1
 66
1
 10
0.0000
 20
0.0000
 30
0.0000
 40
0.6500
 41
0.6500
 70
0
  0
VERTEX
  8
1
 10
33.2000
 20
58.1040
 30
0.0000
 42
1.0000
  0
VERTEX
  8
1
 10
32.5500
 20
58.1040
 30
0.0000
  0
SEQEND
  8
0
  0
POLYLINE
  8
1
 66
1
 10
0.0000
 20
0.0000
 30
0.0000
 40
1.3000
 41
1.3000
 70
0
  0
VERTEX
  8
1
 10
32.8750
 20
55.7888
 30
0.0000
  0
VERTEX
  8
1
 10
31.4598
 20
54.2500
 30
0.0000
  0
SEQEND
  8
0
  0
POLYLINE
  8
1
 66
1
 10
0.0000
 20
0.0000
 30
0.0000
 40
0.6500
 41
0.6500
 70
0
  0
VERTEX
  8
1
 10
31.2206
 20
54.4700
 30
0.0000
 42
1.0000
  0
VERTEX
  8
1
 10
31.6990
 20
54.0300
 30
0.0000
  0
SEQEND
  8
0
  0
POLYLINE
  8
1
 66
1
 10
0.0000
 20
0.0000
 30
0.0000
 40
0.6500
 41
0.6500
 70
0
  0
VERTEX
  8
1
 10
33.1142
 20
55.5688
 30
0.0000
 42
1.0000
  0
VERTEX
  8
1
 10
32.6358
 20
56.0088
 30
0.0000
  0
SEQEND
  8
0
  0
POLYLINE
  8
1
 66
1
 10
0.0000
 20
0.0000
 30
0.0000
 40
1.3000
 41
1.3000
 70
0
  0
VERTEX
  8
1
 10
31.4598
 20
54.2500
 30
0.0000
  0
VERTEX
  8
1
 10
29.5000
 20
54.2500
 30
0.0000
  0
SEQEND
  8
0
  0
POLYLINE
  8
1
 66
1
 10
0.0000
 20
0.0000
 30
0.0000
 40
0.6500
 41
0.6500
 70
0
  0
VERTEX
  8
1
 10
29.5000
 20
54.5750
 30
0.0000
 42
1.0000
  0
VERTEX
  8
1
 10
29.5000
 20
53.9250
 30
0.0000
  0
SEQEND
  8
0
  0
POLYLINE
  8
1
 66
1
 10
0.0000
 20
0.0000
 30
0.0000
 40
0.6500
 41
0.6500
 70
0
  0
VERTEX
  8
1
 10
31.4598
 20
53.9250
 30
0.0000
 42
1.0000
  0
VERTEX
  8
1
 10
31.4598
 20
54.5750
 30
0.0000
  0
SEQEND
  8
0
  0
POLYLINE
  8
1
 66
1
 10
0.0000
 20
0.0000
 30
0.0000
 40
1.3000
 41
1.3000
 70
0
  0
VERTEX
  8
1
 10
29.5000
 20
54.2500
 30
0.0000
  0
VERTEX
  8
1
 10
27.7665
 20
52.5165
 30
0.0000
  0
SEQEND
  8
0
  0
POLYLINE
  8
1
 66
1
 10
0.0000
 20
0.0000
 30
0.0000
 40
0.6500
 41
0.6500
 70
0
  0
VERTEX
  8
1
 10
27.5367
 20
52.7463
 30
0.0000
 42
1.0000
  0
VERTEX
  8
1
 10
27.9963
 20
52.2867
 30
0.0000
  0
SEQEND
  8
0
  0
POLYLINE
  8
1
 66
1
 10
0.0000
 20
0.0000
 30
0.0000
 40
0.6500
 41
0.6500
 70
0
  0
VERTEX
  8
1
 10
29.7298
 20
54.0202
 30
0.0000
 42
1.0000
  0
VERTEX
  8
1
 10
29.2702
 20
54.4798
 30
0.0000
  0
SEQEND
  8
0
  0
POLYLINE
  8
1
 66
1
 10
0.0000
 20
0.0000
 30
0.0000
 40
1.3000
 41
1.3000
 70
0
  0
VERTEX
  8
1
 10
27.7665
 20
52.5165
 30
0.0000
  0
VERTEX
  8
1
 10
27.7665
 20
49.4367
 30
0.0000
  0
SEQEND
  8
0
  0
POLYLINE
  8
1
 66
1
 10
0.0000
 20
0.0000
 30
0.0000
 40
0.6500
 41
0.6500
 70
0
  0
VERTEX
  8
1
 10
27.4415
 20
49.4367
 30
0.0000
 42
1.0000
  0
VERTEX
  8
1
 10
28.0915
 20
49.4367
 30
0.0000
  0
SEQEND
  8
0
  0
POLYLINE
  8
1
 66
1
 10
0.0000
 20
0.0000
 30
0.0000
 40
0.6500
 41
0.6500
 70
0
  0
VERTEX
  8
1
 10
28.0915
 20
52.5165
 30
0.0000
 42
1.0000
  0
VERTEX
  8
1
 10
27.4415
 20
52.5165
 30
0.0000
  0
SEQEND
  8
0
  0
POLYLINE
  8
1
 66
1
 10
0.0000
 20
0.0000
 30
0.0000
 40
1.3000
 41
1.3000
 70
0
  0
VERTEX
  8
1
 10
20.0000
 20
58.7300
 30
0.0000
  0
VERTEX
  8
1
 10
21.7700
 20
58.7300
 30
0.0000
  0
SEQEND
  8
0
  0
POLYLINE
  8
1
 66
1
 10
0.0000
 20
0.0000
 30
0.0000
 40
0.6500
 41
0.6500
 70
0
  0
VERTEX
  8
1
 10
21.7700
 20
58.4050
 30
0.0000
 42
1.0000
  0
VERTEX
  8
1
 10
21.7700
 20
59.0550
 30
0.0000
  0
SEQEND
  8
0
  0
POLYLINE
  8
1
 66
1
 10
0.0000
 20
0.0000
 30
0.0000
 40
0.6500
 41
0.6500
 70
0
  0
VERTEX
  8
1
 10
20.0000
 20
59.0550
 30
0.0000
 42
1.0000
  0
VERTEX
  8
1
 10
20.0000
 20
58.4050
 30
0.0000
  0
SEQEND
  8
0
  0
POLYLINE
  8
1
 66
1
 10
0.0000
 20
0.0000
 30
0.0000
 40
1.3000
 41
1.3000
 70
0
  0
VERTEX
  8
1
 10
21.7700
 20
58.7300
 30
0.0000
  0
VERTEX
  8
1
 10
22.7500
 20
57.7500
 30
0.0000
  0
SEQEND
  8
0
  0
POLYLINE
  8
1
 66
1
 10
0.0000
 20
0.0000
 30
0.0000
 40
0.6500
 41
0.6500
 70
0
  0
VERTEX
  8
1
 10
22.5202
 20
57.5202
 30
0.0000
 42
1.0000
  0
VERTEX
  8
1
 10
22.9798
 20
57.9798
 30
0.0000
  0
SEQEND
  8
0
  0
POLYLINE
  8
1
 66
1
 10
0.0000
 20
0.0000
 30
0.0000
 40
0.6500
 41
0.6500
 70
0
  0
VERTEX
  8
1
 10
21.9998
 20
58.9598
 30
0.0000
 42
1.0000
  0
VERTEX
  8
1
 10
21.5402
 20
58.5002
 30
0.0000
  0
SEQEND
  8
0
  0
POLYLINE
  8
1
 66
1
 10
0.0000
 20
0.0000
 30
0.0000
 40
1.3000
 41
1.3000
 70
0
  0
VERTEX
  8
1
 10
22.7500
 20
57.7500
 30
0.0000
  0
VERTEX
  8
1
 10
22.7500
 20
49.5002
 30
0.0000
  0
SEQEND
  8
0
  0
POLYLINE
  8
1
 66
1
 10
0.0000
 20
0.0000
 30
0.0000
 40
0.6500
 41
0.6500
 70
0
  0
VERTEX
  8
1
 10
22.4250
 20
49.5002
 30
0.0000
 42
1.0000
  0
VERTEX
  8
1
 10
23.0750
 20
49.5002
 30
0.0000
  0
SEQEND
  8
0
  0
POLYLINE
  8
1
 66
1
 10
0.0000
 20
0.0000
 30
0.0000
 40
0.6500
 41
0.6500
 70
0
  0
VERTEX
  8
1
 10
23.0750
 20
57.7500
 30
0.0000
 42
1.0000
  0
VERTEX
  8
1
 10
22.4250
 20
57.7500
 30
0.0000
  0
SEQEND
  8
0
  0
POLYLINE
  8
1
 66
1
 10
0.0000
 20
0.0000
 30
0.0000
 40
1.3000
 41
1.3000
 70
0
  0
VERTEX
  8
1
 10
22.7500
 20
49.5002
 30
0.0000
  0
VERTEX
  8
1
 10
22.6865
 20
49.4367
 30
0.0000
  0
SEQEND
  8
0
  0
POLYLINE
  8
1
 66
1
 10
0.0000
 20
0.0000
 30
0.0000
 40
0.6500
 41
0.6500
 70
0
  0
VERTEX
  8
1
 10
22.4567
 20
49.6665
 30
0.0000
 42
1.0000
  0
VERTEX
  8
1
 10
22.9163
 20
49.2069
 30
0.0000
  0
SEQEND
  8
0
  0
POLYLINE
  8
1
 66
1
 10
0.0000
 20
0.0000
 30
0.0000
 40
0.6500
 41
0.6500
 70
0
  0
VERTEX
  8
1
 10
22.9798
 20
49.2704
 30
0.0000
 42
1.0000
  0
VERTEX
  8
1
 10
22.5202
 20
49.7300
 30
0.0000
  0
SEQEND
  8
0
  0
POLYLINE
  8
1
 66
1
 10
0.0000
 20
0.0000
 30
0.0000
 40
1.3000
 41
1.3000
 70
0
  0
VERTEX
  8
1
 10
10.0000
 20
58.7300
 30
0.0000
  0
VERTEX
  8
1
 10
12.5200
 20
58.7300
 30
0.0000
  0
SEQEND
  8
0
  0
POLYLINE
  8
1
 66
1
 10
0.0000
 20
0.0000
 30
0.0000
 40
0.6500
 41
0.6500
 70
0
  0
VERTEX
  8
1
 10
12.5200
 20
58.4050
 30
0.0000
 42
1.0000
  0
VERTEX
  8
1
 10
12.5200
 20
59.0550
 30
0.0000
  0
SEQEND
  8
0
  0
POLYLINE
  8
1
 66
1
 10
0.0000
 20
0.0000
 30
0.0000
 40
0.6500
 41
0.6500
 70
0
  0
VERTEX
  8
1
 10
10.0000
 20
59.0550
 30
0.0000
 42
1.0000
  0
VERTEX
  8
1
 10
10.0000
 20
58.4050
 30
0.0000
  0
SEQEND
  8
0
  0
POLYLINE
  8
1
 66
1
 10
0.0000
 20
0.0000
 30
0.0000
 40
1.3000
 41
1.3000
 70
0
  0
VERTEX
  8
1
 10
17.6065
 20
53.6435
 30
0.0000
  0
VERTEX
  8
1
 10
17.6065
 20
49.4367
 30
0.0000
  0
SEQEND
  8
0
  0
POLYLINE
  8
1
 66
1
 10
0.0000
 20
0.0000
 30
0.0000
 40
0.6500
 41
0.6500
 70
0
  0
VERTEX
  8
1
 10
17.2815
 20
49.4367
 30
0.0000
 42
1.0000
  0
VERTEX
  8
1
 10
17.9315
 20
49.4367
 30
0.0000
  0
SEQEND
  8
0
  0
POLYLINE
  8
1
 66
1
 10
0.0000
 20
0.0000
 30
0.0000
 40
0.6500
 41
0.6500
 70
0
  0
VERTEX
  8
1
 10
17.9315
 20
53.6435
 30
0.0000
 42
1.0000
  0
VERTEX
  8
1
 10
17.2815
 20
53.6435
 30
0.0000
  0
SEQEND
  8
0
  0
POLYLINE
  8
1
 66
1
 10
0.0000
 20
0.0000
 30
0.0000
 40
1.3000
 41
1.3000
 70
0
  0
VERTEX
  8
1
 10
12.5200
 20
58.7300
 30
0.0000
  0
VERTEX
  8
1
 10
17.6065
 20
53.6435
 30
0.0000
  0
SEQEND
  8
0
  0
POLYLINE
  8
1
 66
1
 10
0.0000
 20
0.0000
 30
0.0000
 40
0.6500
 41
0.6500
 70
0
  0
VERTEX
  8
1
 10
17.3767
 20
53.4137
 30
0.0000
 42
1.0000
  0
VERTEX
  8
1
 10
17.8363
 20
53.8733
 30
0.0000
  0
SEQEND
  8
0
  0
POLYLINE
  8
1
 66
1
 10
0.0000
 20
0.0000
 30
0.0000
 40
0.6500
 41
0.6500
 70
0
  0
VERTEX
  8
1
 10
12.7498
 20
58.9598
 30
0.0000
 42
1.0000
  0
VERTEX
  8
1
 10
12.2902
 20
58.5002
 30
0.0000
  0
SEQEND
  8
0
  0
POLYLINE
  8
1
 66
1
 10
0.0000
 20
0.0000
 30
0.0000
 40
1.3000
 41
1.3000
 70
0
  0
VERTEX
  8
1
 10
16.5793
 20
20.6076
 30
0.0000
  0
VERTEX
  8
1
 10
16.5793
 20
17.8293
 30
0.0000
  0
SEQEND
  8
0
  0
POLYLINE
  8
1
 66
1
 10
0.0000
 20
0.0000
 30
0.0000
 40
0.6500
 41
0.6500
 70
0
  0
VERTEX
  8
1
 10
16.2543
 20
17.8293
 30
0.0000
 42
1.0000
  0
VERTEX
  8
1
 10
16.9043
 20
17.8293
 30
0.0000
  0
SEQEND
  8
0
  0
POLYLINE
  8
1
 66
1
 10
0.0000
 20
0.0000
 30
0.0000
 40
0.6500
 41
0.6500
 70
0
  0
VERTEX
  8
1
 10
16.9043
 20
20.6076
 30
0.0000
 42
1.0000
  0
VERTEX
  8
1
 10
16.2543
 20
20.6076
 30
0.0000
  0
SEQEND
  8
0
  0
POLYLINE
  8
1
 66
1
 10
0.0000
 20
0.0000
 30
0.0000
 40
1.3000
 41
1.3000
 70
0
  0
VERTEX
  8
1
 10
16.5793
 20
17.8293
 30
0.0000
  0
VERTEX
  8
1
 10
15.5000
 20
16.7500
 30
0.0000
  0
SEQEND
  8
0
  0
POLYLINE
  8
1
 66
1
 10
0.0000
 20
0.0000
 30
0.0000
 40
0.6500
 41
0.6500
 70
0
  0
VERTEX
  8
1
 10
15.2702
 20
16.9798
 30
0.0000
 42
1.0000
  0
VERTEX
  8
1
 10
15.7298
 20
16.5202
 30
0.0000
  0
SEQEND
  8
0
  0
POLYLINE
  8
1
 66
1
 10
0.0000
 20
0.0000
 30
0.0000
 40
0.6500
 41
0.6500
 70
0
  0
VERTEX
  8
1
 10
16.8091
 20
17.5995
 30
0.0000
 42
1.0000
  0
VERTEX
  8
1
 10
16.3495
 20
18.0591
 30
0.0000
  0
SEQEND
  8
0
  0
POLYLINE
  8
1
 66
1
 10
0.0000
 20
0.0000
 30
0.0000
 40
1.3000
 41
1.3000
 70
0
  0
VERTEX
  8
1
 10
15.5000
 20
16.7500
 30
0.0000
  0
VERTEX
  8
1
 10
9.5000
 20
16.7500
 30
0.0000
  0
SEQEND
  8
0
  0
POLYLINE
  8
1
 66
1
 10
0.0000
 20
0.0000
 30
0.0000
 40
0.6500
 41
0.6500
 70
0
  0
VERTEX
  8
1
 10
9.5000
 20
17.0750
 30
0.0000
 42
1.0000
  0
VERTEX
  8
1
 10
9.5000
 20
16.4250
 30
0.0000
  0
SEQEND
  8
0
  0
POLYLINE
  8
1
 66
1
 10
0.0000
 20
0.0000
 30
0.0000
 40
0.6500
 41
0.6500
 70
0
  0
VERTEX
  8
1
 10
15.5000
 20
16.4250
 30
0.0000
 42
1.0000
  0
VERTEX
  8
1
 10
15.5000
 20
17.0750
 30
0.0000
  0
SEQEND
  8
0
  0
POLYLINE
  8
1
 66
1
 10
0.0000
 20
0.0000
 30
0.0000
 40
1.3000
 41
1.3000
 70
0
  0
VERTEX
  8
1
 10
9.5000
 20
16.7500
 30
0.0000
  0
VERTEX
  8
1
 10
7.5000
 20
18.7500
 30
0.0000
  0
SEQEND
  8
0
  0
POLYLINE
  8
1
 66
1
 10
0.0000
 20
0.0000
 30
0.0000
 40
0.6500
 41
0.6500
 70
0
  0
VERTEX
  8
1
 10
7.7298
 20
18.9798
 30
0.0000
 42
1.0000
  0
VERTEX
  8
1
 10
7.2702
 20
18.5202
 30
0.0000
  0
SEQEND
  8
0
  0
POLYLINE
  8
1
 66
1
 10
0.0000
 20
0.0000
 30
0.0000
 40
0.6500
 41
0.6500
 70
0
  0
VERTEX
  8
1
 10
9.2702
 20
16.5202
 30
0.0000
 42
1.0000
  0
VERTEX
  8
1
 10
9.7298
 20
16.9798
 30
0.0000
  0
SEQEND
  8
0
  0
POLYLINE
  8
1
 66
1
 10
0.0000
 20
0.0000
 30
0.0000
 40
1.3000
 41
1.3000
 70
0
  0
VERTEX
  8
1
 10
7.5000
 20
36.7500
 30
0.0000
  0
VERTEX
  8
1
 10
9.5000
 20
38.7500
 30
0.0000
  0
SEQEND
  8
0
  0
POLYLINE
  8
1
 66
1
 10
0.0000
 20
0.0000
 30
0.0000
 40
0.6500
 41
0.6500
 70
0
  0
VERTEX
  8
1
 10
9.7298
 20
38.5202
 30
0.0000
 42
1.0000
  0
VERTEX
  8
1
 10
9.2702
 20
38.9798
 30
0.0000
  0
SEQEND
  8
0
  0
POLYLINE
  8
1
 66
1
 10
0.0000
 20
0.0000
 30
0.0000
 40
0.6500
 41
0.6500
 70
0
  0
VERTEX
  8
1
 10
7.2702
 20
36.9798
 30
0.0000
 42
1.0000
  0
VERTEX
  8
1
 10
7.7298
 20
36.5202
 30
0.0000
  0
SEQEND
  8
0
  0
POLYLINE
  8
1
 66
1
 10
0.0000
 20
0.0000
 30
0.0000
 40
1.3000
 41
1.3000
 70
0
  0
VERTEX
  8
1
 10
9.5000
 20
38.7500
 30
0.0000
  0
VERTEX
  8
1
 10
13.5000
 20
38.7500
 30
0.0000
  0
SEQEND
  8
0
  0
POLYLINE
  8
1
 66
1
 10
0.0000
 20
0.0000
 30
0.0000
 40
0.6500
 41
0.6500
 70
0
  0
VERTEX
  8
1
 10
13.5000
 20
38.4250
 30
0.0000
 42
1.0000
  0
VERTEX
  8
1
 10
13.5000
 20
39.0750
 30
0.0000
  0
SEQEND
  8
0
  0
POLYLINE
  8
1
 66
1
 10
0.0000
 20
0.0000
 30
0.0000
 40
0.6500
 41
0.6500
 70
0
  0
VERTEX
  8
1
 10
9.5000
 20
39.0750
 30
0.0000
 42
1.0000
  0
VERTEX
  8
1
 10
9.5000
 20
38.4250
 30
0.0000
  0
SEQEND
  8
0
  0
POLYLINE
  8
1
 66
1
 10
0.0000
 20
0.0000
 30
0.0000
 40
1.3000
 41
1.3000
 70
0
  0
VERTEX
  8
1
 10
15.0665
 20
37.1835
 30
0.0000
  0
VERTEX
  8
1
 10
15.0665
 20
34.1967
 30
0.0000
  0
SEQEND
  8
0
  0
POLYLINE
  8
1
 66
1
 10
0.0000
 20
0.0000
 30
0.0000
 40
0.6500
 41
0.6500
 70
0
  0
VERTEX
  8
1
 10
14.7415
 20
34.1967
 30
0.0000
 42
1.0000
  0
VERTEX
  8
1
 10
15.3915
 20
34.1967
 30
0.0000
  0
SEQEND
  8
0
  0
POLYLINE
  8
1
 66
1
 10
0.0000
 20
0.0000
 30
0.0000
 40
0.6500
 41
0.6500
 70
0
  0
VERTEX
  8
1
 10
15.3915
 20
37.1835
 30
0.0000
 42
1.0000
  0
VERTEX
  8
1
 10
14.7415
 20
37.1835
 30
0.0000
  0
SEQEND
  8
0
  0
POLYLINE
  8
1
 66
1
 10
0.0000
 20
0.0000
 30
0.0000
 40
1.3000
 41
1.3000
 70
0
  0
VERTEX
  8
1
 10
7.5000
 20
18.7500
 30
0.0000
  0
VERTEX
  8
1
 10
7.5000
 20
36.7500
 30
0.0000
  0
SEQEND
  8
0
  0
POLYLINE
  8
1
 66
1
 10
0.0000
 20
0.0000
 30
0.0000
 40
0.6500
 41
0.6500
 70
0
  0
VERTEX
  8
1
 10
7.8250
 20
36.7500
 30
0.0000
 42
1.0000
  0
VERTEX
  8
1
 10
7.1750
 20
36.7500
 30
0.0000
  0
SEQEND
  8
0
  0
POLYLINE
  8
1
 66
1
 10
0.0000
 20
0.0000
 30
0.0000
 40
0.6500
 41
0.6500
 70
0
  0
VERTEX
  8
1
 10
7.1750
 20
18.7500
 30
0.0000
 42
1.0000
  0
VERTEX
  8
1
 10
7.8250
 20
18.7500
 30
0.0000
  0
SEQEND
  8
0
  0
POLYLINE
  8
1
 66
1
 10
0.0000
 20
0.0000
 30
0.0000
 40
1.3000
 41
1.3000
 70
0
  0
VERTEX
  8
1
 10
13.5000
 20
38.7500
 30
0.0000
  0
VERTEX
  8
1
 10
15.0665
 20
37.1835
 30
0.0000
  0
SEQEND
  8
0
  0
POLYLINE
  8
1
 66
1
 10
0.0000
 20
0.0000
 30
0.0000
 40
0.6500
 41
0.6500
 70
0
  0
VERTEX
  8
1
 10
14.8367
 20
36.9537
 30
0.0000
 42
1.0000
  0
VERTEX
  8
1
 10
15.2963
 20
37.4133
 30
0.0000
  0
SEQEND
  8
0
  0
POLYLINE
  8
1
 66
1
 10
0.0000
 20
0.0000
 30
0.0000
 40
0.6500
 41
0.6500
 70
0
  0
VERTEX
  8
1
 10
13.7298
 20
38.9798
 30
0.0000
 42
1.0000
  0
VERTEX
  8
1
 10
13.2702
 20
38.5202
 30
0.0000
  0
SEQEND
  8
0
  0
POLYLINE
  8
1
 66
1
 10
0.0000
 20
0.0000
 30
0.0000
 40
1.3000
 41
1.3000
 70
0
  0
VERTEX
  8
1
 10
21.6593
 20
23.1476
 30
0.0000
  0
VERTEX
  8
1
 10
21.6593
 20
25.8976
 30
0.0000
  0
SEQEND
  8
0
  0
POLYLINE
  8
1
 66
1
 10
0.0000
 20
0.0000
 30
0.0000
 40
0.6500
 41
0.6500
 70
0
  0
VERTEX
  8
1
 10
21.9843
 20
25.8976
 30
0.0000
 42
1.0000
  0
VERTEX
  8
1
 10
21.3343
 20
25.8976
 30
0.0000
  0
SEQEND
  8
0
  0
POLYLINE
  8
1
 66
1
 10
0.0000
 20
0.0000
 30
0.0000
 40
0.6500
 41
0.6500
 70
0
  0
VERTEX
  8
1
 10
21.3343
 20
23.1476
 30
0.0000
 42
1.0000
  0
VERTEX
  8
1
 10
21.9843
 20
23.1476
 30
0.0000
  0
SEQEND
  8
0
  0
POLYLINE
  8
1
 66
1
 10
0.0000
 20
0.0000
 30
0.0000
 40
1.3000
 41
1.3000
 70
0
  0
VERTEX
  8
1
 10
24.2617
 20
28.5000
 30
0.0000
  0
VERTEX
  8
1
 10
21.6593
 20
25.8976
 30
0.0000
  0
SEQEND
  8
0
  0
POLYLINE
  8
1
 66
1
 10
0.0000
 20
0.0000
 30
0.0000
 40
0.6500
 41
0.6500
 70
0
  0
VERTEX
  8
1
 10
21.4295
 20
26.1274
 30
0.0000
 42
1.0000
  0
VERTEX
  8
1
 10
21.8891
 20
25.6678
 30
0.0000
  0
SEQEND
  8
0
  0
POLYLINE
  8
1
 66
1
 10
0.0000
 20
0.0000
 30
0.0000
 40
0.6500
 41
0.6500
 70
0
  0
VERTEX
  8
1
 10
24.4915
 20
28.2702
 30
0.0000
 42
1.0000
  0
VERTEX
  8
1
 10
24.0319
 20
28.7298
 30
0.0000
  0
SEQEND
  8
0
  0
POLYLINE
  8
1
 66
1
 10
0.0000
 20
0.0000
 30
0.0000
 40
1.3000
 41
1.3000
 70
0
  0
VERTEX
  8
1
 10
24.2617
 20
28.5000
 30
0.0000
  0
VERTEX
  8
1
 10
39.7778
 20
28.5000
 30
0.0000
  0
SEQEND
  8
0
  0
POLYLINE
  8
1
 66
1
 10
0.0000
 20
0.0000
 30
0.0000
 40
0.6500
 41
0.6500
 70
0
  0
VERTEX
  8
1
 10
39.7778
 20
28.1750
 30
0.0000
 42
1.0000
  0
VERTEX
  8
1
 10
39.7778
 20
28.8250
 30
0.0000
  0
SEQEND
  8
0
  0
POLYLINE
  8
1
 66
1
 10
0.0000
 20
0.0000
 30
0.0000
 40
0.6500
 41
0.6500
 70
0
  0
VERTEX
  8
1
 10
24.2617
 20
28.8250
 30
0.0000
 42
1.0000
  0
VERTEX
  8
1
 10
24.2617
 20
28.1750
 30
0.0000
  0
SEQEND
  8
0
  0
POLYLINE
  8
1
 66
1
 10
0.0000
 20
0.0000
 30
0.0000
 40
1.3000
 41
1.3000
 70
0
  0
VERTEX
  8
1
 10
44.6397
 20
39.7300
 30
0.0000
  0
VERTEX
  8
1
 10
42.1397
 20
37.2300
 30
0.0000
  0
SEQEND
  8
0
  0
POLYLINE
  8
1
 66
1
 10
0.0000
 20
0.0000
 30
0.0000
 40
0.6500
 41
0.6500
 70
0
  0
VERTEX
  8
1
 10
41.9099
 20
37.4598
 30
0.0000
 42
1.0000
  0
VERTEX
  8
1
 10
42.3695
 20
37.0002
 30
0.0000
  0
SEQEND
  8
0
  0
POLYLINE
  8
1
 66
1
 10
0.0000
 20
0.0000
 30
0.0000
 40
0.6500
 41
0.6500
 70
0
  0
VERTEX
  8
1
 10
44.8695
 20
39.5002
 30
0.0000
 42
1.0000
  0
VERTEX
  8
1
 10
44.4099
 20
39.9598
 30
0.0000
  0
SEQEND
  8
0
  0
POLYLINE
  8
1
 66
1
 10
0.0000
 20
0.0000
 30
0.0000
 40
1.3000
 41
1.3000
 70
0
  0
VERTEX
  8
1
 10
42.1397
 20
37.2300
 30
0.0000
  0
VERTEX
  8
1
 10
42.1397
 20
30.7376
 30
0.0000
  0
SEQEND
  8
0
  0
POLYLINE
  8
1
 66
1
 10
0.0000
 20
0.0000
 30
0.0000
 40
0.6500
 41
0.6500
 70
0
  0
VERTEX
  8
1
 10
41.8147
 20
30.7376
 30
0.0000
 42
1.0000
  0
VERTEX
  8
1
 10
42.4647
 20
30.7376
 30
0.0000
  0
SEQEND
  8
0
  0
POLYLINE
  8
1
 66
1
 10
0.0000
 20
0.0000
 30
0.0000
 40
0.6500
 41
0.6500
 70
0
  0
VERTEX
  8
1
 10
42.4647
 20
37.2300
 30
0.0000
 42
1.0000
  0
VERTEX
  8
1
 10
41.8147
 20
37.2300
 30
0.0000
  0
SEQEND
  8
0
  0
POLYLINE
  8
1
 66
1
 10
0.0000
 20
0.0000
 30
0.0000
 40
1.3000
 41
1.3000
 70
0
  0
VERTEX
  8
1
 10
42.1397
 20
30.7376
 30
0.0000
  0
VERTEX
  8
1
 10
39.7778
 20
28.5000
 30
0.0000
  0
SEQEND
  8
0
  0
POLYLINE
  8
1
 66
1
 10
0.0000
 20
0.0000
 30
0.0000
 40
0.6500
 41
0.6500
 70
0
  0
VERTEX
  8
1
 10
39.5543
 20
28.7359
 30
0.0000
 42
1.0000
  0
VERTEX
  8
1
 10
40.0013
 20
28.2641
 30
0.0000
  0
SEQEND
  8
0
  0
POLYLINE
  8
1
 66
1
 10
0.0000
 20
0.0000
 30
0.0000
 40
0.6500
 41
0.6500
 70
0
  0
VERTEX
  8
1
 10
42.3632
 20
30.5017
 30
0.0000
 42
1.0000
  0
VERTEX
  8
1
 10
41.9162
 20
30.9735
 30
0.0000
  0
SEQEND
  8
0
  0
POLYLINE
  8
1
 66
1
 10
0.0000
 20
0.0000
 30
0.0000
 40
1.3000
 41
1.3000
 70
0
  0
VERTEX
  8
1
 10
47.6397
 20
39.7300
 30
0.0000
  0
VERTEX
  8
1
 10
44.6397
 20
39.7300
 30
0.0000
  0
SEQEND
  8
0
  0
POLYLINE
  8
1
 66
1
 10
0.0000
 20
0.0000
 30
0.0000
 40
0.6500
 41
0.6500
 70
0
  0
VERTEX
  8
1
 10
44.6397
 20
40.0550
 30
0.0000
 42
1.0000
  0
VERTEX
  8
1
 10
44.6397
 20
39.4050
 30
0.0000
  0
SEQEND
  8
0
  0
POLYLINE
  8
1
 66
1
 10
0.0000
 20
0.0000
 30
0.0000
 40
0.6500
 41
0.6500
 70
0
  0
VERTEX
  8
1
 10
47.6397
 20
39.4050
 30
0.0000
 42
1.0000
  0
VERTEX
  8
1
 10
47.6397
 20
40.0550
 30
0.0000
  0
SEQEND
  8
0
  0
POLYLINE
  8
1
 66
1
 10
0.0000
 20
0.0000
 30
0.0000
 40
1.3000
 41
1.3000
 70
0
  0
VERTEX
  8
1
 10
14.0393
 20
23.1476
 30
0.0000
  0
VERTEX
  8
1
 10
14.0393
 20
26.7107
 30
0.0000
  0
SEQEND
  8
0
  0
POLYLINE
  8
1
 66
1
 10
0.0000
 20
0.0000
 30
0.0000
 40
0.6500
 41
0.6500
 70
0
  0
VERTEX
  8
1
 10
14.3643
 20
26.7107
 30
0.0000
 42
1.0000
  0
VERTEX
  8
1
 10
13.7143
 20
26.7107
 30
0.0000
  0
SEQEND
  8
0
  0
POLYLINE
  8
1
 66
1
 10
0.0000
 20
0.0000
 30
0.0000
 40
0.6500
 41
0.6500
 70
0
  0
VERTEX
  8
1
 10
13.7143
 20
23.1476
 30
0.0000
 42
1.0000
  0
VERTEX
  8
1
 10
14.3643
 20
23.1476
 30
0.0000
  0
SEQEND
  8
0
  0
POLYLINE
  8
1
 66
1
 10
0.0000
 20
0.0000
 30
0.0000
 40
1.3000
 41
1.3000
 70
0
  0
VERTEX
  8
1
 10
9.9865
 20
30.7635
 30
0.0000
  0
VERTEX
  8
1
 10
9.9865
 20
34.1967
 30
0.0000
  0
SEQEND
  8
0
  0
POLYLINE
  8
1
 66
1
 10
0.0000
 20
0.0000
 30
0.0000
 40
0.6500
 41
0.6500
 70
0
  0
VERTEX
  8
1
 10
10.3115
 20
34.1967
 30
0.0000
 42
1.0000
  0
VERTEX
  8
1
 10
9.6615
 20
34.1967
 30
0.0000
  0
SEQEND
  8
0
  0
POLYLINE
  8
1
 66
1
 10
0.0000
 20
0.0000
 30
0.0000
 40
0.6500
 41
0.6500
 70
0
  0
VERTEX
  8
1
 10
9.6615
 20
30.7635
 30
0.0000
 42
1.0000
  0
VERTEX
  8
1
 10
10.3115
 20
30.7635
 30
0.0000
  0
SEQEND
  8
0
  0
POLYLINE
  8
1
 66
1
 10
0.0000
 20
0.0000
 30
0.0000
 40
1.3000
 41
1.3000
 70
0
  0
VERTEX
  8
1
 10
14.0393
 20
26.7107
 30
0.0000
  0
VERTEX
  8
1
 10
9.9865
 20
30.7635
 30
0.0000
  0
SEQEND
  8
0
  0
POLYLINE
  8
1
 66
1
 10
0.0000
 20
0.0000
 30
0.0000
 40
0.6500
 41
0.6500
 70
0
  0
VERTEX
  8
1
 10
10.2163
 20
30.9933
 30
0.0000
 42
1.0000
  0
VERTEX
  8
1
 10
9.7567
 20
30.5337
 30
0.0000
  0
SEQEND
  8
0
  0
POLYLINE
  8
1
 66
1
 10
0.0000
 20
0.0000
 30
0.0000
 40
0.6500
 41
0.6500
 70
0
  0
VERTEX
  8
1
 10
13.8095
 20
26.4809
 30
0.0000
 42
1.0000
  0
VERTEX
  8
1
 10
14.2691
 20
26.9405
 30
0.0000
  0
SEQEND
  8
0
  0
POLYLINE
  8
1
 66
1
 10
0.0000
 20
0.0000
 30
0.0000
 40
1.3000
 41
1.3000
 70
0
  0
VERTEX
  8
1
 10
47.6397
 20
32.1100
 30
0.0000
  0
VERTEX
  8
1
 10
50.6100
 20
32.1100
 30
0.0000
  0
SEQEND
  8
0
  0
POLYLINE
  8
1
 66
1
 10
0.0000
 20
0.0000
 30
0.0000
 40
0.6500
 41
0.6500
 70
0
  0
VERTEX
  8
1
 10
50.6100
 20
31.7850
 30
0.0000
 42
1.0000
  0
VERTEX
  8
1
 10
50.6100
 20
32.4350
 30
0.0000
  0
SEQEND
  8
0
  0
POLYLINE
  8
1
 66
1
 10
0.0000
 20
0.0000
 30
0.0000
 40
0.6500
 41
0.6500
 70
0
  0
VERTEX
  8
1
 10
47.6397
 20
32.4350
 30
0.0000
 42
1.0000
  0
VERTEX
  8
1
 10
47.6397
 20
31.7850
 30
0.0000
  0
SEQEND
  8
0
  0
POLYLINE
  8
1
 66
1
 10
0.0000
 20
0.0000
 30
0.0000
 40
1.3000
 41
1.3000
 70
0
  0
VERTEX
  8
1
 10
50.6100
 20
32.1100
 30
0.0000
  0
VERTEX
  8
1
 10
52.7500
 20
34.2500
 30
0.0000
  0
SEQEND
  8
0
  0
POLYLINE
  8
1
 66
1
 10
0.0000
 20
0.0000
 30
0.0000
 40
0.6500
 41
0.6500
 70
0
  0
VERTEX
  8
1
 10
52.9798
 20
34.0202
 30
0.0000
 42
1.0000
  0
VERTEX
  8
1
 10
52.5202
 20
34.4798
 30
0.0000
  0
SEQEND
  8
0
  0
POLYLINE
  8
1
 66
1
 10
0.0000
 20
0.0000
 30
0.0000
 40
0.6500
 41
0.6500
 70
0
  0
VERTEX
  8
1
 10
50.3802
 20
32.3398
 30
0.0000
 42
1.0000
  0
VERTEX
  8
1
 10
50.8398
 20
31.8802
 30
0.0000
  0
SEQEND
  8
0
  0
POLYLINE
  8
1
 66
1
 10
0.0000
 20
0.0000
 30
0.0000
 40
1.3000
 41
1.3000
 70
0
  0
VERTEX
  8
1
 10
52.7500
 20
45.0000
 30
0.0000
  0
VERTEX
  8
1
 10
52.7500
 20
34.2500
 30
0.0000
  0
SEQEND
  8
0
  0
POLYLINE
  8
1
 66
1
 10
0.0000
 20
0.0000
 30
0.0000
 40
0.6500
 41
0.6500
 70
0
  0
VERTEX
  8
1
 10
52.4250
 20
34.2500
 30
0.0000
 42
1.0000
  0
VERTEX
  8
1
 10
53.0750
 20
34.2500
 30
0.0000
  0
SEQEND
  8
0
  0
POLYLINE
  8
1
 66
1
 10
0.0000
 20
0.0000
 30
0.0000
 40
0.6500
 41
0.6500
 70
0
  0
VERTEX
  8
1
 10
53.0750
 20
45.0000
 30
0.0000
 42
1.0000
  0
VERTEX
  8
1
 10
52.4250
 20
45.0000
 30
0.0000
  0
SEQEND
  8
0
  0
POLYLINE
  8
1
 66
1
 10
0.0000
 20
0.0000
 30
0.0000
 40
1.3000
 41
1.3000
 70
0
  0
VERTEX
  8
1
 10
57.6400
 20
49.8900
 30
0.0000
  0
VERTEX
  8
1
 10
62.2803
 20
49.8900
 30
0.0000
  0
SEQEND
  8
0
  0
POLYLINE
  8
1
 66
1
 10
0.0000
 20
0.0000
 30
0.0000
 40
0.6500
 41
0.6500
 70
0
  0
VERTEX
  8
1
 10
62.2803
 20
49.5650
 30
0.0000
 42
1.0000
  0
VERTEX
  8
1
 10
62.2803
 20
50.2150
 30
0.0000
  0
SEQEND
  8
0
  0
POLYLINE
  8
1
 66
1
 10
0.0000
 20
0.0000
 30
0.0000
 40
0.6500
 41
0.6500
 70
0
  0
VERTEX
  8
1
 10
57.6400
 20
50.2150
 30
0.0000
 42
1.0000
  0
VERTEX
  8
1
 10
57.6400
 20
49.5650
 30
0.0000
  0
SEQEND
  8
0
  0
POLYLINE
  8
1
 66
1
 10
0.0000
 20
0.0000
 30
0.0000
 40
1.3000
 41
1.3000
 70
0
  0
VERTEX
  8
1
 10
52.7500
 20
45.0000
 30
0.0000
  0
VERTEX
  8
1
 10
57.6400
 20
49.8900
 30
0.0000
  0
SEQEND
  8
0
  0
POLYLINE
  8
1
 66
1
 10
0.0000
 20
0.0000
 30
0.0000
 40
0.6500
 41
0.6500
 70
0
  0
VERTEX
  8
1
 10
57.8698
 20
49.6602
 30
0.0000
 42
1.0000
  0
VERTEX
  8
1
 10
57.4102
 20
50.1198
 30
0.0000
  0
SEQEND
  8
0
  0
POLYLINE
  8
1
 66
1
 10
0.0000
 20
0.0000
 30
0.0000
 40
0.6500
 41
0.6500
 70
0
  0
VERTEX
  8
1
 10
52.5202
 20
45.2298
 30
0.0000
 42
1.0000
  0
VERTEX
  8
1
 10
52.9798
 20
44.7702
 30
0.0000
  0
SEQEND
  8
0
  0
POLYLINE
  8
1
 66
1
 10
0.0000
 20
0.0000
 30
0.0000
 40
1.3000
 41
1.3000
 70
0
  0
VERTEX
  8
1
 10
62.2803
 20
49.8900
 30
0.0000
  0
VERTEX
  8
1
 10
62.2803
 20
53.5303
 30
0.0000
  0
SEQEND
  8
0
  0
POLYLINE
  8
1
 66
1
 10
0.0000
 20
0.0000
 30
0.0000
 40
0.6500
 41
0.6500
 70
0
  0
VERTEX
  8
1
 10
62.6053
 20
53.5303
 30
0.0000
 42
1.0000
  0
VERTEX
  8
1
 10
61.9553
 20
53.5303
 30
0.0000
  0
SEQEND
  8
0
  0
POLYLINE
  8
1
 66
1
 10
0.0000
 20
0.0000
 30
0.0000
 40
0.6500
 41
0.6500
 70
0
  0
VERTEX
  8
1
 10
61.9553
 20
49.8900
 30
0.0000
 42
1.0000
  0
VERTEX
  8
1
 10
62.6053
 20
49.8900
 30
0.0000
  0
SEQEND
  8
0
  0
POLYLINE
  8
1
 66
1
 10
0.0000
 20
0.0000
 30
0.0000
 40
1.3000
 41
1.3000
 70
0
  0
VERTEX
  8
1
 10
65.1639
 20
56.4139
 30
0.0000
  0
VERTEX
  8
1
 10
68.6090
 20
56.4139
 30
0.0000
  0
SEQEND
  8
0
  0
POLYLINE
  8
1
 66
1
 10
0.0000
 20
0.0000
 30
0.0000
 40
0.6500
 41
0.6500
 70
0
  0
VERTEX
  8
1
 10
68.6090
 20
56.0889
 30
0.0000
 42
1.0000
  0
VERTEX
  8
1
 10
68.6090
 20
56.7389
 30
0.0000
  0
SEQEND
  8
0
  0
POLYLINE
  8
1
 66
1
 10
0.0000
 20
0.0000
 30
0.0000
 40
0.6500
 41
0.6500
 70
0
  0
VERTEX
  8
1
 10
65.1639
 20
56.7389
 30
0.0000
 42
1.0000
  0
VERTEX
  8
1
 10
65.1639
 20
56.0889
 30
0.0000
  0
SEQEND
  8
0
  0
POLYLINE
  8
1
 66
1
 10
0.0000
 20
0.0000
 30
0.0000
 40
1.3000
 41
1.3000
 70
0
  0
VERTEX
  8
1
 10
62.2803
 20
53.5303
 30
0.0000
  0
VERTEX
  8
1
 10
65.1639
 20
56.4139
 30
0.0000
  0
SEQEND
  8
0
  0
POLYLINE
  8
1
 66
1
 10
0.0000
 20
0.0000
 30
0.0000
 40
0.6500
 41
0.6500
 70
0
  0
VERTEX
  8
1
 10
65.3937
 20
56.1841
 30
0.0000
 42
1.0000
  0
VERTEX
  8
1
 10
64.9341
 20
56.6437
 30
0.0000
  0
SEQEND
  8
0
  0
POLYLINE
  8
1
 66
1
 10
0.0000
 20
0.0000
 30
0.0000
 40
0.6500
 41
0.6500
 70
0
  0
VERTEX
  8
1
 10
62.0505
 20
53.7601
 30
0.0000
 42
1.0000
  0
VERTEX
  8
1
 10
62.5101
 20
53.3005
 30
0.0000
  0
SEQEND
  8
0
  0
ENDSEC
  0
EOF
