  0
SECTION
  2
HEADER
  9
$ACADVER
  1
AC1009
  9
$FILLMODE
 70
1
  9
$EXTMIN
 10
0.0000
 20
0.0000
 30
0.0000
  9
$EXTMAX
 10
127.5875
 20
70.0000
 30
0.0000
  0
ENDSEC
  0
SECTION
  2
TABLES
  0
TABLE
  2
LTYPE
 70
1
  0
LTYPE
  2
CONTINUOUS
 70
64
  3
Solid line
 72
65
 73
0
 40
0
  0
ENDTAB
  0
TABLE
  2
LAYER
 70
255
  0
LAYER
  2
1
 70
64
 62
12
  6
CONTINUOUS
  0
LAYER
  2
17
 70
64
 62
122
  6
CONTINUOUS
  0
LAYER
  2
18
 70
64
 62
122
  6
CONTINUOUS
  0
ENDTAB
  0
ENDSEC
  0
SECTION
  2
BLOCKS
  0
BLOCK
  8
0
  2
RECT
 70
64
 10
0.0000
 20
0.0000
 30
0.0000
  3
RECT
  0
SOLID
  8
0
 10
-0.5000
 20
-0.5000
 30
0.0000
 11
0.5000
 21
-0.5000
 31
0.0000
 12
-0.5000
 22
0.5000
 32
0.0000
 13
0.5000
 23
0.5000
 33
0.0000
  0
ENDBLK
  8
0
  0
BLOCK
  8
0
  2
PIE
 70
64
 10
0.0000
 20
0.0000
 30
0.0000
  3
PIE
  0
POLYLINE
  8
0
 66
1
 10
0.0000
 20
0.0000
 30
0.0000
 40
0.5000
 41
0.5000
 70
0
  0
VERTEX
  8
0
 10
0.0000
 20
-0.2500
 30
0.0000
 42
1.0000
  0
VERTEX
  8
0
 10
0.0000
 20
0.2500
 30
0.0000
 42
1.0000
  0
VERTEX
  8
0
 10
0.0000
 20
-0.2500
 30
0.0000
  0
SEQEND
  8
0
  0
ENDBLK
  8
0
  0
BLOCK
  8
0
  2
OCTAGONP
 70
64
 10
0.0000
 20
0.0000
 30
0.0000
  3
OCTAGONP
  0
POLYLINE
  8
0
 66
1
 10
0.0000
 20
0.0000
 30
0.0000
 40
0.5000
 41
0.5000
 70
0
  0
VERTEX
  8
0
 10
-0.2500
 20
-0.1036
 30
0.0000
  0
VERTEX
  8
0
 10
-0.2500
 20
0.1036
 30
0.0000
  0
VERTEX
  8
0
 10
-0.1036
 20
0.2500
 30
0.0000
  0
VERTEX
  8
0
 10
0.1036
 20
0.2500
 30
0.0000
  0
VERTEX
  8
0
 10
0.2500
 20
0.1036
 30
0.0000
  0
VERTEX
  8
0
 10
0.2500
 20
-0.1036
 30
0.0000
  0
VERTEX
  8
0
 10
0.1036
 20
-0.2500
 30
0.0000
  0
VERTEX
  8
0
 10
-0.1036
 20
-0.2500
 30
0.0000
  0
VERTEX
  8
0
 10
-0.2500
 20
-0.1036
 30
0.0000
  0
VERTEX
  8
0
 10
-0.2500
 20
0.1036
 30
0.0000
  0
SEQEND
  8
0
  0
ENDBLK
  8
0
  0
BLOCK
  8
0
  2
SQUAREP
 70
64
 10
0.0000
 20
0.0000
 30
0.0000
  3
SQUAREP
  0
SOLID
  8
0
 10
-0.5000
 20
-0.5000
 30
0.0000
 11
0.5000
 21
-0.5000
 31
0.0000
 12
-0.5000
 22
0.5000
 32
0.0000
 13
0.5000
 23
0.5000
 33
0.0000
  0
ENDBLK
  8
0
  0
BLOCK
  8
0
  2
ROUNDP
 70
64
 10
0.0000
 20
0.0000
 30
0.0000
  3
ROUNDP
  0
POLYLINE
  8
0
 66
1
 10
0.0000
 20
0.0000
 30
0.0000
 40
0.5000
 41
0.5000
 70
0
  0
VERTEX
  8
0
 10
0.0000
 20
-0.2500
 30
0.0000
 42
1.0000
  0
VERTEX
  8
0
 10
0.0000
 20
0.2500
 30
0.0000
 42
1.0000
  0
VERTEX
  8
0
 10
0.0000
 20
-0.2500
 30
0.0000
  0
SEQEND
  8
0
  0
ENDBLK
  8
0
  0
BLOCK
  8
0
  2
ANNULUSP
 70
64
 10
0.0000
 20
0.0000
 30
0.0000
  3
ANNULUSP
  0
POLYLINE
  8
0
 66
1
 10
0.0000
 20
0.0000
 30
0.0000
 40
0.5000
 41
0.5000
 70
0
  0
VERTEX
  8
0
 10
0.0000
 20
-0.2500
 30
0.0000
 42
1.0000
  0
VERTEX
  8
0
 10
0.0000
 20
0.2500
 30
0.0000
 42
1.0000
  0
VERTEX
  8
0
 10
0.0000
 20
-0.2500
 30
0.0000
  0
SEQEND
  8
0
  0
ENDBLK
  8
0
  0
BLOCK
  8
0
  2
THERMALP
 70
64
 10
0.0000
 20
0.0000
 30
0.0000
  3
THERMALP
  0
POLYLINE
  8
0
 66
1
 10
0.0000
 20
0.0000
 30
0.0000
 40
0.1000
 41
0.1000
 70
0
  0
VERTEX
  8
0
 10
-0.2379
 20
0.4500
 30
0.0000
  0
VERTEX
  8
0
 10
0.2379
 20
0.4500
 30
0.0000
  0
SEQEND
  8
0
  0
POLYLINE
  8
0
 66
1
 10
0.0000
 20
0.0000
 30
0.0000
 40
0.0500
 41
0.0500
 70
0
  0
VERTEX
  8
0
 10
0.2379
 20
0.4250
 30
0.0000
 42
1.0000
  0
VERTEX
  8
0
 10
0.2379
 20
0.4750
 30
0.0000
  0
SEQEND
  8
0
  0
POLYLINE
  8
0
 66
1
 10
0.0000
 20
0.0000
 30
0.0000
 40
0.0500
 41
0.0500
 70
0
  0
VERTEX
  8
0
 10
-0.2379
 20
0.4750
 30
0.0000
 42
1.0000
  0
VERTEX
  8
0
 10
-0.2379
 20
0.4250
 30
0.0000
  0
SEQEND
  8
0
  0
POLYLINE
  8
0
 66
1
 10
0.0000
 20
0.0000
 30
0.0000
 40
0.1000
 41
0.1000
 70
0
  0
VERTEX
  8
0
 10
0.4500
 20
0.2379
 30
0.0000
  0
VERTEX
  8
0
 10
0.4500
 20
-0.2379
 30
0.0000
  0
SEQEND
  8
0
  0
POLYLINE
  8
0
 66
1
 10
0.0000
 20
0.0000
 30
0.0000
 40
0.0500
 41
0.0500
 70
0
  0
VERTEX
  8
0
 10
0.4250
 20
-0.2379
 30
0.0000
 42
1.0000
  0
VERTEX
  8
0
 10
0.4750
 20
-0.2379
 30
0.0000
  0
SEQEND
  8
0
  0
POLYLINE
  8
0
 66
1
 10
0.0000
 20
0.0000
 30
0.0000
 40
0.0500
 41
0.0500
 70
0
  0
VERTEX
  8
0
 10
0.4750
 20
0.2379
 30
0.0000
 42
1.0000
  0
VERTEX
  8
0
 10
0.4250
 20
0.2379
 30
0.0000
  0
SEQEND
  8
0
  0
POLYLINE
  8
0
 66
1
 10
0.0000
 20
0.0000
 30
0.0000
 40
0.1000
 41
0.1000
 70
0
  0
VERTEX
  8
0
 10
0.2379
 20
-0.4500
 30
0.0000
  0
VERTEX
  8
0
 10
-0.2379
 20
-0.4500
 30
0.0000
  0
SEQEND
  8
0
  0
POLYLINE
  8
0
 66
1
 10
0.0000
 20
0.0000
 30
0.0000
 40
0.0500
 41
0.0500
 70
0
  0
VERTEX
  8
0
 10
-0.2379
 20
-0.4250
 30
0.0000
 42
1.0000
  0
VERTEX
  8
0
 10
-0.2379
 20
-0.4750
 30
0.0000
  0
SEQEND
  8
0
  0
POLYLINE
  8
0
 66
1
 10
0.0000
 20
0.0000
 30
0.0000
 40
0.0500
 41
0.0500
 70
0
  0
VERTEX
  8
0
 10
0.2379
 20
-0.4750
 30
0.0000
 42
1.0000
  0
VERTEX
  8
0
 10
0.2379
 20
-0.4250
 30
0.0000
  0
SEQEND
  8
0
  0
POLYLINE
  8
0
 66
1
 10
0.0000
 20
0.0000
 30
0.0000
 40
0.1000
 41
0.1000
 70
0
  0
VERTEX
  8
0
 10
-0.4500
 20
-0.2379
 30
0.0000
  0
VERTEX
  8
0
 10
-0.4500
 20
0.2379
 30
0.0000
  0
SEQEND
  8
0
  0
POLYLINE
  8
0
 66
1
 10
0.0000
 20
0.0000
 30
0.0000
 40
0.0500
 41
0.0500
 70
0
  0
VERTEX
  8
0
 10
-0.4250
 20
0.2379
 30
0.0000
 42
1.0000
  0
VERTEX
  8
0
 10
-0.4750
 20
0.2379
 30
0.0000
  0
SEQEND
  8
0
  0
POLYLINE
  8
0
 66
1
 10
0.0000
 20
0.0000
 30
0.0000
 40
0.0500
 41
0.0500
 70
0
  0
VERTEX
  8
0
 10
-0.4750
 20
-0.2379
 30
0.0000
 42
1.0000
  0
VERTEX
  8
0
 10
-0.4250
 20
-0.2379
 30
0.0000
  0
SEQEND
  8
0
  0
ENDBLK
  8
0
  0
BLOCK
  8
0
  2
OCTAGONV
 70
64
 10
0.0000
 20
0.0000
 30
0.0000
  3
OCTAGONV
  0
POLYLINE
  8
0
 66
1
 10
0.0000
 20
0.0000
 30
0.0000
 40
0.5000
 41
0.5000
 70
0
  0
VERTEX
  8
0
 10
-0.2500
 20
-0.1036
 30
0.0000
  0
VERTEX
  8
0
 10
-0.2500
 20
0.1036
 30
0.0000
  0
VERTEX
  8
0
 10
-0.1036
 20
0.2500
 30
0.0000
  0
VERTEX
  8
0
 10
0.1036
 20
0.2500
 30
0.0000
  0
VERTEX
  8
0
 10
0.2500
 20
0.1036
 30
0.0000
  0
VERTEX
  8
0
 10
0.2500
 20
-0.1036
 30
0.0000
  0
VERTEX
  8
0
 10
0.1036
 20
-0.2500
 30
0.0000
  0
VERTEX
  8
0
 10
-0.1036
 20
-0.2500
 30
0.0000
  0
VERTEX
  8
0
 10
-0.2500
 20
-0.1036
 30
0.0000
  0
VERTEX
  8
0
 10
-0.2500
 20
0.1036
 30
0.0000
  0
SEQEND
  8
0
  0
ENDBLK
  8
0
  0
BLOCK
  8
0
  2
SQUAREV
 70
64
 10
0.0000
 20
0.0000
 30
0.0000
  3
SQUAREV
  0
SOLID
  8
0
 10
-0.5000
 20
-0.5000
 30
0.0000
 11
0.5000
 21
-0.5000
 31
0.0000
 12
-0.5000
 22
0.5000
 32
0.0000
 13
0.5000
 23
0.5000
 33
0.0000
  0
ENDBLK
  8
0
  0
BLOCK
  8
0
  2
ROUNDV
 70
64
 10
0.0000
 20
0.0000
 30
0.0000
  3
ROUNDV
  0
POLYLINE
  8
0
 66
1
 10
0.0000
 20
0.0000
 30
0.0000
 40
0.5000
 41
0.5000
 70
0
  0
VERTEX
  8
0
 10
0.0000
 20
-0.2500
 30
0.0000
 42
1.0000
  0
VERTEX
  8
0
 10
0.0000
 20
0.2500
 30
0.0000
 42
1.0000
  0
VERTEX
  8
0
 10
0.0000
 20
-0.2500
 30
0.0000
  0
SEQEND
  8
0
  0
ENDBLK
  8
0
  0
BLOCK
  8
0
  2
ANNULUSV
 70
64
 10
0.0000
 20
0.0000
 30
0.0000
  3
ANNULUSV
  0
POLYLINE
  8
0
 66
1
 10
0.0000
 20
0.0000
 30
0.0000
 40
0.5000
 41
0.5000
 70
0
  0
VERTEX
  8
0
 10
0.0000
 20
-0.2500
 30
0.0000
 42
1.0000
  0
VERTEX
  8
0
 10
0.0000
 20
0.2500
 30
0.0000
 42
1.0000
  0
VERTEX
  8
0
 10
0.0000
 20
-0.2500
 30
0.0000
  0
SEQEND
  8
0
  0
ENDBLK
  8
0
  0
BLOCK
  8
0
  2
THERMALV
 70
64
 10
0.0000
 20
0.0000
 30
0.0000
  3
THERMALV
  0
POLYLINE
  8
0
 66
1
 10
0.0000
 20
0.0000
 30
0.0000
 40
0.1000
 41
0.1000
 70
0
  0
VERTEX
  8
0
 10
-0.2379
 20
0.4500
 30
0.0000
  0
VERTEX
  8
0
 10
0.2379
 20
0.4500
 30
0.0000
  0
SEQEND
  8
0
  0
POLYLINE
  8
0
 66
1
 10
0.0000
 20
0.0000
 30
0.0000
 40
0.0500
 41
0.0500
 70
0
  0
VERTEX
  8
0
 10
0.2379
 20
0.4250
 30
0.0000
 42
1.0000
  0
VERTEX
  8
0
 10
0.2379
 20
0.4750
 30
0.0000
  0
SEQEND
  8
0
  0
POLYLINE
  8
0
 66
1
 10
0.0000
 20
0.0000
 30
0.0000
 40
0.0500
 41
0.0500
 70
0
  0
VERTEX
  8
0
 10
-0.2379
 20
0.4750
 30
0.0000
 42
1.0000
  0
VERTEX
  8
0
 10
-0.2379
 20
0.4250
 30
0.0000
  0
SEQEND
  8
0
  0
POLYLINE
  8
0
 66
1
 10
0.0000
 20
0.0000
 30
0.0000
 40
0.1000
 41
0.1000
 70
0
  0
VERTEX
  8
0
 10
0.4500
 20
0.2379
 30
0.0000
  0
VERTEX
  8
0
 10
0.4500
 20
-0.2379
 30
0.0000
  0
SEQEND
  8
0
  0
POLYLINE
  8
0
 66
1
 10
0.0000
 20
0.0000
 30
0.0000
 40
0.0500
 41
0.0500
 70
0
  0
VERTEX
  8
0
 10
0.4250
 20
-0.2379
 30
0.0000
 42
1.0000
  0
VERTEX
  8
0
 10
0.4750
 20
-0.2379
 30
0.0000
  0
SEQEND
  8
0
  0
POLYLINE
  8
0
 66
1
 10
0.0000
 20
0.0000
 30
0.0000
 40
0.0500
 41
0.0500
 70
0
  0
VERTEX
  8
0
 10
0.4750
 20
0.2379
 30
0.0000
 42
1.0000
  0
VERTEX
  8
0
 10
0.4250
 20
0.2379
 30
0.0000
  0
SEQEND
  8
0
  0
POLYLINE
  8
0
 66
1
 10
0.0000
 20
0.0000
 30
0.0000
 40
0.1000
 41
0.1000
 70
0
  0
VERTEX
  8
0
 10
0.2379
 20
-0.4500
 30
0.0000
  0
VERTEX
  8
0
 10
-0.2379
 20
-0.4500
 30
0.0000
  0
SEQEND
  8
0
  0
POLYLINE
  8
0
 66
1
 10
0.0000
 20
0.0000
 30
0.0000
 40
0.0500
 41
0.0500
 70
0
  0
VERTEX
  8
0
 10
-0.2379
 20
-0.4250
 30
0.0000
 42
1.0000
  0
VERTEX
  8
0
 10
-0.2379
 20
-0.4750
 30
0.0000
  0
SEQEND
  8
0
  0
POLYLINE
  8
0
 66
1
 10
0.0000
 20
0.0000
 30
0.0000
 40
0.0500
 41
0.0500
 70
0
  0
VERTEX
  8
0
 10
0.2379
 20
-0.4750
 30
0.0000
 42
1.0000
  0
VERTEX
  8
0
 10
0.2379
 20
-0.4250
 30
0.0000
  0
SEQEND
  8
0
  0
POLYLINE
  8
0
 66
1
 10
0.0000
 20
0.0000
 30
0.0000
 40
0.1000
 41
0.1000
 70
0
  0
VERTEX
  8
0
 10
-0.4500
 20
-0.2379
 30
0.0000
  0
VERTEX
  8
0
 10
-0.4500
 20
0.2379
 30
0.0000
  0
SEQEND
  8
0
  0
POLYLINE
  8
0
 66
1
 10
0.0000
 20
0.0000
 30
0.0000
 40
0.0500
 41
0.0500
 70
0
  0
VERTEX
  8
0
 10
-0.4250
 20
0.2379
 30
0.0000
 42
1.0000
  0
VERTEX
  8
0
 10
-0.4750
 20
0.2379
 30
0.0000
  0
SEQEND
  8
0
  0
POLYLINE
  8
0
 66
1
 10
0.0000
 20
0.0000
 30
0.0000
 40
0.0500
 41
0.0500
 70
0
  0
VERTEX
  8
0
 10
-0.4750
 20
-0.2379
 30
0.0000
 42
1.0000
  0
VERTEX
  8
0
 10
-0.4250
 20
-0.2379
 30
0.0000
  0
SEQEND
  8
0
  0
ENDBLK
  8
0
  0
BLOCK
  8
0
  2
LONGP100
 70
64
 10
0.0000
 20
0.0000
 30
0.0000
  3
LONGP100
  0
POLYLINE
  8
0
 66
1
 10
0.0000
 20
0.0000
 30
0.0000
 40
1.0000
 41
1.0000
 70
0
  0
VERTEX
  8
0
 10
-0.5000
 20
0.0000
 30
0.0000
  0
VERTEX
  8
0
 10
0.5000
 20
0.0000
 30
0.0000
  0
SEQEND
  8
0
  0
POLYLINE
  8
0
 66
1
 10
0.0000
 20
0.0000
 30
0.0000
 40
0.5000
 41
0.5000
 70
0
  0
VERTEX
  8
0
 10
0.5000
 20
-0.2500
 30
0.0000
 42
1.0000
  0
VERTEX
  8
0
 10
0.5000
 20
0.2500
 30
0.0000
  0
SEQEND
  8
0
  0
POLYLINE
  8
0
 66
1
 10
0.0000
 20
0.0000
 30
0.0000
 40
0.5000
 41
0.5000
 70
0
  0
VERTEX
  8
0
 10
-0.5000
 20
0.2500
 30
0.0000
 42
1.0000
  0
VERTEX
  8
0
 10
-0.5000
 20
-0.2500
 30
0.0000
  0
SEQEND
  8
0
  0
ENDBLK
  8
0
  0
ENDSEC
  0
SECTION
  2
ENTITIES
  0
INSERT
  8
17
  2
LONGP100
 10
50.0000
 20
63.8100
 30
0.0000
 41
1.5240
 42
1.5240
 43
1.0000
 50
0.0000
  0
INSERT
  8
17
  2
LONGP100
 10
50.0000
 20
61.2700
 30
0.0000
 41
1.5240
 42
1.5240
 43
1.0000
 50
0.0000
  0
INSERT
  8
17
  2
LONGP100
 10
50.0000
 20
58.7300
 30
0.0000
 41
1.5240
 42
1.5240
 43
1.0000
 50
0.0000
  0
INSERT
  8
17
  2
LONGP100
 10
50.0000
 20
56.1900
 30
0.0000
 41
1.5240
 42
1.5240
 43
1.0000
 50
0.0000
  0
INSERT
  8
17
  2
LONGP100
 10
40.0000
 20
63.8100
 30
0.0000
 41
1.5240
 42
1.5240
 43
1.0000
 50
0.0000
  0
INSERT
  8
17
  2
LONGP100
 10
40.0000
 20
61.2700
 30
0.0000
 41
1.5240
 42
1.5240
 43
1.0000
 50
0.0000
  0
INSERT
  8
17
  2
LONGP100
 10
40.0000
 20
58.7300
 30
0.0000
 41
1.5240
 42
1.5240
 43
1.0000
 50
0.0000
  0
INSERT
  8
17
  2
LONGP100
 10
40.0000
 20
56.1900
 30
0.0000
 41
1.5240
 42
1.5240
 43
1.0000
 50
0.0000
  0
INSERT
  8
17
  2
LONGP100
 10
30.0000
 20
63.8100
 30
0.0000
 41
1.5240
 42
1.5240
 43
1.0000
 50
0.0000
  0
INSERT
  8
17
  2
LONGP100
 10
30.0000
 20
61.2700
 30
0.0000
 41
1.5240
 42
1.5240
 43
1.0000
 50
0.0000
  0
INSERT
  8
17
  2
LONGP100
 10
30.0000
 20
58.7300
 30
0.0000
 41
1.5240
 42
1.5240
 43
1.0000
 50
0.0000
  0
INSERT
  8
17
  2
LONGP100
 10
30.0000
 20
56.1900
 30
0.0000
 41
1.5240
 42
1.5240
 43
1.0000
 50
0.0000
  0
INSERT
  8
17
  2
LONGP100
 10
20.0000
 20
63.8100
 30
0.0000
 41
1.5240
 42
1.5240
 43
1.0000
 50
0.0000
  0
INSERT
  8
17
  2
LONGP100
 10
20.0000
 20
61.2700
 30
0.0000
 41
1.5240
 42
1.5240
 43
1.0000
 50
0.0000
  0
INSERT
  8
17
  2
LONGP100
 10
20.0000
 20
58.7300
 30
0.0000
 41
1.5240
 42
1.5240
 43
1.0000
 50
0.0000
  0
INSERT
  8
17
  2
LONGP100
 10
20.0000
 20
56.1900
 30
0.0000
 41
1.5240
 42
1.5240
 43
1.0000
 50
0.0000
  0
INSERT
  8
17
  2
LONGP100
 10
10.0000
 20
63.8100
 30
0.0000
 41
1.5240
 42
1.5240
 43
1.0000
 50
0.0000
  0
INSERT
  8
17
  2
LONGP100
 10
10.0000
 20
61.2700
 30
0.0000
 41
1.5240
 42
1.5240
 43
1.0000
 50
0.0000
  0
INSERT
  8
17
  2
LONGP100
 10
10.0000
 20
58.7300
 30
0.0000
 41
1.5240
 42
1.5240
 43
1.0000
 50
0.0000
  0
INSERT
  8
17
  2
LONGP100
 10
10.0000
 20
56.1900
 30
0.0000
 41
1.5240
 42
1.5240
 43
1.0000
 50
0.0000
  0
INSERT
  8
17
  2
ROUNDP
 10
14.0393
 20
20.6076
 30
0.0000
 41
1.8796
 42
1.8796
 43
1.0000
 50
0.0000
  0
INSERT
  8
17
  2
ROUNDP
 10
14.0393
 20
23.1476
 30
0.0000
 41
1.8796
 42
1.8796
 43
1.0000
 50
0.0000
  0
INSERT
  8
17
  2
ROUNDP
 10
16.5793
 20
20.6076
 30
0.0000
 41
1.8796
 42
1.8796
 43
1.0000
 50
0.0000
  0
INSERT
  8
17
  2
ROUNDP
 10
16.5793
 20
23.1476
 30
0.0000
 41
1.8796
 42
1.8796
 43
1.0000
 50
0.0000
  0
INSERT
  8
17
  2
ROUNDP
 10
19.1193
 20
20.6076
 30
0.0000
 41
1.8796
 42
1.8796
 43
1.0000
 50
0.0000
  0
INSERT
  8
17
  2
ROUNDP
 10
19.1193
 20
23.1476
 30
0.0000
 41
1.8796
 42
1.8796
 43
1.0000
 50
0.0000
  0
INSERT
  8
17
  2
ROUNDP
 10
21.6593
 20
20.6076
 30
0.0000
 41
1.8796
 42
1.8796
 43
1.0000
 50
0.0000
  0
INSERT
  8
17
  2
ROUNDP
 10
21.6593
 20
23.1476
 30
0.0000
 41
1.8796
 42
1.8796
 43
1.0000
 50
0.0000
  0
INSERT
  8
17
  2
ROUNDP
 10
24.1993
 20
20.6076
 30
0.0000
 41
1.8796
 42
1.8796
 43
1.0000
 50
0.0000
  0
INSERT
  8
17
  2
ROUNDP
 10
24.1993
 20
23.1476
 30
0.0000
 41
1.8796
 42
1.8796
 43
1.0000
 50
0.0000
  0
INSERT
  8
17
  2
ROUNDP
 10
26.7393
 20
20.6076
 30
0.0000
 41
1.8796
 42
1.8796
 43
1.0000
 50
0.0000
  0
INSERT
  8
17
  2
ROUNDP
 10
26.7393
 20
23.1476
 30
0.0000
 41
1.8796
 42
1.8796
 43
1.0000
 50
0.0000
  0
INSERT
  8
17
  2
ROUNDP
 10
29.2793
 20
20.6076
 30
0.0000
 41
1.8796
 42
1.8796
 43
1.0000
 50
0.0000
  0
INSERT
  8
17
  2
ROUNDP
 10
29.2793
 20
23.1476
 30
0.0000
 41
1.8796
 42
1.8796
 43
1.0000
 50
0.0000
  0
INSERT
  8
17
  2
ROUNDP
 10
31.8193
 20
20.6076
 30
0.0000
 41
1.8796
 42
1.8796
 43
1.0000
 50
0.0000
  0
INSERT
  8
17
  2
ROUNDP
 10
31.8193
 20
23.1476
 30
0.0000
 41
1.8796
 42
1.8796
 43
1.0000
 50
0.0000
  0
INSERT
  8
17
  2
ROUNDP
 10
34.3593
 20
20.6076
 30
0.0000
 41
1.8796
 42
1.8796
 43
1.0000
 50
0.0000
  0
INSERT
  8
17
  2
ROUNDP
 10
34.3593
 20
23.1476
 30
0.0000
 41
1.8796
 42
1.8796
 43
1.0000
 50
0.0000
  0
INSERT
  8
17
  2
ROUNDP
 10
36.8993
 20
20.6076
 30
0.0000
 41
1.8796
 42
1.8796
 43
1.0000
 50
0.0000
  0
INSERT
  8
17
  2
ROUNDP
 10
36.8993
 20
23.1476
 30
0.0000
 41
1.8796
 42
1.8796
 43
1.0000
 50
0.0000
  0
INSERT
  8
17
  2
ROUNDP
 10
39.4393
 20
20.6076
 30
0.0000
 41
1.8796
 42
1.8796
 43
1.0000
 50
0.0000
  0
INSERT
  8
17
  2
ROUNDP
 10
39.4393
 20
23.1476
 30
0.0000
 41
1.8796
 42
1.8796
 43
1.0000
 50
0.0000
  0
INSERT
  8
17
  2
ROUNDP
 10
41.9793
 20
20.6076
 30
0.0000
 41
1.8796
 42
1.8796
 43
1.0000
 50
0.0000
  0
INSERT
  8
17
  2
ROUNDP
 10
41.9793
 20
23.1476
 30
0.0000
 41
1.8796
 42
1.8796
 43
1.0000
 50
0.0000
  0
INSERT
  8
17
  2
ROUNDP
 10
44.5193
 20
20.6076
 30
0.0000
 41
1.8796
 42
1.8796
 43
1.0000
 50
0.0000
  0
INSERT
  8
17
  2
ROUNDP
 10
44.5193
 20
23.1476
 30
0.0000
 41
1.8796
 42
1.8796
 43
1.0000
 50
0.0000
  0
INSERT
  8
17
  2
ROUNDP
 10
47.0593
 20
20.6076
 30
0.0000
 41
1.8796
 42
1.8796
 43
1.0000
 50
0.0000
  0
INSERT
  8
17
  2
ROUNDP
 10
47.0593
 20
23.1476
 30
0.0000
 41
1.8796
 42
1.8796
 43
1.0000
 50
0.0000
  0
INSERT
  8
17
  2
ROUNDP
 10
49.5993
 20
20.6076
 30
0.0000
 41
1.8796
 42
1.8796
 43
1.0000
 50
0.0000
  0
INSERT
  8
17
  2
ROUNDP
 10
49.5993
 20
23.1476
 30
0.0000
 41
1.8796
 42
1.8796
 43
1.0000
 50
0.0000
  0
INSERT
  8
17
  2
ROUNDP
 10
52.1393
 20
20.6076
 30
0.0000
 41
1.8796
 42
1.8796
 43
1.0000
 50
0.0000
  0
INSERT
  8
17
  2
ROUNDP
 10
52.1393
 20
23.1476
 30
0.0000
 41
1.8796
 42
1.8796
 43
1.0000
 50
0.0000
  0
INSERT
  8
17
  2
ROUNDP
 10
54.6793
 20
20.6076
 30
0.0000
 41
1.8796
 42
1.8796
 43
1.0000
 50
0.0000
  0
INSERT
  8
17
  2
ROUNDP
 10
54.6793
 20
23.1476
 30
0.0000
 41
1.8796
 42
1.8796
 43
1.0000
 50
0.0000
  0
INSERT
  8
17
  2
ROUNDP
 10
57.2193
 20
20.6076
 30
0.0000
 41
1.8796
 42
1.8796
 43
1.0000
 50
0.0000
  0
INSERT
  8
17
  2
ROUNDP
 10
57.2193
 20
23.1476
 30
0.0000
 41
1.8796
 42
1.8796
 43
1.0000
 50
0.0000
  0
INSERT
  8
17
  2
ROUNDP
 10
59.7593
 20
20.6076
 30
0.0000
 41
1.8796
 42
1.8796
 43
1.0000
 50
0.0000
  0
INSERT
  8
17
  2
ROUNDP
 10
59.7593
 20
23.1476
 30
0.0000
 41
1.8796
 42
1.8796
 43
1.0000
 50
0.0000
  0
INSERT
  8
17
  2
ROUNDP
 10
62.2993
 20
20.6076
 30
0.0000
 41
1.8796
 42
1.8796
 43
1.0000
 50
0.0000
  0
INSERT
  8
17
  2
ROUNDP
 10
62.2993
 20
23.1476
 30
0.0000
 41
1.8796
 42
1.8796
 43
1.0000
 50
0.0000
  0
INSERT
  8
17
  2
ROUNDP
 10
77.4633
 20
6.7414
 30
0.0000
 41
1.1480
 42
1.1480
 43
1.0000
 50
0.0000
  0
INSERT
  8
17
  2
ROUNDP
 10
79.9633
 20
6.7414
 30
0.0000
 41
1.1480
 42
1.1480
 43
1.0000
 50
0.0000
  0
INSERT
  8
17
  2
ROUNDP
 10
68.6090
 20
56.4139
 30
0.0000
 41
1.1480
 42
1.1480
 43
1.0000
 50
90.0000
  0
INSERT
  8
17
  2
ROUNDP
 10
68.6090
 20
58.9139
 30
0.0000
 41
1.1480
 42
1.1480
 43
1.0000
 50
90.0000
  0
INSERT
  8
17
  2
LONGP100
 10
47.6397
 20
32.1100
 30
0.0000
 41
1.5240
 42
1.5240
 43
1.0000
 50
0.0000
  0
INSERT
  8
17
  2
LONGP100
 10
47.6397
 20
34.6500
 30
0.0000
 41
1.5240
 42
1.5240
 43
1.0000
 50
0.0000
  0
INSERT
  8
17
  2
LONGP100
 10
47.6397
 20
37.1900
 30
0.0000
 41
1.5240
 42
1.5240
 43
1.0000
 50
0.0000
  0
INSERT
  8
17
  2
LONGP100
 10
47.6397
 20
39.7300
 30
0.0000
 41
1.5240
 42
1.5240
 43
1.0000
 50
0.0000
  0
INSERT
  8
17
  2
LONGP100
 10
47.6397
 20
42.2700
 30
0.0000
 41
1.5240
 42
1.5240
 43
1.0000
 50
0.0000
  0
INSERT
  8
17
  2
LONGP100
 10
47.6397
 20
44.8100
 30
0.0000
 41
1.5240
 42
1.5240
 43
1.0000
 50
0.0000
  0
INSERT
  8
17
  2
LONGP100
 10
47.6397
 20
47.3500
 30
0.0000
 41
1.5240
 42
1.5240
 43
1.0000
 50
0.0000
  0
INSERT
  8
17
  2
LONGP100
 10
47.6397
 20
49.8900
 30
0.0000
 41
1.5240
 42
1.5240
 43
1.0000
 50
0.0000
  0
INSERT
  8
17
  2
LONGP100
 10
62.2803
 20
49.8900
 30
0.0000
 41
1.5240
 42
1.5240
 43
1.0000
 50
0.0000
  0
INSERT
  8
17
  2
LONGP100
 10
62.2803
 20
47.3500
 30
0.0000
 41
1.5240
 42
1.5240
 43
1.0000
 50
0.0000
  0
INSERT
  8
17
  2
LONGP100
 10
62.2803
 20
44.8100
 30
0.0000
 41
1.5240
 42
1.5240
 43
1.0000
 50
0.0000
  0
INSERT
  8
17
  2
LONGP100
 10
62.2803
 20
42.2700
 30
0.0000
 41
1.5240
 42
1.5240
 43
1.0000
 50
0.0000
  0
INSERT
  8
17
  2
LONGP100
 10
62.2803
 20
39.7300
 30
0.0000
 41
1.5240
 42
1.5240
 43
1.0000
 50
0.0000
  0
INSERT
  8
17
  2
LONGP100
 10
62.2803
 20
37.1900
 30
0.0000
 41
1.5240
 42
1.5240
 43
1.0000
 50
0.0000
  0
INSERT
  8
17
  2
LONGP100
 10
62.2803
 20
34.6500
 30
0.0000
 41
1.5240
 42
1.5240
 43
1.0000
 50
0.0000
  0
INSERT
  8
17
  2
LONGP100
 10
62.2803
 20
32.1100
 30
0.0000
 41
1.5240
 42
1.5240
 43
1.0000
 50
0.0000
  0
INSERT
  8
17
  2
SQUAREP
 10
74.9228
 20
16.2537
 30
0.0000
 41
3.8100
 42
3.8100
 43
1.0000
 50
90.0000
  0
INSERT
  8
17
  2
SQUAREP
 10
95.4228
 20
16.2537
 30
0.0000
 41
3.8100
 42
3.8100
 43
1.0000
 50
90.0000
  0
INSERT
  8
17
  2
SQUAREP
 10
74.9228
 20
65.7537
 30
0.0000
 41
3.8100
 42
3.8100
 43
1.0000
 50
90.0000
  0
INSERT
  8
17
  2
SQUAREP
 10
95.4228
 20
65.7537
 30
0.0000
 41
3.8100
 42
3.8100
 43
1.0000
 50
90.0000
  0
INSERT
  8
17
  2
ROUNDP
 10
9.9865
 20
34.1967
 30
0.0000
 41
1.6764
 42
1.6764
 43
1.0000
 50
90.0000
  0
INSERT
  8
17
  2
ROUNDP
 10
12.5265
 20
34.1967
 30
0.0000
 41
1.6764
 42
1.6764
 43
1.0000
 50
90.0000
  0
INSERT
  8
17
  2
ROUNDP
 10
15.0665
 20
34.1967
 30
0.0000
 41
1.6764
 42
1.6764
 43
1.0000
 50
90.0000
  0
INSERT
  8
17
  2
ROUNDP
 10
17.6065
 20
34.1967
 30
0.0000
 41
1.6764
 42
1.6764
 43
1.0000
 50
90.0000
  0
INSERT
  8
17
  2
ROUNDP
 10
20.1465
 20
34.1967
 30
0.0000
 41
1.6764
 42
1.6764
 43
1.0000
 50
90.0000
  0
INSERT
  8
17
  2
ROUNDP
 10
22.6865
 20
34.1967
 30
0.0000
 41
1.6764
 42
1.6764
 43
1.0000
 50
90.0000
  0
INSERT
  8
17
  2
ROUNDP
 10
25.2265
 20
34.1967
 30
0.0000
 41
1.6764
 42
1.6764
 43
1.0000
 50
90.0000
  0
INSERT
  8
17
  2
ROUNDP
 10
27.7665
 20
34.1967
 30
0.0000
 41
1.6764
 42
1.6764
 43
1.0000
 50
90.0000
  0
INSERT
  8
17
  2
ROUNDP
 10
30.3065
 20
34.1967
 30
0.0000
 41
1.6764
 42
1.6764
 43
1.0000
 50
90.0000
  0
INSERT
  8
17
  2
ROUNDP
 10
32.8465
 20
34.1967
 30
0.0000
 41
1.6764
 42
1.6764
 43
1.0000
 50
90.0000
  0
INSERT
  8
17
  2
ROUNDP
 10
35.3865
 20
34.1967
 30
0.0000
 41
1.6764
 42
1.6764
 43
1.0000
 50
90.0000
  0
INSERT
  8
17
  2
ROUNDP
 10
37.9265
 20
34.1967
 30
0.0000
 41
1.6764
 42
1.6764
 43
1.0000
 50
90.0000
  0
INSERT
  8
17
  2
ROUNDP
 10
37.9265
 20
49.4367
 30
0.0000
 41
1.6764
 42
1.6764
 43
1.0000
 50
270.0000
  0
INSERT
  8
17
  2
ROUNDP
 10
35.3865
 20
49.4367
 30
0.0000
 41
1.6764
 42
1.6764
 43
1.0000
 50
270.0000
  0
INSERT
  8
17
  2
ROUNDP
 10
32.8465
 20
49.4367
 30
0.0000
 41
1.6764
 42
1.6764
 43
1.0000
 50
270.0000
  0
INSERT
  8
17
  2
ROUNDP
 10
30.3065
 20
49.4367
 30
0.0000
 41
1.6764
 42
1.6764
 43
1.0000
 50
270.0000
  0
INSERT
  8
17
  2
ROUNDP
 10
27.7665
 20
49.4367
 30
0.0000
 41
1.6764
 42
1.6764
 43
1.0000
 50
270.0000
  0
INSERT
  8
17
  2
ROUNDP
 10
25.2265
 20
49.4367
 30
0.0000
 41
1.6764
 42
1.6764
 43
1.0000
 50
270.0000
  0
INSERT
  8
17
  2
ROUNDP
 10
22.6865
 20
49.4367
 30
0.0000
 41
1.6764
 42
1.6764
 43
1.0000
 50
270.0000
  0
INSERT
  8
17
  2
ROUNDP
 10
20.1465
 20
49.4367
 30
0.0000
 41
1.6764
 42
1.6764
 43
1.0000
 50
270.0000
  0
INSERT
  8
17
  2
ROUNDP
 10
17.6065
 20
49.4367
 30
0.0000
 41
1.6764
 42
1.6764
 43
1.0000
 50
270.0000
  0
INSERT
  8
17
  2
ROUNDP
 10
15.0665
 20
49.4367
 30
0.0000
 41
1.6764
 42
1.6764
 43
1.0000
 50
270.0000
  0
INSERT
  8
17
  2
ROUNDP
 10
12.5265
 20
49.4367
 30
0.0000
 41
1.6764
 42
1.6764
 43
1.0000
 50
270.0000
  0
INSERT
  8
17
  2
ROUNDP
 10
9.9865
 20
49.4367
 30
0.0000
 41
1.6764
 42
1.6764
 43
1.0000
 50
270.0000
  0
INSERT
  8
17
  2
LONGP100
 10
90.0673
 20
6.6387
 30
0.0000
 41
1.7000
 42
1.7000
 43
1.0000
 50
90.0000
  0
INSERT
  8
17
  2
LONGP100
 10
93.5673
 20
6.6387
 30
0.0000
 41
1.7000
 42
1.7000
 43
1.0000
 50
90.0000
  0
POLYLINE
  8
1
 66
1
 10
0.0000
 20
0.0000
 30
0.0000
 40
1.5000
 41
1.5000
 70
0
  0
VERTEX
  8
1
 10
77.4633
 20
6.7414
 30
0.0000
  0
VERTEX
  8
1
 10
77.5000
 20
6.7047
 30
0.0000
  0
SEQEND
  8
0
  0
POLYLINE
  8
1
 66
1
 10
0.0000
 20
0.0000
 30
0.0000
 40
0.7500
 41
0.7500
 70
0
  0
VERTEX
  8
1
 10
77.2348
 20
6.4395
 30
0.0000
 42
1.0000
  0
VERTEX
  8
1
 10
77.7652
 20
6.9699
 30
0.0000
  0
SEQEND
  8
0
  0
POLYLINE
  8
1
 66
1
 10
0.0000
 20
0.0000
 30
0.0000
 40
0.7500
 41
0.7500
 70
0
  0
VERTEX
  8
1
 10
77.7285
 20
7.0066
 30
0.0000
 42
1.0000
  0
VERTEX
  8
1
 10
77.1981
 20
6.4762
 30
0.0000
  0
SEQEND
  8
0
  0
POLYLINE
  8
1
 66
1
 10
0.0000
 20
0.0000
 30
0.0000
 40
1.5000
 41
1.5000
 70
0
  0
VERTEX
  8
1
 10
77.5000
 20
6.7047
 30
0.0000
  0
VERTEX
  8
1
 10
77.5000
 20
3.2500
 30
0.0000
  0
SEQEND
  8
0
  0
POLYLINE
  8
1
 66
1
 10
0.0000
 20
0.0000
 30
0.0000
 40
0.7500
 41
0.7500
 70
0
  0
VERTEX
  8
1
 10
77.1250
 20
3.2500
 30
0.0000
 42
1.0000
  0
VERTEX
  8
1
 10
77.8750
 20
3.2500
 30
0.0000
  0
SEQEND
  8
0
  0
POLYLINE
  8
1
 66
1
 10
0.0000
 20
0.0000
 30
0.0000
 40
0.7500
 41
0.7500
 70
0
  0
VERTEX
  8
1
 10
77.8750
 20
6.7047
 30
0.0000
 42
1.0000
  0
VERTEX
  8
1
 10
77.1250
 20
6.7047
 30
0.0000
  0
SEQEND
  8
0
  0
POLYLINE
  8
1
 66
1
 10
0.0000
 20
0.0000
 30
0.0000
 40
1.5000
 41
1.5000
 70
0
  0
VERTEX
  8
1
 10
77.5000
 20
3.2500
 30
0.0000
  0
VERTEX
  8
1
 10
79.0000
 20
1.7500
 30
0.0000
  0
SEQEND
  8
0
  0
POLYLINE
  8
1
 66
1
 10
0.0000
 20
0.0000
 30
0.0000
 40
0.7500
 41
0.7500
 70
0
  0
VERTEX
  8
1
 10
78.7348
 20
1.4848
 30
0.0000
 42
1.0000
  0
VERTEX
  8
1
 10
79.2652
 20
2.0152
 30
0.0000
  0
SEQEND
  8
0
  0
POLYLINE
  8
1
 66
1
 10
0.0000
 20
0.0000
 30
0.0000
 40
0.7500
 41
0.7500
 70
0
  0
VERTEX
  8
1
 10
77.7652
 20
3.5152
 30
0.0000
 42
1.0000
  0
VERTEX
  8
1
 10
77.2348
 20
2.9848
 30
0.0000
  0
SEQEND
  8
0
  0
POLYLINE
  8
1
 66
1
 10
0.0000
 20
0.0000
 30
0.0000
 40
1.5000
 41
1.5000
 70
0
  0
VERTEX
  8
1
 10
79.0000
 20
1.7500
 30
0.0000
  0
VERTEX
  8
1
 10
88.0000
 20
1.7500
 30
0.0000
  0
SEQEND
  8
0
  0
POLYLINE
  8
1
 66
1
 10
0.0000
 20
0.0000
 30
0.0000
 40
0.7500
 41
0.7500
 70
0
  0
VERTEX
  8
1
 10
88.0000
 20
1.3750
 30
0.0000
 42
1.0000
  0
VERTEX
  8
1
 10
88.0000
 20
2.1250
 30
0.0000
  0
SEQEND
  8
0
  0
POLYLINE
  8
1
 66
1
 10
0.0000
 20
0.0000
 30
0.0000
 40
0.7500
 41
0.7500
 70
0
  0
VERTEX
  8
1
 10
79.0000
 20
2.1250
 30
0.0000
 42
1.0000
  0
VERTEX
  8
1
 10
79.0000
 20
1.3750
 30
0.0000
  0
SEQEND
  8
0
  0
POLYLINE
  8
1
 66
1
 10
0.0000
 20
0.0000
 30
0.0000
 40
1.5000
 41
1.5000
 70
0
  0
VERTEX
  8
1
 10
88.0000
 20
1.7500
 30
0.0000
  0
VERTEX
  8
1
 10
90.0673
 20
3.8173
 30
0.0000
  0
SEQEND
  8
0
  0
POLYLINE
  8
1
 66
1
 10
0.0000
 20
0.0000
 30
0.0000
 40
0.7500
 41
0.7500
 70
0
  0
VERTEX
  8
1
 10
90.3325
 20
3.5521
 30
0.0000
 42
1.0000
  0
VERTEX
  8
1
 10
89.8021
 20
4.0825
 30
0.0000
  0
SEQEND
  8
0
  0
POLYLINE
  8
1
 66
1
 10
0.0000
 20
0.0000
 30
0.0000
 40
0.7500
 41
0.7500
 70
0
  0
VERTEX
  8
1
 10
87.7348
 20
2.0152
 30
0.0000
 42
1.0000
  0
VERTEX
  8
1
 10
88.2652
 20
1.4848
 30
0.0000
  0
SEQEND
  8
0
  0
POLYLINE
  8
1
 66
1
 10
0.0000
 20
0.0000
 30
0.0000
 40
1.5000
 41
1.5000
 70
0
  0
VERTEX
  8
1
 10
90.0673
 20
3.8173
 30
0.0000
  0
VERTEX
  8
1
 10
90.0673
 20
6.6387
 30
0.0000
  0
SEQEND
  8
0
  0
POLYLINE
  8
1
 66
1
 10
0.0000
 20
0.0000
 30
0.0000
 40
0.7500
 41
0.7500
 70
0
  0
VERTEX
  8
1
 10
90.4423
 20
6.6387
 30
0.0000
 42
1.0000
  0
VERTEX
  8
1
 10
89.6923
 20
6.6387
 30
0.0000
  0
SEQEND
  8
0
  0
POLYLINE
  8
1
 66
1
 10
0.0000
 20
0.0000
 30
0.0000
 40
0.7500
 41
0.7500
 70
0
  0
VERTEX
  8
1
 10
89.6923
 20
3.8173
 30
0.0000
 42
1.0000
  0
VERTEX
  8
1
 10
90.4423
 20
3.8173
 30
0.0000
  0
SEQEND
  8
0
  0
POLYLINE
  8
1
 66
1
 10
0.0000
 20
0.0000
 30
0.0000
 40
1.5000
 41
1.5000
 70
0
  0
VERTEX
  8
1
 10
50.0000
 20
63.8100
 30
0.0000
  0
VERTEX
  8
1
 10
39.0600
 20
63.8100
 30
0.0000
  0
SEQEND
  8
0
  0
POLYLINE
  8
1
 66
1
 10
0.0000
 20
0.0000
 30
0.0000
 40
0.7500
 41
0.7500
 70
0
  0
VERTEX
  8
1
 10
39.0600
 20
64.1850
 30
0.0000
 42
1.0000
  0
VERTEX
  8
1
 10
39.0600
 20
63.4350
 30
0.0000
  0
SEQEND
  8
0
  0
POLYLINE
  8
1
 66
1
 10
0.0000
 20
0.0000
 30
0.0000
 40
0.7500
 41
0.7500
 70
0
  0
VERTEX
  8
1
 10
50.0000
 20
63.4350
 30
0.0000
 42
1.0000
  0
VERTEX
  8
1
 10
50.0000
 20
64.1850
 30
0.0000
  0
SEQEND
  8
0
  0
POLYLINE
  8
1
 66
1
 10
0.0000
 20
0.0000
 30
0.0000
 40
1.5000
 41
1.5000
 70
0
  0
VERTEX
  8
1
 10
39.0600
 20
63.8100
 30
0.0000
  0
VERTEX
  8
1
 10
39.0000
 20
63.7500
 30
0.0000
  0
SEQEND
  8
0
  0
POLYLINE
  8
1
 66
1
 10
0.0000
 20
0.0000
 30
0.0000
 40
0.7500
 41
0.7500
 70
0
  0
VERTEX
  8
1
 10
38.7348
 20
64.0152
 30
0.0000
 42
1.0000
  0
VERTEX
  8
1
 10
39.2652
 20
63.4848
 30
0.0000
  0
SEQEND
  8
0
  0
POLYLINE
  8
1
 66
1
 10
0.0000
 20
0.0000
 30
0.0000
 40
0.7500
 41
0.7500
 70
0
  0
VERTEX
  8
1
 10
39.3252
 20
63.5448
 30
0.0000
 42
1.0000
  0
VERTEX
  8
1
 10
38.7948
 20
64.0752
 30
0.0000
  0
SEQEND
  8
0
  0
POLYLINE
  8
1
 66
1
 10
0.0000
 20
0.0000
 30
0.0000
 40
1.5000
 41
1.5000
 70
0
  0
VERTEX
  8
1
 10
39.0000
 20
63.7500
 30
0.0000
  0
VERTEX
  8
1
 10
30.0600
 20
63.7500
 30
0.0000
  0
SEQEND
  8
0
  0
POLYLINE
  8
1
 66
1
 10
0.0000
 20
0.0000
 30
0.0000
 40
0.7500
 41
0.7500
 70
0
  0
VERTEX
  8
1
 10
30.0600
 20
64.1250
 30
0.0000
 42
1.0000
  0
VERTEX
  8
1
 10
30.0600
 20
63.3750
 30
0.0000
  0
SEQEND
  8
0
  0
POLYLINE
  8
1
 66
1
 10
0.0000
 20
0.0000
 30
0.0000
 40
0.7500
 41
0.7500
 70
0
  0
VERTEX
  8
1
 10
39.0000
 20
63.3750
 30
0.0000
 42
1.0000
  0
VERTEX
  8
1
 10
39.0000
 20
64.1250
 30
0.0000
  0
SEQEND
  8
0
  0
POLYLINE
  8
1
 66
1
 10
0.0000
 20
0.0000
 30
0.0000
 40
1.5000
 41
1.5000
 70
0
  0
VERTEX
  8
1
 10
30.0600
 20
63.7500
 30
0.0000
  0
VERTEX
  8
1
 10
30.0000
 20
63.8100
 30
0.0000
  0
SEQEND
  8
0
  0
POLYLINE
  8
1
 66
1
 10
0.0000
 20
0.0000
 30
0.0000
 40
0.7500
 41
0.7500
 70
0
  0
VERTEX
  8
1
 10
30.2652
 20
64.0752
 30
0.0000
 42
1.0000
  0
VERTEX
  8
1
 10
29.7348
 20
63.5448
 30
0.0000
  0
SEQEND
  8
0
  0
POLYLINE
  8
1
 66
1
 10
0.0000
 20
0.0000
 30
0.0000
 40
0.7500
 41
0.7500
 70
0
  0
VERTEX
  8
1
 10
29.7948
 20
63.4848
 30
0.0000
 42
1.0000
  0
VERTEX
  8
1
 10
30.3252
 20
64.0152
 30
0.0000
  0
SEQEND
  8
0
  0
POLYLINE
  8
1
 66
1
 10
0.0000
 20
0.0000
 30
0.0000
 40
1.5000
 41
1.5000
 70
0
  0
VERTEX
  8
1
 10
30.0000
 20
63.8100
 30
0.0000
  0
VERTEX
  8
1
 10
20.0000
 20
63.8100
 30
0.0000
  0
SEQEND
  8
0
  0
POLYLINE
  8
1
 66
1
 10
0.0000
 20
0.0000
 30
0.0000
 40
0.7500
 41
0.7500
 70
0
  0
VERTEX
  8
1
 10
20.0000
 20
64.1850
 30
0.0000
 42
1.0000
  0
VERTEX
  8
1
 10
20.0000
 20
63.4350
 30
0.0000
  0
SEQEND
  8
0
  0
POLYLINE
  8
1
 66
1
 10
0.0000
 20
0.0000
 30
0.0000
 40
0.7500
 41
0.7500
 70
0
  0
VERTEX
  8
1
 10
30.0000
 20
63.4350
 30
0.0000
 42
1.0000
  0
VERTEX
  8
1
 10
30.0000
 20
64.1850
 30
0.0000
  0
SEQEND
  8
0
  0
POLYLINE
  8
1
 66
1
 10
0.0000
 20
0.0000
 30
0.0000
 40
1.5000
 41
1.5000
 70
0
  0
VERTEX
  8
1
 10
20.0000
 20
63.8100
 30
0.0000
  0
VERTEX
  8
1
 10
10.0000
 20
63.8100
 30
0.0000
  0
SEQEND
  8
0
  0
POLYLINE
  8
1
 66
1
 10
0.0000
 20
0.0000
 30
0.0000
 40
0.7500
 41
0.7500
 70
0
  0
VERTEX
  8
1
 10
10.0000
 20
64.1850
 30
0.0000
 42
1.0000
  0
VERTEX
  8
1
 10
10.0000
 20
63.4350
 30
0.0000
  0
SEQEND
  8
0
  0
POLYLINE
  8
1
 66
1
 10
0.0000
 20
0.0000
 30
0.0000
 40
0.7500
 41
0.7500
 70
0
  0
VERTEX
  8
1
 10
20.0000
 20
63.4350
 30
0.0000
 42
1.0000
  0
VERTEX
  8
1
 10
20.0000
 20
64.1850
 30
0.0000
  0
SEQEND
  8
0
  0
POLYLINE
  8
1
 66
1
 10
0.0000
 20
0.0000
 30
0.0000
 40
1.5000
 41
1.5000
 70
0
  0
VERTEX
  8
1
 10
6.8100
 20
63.8100
 30
0.0000
  0
VERTEX
  8
1
 10
10.0000
 20
63.8100
 30
0.0000
  0
SEQEND
  8
0
  0
POLYLINE
  8
1
 66
1
 10
0.0000
 20
0.0000
 30
0.0000
 40
0.7500
 41
0.7500
 70
0
  0
VERTEX
  8
1
 10
10.0000
 20
63.4350
 30
0.0000
 42
1.0000
  0
VERTEX
  8
1
 10
10.0000
 20
64.1850
 30
0.0000
  0
SEQEND
  8
0
  0
POLYLINE
  8
1
 66
1
 10
0.0000
 20
0.0000
 30
0.0000
 40
0.7500
 41
0.7500
 70
0
  0
VERTEX
  8
1
 10
6.8100
 20
64.1850
 30
0.0000
 42
1.0000
  0
VERTEX
  8
1
 10
6.8100
 20
63.4350
 30
0.0000
  0
SEQEND
  8
0
  0
POLYLINE
  8
1
 66
1
 10
0.0000
 20
0.0000
 30
0.0000
 40
1.5000
 41
1.5000
 70
0
  0
VERTEX
  8
1
 10
4.2500
 20
61.2500
 30
0.0000
  0
VERTEX
  8
1
 10
6.8100
 20
63.8100
 30
0.0000
  0
SEQEND
  8
0
  0
POLYLINE
  8
1
 66
1
 10
0.0000
 20
0.0000
 30
0.0000
 40
0.7500
 41
0.7500
 70
0
  0
VERTEX
  8
1
 10
7.0752
 20
63.5448
 30
0.0000
 42
1.0000
  0
VERTEX
  8
1
 10
6.5448
 20
64.0752
 30
0.0000
  0
SEQEND
  8
0
  0
POLYLINE
  8
1
 66
1
 10
0.0000
 20
0.0000
 30
0.0000
 40
0.7500
 41
0.7500
 70
0
  0
VERTEX
  8
1
 10
3.9848
 20
61.5152
 30
0.0000
 42
1.0000
  0
VERTEX
  8
1
 10
4.5152
 20
60.9848
 30
0.0000
  0
SEQEND
  8
0
  0
POLYLINE
  8
1
 66
1
 10
0.0000
 20
0.0000
 30
0.0000
 40
1.5000
 41
1.5000
 70
0
  0
VERTEX
  8
1
 10
14.0393
 20
20.6076
 30
0.0000
  0
VERTEX
  8
1
 10
11.3576
 20
20.6076
 30
0.0000
  0
SEQEND
  8
0
  0
POLYLINE
  8
1
 66
1
 10
0.0000
 20
0.0000
 30
0.0000
 40
0.7500
 41
0.7500
 70
0
  0
VERTEX
  8
1
 10
11.3576
 20
20.9826
 30
0.0000
 42
1.0000
  0
VERTEX
  8
1
 10
11.3576
 20
20.2326
 30
0.0000
  0
SEQEND
  8
0
  0
POLYLINE
  8
1
 66
1
 10
0.0000
 20
0.0000
 30
0.0000
 40
0.7500
 41
0.7500
 70
0
  0
VERTEX
  8
1
 10
14.0393
 20
20.2326
 30
0.0000
 42
1.0000
  0
VERTEX
  8
1
 10
14.0393
 20
20.9826
 30
0.0000
  0
SEQEND
  8
0
  0
POLYLINE
  8
1
 66
1
 10
0.0000
 20
0.0000
 30
0.0000
 40
1.5000
 41
1.5000
 70
0
  0
VERTEX
  8
1
 10
11.3576
 20
20.6076
 30
0.0000
  0
VERTEX
  8
1
 10
11.2500
 20
20.5000
 30
0.0000
  0
SEQEND
  8
0
  0
POLYLINE
  8
1
 66
1
 10
0.0000
 20
0.0000
 30
0.0000
 40
0.7500
 41
0.7500
 70
0
  0
VERTEX
  8
1
 10
10.9848
 20
20.7652
 30
0.0000
 42
1.0000
  0
VERTEX
  8
1
 10
11.5152
 20
20.2348
 30
0.0000
  0
SEQEND
  8
0
  0
POLYLINE
  8
1
 66
1
 10
0.0000
 20
0.0000
 30
0.0000
 40
0.7500
 41
0.7500
 70
0
  0
VERTEX
  8
1
 10
11.6228
 20
20.3424
 30
0.0000
 42
1.0000
  0
VERTEX
  8
1
 10
11.0924
 20
20.8728
 30
0.0000
  0
SEQEND
  8
0
  0
INSERT
  8
18
  2
ROUNDV
 10
11.2500
 20
20.5000
 30
0.0000
 41
1.5000
 42
1.5000
 43
1.0000
 50
0.0000
  0
INSERT
  8
18
  2
ROUNDV
 10
11.2500
 20
20.5000
 30
0.0000
 41
1.5000
 42
1.5000
 43
1.0000
 50
0.0000
  0
INSERT
  8
18
  2
ROUNDV
 10
4.2500
 20
61.2500
 30
0.0000
 41
1.5000
 42
1.5000
 43
1.0000
 50
0.0000
  0
INSERT
  8
18
  2
ROUNDV
 10
4.2500
 20
61.2500
 30
0.0000
 41
1.5000
 42
1.5000
 43
1.0000
 50
0.0000
  0
POLYLINE
  8
1
 66
1
 10
0.0000
 20
0.0000
 30
0.0000
 40
1.5000
 41
1.5000
 70
0
  0
VERTEX
  8
1
 10
50.0000
 20
61.2700
 30
0.0000
  0
VERTEX
  8
1
 10
40.0000
 20
61.2700
 30
0.0000
  0
SEQEND
  8
0
  0
POLYLINE
  8
1
 66
1
 10
0.0000
 20
0.0000
 30
0.0000
 40
0.7500
 41
0.7500
 70
0
  0
VERTEX
  8
1
 10
40.0000
 20
61.6450
 30
0.0000
 42
1.0000
  0
VERTEX
  8
1
 10
40.0000
 20
60.8950
 30
0.0000
  0
SEQEND
  8
0
  0
POLYLINE
  8
1
 66
1
 10
0.0000
 20
0.0000
 30
0.0000
 40
0.7500
 41
0.7500
 70
0
  0
VERTEX
  8
1
 10
50.0000
 20
60.8950
 30
0.0000
 42
1.0000
  0
VERTEX
  8
1
 10
50.0000
 20
61.6450
 30
0.0000
  0
SEQEND
  8
0
  0
POLYLINE
  8
1
 66
1
 10
0.0000
 20
0.0000
 30
0.0000
 40
1.5000
 41
1.5000
 70
0
  0
VERTEX
  8
1
 10
40.0000
 20
61.2700
 30
0.0000
  0
VERTEX
  8
1
 10
30.0000
 20
61.2700
 30
0.0000
  0
SEQEND
  8
0
  0
POLYLINE
  8
1
 66
1
 10
0.0000
 20
0.0000
 30
0.0000
 40
0.7500
 41
0.7500
 70
0
  0
VERTEX
  8
1
 10
30.0000
 20
61.6450
 30
0.0000
 42
1.0000
  0
VERTEX
  8
1
 10
30.0000
 20
60.8950
 30
0.0000
  0
SEQEND
  8
0
  0
POLYLINE
  8
1
 66
1
 10
0.0000
 20
0.0000
 30
0.0000
 40
0.7500
 41
0.7500
 70
0
  0
VERTEX
  8
1
 10
40.0000
 20
60.8950
 30
0.0000
 42
1.0000
  0
VERTEX
  8
1
 10
40.0000
 20
61.6450
 30
0.0000
  0
SEQEND
  8
0
  0
POLYLINE
  8
1
 66
1
 10
0.0000
 20
0.0000
 30
0.0000
 40
1.5000
 41
1.5000
 70
0
  0
VERTEX
  8
1
 10
30.0000
 20
61.2700
 30
0.0000
  0
VERTEX
  8
1
 10
20.0000
 20
61.2700
 30
0.0000
  0
SEQEND
  8
0
  0
POLYLINE
  8
1
 66
1
 10
0.0000
 20
0.0000
 30
0.0000
 40
0.7500
 41
0.7500
 70
0
  0
VERTEX
  8
1
 10
20.0000
 20
61.6450
 30
0.0000
 42
1.0000
  0
VERTEX
  8
1
 10
20.0000
 20
60.8950
 30
0.0000
  0
SEQEND
  8
0
  0
POLYLINE
  8
1
 66
1
 10
0.0000
 20
0.0000
 30
0.0000
 40
0.7500
 41
0.7500
 70
0
  0
VERTEX
  8
1
 10
30.0000
 20
60.8950
 30
0.0000
 42
1.0000
  0
VERTEX
  8
1
 10
30.0000
 20
61.6450
 30
0.0000
  0
SEQEND
  8
0
  0
POLYLINE
  8
1
 66
1
 10
0.0000
 20
0.0000
 30
0.0000
 40
1.5000
 41
1.5000
 70
0
  0
VERTEX
  8
1
 10
20.0000
 20
61.2700
 30
0.0000
  0
VERTEX
  8
1
 10
10.0000
 20
61.2700
 30
0.0000
  0
SEQEND
  8
0
  0
POLYLINE
  8
1
 66
1
 10
0.0000
 20
0.0000
 30
0.0000
 40
0.7500
 41
0.7500
 70
0
  0
VERTEX
  8
1
 10
10.0000
 20
61.6450
 30
0.0000
 42
1.0000
  0
VERTEX
  8
1
 10
10.0000
 20
60.8950
 30
0.0000
  0
SEQEND
  8
0
  0
POLYLINE
  8
1
 66
1
 10
0.0000
 20
0.0000
 30
0.0000
 40
0.7500
 41
0.7500
 70
0
  0
VERTEX
  8
1
 10
20.0000
 20
60.8950
 30
0.0000
 42
1.0000
  0
VERTEX
  8
1
 10
20.0000
 20
61.6450
 30
0.0000
  0
SEQEND
  8
0
  0
POLYLINE
  8
1
 66
1
 10
0.0000
 20
0.0000
 30
0.0000
 40
1.5000
 41
1.5000
 70
0
  0
VERTEX
  8
1
 10
50.0000
 20
61.2700
 30
0.0000
  0
VERTEX
  8
1
 10
58.7300
 20
61.2700
 30
0.0000
  0
SEQEND
  8
0
  0
POLYLINE
  8
1
 66
1
 10
0.0000
 20
0.0000
 30
0.0000
 40
0.7500
 41
0.7500
 70
0
  0
VERTEX
  8
1
 10
58.7300
 20
60.8950
 30
0.0000
 42
1.0000
  0
VERTEX
  8
1
 10
58.7300
 20
61.6450
 30
0.0000
  0
SEQEND
  8
0
  0
POLYLINE
  8
1
 66
1
 10
0.0000
 20
0.0000
 30
0.0000
 40
0.7500
 41
0.7500
 70
0
  0
VERTEX
  8
1
 10
50.0000
 20
61.6450
 30
0.0000
 42
1.0000
  0
VERTEX
  8
1
 10
50.0000
 20
60.8950
 30
0.0000
  0
SEQEND
  8
0
  0
POLYLINE
  8
1
 66
1
 10
0.0000
 20
0.0000
 30
0.0000
 40
1.5000
 41
1.5000
 70
0
  0
VERTEX
  8
1
 10
58.7300
 20
61.2700
 30
0.0000
  0
VERTEX
  8
1
 10
61.2500
 20
58.7500
 30
0.0000
  0
SEQEND
  8
0
  0
POLYLINE
  8
1
 66
1
 10
0.0000
 20
0.0000
 30
0.0000
 40
0.7500
 41
0.7500
 70
0
  0
VERTEX
  8
1
 10
60.9848
 20
58.4848
 30
0.0000
 42
1.0000
  0
VERTEX
  8
1
 10
61.5152
 20
59.0152
 30
0.0000
  0
SEQEND
  8
0
  0
POLYLINE
  8
1
 66
1
 10
0.0000
 20
0.0000
 30
0.0000
 40
0.7500
 41
0.7500
 70
0
  0
VERTEX
  8
1
 10
58.9952
 20
61.5352
 30
0.0000
 42
1.0000
  0
VERTEX
  8
1
 10
58.4648
 20
61.0048
 30
0.0000
  0
SEQEND
  8
0
  0
POLYLINE
  8
1
 66
1
 10
0.0000
 20
0.0000
 30
0.0000
 40
1.5000
 41
1.5000
 70
0
  0
VERTEX
  8
1
 10
61.2500
 20
58.7500
 30
0.0000
  0
VERTEX
  8
1
 10
68.4451
 20
58.7500
 30
0.0000
  0
SEQEND
  8
0
  0
POLYLINE
  8
1
 66
1
 10
0.0000
 20
0.0000
 30
0.0000
 40
0.7500
 41
0.7500
 70
0
  0
VERTEX
  8
1
 10
68.4451
 20
58.3750
 30
0.0000
 42
1.0000
  0
VERTEX
  8
1
 10
68.4451
 20
59.1250
 30
0.0000
  0
SEQEND
  8
0
  0
POLYLINE
  8
1
 66
1
 10
0.0000
 20
0.0000
 30
0.0000
 40
0.7500
 41
0.7500
 70
0
  0
VERTEX
  8
1
 10
61.2500
 20
59.1250
 30
0.0000
 42
1.0000
  0
VERTEX
  8
1
 10
61.2500
 20
58.3750
 30
0.0000
  0
SEQEND
  8
0
  0
POLYLINE
  8
1
 66
1
 10
0.0000
 20
0.0000
 30
0.0000
 40
1.5000
 41
1.5000
 70
0
  0
VERTEX
  8
1
 10
68.4451
 20
58.7500
 30
0.0000
  0
VERTEX
  8
1
 10
68.6090
 20
58.9139
 30
0.0000
  0
SEQEND
  8
0
  0
POLYLINE
  8
1
 66
1
 10
0.0000
 20
0.0000
 30
0.0000
 40
0.7500
 41
0.7500
 70
0
  0
VERTEX
  8
1
 10
68.8742
 20
58.6487
 30
0.0000
 42
1.0000
  0
VERTEX
  8
1
 10
68.3438
 20
59.1791
 30
0.0000
  0
SEQEND
  8
0
  0
POLYLINE
  8
1
 66
1
 10
0.0000
 20
0.0000
 30
0.0000
 40
0.7500
 41
0.7500
 70
0
  0
VERTEX
  8
1
 10
68.1799
 20
59.0152
 30
0.0000
 42
1.0000
  0
VERTEX
  8
1
 10
68.7103
 20
58.4848
 30
0.0000
  0
SEQEND
  8
0
  0
POLYLINE
  8
1
 66
1
 10
0.0000
 20
0.0000
 30
0.0000
 40
1.5000
 41
1.5000
 70
0
  0
VERTEX
  8
1
 10
19.1193
 20
23.1476
 30
0.0000
  0
VERTEX
  8
1
 10
19.1193
 20
26.3807
 30
0.0000
  0
SEQEND
  8
0
  0
POLYLINE
  8
1
 66
1
 10
0.0000
 20
0.0000
 30
0.0000
 40
0.7500
 41
0.7500
 70
0
  0
VERTEX
  8
1
 10
19.4943
 20
26.3807
 30
0.0000
 42
1.0000
  0
VERTEX
  8
1
 10
18.7443
 20
26.3807
 30
0.0000
  0
SEQEND
  8
0
  0
POLYLINE
  8
1
 66
1
 10
0.0000
 20
0.0000
 30
0.0000
 40
0.7500
 41
0.7500
 70
0
  0
VERTEX
  8
1
 10
18.7443
 20
23.1476
 30
0.0000
 42
1.0000
  0
VERTEX
  8
1
 10
19.4943
 20
23.1476
 30
0.0000
  0
SEQEND
  8
0
  0
POLYLINE
  8
1
 66
1
 10
0.0000
 20
0.0000
 30
0.0000
 40
1.5000
 41
1.5000
 70
0
  0
VERTEX
  8
1
 10
12.5265
 20
32.9735
 30
0.0000
  0
VERTEX
  8
1
 10
12.5265
 20
34.1967
 30
0.0000
  0
SEQEND
  8
0
  0
POLYLINE
  8
1
 66
1
 10
0.0000
 20
0.0000
 30
0.0000
 40
0.7500
 41
0.7500
 70
0
  0
VERTEX
  8
1
 10
12.9015
 20
34.1967
 30
0.0000
 42
1.0000
  0
VERTEX
  8
1
 10
12.1515
 20
34.1967
 30
0.0000
  0
SEQEND
  8
0
  0
POLYLINE
  8
1
 66
1
 10
0.0000
 20
0.0000
 30
0.0000
 40
0.7500
 41
0.7500
 70
0
  0
VERTEX
  8
1
 10
12.1515
 20
32.9735
 30
0.0000
 42
1.0000
  0
VERTEX
  8
1
 10
12.9015
 20
32.9735
 30
0.0000
  0
SEQEND
  8
0
  0
POLYLINE
  8
1
 66
1
 10
0.0000
 20
0.0000
 30
0.0000
 40
1.5000
 41
1.5000
 70
0
  0
VERTEX
  8
1
 10
19.1193
 20
26.3807
 30
0.0000
  0
VERTEX
  8
1
 10
12.5265
 20
32.9735
 30
0.0000
  0
SEQEND
  8
0
  0
POLYLINE
  8
1
 66
1
 10
0.0000
 20
0.0000
 30
0.0000
 40
0.7500
 41
0.7500
 70
0
  0
VERTEX
  8
1
 10
12.7917
 20
33.2387
 30
0.0000
 42
1.0000
  0
VERTEX
  8
1
 10
12.2613
 20
32.7083
 30
0.0000
  0
SEQEND
  8
0
  0
POLYLINE
  8
1
 66
1
 10
0.0000
 20
0.0000
 30
0.0000
 40
0.7500
 41
0.7500
 70
0
  0
VERTEX
  8
1
 10
18.8541
 20
26.1155
 30
0.0000
 42
1.0000
  0
VERTEX
  8
1
 10
19.3845
 20
26.6459
 30
0.0000
  0
SEQEND
  8
0
  0
POLYLINE
  8
1
 66
1
 10
0.0000
 20
0.0000
 30
0.0000
 40
1.5000
 41
1.5000
 70
0
  0
VERTEX
  8
1
 10
62.2803
 20
47.3500
 30
0.0000
  0
VERTEX
  8
1
 10
70.1000
 20
47.3500
 30
0.0000
  0
SEQEND
  8
0
  0
POLYLINE
  8
1
 66
1
 10
0.0000
 20
0.0000
 30
0.0000
 40
0.7500
 41
0.7500
 70
0
  0
VERTEX
  8
1
 10
70.1000
 20
46.9750
 30
0.0000
 42
1.0000
  0
VERTEX
  8
1
 10
70.1000
 20
47.7250
 30
0.0000
  0
SEQEND
  8
0
  0
POLYLINE
  8
1
 66
1
 10
0.0000
 20
0.0000
 30
0.0000
 40
0.7500
 41
0.7500
 70
0
  0
VERTEX
  8
1
 10
62.2803
 20
47.7250
 30
0.0000
 42
1.0000
  0
VERTEX
  8
1
 10
62.2803
 20
46.9750
 30
0.0000
  0
SEQEND
  8
0
  0
POLYLINE
  8
1
 66
1
 10
0.0000
 20
0.0000
 30
0.0000
 40
1.5000
 41
1.5000
 70
0
  0
VERTEX
  8
1
 10
70.1000
 20
47.3500
 30
0.0000
  0
VERTEX
  8
1
 10
74.7500
 20
52.0000
 30
0.0000
  0
SEQEND
  8
0
  0
POLYLINE
  8
1
 66
1
 10
0.0000
 20
0.0000
 30
0.0000
 40
0.7500
 41
0.7500
 70
0
  0
VERTEX
  8
1
 10
75.0152
 20
51.7348
 30
0.0000
 42
1.0000
  0
VERTEX
  8
1
 10
74.4848
 20
52.2652
 30
0.0000
  0
SEQEND
  8
0
  0
POLYLINE
  8
1
 66
1
 10
0.0000
 20
0.0000
 30
0.0000
 40
0.7500
 41
0.7500
 70
0
  0
VERTEX
  8
1
 10
69.8348
 20
47.6152
 30
0.0000
 42
1.0000
  0
VERTEX
  8
1
 10
70.3652
 20
47.0848
 30
0.0000
  0
SEQEND
  8
0
  0
POLYLINE
  8
1
 66
1
 10
0.0000
 20
0.0000
 30
0.0000
 40
1.5000
 41
1.5000
 70
0
  0
VERTEX
  8
1
 10
74.7500
 20
52.0000
 30
0.0000
  0
VERTEX
  8
1
 10
74.7500
 20
57.2500
 30
0.0000
  0
SEQEND
  8
0
  0
POLYLINE
  8
1
 66
1
 10
0.0000
 20
0.0000
 30
0.0000
 40
0.7500
 41
0.7500
 70
0
  0
VERTEX
  8
1
 10
75.1250
 20
57.2500
 30
0.0000
 42
1.0000
  0
VERTEX
  8
1
 10
74.3750
 20
57.2500
 30
0.0000
  0
SEQEND
  8
0
  0
POLYLINE
  8
1
 66
1
 10
0.0000
 20
0.0000
 30
0.0000
 40
0.7500
 41
0.7500
 70
0
  0
VERTEX
  8
1
 10
74.3750
 20
52.0000
 30
0.0000
 42
1.0000
  0
VERTEX
  8
1
 10
75.1250
 20
52.0000
 30
0.0000
  0
SEQEND
  8
0
  0
POLYLINE
  8
1
 66
1
 10
0.0000
 20
0.0000
 30
0.0000
 40
1.5000
 41
1.5000
 70
0
  0
VERTEX
  8
1
 10
74.7500
 20
57.2500
 30
0.0000
  0
VERTEX
  8
1
 10
73.2500
 20
58.7500
 30
0.0000
  0
SEQEND
  8
0
  0
POLYLINE
  8
1
 66
1
 10
0.0000
 20
0.0000
 30
0.0000
 40
0.7500
 41
0.7500
 70
0
  0
VERTEX
  8
1
 10
73.5152
 20
59.0152
 30
0.0000
 42
1.0000
  0
VERTEX
  8
1
 10
72.9848
 20
58.4848
 30
0.0000
  0
SEQEND
  8
0
  0
POLYLINE
  8
1
 66
1
 10
0.0000
 20
0.0000
 30
0.0000
 40
0.7500
 41
0.7500
 70
0
  0
VERTEX
  8
1
 10
74.4848
 20
56.9848
 30
0.0000
 42
1.0000
  0
VERTEX
  8
1
 10
75.0152
 20
57.5152
 30
0.0000
  0
SEQEND
  8
0
  0
POLYLINE
  8
1
 66
1
 10
0.0000
 20
0.0000
 30
0.0000
 40
1.5000
 41
1.5000
 70
0
  0
VERTEX
  8
1
 10
73.2500
 20
58.7500
 30
0.0000
  0
VERTEX
  8
1
 10
68.4451
 20
58.7500
 30
0.0000
  0
SEQEND
  8
0
  0
POLYLINE
  8
1
 66
1
 10
0.0000
 20
0.0000
 30
0.0000
 40
0.7500
 41
0.7500
 70
0
  0
VERTEX
  8
1
 10
68.4451
 20
59.1250
 30
0.0000
 42
1.0000
  0
VERTEX
  8
1
 10
68.4451
 20
58.3750
 30
0.0000
  0
SEQEND
  8
0
  0
POLYLINE
  8
1
 66
1
 10
0.0000
 20
0.0000
 30
0.0000
 40
0.7500
 41
0.7500
 70
0
  0
VERTEX
  8
1
 10
73.2500
 20
58.3750
 30
0.0000
 42
1.0000
  0
VERTEX
  8
1
 10
73.2500
 20
59.1250
 30
0.0000
  0
SEQEND
  8
0
  0
POLYLINE
  8
1
 66
1
 10
0.0000
 20
0.0000
 30
0.0000
 40
1.5000
 41
1.5000
 70
0
  0
VERTEX
  8
1
 10
49.5993
 20
23.1476
 30
0.0000
  0
VERTEX
  8
1
 10
55.0000
 20
28.5483
 30
0.0000
  0
SEQEND
  8
0
  0
POLYLINE
  8
1
 66
1
 10
0.0000
 20
0.0000
 30
0.0000
 40
0.7500
 41
0.7500
 70
0
  0
VERTEX
  8
1
 10
55.2652
 20
28.2831
 30
0.0000
 42
1.0000
  0
VERTEX
  8
1
 10
54.7348
 20
28.8135
 30
0.0000
  0
SEQEND
  8
0
  0
POLYLINE
  8
1
 66
1
 10
0.0000
 20
0.0000
 30
0.0000
 40
0.7500
 41
0.7500
 70
0
  0
VERTEX
  8
1
 10
49.3341
 20
23.4128
 30
0.0000
 42
1.0000
  0
VERTEX
  8
1
 10
49.8645
 20
22.8824
 30
0.0000
  0
SEQEND
  8
0
  0
POLYLINE
  8
1
 66
1
 10
0.0000
 20
0.0000
 30
0.0000
 40
1.5000
 41
1.5000
 70
0
  0
VERTEX
  8
1
 10
55.0000
 20
28.5483
 30
0.0000
  0
VERTEX
  8
1
 10
55.0000
 20
43.0000
 30
0.0000
  0
SEQEND
  8
0
  0
POLYLINE
  8
1
 66
1
 10
0.0000
 20
0.0000
 30
0.0000
 40
0.7500
 41
0.7500
 70
0
  0
VERTEX
  8
1
 10
55.3750
 20
43.0000
 30
0.0000
 42
1.0000
  0
VERTEX
  8
1
 10
54.6250
 20
43.0000
 30
0.0000
  0
SEQEND
  8
0
  0
POLYLINE
  8
1
 66
1
 10
0.0000
 20
0.0000
 30
0.0000
 40
0.7500
 41
0.7500
 70
0
  0
VERTEX
  8
1
 10
54.6250
 20
28.5483
 30
0.0000
 42
1.0000
  0
VERTEX
  8
1
 10
55.3750
 20
28.5483
 30
0.0000
  0
SEQEND
  8
0
  0
POLYLINE
  8
1
 66
1
 10
0.0000
 20
0.0000
 30
0.0000
 40
1.5000
 41
1.5000
 70
0
  0
VERTEX
  8
1
 10
55.0000
 20
43.0000
 30
0.0000
  0
VERTEX
  8
1
 10
59.3500
 20
47.3500
 30
0.0000
  0
SEQEND
  8
0
  0
POLYLINE
  8
1
 66
1
 10
0.0000
 20
0.0000
 30
0.0000
 40
0.7500
 41
0.7500
 70
0
  0
VERTEX
  8
1
 10
59.6152
 20
47.0848
 30
0.0000
 42
1.0000
  0
VERTEX
  8
1
 10
59.0848
 20
47.6152
 30
0.0000
  0
SEQEND
  8
0
  0
POLYLINE
  8
1
 66
1
 10
0.0000
 20
0.0000
 30
0.0000
 40
0.7500
 41
0.7500
 70
0
  0
VERTEX
  8
1
 10
54.7348
 20
43.2652
 30
0.0000
 42
1.0000
  0
VERTEX
  8
1
 10
55.2652
 20
42.7348
 30
0.0000
  0
SEQEND
  8
0
  0
POLYLINE
  8
1
 66
1
 10
0.0000
 20
0.0000
 30
0.0000
 40
1.5000
 41
1.5000
 70
0
  0
VERTEX
  8
1
 10
59.3500
 20
47.3500
 30
0.0000
  0
VERTEX
  8
1
 10
62.2803
 20
47.3500
 30
0.0000
  0
SEQEND
  8
0
  0
POLYLINE
  8
1
 66
1
 10
0.0000
 20
0.0000
 30
0.0000
 40
0.7500
 41
0.7500
 70
0
  0
VERTEX
  8
1
 10
62.2803
 20
46.9750
 30
0.0000
 42
1.0000
  0
VERTEX
  8
1
 10
62.2803
 20
47.7250
 30
0.0000
  0
SEQEND
  8
0
  0
POLYLINE
  8
1
 66
1
 10
0.0000
 20
0.0000
 30
0.0000
 40
0.7500
 41
0.7500
 70
0
  0
VERTEX
  8
1
 10
59.3500
 20
47.7250
 30
0.0000
 42
1.0000
  0
VERTEX
  8
1
 10
59.3500
 20
46.9750
 30
0.0000
  0
SEQEND
  8
0
  0
POLYLINE
  8
1
 66
1
 10
0.0000
 20
0.0000
 30
0.0000
 40
1.5000
 41
1.5000
 70
0
  0
VERTEX
  8
1
 10
47.6397
 20
34.6500
 30
0.0000
  0
VERTEX
  8
1
 10
49.6500
 20
34.6500
 30
0.0000
  0
SEQEND
  8
0
  0
POLYLINE
  8
1
 66
1
 10
0.0000
 20
0.0000
 30
0.0000
 40
0.7500
 41
0.7500
 70
0
  0
VERTEX
  8
1
 10
49.6500
 20
34.2750
 30
0.0000
 42
1.0000
  0
VERTEX
  8
1
 10
49.6500
 20
35.0250
 30
0.0000
  0
SEQEND
  8
0
  0
POLYLINE
  8
1
 66
1
 10
0.0000
 20
0.0000
 30
0.0000
 40
0.7500
 41
0.7500
 70
0
  0
VERTEX
  8
1
 10
47.6397
 20
35.0250
 30
0.0000
 42
1.0000
  0
VERTEX
  8
1
 10
47.6397
 20
34.2750
 30
0.0000
  0
SEQEND
  8
0
  0
POLYLINE
  8
1
 66
1
 10
0.0000
 20
0.0000
 30
0.0000
 40
1.5000
 41
1.5000
 70
0
  0
VERTEX
  8
1
 10
50.7500
 20
35.7500
 30
0.0000
  0
VERTEX
  8
1
 10
50.7500
 20
49.5000
 30
0.0000
  0
SEQEND
  8
0
  0
POLYLINE
  8
1
 66
1
 10
0.0000
 20
0.0000
 30
0.0000
 40
0.7500
 41
0.7500
 70
0
  0
VERTEX
  8
1
 10
51.1250
 20
49.5000
 30
0.0000
 42
1.0000
  0
VERTEX
  8
1
 10
50.3750
 20
49.5000
 30
0.0000
  0
SEQEND
  8
0
  0
POLYLINE
  8
1
 66
1
 10
0.0000
 20
0.0000
 30
0.0000
 40
0.7500
 41
0.7500
 70
0
  0
VERTEX
  8
1
 10
50.3750
 20
35.7500
 30
0.0000
 42
1.0000
  0
VERTEX
  8
1
 10
51.1250
 20
35.7500
 30
0.0000
  0
SEQEND
  8
0
  0
POLYLINE
  8
1
 66
1
 10
0.0000
 20
0.0000
 30
0.0000
 40
1.5000
 41
1.5000
 70
0
  0
VERTEX
  8
1
 10
50.7500
 20
49.5000
 30
0.0000
  0
VERTEX
  8
1
 10
60.0000
 20
58.7500
 30
0.0000
  0
SEQEND
  8
0
  0
POLYLINE
  8
1
 66
1
 10
0.0000
 20
0.0000
 30
0.0000
 40
0.7500
 41
0.7500
 70
0
  0
VERTEX
  8
1
 10
60.2652
 20
58.4848
 30
0.0000
 42
1.0000
  0
VERTEX
  8
1
 10
59.7348
 20
59.0152
 30
0.0000
  0
SEQEND
  8
0
  0
POLYLINE
  8
1
 66
1
 10
0.0000
 20
0.0000
 30
0.0000
 40
0.7500
 41
0.7500
 70
0
  0
VERTEX
  8
1
 10
50.4848
 20
49.7652
 30
0.0000
 42
1.0000
  0
VERTEX
  8
1
 10
51.0152
 20
49.2348
 30
0.0000
  0
SEQEND
  8
0
  0
POLYLINE
  8
1
 66
1
 10
0.0000
 20
0.0000
 30
0.0000
 40
1.5000
 41
1.5000
 70
0
  0
VERTEX
  8
1
 10
60.0000
 20
58.7500
 30
0.0000
  0
VERTEX
  8
1
 10
61.2500
 20
58.7500
 30
0.0000
  0
SEQEND
  8
0
  0
POLYLINE
  8
1
 66
1
 10
0.0000
 20
0.0000
 30
0.0000
 40
0.7500
 41
0.7500
 70
0
  0
VERTEX
  8
1
 10
61.2500
 20
58.3750
 30
0.0000
 42
1.0000
  0
VERTEX
  8
1
 10
61.2500
 20
59.1250
 30
0.0000
  0
SEQEND
  8
0
  0
POLYLINE
  8
1
 66
1
 10
0.0000
 20
0.0000
 30
0.0000
 40
0.7500
 41
0.7500
 70
0
  0
VERTEX
  8
1
 10
60.0000
 20
59.1250
 30
0.0000
 42
1.0000
  0
VERTEX
  8
1
 10
60.0000
 20
58.3750
 30
0.0000
  0
SEQEND
  8
0
  0
POLYLINE
  8
1
 66
1
 10
0.0000
 20
0.0000
 30
0.0000
 40
1.5000
 41
1.5000
 70
0
  0
VERTEX
  8
1
 10
49.6500
 20
34.6500
 30
0.0000
  0
VERTEX
  8
1
 10
50.7500
 20
35.7500
 30
0.0000
  0
SEQEND
  8
0
  0
POLYLINE
  8
1
 66
1
 10
0.0000
 20
0.0000
 30
0.0000
 40
0.7500
 41
0.7500
 70
0
  0
VERTEX
  8
1
 10
51.0152
 20
35.4848
 30
0.0000
 42
1.0000
  0
VERTEX
  8
1
 10
50.4848
 20
36.0152
 30
0.0000
  0
SEQEND
  8
0
  0
POLYLINE
  8
1
 66
1
 10
0.0000
 20
0.0000
 30
0.0000
 40
0.7500
 41
0.7500
 70
0
  0
VERTEX
  8
1
 10
49.3848
 20
34.9152
 30
0.0000
 42
1.0000
  0
VERTEX
  8
1
 10
49.9152
 20
34.3848
 30
0.0000
  0
SEQEND
  8
0
  0
POLYLINE
  8
1
 66
1
 10
0.0000
 20
0.0000
 30
0.0000
 40
1.5000
 41
1.5000
 70
0
  0
VERTEX
  8
1
 10
54.6793
 20
20.6076
 30
0.0000
  0
VERTEX
  8
1
 10
54.6793
 20
15.5707
 30
0.0000
  0
SEQEND
  8
0
  0
POLYLINE
  8
1
 66
1
 10
0.0000
 20
0.0000
 30
0.0000
 40
0.7500
 41
0.7500
 70
0
  0
VERTEX
  8
1
 10
54.3043
 20
15.5707
 30
0.0000
 42
1.0000
  0
VERTEX
  8
1
 10
55.0543
 20
15.5707
 30
0.0000
  0
SEQEND
  8
0
  0
POLYLINE
  8
1
 66
1
 10
0.0000
 20
0.0000
 30
0.0000
 40
0.7500
 41
0.7500
 70
0
  0
VERTEX
  8
1
 10
55.0543
 20
20.6076
 30
0.0000
 42
1.0000
  0
VERTEX
  8
1
 10
54.3043
 20
20.6076
 30
0.0000
  0
SEQEND
  8
0
  0
POLYLINE
  8
1
 66
1
 10
0.0000
 20
0.0000
 30
0.0000
 40
1.5000
 41
1.5000
 70
0
  0
VERTEX
  8
1
 10
54.6793
 20
15.5707
 30
0.0000
  0
VERTEX
  8
1
 10
60.0000
 20
10.2500
 30
0.0000
  0
SEQEND
  8
0
  0
POLYLINE
  8
1
 66
1
 10
0.0000
 20
0.0000
 30
0.0000
 40
0.7500
 41
0.7500
 70
0
  0
VERTEX
  8
1
 10
59.7348
 20
9.9848
 30
0.0000
 42
1.0000
  0
VERTEX
  8
1
 10
60.2652
 20
10.5152
 30
0.0000
  0
SEQEND
  8
0
  0
POLYLINE
  8
1
 66
1
 10
0.0000
 20
0.0000
 30
0.0000
 40
0.7500
 41
0.7500
 70
0
  0
VERTEX
  8
1
 10
54.9445
 20
15.8359
 30
0.0000
 42
1.0000
  0
VERTEX
  8
1
 10
54.4141
 20
15.3055
 30
0.0000
  0
SEQEND
  8
0
  0
POLYLINE
  8
1
 66
1
 10
0.0000
 20
0.0000
 30
0.0000
 40
1.5000
 41
1.5000
 70
0
  0
VERTEX
  8
1
 10
60.0000
 20
10.2500
 30
0.0000
  0
VERTEX
  8
1
 10
75.0000
 20
10.2500
 30
0.0000
  0
SEQEND
  8
0
  0
POLYLINE
  8
1
 66
1
 10
0.0000
 20
0.0000
 30
0.0000
 40
0.7500
 41
0.7500
 70
0
  0
VERTEX
  8
1
 10
75.0000
 20
9.8750
 30
0.0000
 42
1.0000
  0
VERTEX
  8
1
 10
75.0000
 20
10.6250
 30
0.0000
  0
SEQEND
  8
0
  0
POLYLINE
  8
1
 66
1
 10
0.0000
 20
0.0000
 30
0.0000
 40
0.7500
 41
0.7500
 70
0
  0
VERTEX
  8
1
 10
60.0000
 20
10.6250
 30
0.0000
 42
1.0000
  0
VERTEX
  8
1
 10
60.0000
 20
9.8750
 30
0.0000
  0
SEQEND
  8
0
  0
POLYLINE
  8
1
 66
1
 10
0.0000
 20
0.0000
 30
0.0000
 40
1.5000
 41
1.5000
 70
0
  0
VERTEX
  8
1
 10
75.0000
 20
10.2500
 30
0.0000
  0
VERTEX
  8
1
 10
80.2500
 20
15.5000
 30
0.0000
  0
SEQEND
  8
0
  0
POLYLINE
  8
1
 66
1
 10
0.0000
 20
0.0000
 30
0.0000
 40
0.7500
 41
0.7500
 70
0
  0
VERTEX
  8
1
 10
80.5152
 20
15.2348
 30
0.0000
 42
1.0000
  0
VERTEX
  8
1
 10
79.9848
 20
15.7652
 30
0.0000
  0
SEQEND
  8
0
  0
POLYLINE
  8
1
 66
1
 10
0.0000
 20
0.0000
 30
0.0000
 40
0.7500
 41
0.7500
 70
0
  0
VERTEX
  8
1
 10
74.7348
 20
10.5152
 30
0.0000
 42
1.0000
  0
VERTEX
  8
1
 10
75.2652
 20
9.9848
 30
0.0000
  0
SEQEND
  8
0
  0
POLYLINE
  8
1
 66
1
 10
0.0000
 20
0.0000
 30
0.0000
 40
1.5000
 41
1.5000
 70
0
  0
VERTEX
  8
1
 10
80.2500
 20
15.5000
 30
0.0000
  0
VERTEX
  8
1
 10
80.2500
 20
38.7500
 30
0.0000
  0
SEQEND
  8
0
  0
POLYLINE
  8
1
 66
1
 10
0.0000
 20
0.0000
 30
0.0000
 40
0.7500
 41
0.7500
 70
0
  0
VERTEX
  8
1
 10
80.6250
 20
38.7500
 30
0.0000
 42
1.0000
  0
VERTEX
  8
1
 10
79.8750
 20
38.7500
 30
0.0000
  0
SEQEND
  8
0
  0
POLYLINE
  8
1
 66
1
 10
0.0000
 20
0.0000
 30
0.0000
 40
0.7500
 41
0.7500
 70
0
  0
VERTEX
  8
1
 10
79.8750
 20
15.5000
 30
0.0000
 42
1.0000
  0
VERTEX
  8
1
 10
80.6250
 20
15.5000
 30
0.0000
  0
SEQEND
  8
0
  0
POLYLINE
  8
1
 66
1
 10
0.0000
 20
0.0000
 30
0.0000
 40
1.5000
 41
1.5000
 70
0
  0
VERTEX
  8
1
 10
74.1900
 20
44.8100
 30
0.0000
  0
VERTEX
  8
1
 10
62.2803
 20
44.8100
 30
0.0000
  0
SEQEND
  8
0
  0
POLYLINE
  8
1
 66
1
 10
0.0000
 20
0.0000
 30
0.0000
 40
0.7500
 41
0.7500
 70
0
  0
VERTEX
  8
1
 10
62.2803
 20
45.1850
 30
0.0000
 42
1.0000
  0
VERTEX
  8
1
 10
62.2803
 20
44.4350
 30
0.0000
  0
SEQEND
  8
0
  0
POLYLINE
  8
1
 66
1
 10
0.0000
 20
0.0000
 30
0.0000
 40
0.7500
 41
0.7500
 70
0
  0
VERTEX
  8
1
 10
74.1900
 20
44.4350
 30
0.0000
 42
1.0000
  0
VERTEX
  8
1
 10
74.1900
 20
45.1850
 30
0.0000
  0
SEQEND
  8
0
  0
POLYLINE
  8
1
 66
1
 10
0.0000
 20
0.0000
 30
0.0000
 40
1.5000
 41
1.5000
 70
0
  0
VERTEX
  8
1
 10
80.2500
 20
38.7500
 30
0.0000
  0
VERTEX
  8
1
 10
74.1900
 20
44.8100
 30
0.0000
  0
SEQEND
  8
0
  0
POLYLINE
  8
1
 66
1
 10
0.0000
 20
0.0000
 30
0.0000
 40
0.7500
 41
0.7500
 70
0
  0
VERTEX
  8
1
 10
74.4552
 20
45.0752
 30
0.0000
 42
1.0000
  0
VERTEX
  8
1
 10
73.9248
 20
44.5448
 30
0.0000
  0
SEQEND
  8
0
  0
POLYLINE
  8
1
 66
1
 10
0.0000
 20
0.0000
 30
0.0000
 40
0.7500
 41
0.7500
 70
0
  0
VERTEX
  8
1
 10
79.9848
 20
38.4848
 30
0.0000
 42
1.0000
  0
VERTEX
  8
1
 10
80.5152
 20
39.0152
 30
0.0000
  0
SEQEND
  8
0
  0
POLYLINE
  8
1
 66
1
 10
0.0000
 20
0.0000
 30
0.0000
 40
1.5000
 41
1.5000
 70
0
  0
VERTEX
  8
1
 10
57.2193
 20
23.1476
 30
0.0000
  0
VERTEX
  8
1
 10
57.2193
 20
39.2193
 30
0.0000
  0
SEQEND
  8
0
  0
POLYLINE
  8
1
 66
1
 10
0.0000
 20
0.0000
 30
0.0000
 40
0.7500
 41
0.7500
 70
0
  0
VERTEX
  8
1
 10
57.5943
 20
39.2193
 30
0.0000
 42
1.0000
  0
VERTEX
  8
1
 10
56.8443
 20
39.2193
 30
0.0000
  0
SEQEND
  8
0
  0
POLYLINE
  8
1
 66
1
 10
0.0000
 20
0.0000
 30
0.0000
 40
0.7500
 41
0.7500
 70
0
  0
VERTEX
  8
1
 10
56.8443
 20
23.1476
 30
0.0000
 42
1.0000
  0
VERTEX
  8
1
 10
57.5943
 20
23.1476
 30
0.0000
  0
SEQEND
  8
0
  0
POLYLINE
  8
1
 66
1
 10
0.0000
 20
0.0000
 30
0.0000
 40
1.5000
 41
1.5000
 70
0
  0
VERTEX
  8
1
 10
60.2700
 20
42.2700
 30
0.0000
  0
VERTEX
  8
1
 10
62.2803
 20
42.2700
 30
0.0000
  0
SEQEND
  8
0
  0
POLYLINE
  8
1
 66
1
 10
0.0000
 20
0.0000
 30
0.0000
 40
0.7500
 41
0.7500
 70
0
  0
VERTEX
  8
1
 10
62.2803
 20
41.8950
 30
0.0000
 42
1.0000
  0
VERTEX
  8
1
 10
62.2803
 20
42.6450
 30
0.0000
  0
SEQEND
  8
0
  0
POLYLINE
  8
1
 66
1
 10
0.0000
 20
0.0000
 30
0.0000
 40
0.7500
 41
0.7500
 70
0
  0
VERTEX
  8
1
 10
60.2700
 20
42.6450
 30
0.0000
 42
1.0000
  0
VERTEX
  8
1
 10
60.2700
 20
41.8950
 30
0.0000
  0
SEQEND
  8
0
  0
POLYLINE
  8
1
 66
1
 10
0.0000
 20
0.0000
 30
0.0000
 40
1.5000
 41
1.5000
 70
0
  0
VERTEX
  8
1
 10
57.2193
 20
39.2193
 30
0.0000
  0
VERTEX
  8
1
 10
60.2700
 20
42.2700
 30
0.0000
  0
SEQEND
  8
0
  0
POLYLINE
  8
1
 66
1
 10
0.0000
 20
0.0000
 30
0.0000
 40
0.7500
 41
0.7500
 70
0
  0
VERTEX
  8
1
 10
60.5352
 20
42.0048
 30
0.0000
 42
1.0000
  0
VERTEX
  8
1
 10
60.0048
 20
42.5352
 30
0.0000
  0
SEQEND
  8
0
  0
POLYLINE
  8
1
 66
1
 10
0.0000
 20
0.0000
 30
0.0000
 40
0.7500
 41
0.7500
 70
0
  0
VERTEX
  8
1
 10
56.9541
 20
39.4845
 30
0.0000
 42
1.0000
  0
VERTEX
  8
1
 10
57.4845
 20
38.9541
 30
0.0000
  0
SEQEND
  8
0
  0
POLYLINE
  8
1
 66
1
 10
0.0000
 20
0.0000
 30
0.0000
 40
1.5000
 41
1.5000
 70
0
  0
VERTEX
  8
1
 10
57.2193
 20
20.6076
 30
0.0000
  0
VERTEX
  8
1
 10
57.2193
 20
17.0307
 30
0.0000
  0
SEQEND
  8
0
  0
POLYLINE
  8
1
 66
1
 10
0.0000
 20
0.0000
 30
0.0000
 40
0.7500
 41
0.7500
 70
0
  0
VERTEX
  8
1
 10
56.8443
 20
17.0307
 30
0.0000
 42
1.0000
  0
VERTEX
  8
1
 10
57.5943
 20
17.0307
 30
0.0000
  0
SEQEND
  8
0
  0
POLYLINE
  8
1
 66
1
 10
0.0000
 20
0.0000
 30
0.0000
 40
0.7500
 41
0.7500
 70
0
  0
VERTEX
  8
1
 10
57.5943
 20
20.6076
 30
0.0000
 42
1.0000
  0
VERTEX
  8
1
 10
56.8443
 20
20.6076
 30
0.0000
  0
SEQEND
  8
0
  0
POLYLINE
  8
1
 66
1
 10
0.0000
 20
0.0000
 30
0.0000
 40
1.5000
 41
1.5000
 70
0
  0
VERTEX
  8
1
 10
67.5000
 20
14.7500
 30
0.0000
  0
VERTEX
  8
1
 10
70.5000
 20
17.7500
 30
0.0000
  0
SEQEND
  8
0
  0
POLYLINE
  8
1
 66
1
 10
0.0000
 20
0.0000
 30
0.0000
 40
0.7500
 41
0.7500
 70
0
  0
VERTEX
  8
1
 10
70.7652
 20
17.4848
 30
0.0000
 42
1.0000
  0
VERTEX
  8
1
 10
70.2348
 20
18.0152
 30
0.0000
  0
SEQEND
  8
0
  0
POLYLINE
  8
1
 66
1
 10
0.0000
 20
0.0000
 30
0.0000
 40
0.7500
 41
0.7500
 70
0
  0
VERTEX
  8
1
 10
67.2348
 20
15.0152
 30
0.0000
 42
1.0000
  0
VERTEX
  8
1
 10
67.7652
 20
14.4848
 30
0.0000
  0
SEQEND
  8
0
  0
POLYLINE
  8
1
 66
1
 10
0.0000
 20
0.0000
 30
0.0000
 40
1.5000
 41
1.5000
 70
0
  0
VERTEX
  8
1
 10
70.5000
 20
17.7500
 30
0.0000
  0
VERTEX
  8
1
 10
70.5000
 20
36.5000
 30
0.0000
  0
SEQEND
  8
0
  0
POLYLINE
  8
1
 66
1
 10
0.0000
 20
0.0000
 30
0.0000
 40
0.7500
 41
0.7500
 70
0
  0
VERTEX
  8
1
 10
70.8750
 20
36.5000
 30
0.0000
 42
1.0000
  0
VERTEX
  8
1
 10
70.1250
 20
36.5000
 30
0.0000
  0
SEQEND
  8
0
  0
POLYLINE
  8
1
 66
1
 10
0.0000
 20
0.0000
 30
0.0000
 40
0.7500
 41
0.7500
 70
0
  0
VERTEX
  8
1
 10
70.1250
 20
17.7500
 30
0.0000
 42
1.0000
  0
VERTEX
  8
1
 10
70.8750
 20
17.7500
 30
0.0000
  0
SEQEND
  8
0
  0
POLYLINE
  8
1
 66
1
 10
0.0000
 20
0.0000
 30
0.0000
 40
1.5000
 41
1.5000
 70
0
  0
VERTEX
  8
1
 10
70.5000
 20
36.5000
 30
0.0000
  0
VERTEX
  8
1
 10
67.2500
 20
39.7500
 30
0.0000
  0
SEQEND
  8
0
  0
POLYLINE
  8
1
 66
1
 10
0.0000
 20
0.0000
 30
0.0000
 40
0.7500
 41
0.7500
 70
0
  0
VERTEX
  8
1
 10
67.5152
 20
40.0152
 30
0.0000
 42
1.0000
  0
VERTEX
  8
1
 10
66.9848
 20
39.4848
 30
0.0000
  0
SEQEND
  8
0
  0
POLYLINE
  8
1
 66
1
 10
0.0000
 20
0.0000
 30
0.0000
 40
0.7500
 41
0.7500
 70
0
  0
VERTEX
  8
1
 10
70.2348
 20
36.2348
 30
0.0000
 42
1.0000
  0
VERTEX
  8
1
 10
70.7652
 20
36.7652
 30
0.0000
  0
SEQEND
  8
0
  0
POLYLINE
  8
1
 66
1
 10
0.0000
 20
0.0000
 30
0.0000
 40
1.5000
 41
1.5000
 70
0
  0
VERTEX
  8
1
 10
67.2500
 20
39.7500
 30
0.0000
  0
VERTEX
  8
1
 10
63.3003
 20
39.7500
 30
0.0000
  0
SEQEND
  8
0
  0
POLYLINE
  8
1
 66
1
 10
0.0000
 20
0.0000
 30
0.0000
 40
0.7500
 41
0.7500
 70
0
  0
VERTEX
  8
1
 10
63.3003
 20
40.1250
 30
0.0000
 42
1.0000
  0
VERTEX
  8
1
 10
63.3003
 20
39.3750
 30
0.0000
  0
SEQEND
  8
0
  0
POLYLINE
  8
1
 66
1
 10
0.0000
 20
0.0000
 30
0.0000
 40
0.7500
 41
0.7500
 70
0
  0
VERTEX
  8
1
 10
67.2500
 20
39.3750
 30
0.0000
 42
1.0000
  0
VERTEX
  8
1
 10
67.2500
 20
40.1250
 30
0.0000
  0
SEQEND
  8
0
  0
POLYLINE
  8
1
 66
1
 10
0.0000
 20
0.0000
 30
0.0000
 40
1.5000
 41
1.5000
 70
0
  0
VERTEX
  8
1
 10
63.3003
 20
39.7500
 30
0.0000
  0
VERTEX
  8
1
 10
63.2803
 20
39.7300
 30
0.0000
  0
SEQEND
  8
0
  0
POLYLINE
  8
1
 66
1
 10
0.0000
 20
0.0000
 30
0.0000
 40
0.7500
 41
0.7500
 70
0
  0
VERTEX
  8
1
 10
63.0151
 20
39.9952
 30
0.0000
 42
1.0000
  0
VERTEX
  8
1
 10
63.5455
 20
39.4648
 30
0.0000
  0
SEQEND
  8
0
  0
POLYLINE
  8
1
 66
1
 10
0.0000
 20
0.0000
 30
0.0000
 40
0.7500
 41
0.7500
 70
0
  0
VERTEX
  8
1
 10
63.5655
 20
39.4848
 30
0.0000
 42
1.0000
  0
VERTEX
  8
1
 10
63.0351
 20
40.0152
 30
0.0000
  0
SEQEND
  8
0
  0
POLYLINE
  8
1
 66
1
 10
0.0000
 20
0.0000
 30
0.0000
 40
1.5000
 41
1.5000
 70
0
  0
VERTEX
  8
1
 10
63.2803
 20
39.7300
 30
0.0000
  0
VERTEX
  8
1
 10
62.2803
 20
39.7300
 30
0.0000
  0
SEQEND
  8
0
  0
POLYLINE
  8
1
 66
1
 10
0.0000
 20
0.0000
 30
0.0000
 40
0.7500
 41
0.7500
 70
0
  0
VERTEX
  8
1
 10
62.2803
 20
40.1050
 30
0.0000
 42
1.0000
  0
VERTEX
  8
1
 10
62.2803
 20
39.3550
 30
0.0000
  0
SEQEND
  8
0
  0
POLYLINE
  8
1
 66
1
 10
0.0000
 20
0.0000
 30
0.0000
 40
0.7500
 41
0.7500
 70
0
  0
VERTEX
  8
1
 10
63.2803
 20
39.3550
 30
0.0000
 42
1.0000
  0
VERTEX
  8
1
 10
63.2803
 20
40.1050
 30
0.0000
  0
SEQEND
  8
0
  0
POLYLINE
  8
1
 66
1
 10
0.0000
 20
0.0000
 30
0.0000
 40
1.5000
 41
1.5000
 70
0
  0
VERTEX
  8
1
 10
57.2193
 20
17.0307
 30
0.0000
  0
VERTEX
  8
1
 10
59.5000
 20
14.7500
 30
0.0000
  0
SEQEND
  8
0
  0
POLYLINE
  8
1
 66
1
 10
0.0000
 20
0.0000
 30
0.0000
 40
0.7500
 41
0.7500
 70
0
  0
VERTEX
  8
1
 10
59.2348
 20
14.4848
 30
0.0000
 42
1.0000
  0
VERTEX
  8
1
 10
59.7652
 20
15.0152
 30
0.0000
  0
SEQEND
  8
0
  0
POLYLINE
  8
1
 66
1
 10
0.0000
 20
0.0000
 30
0.0000
 40
0.7500
 41
0.7500
 70
0
  0
VERTEX
  8
1
 10
57.4845
 20
17.2959
 30
0.0000
 42
1.0000
  0
VERTEX
  8
1
 10
56.9541
 20
16.7655
 30
0.0000
  0
SEQEND
  8
0
  0
POLYLINE
  8
1
 66
1
 10
0.0000
 20
0.0000
 30
0.0000
 40
1.5000
 41
1.5000
 70
0
  0
VERTEX
  8
1
 10
59.5000
 20
14.7500
 30
0.0000
  0
VERTEX
  8
1
 10
67.5000
 20
14.7500
 30
0.0000
  0
SEQEND
  8
0
  0
POLYLINE
  8
1
 66
1
 10
0.0000
 20
0.0000
 30
0.0000
 40
0.7500
 41
0.7500
 70
0
  0
VERTEX
  8
1
 10
67.5000
 20
14.3750
 30
0.0000
 42
1.0000
  0
VERTEX
  8
1
 10
67.5000
 20
15.1250
 30
0.0000
  0
SEQEND
  8
0
  0
POLYLINE
  8
1
 66
1
 10
0.0000
 20
0.0000
 30
0.0000
 40
0.7500
 41
0.7500
 70
0
  0
VERTEX
  8
1
 10
59.5000
 20
15.1250
 30
0.0000
 42
1.0000
  0
VERTEX
  8
1
 10
59.5000
 20
14.3750
 30
0.0000
  0
SEQEND
  8
0
  0
POLYLINE
  8
1
 66
1
 10
0.0000
 20
0.0000
 30
0.0000
 40
1.5000
 41
1.5000
 70
0
  0
VERTEX
  8
1
 10
59.7593
 20
23.1476
 30
0.0000
  0
VERTEX
  8
1
 10
59.5000
 20
23.4069
 30
0.0000
  0
SEQEND
  8
0
  0
POLYLINE
  8
1
 66
1
 10
0.0000
 20
0.0000
 30
0.0000
 40
0.7500
 41
0.7500
 70
0
  0
VERTEX
  8
1
 10
59.7652
 20
23.6721
 30
0.0000
 42
1.0000
  0
VERTEX
  8
1
 10
59.2348
 20
23.1417
 30
0.0000
  0
SEQEND
  8
0
  0
POLYLINE
  8
1
 66
1
 10
0.0000
 20
0.0000
 30
0.0000
 40
0.7500
 41
0.7500
 70
0
  0
VERTEX
  8
1
 10
59.4941
 20
22.8824
 30
0.0000
 42
1.0000
  0
VERTEX
  8
1
 10
60.0245
 20
23.4128
 30
0.0000
  0
SEQEND
  8
0
  0
POLYLINE
  8
1
 66
1
 10
0.0000
 20
0.0000
 30
0.0000
 40
1.5000
 41
1.5000
 70
0
  0
VERTEX
  8
1
 10
59.5000
 20
36.2500
 30
0.0000
  0
VERTEX
  8
1
 10
60.5000
 20
37.2500
 30
0.0000
  0
SEQEND
  8
0
  0
POLYLINE
  8
1
 66
1
 10
0.0000
 20
0.0000
 30
0.0000
 40
0.7500
 41
0.7500
 70
0
  0
VERTEX
  8
1
 10
60.7652
 20
36.9848
 30
0.0000
 42
1.0000
  0
VERTEX
  8
1
 10
60.2348
 20
37.5152
 30
0.0000
  0
SEQEND
  8
0
  0
POLYLINE
  8
1
 66
1
 10
0.0000
 20
0.0000
 30
0.0000
 40
0.7500
 41
0.7500
 70
0
  0
VERTEX
  8
1
 10
59.2348
 20
36.5152
 30
0.0000
 42
1.0000
  0
VERTEX
  8
1
 10
59.7652
 20
35.9848
 30
0.0000
  0
SEQEND
  8
0
  0
POLYLINE
  8
1
 66
1
 10
0.0000
 20
0.0000
 30
0.0000
 40
1.5000
 41
1.5000
 70
0
  0
VERTEX
  8
1
 10
60.5000
 20
37.2500
 30
0.0000
  0
VERTEX
  8
1
 10
62.2203
 20
37.2500
 30
0.0000
  0
SEQEND
  8
0
  0
POLYLINE
  8
1
 66
1
 10
0.0000
 20
0.0000
 30
0.0000
 40
0.7500
 41
0.7500
 70
0
  0
VERTEX
  8
1
 10
62.2203
 20
36.8750
 30
0.0000
 42
1.0000
  0
VERTEX
  8
1
 10
62.2203
 20
37.6250
 30
0.0000
  0
SEQEND
  8
0
  0
POLYLINE
  8
1
 66
1
 10
0.0000
 20
0.0000
 30
0.0000
 40
0.7500
 41
0.7500
 70
0
  0
VERTEX
  8
1
 10
60.5000
 20
37.6250
 30
0.0000
 42
1.0000
  0
VERTEX
  8
1
 10
60.5000
 20
36.8750
 30
0.0000
  0
SEQEND
  8
0
  0
POLYLINE
  8
1
 66
1
 10
0.0000
 20
0.0000
 30
0.0000
 40
1.5000
 41
1.5000
 70
0
  0
VERTEX
  8
1
 10
62.2203
 20
37.2500
 30
0.0000
  0
VERTEX
  8
1
 10
62.2803
 20
37.1900
 30
0.0000
  0
SEQEND
  8
0
  0
POLYLINE
  8
1
 66
1
 10
0.0000
 20
0.0000
 30
0.0000
 40
0.7500
 41
0.7500
 70
0
  0
VERTEX
  8
1
 10
62.0151
 20
36.9248
 30
0.0000
 42
1.0000
  0
VERTEX
  8
1
 10
62.5455
 20
37.4552
 30
0.0000
  0
SEQEND
  8
0
  0
POLYLINE
  8
1
 66
1
 10
0.0000
 20
0.0000
 30
0.0000
 40
0.7500
 41
0.7500
 70
0
  0
VERTEX
  8
1
 10
62.4855
 20
37.5152
 30
0.0000
 42
1.0000
  0
VERTEX
  8
1
 10
61.9551
 20
36.9848
 30
0.0000
  0
SEQEND
  8
0
  0
POLYLINE
  8
1
 66
1
 10
0.0000
 20
0.0000
 30
0.0000
 40
1.5000
 41
1.5000
 70
0
  0
VERTEX
  8
1
 10
59.5000
 20
23.4069
 30
0.0000
  0
VERTEX
  8
1
 10
59.5000
 20
36.2500
 30
0.0000
  0
SEQEND
  8
0
  0
POLYLINE
  8
1
 66
1
 10
0.0000
 20
0.0000
 30
0.0000
 40
0.7500
 41
0.7500
 70
0
  0
VERTEX
  8
1
 10
59.8750
 20
36.2500
 30
0.0000
 42
1.0000
  0
VERTEX
  8
1
 10
59.1250
 20
36.2500
 30
0.0000
  0
SEQEND
  8
0
  0
POLYLINE
  8
1
 66
1
 10
0.0000
 20
0.0000
 30
0.0000
 40
0.7500
 41
0.7500
 70
0
  0
VERTEX
  8
1
 10
59.1250
 20
23.4069
 30
0.0000
 42
1.0000
  0
VERTEX
  8
1
 10
59.8750
 20
23.4069
 30
0.0000
  0
SEQEND
  8
0
  0
POLYLINE
  8
1
 66
1
 10
0.0000
 20
0.0000
 30
0.0000
 40
1.5000
 41
1.5000
 70
0
  0
VERTEX
  8
1
 10
62.2993
 20
23.1476
 30
0.0000
  0
VERTEX
  8
1
 10
62.2993
 20
32.0910
 30
0.0000
  0
SEQEND
  8
0
  0
POLYLINE
  8
1
 66
1
 10
0.0000
 20
0.0000
 30
0.0000
 40
0.7500
 41
0.7500
 70
0
  0
VERTEX
  8
1
 10
62.6743
 20
32.0910
 30
0.0000
 42
1.0000
  0
VERTEX
  8
1
 10
61.9243
 20
32.0910
 30
0.0000
  0
SEQEND
  8
0
  0
POLYLINE
  8
1
 66
1
 10
0.0000
 20
0.0000
 30
0.0000
 40
0.7500
 41
0.7500
 70
0
  0
VERTEX
  8
1
 10
61.9243
 20
23.1476
 30
0.0000
 42
1.0000
  0
VERTEX
  8
1
 10
62.6743
 20
23.1476
 30
0.0000
  0
SEQEND
  8
0
  0
POLYLINE
  8
1
 66
1
 10
0.0000
 20
0.0000
 30
0.0000
 40
1.5000
 41
1.5000
 70
0
  0
VERTEX
  8
1
 10
62.2993
 20
32.0910
 30
0.0000
  0
VERTEX
  8
1
 10
62.2803
 20
32.1100
 30
0.0000
  0
SEQEND
  8
0
  0
POLYLINE
  8
1
 66
1
 10
0.0000
 20
0.0000
 30
0.0000
 40
0.7500
 41
0.7500
 70
0
  0
VERTEX
  8
1
 10
62.5455
 20
32.3752
 30
0.0000
 42
1.0000
  0
VERTEX
  8
1
 10
62.0151
 20
31.8448
 30
0.0000
  0
SEQEND
  8
0
  0
POLYLINE
  8
1
 66
1
 10
0.0000
 20
0.0000
 30
0.0000
 40
0.7500
 41
0.7500
 70
0
  0
VERTEX
  8
1
 10
62.0341
 20
31.8258
 30
0.0000
 42
1.0000
  0
VERTEX
  8
1
 10
62.5645
 20
32.3562
 30
0.0000
  0
SEQEND
  8
0
  0
POLYLINE
  8
1
 66
1
 10
0.0000
 20
0.0000
 30
0.0000
 40
1.5000
 41
1.5000
 70
0
  0
VERTEX
  8
1
 10
59.7593
 20
20.6076
 30
0.0000
  0
VERTEX
  8
1
 10
59.7593
 20
18.2407
 30
0.0000
  0
SEQEND
  8
0
  0
POLYLINE
  8
1
 66
1
 10
0.0000
 20
0.0000
 30
0.0000
 40
0.7500
 41
0.7500
 70
0
  0
VERTEX
  8
1
 10
59.3843
 20
18.2407
 30
0.0000
 42
1.0000
  0
VERTEX
  8
1
 10
60.1343
 20
18.2407
 30
0.0000
  0
SEQEND
  8
0
  0
POLYLINE
  8
1
 66
1
 10
0.0000
 20
0.0000
 30
0.0000
 40
0.7500
 41
0.7500
 70
0
  0
VERTEX
  8
1
 10
60.1343
 20
20.6076
 30
0.0000
 42
1.0000
  0
VERTEX
  8
1
 10
59.3843
 20
20.6076
 30
0.0000
  0
SEQEND
  8
0
  0
POLYLINE
  8
1
 66
1
 10
0.0000
 20
0.0000
 30
0.0000
 40
1.5000
 41
1.5000
 70
0
  0
VERTEX
  8
1
 10
59.7593
 20
18.2407
 30
0.0000
  0
VERTEX
  8
1
 10
61.2500
 20
16.7500
 30
0.0000
  0
SEQEND
  8
0
  0
POLYLINE
  8
1
 66
1
 10
0.0000
 20
0.0000
 30
0.0000
 40
0.7500
 41
0.7500
 70
0
  0
VERTEX
  8
1
 10
60.9848
 20
16.4848
 30
0.0000
 42
1.0000
  0
VERTEX
  8
1
 10
61.5152
 20
17.0152
 30
0.0000
  0
SEQEND
  8
0
  0
POLYLINE
  8
1
 66
1
 10
0.0000
 20
0.0000
 30
0.0000
 40
0.7500
 41
0.7500
 70
0
  0
VERTEX
  8
1
 10
60.0245
 20
18.5059
 30
0.0000
 42
1.0000
  0
VERTEX
  8
1
 10
59.4941
 20
17.9755
 30
0.0000
  0
SEQEND
  8
0
  0
POLYLINE
  8
1
 66
1
 10
0.0000
 20
0.0000
 30
0.0000
 40
1.5000
 41
1.5000
 70
0
  0
VERTEX
  8
1
 10
61.2500
 20
16.7500
 30
0.0000
  0
VERTEX
  8
1
 10
66.0000
 20
16.7500
 30
0.0000
  0
SEQEND
  8
0
  0
POLYLINE
  8
1
 66
1
 10
0.0000
 20
0.0000
 30
0.0000
 40
0.7500
 41
0.7500
 70
0
  0
VERTEX
  8
1
 10
66.0000
 20
16.3750
 30
0.0000
 42
1.0000
  0
VERTEX
  8
1
 10
66.0000
 20
17.1250
 30
0.0000
  0
SEQEND
  8
0
  0
POLYLINE
  8
1
 66
1
 10
0.0000
 20
0.0000
 30
0.0000
 40
0.7500
 41
0.7500
 70
0
  0
VERTEX
  8
1
 10
61.2500
 20
17.1250
 30
0.0000
 42
1.0000
  0
VERTEX
  8
1
 10
61.2500
 20
16.3750
 30
0.0000
  0
SEQEND
  8
0
  0
POLYLINE
  8
1
 66
1
 10
0.0000
 20
0.0000
 30
0.0000
 40
1.5000
 41
1.5000
 70
0
  0
VERTEX
  8
1
 10
68.0000
 20
18.7500
 30
0.0000
  0
VERTEX
  8
1
 10
68.0000
 20
32.5000
 30
0.0000
  0
SEQEND
  8
0
  0
POLYLINE
  8
1
 66
1
 10
0.0000
 20
0.0000
 30
0.0000
 40
0.7500
 41
0.7500
 70
0
  0
VERTEX
  8
1
 10
68.3750
 20
32.5000
 30
0.0000
 42
1.0000
  0
VERTEX
  8
1
 10
67.6250
 20
32.5000
 30
0.0000
  0
SEQEND
  8
0
  0
POLYLINE
  8
1
 66
1
 10
0.0000
 20
0.0000
 30
0.0000
 40
0.7500
 41
0.7500
 70
0
  0
VERTEX
  8
1
 10
67.6250
 20
18.7500
 30
0.0000
 42
1.0000
  0
VERTEX
  8
1
 10
68.3750
 20
18.7500
 30
0.0000
  0
SEQEND
  8
0
  0
POLYLINE
  8
1
 66
1
 10
0.0000
 20
0.0000
 30
0.0000
 40
1.5000
 41
1.5000
 70
0
  0
VERTEX
  8
1
 10
68.0000
 20
32.5000
 30
0.0000
  0
VERTEX
  8
1
 10
65.8500
 20
34.6500
 30
0.0000
  0
SEQEND
  8
0
  0
POLYLINE
  8
1
 66
1
 10
0.0000
 20
0.0000
 30
0.0000
 40
0.7500
 41
0.7500
 70
0
  0
VERTEX
  8
1
 10
66.1152
 20
34.9152
 30
0.0000
 42
1.0000
  0
VERTEX
  8
1
 10
65.5848
 20
34.3848
 30
0.0000
  0
SEQEND
  8
0
  0
POLYLINE
  8
1
 66
1
 10
0.0000
 20
0.0000
 30
0.0000
 40
0.7500
 41
0.7500
 70
0
  0
VERTEX
  8
1
 10
67.7348
 20
32.2348
 30
0.0000
 42
1.0000
  0
VERTEX
  8
1
 10
68.2652
 20
32.7652
 30
0.0000
  0
SEQEND
  8
0
  0
POLYLINE
  8
1
 66
1
 10
0.0000
 20
0.0000
 30
0.0000
 40
1.5000
 41
1.5000
 70
0
  0
VERTEX
  8
1
 10
65.8500
 20
34.6500
 30
0.0000
  0
VERTEX
  8
1
 10
62.2803
 20
34.6500
 30
0.0000
  0
SEQEND
  8
0
  0
POLYLINE
  8
1
 66
1
 10
0.0000
 20
0.0000
 30
0.0000
 40
0.7500
 41
0.7500
 70
0
  0
VERTEX
  8
1
 10
62.2803
 20
35.0250
 30
0.0000
 42
1.0000
  0
VERTEX
  8
1
 10
62.2803
 20
34.2750
 30
0.0000
  0
SEQEND
  8
0
  0
POLYLINE
  8
1
 66
1
 10
0.0000
 20
0.0000
 30
0.0000
 40
0.7500
 41
0.7500
 70
0
  0
VERTEX
  8
1
 10
65.8500
 20
34.2750
 30
0.0000
 42
1.0000
  0
VERTEX
  8
1
 10
65.8500
 20
35.0250
 30
0.0000
  0
SEQEND
  8
0
  0
POLYLINE
  8
1
 66
1
 10
0.0000
 20
0.0000
 30
0.0000
 40
1.5000
 41
1.5000
 70
0
  0
VERTEX
  8
1
 10
66.0000
 20
16.7500
 30
0.0000
  0
VERTEX
  8
1
 10
68.0000
 20
18.7500
 30
0.0000
  0
SEQEND
  8
0
  0
POLYLINE
  8
1
 66
1
 10
0.0000
 20
0.0000
 30
0.0000
 40
0.7500
 41
0.7500
 70
0
  0
VERTEX
  8
1
 10
68.2652
 20
18.4848
 30
0.0000
 42
1.0000
  0
VERTEX
  8
1
 10
67.7348
 20
19.0152
 30
0.0000
  0
SEQEND
  8
0
  0
POLYLINE
  8
1
 66
1
 10
0.0000
 20
0.0000
 30
0.0000
 40
0.7500
 41
0.7500
 70
0
  0
VERTEX
  8
1
 10
65.7348
 20
17.0152
 30
0.0000
 42
1.0000
  0
VERTEX
  8
1
 10
66.2652
 20
16.4848
 30
0.0000
  0
SEQEND
  8
0
  0
POLYLINE
  8
1
 66
1
 10
0.0000
 20
0.0000
 30
0.0000
 40
1.5000
 41
1.5000
 70
0
  0
VERTEX
  8
1
 10
79.9633
 20
6.7414
 30
0.0000
  0
VERTEX
  8
1
 10
79.9633
 20
10.2133
 30
0.0000
  0
SEQEND
  8
0
  0
POLYLINE
  8
1
 66
1
 10
0.0000
 20
0.0000
 30
0.0000
 40
0.7500
 41
0.7500
 70
0
  0
VERTEX
  8
1
 10
80.3383
 20
10.2133
 30
0.0000
 42
1.0000
  0
VERTEX
  8
1
 10
79.5883
 20
10.2133
 30
0.0000
  0
SEQEND
  8
0
  0
POLYLINE
  8
1
 66
1
 10
0.0000
 20
0.0000
 30
0.0000
 40
0.7500
 41
0.7500
 70
0
  0
VERTEX
  8
1
 10
79.5883
 20
6.7414
 30
0.0000
 42
1.0000
  0
VERTEX
  8
1
 10
80.3383
 20
6.7414
 30
0.0000
  0
SEQEND
  8
0
  0
POLYLINE
  8
1
 66
1
 10
0.0000
 20
0.0000
 30
0.0000
 40
1.5000
 41
1.5000
 70
0
  0
VERTEX
  8
1
 10
90.0000
 20
12.2500
 30
0.0000
  0
VERTEX
  8
1
 10
93.5673
 20
8.6827
 30
0.0000
  0
SEQEND
  8
0
  0
POLYLINE
  8
1
 66
1
 10
0.0000
 20
0.0000
 30
0.0000
 40
0.7500
 41
0.7500
 70
0
  0
VERTEX
  8
1
 10
93.3021
 20
8.4175
 30
0.0000
 42
1.0000
  0
VERTEX
  8
1
 10
93.8325
 20
8.9479
 30
0.0000
  0
SEQEND
  8
0
  0
POLYLINE
  8
1
 66
1
 10
0.0000
 20
0.0000
 30
0.0000
 40
0.7500
 41
0.7500
 70
0
  0
VERTEX
  8
1
 10
90.2652
 20
12.5152
 30
0.0000
 42
1.0000
  0
VERTEX
  8
1
 10
89.7348
 20
11.9848
 30
0.0000
  0
SEQEND
  8
0
  0
POLYLINE
  8
1
 66
1
 10
0.0000
 20
0.0000
 30
0.0000
 40
1.5000
 41
1.5000
 70
0
  0
VERTEX
  8
1
 10
93.5673
 20
8.6827
 30
0.0000
  0
VERTEX
  8
1
 10
93.5673
 20
6.6387
 30
0.0000
  0
SEQEND
  8
0
  0
POLYLINE
  8
1
 66
1
 10
0.0000
 20
0.0000
 30
0.0000
 40
0.7500
 41
0.7500
 70
0
  0
VERTEX
  8
1
 10
93.1923
 20
6.6387
 30
0.0000
 42
1.0000
  0
VERTEX
  8
1
 10
93.9423
 20
6.6387
 30
0.0000
  0
SEQEND
  8
0
  0
POLYLINE
  8
1
 66
1
 10
0.0000
 20
0.0000
 30
0.0000
 40
0.7500
 41
0.7500
 70
0
  0
VERTEX
  8
1
 10
93.9423
 20
8.6827
 30
0.0000
 42
1.0000
  0
VERTEX
  8
1
 10
93.1923
 20
8.6827
 30
0.0000
  0
SEQEND
  8
0
  0
POLYLINE
  8
1
 66
1
 10
0.0000
 20
0.0000
 30
0.0000
 40
1.5000
 41
1.5000
 70
0
  0
VERTEX
  8
1
 10
79.9633
 20
10.2133
 30
0.0000
  0
VERTEX
  8
1
 10
82.0000
 20
12.2500
 30
0.0000
  0
SEQEND
  8
0
  0
POLYLINE
  8
1
 66
1
 10
0.0000
 20
0.0000
 30
0.0000
 40
0.7500
 41
0.7500
 70
0
  0
VERTEX
  8
1
 10
82.2652
 20
11.9848
 30
0.0000
 42
1.0000
  0
VERTEX
  8
1
 10
81.7348
 20
12.5152
 30
0.0000
  0
SEQEND
  8
0
  0
POLYLINE
  8
1
 66
1
 10
0.0000
 20
0.0000
 30
0.0000
 40
0.7500
 41
0.7500
 70
0
  0
VERTEX
  8
1
 10
79.6981
 20
10.4785
 30
0.0000
 42
1.0000
  0
VERTEX
  8
1
 10
80.2285
 20
9.9481
 30
0.0000
  0
SEQEND
  8
0
  0
POLYLINE
  8
1
 66
1
 10
0.0000
 20
0.0000
 30
0.0000
 40
1.5000
 41
1.5000
 70
0
  0
VERTEX
  8
1
 10
82.0000
 20
12.2500
 30
0.0000
  0
VERTEX
  8
1
 10
90.0000
 20
12.2500
 30
0.0000
  0
SEQEND
  8
0
  0
POLYLINE
  8
1
 66
1
 10
0.0000
 20
0.0000
 30
0.0000
 40
0.7500
 41
0.7500
 70
0
  0
VERTEX
  8
1
 10
90.0000
 20
11.8750
 30
0.0000
 42
1.0000
  0
VERTEX
  8
1
 10
90.0000
 20
12.6250
 30
0.0000
  0
SEQEND
  8
0
  0
POLYLINE
  8
1
 66
1
 10
0.0000
 20
0.0000
 30
0.0000
 40
0.7500
 41
0.7500
 70
0
  0
VERTEX
  8
1
 10
82.0000
 20
12.6250
 30
0.0000
 42
1.0000
  0
VERTEX
  8
1
 10
82.0000
 20
11.8750
 30
0.0000
  0
SEQEND
  8
0
  0
POLYLINE
  8
1
 66
1
 10
0.0000
 20
0.0000
 30
0.0000
 40
1.5000
 41
1.5000
 70
0
  0
VERTEX
  8
1
 10
24.1993
 20
23.1476
 30
0.0000
  0
VERTEX
  8
1
 10
28.3017
 20
27.2500
 30
0.0000
  0
SEQEND
  8
0
  0
POLYLINE
  8
1
 66
1
 10
0.0000
 20
0.0000
 30
0.0000
 40
0.7500
 41
0.7500
 70
0
  0
VERTEX
  8
1
 10
28.5669
 20
26.9848
 30
0.0000
 42
1.0000
  0
VERTEX
  8
1
 10
28.0365
 20
27.5152
 30
0.0000
  0
SEQEND
  8
0
  0
POLYLINE
  8
1
 66
1
 10
0.0000
 20
0.0000
 30
0.0000
 40
0.7500
 41
0.7500
 70
0
  0
VERTEX
  8
1
 10
23.9341
 20
23.4128
 30
0.0000
 42
1.0000
  0
VERTEX
  8
1
 10
24.4645
 20
22.8824
 30
0.0000
  0
SEQEND
  8
0
  0
POLYLINE
  8
1
 66
1
 10
0.0000
 20
0.0000
 30
0.0000
 40
1.5000
 41
1.5000
 70
0
  0
VERTEX
  8
1
 10
40.4715
 20
27.2500
 30
0.0000
  0
VERTEX
  8
1
 10
28.3017
 20
27.2500
 30
0.0000
  0
SEQEND
  8
0
  0
POLYLINE
  8
1
 66
1
 10
0.0000
 20
0.0000
 30
0.0000
 40
0.7500
 41
0.7500
 70
0
  0
VERTEX
  8
1
 10
28.3017
 20
27.6250
 30
0.0000
 42
1.0000
  0
VERTEX
  8
1
 10
28.3017
 20
26.8750
 30
0.0000
  0
SEQEND
  8
0
  0
POLYLINE
  8
1
 66
1
 10
0.0000
 20
0.0000
 30
0.0000
 40
0.7500
 41
0.7500
 70
0
  0
VERTEX
  8
1
 10
40.4715
 20
26.8750
 30
0.0000
 42
1.0000
  0
VERTEX
  8
1
 10
40.4715
 20
27.6250
 30
0.0000
  0
SEQEND
  8
0
  0
POLYLINE
  8
1
 66
1
 10
0.0000
 20
0.0000
 30
0.0000
 40
1.5000
 41
1.5000
 70
0
  0
VERTEX
  8
1
 10
45.6397
 20
37.1900
 30
0.0000
  0
VERTEX
  8
1
 10
44.3897
 20
35.9400
 30
0.0000
  0
SEQEND
  8
0
  0
POLYLINE
  8
1
 66
1
 10
0.0000
 20
0.0000
 30
0.0000
 40
0.7500
 41
0.7500
 70
0
  0
VERTEX
  8
1
 10
44.1245
 20
36.2052
 30
0.0000
 42
1.0000
  0
VERTEX
  8
1
 10
44.6549
 20
35.6748
 30
0.0000
  0
SEQEND
  8
0
  0
POLYLINE
  8
1
 66
1
 10
0.0000
 20
0.0000
 30
0.0000
 40
0.7500
 41
0.7500
 70
0
  0
VERTEX
  8
1
 10
45.9049
 20
36.9248
 30
0.0000
 42
1.0000
  0
VERTEX
  8
1
 10
45.3745
 20
37.4552
 30
0.0000
  0
SEQEND
  8
0
  0
POLYLINE
  8
1
 66
1
 10
0.0000
 20
0.0000
 30
0.0000
 40
1.5000
 41
1.5000
 70
0
  0
VERTEX
  8
1
 10
44.3897
 20
35.9400
 30
0.0000
  0
VERTEX
  8
1
 10
44.3897
 20
31.1682
 30
0.0000
  0
SEQEND
  8
0
  0
POLYLINE
  8
1
 66
1
 10
0.0000
 20
0.0000
 30
0.0000
 40
0.7500
 41
0.7500
 70
0
  0
VERTEX
  8
1
 10
44.0147
 20
31.1682
 30
0.0000
 42
1.0000
  0
VERTEX
  8
1
 10
44.7647
 20
31.1682
 30
0.0000
  0
SEQEND
  8
0
  0
POLYLINE
  8
1
 66
1
 10
0.0000
 20
0.0000
 30
0.0000
 40
0.7500
 41
0.7500
 70
0
  0
VERTEX
  8
1
 10
44.7647
 20
35.9400
 30
0.0000
 42
1.0000
  0
VERTEX
  8
1
 10
44.0147
 20
35.9400
 30
0.0000
  0
SEQEND
  8
0
  0
POLYLINE
  8
1
 66
1
 10
0.0000
 20
0.0000
 30
0.0000
 40
1.5000
 41
1.5000
 70
0
  0
VERTEX
  8
1
 10
44.3897
 20
31.1682
 30
0.0000
  0
VERTEX
  8
1
 10
40.4715
 20
27.2500
 30
0.0000
  0
SEQEND
  8
0
  0
POLYLINE
  8
1
 66
1
 10
0.0000
 20
0.0000
 30
0.0000
 40
0.7500
 41
0.7500
 70
0
  0
VERTEX
  8
1
 10
40.2063
 20
27.5152
 30
0.0000
 42
1.0000
  0
VERTEX
  8
1
 10
40.7367
 20
26.9848
 30
0.0000
  0
SEQEND
  8
0
  0
POLYLINE
  8
1
 66
1
 10
0.0000
 20
0.0000
 30
0.0000
 40
0.7500
 41
0.7500
 70
0
  0
VERTEX
  8
1
 10
44.6549
 20
30.9030
 30
0.0000
 42
1.0000
  0
VERTEX
  8
1
 10
44.1245
 20
31.4334
 30
0.0000
  0
SEQEND
  8
0
  0
POLYLINE
  8
1
 66
1
 10
0.0000
 20
0.0000
 30
0.0000
 40
1.5000
 41
1.5000
 70
0
  0
VERTEX
  8
1
 10
47.6397
 20
37.1900
 30
0.0000
  0
VERTEX
  8
1
 10
45.6397
 20
37.1900
 30
0.0000
  0
SEQEND
  8
0
  0
POLYLINE
  8
1
 66
1
 10
0.0000
 20
0.0000
 30
0.0000
 40
0.7500
 41
0.7500
 70
0
  0
VERTEX
  8
1
 10
45.6397
 20
37.5650
 30
0.0000
 42
1.0000
  0
VERTEX
  8
1
 10
45.6397
 20
36.8150
 30
0.0000
  0
SEQEND
  8
0
  0
POLYLINE
  8
1
 66
1
 10
0.0000
 20
0.0000
 30
0.0000
 40
0.7500
 41
0.7500
 70
0
  0
VERTEX
  8
1
 10
47.6397
 20
36.8150
 30
0.0000
 42
1.0000
  0
VERTEX
  8
1
 10
47.6397
 20
37.5650
 30
0.0000
  0
SEQEND
  8
0
  0
POLYLINE
  8
1
 66
1
 10
0.0000
 20
0.0000
 30
0.0000
 40
1.5000
 41
1.5000
 70
0
  0
VERTEX
  8
1
 10
43.3649
 20
44.3851
 30
0.0000
  0
VERTEX
  8
1
 10
37.9265
 20
38.9467
 30
0.0000
  0
SEQEND
  8
0
  0
POLYLINE
  8
1
 66
1
 10
0.0000
 20
0.0000
 30
0.0000
 40
0.7500
 41
0.7500
 70
0
  0
VERTEX
  8
1
 10
37.6613
 20
39.2119
 30
0.0000
 42
1.0000
  0
VERTEX
  8
1
 10
38.1917
 20
38.6815
 30
0.0000
  0
SEQEND
  8
0
  0
POLYLINE
  8
1
 66
1
 10
0.0000
 20
0.0000
 30
0.0000
 40
0.7500
 41
0.7500
 70
0
  0
VERTEX
  8
1
 10
43.6301
 20
44.1199
 30
0.0000
 42
1.0000
  0
VERTEX
  8
1
 10
43.0997
 20
44.6503
 30
0.0000
  0
SEQEND
  8
0
  0
POLYLINE
  8
1
 66
1
 10
0.0000
 20
0.0000
 30
0.0000
 40
1.5000
 41
1.5000
 70
0
  0
VERTEX
  8
1
 10
37.9265
 20
38.9467
 30
0.0000
  0
VERTEX
  8
1
 10
37.9265
 20
34.1967
 30
0.0000
  0
SEQEND
  8
0
  0
POLYLINE
  8
1
 66
1
 10
0.0000
 20
0.0000
 30
0.0000
 40
0.7500
 41
0.7500
 70
0
  0
VERTEX
  8
1
 10
37.5515
 20
34.1967
 30
0.0000
 42
1.0000
  0
VERTEX
  8
1
 10
38.3015
 20
34.1967
 30
0.0000
  0
SEQEND
  8
0
  0
POLYLINE
  8
1
 66
1
 10
0.0000
 20
0.0000
 30
0.0000
 40
0.7500
 41
0.7500
 70
0
  0
VERTEX
  8
1
 10
38.3015
 20
38.9467
 30
0.0000
 42
1.0000
  0
VERTEX
  8
1
 10
37.5515
 20
38.9467
 30
0.0000
  0
SEQEND
  8
0
  0
POLYLINE
  8
1
 66
1
 10
0.0000
 20
0.0000
 30
0.0000
 40
1.5000
 41
1.5000
 70
0
  0
VERTEX
  8
1
 10
47.6397
 20
44.8100
 30
0.0000
  0
VERTEX
  8
1
 10
43.7898
 20
44.8100
 30
0.0000
  0
SEQEND
  8
0
  0
POLYLINE
  8
1
 66
1
 10
0.0000
 20
0.0000
 30
0.0000
 40
0.7500
 41
0.7500
 70
0
  0
VERTEX
  8
1
 10
43.7898
 20
45.1850
 30
0.0000
 42
1.0000
  0
VERTEX
  8
1
 10
43.7898
 20
44.4350
 30
0.0000
  0
SEQEND
  8
0
  0
POLYLINE
  8
1
 66
1
 10
0.0000
 20
0.0000
 30
0.0000
 40
0.7500
 41
0.7500
 70
0
  0
VERTEX
  8
1
 10
47.6397
 20
44.4350
 30
0.0000
 42
1.0000
  0
VERTEX
  8
1
 10
47.6397
 20
45.1850
 30
0.0000
  0
SEQEND
  8
0
  0
POLYLINE
  8
1
 66
1
 10
0.0000
 20
0.0000
 30
0.0000
 40
1.5000
 41
1.5000
 70
0
  0
VERTEX
  8
1
 10
43.7898
 20
44.8100
 30
0.0000
  0
VERTEX
  8
1
 10
43.3649
 20
44.3851
 30
0.0000
  0
SEQEND
  8
0
  0
POLYLINE
  8
1
 66
1
 10
0.0000
 20
0.0000
 30
0.0000
 40
0.7500
 41
0.7500
 70
0
  0
VERTEX
  8
1
 10
43.0997
 20
44.6503
 30
0.0000
 42
1.0000
  0
VERTEX
  8
1
 10
43.6301
 20
44.1199
 30
0.0000
  0
SEQEND
  8
0
  0
POLYLINE
  8
1
 66
1
 10
0.0000
 20
0.0000
 30
0.0000
 40
0.7500
 41
0.7500
 70
0
  0
VERTEX
  8
1
 10
44.0550
 20
44.5448
 30
0.0000
 42
1.0000
  0
VERTEX
  8
1
 10
43.5246
 20
45.0752
 30
0.0000
  0
SEQEND
  8
0
  0
POLYLINE
  8
1
 66
1
 10
0.0000
 20
0.0000
 30
0.0000
 40
1.5000
 41
1.5000
 70
0
  0
VERTEX
  8
1
 10
35.3865
 20
49.4367
 30
0.0000
  0
VERTEX
  8
1
 10
37.4498
 20
51.5000
 30
0.0000
  0
SEQEND
  8
0
  0
POLYLINE
  8
1
 66
1
 10
0.0000
 20
0.0000
 30
0.0000
 40
0.7500
 41
0.7500
 70
0
  0
VERTEX
  8
1
 10
37.7150
 20
51.2348
 30
0.0000
 42
1.0000
  0
VERTEX
  8
1
 10
37.1846
 20
51.7652
 30
0.0000
  0
SEQEND
  8
0
  0
POLYLINE
  8
1
 66
1
 10
0.0000
 20
0.0000
 30
0.0000
 40
0.7500
 41
0.7500
 70
0
  0
VERTEX
  8
1
 10
35.1213
 20
49.7019
 30
0.0000
 42
1.0000
  0
VERTEX
  8
1
 10
35.6517
 20
49.1715
 30
0.0000
  0
SEQEND
  8
0
  0
POLYLINE
  8
1
 66
1
 10
0.0000
 20
0.0000
 30
0.0000
 40
1.5000
 41
1.5000
 70
0
  0
VERTEX
  8
1
 10
37.4498
 20
51.5000
 30
0.0000
  0
VERTEX
  8
1
 10
42.0000
 20
51.5000
 30
0.0000
  0
SEQEND
  8
0
  0
POLYLINE
  8
1
 66
1
 10
0.0000
 20
0.0000
 30
0.0000
 40
0.7500
 41
0.7500
 70
0
  0
VERTEX
  8
1
 10
42.0000
 20
51.1250
 30
0.0000
 42
1.0000
  0
VERTEX
  8
1
 10
42.0000
 20
51.8750
 30
0.0000
  0
SEQEND
  8
0
  0
POLYLINE
  8
1
 66
1
 10
0.0000
 20
0.0000
 30
0.0000
 40
0.7500
 41
0.7500
 70
0
  0
VERTEX
  8
1
 10
37.4498
 20
51.8750
 30
0.0000
 42
1.0000
  0
VERTEX
  8
1
 10
37.4498
 20
51.1250
 30
0.0000
  0
SEQEND
  8
0
  0
POLYLINE
  8
1
 66
1
 10
0.0000
 20
0.0000
 30
0.0000
 40
1.5000
 41
1.5000
 70
0
  0
VERTEX
  8
1
 10
46.6900
 20
56.1900
 30
0.0000
  0
VERTEX
  8
1
 10
50.0000
 20
56.1900
 30
0.0000
  0
SEQEND
  8
0
  0
POLYLINE
  8
1
 66
1
 10
0.0000
 20
0.0000
 30
0.0000
 40
0.7500
 41
0.7500
 70
0
  0
VERTEX
  8
1
 10
50.0000
 20
55.8150
 30
0.0000
 42
1.0000
  0
VERTEX
  8
1
 10
50.0000
 20
56.5650
 30
0.0000
  0
SEQEND
  8
0
  0
POLYLINE
  8
1
 66
1
 10
0.0000
 20
0.0000
 30
0.0000
 40
0.7500
 41
0.7500
 70
0
  0
VERTEX
  8
1
 10
46.6900
 20
56.5650
 30
0.0000
 42
1.0000
  0
VERTEX
  8
1
 10
46.6900
 20
55.8150
 30
0.0000
  0
SEQEND
  8
0
  0
POLYLINE
  8
1
 66
1
 10
0.0000
 20
0.0000
 30
0.0000
 40
1.5000
 41
1.5000
 70
0
  0
VERTEX
  8
1
 10
42.0000
 20
51.5000
 30
0.0000
  0
VERTEX
  8
1
 10
46.6900
 20
56.1900
 30
0.0000
  0
SEQEND
  8
0
  0
POLYLINE
  8
1
 66
1
 10
0.0000
 20
0.0000
 30
0.0000
 40
0.7500
 41
0.7500
 70
0
  0
VERTEX
  8
1
 10
46.9552
 20
55.9248
 30
0.0000
 42
1.0000
  0
VERTEX
  8
1
 10
46.4248
 20
56.4552
 30
0.0000
  0
SEQEND
  8
0
  0
POLYLINE
  8
1
 66
1
 10
0.0000
 20
0.0000
 30
0.0000
 40
0.7500
 41
0.7500
 70
0
  0
VERTEX
  8
1
 10
41.7348
 20
51.7652
 30
0.0000
 42
1.0000
  0
VERTEX
  8
1
 10
42.2652
 20
51.2348
 30
0.0000
  0
SEQEND
  8
0
  0
POLYLINE
  8
1
 66
1
 10
0.0000
 20
0.0000
 30
0.0000
 40
1.5000
 41
1.5000
 70
0
  0
VERTEX
  8
1
 10
30.3065
 20
49.4367
 30
0.0000
  0
VERTEX
  8
1
 10
30.3065
 20
50.3065
 30
0.0000
  0
SEQEND
  8
0
  0
POLYLINE
  8
1
 66
1
 10
0.0000
 20
0.0000
 30
0.0000
 40
0.7500
 41
0.7500
 70
0
  0
VERTEX
  8
1
 10
30.6815
 20
50.3065
 30
0.0000
 42
1.0000
  0
VERTEX
  8
1
 10
29.9315
 20
50.3065
 30
0.0000
  0
SEQEND
  8
0
  0
POLYLINE
  8
1
 66
1
 10
0.0000
 20
0.0000
 30
0.0000
 40
0.7500
 41
0.7500
 70
0
  0
VERTEX
  8
1
 10
29.9315
 20
49.4367
 30
0.0000
 42
1.0000
  0
VERTEX
  8
1
 10
30.6815
 20
49.4367
 30
0.0000
  0
SEQEND
  8
0
  0
POLYLINE
  8
1
 66
1
 10
0.0000
 20
0.0000
 30
0.0000
 40
1.5000
 41
1.5000
 70
0
  0
VERTEX
  8
1
 10
36.1900
 20
56.1900
 30
0.0000
  0
VERTEX
  8
1
 10
40.0000
 20
56.1900
 30
0.0000
  0
SEQEND
  8
0
  0
POLYLINE
  8
1
 66
1
 10
0.0000
 20
0.0000
 30
0.0000
 40
0.7500
 41
0.7500
 70
0
  0
VERTEX
  8
1
 10
40.0000
 20
55.8150
 30
0.0000
 42
1.0000
  0
VERTEX
  8
1
 10
40.0000
 20
56.5650
 30
0.0000
  0
SEQEND
  8
0
  0
POLYLINE
  8
1
 66
1
 10
0.0000
 20
0.0000
 30
0.0000
 40
0.7500
 41
0.7500
 70
0
  0
VERTEX
  8
1
 10
36.1900
 20
56.5650
 30
0.0000
 42
1.0000
  0
VERTEX
  8
1
 10
36.1900
 20
55.8150
 30
0.0000
  0
SEQEND
  8
0
  0
POLYLINE
  8
1
 66
1
 10
0.0000
 20
0.0000
 30
0.0000
 40
1.5000
 41
1.5000
 70
0
  0
VERTEX
  8
1
 10
30.3065
 20
50.3065
 30
0.0000
  0
VERTEX
  8
1
 10
36.1900
 20
56.1900
 30
0.0000
  0
SEQEND
  8
0
  0
POLYLINE
  8
1
 66
1
 10
0.0000
 20
0.0000
 30
0.0000
 40
0.7500
 41
0.7500
 70
0
  0
VERTEX
  8
1
 10
36.4552
 20
55.9248
 30
0.0000
 42
1.0000
  0
VERTEX
  8
1
 10
35.9248
 20
56.4552
 30
0.0000
  0
SEQEND
  8
0
  0
POLYLINE
  8
1
 66
1
 10
0.0000
 20
0.0000
 30
0.0000
 40
0.7500
 41
0.7500
 70
0
  0
VERTEX
  8
1
 10
30.0413
 20
50.5717
 30
0.0000
 42
1.0000
  0
VERTEX
  8
1
 10
30.5717
 20
50.0413
 30
0.0000
  0
SEQEND
  8
0
  0
POLYLINE
  8
1
 66
1
 10
0.0000
 20
0.0000
 30
0.0000
 40
1.5000
 41
1.5000
 70
0
  0
VERTEX
  8
1
 10
25.2265
 20
49.4367
 30
0.0000
  0
VERTEX
  8
1
 10
25.2265
 20
53.7265
 30
0.0000
  0
SEQEND
  8
0
  0
POLYLINE
  8
1
 66
1
 10
0.0000
 20
0.0000
 30
0.0000
 40
0.7500
 41
0.7500
 70
0
  0
VERTEX
  8
1
 10
25.6015
 20
53.7265
 30
0.0000
 42
1.0000
  0
VERTEX
  8
1
 10
24.8515
 20
53.7265
 30
0.0000
  0
SEQEND
  8
0
  0
POLYLINE
  8
1
 66
1
 10
0.0000
 20
0.0000
 30
0.0000
 40
0.7500
 41
0.7500
 70
0
  0
VERTEX
  8
1
 10
24.8515
 20
49.4367
 30
0.0000
 42
1.0000
  0
VERTEX
  8
1
 10
25.6015
 20
49.4367
 30
0.0000
  0
SEQEND
  8
0
  0
POLYLINE
  8
1
 66
1
 10
0.0000
 20
0.0000
 30
0.0000
 40
1.5000
 41
1.5000
 70
0
  0
VERTEX
  8
1
 10
27.6900
 20
56.1900
 30
0.0000
  0
VERTEX
  8
1
 10
30.0000
 20
56.1900
 30
0.0000
  0
SEQEND
  8
0
  0
POLYLINE
  8
1
 66
1
 10
0.0000
 20
0.0000
 30
0.0000
 40
0.7500
 41
0.7500
 70
0
  0
VERTEX
  8
1
 10
30.0000
 20
55.8150
 30
0.0000
 42
1.0000
  0
VERTEX
  8
1
 10
30.0000
 20
56.5650
 30
0.0000
  0
SEQEND
  8
0
  0
POLYLINE
  8
1
 66
1
 10
0.0000
 20
0.0000
 30
0.0000
 40
0.7500
 41
0.7500
 70
0
  0
VERTEX
  8
1
 10
27.6900
 20
56.5650
 30
0.0000
 42
1.0000
  0
VERTEX
  8
1
 10
27.6900
 20
55.8150
 30
0.0000
  0
SEQEND
  8
0
  0
POLYLINE
  8
1
 66
1
 10
0.0000
 20
0.0000
 30
0.0000
 40
1.5000
 41
1.5000
 70
0
  0
VERTEX
  8
1
 10
25.2265
 20
53.7265
 30
0.0000
  0
VERTEX
  8
1
 10
27.6900
 20
56.1900
 30
0.0000
  0
SEQEND
  8
0
  0
POLYLINE
  8
1
 66
1
 10
0.0000
 20
0.0000
 30
0.0000
 40
0.7500
 41
0.7500
 70
0
  0
VERTEX
  8
1
 10
27.9552
 20
55.9248
 30
0.0000
 42
1.0000
  0
VERTEX
  8
1
 10
27.4248
 20
56.4552
 30
0.0000
  0
SEQEND
  8
0
  0
POLYLINE
  8
1
 66
1
 10
0.0000
 20
0.0000
 30
0.0000
 40
0.7500
 41
0.7500
 70
0
  0
VERTEX
  8
1
 10
24.9613
 20
53.9917
 30
0.0000
 42
1.0000
  0
VERTEX
  8
1
 10
25.4917
 20
53.4613
 30
0.0000
  0
SEQEND
  8
0
  0
POLYLINE
  8
1
 66
1
 10
0.0000
 20
0.0000
 30
0.0000
 40
1.5000
 41
1.5000
 70
0
  0
VERTEX
  8
1
 10
20.0000
 20
56.1900
 30
0.0000
  0
VERTEX
  8
1
 10
20.1465
 20
56.0435
 30
0.0000
  0
SEQEND
  8
0
  0
POLYLINE
  8
1
 66
1
 10
0.0000
 20
0.0000
 30
0.0000
 40
0.7500
 41
0.7500
 70
0
  0
VERTEX
  8
1
 10
19.8813
 20
55.7783
 30
0.0000
 42
1.0000
  0
VERTEX
  8
1
 10
20.4117
 20
56.3087
 30
0.0000
  0
SEQEND
  8
0
  0
POLYLINE
  8
1
 66
1
 10
0.0000
 20
0.0000
 30
0.0000
 40
0.7500
 41
0.7500
 70
0
  0
VERTEX
  8
1
 10
20.2652
 20
56.4552
 30
0.0000
 42
1.0000
  0
VERTEX
  8
1
 10
19.7348
 20
55.9248
 30
0.0000
  0
SEQEND
  8
0
  0
POLYLINE
  8
1
 66
1
 10
0.0000
 20
0.0000
 30
0.0000
 40
1.5000
 41
1.5000
 70
0
  0
VERTEX
  8
1
 10
20.1465
 20
56.0435
 30
0.0000
  0
VERTEX
  8
1
 10
20.1465
 20
49.4367
 30
0.0000
  0
SEQEND
  8
0
  0
POLYLINE
  8
1
 66
1
 10
0.0000
 20
0.0000
 30
0.0000
 40
0.7500
 41
0.7500
 70
0
  0
VERTEX
  8
1
 10
19.7715
 20
49.4367
 30
0.0000
 42
1.0000
  0
VERTEX
  8
1
 10
20.5215
 20
49.4367
 30
0.0000
  0
SEQEND
  8
0
  0
POLYLINE
  8
1
 66
1
 10
0.0000
 20
0.0000
 30
0.0000
 40
0.7500
 41
0.7500
 70
0
  0
VERTEX
  8
1
 10
20.5215
 20
56.0435
 30
0.0000
 42
1.0000
  0
VERTEX
  8
1
 10
19.7715
 20
56.0435
 30
0.0000
  0
SEQEND
  8
0
  0
POLYLINE
  8
1
 66
1
 10
0.0000
 20
0.0000
 30
0.0000
 40
1.5000
 41
1.5000
 70
0
  0
VERTEX
  8
1
 10
10.0000
 20
56.1900
 30
0.0000
  0
VERTEX
  8
1
 10
11.8100
 20
56.1900
 30
0.0000
  0
SEQEND
  8
0
  0
POLYLINE
  8
1
 66
1
 10
0.0000
 20
0.0000
 30
0.0000
 40
0.7500
 41
0.7500
 70
0
  0
VERTEX
  8
1
 10
11.8100
 20
55.8150
 30
0.0000
 42
1.0000
  0
VERTEX
  8
1
 10
11.8100
 20
56.5650
 30
0.0000
  0
SEQEND
  8
0
  0
POLYLINE
  8
1
 66
1
 10
0.0000
 20
0.0000
 30
0.0000
 40
0.7500
 41
0.7500
 70
0
  0
VERTEX
  8
1
 10
10.0000
 20
56.5650
 30
0.0000
 42
1.0000
  0
VERTEX
  8
1
 10
10.0000
 20
55.8150
 30
0.0000
  0
SEQEND
  8
0
  0
POLYLINE
  8
1
 66
1
 10
0.0000
 20
0.0000
 30
0.0000
 40
1.5000
 41
1.5000
 70
0
  0
VERTEX
  8
1
 10
15.0665
 20
52.9335
 30
0.0000
  0
VERTEX
  8
1
 10
15.0665
 20
49.4393
 30
0.0000
  0
SEQEND
  8
0
  0
POLYLINE
  8
1
 66
1
 10
0.0000
 20
0.0000
 30
0.0000
 40
0.7500
 41
0.7500
 70
0
  0
VERTEX
  8
1
 10
14.6915
 20
49.4393
 30
0.0000
 42
1.0000
  0
VERTEX
  8
1
 10
15.4415
 20
49.4393
 30
0.0000
  0
SEQEND
  8
0
  0
POLYLINE
  8
1
 66
1
 10
0.0000
 20
0.0000
 30
0.0000
 40
0.7500
 41
0.7500
 70
0
  0
VERTEX
  8
1
 10
15.4415
 20
52.9335
 30
0.0000
 42
1.0000
  0
VERTEX
  8
1
 10
14.6915
 20
52.9335
 30
0.0000
  0
SEQEND
  8
0
  0
POLYLINE
  8
1
 66
1
 10
0.0000
 20
0.0000
 30
0.0000
 40
1.5000
 41
1.5000
 70
0
  0
VERTEX
  8
1
 10
11.8100
 20
56.1900
 30
0.0000
  0
VERTEX
  8
1
 10
15.0665
 20
52.9335
 30
0.0000
  0
SEQEND
  8
0
  0
POLYLINE
  8
1
 66
1
 10
0.0000
 20
0.0000
 30
0.0000
 40
0.7500
 41
0.7500
 70
0
  0
VERTEX
  8
1
 10
14.8013
 20
52.6683
 30
0.0000
 42
1.0000
  0
VERTEX
  8
1
 10
15.3317
 20
53.1987
 30
0.0000
  0
SEQEND
  8
0
  0
POLYLINE
  8
1
 66
1
 10
0.0000
 20
0.0000
 30
0.0000
 40
0.7500
 41
0.7500
 70
0
  0
VERTEX
  8
1
 10
12.0752
 20
56.4552
 30
0.0000
 42
1.0000
  0
VERTEX
  8
1
 10
11.5448
 20
55.9248
 30
0.0000
  0
SEQEND
  8
0
  0
POLYLINE
  8
1
 66
1
 10
0.0000
 20
0.0000
 30
0.0000
 40
1.5000
 41
1.5000
 70
0
  0
VERTEX
  8
1
 10
19.1193
 20
20.6076
 30
0.0000
  0
VERTEX
  8
1
 10
19.1193
 20
16.3693
 30
0.0000
  0
SEQEND
  8
0
  0
POLYLINE
  8
1
 66
1
 10
0.0000
 20
0.0000
 30
0.0000
 40
0.7500
 41
0.7500
 70
0
  0
VERTEX
  8
1
 10
18.7443
 20
16.3693
 30
0.0000
 42
1.0000
  0
VERTEX
  8
1
 10
19.4943
 20
16.3693
 30
0.0000
  0
SEQEND
  8
0
  0
POLYLINE
  8
1
 66
1
 10
0.0000
 20
0.0000
 30
0.0000
 40
0.7500
 41
0.7500
 70
0
  0
VERTEX
  8
1
 10
19.4943
 20
20.6076
 30
0.0000
 42
1.0000
  0
VERTEX
  8
1
 10
18.7443
 20
20.6076
 30
0.0000
  0
SEQEND
  8
0
  0
POLYLINE
  8
1
 66
1
 10
0.0000
 20
0.0000
 30
0.0000
 40
1.5000
 41
1.5000
 70
0
  0
VERTEX
  8
1
 10
19.1193
 20
16.3693
 30
0.0000
  0
VERTEX
  8
1
 10
16.5000
 20
13.7500
 30
0.0000
  0
SEQEND
  8
0
  0
POLYLINE
  8
1
 66
1
 10
0.0000
 20
0.0000
 30
0.0000
 40
0.7500
 41
0.7500
 70
0
  0
VERTEX
  8
1
 10
16.2348
 20
14.0152
 30
0.0000
 42
1.0000
  0
VERTEX
  8
1
 10
16.7652
 20
13.4848
 30
0.0000
  0
SEQEND
  8
0
  0
POLYLINE
  8
1
 66
1
 10
0.0000
 20
0.0000
 30
0.0000
 40
0.7500
 41
0.7500
 70
0
  0
VERTEX
  8
1
 10
19.3845
 20
16.1041
 30
0.0000
 42
1.0000
  0
VERTEX
  8
1
 10
18.8541
 20
16.6345
 30
0.0000
  0
SEQEND
  8
0
  0
POLYLINE
  8
1
 66
1
 10
0.0000
 20
0.0000
 30
0.0000
 40
1.5000
 41
1.5000
 70
0
  0
VERTEX
  8
1
 10
16.5000
 20
13.7500
 30
0.0000
  0
VERTEX
  8
1
 10
8.2500
 20
13.7500
 30
0.0000
  0
SEQEND
  8
0
  0
POLYLINE
  8
1
 66
1
 10
0.0000
 20
0.0000
 30
0.0000
 40
0.7500
 41
0.7500
 70
0
  0
VERTEX
  8
1
 10
8.2500
 20
14.1250
 30
0.0000
 42
1.0000
  0
VERTEX
  8
1
 10
8.2500
 20
13.3750
 30
0.0000
  0
SEQEND
  8
0
  0
POLYLINE
  8
1
 66
1
 10
0.0000
 20
0.0000
 30
0.0000
 40
0.7500
 41
0.7500
 70
0
  0
VERTEX
  8
1
 10
16.5000
 20
13.3750
 30
0.0000
 42
1.0000
  0
VERTEX
  8
1
 10
16.5000
 20
14.1250
 30
0.0000
  0
SEQEND
  8
0
  0
POLYLINE
  8
1
 66
1
 10
0.0000
 20
0.0000
 30
0.0000
 40
1.5000
 41
1.5000
 70
0
  0
VERTEX
  8
1
 10
8.2500
 20
13.7500
 30
0.0000
  0
VERTEX
  8
1
 10
4.5000
 20
17.5000
 30
0.0000
  0
SEQEND
  8
0
  0
POLYLINE
  8
1
 66
1
 10
0.0000
 20
0.0000
 30
0.0000
 40
0.7500
 41
0.7500
 70
0
  0
VERTEX
  8
1
 10
4.7652
 20
17.7652
 30
0.0000
 42
1.0000
  0
VERTEX
  8
1
 10
4.2348
 20
17.2348
 30
0.0000
  0
SEQEND
  8
0
  0
POLYLINE
  8
1
 66
1
 10
0.0000
 20
0.0000
 30
0.0000
 40
0.7500
 41
0.7500
 70
0
  0
VERTEX
  8
1
 10
7.9848
 20
13.4848
 30
0.0000
 42
1.0000
  0
VERTEX
  8
1
 10
8.5152
 20
14.0152
 30
0.0000
  0
SEQEND
  8
0
  0
POLYLINE
  8
1
 66
1
 10
0.0000
 20
0.0000
 30
0.0000
 40
1.5000
 41
1.5000
 70
0
  0
VERTEX
  8
1
 10
4.5000
 20
17.5000
 30
0.0000
  0
VERTEX
  8
1
 10
4.5000
 20
41.5000
 30
0.0000
  0
SEQEND
  8
0
  0
POLYLINE
  8
1
 66
1
 10
0.0000
 20
0.0000
 30
0.0000
 40
0.7500
 41
0.7500
 70
0
  0
VERTEX
  8
1
 10
4.8750
 20
41.5000
 30
0.0000
 42
1.0000
  0
VERTEX
  8
1
 10
4.1250
 20
41.5000
 30
0.0000
  0
SEQEND
  8
0
  0
POLYLINE
  8
1
 66
1
 10
0.0000
 20
0.0000
 30
0.0000
 40
0.7500
 41
0.7500
 70
0
  0
VERTEX
  8
1
 10
4.1250
 20
17.5000
 30
0.0000
 42
1.0000
  0
VERTEX
  8
1
 10
4.8750
 20
17.5000
 30
0.0000
  0
SEQEND
  8
0
  0
POLYLINE
  8
1
 66
1
 10
0.0000
 20
0.0000
 30
0.0000
 40
1.5000
 41
1.5000
 70
0
  0
VERTEX
  8
1
 10
7.5000
 20
44.5000
 30
0.0000
  0
VERTEX
  8
1
 10
15.5000
 20
44.5000
 30
0.0000
  0
SEQEND
  8
0
  0
POLYLINE
  8
1
 66
1
 10
0.0000
 20
0.0000
 30
0.0000
 40
0.7500
 41
0.7500
 70
0
  0
VERTEX
  8
1
 10
15.5000
 20
44.1250
 30
0.0000
 42
1.0000
  0
VERTEX
  8
1
 10
15.5000
 20
44.8750
 30
0.0000
  0
SEQEND
  8
0
  0
POLYLINE
  8
1
 66
1
 10
0.0000
 20
0.0000
 30
0.0000
 40
0.7500
 41
0.7500
 70
0
  0
VERTEX
  8
1
 10
7.5000
 20
44.8750
 30
0.0000
 42
1.0000
  0
VERTEX
  8
1
 10
7.5000
 20
44.1250
 30
0.0000
  0
SEQEND
  8
0
  0
POLYLINE
  8
1
 66
1
 10
0.0000
 20
0.0000
 30
0.0000
 40
1.5000
 41
1.5000
 70
0
  0
VERTEX
  8
1
 10
15.5000
 20
44.5000
 30
0.0000
  0
VERTEX
  8
1
 10
17.6065
 20
42.3935
 30
0.0000
  0
SEQEND
  8
0
  0
POLYLINE
  8
1
 66
1
 10
0.0000
 20
0.0000
 30
0.0000
 40
0.7500
 41
0.7500
 70
0
  0
VERTEX
  8
1
 10
17.3413
 20
42.1283
 30
0.0000
 42
1.0000
  0
VERTEX
  8
1
 10
17.8717
 20
42.6587
 30
0.0000
  0
SEQEND
  8
0
  0
POLYLINE
  8
1
 66
1
 10
0.0000
 20
0.0000
 30
0.0000
 40
0.7500
 41
0.7500
 70
0
  0
VERTEX
  8
1
 10
15.7652
 20
44.7652
 30
0.0000
 42
1.0000
  0
VERTEX
  8
1
 10
15.2348
 20
44.2348
 30
0.0000
  0
SEQEND
  8
0
  0
POLYLINE
  8
1
 66
1
 10
0.0000
 20
0.0000
 30
0.0000
 40
1.5000
 41
1.5000
 70
0
  0
VERTEX
  8
1
 10
17.6065
 20
42.3935
 30
0.0000
  0
VERTEX
  8
1
 10
17.6065
 20
34.1967
 30
0.0000
  0
SEQEND
  8
0
  0
POLYLINE
  8
1
 66
1
 10
0.0000
 20
0.0000
 30
0.0000
 40
0.7500
 41
0.7500
 70
0
  0
VERTEX
  8
1
 10
17.2315
 20
34.1967
 30
0.0000
 42
1.0000
  0
VERTEX
  8
1
 10
17.9815
 20
34.1967
 30
0.0000
  0
SEQEND
  8
0
  0
POLYLINE
  8
1
 66
1
 10
0.0000
 20
0.0000
 30
0.0000
 40
0.7500
 41
0.7500
 70
0
  0
VERTEX
  8
1
 10
17.9815
 20
42.3935
 30
0.0000
 42
1.0000
  0
VERTEX
  8
1
 10
17.2315
 20
42.3935
 30
0.0000
  0
SEQEND
  8
0
  0
POLYLINE
  8
1
 66
1
 10
0.0000
 20
0.0000
 30
0.0000
 40
1.5000
 41
1.5000
 70
0
  0
VERTEX
  8
1
 10
4.5000
 20
41.5000
 30
0.0000
  0
VERTEX
  8
1
 10
7.5000
 20
44.5000
 30
0.0000
  0
SEQEND
  8
0
  0
POLYLINE
  8
1
 66
1
 10
0.0000
 20
0.0000
 30
0.0000
 40
0.7500
 41
0.7500
 70
0
  0
VERTEX
  8
1
 10
7.7652
 20
44.2348
 30
0.0000
 42
1.0000
  0
VERTEX
  8
1
 10
7.2348
 20
44.7652
 30
0.0000
  0
SEQEND
  8
0
  0
POLYLINE
  8
1
 66
1
 10
0.0000
 20
0.0000
 30
0.0000
 40
0.7500
 41
0.7500
 70
0
  0
VERTEX
  8
1
 10
4.2348
 20
41.7652
 30
0.0000
 42
1.0000
  0
VERTEX
  8
1
 10
4.7652
 20
41.2348
 30
0.0000
  0
SEQEND
  8
0
  0
POLYLINE
  8
1
 66
1
 10
0.0000
 20
0.0000
 30
0.0000
 40
1.5000
 41
1.5000
 70
0
  0
VERTEX
  8
1
 10
35.3865
 20
34.1967
 30
0.0000
  0
VERTEX
  8
1
 10
35.3865
 20
32.8635
 30
0.0000
  0
SEQEND
  8
0
  0
POLYLINE
  8
1
 66
1
 10
0.0000
 20
0.0000
 30
0.0000
 40
0.7500
 41
0.7500
 70
0
  0
VERTEX
  8
1
 10
35.0115
 20
32.8635
 30
0.0000
 42
1.0000
  0
VERTEX
  8
1
 10
35.7615
 20
32.8635
 30
0.0000
  0
SEQEND
  8
0
  0
POLYLINE
  8
1
 66
1
 10
0.0000
 20
0.0000
 30
0.0000
 40
0.7500
 41
0.7500
 70
0
  0
VERTEX
  8
1
 10
35.7615
 20
34.1967
 30
0.0000
 42
1.0000
  0
VERTEX
  8
1
 10
35.0115
 20
34.1967
 30
0.0000
  0
SEQEND
  8
0
  0
POLYLINE
  8
1
 66
1
 10
0.0000
 20
0.0000
 30
0.0000
 40
1.5000
 41
1.5000
 70
0
  0
VERTEX
  8
1
 10
35.3865
 20
32.8635
 30
0.0000
  0
VERTEX
  8
1
 10
36.0000
 20
32.2500
 30
0.0000
  0
SEQEND
  8
0
  0
POLYLINE
  8
1
 66
1
 10
0.0000
 20
0.0000
 30
0.0000
 40
0.7500
 41
0.7500
 70
0
  0
VERTEX
  8
1
 10
35.7348
 20
31.9848
 30
0.0000
 42
1.0000
  0
VERTEX
  8
1
 10
36.2652
 20
32.5152
 30
0.0000
  0
SEQEND
  8
0
  0
POLYLINE
  8
1
 66
1
 10
0.0000
 20
0.0000
 30
0.0000
 40
0.7500
 41
0.7500
 70
0
  0
VERTEX
  8
1
 10
35.6517
 20
33.1287
 30
0.0000
 42
1.0000
  0
VERTEX
  8
1
 10
35.1213
 20
32.5983
 30
0.0000
  0
SEQEND
  8
0
  0
POLYLINE
  8
1
 66
1
 10
0.0000
 20
0.0000
 30
0.0000
 40
1.5000
 41
1.5000
 70
0
  0
VERTEX
  8
1
 10
36.0000
 20
32.2500
 30
0.0000
  0
VERTEX
  8
1
 10
39.2500
 20
32.2500
 30
0.0000
  0
SEQEND
  8
0
  0
POLYLINE
  8
1
 66
1
 10
0.0000
 20
0.0000
 30
0.0000
 40
0.7500
 41
0.7500
 70
0
  0
VERTEX
  8
1
 10
39.2500
 20
31.8750
 30
0.0000
 42
1.0000
  0
VERTEX
  8
1
 10
39.2500
 20
32.6250
 30
0.0000
  0
SEQEND
  8
0
  0
POLYLINE
  8
1
 66
1
 10
0.0000
 20
0.0000
 30
0.0000
 40
0.7500
 41
0.7500
 70
0
  0
VERTEX
  8
1
 10
36.0000
 20
32.6250
 30
0.0000
 42
1.0000
  0
VERTEX
  8
1
 10
36.0000
 20
31.8750
 30
0.0000
  0
SEQEND
  8
0
  0
POLYLINE
  8
1
 66
1
 10
0.0000
 20
0.0000
 30
0.0000
 40
1.5000
 41
1.5000
 70
0
  0
VERTEX
  8
1
 10
44.2493
 20
42.2493
 30
0.0000
  0
VERTEX
  8
1
 10
40.0000
 20
38.0000
 30
0.0000
  0
SEQEND
  8
0
  0
POLYLINE
  8
1
 66
1
 10
0.0000
 20
0.0000
 30
0.0000
 40
0.7500
 41
0.7500
 70
0
  0
VERTEX
  8
1
 10
39.7348
 20
38.2652
 30
0.0000
 42
1.0000
  0
VERTEX
  8
1
 10
40.2652
 20
37.7348
 30
0.0000
  0
SEQEND
  8
0
  0
POLYLINE
  8
1
 66
1
 10
0.0000
 20
0.0000
 30
0.0000
 40
0.7500
 41
0.7500
 70
0
  0
VERTEX
  8
1
 10
44.5145
 20
41.9842
 30
0.0000
 42
1.0000
  0
VERTEX
  8
1
 10
43.9842
 20
42.5145
 30
0.0000
  0
SEQEND
  8
0
  0
POLYLINE
  8
1
 66
1
 10
0.0000
 20
0.0000
 30
0.0000
 40
1.5000
 41
1.5000
 70
0
  0
VERTEX
  8
1
 10
40.0000
 20
38.0000
 30
0.0000
  0
VERTEX
  8
1
 10
40.0000
 20
33.0000
 30
0.0000
  0
SEQEND
  8
0
  0
POLYLINE
  8
1
 66
1
 10
0.0000
 20
0.0000
 30
0.0000
 40
0.7500
 41
0.7500
 70
0
  0
VERTEX
  8
1
 10
39.6250
 20
33.0000
 30
0.0000
 42
1.0000
  0
VERTEX
  8
1
 10
40.3750
 20
33.0000
 30
0.0000
  0
SEQEND
  8
0
  0
POLYLINE
  8
1
 66
1
 10
0.0000
 20
0.0000
 30
0.0000
 40
0.7500
 41
0.7500
 70
0
  0
VERTEX
  8
1
 10
40.3750
 20
38.0000
 30
0.0000
 42
1.0000
  0
VERTEX
  8
1
 10
39.6250
 20
38.0000
 30
0.0000
  0
SEQEND
  8
0
  0
POLYLINE
  8
1
 66
1
 10
0.0000
 20
0.0000
 30
0.0000
 40
1.5000
 41
1.5000
 70
0
  0
VERTEX
  8
1
 10
40.0000
 20
33.0000
 30
0.0000
  0
VERTEX
  8
1
 10
39.2500
 20
32.2500
 30
0.0000
  0
SEQEND
  8
0
  0
POLYLINE
  8
1
 66
1
 10
0.0000
 20
0.0000
 30
0.0000
 40
0.7500
 41
0.7500
 70
0
  0
VERTEX
  8
1
 10
38.9848
 20
32.5152
 30
0.0000
 42
1.0000
  0
VERTEX
  8
1
 10
39.5152
 20
31.9848
 30
0.0000
  0
SEQEND
  8
0
  0
POLYLINE
  8
1
 66
1
 10
0.0000
 20
0.0000
 30
0.0000
 40
0.7500
 41
0.7500
 70
0
  0
VERTEX
  8
1
 10
40.2652
 20
32.7348
 30
0.0000
 42
1.0000
  0
VERTEX
  8
1
 10
39.7348
 20
33.2652
 30
0.0000
  0
SEQEND
  8
0
  0
POLYLINE
  8
1
 66
1
 10
0.0000
 20
0.0000
 30
0.0000
 40
1.5000
 41
1.5000
 70
0
  0
VERTEX
  8
1
 10
47.6397
 20
42.2700
 30
0.0000
  0
VERTEX
  8
1
 10
47.6190
 20
42.2493
 30
0.0000
  0
SEQEND
  8
0
  0
POLYLINE
  8
1
 66
1
 10
0.0000
 20
0.0000
 30
0.0000
 40
0.7500
 41
0.7500
 70
0
  0
VERTEX
  8
1
 10
47.3539
 20
42.5145
 30
0.0000
 42
1.0000
  0
VERTEX
  8
1
 10
47.8842
 20
41.9842
 30
0.0000
  0
SEQEND
  8
0
  0
POLYLINE
  8
1
 66
1
 10
0.0000
 20
0.0000
 30
0.0000
 40
0.7500
 41
0.7500
 70
0
  0
VERTEX
  8
1
 10
47.9049
 20
42.0048
 30
0.0000
 42
1.0000
  0
VERTEX
  8
1
 10
47.3745
 20
42.5352
 30
0.0000
  0
SEQEND
  8
0
  0
POLYLINE
  8
1
 66
1
 10
0.0000
 20
0.0000
 30
0.0000
 40
1.5000
 41
1.5000
 70
0
  0
VERTEX
  8
1
 10
47.6190
 20
42.2493
 30
0.0000
  0
VERTEX
  8
1
 10
44.2493
 20
42.2493
 30
0.0000
  0
SEQEND
  8
0
  0
POLYLINE
  8
1
 66
1
 10
0.0000
 20
0.0000
 30
0.0000
 40
0.7500
 41
0.7500
 70
0
  0
VERTEX
  8
1
 10
44.2493
 20
42.6243
 30
0.0000
 42
1.0000
  0
VERTEX
  8
1
 10
44.2493
 20
41.8743
 30
0.0000
  0
SEQEND
  8
0
  0
POLYLINE
  8
1
 66
1
 10
0.0000
 20
0.0000
 30
0.0000
 40
0.7500
 41
0.7500
 70
0
  0
VERTEX
  8
1
 10
47.6190
 20
41.8743
 30
0.0000
 42
1.0000
  0
VERTEX
  8
1
 10
47.6190
 20
42.6243
 30
0.0000
  0
SEQEND
  8
0
  0
POLYLINE
  8
1
 66
1
 10
0.0000
 20
0.0000
 30
0.0000
 40
1.5000
 41
1.5000
 70
0
  0
VERTEX
  8
1
 10
50.0000
 20
58.7300
 30
0.0000
  0
VERTEX
  8
1
 10
52.5200
 20
58.7300
 30
0.0000
  0
SEQEND
  8
0
  0
POLYLINE
  8
1
 66
1
 10
0.0000
 20
0.0000
 30
0.0000
 40
0.7500
 41
0.7500
 70
0
  0
VERTEX
  8
1
 10
52.5200
 20
58.3550
 30
0.0000
 42
1.0000
  0
VERTEX
  8
1
 10
52.5200
 20
59.1050
 30
0.0000
  0
SEQEND
  8
0
  0
POLYLINE
  8
1
 66
1
 10
0.0000
 20
0.0000
 30
0.0000
 40
0.7500
 41
0.7500
 70
0
  0
VERTEX
  8
1
 10
50.0000
 20
59.1050
 30
0.0000
 42
1.0000
  0
VERTEX
  8
1
 10
50.0000
 20
58.3550
 30
0.0000
  0
SEQEND
  8
0
  0
POLYLINE
  8
1
 66
1
 10
0.0000
 20
0.0000
 30
0.0000
 40
1.5000
 41
1.5000
 70
0
  0
VERTEX
  8
1
 10
52.5200
 20
58.7300
 30
0.0000
  0
VERTEX
  8
1
 10
53.0000
 20
58.2500
 30
0.0000
  0
SEQEND
  8
0
  0
POLYLINE
  8
1
 66
1
 10
0.0000
 20
0.0000
 30
0.0000
 40
0.7500
 41
0.7500
 70
0
  0
VERTEX
  8
1
 10
52.7348
 20
57.9848
 30
0.0000
 42
1.0000
  0
VERTEX
  8
1
 10
53.2652
 20
58.5152
 30
0.0000
  0
SEQEND
  8
0
  0
POLYLINE
  8
1
 66
1
 10
0.0000
 20
0.0000
 30
0.0000
 40
0.7500
 41
0.7500
 70
0
  0
VERTEX
  8
1
 10
52.7852
 20
58.9952
 30
0.0000
 42
1.0000
  0
VERTEX
  8
1
 10
52.2548
 20
58.4648
 30
0.0000
  0
SEQEND
  8
0
  0
POLYLINE
  8
1
 66
1
 10
0.0000
 20
0.0000
 30
0.0000
 40
1.5000
 41
1.5000
 70
0
  0
VERTEX
  8
1
 10
53.0000
 20
58.2500
 30
0.0000
  0
VERTEX
  8
1
 10
53.0000
 20
55.2500
 30
0.0000
  0
SEQEND
  8
0
  0
POLYLINE
  8
1
 66
1
 10
0.0000
 20
0.0000
 30
0.0000
 40
0.7500
 41
0.7500
 70
0
  0
VERTEX
  8
1
 10
52.6250
 20
55.2500
 30
0.0000
 42
1.0000
  0
VERTEX
  8
1
 10
53.3750
 20
55.2500
 30
0.0000
  0
SEQEND
  8
0
  0
POLYLINE
  8
1
 66
1
 10
0.0000
 20
0.0000
 30
0.0000
 40
0.7500
 41
0.7500
 70
0
  0
VERTEX
  8
1
 10
53.3750
 20
58.2500
 30
0.0000
 42
1.0000
  0
VERTEX
  8
1
 10
52.6250
 20
58.2500
 30
0.0000
  0
SEQEND
  8
0
  0
POLYLINE
  8
1
 66
1
 10
0.0000
 20
0.0000
 30
0.0000
 40
1.5000
 41
1.5000
 70
0
  0
VERTEX
  8
1
 10
43.1867
 20
49.4367
 30
0.0000
  0
VERTEX
  8
1
 10
37.9265
 20
49.4367
 30
0.0000
  0
SEQEND
  8
0
  0
POLYLINE
  8
1
 66
1
 10
0.0000
 20
0.0000
 30
0.0000
 40
0.7500
 41
0.7500
 70
0
  0
VERTEX
  8
1
 10
37.9265
 20
49.8117
 30
0.0000
 42
1.0000
  0
VERTEX
  8
1
 10
37.9265
 20
49.0617
 30
0.0000
  0
SEQEND
  8
0
  0
POLYLINE
  8
1
 66
1
 10
0.0000
 20
0.0000
 30
0.0000
 40
0.7500
 41
0.7500
 70
0
  0
VERTEX
  8
1
 10
43.1867
 20
49.0617
 30
0.0000
 42
1.0000
  0
VERTEX
  8
1
 10
43.1867
 20
49.8117
 30
0.0000
  0
SEQEND
  8
0
  0
POLYLINE
  8
1
 66
1
 10
0.0000
 20
0.0000
 30
0.0000
 40
1.5000
 41
1.5000
 70
0
  0
VERTEX
  8
1
 10
53.0000
 20
55.2500
 30
0.0000
  0
VERTEX
  8
1
 10
51.5000
 20
53.7500
 30
0.0000
  0
SEQEND
  8
0
  0
POLYLINE
  8
1
 66
1
 10
0.0000
 20
0.0000
 30
0.0000
 40
0.7500
 41
0.7500
 70
0
  0
VERTEX
  8
1
 10
51.2348
 20
54.0152
 30
0.0000
 42
1.0000
  0
VERTEX
  8
1
 10
51.7652
 20
53.4848
 30
0.0000
  0
SEQEND
  8
0
  0
POLYLINE
  8
1
 66
1
 10
0.0000
 20
0.0000
 30
0.0000
 40
0.7500
 41
0.7500
 70
0
  0
VERTEX
  8
1
 10
53.2652
 20
54.9848
 30
0.0000
 42
1.0000
  0
VERTEX
  8
1
 10
52.7348
 20
55.5152
 30
0.0000
  0
SEQEND
  8
0
  0
POLYLINE
  8
1
 66
1
 10
0.0000
 20
0.0000
 30
0.0000
 40
1.5000
 41
1.5000
 70
0
  0
VERTEX
  8
1
 10
51.5000
 20
53.7500
 30
0.0000
  0
VERTEX
  8
1
 10
47.5000
 20
53.7500
 30
0.0000
  0
SEQEND
  8
0
  0
POLYLINE
  8
1
 66
1
 10
0.0000
 20
0.0000
 30
0.0000
 40
0.7500
 41
0.7500
 70
0
  0
VERTEX
  8
1
 10
47.5000
 20
54.1250
 30
0.0000
 42
1.0000
  0
VERTEX
  8
1
 10
47.5000
 20
53.3750
 30
0.0000
  0
SEQEND
  8
0
  0
POLYLINE
  8
1
 66
1
 10
0.0000
 20
0.0000
 30
0.0000
 40
0.7500
 41
0.7500
 70
0
  0
VERTEX
  8
1
 10
51.5000
 20
53.3750
 30
0.0000
 42
1.0000
  0
VERTEX
  8
1
 10
51.5000
 20
54.1250
 30
0.0000
  0
SEQEND
  8
0
  0
POLYLINE
  8
1
 66
1
 10
0.0000
 20
0.0000
 30
0.0000
 40
1.5000
 41
1.5000
 70
0
  0
VERTEX
  8
1
 10
47.5000
 20
53.7500
 30
0.0000
  0
VERTEX
  8
1
 10
43.1867
 20
49.4367
 30
0.0000
  0
SEQEND
  8
0
  0
POLYLINE
  8
1
 66
1
 10
0.0000
 20
0.0000
 30
0.0000
 40
0.7500
 41
0.7500
 70
0
  0
VERTEX
  8
1
 10
42.9215
 20
49.7019
 30
0.0000
 42
1.0000
  0
VERTEX
  8
1
 10
43.4519
 20
49.1715
 30
0.0000
  0
SEQEND
  8
0
  0
POLYLINE
  8
1
 66
1
 10
0.0000
 20
0.0000
 30
0.0000
 40
0.7500
 41
0.7500
 70
0
  0
VERTEX
  8
1
 10
47.7652
 20
53.4848
 30
0.0000
 42
1.0000
  0
VERTEX
  8
1
 10
47.2348
 20
54.0152
 30
0.0000
  0
SEQEND
  8
0
  0
POLYLINE
  8
1
 66
1
 10
0.0000
 20
0.0000
 30
0.0000
 40
1.5000
 41
1.5000
 70
0
  0
VERTEX
  8
1
 10
40.0000
 20
58.7300
 30
0.0000
  0
VERTEX
  8
1
 10
42.0200
 20
58.7300
 30
0.0000
  0
SEQEND
  8
0
  0
POLYLINE
  8
1
 66
1
 10
0.0000
 20
0.0000
 30
0.0000
 40
0.7500
 41
0.7500
 70
0
  0
VERTEX
  8
1
 10
42.0200
 20
58.3550
 30
0.0000
 42
1.0000
  0
VERTEX
  8
1
 10
42.0200
 20
59.1050
 30
0.0000
  0
SEQEND
  8
0
  0
POLYLINE
  8
1
 66
1
 10
0.0000
 20
0.0000
 30
0.0000
 40
0.7500
 41
0.7500
 70
0
  0
VERTEX
  8
1
 10
40.0000
 20
59.1050
 30
0.0000
 42
1.0000
  0
VERTEX
  8
1
 10
40.0000
 20
58.3550
 30
0.0000
  0
SEQEND
  8
0
  0
POLYLINE
  8
1
 66
1
 10
0.0000
 20
0.0000
 30
0.0000
 40
1.5000
 41
1.5000
 70
0
  0
VERTEX
  8
1
 10
42.0200
 20
58.7300
 30
0.0000
  0
VERTEX
  8
1
 10
42.7500
 20
58.0000
 30
0.0000
  0
SEQEND
  8
0
  0
POLYLINE
  8
1
 66
1
 10
0.0000
 20
0.0000
 30
0.0000
 40
0.7500
 41
0.7500
 70
0
  0
VERTEX
  8
1
 10
42.4848
 20
57.7348
 30
0.0000
 42
1.0000
  0
VERTEX
  8
1
 10
43.0152
 20
58.2652
 30
0.0000
  0
SEQEND
  8
0
  0
POLYLINE
  8
1
 66
1
 10
0.0000
 20
0.0000
 30
0.0000
 40
0.7500
 41
0.7500
 70
0
  0
VERTEX
  8
1
 10
42.2852
 20
58.9952
 30
0.0000
 42
1.0000
  0
VERTEX
  8
1
 10
41.7548
 20
58.4648
 30
0.0000
  0
SEQEND
  8
0
  0
POLYLINE
  8
1
 66
1
 10
0.0000
 20
0.0000
 30
0.0000
 40
1.5000
 41
1.5000
 70
0
  0
VERTEX
  8
1
 10
42.7500
 20
58.0000
 30
0.0000
  0
VERTEX
  8
1
 10
42.7500
 20
55.5000
 30
0.0000
  0
SEQEND
  8
0
  0
POLYLINE
  8
1
 66
1
 10
0.0000
 20
0.0000
 30
0.0000
 40
0.7500
 41
0.7500
 70
0
  0
VERTEX
  8
1
 10
42.3750
 20
55.5000
 30
0.0000
 42
1.0000
  0
VERTEX
  8
1
 10
43.1250
 20
55.5000
 30
0.0000
  0
SEQEND
  8
0
  0
POLYLINE
  8
1
 66
1
 10
0.0000
 20
0.0000
 30
0.0000
 40
0.7500
 41
0.7500
 70
0
  0
VERTEX
  8
1
 10
43.1250
 20
58.0000
 30
0.0000
 42
1.0000
  0
VERTEX
  8
1
 10
42.3750
 20
58.0000
 30
0.0000
  0
SEQEND
  8
0
  0
POLYLINE
  8
1
 66
1
 10
0.0000
 20
0.0000
 30
0.0000
 40
1.5000
 41
1.5000
 70
0
  0
VERTEX
  8
1
 10
42.7500
 20
55.5000
 30
0.0000
  0
VERTEX
  8
1
 10
40.7500
 20
53.5000
 30
0.0000
  0
SEQEND
  8
0
  0
POLYLINE
  8
1
 66
1
 10
0.0000
 20
0.0000
 30
0.0000
 40
0.7500
 41
0.7500
 70
0
  0
VERTEX
  8
1
 10
40.4848
 20
53.7652
 30
0.0000
 42
1.0000
  0
VERTEX
  8
1
 10
41.0152
 20
53.2348
 30
0.0000
  0
SEQEND
  8
0
  0
POLYLINE
  8
1
 66
1
 10
0.0000
 20
0.0000
 30
0.0000
 40
0.7500
 41
0.7500
 70
0
  0
VERTEX
  8
1
 10
43.0152
 20
55.2348
 30
0.0000
 42
1.0000
  0
VERTEX
  8
1
 10
42.4848
 20
55.7652
 30
0.0000
  0
SEQEND
  8
0
  0
POLYLINE
  8
1
 66
1
 10
0.0000
 20
0.0000
 30
0.0000
 40
1.5000
 41
1.5000
 70
0
  0
VERTEX
  8
1
 10
40.7500
 20
53.5000
 30
0.0000
  0
VERTEX
  8
1
 10
36.5000
 20
53.5000
 30
0.0000
  0
SEQEND
  8
0
  0
POLYLINE
  8
1
 66
1
 10
0.0000
 20
0.0000
 30
0.0000
 40
0.7500
 41
0.7500
 70
0
  0
VERTEX
  8
1
 10
36.5000
 20
53.8750
 30
0.0000
 42
1.0000
  0
VERTEX
  8
1
 10
36.5000
 20
53.1250
 30
0.0000
  0
SEQEND
  8
0
  0
POLYLINE
  8
1
 66
1
 10
0.0000
 20
0.0000
 30
0.0000
 40
0.7500
 41
0.7500
 70
0
  0
VERTEX
  8
1
 10
40.7500
 20
53.1250
 30
0.0000
 42
1.0000
  0
VERTEX
  8
1
 10
40.7500
 20
53.8750
 30
0.0000
  0
SEQEND
  8
0
  0
POLYLINE
  8
1
 66
1
 10
0.0000
 20
0.0000
 30
0.0000
 40
1.5000
 41
1.5000
 70
0
  0
VERTEX
  8
1
 10
36.5000
 20
53.5000
 30
0.0000
  0
VERTEX
  8
1
 10
32.8465
 20
49.8465
 30
0.0000
  0
SEQEND
  8
0
  0
POLYLINE
  8
1
 66
1
 10
0.0000
 20
0.0000
 30
0.0000
 40
0.7500
 41
0.7500
 70
0
  0
VERTEX
  8
1
 10
32.5813
 20
50.1117
 30
0.0000
 42
1.0000
  0
VERTEX
  8
1
 10
33.1117
 20
49.5813
 30
0.0000
  0
SEQEND
  8
0
  0
POLYLINE
  8
1
 66
1
 10
0.0000
 20
0.0000
 30
0.0000
 40
0.7500
 41
0.7500
 70
0
  0
VERTEX
  8
1
 10
36.7652
 20
53.2348
 30
0.0000
 42
1.0000
  0
VERTEX
  8
1
 10
36.2348
 20
53.7652
 30
0.0000
  0
SEQEND
  8
0
  0
POLYLINE
  8
1
 66
1
 10
0.0000
 20
0.0000
 30
0.0000
 40
1.5000
 41
1.5000
 70
0
  0
VERTEX
  8
1
 10
32.8465
 20
49.8465
 30
0.0000
  0
VERTEX
  8
1
 10
32.8465
 20
49.4367
 30
0.0000
  0
SEQEND
  8
0
  0
POLYLINE
  8
1
 66
1
 10
0.0000
 20
0.0000
 30
0.0000
 40
0.7500
 41
0.7500
 70
0
  0
VERTEX
  8
1
 10
32.4715
 20
49.4367
 30
0.0000
 42
1.0000
  0
VERTEX
  8
1
 10
33.2215
 20
49.4367
 30
0.0000
  0
SEQEND
  8
0
  0
POLYLINE
  8
1
 66
1
 10
0.0000
 20
0.0000
 30
0.0000
 40
0.7500
 41
0.7500
 70
0
  0
VERTEX
  8
1
 10
33.2215
 20
49.8465
 30
0.0000
 42
1.0000
  0
VERTEX
  8
1
 10
32.4715
 20
49.8465
 30
0.0000
  0
SEQEND
  8
0
  0
POLYLINE
  8
1
 66
1
 10
0.0000
 20
0.0000
 30
0.0000
 40
1.5000
 41
1.5000
 70
0
  0
VERTEX
  8
1
 10
30.0000
 20
58.7300
 30
0.0000
  0
VERTEX
  8
1
 10
31.7700
 20
58.7300
 30
0.0000
  0
SEQEND
  8
0
  0
POLYLINE
  8
1
 66
1
 10
0.0000
 20
0.0000
 30
0.0000
 40
0.7500
 41
0.7500
 70
0
  0
VERTEX
  8
1
 10
31.7700
 20
58.3550
 30
0.0000
 42
1.0000
  0
VERTEX
  8
1
 10
31.7700
 20
59.1050
 30
0.0000
  0
SEQEND
  8
0
  0
POLYLINE
  8
1
 66
1
 10
0.0000
 20
0.0000
 30
0.0000
 40
0.7500
 41
0.7500
 70
0
  0
VERTEX
  8
1
 10
30.0000
 20
59.1050
 30
0.0000
 42
1.0000
  0
VERTEX
  8
1
 10
30.0000
 20
58.3550
 30
0.0000
  0
SEQEND
  8
0
  0
POLYLINE
  8
1
 66
1
 10
0.0000
 20
0.0000
 30
0.0000
 40
1.5000
 41
1.5000
 70
0
  0
VERTEX
  8
1
 10
31.7700
 20
58.7300
 30
0.0000
  0
VERTEX
  8
1
 10
32.8750
 20
58.1040
 30
0.0000
  0
SEQEND
  8
0
  0
POLYLINE
  8
1
 66
1
 10
0.0000
 20
0.0000
 30
0.0000
 40
0.7500
 41
0.7500
 70
0
  0
VERTEX
  8
1
 10
32.6902
 20
57.7778
 30
0.0000
 42
1.0000
  0
VERTEX
  8
1
 10
33.0598
 20
58.4303
 30
0.0000
  0
SEQEND
  8
0
  0
POLYLINE
  8
1
 66
1
 10
0.0000
 20
0.0000
 30
0.0000
 40
0.7500
 41
0.7500
 70
0
  0
VERTEX
  8
1
 10
31.9548
 20
59.0563
 30
0.0000
 42
1.0000
  0
VERTEX
  8
1
 10
31.5852
 20
58.4037
 30
0.0000
  0
SEQEND
  8
0
  0
POLYLINE
  8
1
 66
1
 10
0.0000
 20
0.0000
 30
0.0000
 40
1.5000
 41
1.5000
 70
0
  0
VERTEX
  8
1
 10
32.8750
 20
58.1040
 30
0.0000
  0
VERTEX
  8
1
 10
32.8750
 20
55.7888
 30
0.0000
  0
SEQEND
  8
0
  0
POLYLINE
  8
1
 66
1
 10
0.0000
 20
0.0000
 30
0.0000
 40
0.7500
 41
0.7500
 70
0
  0
VERTEX
  8
1
 10
32.5000
 20
55.7888
 30
0.0000
 42
1.0000
  0
VERTEX
  8
1
 10
33.2500
 20
55.7888
 30
0.0000
  0
SEQEND
  8
0
  0
POLYLINE
  8
1
 66
1
 10
0.0000
 20
0.0000
 30
0.0000
 40
0.7500
 41
0.7500
 70
0
  0
VERTEX
  8
1
 10
33.2500
 20
58.1040
 30
0.0000
 42
1.0000
  0
VERTEX
  8
1
 10
32.5000
 20
58.1040
 30
0.0000
  0
SEQEND
  8
0
  0
POLYLINE
  8
1
 66
1
 10
0.0000
 20
0.0000
 30
0.0000
 40
1.5000
 41
1.5000
 70
0
  0
VERTEX
  8
1
 10
32.8750
 20
55.7888
 30
0.0000
  0
VERTEX
  8
1
 10
27.7665
 20
50.6803
 30
0.0000
  0
SEQEND
  8
0
  0
POLYLINE
  8
1
 66
1
 10
0.0000
 20
0.0000
 30
0.0000
 40
0.7500
 41
0.7500
 70
0
  0
VERTEX
  8
1
 10
27.5013
 20
50.9455
 30
0.0000
 42
1.0000
  0
VERTEX
  8
1
 10
28.0317
 20
50.4151
 30
0.0000
  0
SEQEND
  8
0
  0
POLYLINE
  8
1
 66
1
 10
0.0000
 20
0.0000
 30
0.0000
 40
0.7500
 41
0.7500
 70
0
  0
VERTEX
  8
1
 10
33.1402
 20
55.5236
 30
0.0000
 42
1.0000
  0
VERTEX
  8
1
 10
32.6098
 20
56.0540
 30
0.0000
  0
SEQEND
  8
0
  0
POLYLINE
  8
1
 66
1
 10
0.0000
 20
0.0000
 30
0.0000
 40
1.5000
 41
1.5000
 70
0
  0
VERTEX
  8
1
 10
27.7665
 20
50.6803
 30
0.0000
  0
VERTEX
  8
1
 10
27.7665
 20
49.4367
 30
0.0000
  0
SEQEND
  8
0
  0
POLYLINE
  8
1
 66
1
 10
0.0000
 20
0.0000
 30
0.0000
 40
0.7500
 41
0.7500
 70
0
  0
VERTEX
  8
1
 10
27.3915
 20
49.4367
 30
0.0000
 42
1.0000
  0
VERTEX
  8
1
 10
28.1415
 20
49.4367
 30
0.0000
  0
SEQEND
  8
0
  0
POLYLINE
  8
1
 66
1
 10
0.0000
 20
0.0000
 30
0.0000
 40
0.7500
 41
0.7500
 70
0
  0
VERTEX
  8
1
 10
28.1415
 20
50.6803
 30
0.0000
 42
1.0000
  0
VERTEX
  8
1
 10
27.3915
 20
50.6803
 30
0.0000
  0
SEQEND
  8
0
  0
POLYLINE
  8
1
 66
1
 10
0.0000
 20
0.0000
 30
0.0000
 40
1.5000
 41
1.5000
 70
0
  0
VERTEX
  8
1
 10
20.0000
 20
58.7300
 30
0.0000
  0
VERTEX
  8
1
 10
21.7700
 20
58.7300
 30
0.0000
  0
SEQEND
  8
0
  0
POLYLINE
  8
1
 66
1
 10
0.0000
 20
0.0000
 30
0.0000
 40
0.7500
 41
0.7500
 70
0
  0
VERTEX
  8
1
 10
21.7700
 20
58.3550
 30
0.0000
 42
1.0000
  0
VERTEX
  8
1
 10
21.7700
 20
59.1050
 30
0.0000
  0
SEQEND
  8
0
  0
POLYLINE
  8
1
 66
1
 10
0.0000
 20
0.0000
 30
0.0000
 40
0.7500
 41
0.7500
 70
0
  0
VERTEX
  8
1
 10
20.0000
 20
59.1050
 30
0.0000
 42
1.0000
  0
VERTEX
  8
1
 10
20.0000
 20
58.3550
 30
0.0000
  0
SEQEND
  8
0
  0
POLYLINE
  8
1
 66
1
 10
0.0000
 20
0.0000
 30
0.0000
 40
1.5000
 41
1.5000
 70
0
  0
VERTEX
  8
1
 10
21.7700
 20
58.7300
 30
0.0000
  0
VERTEX
  8
1
 10
22.7500
 20
57.7500
 30
0.0000
  0
SEQEND
  8
0
  0
POLYLINE
  8
1
 66
1
 10
0.0000
 20
0.0000
 30
0.0000
 40
0.7500
 41
0.7500
 70
0
  0
VERTEX
  8
1
 10
22.4848
 20
57.4848
 30
0.0000
 42
1.0000
  0
VERTEX
  8
1
 10
23.0152
 20
58.0152
 30
0.0000
  0
SEQEND
  8
0
  0
POLYLINE
  8
1
 66
1
 10
0.0000
 20
0.0000
 30
0.0000
 40
0.7500
 41
0.7500
 70
0
  0
VERTEX
  8
1
 10
22.0352
 20
58.9952
 30
0.0000
 42
1.0000
  0
VERTEX
  8
1
 10
21.5048
 20
58.4648
 30
0.0000
  0
SEQEND
  8
0
  0
POLYLINE
  8
1
 66
1
 10
0.0000
 20
0.0000
 30
0.0000
 40
1.5000
 41
1.5000
 70
0
  0
VERTEX
  8
1
 10
22.7500
 20
57.7500
 30
0.0000
  0
VERTEX
  8
1
 10
22.7500
 20
49.5002
 30
0.0000
  0
SEQEND
  8
0
  0
POLYLINE
  8
1
 66
1
 10
0.0000
 20
0.0000
 30
0.0000
 40
0.7500
 41
0.7500
 70
0
  0
VERTEX
  8
1
 10
22.3750
 20
49.5002
 30
0.0000
 42
1.0000
  0
VERTEX
  8
1
 10
23.1250
 20
49.5002
 30
0.0000
  0
SEQEND
  8
0
  0
POLYLINE
  8
1
 66
1
 10
0.0000
 20
0.0000
 30
0.0000
 40
0.7500
 41
0.7500
 70
0
  0
VERTEX
  8
1
 10
23.1250
 20
57.7500
 30
0.0000
 42
1.0000
  0
VERTEX
  8
1
 10
22.3750
 20
57.7500
 30
0.0000
  0
SEQEND
  8
0
  0
POLYLINE
  8
1
 66
1
 10
0.0000
 20
0.0000
 30
0.0000
 40
1.5000
 41
1.5000
 70
0
  0
VERTEX
  8
1
 10
22.7500
 20
49.5002
 30
0.0000
  0
VERTEX
  8
1
 10
22.6865
 20
49.4367
 30
0.0000
  0
SEQEND
  8
0
  0
POLYLINE
  8
1
 66
1
 10
0.0000
 20
0.0000
 30
0.0000
 40
0.7500
 41
0.7500
 70
0
  0
VERTEX
  8
1
 10
22.4213
 20
49.7019
 30
0.0000
 42
1.0000
  0
VERTEX
  8
1
 10
22.9517
 20
49.1715
 30
0.0000
  0
SEQEND
  8
0
  0
POLYLINE
  8
1
 66
1
 10
0.0000
 20
0.0000
 30
0.0000
 40
0.7500
 41
0.7500
 70
0
  0
VERTEX
  8
1
 10
23.0152
 20
49.2350
 30
0.0000
 42
1.0000
  0
VERTEX
  8
1
 10
22.4848
 20
49.7654
 30
0.0000
  0
SEQEND
  8
0
  0
POLYLINE
  8
1
 66
1
 10
0.0000
 20
0.0000
 30
0.0000
 40
1.5000
 41
1.5000
 70
0
  0
VERTEX
  8
1
 10
10.0000
 20
58.7300
 30
0.0000
  0
VERTEX
  8
1
 10
12.5200
 20
58.7300
 30
0.0000
  0
SEQEND
  8
0
  0
POLYLINE
  8
1
 66
1
 10
0.0000
 20
0.0000
 30
0.0000
 40
0.7500
 41
0.7500
 70
0
  0
VERTEX
  8
1
 10
12.5200
 20
58.3550
 30
0.0000
 42
1.0000
  0
VERTEX
  8
1
 10
12.5200
 20
59.1050
 30
0.0000
  0
SEQEND
  8
0
  0
POLYLINE
  8
1
 66
1
 10
0.0000
 20
0.0000
 30
0.0000
 40
0.7500
 41
0.7500
 70
0
  0
VERTEX
  8
1
 10
10.0000
 20
59.1050
 30
0.0000
 42
1.0000
  0
VERTEX
  8
1
 10
10.0000
 20
58.3550
 30
0.0000
  0
SEQEND
  8
0
  0
POLYLINE
  8
1
 66
1
 10
0.0000
 20
0.0000
 30
0.0000
 40
1.5000
 41
1.5000
 70
0
  0
VERTEX
  8
1
 10
17.6065
 20
53.6435
 30
0.0000
  0
VERTEX
  8
1
 10
17.6065
 20
49.4367
 30
0.0000
  0
SEQEND
  8
0
  0
POLYLINE
  8
1
 66
1
 10
0.0000
 20
0.0000
 30
0.0000
 40
0.7500
 41
0.7500
 70
0
  0
VERTEX
  8
1
 10
17.2315
 20
49.4367
 30
0.0000
 42
1.0000
  0
VERTEX
  8
1
 10
17.9815
 20
49.4367
 30
0.0000
  0
SEQEND
  8
0
  0
POLYLINE
  8
1
 66
1
 10
0.0000
 20
0.0000
 30
0.0000
 40
0.7500
 41
0.7500
 70
0
  0
VERTEX
  8
1
 10
17.9815
 20
53.6435
 30
0.0000
 42
1.0000
  0
VERTEX
  8
1
 10
17.2315
 20
53.6435
 30
0.0000
  0
SEQEND
  8
0
  0
POLYLINE
  8
1
 66
1
 10
0.0000
 20
0.0000
 30
0.0000
 40
1.5000
 41
1.5000
 70
0
  0
VERTEX
  8
1
 10
12.5200
 20
58.7300
 30
0.0000
  0
VERTEX
  8
1
 10
17.6065
 20
53.6435
 30
0.0000
  0
SEQEND
  8
0
  0
POLYLINE
  8
1
 66
1
 10
0.0000
 20
0.0000
 30
0.0000
 40
0.7500
 41
0.7500
 70
0
  0
VERTEX
  8
1
 10
17.3413
 20
53.3783
 30
0.0000
 42
1.0000
  0
VERTEX
  8
1
 10
17.8717
 20
53.9087
 30
0.0000
  0
SEQEND
  8
0
  0
POLYLINE
  8
1
 66
1
 10
0.0000
 20
0.0000
 30
0.0000
 40
0.7500
 41
0.7500
 70
0
  0
VERTEX
  8
1
 10
12.7852
 20
58.9952
 30
0.0000
 42
1.0000
  0
VERTEX
  8
1
 10
12.2548
 20
58.4648
 30
0.0000
  0
SEQEND
  8
0
  0
POLYLINE
  8
1
 66
1
 10
0.0000
 20
0.0000
 30
0.0000
 40
1.5000
 41
1.5000
 70
0
  0
VERTEX
  8
1
 10
16.5793
 20
20.6076
 30
0.0000
  0
VERTEX
  8
1
 10
16.5793
 20
17.8293
 30
0.0000
  0
SEQEND
  8
0
  0
POLYLINE
  8
1
 66
1
 10
0.0000
 20
0.0000
 30
0.0000
 40
0.7500
 41
0.7500
 70
0
  0
VERTEX
  8
1
 10
16.2043
 20
17.8293
 30
0.0000
 42
1.0000
  0
VERTEX
  8
1
 10
16.9543
 20
17.8293
 30
0.0000
  0
SEQEND
  8
0
  0
POLYLINE
  8
1
 66
1
 10
0.0000
 20
0.0000
 30
0.0000
 40
0.7500
 41
0.7500
 70
0
  0
VERTEX
  8
1
 10
16.9543
 20
20.6076
 30
0.0000
 42
1.0000
  0
VERTEX
  8
1
 10
16.2043
 20
20.6076
 30
0.0000
  0
SEQEND
  8
0
  0
POLYLINE
  8
1
 66
1
 10
0.0000
 20
0.0000
 30
0.0000
 40
1.5000
 41
1.5000
 70
0
  0
VERTEX
  8
1
 10
16.5793
 20
17.8293
 30
0.0000
  0
VERTEX
  8
1
 10
15.5000
 20
16.7500
 30
0.0000
  0
SEQEND
  8
0
  0
POLYLINE
  8
1
 66
1
 10
0.0000
 20
0.0000
 30
0.0000
 40
0.7500
 41
0.7500
 70
0
  0
VERTEX
  8
1
 10
15.2348
 20
17.0152
 30
0.0000
 42
1.0000
  0
VERTEX
  8
1
 10
15.7652
 20
16.4848
 30
0.0000
  0
SEQEND
  8
0
  0
POLYLINE
  8
1
 66
1
 10
0.0000
 20
0.0000
 30
0.0000
 40
0.7500
 41
0.7500
 70
0
  0
VERTEX
  8
1
 10
16.8445
 20
17.5641
 30
0.0000
 42
1.0000
  0
VERTEX
  8
1
 10
16.3141
 20
18.0945
 30
0.0000
  0
SEQEND
  8
0
  0
POLYLINE
  8
1
 66
1
 10
0.0000
 20
0.0000
 30
0.0000
 40
1.5000
 41
1.5000
 70
0
  0
VERTEX
  8
1
 10
15.5000
 20
16.7500
 30
0.0000
  0
VERTEX
  8
1
 10
9.5000
 20
16.7500
 30
0.0000
  0
SEQEND
  8
0
  0
POLYLINE
  8
1
 66
1
 10
0.0000
 20
0.0000
 30
0.0000
 40
0.7500
 41
0.7500
 70
0
  0
VERTEX
  8
1
 10
9.5000
 20
17.1250
 30
0.0000
 42
1.0000
  0
VERTEX
  8
1
 10
9.5000
 20
16.3750
 30
0.0000
  0
SEQEND
  8
0
  0
POLYLINE
  8
1
 66
1
 10
0.0000
 20
0.0000
 30
0.0000
 40
0.7500
 41
0.7500
 70
0
  0
VERTEX
  8
1
 10
15.5000
 20
16.3750
 30
0.0000
 42
1.0000
  0
VERTEX
  8
1
 10
15.5000
 20
17.1250
 30
0.0000
  0
SEQEND
  8
0
  0
POLYLINE
  8
1
 66
1
 10
0.0000
 20
0.0000
 30
0.0000
 40
1.5000
 41
1.5000
 70
0
  0
VERTEX
  8
1
 10
9.5000
 20
16.7500
 30
0.0000
  0
VERTEX
  8
1
 10
7.5000
 20
18.7500
 30
0.0000
  0
SEQEND
  8
0
  0
POLYLINE
  8
1
 66
1
 10
0.0000
 20
0.0000
 30
0.0000
 40
0.7500
 41
0.7500
 70
0
  0
VERTEX
  8
1
 10
7.7652
 20
19.0152
 30
0.0000
 42
1.0000
  0
VERTEX
  8
1
 10
7.2348
 20
18.4848
 30
0.0000
  0
SEQEND
  8
0
  0
POLYLINE
  8
1
 66
1
 10
0.0000
 20
0.0000
 30
0.0000
 40
0.7500
 41
0.7500
 70
0
  0
VERTEX
  8
1
 10
9.2348
 20
16.4848
 30
0.0000
 42
1.0000
  0
VERTEX
  8
1
 10
9.7652
 20
17.0152
 30
0.0000
  0
SEQEND
  8
0
  0
POLYLINE
  8
1
 66
1
 10
0.0000
 20
0.0000
 30
0.0000
 40
1.5000
 41
1.5000
 70
0
  0
VERTEX
  8
1
 10
7.5000
 20
36.7500
 30
0.0000
  0
VERTEX
  8
1
 10
9.5000
 20
38.7500
 30
0.0000
  0
SEQEND
  8
0
  0
POLYLINE
  8
1
 66
1
 10
0.0000
 20
0.0000
 30
0.0000
 40
0.7500
 41
0.7500
 70
0
  0
VERTEX
  8
1
 10
9.7652
 20
38.4848
 30
0.0000
 42
1.0000
  0
VERTEX
  8
1
 10
9.2348
 20
39.0152
 30
0.0000
  0
SEQEND
  8
0
  0
POLYLINE
  8
1
 66
1
 10
0.0000
 20
0.0000
 30
0.0000
 40
0.7500
 41
0.7500
 70
0
  0
VERTEX
  8
1
 10
7.2348
 20
37.0152
 30
0.0000
 42
1.0000
  0
VERTEX
  8
1
 10
7.7652
 20
36.4848
 30
0.0000
  0
SEQEND
  8
0
  0
POLYLINE
  8
1
 66
1
 10
0.0000
 20
0.0000
 30
0.0000
 40
1.5000
 41
1.5000
 70
0
  0
VERTEX
  8
1
 10
9.5000
 20
38.7500
 30
0.0000
  0
VERTEX
  8
1
 10
13.5000
 20
38.7500
 30
0.0000
  0
SEQEND
  8
0
  0
POLYLINE
  8
1
 66
1
 10
0.0000
 20
0.0000
 30
0.0000
 40
0.7500
 41
0.7500
 70
0
  0
VERTEX
  8
1
 10
13.5000
 20
38.3750
 30
0.0000
 42
1.0000
  0
VERTEX
  8
1
 10
13.5000
 20
39.1250
 30
0.0000
  0
SEQEND
  8
0
  0
POLYLINE
  8
1
 66
1
 10
0.0000
 20
0.0000
 30
0.0000
 40
0.7500
 41
0.7500
 70
0
  0
VERTEX
  8
1
 10
9.5000
 20
39.1250
 30
0.0000
 42
1.0000
  0
VERTEX
  8
1
 10
9.5000
 20
38.3750
 30
0.0000
  0
SEQEND
  8
0
  0
POLYLINE
  8
1
 66
1
 10
0.0000
 20
0.0000
 30
0.0000
 40
1.5000
 41
1.5000
 70
0
  0
VERTEX
  8
1
 10
15.0665
 20
37.1835
 30
0.0000
  0
VERTEX
  8
1
 10
15.0665
 20
34.1967
 30
0.0000
  0
SEQEND
  8
0
  0
POLYLINE
  8
1
 66
1
 10
0.0000
 20
0.0000
 30
0.0000
 40
0.7500
 41
0.7500
 70
0
  0
VERTEX
  8
1
 10
14.6915
 20
34.1967
 30
0.0000
 42
1.0000
  0
VERTEX
  8
1
 10
15.4415
 20
34.1967
 30
0.0000
  0
SEQEND
  8
0
  0
POLYLINE
  8
1
 66
1
 10
0.0000
 20
0.0000
 30
0.0000
 40
0.7500
 41
0.7500
 70
0
  0
VERTEX
  8
1
 10
15.4415
 20
37.1835
 30
0.0000
 42
1.0000
  0
VERTEX
  8
1
 10
14.6915
 20
37.1835
 30
0.0000
  0
SEQEND
  8
0
  0
POLYLINE
  8
1
 66
1
 10
0.0000
 20
0.0000
 30
0.0000
 40
1.5000
 41
1.5000
 70
0
  0
VERTEX
  8
1
 10
7.5000
 20
18.7500
 30
0.0000
  0
VERTEX
  8
1
 10
7.5000
 20
36.7500
 30
0.0000
  0
SEQEND
  8
0
  0
POLYLINE
  8
1
 66
1
 10
0.0000
 20
0.0000
 30
0.0000
 40
0.7500
 41
0.7500
 70
0
  0
VERTEX
  8
1
 10
7.8750
 20
36.7500
 30
0.0000
 42
1.0000
  0
VERTEX
  8
1
 10
7.1250
 20
36.7500
 30
0.0000
  0
SEQEND
  8
0
  0
POLYLINE
  8
1
 66
1
 10
0.0000
 20
0.0000
 30
0.0000
 40
0.7500
 41
0.7500
 70
0
  0
VERTEX
  8
1
 10
7.1250
 20
18.7500
 30
0.0000
 42
1.0000
  0
VERTEX
  8
1
 10
7.8750
 20
18.7500
 30
0.0000
  0
SEQEND
  8
0
  0
POLYLINE
  8
1
 66
1
 10
0.0000
 20
0.0000
 30
0.0000
 40
1.5000
 41
1.5000
 70
0
  0
VERTEX
  8
1
 10
13.5000
 20
38.7500
 30
0.0000
  0
VERTEX
  8
1
 10
15.0665
 20
37.1835
 30
0.0000
  0
SEQEND
  8
0
  0
POLYLINE
  8
1
 66
1
 10
0.0000
 20
0.0000
 30
0.0000
 40
0.7500
 41
0.7500
 70
0
  0
VERTEX
  8
1
 10
14.8013
 20
36.9183
 30
0.0000
 42
1.0000
  0
VERTEX
  8
1
 10
15.3317
 20
37.4487
 30
0.0000
  0
SEQEND
  8
0
  0
POLYLINE
  8
1
 66
1
 10
0.0000
 20
0.0000
 30
0.0000
 40
0.7500
 41
0.7500
 70
0
  0
VERTEX
  8
1
 10
13.7652
 20
39.0152
 30
0.0000
 42
1.0000
  0
VERTEX
  8
1
 10
13.2348
 20
38.4848
 30
0.0000
  0
SEQEND
  8
0
  0
POLYLINE
  8
1
 66
1
 10
0.0000
 20
0.0000
 30
0.0000
 40
1.5000
 41
1.5000
 70
0
  0
VERTEX
  8
1
 10
21.6593
 20
23.1476
 30
0.0000
  0
VERTEX
  8
1
 10
21.6593
 20
24.1476
 30
0.0000
  0
SEQEND
  8
0
  0
POLYLINE
  8
1
 66
1
 10
0.0000
 20
0.0000
 30
0.0000
 40
0.7500
 41
0.7500
 70
0
  0
VERTEX
  8
1
 10
22.0343
 20
24.1476
 30
0.0000
 42
1.0000
  0
VERTEX
  8
1
 10
21.2843
 20
24.1476
 30
0.0000
  0
SEQEND
  8
0
  0
POLYLINE
  8
1
 66
1
 10
0.0000
 20
0.0000
 30
0.0000
 40
0.7500
 41
0.7500
 70
0
  0
VERTEX
  8
1
 10
21.2843
 20
23.1476
 30
0.0000
 42
1.0000
  0
VERTEX
  8
1
 10
22.0343
 20
23.1476
 30
0.0000
  0
SEQEND
  8
0
  0
POLYLINE
  8
1
 66
1
 10
0.0000
 20
0.0000
 30
0.0000
 40
1.5000
 41
1.5000
 70
0
  0
VERTEX
  8
1
 10
27.5117
 20
30.0000
 30
0.0000
  0
VERTEX
  8
1
 10
21.6593
 20
24.1476
 30
0.0000
  0
SEQEND
  8
0
  0
POLYLINE
  8
1
 66
1
 10
0.0000
 20
0.0000
 30
0.0000
 40
0.7500
 41
0.7500
 70
0
  0
VERTEX
  8
1
 10
21.3941
 20
24.4128
 30
0.0000
 42
1.0000
  0
VERTEX
  8
1
 10
21.9245
 20
23.8824
 30
0.0000
  0
SEQEND
  8
0
  0
POLYLINE
  8
1
 66
1
 10
0.0000
 20
0.0000
 30
0.0000
 40
0.7500
 41
0.7500
 70
0
  0
VERTEX
  8
1
 10
27.7769
 20
29.7348
 30
0.0000
 42
1.0000
  0
VERTEX
  8
1
 10
27.2465
 20
30.2652
 30
0.0000
  0
SEQEND
  8
0
  0
POLYLINE
  8
1
 66
1
 10
0.0000
 20
0.0000
 30
0.0000
 40
1.5000
 41
1.5000
 70
0
  0
VERTEX
  8
1
 10
27.5117
 20
30.0000
 30
0.0000
  0
VERTEX
  8
1
 10
39.8056
 20
30.0000
 30
0.0000
  0
SEQEND
  8
0
  0
POLYLINE
  8
1
 66
1
 10
0.0000
 20
0.0000
 30
0.0000
 40
0.7500
 41
0.7500
 70
0
  0
VERTEX
  8
1
 10
39.8056
 20
29.6250
 30
0.0000
 42
1.0000
  0
VERTEX
  8
1
 10
39.8056
 20
30.3750
 30
0.0000
  0
SEQEND
  8
0
  0
POLYLINE
  8
1
 66
1
 10
0.0000
 20
0.0000
 30
0.0000
 40
0.7500
 41
0.7500
 70
0
  0
VERTEX
  8
1
 10
27.5117
 20
30.3750
 30
0.0000
 42
1.0000
  0
VERTEX
  8
1
 10
27.5117
 20
29.6250
 30
0.0000
  0
SEQEND
  8
0
  0
POLYLINE
  8
1
 66
1
 10
0.0000
 20
0.0000
 30
0.0000
 40
1.5000
 41
1.5000
 70
0
  0
VERTEX
  8
1
 10
44.6397
 20
39.7300
 30
0.0000
  0
VERTEX
  8
1
 10
42.1397
 20
37.2300
 30
0.0000
  0
SEQEND
  8
0
  0
POLYLINE
  8
1
 66
1
 10
0.0000
 20
0.0000
 30
0.0000
 40
0.7500
 41
0.7500
 70
0
  0
VERTEX
  8
1
 10
41.8745
 20
37.4952
 30
0.0000
 42
1.0000
  0
VERTEX
  8
1
 10
42.4049
 20
36.9648
 30
0.0000
  0
SEQEND
  8
0
  0
POLYLINE
  8
1
 66
1
 10
0.0000
 20
0.0000
 30
0.0000
 40
0.7500
 41
0.7500
 70
0
  0
VERTEX
  8
1
 10
44.9049
 20
39.4648
 30
0.0000
 42
1.0000
  0
VERTEX
  8
1
 10
44.3745
 20
39.9952
 30
0.0000
  0
SEQEND
  8
0
  0
POLYLINE
  8
1
 66
1
 10
0.0000
 20
0.0000
 30
0.0000
 40
1.5000
 41
1.5000
 70
0
  0
VERTEX
  8
1
 10
42.1397
 20
37.2300
 30
0.0000
  0
VERTEX
  8
1
 10
42.1397
 20
32.2113
 30
0.0000
  0
SEQEND
  8
0
  0
POLYLINE
  8
1
 66
1
 10
0.0000
 20
0.0000
 30
0.0000
 40
0.7500
 41
0.7500
 70
0
  0
VERTEX
  8
1
 10
41.7647
 20
32.2113
 30
0.0000
 42
1.0000
  0
VERTEX
  8
1
 10
42.5147
 20
32.2113
 30
0.0000
  0
SEQEND
  8
0
  0
POLYLINE
  8
1
 66
1
 10
0.0000
 20
0.0000
 30
0.0000
 40
0.7500
 41
0.7500
 70
0
  0
VERTEX
  8
1
 10
42.5147
 20
37.2300
 30
0.0000
 42
1.0000
  0
VERTEX
  8
1
 10
41.7647
 20
37.2300
 30
0.0000
  0
SEQEND
  8
0
  0
POLYLINE
  8
1
 66
1
 10
0.0000
 20
0.0000
 30
0.0000
 40
1.5000
 41
1.5000
 70
0
  0
VERTEX
  8
1
 10
42.1397
 20
32.2113
 30
0.0000
  0
VERTEX
  8
1
 10
39.8056
 20
30.0000
 30
0.0000
  0
SEQEND
  8
0
  0
POLYLINE
  8
1
 66
1
 10
0.0000
 20
0.0000
 30
0.0000
 40
0.7500
 41
0.7500
 70
0
  0
VERTEX
  8
1
 10
39.5477
 20
30.2722
 30
0.0000
 42
1.0000
  0
VERTEX
  8
1
 10
40.0635
 20
29.7278
 30
0.0000
  0
SEQEND
  8
0
  0
POLYLINE
  8
1
 66
1
 10
0.0000
 20
0.0000
 30
0.0000
 40
0.7500
 41
0.7500
 70
0
  0
VERTEX
  8
1
 10
42.3976
 20
31.9391
 30
0.0000
 42
1.0000
  0
VERTEX
  8
1
 10
41.8818
 20
32.4835
 30
0.0000
  0
SEQEND
  8
0
  0
POLYLINE
  8
1
 66
1
 10
0.0000
 20
0.0000
 30
0.0000
 40
1.5000
 41
1.5000
 70
0
  0
VERTEX
  8
1
 10
47.6397
 20
39.7300
 30
0.0000
  0
VERTEX
  8
1
 10
44.6397
 20
39.7300
 30
0.0000
  0
SEQEND
  8
0
  0
POLYLINE
  8
1
 66
1
 10
0.0000
 20
0.0000
 30
0.0000
 40
0.7500
 41
0.7500
 70
0
  0
VERTEX
  8
1
 10
44.6397
 20
40.1050
 30
0.0000
 42
1.0000
  0
VERTEX
  8
1
 10
44.6397
 20
39.3550
 30
0.0000
  0
SEQEND
  8
0
  0
POLYLINE
  8
1
 66
1
 10
0.0000
 20
0.0000
 30
0.0000
 40
0.7500
 41
0.7500
 70
0
  0
VERTEX
  8
1
 10
47.6397
 20
39.3550
 30
0.0000
 42
1.0000
  0
VERTEX
  8
1
 10
47.6397
 20
40.1050
 30
0.0000
  0
SEQEND
  8
0
  0
POLYLINE
  8
1
 66
1
 10
0.0000
 20
0.0000
 30
0.0000
 40
1.5000
 41
1.5000
 70
0
  0
VERTEX
  8
1
 10
14.0393
 20
23.1476
 30
0.0000
  0
VERTEX
  8
1
 10
14.0393
 20
26.7107
 30
0.0000
  0
SEQEND
  8
0
  0
POLYLINE
  8
1
 66
1
 10
0.0000
 20
0.0000
 30
0.0000
 40
0.7500
 41
0.7500
 70
0
  0
VERTEX
  8
1
 10
14.4143
 20
26.7107
 30
0.0000
 42
1.0000
  0
VERTEX
  8
1
 10
13.6643
 20
26.7107
 30
0.0000
  0
SEQEND
  8
0
  0
POLYLINE
  8
1
 66
1
 10
0.0000
 20
0.0000
 30
0.0000
 40
0.7500
 41
0.7500
 70
0
  0
VERTEX
  8
1
 10
13.6643
 20
23.1476
 30
0.0000
 42
1.0000
  0
VERTEX
  8
1
 10
14.4143
 20
23.1476
 30
0.0000
  0
SEQEND
  8
0
  0
POLYLINE
  8
1
 66
1
 10
0.0000
 20
0.0000
 30
0.0000
 40
1.5000
 41
1.5000
 70
0
  0
VERTEX
  8
1
 10
9.9865
 20
30.7635
 30
0.0000
  0
VERTEX
  8
1
 10
9.9865
 20
34.1967
 30
0.0000
  0
SEQEND
  8
0
  0
POLYLINE
  8
1
 66
1
 10
0.0000
 20
0.0000
 30
0.0000
 40
0.7500
 41
0.7500
 70
0
  0
VERTEX
  8
1
 10
10.3615
 20
34.1967
 30
0.0000
 42
1.0000
  0
VERTEX
  8
1
 10
9.6115
 20
34.1967
 30
0.0000
  0
SEQEND
  8
0
  0
POLYLINE
  8
1
 66
1
 10
0.0000
 20
0.0000
 30
0.0000
 40
0.7500
 41
0.7500
 70
0
  0
VERTEX
  8
1
 10
9.6115
 20
30.7635
 30
0.0000
 42
1.0000
  0
VERTEX
  8
1
 10
10.3615
 20
30.7635
 30
0.0000
  0
SEQEND
  8
0
  0
POLYLINE
  8
1
 66
1
 10
0.0000
 20
0.0000
 30
0.0000
 40
1.5000
 41
1.5000
 70
0
  0
VERTEX
  8
1
 10
14.0393
 20
26.7107
 30
0.0000
  0
VERTEX
  8
1
 10
9.9865
 20
30.7635
 30
0.0000
  0
SEQEND
  8
0
  0
POLYLINE
  8
1
 66
1
 10
0.0000
 20
0.0000
 30
0.0000
 40
0.7500
 41
0.7500
 70
0
  0
VERTEX
  8
1
 10
10.2517
 20
31.0287
 30
0.0000
 42
1.0000
  0
VERTEX
  8
1
 10
9.7213
 20
30.4983
 30
0.0000
  0
SEQEND
  8
0
  0
POLYLINE
  8
1
 66
1
 10
0.0000
 20
0.0000
 30
0.0000
 40
0.7500
 41
0.7500
 70
0
  0
VERTEX
  8
1
 10
13.7741
 20
26.4455
 30
0.0000
 42
1.0000
  0
VERTEX
  8
1
 10
14.3045
 20
26.9759
 30
0.0000
  0
SEQEND
  8
0
  0
POLYLINE
  8
1
 66
1
 10
0.0000
 20
0.0000
 30
0.0000
 40
1.5000
 41
1.5000
 70
0
  0
VERTEX
  8
1
 10
47.6397
 20
32.1100
 30
0.0000
  0
VERTEX
  8
1
 10
50.6100
 20
32.1100
 30
0.0000
  0
SEQEND
  8
0
  0
POLYLINE
  8
1
 66
1
 10
0.0000
 20
0.0000
 30
0.0000
 40
0.7500
 41
0.7500
 70
0
  0
VERTEX
  8
1
 10
50.6100
 20
31.7350
 30
0.0000
 42
1.0000
  0
VERTEX
  8
1
 10
50.6100
 20
32.4850
 30
0.0000
  0
SEQEND
  8
0
  0
POLYLINE
  8
1
 66
1
 10
0.0000
 20
0.0000
 30
0.0000
 40
0.7500
 41
0.7500
 70
0
  0
VERTEX
  8
1
 10
47.6397
 20
32.4850
 30
0.0000
 42
1.0000
  0
VERTEX
  8
1
 10
47.6397
 20
31.7350
 30
0.0000
  0
SEQEND
  8
0
  0
POLYLINE
  8
1
 66
1
 10
0.0000
 20
0.0000
 30
0.0000
 40
1.5000
 41
1.5000
 70
0
  0
VERTEX
  8
1
 10
50.6100
 20
32.1100
 30
0.0000
  0
VERTEX
  8
1
 10
52.7500
 20
34.2500
 30
0.0000
  0
SEQEND
  8
0
  0
POLYLINE
  8
1
 66
1
 10
0.0000
 20
0.0000
 30
0.0000
 40
0.7500
 41
0.7500
 70
0
  0
VERTEX
  8
1
 10
53.0152
 20
33.9848
 30
0.0000
 42
1.0000
  0
VERTEX
  8
1
 10
52.4848
 20
34.5152
 30
0.0000
  0
SEQEND
  8
0
  0
POLYLINE
  8
1
 66
1
 10
0.0000
 20
0.0000
 30
0.0000
 40
0.7500
 41
0.7500
 70
0
  0
VERTEX
  8
1
 10
50.3448
 20
32.3752
 30
0.0000
 42
1.0000
  0
VERTEX
  8
1
 10
50.8752
 20
31.8448
 30
0.0000
  0
SEQEND
  8
0
  0
POLYLINE
  8
1
 66
1
 10
0.0000
 20
0.0000
 30
0.0000
 40
1.5000
 41
1.5000
 70
0
  0
VERTEX
  8
1
 10
52.7500
 20
45.0000
 30
0.0000
  0
VERTEX
  8
1
 10
52.7500
 20
34.2500
 30
0.0000
  0
SEQEND
  8
0
  0
POLYLINE
  8
1
 66
1
 10
0.0000
 20
0.0000
 30
0.0000
 40
0.7500
 41
0.7500
 70
0
  0
VERTEX
  8
1
 10
52.3750
 20
34.2500
 30
0.0000
 42
1.0000
  0
VERTEX
  8
1
 10
53.1250
 20
34.2500
 30
0.0000
  0
SEQEND
  8
0
  0
POLYLINE
  8
1
 66
1
 10
0.0000
 20
0.0000
 30
0.0000
 40
0.7500
 41
0.7500
 70
0
  0
VERTEX
  8
1
 10
53.1250
 20
45.0000
 30
0.0000
 42
1.0000
  0
VERTEX
  8
1
 10
52.3750
 20
45.0000
 30
0.0000
  0
SEQEND
  8
0
  0
POLYLINE
  8
1
 66
1
 10
0.0000
 20
0.0000
 30
0.0000
 40
1.5000
 41
1.5000
 70
0
  0
VERTEX
  8
1
 10
57.6400
 20
49.8900
 30
0.0000
  0
VERTEX
  8
1
 10
62.2803
 20
49.8900
 30
0.0000
  0
SEQEND
  8
0
  0
POLYLINE
  8
1
 66
1
 10
0.0000
 20
0.0000
 30
0.0000
 40
0.7500
 41
0.7500
 70
0
  0
VERTEX
  8
1
 10
62.2803
 20
49.5150
 30
0.0000
 42
1.0000
  0
VERTEX
  8
1
 10
62.2803
 20
50.2650
 30
0.0000
  0
SEQEND
  8
0
  0
POLYLINE
  8
1
 66
1
 10
0.0000
 20
0.0000
 30
0.0000
 40
0.7500
 41
0.7500
 70
0
  0
VERTEX
  8
1
 10
57.6400
 20
50.2650
 30
0.0000
 42
1.0000
  0
VERTEX
  8
1
 10
57.6400
 20
49.5150
 30
0.0000
  0
SEQEND
  8
0
  0
POLYLINE
  8
1
 66
1
 10
0.0000
 20
0.0000
 30
0.0000
 40
1.5000
 41
1.5000
 70
0
  0
VERTEX
  8
1
 10
52.7500
 20
45.0000
 30
0.0000
  0
VERTEX
  8
1
 10
57.6400
 20
49.8900
 30
0.0000
  0
SEQEND
  8
0
  0
POLYLINE
  8
1
 66
1
 10
0.0000
 20
0.0000
 30
0.0000
 40
0.7500
 41
0.7500
 70
0
  0
VERTEX
  8
1
 10
57.9052
 20
49.6248
 30
0.0000
 42
1.0000
  0
VERTEX
  8
1
 10
57.3748
 20
50.1552
 30
0.0000
  0
SEQEND
  8
0
  0
POLYLINE
  8
1
 66
1
 10
0.0000
 20
0.0000
 30
0.0000
 40
0.7500
 41
0.7500
 70
0
  0
VERTEX
  8
1
 10
52.4848
 20
45.2652
 30
0.0000
 42
1.0000
  0
VERTEX
  8
1
 10
53.0152
 20
44.7348
 30
0.0000
  0
SEQEND
  8
0
  0
POLYLINE
  8
1
 66
1
 10
0.0000
 20
0.0000
 30
0.0000
 40
1.5000
 41
1.5000
 70
0
  0
VERTEX
  8
1
 10
62.2803
 20
49.8900
 30
0.0000
  0
VERTEX
  8
1
 10
62.2803
 20
53.5303
 30
0.0000
  0
SEQEND
  8
0
  0
POLYLINE
  8
1
 66
1
 10
0.0000
 20
0.0000
 30
0.0000
 40
0.7500
 41
0.7500
 70
0
  0
VERTEX
  8
1
 10
62.6553
 20
53.5303
 30
0.0000
 42
1.0000
  0
VERTEX
  8
1
 10
61.9053
 20
53.5303
 30
0.0000
  0
SEQEND
  8
0
  0
POLYLINE
  8
1
 66
1
 10
0.0000
 20
0.0000
 30
0.0000
 40
0.7500
 41
0.7500
 70
0
  0
VERTEX
  8
1
 10
61.9053
 20
49.8900
 30
0.0000
 42
1.0000
  0
VERTEX
  8
1
 10
62.6553
 20
49.8900
 30
0.0000
  0
SEQEND
  8
0
  0
POLYLINE
  8
1
 66
1
 10
0.0000
 20
0.0000
 30
0.0000
 40
1.5000
 41
1.5000
 70
0
  0
VERTEX
  8
1
 10
65.1639
 20
56.4139
 30
0.0000
  0
VERTEX
  8
1
 10
68.6090
 20
56.4139
 30
0.0000
  0
SEQEND
  8
0
  0
POLYLINE
  8
1
 66
1
 10
0.0000
 20
0.0000
 30
0.0000
 40
0.7500
 41
0.7500
 70
0
  0
VERTEX
  8
1
 10
68.6090
 20
56.0389
 30
0.0000
 42
1.0000
  0
VERTEX
  8
1
 10
68.6090
 20
56.7889
 30
0.0000
  0
SEQEND
  8
0
  0
POLYLINE
  8
1
 66
1
 10
0.0000
 20
0.0000
 30
0.0000
 40
0.7500
 41
0.7500
 70
0
  0
VERTEX
  8
1
 10
65.1639
 20
56.7889
 30
0.0000
 42
1.0000
  0
VERTEX
  8
1
 10
65.1639
 20
56.0389
 30
0.0000
  0
SEQEND
  8
0
  0
POLYLINE
  8
1
 66
1
 10
0.0000
 20
0.0000
 30
0.0000
 40
1.5000
 41
1.5000
 70
0
  0
VERTEX
  8
1
 10
62.2803
 20
53.5303
 30
0.0000
  0
VERTEX
  8
1
 10
65.1639
 20
56.4139
 30
0.0000
  0
SEQEND
  8
0
  0
POLYLINE
  8
1
 66
1
 10
0.0000
 20
0.0000
 30
0.0000
 40
0.7500
 41
0.7500
 70
0
  0
VERTEX
  8
1
 10
65.4291
 20
56.1487
 30
0.0000
 42
1.0000
  0
VERTEX
  8
1
 10
64.8987
 20
56.6791
 30
0.0000
  0
SEQEND
  8
0
  0
POLYLINE
  8
1
 66
1
 10
0.0000
 20
0.0000
 30
0.0000
 40
0.7500
 41
0.7500
 70
0
  0
VERTEX
  8
1
 10
62.0151
 20
53.7955
 30
0.0000
 42
1.0000
  0
VERTEX
  8
1
 10
62.5455
 20
53.2651
 30
0.0000
  0
SEQEND
  8
0
  0
ENDSEC
  0
EOF
